<svg id="Layer_1" data-name="Layer 1" xmlns="http://www.w3.org/2000/svg" viewBox="0 0 471.36 1100.07"><defs><style>.cls-1{fill:#53b848;fill-rule:evenodd;}</style></defs><title>bottle-mask</title><path class="cls-1" d="M434,1048s6,28.71,28,61c0,0,6.29,8.71,15,13s61,26.43,165,25c55.14-.76,183.63-2.08,201-56,0,0,16.5-39.5,20-50s14.5-64,12-117-15-104.5-18-118-16-84.5-16-139,8.5-121,17-151,11.5-49,9-54-11.3-15.7-25-18c0,0,27.5-2,31-14s11.5-37.5,10-68c0,0-2.5-2.5-10-5a39.51,39.51,0,0,0,1-15c-2.28-19.52-14.25-54.6-59-82,0,0-62.2-34.5-87-55,0,0-37.25-22.75-40-60a84.57,84.57,0,0,1,2-27c3.5-13.75,7.75-56.5-12-67,0,0-3-4-32-4s-31.75,5-36,12-7.5,19.5-7,33,0.16,16.11,3,31c2.1,11,2.45,32.9-9,51-6.39,10.1-18.25,25.25-50,46,0,0-58.49,36-65,39-17.6,8.11-59.71,46.64-61.21,86.5-0.14,3.74.88,7.57,1.21,11.5,0,0-9,.75-10,4s2.25,50.25,11,75c0,0,5.55,4.45,29,8,0,0-27.35,6.8-25,26,2.08,17,5.25,31.75,6,35s14.25,49.25,20,117-6,136-6,136-2.5,24.5-13,71-16,95.25-14,133S425.5,1018.75,434,1048Z" transform="translate(-411.83 -47)"/></svg>