<svg id="Layer_1" data-name="Layer 1" xmlns="http://www.w3.org/2000/svg" viewBox="0 0 455.77 703.6"><defs><style>.cls-1{fill:#54b948;fill-rule:evenodd;}</style></defs><title>draw-area-mask</title><path class="cls-1" d="M452,444s-27.35,6.8-25,26c2.08,17,5.25,31.75,6,35s14.25,49.25,20,117-6,136-6,136-2.5,24.5-13,71-16,95.25-14,133,5.5,56.75,14,86c0,0,6,28.71,28,61,0,0,6.29,8.71,15,13s61,26.43,165,25c55.14-.76,183.63-2.08,201-56,0,0,16.5-39.5,20-50s14.5-64,12-117-15-104.5-18-118-16-84.5-16-139,8.5-121,17-151,11.5-49,9-54-11.3-15.7-25-18c0,0-64,8.25-195,10S428.55,440.45,452,444Z" transform="translate(-419.59 -443.46)"/></svg>