<svg id="Layer_1" data-name="Layer 1" xmlns="http://www.w3.org/2000/svg" width="7.06cm" height="7.06cm" viewBox="0 0 200 200"><defs><style>.cls-1{fill:#9ed64d;fill-rule:evenodd;}</style></defs><title>ale-1</title><path class="cls-1" d="M87.82,105.14c1.07-.78.54-1.05-.24-2.11,0,0-3.41.22-8.93.68-7.36.17-11.3.13-13.4.36-5.51.46-10-1.16-14.14-3.33-4.72-1.1-8.35-4.31-11.71-8l-3.65-1.88s-.53-.28-2.1.24c-2.65,1.28-2.15,4.17.16,7.36A42.48,42.48,0,0,0,49,104.93c6.52,2.7,13.87,3.84,20.69,4.71a31.58,31.58,0,0,0,17.91-4"/><path class="cls-1" d="M122.62,137.6c1.1-3.39.36-7.08-3-10.8a33,33,0,0,1-4.62-9c-.76-2.38-1-4.48-.46-5.52a3.21,3.21,0,0,1,2.92-1.81,13,13,0,0,0,3.67-.73,13.13,13.13,0,0,1,3.38,2.39c1,1.86,1.56,2.12,1.3,2.65,1,3.17.71,5,.45,5.53-.31,4.45,1,8.42,4.6,10.3,1.57.81,2.08,1.07,5.25.06,4.74-1.52,9-3.31,12.68-6.66,2.39-2.08,3.74-4.7,3.51-6.8-1.06-.54-2.09-2.39-3.89-5.3l-4.17-2.16c-.53-.27-1.57-.81-1-1.85-2.85-2.14-3.37-3.72-3.62-4.5-.5-1.6,0-2.64-.74-3.7.81-1.55,2.39-2.06,4.5-2.31,2.37-.76,3.92,1.37,5.2,4a30.36,30.36,0,0,0,7.19,12.95,4.47,4.47,0,0,0,4.74-.19c1-.79,1.85-2.35,4.24-4.43,1.61-3.13,3-5.74,3.27-8.88a26.41,26.41,0,0,0-2.2-13.69c-3.86-6.6-8-11.39-13.21-14.09-2.37-.54-3.94,0-4.21.48,0,2.63-.31,3.15-.31,4.47a10.58,10.58,0,0,1-1.4,6.55c-.8,1.56-3.17,2.33-5.82,3.6l-2.61-1.35a7.31,7.31,0,0,1-1-5.78,9.93,9.93,0,0,1,4.25-4.41c1.86-1,2.67-2.6,2.7-5.22-.77-1.06-1.54-3.44-3.61-5.83a38.18,38.18,0,0,0-10.46-4.06c-3.69.74-5.28,2.56-5.83,4.91,1,3.17.45,5.52.94,8.42,1.28,2.64.47,5.52-.11,9.19-.8,1.56-1.62,3.12-3.72,3.36-.54,1-1.58.51-2.62,0a5.91,5.91,0,0,1-2.83-4.75,33.11,33.11,0,0,1,3-7.06c1.35-2.61,2.69-5.22,2.45-7.33a17,17,0,0,0-2.79-8.69L117,58.74c-1.57-.81-4.19-.83-6-1.13-3.14-.31-5.49-.85-9.17-.11-1.56-.81-3.42.23-4.73.22-2.11.23-2.91,1.79-3.72,3.36a7.23,7.23,0,0,0-.07,6.55c-.55,1,.49,1.59.23,2.11.52.27,1.56,2.12,4.16,3.46,2.83,4.77,3.59,7.14,3.28,10.3-.8,1.55-1.06,2.08-1.6,3.12s-1.86,1-2.39,2.08c-.53-.28-.79.25-1.83-.29-1.06.78-1.06.78-2.11.24a51.78,51.78,0,0,0-3.89-5.29c-.23-.8.3-1.84-.2-3.41.26-.53-.5-2.91-.71-6.32-1.77-5.54-4.1-8.72-5.66-9.53L81,63.3c-2.63,0-3.15-.31-3.42.22a17.76,17.76,0,0,0-8.71,4.11,20.17,20.17,0,0,0-7.46,8C60.05,78.27,60,80.89,60,83.53c0,3.92.18,7.35,2,10.25a14.55,14.55,0,0,0,8.86,4.58q7.07,1.66,7.84,4a29.72,29.72,0,0,0,1.8,2.91c0,1.31-.27,1.83-2.15,4.17a23.07,23.07,0,0,0-6.11,5.44c-1.58.51-1.84,1-2.64,2.6a7.85,7.85,0,0,0-1.12,4.72c-1.36,3.92-.09,7.87,2.76,11.32a36,36,0,0,1,4.9,5.83,6.49,6.49,0,0,0,4.18,2.15,13.94,13.94,0,0,0,10.23.64c1.86-1,3.7-2.06,3.46-4.15.31-3.15.6-5,.11-7.87-1.27-2.65-1.53-3.43-1.5-6.06-1.3-1.33-.76-2.37-1.53-3.42a24.77,24.77,0,0,0,.82-2.89c.54-1,.8-1.57,1.35-2.61,1.33-1.3,2.91-1.81,4.47-1s2.07,2.39,3.37,3.7a1.17,1.17,0,0,1,.51,1.6A54.58,54.58,0,0,0,102,125c-2.43,6-1.71,11,1.66,14.73a10.19,10.19,0,0,0,9.71,1.7c4.47-1,7.89-2.54,9.22-3.83"/></svg>