<svg id="Layer_1" data-name="Layer 1" xmlns="http://www.w3.org/2000/svg" xmlns:xlink="http://www.w3.org/1999/xlink" width="7.06cm" height="7.06cm" viewBox="0 0 200 200"><defs><style>.cls-1,.cls-5{fill:none;}.cls-1{clip-rule:evenodd;}.cls-2{fill:#231f20;}.cls-2,.cls-3,.cls-5{fill-rule:evenodd;}.cls-3{fill:#ffb84f;}.cls-4{clip-path:url(#clip-path);}.cls-5{stroke:#fff;stroke-miterlimit:10;stroke-width:4.38px;}</style><clipPath id="clip-path"><path class="cls-1" d="M96.73,50.76c-4.57-1.27-8.8-1.29-11.89,1-2.57,1.89-6.86,7.71-7.53,10.7-1.32,6,6.63,11.32,9.67,15.8,7,10.24,11.73,22.34,12.36,34.69a78.13,78.13,0,0,1-6.13,34c-1.4,3.3-2.31,8,.12,11,5.11,6.55,18-.36,22.75-3.84,11.18-8.2,22.43-20.87,25.54-34.87,3.79-17.08-3.8-38.73-16.5-50.35C116.66,61.22,108.06,53.92,96.73,50.76Z"/></clipPath></defs><title>banana-3</title><path class="cls-2" d="M75.74,41.91C80,44.2,83.95,46.79,88.07,49.3c2.68,1.63,7.61,3.47,7.12,7.24s-4,7.25-6.63,9.55c-3.54,3.14-6.12,1.2-9.92-.52-2.78-1.27-5.39-2.91-8.11-4.45-5.69-3.22-16.69-4.61-12-13.13C60.8,43.88,63,39,68,39.27A19.27,19.27,0,0,1,75.74,41.91Z"/><path class="cls-3" d="M96.73,50.76c-4.57-1.27-8.8-1.29-11.89,1-2.57,1.89-6.86,7.71-7.53,10.7-1.32,6,6.63,11.32,9.67,15.8,7,10.24,11.73,22.34,12.36,34.69a78.13,78.13,0,0,1-6.13,34c-1.4,3.3-2.31,8,.12,11,5.11,6.55,18-.36,22.75-3.84,11.18-8.2,22.43-20.87,25.54-34.87,3.79-17.08-3.8-38.73-16.5-50.35C116.66,61.22,108.06,53.92,96.73,50.76Z"/><g class="cls-4"><path class="cls-5" d="M75.64,50.2C84,53.1,94.88,63.4,101.18,69.63c8,7.88,12.91,20.82,14.19,32,2.44,21.46-3.75,46-20,61.36"/></g></svg>