<svg id="Layer_1" data-name="Layer 1" xmlns="http://www.w3.org/2000/svg" width="7.06cm" height="7.06cm" viewBox="0 0 200 200"><defs><style>.cls-1{fill:#ffb13d;fill-rule:evenodd;}</style></defs><title>branch-3</title><path class="cls-1" d="M37.15,59.49c-1-2.06-3.34-3.48-4-3.15C31.75,57,30.37,57.65,31,59l-.37,1s3,4.49,7,9.36c2.7,2.11,5,5.24,7.3,10.07,1.7,0,2.69,2.1,3.34,3.48a1.5,1.5,0,0,0-2-.72c-.68.32-1.41,2.36-2.14,4.39a37.35,37.35,0,0,0-1.92,10.22,65.27,65.27,0,0,0,2.8,13q2.85,11.33,5.89,12.42c2.72.39,2.77-1.31,3.16-4,1.09-3,.87-8.86,1.7-16-1.23-6.17-1.53-8.57-1.53-8.57.4-2.73-.25-4.11.8-5.44,2,2.43,5.7,4.9,11.45,8.09-.66-1.39-.66-1.39-.69.33-2-.74-1.38.65-2.47,3.7l1.53,8.57c1.24,6.18,2.47,12.35,4.44,16.49,1.93,5.84,3.93,8.28,7,7.66,1.34,1.06,2.75-1.31,3.15-4-.25-4.11-1.53-8.58-2.08-15.08a84.24,84.24,0,0,1-1.49-10.28c-1-2.07-1.64-3.46-2-4.14C78,101,83.72,104.19,88.8,106l-1.38.66c-.69.33-1.73,1.68-1.45,4.07l1.89,7.55,7.2,15.19c4.66,6.24,7,9.37,9.05,8.39,2.76-1.31,3.45-1.63,1.82-5.09-.27-4.11-1.54-8.57-4.81-15.48l-3.6-7.59c.4-2.73-.25-4.12-2.62-5.53a36,36,0,0,1,10.18,3.63c1.71,0,4.43.45,6.1,2.18a3.44,3.44,0,0,0-1.09,3c0,1.71,1.6,5.16,1.53,8.58,2.62,5.53,5.24,11,8.26,13.84,1.64,3.45,3,4.5,5.38,4.21a4.21,4.21,0,0,0,2.47-3.71c-1.64-3.45-2.22-8.24-4.51-13.07l-3.6-7.6c-.3-2.4-1-3.78-2-4.14,2.4-.29,7.16.84,9.56.55.65,1.38.65,1.38,2,.72-1.38.66-1.06,1.34-1.06,1.34l1.2,7.88a63,63,0,0,0,5.27,9.34c2.62,5.52,5.64,8.32,7.71,7.34a2,2,0,0,0,1.08-3.05c-.26-4.1-1.89-7.55-2.47-12.35l-3.27-6.9-1.31-2.76c.69-.33,2.39-.3,3.09-.63l.65,1.39c-.69.33-.36,1,1.63,3.45l6.07,3.89A27.2,27.2,0,0,1,158.39,128c6.46,1.16,10.57.91,10.6-.8.72-2,.4-2.73-1.63-3.45-2.33-3.12-6.07-3.88-10.47-6a20.8,20.8,0,0,1-7.44-3.23l-.69.33.69-.33a74.65,74.65,0,0,0,10-5.6c5.52-2.62,8.32-5.64,8-6.33-.65-1.38-1.31-2.76-4.4-2.14-2.08,1-6.87,1.57-11.7,3.86a47,47,0,0,0-6.54,2.25c-2.76,1.31-4.83,2.29-5.2,3.31-1.38.65-.73,2-1.77,3.37-1-.36-2.4.3-5.13-.11-2.39.29-5.12-.11-8.87-.87l1.39-.65c2.4-.3,7.22-2.59,12.42-5.89,5.56-4.33,8.68-6.65,8-8,.39-2.72-1.64-3.45-4-3.16-4.11.26-8.24,2.23-14.42,3.46l-9,4.25c-3.78.95-5.52,2.62-6.9,3.27a8.15,8.15,0,0,1-.77,3.75c-2-.72-4.76-1.12-6.43-2.87-3.09.63-5.09-1.81-6.79-1.85l5.85-1.93c2.72.4,7.55-1.89,13.1-6.22,5.2-3.3,9.38-7,8.39-9,0-1.71-1-2.08-5.09-1.81-3.77,1-8.56,1.53-14.09,4.15s-8.25,2.21-9.63,2.87c-3.45,1.64-5.52,2.62-6.25,4.66-.69.32-1.41,2.36-.43,4.42-6.43-2.86-9.81-4.64-13.88-6.09l6.17-1.25A68.83,68.83,0,0,0,95.37,86c6.9-3.28,9.37-7,9.74-8-1.31-2.77-1.64-3.45-5.74-3.19a57.68,57.68,0,0,0-14.79,4.46c-5.52,2.62-9.63,2.88-9,4.25-4.1.25-7.55,1.89-7.59,3.6a8.12,8.12,0,0,1-1.77,3.39c-1.68-1.76-5.38-4.22-8.4-7l8.9-.83a72.74,72.74,0,0,0,13.84-8.26c6.25-4.66,8.68-6.65,9.4-8.69-1-2.07-3.35-3.49-5.41-2.5-4.11.25-10,2.19-15.48,4.8a42.94,42.94,0,0,0-8.94,2.55c-4.82,2.29-6.9,3.27-7.63,5.31-.69.33-.69.33-.37,1-3-2.79-5-5.24-8-8-3.67-4.17-5-6.93-7-9.37"/></svg>