<svg id="Layer_1" data-name="Layer 1" xmlns="http://www.w3.org/2000/svg" width="7.06cm" height="7.06cm" viewBox="0 0 200 200"><defs><style>.cls-1{fill:#95d600;fill-rule:evenodd;}</style></defs><title>branch1-1</title><path class="cls-1" d="M151,49.13c2.18-.33,4.15-2.12,4-2.85-.22-1.46-.45-2.92-1.9-2.7l-.85-.63s-5,1.51-10.61,3.85c-2.7,1.9-6.24,3.18-11.36,4-.5,1.57-2.69,1.9-4.15,2.12a1.45,1.45,0,0,0,1.24-1.69c-.11-.72-1.79-2-3.47-3.2A36,36,0,0,0,115,43.38a62.89,62.89,0,0,0-12.85-1q-11.29-.52-13.14,2c-1.12,2.41.44,2.93,2.86,4.06,2.52,1.86,8,3.27,14.35,6,6.05.57,8.36,1,8.36,1,2.41,1.13,3.87.91,4.82,2.26-2.8,1.17-6.13,3.91-10.69,8.34,1.47-.22,1.47-.22-.11-.73,1.25-1.68-.22-1.46-2.74-3.32l-8.36-1c-6.06-.57-12.12-1.15-16.5-.49-5.95.15-8.77,1.33-9,4.36-1.35.94.45,2.91,2.85,4,3.87.91,8.36,1,14.54,2.28a81.16,81.16,0,0,1,9.93,1.49l4.38-.67c-2.48,3.36-7,7.79-10.13,12l-.22-1.46c-.11-.73-1.07-2.07-3.37-2.47l-7.52-.36L66.36,82.11c-7.08,2.57-10.63,3.85-10.3,6,.44,2.92.55,3.65,4.21,3.1,3.88.9,8.36,1,15.66-.14l8-1.21c2.42,1.13,3.88.91,5.85-.89a34.83,34.83,0,0,1-6.2,8.41c-.51,1.57-1.65,4-3.72,5a3.32,3.32,0,0,0-2.52-1.86c-1.57-.51-5.22,0-8.36-1-5.84.88-11.68,1.77-15.11,3.78-3.65.56-5,1.51-5.4,3.81a4.07,4.07,0,0,0,2.74,3.32c3.65-.55,8.25.25,13.36-.53l8-1.21q3.45.59,4.38-.67c-.4,2.3-2.77,6.39-3.17,8.69-1.46.22-1.46.22-1.24,1.69-.22-1.47-.95-1.35-.95-1.35L64,116.07a61.36,61.36,0,0,0-10.11,2.27c-5.84.88-9.28,2.9-8.94,5.09a2,2,0,0,0,2.52,1.86c3.87.91,7.52.36,12.12,1.15l7.3-1.1,2.92-.45c.12.73-.39,2.3-.28,3l-1.47.22c-.11-.73-.85-.62-3.65.55l-5.29,4.54a26.25,26.25,0,0,1-5.36,9c-2.88,5.66-3.79,9.53-2.21,10,1.68,1.24,2.41,1.13,3.65-.55,3.54-1.29,5.29-4.54,8.49-8a20.13,20.13,0,0,1,5.07-6l-.11-.73.11.73a72.44,72.44,0,0,0,2.39,10.84c.88,5.84,2.9,9.28,3.63,9.16,1.46-.22,2.92-.44,3.2-3.47-.33-2.2.47-6.8-.31-11.9a45.52,45.52,0,0,0-.26-6.68c-.44-2.92-.77-5.11-1.62-5.73-.22-1.46-1.68-1.24-2.63-2.58.61-.84.4-2.3,1.53-4.72.4-2.29,1.53-4.71,3.28-8l.22,1.47c-.4,2.3.38,7.41,2,13.14,2.46,6.35,3.73,9.89,5.19,9.67,2.41,1.13,3.65-.55,4.06-2.85.91-3.87.24-8.25.81-14.32l-1.44-9.49c.18-3.77-.88-5.84-1.1-7.3a7.83,7.83,0,0,1-3.25-1.75c1.24-1.68,2.36-4.09,4.45-5.15.28-3,3.09-4.21,3.6-5.77l.16,6c-1.13,2.41-.36,7.52,2.1,13.87,1.61,5.73,3.85,10.63,6,10.3,1.58.51,2.2-.33,3.1-4.21.17-3.76,1-8.35.08-14.2s.25-8.25,0-9.72c-.56-3.65-.89-5.84-2.57-7.08-.11-.73-1.79-2-4-1.63,4.44-5.16,7-7.79,9.51-11.15l-.57,6.06a66.54,66.54,0,0,0,3.78,15.11c1.11,7.3,3.85,10.62,4.69,11.24,2.93-.44,3.65-.55,4.55-4.42a55.81,55.81,0,0,0,0-14.93c-.88-5.84,0-9.72-1.43-9.49.91-3.87.35-7.52-1.22-8a7.81,7.81,0,0,1-2.64-2.59c2.09-1.06,5.41-3.8,8.84-5.82l-1.71,8.47a70.49,70.49,0,0,0,3.79,15.11c2.57,7.08,3.74,9.89,5.42,11.13,2.19-.33,4.16-2.12,3.82-4.31.91-3.88.75-9.83-.13-15.67a41.44,41.44,0,0,0,.13-9c-.78-5.1-1.1-7.3-2.79-8.54-.11-.73-.11-.73-.83-.62,3.43-2,6.24-3.18,9.67-5.19,4.88-2.24,7.81-2.68,10.62-3.85"/></svg>