<svg id="Layer_1" data-name="Layer 1" xmlns="http://www.w3.org/2000/svg" width="7.06cm" height="7.06cm" viewBox="0 0 200 200"><defs><style>.cls-1{fill:#f678c4;}.cls-2{fill:#9a3cbb;}</style></defs><title>butterfly2-1</title><path class="cls-1" d="M51,123.17c13.73,1.17,25.3-5.46,34.12-15.72C98.49,91.84,84.83,30.81,56.72,44c-23.19,10.94-5,38.8,7.82,50.33-8.81,0-24.24-.11-29.19,8.74C29,114.56,40.55,122.27,51,123.17"/><path class="cls-1" d="M107.28,150.45c-9.44-10-11.42-23.26-8.82-36.54,4-20.15,60.32-47.24,67.33-17,5.79,25-27.33,28-44.34,25,5.42,6.94,15.13,19,11.21,28.3-5,12.11-18.25,7.8-25.39.21"/><path class="cls-2" d="M107.59,109.75c-5.81,12-16,19-22.83,15.76S77.12,109.8,83,97.8s16-19,22.84-15.74,7.61,15.72,1.79,27.69"/></svg>