<svg id="Layer_1" data-name="Layer 1" xmlns="http://www.w3.org/2000/svg" xmlns:xlink="http://www.w3.org/1999/xlink" width="7.06cm" height="7.06cm" viewBox="0 0 200 200"><defs><style>.cls-1{fill:none;}.cls-2{fill:#fff;}.cls-3{fill:#69bcf7;}.cls-4{opacity:0.5;fill:url(#New_Pattern_Swatch_22);}.cls-5{fill:#d97f82;}</style><pattern id="New_Pattern_Swatch_22" data-name="New Pattern Swatch 22" width="209.15" height="233.5" patternTransform="translate(192.79 18.66) scale(0.34)" patternUnits="userSpaceOnUse" viewBox="0 0 209.15 233.5"><rect class="cls-1" width="209.15" height="233.5"/><path class="cls-2" d="M29.87,53.46c.24,9.42,9,15.15,17.55,9.85,6.1-3.8,4.8-15.38-.89-19C39.35,39.84,29.65,44.85,29.87,53.46Z"/><path class="cls-2" d="M144.75,116.9c.57,22.51,21.56,36.2,41.91,23.53,14.57-9.07,11.48-36.73-2.13-45.29C167.4,84.37,144.22,96.32,144.75,116.9Z"/><path class="cls-2" d="M48.29,193.27c.4,15.9,15.23,25.57,29.6,16.62,10.29-6.41,8.11-25.94-1.5-32C64.29,170.29,47.91,178.73,48.29,193.27Z"/><path class="cls-2" d="M198.82,18.17a8.79,8.79,0,0,0-5.68-3.46c-11.66-2.12-17.79,16.82-6.12,21.44S204.19,25.46,198.82,18.17Z"/><path class="cls-2" d="M177.64,191.3a11.18,11.18,0,0,0-7.22-4.4c-14.83-2.7-22.63,21.39-7.79,27.27S184.48,200.59,177.64,191.3Z"/><path class="cls-2" d="M131.92,15.27A14.09,14.09,0,0,0,122.84,10c-18.65-3.24-28.5,25.88-9.83,33S140.5,26.48,131.92,15.27Z"/><path class="cls-2" d="M109.6,113a7,7,0,0,0-4.51-2.64c-9.26-1.61-14.15,12.85-4.88,16.37S113.86,118.59,109.6,113Z"/><path class="cls-2" d="M30.42,131.23a7,7,0,0,0-4.51-2.64C16.65,127,11.76,141.45,21,145S34.68,136.8,30.42,131.23Z"/><rect class="cls-1" width="209.15" height="233.5"/></pattern></defs><title>butterfly1-3</title><path class="cls-3" d="M48.09,128.5c15,.23,27-7.83,35.85-19.63C97.29,90.93,77.88,25.72,48.38,42.2,24,55.82,45.83,84.68,60.64,96.23c-9.56.7-26.32,1.71-31,11.68-6,12.89,7.08,20.39,18.47,20.59"/><path class="cls-3" d="M111.22,153.88c-11-10.2-14.12-24.4-12.3-39,2.78-22.18,61.91-55.8,71.79-23.51,8.17,26.69-27.55,32.4-46.23,30.49,6.4,7.13,17.84,19.44,14.28,29.87-4.54,13.52-19.21,9.84-27.54,2.14"/><path class="cls-4" d="M48.09,128.16c15,.23,27-7.83,35.85-19.63C97.29,90.6,77.88,25.39,48.38,41.86,24,55.48,45.83,84.35,60.64,95.89c-9.56.7-26.32,1.71-31,11.68-6,12.89,7.08,20.39,18.47,20.59"/><path class="cls-4" d="M111.22,153.54c-11-10.2-14.12-24.4-12.3-39,2.78-22.18,61.91-55.8,71.79-23.51,8.17,26.69-27.55,32.4-46.23,30.49,6.4,7.13,17.84,19.44,14.28,29.87-4.54,13.52-19.21,9.84-27.54,2.14"/><path class="cls-5" d="M108.51,109.68c-5.41,13.44-16,21.85-23.59,18.81s-9.48-16.48-4-29.94,16-21.84,23.61-18.79,9.45,16.49,4,29.91"/></svg>