<svg id="Layer_1" data-name="Layer 1" xmlns="http://www.w3.org/2000/svg" width="7.06cm" height="7.06cm" viewBox="0 0 200 200"><defs><style>.cls-1{fill:#d1eafd;}.cls-2{fill:gray;}</style></defs><title>butterfly-1</title><path class="cls-1" d="M93.55,150.54c9.23-10.2,11-23.38,8.15-36.58-4.3-20.06-61-46.11-67.47-15.8-5.33,25,27.74,27.45,44.66,24.21-5.3,7-14.75,19.18-10.71,28.45,5.24,12,18.35,7.45,25.36-.28"/><path class="cls-1" d="M149.23,122.35c-13.68,1.42-25.37-5-34.33-15.09-13.6-15.32-1-76.42,27.2-63.71,23.34,10.51,5.68,38.59-6.93,50.31,8.78-.11,24.19-.54,29.23,8.21,6.57,11.31-4.84,19.2-15.17,20.27"/><path class="cls-2" d="M117.11,97.5c6,11.86,5.43,24.21-1.29,27.64s-17.09-3.43-23.07-15.31-5.42-24.22,1.32-27.65,17.07,3.47,23,15.32"/></svg>