<svg id="Layer_1" data-name="Layer 1" xmlns="http://www.w3.org/2000/svg" width="7.06cm" height="7.06cm" viewBox="0 0 200 200"><defs><style>.cls-1{fill:#e03826;}.cls-2{fill:#49adf6;}</style></defs><title>butterfly3-3</title><path class="cls-1" d="M90.66,145.72c9.3-8.72,11.9-20.77,10.31-33.19C98.53,93.67,48.12,65.29,39.83,92.8,33,115.52,63.38,120.27,79.26,118.58c-5.43,6.08-15.08,16.6-12.06,25.48,3.93,11.45,16.39,8.28,23.46,1.67"/><path class="cls-1" d="M144.26,123.91c-12.74.27-23.05-6.56-30.57-16.56-11.41-15.19,4.86-70.7,30-56.81,20.78,11.49,2.32,36.1-10.23,46,8.12.57,22.4,1.34,26.39,9.82,5.22,10.95-5.93,17.37-15.57,17.58"/><path class="cls-2" d="M116.47,98.5c4.65,11.41,3.17,22.79-3.3,25.45S97.64,119.48,93,108s-3.16-22.78,3.33-25.44,15.52,4.5,20.14,15.9"/></svg>