<svg id="Layer_1" data-name="Layer 1" xmlns="http://www.w3.org/2000/svg" width="7.06cm" height="7.06cm" viewBox="0 0 200 200"><defs><style>.cls-1{fill:#ffce00;}</style></defs><title>crown1-1</title><path class="cls-1" d="M65.63,108c3.87,12,9.24,22.36,11.82,34.65,18.72-3,38.71-4.42,57.16-1.2,5-17.42,8.52-36.22,14.33-53.18,12.52-2,18.21-21.25,3-25.93-13.23-4.06-19.41,10.93-14.49,16.56-7.55,5.92-11.53,17-19.61,19C114.38,92.18,105.58,82,103.1,75.65c6.69-5.9,5-22-9.72-17.54s-8.2,17.64-2.06,19.64C89,84.85,89.58,90.93,86.64,95.84c-7.16-3.89-17.78-13.44-24.78-17.51,10.78-18.88-20.21-18.49-22.77-.52-1.57,11,8,2.87,14.33,10C58.09,93,65.63,108,65.63,108Z"/></svg>