<svg id="Layer_1" data-name="Layer 1" xmlns="http://www.w3.org/2000/svg" width="7.06cm" height="7.06cm" viewBox="0 0 200 200"><defs><style>.cls-1{fill:#383536;}.cls-2{fill:#6d6d6d;}.cls-3{fill:#fff;}</style></defs><title>elephant-4</title><path class="cls-1" d="M100.93,135.85c-.24-.69-.49-1.35-.71-2A72.21,72.21,0,0,0,97,125.95a42.77,42.77,0,0,0-10.47,6.91c-2.93,2.49-6.67,4-8.8,7.38A7.22,7.22,0,0,0,78.1,149c1.6,2,4.26,3.7,7,3s4.34-3.07,6.49-4.56c3.07-2.13,8.6-2.12,10-6.19.57-1.71.06-3.62-.57-5.4"/><path class="cls-1" d="M167.07,110.21a44.53,44.53,0,0,0-3.53-11.28,30.66,30.66,0,0,0-19.47-16,32.92,32.92,0,0,0-20,.78c-2.54.95-4.73,1.69-7.32,2.44C106,89.24,89.69,99.72,87.64,111.8c-.78,4.61,0,2.42,2.56,6.1a46,46,0,0,1,7.75,23.68c.29,5.24-2,11.87.88,16.71,2.46,4.12,9.42,5.54,13.06,2.13,1.81-1.7,2.09-6.09,3.48-8.11,2.69-4,7.12-4.19,11.4-4.19,2.67,0,4.06,1.19,5.27,3.53,1.64,3.17,1.78,9.05,4.58,11.53,3.39,3,9.72,1.71,12.83-1,2.45-2.15.85-5.93,1-8.82.38-5.85,5-8.63,8.66-12.43a31.9,31.9,0,0,0,8.11-15.47,44.68,44.68,0,0,0-.19-15.22"/><path class="cls-1" d="M47,86.82C49,113.28,80.48,127.55,104,119.32c33.71-11.81,43.43-66.54,2.29-81.64C75.47,26.38,44.66,53.95,47,86.82"/><path class="cls-2" d="M91.63,111.47c1.34-2,3.9-3.93,6.49-6.74,5.45-5.89,9.65-12.95,13.38-20A184.14,184.14,0,0,0,124,55.17c1.73-5.35,18.69-2.28,21.64-1.42C160.41,58,167.37,67,168.21,82.24c.92,16.55-10.53,28.95-23.26,38.5-7.93,5.52-18.35,9.14-28,9.11a31.63,31.63,0,0,1-22.53-9.17c-4.29-4.24-4.47-6.74-2.79-9.2"/><path class="cls-2" d="M174.2,117c-1.34-3.14-4.72-7.09-8.86-6.91-.59-1.72-1.16-2.72-.36-4.36,1.81,1,8.49,2,10.88,9.2A13,13,0,0,1,174.2,117"/><path class="cls-2" d="M182.16,119.23a18.52,18.52,0,0,0-2.64-2.71c-1.09-.88-2.81-1.86-4.28-1.58-2.24.42-1.61,3.45-1.9,5a13.84,13.84,0,0,0-.33,3.73c.11.92.71,1.9,1.64,1.08.75-.67,1-2.83,1-3.83.2,1.48,1.68,4.71,3.4,4.86,2.63.22.61-4.42-.11-5.49.67.72,2.21,2.09,3.27,2,1.81-.2.72-2.11-.05-3"/><path class="cls-1" d="M60.91,88.69c-1.16-7.43-6.35-17.15-9.7-20.91.55.62-8.54,15-10.33,15.94-7.64,4-13.26-4.67-12-11.45.86-4.51,3.9-8.64,6.13-12.23-1.43-2.25-6.82-4.49-9.69-4.87-.18,0-5.58,10.92-6.15,12.23A28.7,28.7,0,0,0,17.92,86.8c2.83,9.55,12.38,14.95,21.38,16.74,4.54.91,9.24-.34,13.52,2,1.34.73,3.35,3.05,5.06,2.88,6-.62,3.62-16,3-19.71"/><path class="cls-1" d="M38.77,58.37c-3.17,6.82-15.2,2.27-17-3.73-.69-2.3.35-5.38,2.88-6.09,2.94-.83,5.36,2.2,6.47,4.56,4.34-3.2,10.31-.51,7.63,5.25"/><path class="cls-3" d="M76.7,73.28A9.4,9.4,0,1,0,80.42,86,9.4,9.4,0,0,0,76.7,73.28"/><path d="M76.11,73A7.23,7.23,0,1,0,79,82.82,7.22,7.22,0,0,0,76.11,73"/><path class="cls-3" d="M69.83,81.44a1.56,1.56,0,1,0,1.85,1.21,1.57,1.57,0,0,0-1.85-1.21"/><path class="cls-2" d="M69.18,102.83a2.69,2.69,0,0,1,1.24.54c1,.73,2.22,1.85.45,2.67-2.5,1.14-3.58-3.38-1.69-3.21"/><path class="cls-2" d="M61.8,110.81a7,7,0,0,1-3.83-1,.89.89,0,0,1,1-1.48,6.13,6.13,0,0,0,4.34.54A8.66,8.66,0,0,0,68.82,105a.89.89,0,0,1,1.48,1,10.41,10.41,0,0,1-6.64,4.6A9.46,9.46,0,0,1,61.8,110.81Z"/><path class="cls-3" d="M140.08,60.95a5.25,5.25,0,0,0-1.4-3.3c-4.44-4.83-12.17-1.78-10.9,5,1.44,7.65,12.76,6.14,12.3-1.71"/><path class="cls-3" d="M156.55,77.13a4.74,4.74,0,0,0,3.12-.86c4.86-3.4,3-10.69-3.19-10.36-7,.37-7,10.7.07,11.22"/><path class="cls-3" d="M142.92,70.82l-.45-.13a4,4,0,0,0-3.8,6.81c4.19,4,10.08-4.72,4.25-6.68"/><path class="cls-3" d="M162.33,82.57l-.45-.14a4,4,0,0,0-3.79,6.81c4.18,4,10.08-4.72,4.25-6.68"/><path class="cls-3" d="M150.27,103.07l-.45-.13a4,4,0,0,0-3.8,6.81c4.19,4,10.08-4.72,4.25-6.68"/><path class="cls-3" d="M148.2,59.62l-.38-.11a3.3,3.3,0,0,0-3.15,5.66c3.47,3.29,8.37-3.93,3.53-5.55"/><path class="cls-3" d="M160.14,98.19c0-.13,0-.26-.05-.39a3.3,3.3,0,0,0-6.45-.55c-1.58,4.52,7,6,6.51.94"/><path class="cls-3" d="M150.4,93.93a3.32,3.32,0,0,0,0-.34,2.87,2.87,0,0,0-5.51-1.19c-1.86,3.73,5.39,6,5.51,1.53"/><path class="cls-3" d="M143.77,114.5a3.44,3.44,0,0,0,0-.35,2.89,2.89,0,0,0-5.55-1.19c-1.87,3.75,5.43,6,5.55,1.54"/><path class="cls-3" d="M129.08,124l.25-.16a2.48,2.48,0,0,0-1.68-4.57c-3.58.37-1.87,6.69,1.43,4.73"/><path class="cls-3" d="M136.15,87.86l.25-.16a2.48,2.48,0,0,0-1.68-4.57c-3.58.37-1.87,6.7,1.43,4.73"/><path class="cls-3" d="M152.7,83.69c0-.12,0-.25,0-.39A3.26,3.26,0,0,0,146.44,82c-2.11,4.23,6.12,6.78,6.26,1.73"/><path class="cls-3" d="M128.39,73.33c0-.11,0-.23,0-.36a3,3,0,0,0-5.82-1.25c-2,3.94,5.69,6.31,5.82,1.61"/><path class="cls-1" d="M171,152.36c-.69-3.44-3.71-7-5.72-9.94a37,37,0,0,1-2.68-5.32c-.57-1.24-1.09-3.26-2.16-4.1-1.1,1.68-14.7,6.57-14.77,6.37a42.57,42.57,0,0,0,6.5,10.73c2.38,3,3.7,6.82,7,9.08a7.23,7.23,0,0,0,8.76,0c2.87-2.07,3.51-4.41,3-6.79"/></svg>