<svg id="Layer_1" data-name="Layer 1" xmlns="http://www.w3.org/2000/svg" width="7.06cm" height="7.06cm" viewBox="0 0 200 200"><defs><style>.cls-1{fill:#69bcf7;fill-rule:evenodd;}</style></defs><title>flower1-1</title><path class="cls-1" d="M102.48,159.47c-2.84,2.13-6.4,2.84-11.37,2.84-2.85-.71-5.68-.71-6.39-2.13,0-.7-1.43-.7-1.43-.7-3.55-3.56-5.68-9.24-5.68-16.35-.72-9.24,2.13-17.77,10.66-30.57l-5,2.14c-7.81,5-14.93,5.69-21.32,5.69a27.29,27.29,0,0,1-16.34-7.83,19.71,19.71,0,0,1-2.85-15.63c2.13-7.1,5.68-11.37,11.37-14.21,4.26-2.13,12.09-2.84,19.91-2.13,9.23,1.42,16.34,3.55,22,7.82-1.42-.71-2.13-2.84-5-6.4a75.69,75.69,0,0,1-5.68-19.9c-2.14-7.82,1.42-14.22,7.11-19.91,7.11-5,12.79-5.68,17.06-2.83,5.68,5,9.23,9.23,9.95,16.34,1.42,5.69-.72,17.06-5.69,32l-4.25,3.55C122.38,79.87,130.91,72.75,138,71.34c7.11-2.14,11.37-.71,14.92,1.42,2.14,3.55,4.26,7.11,4.26,11.37,1.43,4.27,0,7.83-2.13,11.38-2.14,2.13-7.11,4.27-13.51,7.1a160,160,0,0,1-17.06.72,15.73,15.73,0,0,1-11.38,0,85.49,85.49,0,0,1,21.33,7.82c5,2.84,7.81,7.11,10.66,12.79,2.13,5.69.71,10-3.56,13.51-5,5-9.24,5-13.51,2.13q-7.46-3.2-10.66-6.4a10,10,0,0,0-2.13-3.55c-2.14-2.13-4.26-3.55-5.68-5.69s-3.56-4.26-3.56-7.11c1.42,5,2.13,12.79,2.13,22.75,0,11.37-2.13,18.48-5.69,19.91"/></svg>