<svg id="Layer_1" data-name="Layer 1" xmlns="http://www.w3.org/2000/svg" width="7.06cm" height="7.06cm" viewBox="0 0 200 200"><defs><style>.cls-1{fill:#ffdb00;}.cls-1,.cls-2{fill-rule:evenodd;}.cls-2{fill:#2bdce0;}.cls-3{fill:#d7e5ed;}</style></defs><title>flowers3-4</title><path class="cls-1" d="M32.27,145.14c-1.41-1.44-2.07-3.38-2.45-6.16.19-1.65,0-3.24.72-3.74.39-.05.29-.85.29-.85,1.73-2.26,4.75-3.88,8.74-4.41,5.12-1.09,10.12-.14,17.93,3.68L55.93,131a21,21,0,0,1-4.78-11.52,15.41,15.41,0,0,1,3.16-9.75A11.15,11.15,0,0,1,62.85,107c4.14.66,6.8,2.33,8.82,5.31,1.51,2.23,2.5,6.56,2.68,11-.1,5.28-.76,9.43-2.73,12.93.29-.85,1.43-1.4,3.21-3.27a42.61,42.61,0,0,1,10.73-4.68c4.22-1.78,8.08-.27,11.69,2.49,3.32,3.61,4.15,6.74,2.87,9.35-2.36,3.56-4.48,5.87-8.41,6.8-3.08,1.22-9.62.88-18.36-.79L71.05,144c7.33,6.32,12,10.57,13.29,14.44,1.73,3.83,1.25,6.32.32,8.47-1.83,1.46-3.66,2.93-6,3.25-2.29,1.12-4.39.59-6.54-.34-1.36-1-2.93-3.67-5-7a92.42,92.42,0,0,1-1.68-9.51,8.87,8.87,0,0,1-.85-6.37,48,48,0,0,1-2.78,12.54c-1.21,3-3.4,4.91-6.37,6.94a6.18,6.18,0,0,1-7.84-1c-3.16-2.42-3.48-4.81-2.21-7.41a19.73,19.73,0,0,1,2.79-6.46A5.61,5.61,0,0,0,50,150.07a24.25,24.25,0,0,1,2.76-3.61c1.09-1,2.12-2.32,3.72-2.53-2.68,1.18-7,2.16-12.59,2.91-6.38.86-10.52.19-11.58-1.69"/><path class="cls-2" d="M130.84,115.82c-2,1.51-4.55,2-8.09,2-2-.51-4-.51-4.55-1.52,0-.5-1-.5-1-.5-2.52-2.53-4-6.57-4-11.63-.51-6.57,1.52-12.64,7.58-21.74L117.19,84A26.39,26.39,0,0,1,102,88a19.41,19.41,0,0,1-11.62-5.57,14,14,0,0,1-2-11.12c1.52-5.05,4-8.08,8.09-10.11,3-1.52,8.6-2,14.16-1.52,6.57,1,11.62,2.52,15.67,5.56-1-.5-1.52-2-3.54-4.55a53.83,53.83,0,0,1-4-14.16c-1.52-5.56,1-10.11,5.05-14.16,5.05-3.53,9.1-4,12.13-2,4,3.53,6.56,6.56,7.08,11.62,1,4-.51,12.13-4,22.75l-3,2.52c9.1-8.08,15.16-13.14,20.22-14.15,5.06-1.52,8.09-.51,10.61,1,1.52,2.53,3,5.06,3,8.08,1,3,0,5.57-1.51,8.09-1.52,1.52-5.06,3-9.6,5.05a113.78,113.78,0,0,1-12.13.51,11.18,11.18,0,0,1-8.09,0,60.8,60.8,0,0,1,15.17,5.56c3.54,2,5.56,5.05,7.58,9.1,1.51,4,.5,7.08-2.53,9.6-3.54,3.54-6.57,3.54-9.6,1.52a24.74,24.74,0,0,1-7.58-4.55,7.11,7.11,0,0,0-1.51-2.53c-1.52-1.52-3-2.53-4-4s-2.53-3-2.53-5.05c1,3.54,1.52,9.1,1.52,16.18,0,8.09-1.52,13.14-4,14.16"/><circle class="cls-3" cx="137.54" cy="149.53" r="7.98"/></svg>