<svg id="Layer_1" data-name="Layer 1" xmlns="http://www.w3.org/2000/svg" width="7.06cm" height="7.06cm" viewBox="0 0 200 200"><defs><style>.cls-1{fill:#b27a3b;}.cls-2{fill:#ffdb00;}.cls-3{fill:#e03826;}</style></defs><title>garden-3</title><path class="cls-1" d="M158.27,131.33a3.75,3.75,0,0,1-3.68-3,96.48,96.48,0,0,1-.53-33.52,3.75,3.75,0,0,1,7.4,1.18,89,89,0,0,0,.48,30.92,3.75,3.75,0,0,1-3.68,4.45Z"/><path class="cls-1" d="M93.67,132.15h-.09a3.75,3.75,0,0,1-3.66-3.84A106,106,0,0,0,87,101a3.75,3.75,0,0,1,7.29-1.75,113.6,113.6,0,0,1,3.11,29.26A3.75,3.75,0,0,1,93.67,132.15Z"/><path class="cls-2" d="M107.13,130.81a3.31,3.31,0,0,1-3.25-2.74,101.24,101.24,0,0,1-.69-30.15,3.31,3.31,0,1,1,6.56.83,94.7,94.7,0,0,0,.65,28.18,3.31,3.31,0,0,1-3.26,3.87Z"/><path class="cls-1" d="M132.57,131.27h-.3a3.75,3.75,0,0,1-3.44-4,102,102,0,0,0-1.73-28.57,3.75,3.75,0,1,1,7.34-1.5,109.46,109.46,0,0,1,1.86,30.67A3.75,3.75,0,0,1,132.57,131.27Z"/><path class="cls-1" d="M66.94,132.59A3.75,3.75,0,0,1,63.2,129a199.26,199.26,0,0,1,.72-30.14,3.75,3.75,0,0,1,7.46.75,191.63,191.63,0,0,0-.69,29,3.75,3.75,0,0,1-3.55,3.94Z"/><path class="cls-1" d="M44.19,134.82a3.75,3.75,0,0,1-3.71-3.28,109.27,109.27,0,0,0-8-29.48,3.75,3.75,0,1,1,6.89-3,116.74,116.74,0,0,1,8.55,31.5,3.75,3.75,0,0,1-3.72,4.21Z"/><path class="cls-2" d="M54.05,133.05a3.31,3.31,0,0,1-3.29-3C49.7,119,49.11,107.73,49,96.67a3.31,3.31,0,0,1,3.28-3.33h0a3.31,3.31,0,0,1,3.3,3.28c.08,10.86.66,21.9,1.71,32.81a3.31,3.31,0,0,1-3,3.61Z"/><path class="cls-1" d="M16.49,134.8a3.75,3.75,0,0,1-3.69-3.13,85.27,85.27,0,0,1,3-40.12,3.75,3.75,0,0,1,7.13,2.31,77.75,77.75,0,0,0-2.7,36.58,3.75,3.75,0,0,1-3.08,4.31A3.8,3.8,0,0,1,16.49,134.8Z"/><path class="cls-2" d="M29.5,134.41a3.31,3.31,0,0,1-3.3-3.23,119.82,119.82,0,0,0-2.06-19.45,3.31,3.31,0,1,1,6.5-1.23A126.56,126.56,0,0,1,32.81,131a3.31,3.31,0,0,1-3.23,3.38Z"/><path class="cls-1" d="M79,133a3.75,3.75,0,0,1-3.71-3.29,77.75,77.75,0,0,1,0-19.2,3.75,3.75,0,1,1,7.44.93,70.26,70.26,0,0,0,0,17.35A3.75,3.75,0,0,1,79.51,133Z"/><path class="cls-1" d="M119.33,133a3.75,3.75,0,0,1-3.71-4.28A64.38,64.38,0,0,0,113.81,102,3.75,3.75,0,0,1,121,100a72,72,0,0,1,2,29.84A3.75,3.75,0,0,1,119.33,133Z"/><path class="cls-1" d="M144.7,131a3.75,3.75,0,0,1-3.69-3.12,90.2,90.2,0,0,1-.8-24.55,3.75,3.75,0,1,1,7.46.78,82.73,82.73,0,0,0,.73,22.51,3.75,3.75,0,0,1-3.7,4.38Z"/><path class="cls-2" d="M170.06,131.26h-.21a3.31,3.31,0,0,1-3.09-3.51,112,112,0,0,0-.72-21.52,3.31,3.31,0,1,1,6.56-.86,118.72,118.72,0,0,1,.77,22.8A3.31,3.31,0,0,1,170.06,131.26Z"/><path class="cls-1" d="M183.68,133.45a3.75,3.75,0,0,1-3.69-3.14,93.46,93.46,0,0,1,1-34.9A3.75,3.75,0,0,1,188.27,97a85.89,85.89,0,0,0-.88,32.07,3.75,3.75,0,0,1-3.7,4.35Z"/><path class="cls-3" d="M156.59,97.37c5.34.84,11.39-.86,14.83-4.55,1.94-2.08,2.84-4.91,3.47-7.69a56.09,56.09,0,0,0,1.3-15.24,1.75,1.75,0,0,0-2.46-1.48L165.63,72a5,5,0,0,1-2.84.62c-1.6-.29-2.47-2-3.63-3.1-1.56-1.53-4-2.42-5.51-3.84a1.75,1.75,0,0,0-2.79.56,66.49,66.49,0,0,0-3.39,9c-1.81,6.12-3.19,14,2,18.89a13.35,13.35,0,0,0,7.1,3.27"/></svg>