<svg id="Layer_1" data-name="Layer 1" xmlns="http://www.w3.org/2000/svg" width="7.06cm" height="7.06cm" viewBox="0 0 200 200"><defs><style>.cls-1{fill:none;stroke:#000;stroke-linecap:round;stroke-miterlimit:10;stroke-width:7.5px;}.cls-2{fill:#a3d783;}</style></defs><title>garden-4</title><path class="cls-1" d="M157.77,95.56a93.26,93.26,0,0,0,.5,32.22"/><path class="cls-1" d="M93.67,128.61a109.94,109.94,0,0,0-3-28.29"/><path class="cls-2" d="M107.13,131a3.31,3.31,0,0,1-3.25-2.74,101.24,101.24,0,0,1-.69-30.15,3.31,3.31,0,1,1,6.56.83,94.7,94.7,0,0,0,.65,28.18,3.31,3.31,0,0,1-3.26,3.87Z"/><path class="cls-1" d="M132.56,127.73a105.88,105.88,0,0,0-1.79-29.61"/><path class="cls-1" d="M67.65,99.47A194.92,194.92,0,0,0,66.94,129"/><path class="cls-1" d="M44.2,131.28a113.24,113.24,0,0,0-8.27-30.49"/><path class="cls-2" d="M54.05,133.26a3.31,3.31,0,0,1-3.29-3c-1.07-11.1-1.65-22.33-1.74-33.39a3.31,3.31,0,0,1,3.28-3.33h0a3.31,3.31,0,0,1,3.3,3.28c.08,10.86.66,21.9,1.71,32.81a3.31,3.31,0,0,1-3,3.61Z"/><path class="cls-1" d="M16.49,131.26a81.54,81.54,0,0,1,2.83-38.35"/><path class="cls-2" d="M29.5,134.62a3.31,3.31,0,0,1-3.3-3.23,119.82,119.82,0,0,0-2.06-19.45,3.31,3.31,0,1,1,6.5-1.23,126.56,126.56,0,0,1,2.17,20.53,3.31,3.31,0,0,1-3.23,3.38Z"/><path class="cls-1" d="M79,129.45a74,74,0,0,1,0-18.28"/><path class="cls-1" d="M117.41,101.22a67.92,67.92,0,0,1,1.92,28.28"/><path class="cls-1" d="M143.94,103.92a86.61,86.61,0,0,0,.76,23.53"/><path class="cls-2" d="M170.06,131.47h-.21a3.31,3.31,0,0,1-3.09-3.51,112,112,0,0,0-.72-21.52,3.31,3.31,0,1,1,6.56-.86,118.72,118.72,0,0,1,.77,22.8A3.31,3.31,0,0,1,170.06,131.47Z"/><path class="cls-1" d="M183.69,129.91a89.07,89.07,0,0,1,.92-33.48"/><path class="cls-2" d="M156.59,97.58c5.34.84,11.39-.86,14.83-4.55,1.94-2.08,2.84-4.91,3.47-7.69a56.09,56.09,0,0,0,1.3-15.24,1.75,1.75,0,0,0-2.46-1.48l-8.09,3.56a5,5,0,0,1-2.84.62c-1.6-.29-2.47-2-3.63-3.1-1.56-1.53-4-2.42-5.51-3.84a1.75,1.75,0,0,0-2.79.56,66.49,66.49,0,0,0-3.39,9c-1.81,6.12-3.19,14,2,18.89a13.35,13.35,0,0,0,7.1,3.27"/></svg>