<svg id="Layer_1" data-name="Layer 1" xmlns="http://www.w3.org/2000/svg" width="7.06cm" height="7.06cm" viewBox="0 0 200 200"><defs><style>.cls-1{fill:#9778d3;}.cls-2,.cls-6{fill:#2e2a25;}.cls-2,.cls-3,.cls-4{fill-rule:evenodd;}.cls-3,.cls-5{fill:#fff;}.cls-4{fill:#c5a7e1;}.cls-7{fill:none;stroke:#2e2a25;stroke-linecap:round;stroke-linejoin:round;stroke-width:2.92px;}</style></defs><title>hipo3-1</title><path class="cls-1" d="M91.33,151.17c11.45-4.91,17.09-19.86,18.47-31.3a51.35,51.35,0,0,0,0-13.1c-.78-5.6-7.28-8.14-11.5-10.58a140.13,140.13,0,0,0-20.32-9.36c-5.7-2.17-12.77-4.2-18.84-3-11.36,2.3-22.37,13-23.93,24.84-1.7,12.86,9.73,24.25,20.26,30.47,5.5,3.25,11.17,7.1,16.92,9.91,4.23,2.06,9.23,3.62,14,3.28A15.21,15.21,0,0,0,91.33,151.17Z"/><path class="cls-1" d="M70.54,139.54c-2.93,7.79-6.71,15.25-9.65,23.06-2,5.42-.22,7.75,4.35,10.09s10.22,4.29,13.16-.45c2-3.25,2.18-7.15,2.9-10.8.78-4,2.29-7.52,3.54-11.34"/><path class="cls-1" d="M86.4,149.46c.92,4.94,2,10.11,3.23,15.16,1.35,5.63,4.16,6.55,9.26,5.93s10.87-2.17,10.65-7.75c-.15-3.83-2.2-7.15-3.65-10.58-1.56-3.71-2.31-7.51-3.42-11.37"/><path class="cls-1" d="M49.76,99.79C40.7,100.3,31.82,98.17,23,97c-5.74-.75-7.6,1.54-8.84,6.54s-1.85,10.92,3.44,12.71c3.63,1.23,7.46.49,11.19.37,4-.14,7.84.52,11.84.86"/><path class="cls-1" d="M40.19,116.36C34,120,27.85,122.79,21.43,126.09c-5.16,2.64-5.38,5.58-3.56,10.4s4.68,10,10.05,8.51c3.69-1.06,6.42-3.84,9.41-6.06,3.23-2.4,6.75-4,10.23-6"/><path class="cls-1" d="M47.08,77.5a11.66,11.66,0,0,1-6.67-4.36c-.49-.69-2.84-6.89-1.92-7a9.2,9.2,0,0,1-4-.26c-.63,5.86-1,12.13,5.84,14.49,6,2.1,11.53,1.88,12.37,10a13.57,13.57,0,0,0,5-2.47C54.47,82,54.42,79.64,47.08,77.5Z"/><path class="cls-2" d="M35.6,51.76c4.08,1.91,7.51,9.67,6.13,14A6.28,6.28,0,0,1,35.6,70c-2.42-.22-3.86-2.78-4.41-4.92-.75-2.91.21-5.73,1.08-8.49C32.62,55.5,33.65,50.85,35.6,51.76Z"/><path class="cls-3" d="M94.77,117.61c-4,4.16-11.94,14.2-11.34,20.42s7.45,4.58,11,2c4.65-3.37,6.75-9.29,10.46-13.52"/><path class="cls-4" d="M181.2,86.33c3.07,2.1,5.17,5.28,5.35,10.75.37,11.36-8.34,25.06-16.88,32-20.3,16.54-45.31,22.28-67.2,4a102.69,102.69,0,0,1-24.64-30.74c-10.57-20.78-2-53.44,21.55-61.24,16.38-5.42,35.23-4.38,46.25,10.54,5.54,7.49,5.84,16.73,11.44,23.71S174.34,81.64,181.2,86.33Z"/><path class="cls-3" d="M178.08,56.7a3.67,3.67,0,0,1,.53,0c4.14.51,6.1,7.14,6.63,9.27a46.26,46.26,0,0,1,1.48,12c-.14,6.71-1.37,14.41-6.62,19.63-5.45,5.42-18.55-.44-21-6.39-1.6-3.93,2-5,4.47-7.59,2.14-2.27,5-4.51,6.3-7.18,2.19-4.47,2.9-9.35,4.32-14C174.66,61,175.16,56.81,178.08,56.7Z"/><path class="cls-5" d="M113.28,83.05a11.45,11.45,0,1,0-8.39,13.84,11.44,11.44,0,0,0,8.39-13.84"/><path class="cls-6" d="M111.09,80.75A9.34,9.34,0,1,0,104.25,92a9.34,9.34,0,0,0,6.84-11.29"/><path class="cls-5" d="M106.21,84.9a2,2,0,1,0,.46,2.82,2,2,0,0,0-.46-2.82"/><path class="cls-5" d="M148.09,72.28a11.45,11.45,0,1,0-8.39,13.84,11.44,11.44,0,0,0,8.39-13.84"/><path class="cls-6" d="M145.9,70a9.34,9.34,0,1,0-6.84,11.29A9.34,9.34,0,0,0,145.9,70"/><path class="cls-5" d="M141,74.12a2,2,0,1,0,.46,2.82,2,2,0,0,0-.46-2.82"/><path class="cls-4" d="M79.38,59C75.55,54.24,56.44,38.31,52,49.21,45.7,64.57,70.55,73.88,81.4,66.62"/><path class="cls-4" d="M93.84,47.48c-1.29-6-11.23-28.8-20.11-21C61.25,37.36,79.29,56.81,92.25,55.17"/><path class="cls-6" d="M117.58,119.12a4.7,4.7,0,0,1,1.81-1.57c1.93-1.11,4.62-2.19,4.6,1.27,0,4.86-8.11,3.2-6.41.3"/><path class="cls-7" d="M121.32,120.64c.6,4.49,3.3,9.42,8.23,10,3.76.44,8.6-2,9.49-5.76"/></svg>