<svg id="Layer_1" data-name="Layer 1" xmlns="http://www.w3.org/2000/svg" xmlns:xlink="http://www.w3.org/1999/xlink" width="7.06cm" height="7.06cm" viewBox="0 0 200 200"><defs><style>.cls-1,.cls-7{fill:none;}.cls-2{clip-path:url(#clip-path);}.cls-3{fill:#9a3cbb;}.cls-4{fill:#fff;}.cls-5{fill:#f0b3ca;}.cls-6{fill:#2e2a25;}.cls-7{stroke:#9a3cbb;stroke-linecap:round;stroke-miterlimit:10;stroke-width:2.88px;}</style><clipPath id="clip-path"><ellipse class="cls-1" cx="100" cy="100" rx="104.42" ry="80.14"/></clipPath></defs><title>hipo1-1</title><g class="cls-2"><path class="cls-3" d="M143.3,182.63c0-1.43.05-2.89,0-4.38-.81-27.94-17.93-58.49-46.56-51.41-28.92,7.16-43.12,34-40.34,62.76,1.27,13,10.5,27.46,23.34,32.2C110.8,233.24,142,218.93,143.3,182.63Z"/><path class="cls-4" d="M118.58,159.89c1.38,11.53-.76,24-13.9,24.61-6,.29-14.88,2-19.47-2.07-5.58-5-5.59-14.55-4.81-22.51"/><path class="cls-3" d="M53.27,120.17c-6.09-26.8-2.87-58.83,25.88-70.26,19.81-7.87,46-4.4,61.43,11.34,15.12,15.43,13.56,42.93,9.86,62.52"/><path class="cls-5" d="M45.42,137.87a52.66,52.66,0,0,0,1.33,6.56c4.48,16.59,23.59,20.51,39.14,22.13,17.67,1.84,37,1,53.72-5.16,12.54-4.6,16.44-20.08,16.35-31.63-.05-6.52-2.23-16.2-6.09-21.61-9.32-13-28-17.57-43.64-17.53-16.44,0-33.23-.73-47,9.59C47.22,109.25,43.47,123.88,45.42,137.87Z"/><path class="cls-3" d="M60.65,69.41c-9.12-1.86-22.31-10.06-11-19.29,8.89-7.23,17.79,4.45,20.21,12.31"/><path class="cls-5" d="M59.81,64.72S50,60.93,54,55.12c0,0,3.65-3.86,10.25,3.7C64.21,58.82,60.35,63.9,59.81,64.72Z"/><path class="cls-3" d="M144.35,73.33c9.11-1.92,22.26-10.2,10.86-19.36-8.93-7.17-17.77,4.56-20.14,12.44"/><path class="cls-5" d="M146.14,69.25s9.77-3.85,5.79-9.64c0,0-3.68-3.83-10.22,3.76C141.71,63.37,145.6,68.43,146.14,69.25Z"/><path class="cls-4" d="M90,76.77A13.32,13.32,0,1,0,75.7,89.06,13.32,13.32,0,0,0,90,76.77"/><path class="cls-6" d="M88.36,73.43a10.86,10.86,0,1,0-11.62,10,10.86,10.86,0,0,0,11.62-10"/><path class="cls-4" d="M77.55,76.45a2.35,2.35,0,1,0-.5,3.28,2.35,2.35,0,0,0,.5-3.28"/><path class="cls-4" d="M137.75,76a13.32,13.32,0,1,0-14.25,12.29A13.32,13.32,0,0,0,137.75,76"/><path class="cls-6" d="M136.16,72.64a10.86,10.86,0,1,0-11.62,10,10.86,10.86,0,0,0,11.62-10"/><path class="cls-4" d="M125.35,75.65a2.35,2.35,0,1,0-.5,3.28,2.35,2.35,0,0,0,.5-3.28"/><path class="cls-3" d="M77.62,103.3c-6.17-.3-8.14,8.93-1.49,9.75C82.1,113.79,85.06,103.66,77.62,103.3Z"/><path class="cls-3" d="M122.9,103.82c6-1.56,9.79,7.08,3.46,9.24C120.66,115,115.69,105.7,122.9,103.82Z"/><path class="cls-7" d="M67,133.69c5.93,25.35,64,25.29,66.8-1.06"/><path class="cls-3" d="M138.4,129.43a6.19,6.19,0,0,0-2.94-1c-2.87-.42-6.65-.43-5,3.75,2.36,5.87,11.34,0,7.9-2.71"/><path class="cls-3" d="M61.95,131.3a6.21,6.21,0,0,1,2.5-1.86c2.61-1.25,6.22-2.38,5.85,2.11-.52,6.31-10.83,3.37-8.35-.24"/></g></svg>