<svg id="Layer_1" data-name="Layer 1" xmlns="http://www.w3.org/2000/svg" width="7.06cm" height="7.06cm" viewBox="0 0 200 200"><defs><style>.cls-1{fill:#49adf6;}.cls-2{fill:#8dbf68;}.cls-3{fill:#fff;}.cls-4{fill:#231f20;}</style></defs><title>hipo2-4</title><path class="cls-1" d="M136.33,128.61c0-1.11,0-2.25,0-3.42-.66-21.79-14.58-45.62-37.87-40.09-23.52,5.59-35.07,26.55-32.8,49,1,10.17,8.54,21.41,19,25.11C109.9,168.08,135.28,156.92,136.33,128.61Z"/><path class="cls-1" d="M127.25,121.8c9.66-5.74,19.87-10.4,29.2-16.65,5.72-3.83,5.51-7.42,2.59-13S151.87,80.52,145.72,83C136.89,86.64,129,96.41,121,101.68"/><path class="cls-1" d="M84.46,107.09c-10.56-3.83-20.65-8.76-31.4-12-6.58-2-9.23.45-11.72,6.27s-4.41,12.9,1.44,16.06c8.39,4.54,23.82,5.14,33,8.06"/><path class="cls-2" d="M145.44,137c4.82,7.6,4,21.29-2.64,27.54-10.63,10-26.8,4.92-28.84-10A21.4,21.4,0,0,1,122.9,134c7-4.67,17.68-4.63,22.55,3.06"/><path class="cls-3" d="M120.86,151.4c5.38-8.23,16.56-4.45,18.7,4,2.2,8.63-9.21,11.77-15.33,8.16C120.09,161.07,118.1,155.62,120.86,151.4Z"/><path class="cls-3" d="M122,138.55c-1.66,1.46-1.12,4.93.83,5.79,2.64,1.17,6.18-1.71,4.58-4.47C126.39,138.11,123.64,137.09,122,138.55Z"/><path class="cls-3" d="M131.87,137.2c-1.66,1.46-1.12,4.93.83,5.79,2.64,1.16,6.18-1.71,4.58-4.48C136.28,136.77,133.53,135.74,131.87,137.2Z"/><path class="cls-3" d="M142.79,141.92c-2.13-.56-4.71,1.83-4.33,3.92.51,2.84,4.87,4.16,6.27,1.3C145.61,145.33,144.93,142.48,142.79,141.92Z"/><path class="cls-2" d="M57,137c-4.82,7.6-4,21.29,2.64,27.54,10.63,10,26.8,4.92,28.84-10A21.4,21.4,0,0,0,79.55,134c-7-4.67-17.68-4.63-22.55,3.06"/><path class="cls-3" d="M81.3,151.76c-5.24-8-16.13-4.34-18.21,3.85-2.14,8.4,9,11.46,14.93,7.94C82,161.16,84,155.87,81.3,151.76Z"/><path class="cls-3" d="M80.2,139.24c1.61,1.42,1.09,4.8-.81,5.63-2.58,1.14-6-1.67-4.46-4.36C75.91,138.82,78.58,137.81,80.2,139.24Z"/><path class="cls-3" d="M70.58,137.2c1.65,1.46,1.12,4.93-.83,5.79-2.64,1.16-6.18-1.71-4.58-4.48C66.18,136.77,68.93,135.74,70.58,137.2Z"/><path class="cls-3" d="M59.93,142.52c2.08-.55,4.59,1.78,4.22,3.82-.49,2.77-4.74,4.06-6.11,1.27C57.19,145.85,57.85,143.07,59.93,142.52Z"/><path class="cls-3" d="M84.26,115.18c-5.11,8.4.55,23.42,11.64,25.86,22.81,5,24.35-18.54,20.86-30.58"/><path class="cls-1" d="M63.62,97.13C54,79.31,50.58,56,70.45,42.44c13.7-9.36,34.36-11.9,49.07-3.7,14.41,8,18.29,27.82,19.08,42.4"/><path class="cls-2" d="M65.38,108.6c10,11.59,26.25,13.68,40.5,10.5,14-3.13,29.33-8.22,34-23.47,3.23-10.57,2.75-23.63-9-28.54-9.38-3.93-21.43-2.65-31-.25-13.6,3.39-38.48,8.43-40.4,25.76C58.79,98.73,61.49,104.08,65.38,108.6Z"/><path class="cls-1" d="M126.73,51.13c8.56-2.38,20.57-11.07,9.16-19.09-8.95-6.29-16.64,5.42-18.42,13.07"/><path class="cls-3" d="M85.66,78.74c-4.59.93-4.31,8.09.73,7.44C90.92,85.61,91.2,77.61,85.66,78.74Z"/><path class="cls-3" d="M113,71.28c4.1-2.27,8.53,3.37,4.27,6.14C113.44,79.92,108,74,113,71.28Z"/><path class="cls-3" d="M85.57,112.68c-6.75-1.93-6.2-9.89-3.81-14.67.66,3.09,4.4,5,5.43,5.42a11.49,11.49,0,0,0,4.65.66c1.53,0,3.38-.74,4.86-.53.54,1.18-.05,3.43-.53,4.58a8.57,8.57,0,0,1-2.39,3.36C91.47,113.42,88.35,113.48,85.57,112.68Z"/><path class="cls-3" d="M78.34,98.33a4.15,4.15,0,0,1,1.71-1.14c1.76-.73,4.16-1.36,3.77,1.58-.56,4.13-7.23,1.84-5.48-.45"/><path class="cls-3" d="M128.32,46.14s8.48-5.36,3.72-10.07c0,0-4.13-3-8.92,5.34C123.12,41.41,127.67,45.46,128.32,46.14Z"/><path class="cls-1" d="M61.24,62.51C52.57,64.44,37.88,62.44,44.16,50c4.93-9.77,17.23-3.06,22.41,2.85"/><path class="cls-3" d="M57.49,58.85s-10-.72-8-7.12c0,0,2.25-4.55,10.39.5C59.84,52.23,57.74,58,57.49,58.85Z"/><path class="cls-3" d="M85.7,61.79a11.41,11.41,0,1,0-14.15,7.73A11.4,11.4,0,0,0,85.7,61.79"/><path class="cls-4" d="M86.1,61.78a9.31,9.31,0,1,0-11.54,6.3,9.3,9.3,0,0,0,11.54-6.3"/><path class="cls-3" d="M75.62,54.2a2,2,0,1,0-1,2.66,2,2,0,0,0,1-2.66"/><path class="cls-3" d="M120.43,53.9a11.41,11.41,0,1,0-14.15,7.73,11.4,11.4,0,0,0,14.15-7.73"/><path class="cls-4" d="M120.83,53.89a9.31,9.31,0,1,0-11.54,6.3,9.3,9.3,0,0,0,11.54-6.3"/><path class="cls-3" d="M110.35,46.31a2,2,0,0,0-2.66-1A2,2,0,1,0,109.34,49a2,2,0,0,0,1-2.66"/></svg>