<svg id="Layer_1" data-name="Layer 1" xmlns="http://www.w3.org/2000/svg" xmlns:xlink="http://www.w3.org/1999/xlink" width="7.06cm" height="7.06cm" viewBox="0 0 200 200"><defs><style>.cls-1,.cls-7{fill:none;}.cls-2{clip-path:url(#clip-path);}.cls-3{fill:#e9b4b6;}.cls-4{fill:#727171;}.cls-5{fill:#fff;}.cls-6{fill:#041a23;}.cls-7{stroke:#fff;stroke-linecap:round;stroke-miterlimit:10;stroke-width:3.14px;}</style><clipPath id="clip-path"><path class="cls-1" d="M201.32,97A101.32,101.32,0,1,1,100-4.31,101.32,101.32,0,0,1,201.32,97Z"/></clipPath></defs><title>jiraff-3</title><g class="cls-2"><path class="cls-3" d="M16.73,338.08a2.69,2.69,0,0,0,.12.25c1.44,2.8,4.63,4.17,7.64,5,7.08,2.06,12.2-3.67,15.94-8.95,2.61-3.65,4.95-7.55,8.34-10.47,4.74-4.08,13.17-6.78,19.13-8.5,14.23-4.11,17-18,19.33-32a579.56,579.56,0,0,0,8.12-105c-.24-17.4-.49-35.43-3.09-52.66-2.33-15.29-9.56-33.89,2.08-47.51,8.88-10.37,29.2-11.77,38.54-1.73,10.69,11.53,5.19,33.88,1.84,47.57-5.09,20.83-8.5,42.1-12.59,63.14a546.83,546.83,0,0,0-9.2,74.76c-.73,13.41-1.56,26.82-2,40.24-.5,14.21-3.82,33.93,4,46.69,2,3.32,4.76,6,7.09,9,2.15,2.81,5.23,6.52,5.12,10.28-.08,2.82-2.31,6.17-5.52,4.81-1.71-.74-4.13-3.29-5.62-4.49-4.85-3.89-6.75-10.18-12.24-13.48-6.37-3.82-8.78-.65-9.46,6.14-.63,6.21-.5,12.59-.75,18.84a6.07,6.07,0,0,1-.44,2.43c-1,2-3.64,2.29-5.86,2.32a3.31,3.31,0,0,1-2.51-.69,3.13,3.13,0,0,1-.66-1.7c-1.45-8-2.91-15.95-4.68-23.91-2-8.88-12.7-7-11.76,2.22.53,5.15.93,10.33,1.58,15.47.31,2.55,1.83,6.74.4,9.06-3.06,4.92-7.56,1.42-8.85-2.32-2.23-6.5-2.35-13.82-4.23-20.47-.3-1-2.23-6-3.61-5.82-2.62.35-.12,11,.12,12.83q1,7.61,2,15.21a4.41,4.41,0,0,1-.16,2.51c-.7,1.43-2.62,1.67-4.22,1.72-1.35,0-2.87,0-3.79-1a4.85,4.85,0,0,1-.87-1.8c-3.23-10.46-5-21.36-8-31.92-1.65-5.78-5.07-3.13-9.33-3.62-3.91-.45-10.54-3.69-13-6.83-1.16-1.5-4.49-8.7-2.33-10,2.51-1.56,2.88,3.11,3.44,4.29"/><path class="cls-4" d="M98.39,162.61c.61-5.68,6.36-8.44,10.86-5,3.4,2.62,3.69,8.46.43,11.27s-9.13,1.55-10.79-2.4a7.93,7.93,0,0,1-.51-3.9"/><path class="cls-4" d="M108.58,180.8c.58,2.5.68,5.41-1,7.3a8,8,0,0,1-3.35,2,5.82,5.82,0,0,1-2.28.44c-2.59-.19-3.87-3.2-4.24-5.76a11.45,11.45,0,0,1,.67-6.85c2.87-5.76,9.26-1.33,10.24,2.87"/><path class="cls-4" d="M121.26,155.88a4.27,4.27,0,0,1-5.5-.8c-3.73-4.55,3.45-9.62,6.62-4.93a4.28,4.28,0,0,1-1.12,5.73"/><path class="cls-4" d="M113.66,170.08a4.49,4.49,0,1,1-2.17,1.59c.88-1.21.74-1.1,2.17-1.59"/><path class="cls-3" d="M149.18,107.27C153.23,92,150.5,75,137.1,65.34,126.63,57.8,112.39,58,99.83,61c-9.78,2.29-19.17,6-29,8.24-9.47,2.13-18.21,5.32-26.18,11.28C38.35,85.22,33.12,91.9,31.79,99.69c-3.27,19.15,12.57,33.51,28.65,40.55,22.83,10,53,8.76,72.85-7.32,7.53-6.09,13.2-15.51,15.89-25.65"/><path class="cls-5" d="M135.86,64.94c5.57-4.77,14.61-18.4,4.55-23.08-8-3.71-12.88,12.71-13.3,18.1-.74,9.28,4,9,8.76,5"/><path class="cls-5" d="M161.59,67a25.39,25.39,0,0,1-14.36,10.69,9.3,9.3,0,0,1-6.06,0c-7.11-3,4.87-14.9,7.39-18.25,2.76-3.71,6.91-7.88,11.27-6.31A7,7,0,0,1,164,59.47,13.37,13.37,0,0,1,161.59,67"/><path class="cls-3" d="M144.93,88.47c2.28-2.24,6.31-2.22,9.46-2.4a59.21,59.21,0,0,1,12.44.16,58.5,58.5,0,0,1,11.52,3.41c2.44.89,5.34,2.5,5.09,5.08A5.32,5.32,0,0,1,182,97.51a27.84,27.84,0,0,1-27.91,8.91c-3.91-1-7.73-3.11-9.85-6.54-1.6-2.59-1.69-7.05-.45-9.79a5.58,5.58,0,0,1,1.13-1.62"/><path class="cls-3" d="M118.35,65.5c1.61-2.75.62-6.67,0-9.74a59.11,59.11,0,0,0-3.2-12A59.75,59.75,0,0,0,109,33.38c-1.47-2.14-3.74-4.56-6.19-3.69a5.43,5.43,0,0,0-2.36,2.09A27.86,27.86,0,0,0,98.7,61c2,3.53,4.91,6.73,8.76,7.93,2.89.92,7.25-.1,9.6-2a5.2,5.2,0,0,0,1.3-1.49"/><path class="cls-5" d="M132.47,105.93c-8.56,14.51-31.26.61-22.93-13.52a13.37,13.37,0,0,1,8.34-6.18,11.3,11.3,0,0,1,5.2-.21c8.64,2.26,14.36,11.47,9.39,19.91"/><path class="cls-5" d="M100.6,86.92c-8.56,14.5-31.26.61-22.92-13.53A13.34,13.34,0,0,1,86,67.22,11.25,11.25,0,0,1,91.21,67c8.66,2.25,14.36,11.47,9.39,19.91"/><path class="cls-6" d="M127.44,93.42c2.8,11.72-15.82,15.86-18.56,4.43a9.61,9.61,0,0,1,1.23-7.33,8.2,8.2,0,0,1,2.59-2.7c5.58-3.13,13.1-1.23,14.74,5.61"/><path class="cls-5" d="M123.11,97.43A2.68,2.68,0,1,1,120.23,95a2.67,2.67,0,0,1,2.89,2.44"/><path class="cls-6" d="M95.59,74.44C98.39,86.17,79.77,90.31,77,78.87a9.6,9.6,0,0,1,1.23-7.33,8.2,8.2,0,0,1,2.59-2.7c5.58-3.13,13.1-1.23,14.74,5.61"/><path class="cls-5" d="M91.26,78.46A2.68,2.68,0,1,1,88.37,76a2.67,2.67,0,0,1,2.89,2.45"/><path class="cls-7" d="M59.39,92.7a2.85,2.85,0,1,1,4.77,2.66"/><path class="cls-7" d="M68.69,98.32A2.86,2.86,0,1,1,73.47,101"/><path class="cls-5" d="M89.8,121.31a2.35,2.35,0,0,0,.54-.59,1.47,1.47,0,0,0,.15-1.35c-.38-.82-1.5-.89-2.3-1.28a12.24,12.24,0,0,1-2.11-1.78c-1.06-.89-2.62-.92-3,.61a5.34,5.34,0,0,0,.55,4c1.22,1.87,4,1.79,5.7.72a3.74,3.74,0,0,0,.49-.35"/><path class="cls-7" d="M86.27,121.53c-1.86,4.32-7.74,5.44-11.83,4.51s-6.44-4.44-7.38-8.41"/></g></svg>