<svg id="Layer_1" data-name="Layer 1" xmlns="http://www.w3.org/2000/svg" width="7.06cm" height="7.06cm" viewBox="0 0 200 200"><defs><style>.cls-1{fill:#ffb84f;}.cls-2{fill:#231f20;}.cls-3{fill:#fff;}.cls-4{fill:#b27a3b;}</style></defs><title>jiraff4-4</title><path class="cls-1" d="M144.57,146.68a2.15,2.15,0,0,0-.1-.35,16.69,16.69,0,0,0-1.86-3.12,17.51,17.51,0,0,0-6.13-4.76c-4.41-2.31-9.46-3.19-14.3-4.12a14.79,14.79,0,0,1-10.37-8.86c-3.54-10.12-2.53-41.64-1.79-52.19.59-8.36,1.31-16.86-1.26-25-2.89-9.15-10.54-17.5-20.1-18.13-9.15-.61-14.52,5.06-20.79,10.47-6.54,5.64-14.6,9.19-21,15.05-4,3.69-7.91,9.5-6.25,15a25.11,25.11,0,0,0,3.79,7.43C50.88,86.6,64.05,89.36,74.1,89.35c7.27,0,11.36.34,11.74,8.25.48,9.92,1.93,19.88,2.54,29.82.35,5.69.64,11.42,1.06,17.07.39,5.22-1.3,10-2.19,15.1-.92,5.27-1.24,10.87.26,16.06.83,2.88,1.56,7.31,4.9,8.3,3.67,1.08,5.88-1.3,5.27-4.68-.79-4.36-2.1-8-1.68-12.48.17-1.84.69-7.33,3.8-6.16s2.21,6.46,2.22,9c0,2.77-.1,5.55,0,8.31.13,3.74,1.28,6.4,5.44,6.21s3.79-4.07,3.45-7.53a61.34,61.34,0,0,1-.36-9.29,10.74,10.74,0,0,1,.58-3.59c1.41-3.29,5-3.53,8-3.12,3.58.48,3.74,4.57,3.88,7.62s.27,6,.26,9c0,2.23,0,5.38,2.27,6.6,6.72,3.58,5.42-4.71,5.62-8.48.14-2.56-.64-7.51,1.45-9.32,3.27-2.83,3.88,4.1,4.35,6.05.75,3.1,1,6.47,2.77,9.24,1.56,2.5,3.69,5.12,6.76,2.91,2.85-2.05.72-5-.24-7.47a24.89,24.89,0,0,1-1.66-11.61c.06-.66-.34-9.88.12-9.82a16.46,16.46,0,0,0,2.87.17,11.08,11.08,0,0,0,7.41-4c.8-1,2-3.28,1.51-4.53-.71-1.86-2.42-1.41-3.33-.4-1.17,1.33-1.15,2.78-3.11,3.47a5.18,5.18,0,0,1-5-1A7.46,7.46,0,0,1,144.57,146.68Z"/><path class="cls-2" d="M95.22,31.47C97.28,26.8,97.9,15.33,88.09,15c-7.77-.28-4,11.9-1.83,15.59,3.7,6.32,7.2,4.88,9,.9"/><path class="cls-2" d="M113.18,30.35A11.89,11.89,0,0,1,106,39a7.42,7.42,0,0,1-4.55.68c-6.4-1.27-1.48-10.53-.75-13,.81-2.79,2.49-6,6.32-5.43A8,8,0,0,1,112.4,25a7.71,7.71,0,0,1,.78,5.31"/><path class="cls-1" d="M105.16,45.09c1.33-1.72,4-2.1,6-2.52a39.53,39.53,0,0,1,8.21-1.1,38.32,38.32,0,0,1,7.85,1.17c1.66.37,3.7,1.16,3.74,2.92a3.81,3.81,0,0,1-.74,2,18.85,18.85,0,0,1-17.69,8.63,10.31,10.31,0,0,1-7-3.42,8,8,0,0,1-1-6.51,3.67,3.67,0,0,1,.61-1.19"/><path class="cls-1" d="M78.08,39.38C76,39.55,73.77,38.07,72,37a44.9,44.9,0,0,1-6.78-4.6,39.45,39.45,0,0,1-5-5.72c-1-1.28-2-3.06-.86-4.12a3.55,3.55,0,0,1,1.86-.72A21.61,21.61,0,0,1,79.87,28c1.75,1.88,3.06,4.19,2.92,6.5a6.17,6.17,0,0,1-3.48,4.52,3.65,3.65,0,0,1-1.23.31"/><path class="cls-3" d="M102.56,58.94c.27,10.45-16.27,10.61-16.52.42a8.3,8.3,0,0,1,2.36-6,7.09,7.09,0,0,1,2.67-1.82c5.3-1.65,11.34,1.31,11.49,7.4"/><path class="cls-2" d="M88.72,58.42c-1.5-8.15,11.41-10.31,12.88-2.38a6.59,6.59,0,0,1-1.11,5,5.62,5.62,0,0,1-1.86,1.76c-3.94,2-9,.37-9.9-4.37"/><path class="cls-3" d="M90.78,59.52A1.83,1.83,0,1,1,92.91,61a1.83,1.83,0,0,1-2.13-1.47"/><path class="cls-3" d="M82.12,50c.27,10.45-16.27,10.61-16.53.42a8.3,8.3,0,0,1,2.36-6,7.07,7.07,0,0,1,2.67-1.82C75.93,40.92,82,43.89,82.12,50"/><path class="cls-2" d="M68.28,49.45c-1.5-8.15,11.41-10.31,12.88-2.38a6.59,6.59,0,0,1-1.11,5,5.59,5.59,0,0,1-1.87,1.76c-3.93,1.95-9,.37-9.9-4.37"/><path class="cls-3" d="M70.33,50.56A1.83,1.83,0,1,1,72.47,52a1.83,1.83,0,0,1-2.13-1.47"/><path class="cls-2" d="M84.51,77a1.71,1.71,0,0,0,.28-.48,1,1,0,0,0-.09-.92c-.36-.5-1.12-.39-1.72-.54a7.85,7.85,0,0,1-1.65-.91c-.84-.44-1.88-.26-1.94.82a3.61,3.61,0,0,0,.93,2.63c1.07,1.09,2.91.65,3.91-.3a2.42,2.42,0,0,0,.28-.29"/><path class="cls-2" d="M151.94,144.14a9.73,9.73,0,0,1,2.51-3.57c.82-.73,1.69-1.64,2.83-1.57,1.57.1,2.38,1.92,2.45,3.42a10.09,10.09,0,0,1-.78,4.45c-1.05,2.47-2.34,2.28-4.66,1.69-2.78-.71-3-2.58-2.35-4.42"/><path class="cls-4" d="M103.29,90.42A7.79,7.79,0,0,0,105.18,86c.86-5.41-4.15-6.75-7.74-3.18-1.68,1.66-2.4,5-1.16,7.11C97.66,92.25,101.48,92.2,103.29,90.42Z"/><path class="cls-4" d="M100.08,119.39a7.63,7.63,0,0,0-3.92-2.61c-5-1.78-7.2,2.77-4.42,6.85,1.3,1.9,4.37,3.19,6.61,2.38C100.82,125.11,101.46,121.44,100.08,119.39Z"/><path class="cls-4" d="M128.5,139.84a9.8,9.8,0,0,0-5.67-2.09c-6.8-.73-8.16,5.61-3.48,9.87,2.18,2,6.41,2.68,9,1C131.13,146.76,130.83,142,128.5,139.84Z"/><path class="cls-4" d="M105.62,105c-.62-3.57-4.37-5.07-7.07-2.69a4.82,4.82,0,0,0,.19,7.14,4.54,4.54,0,0,0,6.72-2,5,5,0,0,0,.16-2.48"/><path class="cls-4" d="M103.34,133.72c1,1.24,2.47,2.4,4.08,2.26a5.1,5.1,0,0,0,2.29-.94,3.59,3.59,0,0,0,1.09-1c.88-1.38-.14-3.18-1.29-4.34a7.32,7.32,0,0,0-3.72-2.27c-4-.74-4.21,4.18-2.45,6.28"/><path class="cls-4" d="M94.58,99.66a2.64,2.64,0,0,0,3.35-.81c2.05-3-2.67-5.76-4.37-2.67a2.66,2.66,0,0,0,1,3.48"/><path class="cls-4" d="M104.42,118.66a2.64,2.64,0,0,0,3.35-.81c2.05-3-2.67-5.76-4.37-2.67a2.66,2.66,0,0,0,1,3.48"/><path class="cls-4" d="M105.43,146.23a2.64,2.64,0,0,0,3.35-.81c2-3-2.67-5.76-4.37-2.67a2.66,2.66,0,0,0,1,3.48"/><path class="cls-4" d="M136.89,148.8a2.64,2.64,0,0,0,3.35-.81c2.05-3-2.67-5.76-4.37-2.67a2.66,2.66,0,0,0,1,3.48"/><ellipse class="cls-2" cx="65.59" cy="65.71" rx="1.99" ry="2.63" transform="translate(-20.53 100.39) rotate(-66.99)"/><ellipse class="cls-2" cx="55.92" cy="62.56" rx="1.99" ry="2.63" transform="translate(-23.53 89.55) rotate(-66.97)"/></svg>