<svg id="Layer_1" data-name="Layer 1" xmlns="http://www.w3.org/2000/svg" width="7.06cm" height="7.06cm" viewBox="0 0 200 200"><defs><style>.cls-1{fill:#ffa4b4;}.cls-2{fill:#231f20;}.cls-3{fill:#fff;}</style></defs><title>jiraff3-4</title><path class="cls-1" d="M54.88,140.8c1.55-1.74,1.83-4.17,3-6.14s3.53-3.32,5.61-4.42c4.61-2.42,9.88-3.33,14.94-4.3a15.45,15.45,0,0,0,10.84-9.25c3.7-10.57,2.65-23.77,1.87-34.8-.61-8.74-1.36-17.61,1.32-26.11,3-9.56,11-18.27,21-18.94,8.35-.56,16.1,4.47,22,10.41,4.6,4.62,8.47,9.91,13.1,14.49,4.48,4.43,8.2,9.18,10.53,15.21,1.85,4.78,2.44,10.26.49,15-4.79,11.66-18.44,14.11-29.7,12.45-3.83-.56-8.11-3.82-11.91-3.19-.42,1.56-.81,3.07-1.05,4.4a293.39,293.39,0,0,0-4.57,44.62c-.17,6.89.14,13.72.37,20.58.16,4.55-2.12,8.81-7.28,6.88-4.09-1.53-2.84-8.51-3-12.17-.07-2,.39-12.68-2.82-11.27-2.81,1.23-2.58,6.75-2.73,9.2-.23,3.72.77,11.23-2.24,14-2.67,2.43-7.07.08-8-2.81-1.34-4.09-.71-8.93-1.08-13.2-.15-1.71.38-4.19-1.17-5.45s-4-.25-5.27.95S78,160.29,78,162.06c.19,3.63.84,7.22,1.07,10.83.2,3.2-1.82,6-5.4,5.84-4.27-.17-4-5.23-4.32-8.44-.18-1.82.68-13.05-3.26-11.09-1.72.86-1.29,3.61-1.29,5.3,0,3.94,1.95,9.6-.37,13.2-1.86,2.91-6.26,2.6-8.35.22-2.56-2.94-1.63-9.34-1.47-13,.05-1.16.91-17.16.2-17.08a17.11,17.11,0,0,1-3,.18,11.58,11.58,0,0,1-7.74-4.15c-.83-1-2.08-3.43-1.58-4.73.74-1.94,2.53-1.48,3.47-.41,1.23,1.39,1.2,2.9,3.25,3.62a5.41,5.41,0,0,0,5.2-1.09A4.7,4.7,0,0,0,54.88,140.8Z"/><path class="cls-2" d="M109.36,36.89c-1.81-5-1.64-17,8.61-16.67,8.12.26,3.3,12.69.79,16.38-4.31,6.32-7.85,4.57-9.4.3"/><path class="cls-2" d="M90.73,34.44A12.42,12.42,0,0,0,97.55,44a7.77,7.77,0,0,0,4.7,1c6.76-.86,2.3-10.87,1.71-13.54-.65-3-2.17-6.46-6.2-6.11A8.34,8.34,0,0,0,91.92,29a8.06,8.06,0,0,0-1.2,5.48"/><path class="cls-1" d="M99.82,49.44c-.94-2.07-3.56-3.08-5.54-4a41.22,41.22,0,0,0-8.09-3.07,40,40,0,0,0-8.26-.67c-1.78,0-4,.31-4.5,2.08A4,4,0,0,0,73.7,46,19.68,19.68,0,0,0,89.64,59a10.78,10.78,0,0,0,7.92-1.83,8.4,8.4,0,0,0,2.6-6.38,3.9,3.9,0,0,0-.34-1.36"/><path class="cls-1" d="M125.33,50.24c2.25.32,4.52-1.33,6.36-2.5a41.36,41.36,0,0,0,7-5.15,39.86,39.86,0,0,0,5-6.59c1-1.49,1.93-3.57.68-4.91a4,4,0,0,0-2-1,19.68,19.68,0,0,0-19.55,6.38A10.78,10.78,0,0,0,120,44.15a8.41,8.41,0,0,0,4,5.64,3.85,3.85,0,0,0,1.33.45"/><path class="cls-3" d="M103.5,66.9c-.28,10.92,17,11.08,17.26.44a8.66,8.66,0,0,0-2.47-6.27,7.41,7.41,0,0,0-2.79-1.9c-5.53-1.73-11.84,1.37-12,7.73"/><path class="cls-2" d="M117.95,66.36c1.57-8.51-11.92-10.77-13.45-2.48a6.88,6.88,0,0,0,1.16,5.21,5.86,5.86,0,0,0,1.95,1.84c4.11,2,9.43.39,10.34-4.57"/><path class="cls-3" d="M115.81,67.51A1.92,1.92,0,1,0,113.58,69a1.91,1.91,0,0,0,2.23-1.54"/><path class="cls-3" d="M124.85,60.57c-.28,10.92,17,11.08,17.26.44a8.66,8.66,0,0,0-2.47-6.27,7.41,7.41,0,0,0-2.79-1.9c-5.53-1.73-11.84,1.37-12,7.73"/><path class="cls-2" d="M139.3,60c1.57-8.51-11.92-10.77-13.45-2.48A6.87,6.87,0,0,0,127,62.75,5.85,5.85,0,0,0,129,64.59c4.11,2,9.43.39,10.34-4.57"/><path class="cls-3" d="M137.16,61.18a1.92,1.92,0,1,0-2.23,1.54,1.91,1.91,0,0,0,2.23-1.54"/><path class="cls-2" d="M119,86.07a1.82,1.82,0,0,1-.23-.53,1.05,1.05,0,0,1,.21-.94c.44-.47,1.22-.25,1.86-.33a8.11,8.11,0,0,0,1.83-.71c.93-.34,2,0,1.9,1.12a3.78,3.78,0,0,1-1.32,2.6c-1.26,1-3.11.27-4-.85a2.66,2.66,0,0,1-.25-.34"/><path class="cls-2" d="M47.07,136.86a10.17,10.17,0,0,0-1.4-4.34c-.59-1-1.18-2.16-2.34-2.44-1.6-.39-3,1.18-3.5,2.65a10.57,10.57,0,0,0-.6,4.68c.29,2.79,1.63,3,4.13,3.13,3,.16,3.84-1.63,3.71-3.68"/><path class="cls-2" d="M96.44,99.46A10,10,0,0,1,94,93.79c-1.09-6.9,5.3-8.61,9.88-4.05,2.14,2.12,3.06,6.39,1.48,9.08C103.63,101.79,98.75,101.73,96.44,99.46Z"/><path class="cls-2" d="M81.49,129.2a9.09,9.09,0,0,1,4.68-3.11c6-2.13,8.6,3.31,5.28,8.18-1.55,2.27-5.22,3.81-7.89,2.84C80.6,136,79.84,131.64,81.49,129.2Z"/><path class="cls-2" d="M93.34,116.27c.65-3.73,4.56-5.3,7.39-2.81a5,5,0,0,1-.2,7.45,4.74,4.74,0,0,1-7-2.06,5.22,5.22,0,0,1-.17-2.59"/><path class="cls-2" d="M74.77,136.75c-1.08,1.29-2.58,2.51-4.26,2.36a5.32,5.32,0,0,1-2.39-1,3.74,3.74,0,0,1-1.14-1c-.92-1.44.15-3.32,1.35-4.53a7.65,7.65,0,0,1,3.88-2.37c4.19-.78,4.4,4.36,2.56,6.56"/><path class="cls-2" d="M107.28,109.43a2.76,2.76,0,0,1-3.5-.84c-2.14-3.16,2.79-6,4.56-2.79a2.78,2.78,0,0,1-1.06,3.63"/><ellipse class="cls-2" cx="137.53" cy="79.8" rx="2.75" ry="2.07" transform="translate(-5.69 10.73) rotate(-4.38)"/><ellipse class="cls-2" cx="146.65" cy="78.16" rx="2.75" ry="2.07" transform="translate(-5.53 11.41) rotate(-4.37)"/><path class="cls-2" d="M126.17,93.88a5.05,5.05,0,0,1-1.52-.21c-3.23-1-4.74-5.38-3.88-8.43a1,1,0,1,1,2,.55c-.6,2.11.46,5.27,2.54,5.93,1.3.41,3.77-.25,4.19-1.37a1,1,0,0,1,1.91.71C130.66,93,128.19,93.88,126.17,93.88Z"/></svg>