<svg id="Layer_1" data-name="Layer 1" xmlns="http://www.w3.org/2000/svg" width="7.06cm" height="7.06cm" viewBox="0 0 200 200"><defs><style>.cls-1{fill:#ffa4b4;}.cls-2{fill:#231f20;}.cls-3{fill:#fff;}</style></defs><title>jiraff2-2</title><path class="cls-1" d="M46.2,154.81c0,.06.05.12.08.18,1,2,3.31,3,5.46,3.6,5.06,1.48,8.72-2.62,11.39-6.39,1.86-2.61,3.54-5.4,6-7.48,7.66-6.6,21.34-5.29,25.58-16.13,2.35-6,2.82-13,3.47-19.53,1.74-17.6,4.58-40-2-56.77-.47-1.18,19.8-10.3,21.82-10.92,2.35,19.48-1.9,39.47-3,59.12-.52,9.58-1.12,19.17-1.45,28.76-.36,10.15-2.73,24.25,2.84,33.37,1.46,2.37,3.4,4.28,5.07,6.45,1.54,2,3.74,4.66,3.66,7.35-.06,2-1.65,4.41-3.94,3.44-1.22-.52-3-2.35-4-3.21-3.47-2.78-4.83-7.27-8.75-9.63-4.55-2.73-6.27-.46-6.76,4.38-.45,4.44-.36,9-.54,13.47a4.3,4.3,0,0,1-.31,1.74c-.69,1.43-2.6,1.64-4.19,1.66a2.36,2.36,0,0,1-1.8-.49,2.22,2.22,0,0,1-.47-1.21c-1-5.73-2.08-11.4-3.34-17.09-1.42-6.34-9.08-5-8.41,1.59.38,3.68.67,7.38,1.13,11.05.22,1.82,1.31,4.82.29,6.47-2.19,3.52-5.4,1-6.32-1.66-1.59-4.65-1.68-9.87-3-14.63-.21-.74-1.6-4.29-2.58-4.16-1.87.25-.08,7.86.09,9.17.48,3.63.95,7.25,1.42,10.87a3.16,3.16,0,0,1-.11,1.8c-.5,1-1.87,1.19-3,1.23a2.57,2.57,0,0,1-3.33-2c-2.31-7.48-3.59-15.27-5.74-22.82-1.18-4.13-3.62-2.24-6.67-2.59-2.79-.32-7.53-2.63-9.27-4.88-.83-1.07-3.21-6.22-1.67-7.15,1.79-1.11,2.06,2.22,2.46,3.07"/><path class="cls-2" d="M46.91,150.46a7.71,7.71,0,0,0-1.13-3c-.44-.66-.9-1.46-1.67-1.6-1.08-.22-1.92.95-2.21,2a7.85,7.85,0,0,0-.18,3.32c.32,2,1.22,2,2.89,2,2,0,2.48-1.32,2.3-2.76"/><path class="cls-2" d="M90,142.6a6.4,6.4,0,0,1,.48,2.12,6,6,0,0,1-.15,2.5,6.09,6.09,0,0,1-3.07,3,9.6,9.6,0,0,1-5.94,1.56c-8.32-1.21-1.69-11.16,3.89-11.61A4.84,4.84,0,0,1,90,142.6"/><path class="cls-2" d="M100.52,137.31a4.52,4.52,0,0,1-5.92,6.37A3.63,3.63,0,0,1,93,142.19a4.37,4.37,0,0,1,.78-4.58C95,136,97.28,135,99.06,135.9a3.76,3.76,0,0,1,1.46,1.41"/><path class="cls-2" d="M99.53,119.66a2.53,2.53,0,0,0,1,1,3.94,3.94,0,0,0,4.62-.75,6.47,6.47,0,0,0,1.41-3.72c.52-4.48-3.65-5.41-6.48-2.35-1,1.07-1,2.69-.93,4.15a3.77,3.77,0,0,0,.35,1.71"/><path class="cls-2" d="M102.6,72.63c.32-3,3.35-4.45,5.73-2.62a4,4,0,0,1,.23,5.95,3.78,3.78,0,0,1-5.69-1.27,4.19,4.19,0,0,1-.27-2.06"/><path class="cls-2" d="M97.66,127.45c.37-3.42,3.82-5.07,6.53-3a4.58,4.58,0,0,1,.26,6.77A4.31,4.31,0,0,1,98,129.79a4.81,4.81,0,0,1-.31-2.34"/><path class="cls-2" d="M108.2,82.65a4.28,4.28,0,0,1-.54,3.85,4.2,4.2,0,0,1-1.77,1.05,3.09,3.09,0,0,1-1.21.23c-1.36-.1-2-1.69-2.24-3a6.05,6.05,0,0,1,.35-3.61c1.52-3,4.89-.7,5.4,1.51"/><path class="cls-2" d="M106.56,103.09c-.13,1.39,0,3,1.08,3.86a4.34,4.34,0,0,0,2,.84,3,3,0,0,0,1.27.07c1.37-.29,1.86-2,1.87-3.4a6.34,6.34,0,0,0-.85-3.65c-2-2.92-5.1-.06-5.33,2.28"/><path class="cls-2" d="M115.11,67.31a2.25,2.25,0,0,1-2.9-.42c-2-2.4,1.82-5.08,3.49-2.6a2.26,2.26,0,0,1-.59,3"/><path class="cls-2" d="M73.84,149.26c-.38.86-1.26,1.66-2.15,1.4s-1.25-1.71-1-2.76c.23-.83.79-1.71,1.65-1.8A1.65,1.65,0,0,1,74,147.22a2.78,2.78,0,0,1-.15,2"/><path class="cls-2" d="M100.17,107.37c.1,1.21.83,2.55,2,2.61,1.39.07,2.25-1.57,2.33-3,.06-1.12-.24-2.43-1.26-2.89a2.14,2.14,0,0,0-2.43.68,3.66,3.66,0,0,0-.69,2.56"/><path class="cls-2" d="M110.61,124c-.37.85-1.25,1.65-2.15,1.4s-1.25-1.72-1-2.76c.23-.84.78-1.72,1.65-1.8a1.65,1.65,0,0,1,1.62,1.11,2.81,2.81,0,0,1-.16,2.05"/><path class="cls-2" d="M102.43,94.64a4.85,4.85,0,0,1,.49-2.52,2,2,0,0,1,3.68.09,9.32,9.32,0,0,1,.5,4.15,3.9,3.9,0,0,1-1,2.47,1.84,1.84,0,0,1-2.46.14,2.53,2.53,0,0,1-.51-.88,10.49,10.49,0,0,1-.68-3.44"/><path class="cls-2" d="M108.29,88.21a1.33,1.33,0,1,1-.64.47c.26-.36.22-.33.64-.47"/><path class="cls-2" d="M111.21,77.66a2.37,2.37,0,1,1-1.14.84c.46-.64.39-.58,1.14-.84"/><path class="cls-1" d="M122.51,47.85c2.14-8.07.7-17-6.37-22.11-5.52-4-13-3.85-19.65-2.31-5.16,1.2-10.11,3.18-15.28,4.35A35.12,35.12,0,0,0,67.4,33.72c-3.34,2.5-6.1,6-6.8,10.13C58.88,54,67.23,61.52,75.71,65.24c12,5.27,27.95,4.62,38.42-3.86a26.21,26.21,0,0,0,8.38-13.52"/><path class="cls-2" d="M115.49,25.52c2.94-2.52,7.71-9.7,2.4-12.17-4.2-2-6.79,6.71-7,9.55-.39,4.89,2.11,4.77,4.62,2.63"/><path class="cls-2" d="M129.05,26.61a13.39,13.39,0,0,1-7.57,5.64,4.91,4.91,0,0,1-3.19,0c-3.75-1.59,2.57-7.86,3.9-9.63,1.46-2,3.65-4.15,5.94-3.33a3.69,3.69,0,0,1,2.2,3.33,7.05,7.05,0,0,1-1.27,4"/><path class="cls-1" d="M120.27,37.93c1.2-1.18,3.33-1.17,5-1.27a31.24,31.24,0,0,1,6.56.09,30.7,30.7,0,0,1,6.08,1.8c1.29.47,2.81,1.32,2.69,2.68a2.8,2.8,0,0,1-.76,1.47,14.68,14.68,0,0,1-14.72,4.7A8.5,8.5,0,0,1,119.91,44a6.24,6.24,0,0,1-.24-5.16,3,3,0,0,1,.6-.86"/><path class="cls-1" d="M106.25,25.82c.85-1.45.32-3.51,0-5.14a31.18,31.18,0,0,0-1.69-6.35,31.35,31.35,0,0,0-3.23-5.45c-.77-1.13-2-2.4-3.26-1.95A2.86,2.86,0,0,0,96.83,8a14.69,14.69,0,0,0-.94,15.42,8.55,8.55,0,0,0,4.62,4.19,6.24,6.24,0,0,0,5.06-1,2.71,2.71,0,0,0,.68-.79"/><path class="cls-3" d="M113.7,47.14c-4.52,7.65-16.49.32-12.09-7.13a7,7,0,0,1,4.4-3.26,6,6,0,0,1,2.74-.11c4.56,1.19,7.57,6.05,5,10.5"/><path class="cls-3" d="M96.89,37.12c-4.51,7.65-16.48.32-12.09-7.13a7,7,0,0,1,4.39-3.25,5.92,5.92,0,0,1,2.75-.11c4.56,1.19,7.57,6,4.95,10.5"/><path class="cls-2" d="M111,40.54c1.48,6.18-8.34,8.37-9.79,2.33a5.06,5.06,0,0,1,.65-3.86,4.34,4.34,0,0,1,1.36-1.43c2.95-1.65,6.91-.65,7.77,3"/><path class="cls-3" d="M108.76,42.66a1.41,1.41,0,1,1-1.52-1.29,1.41,1.41,0,0,1,1.52,1.29"/><path class="cls-2" d="M94.25,30.54c1.48,6.18-8.34,8.37-9.79,2.33A5.06,5.06,0,0,1,85.11,29a4.35,4.35,0,0,1,1.37-1.42c2.94-1.65,6.91-.65,7.77,3"/><path class="cls-3" d="M92,32.65a1.41,1.41,0,1,1-1.52-1.29A1.41,1.41,0,0,1,92,32.65"/><path class="cls-2" d="M77.67,42.4A.83.83,0,0,1,77.1,41a.68.68,0,0,0,.16-.56.69.69,0,0,0-.3-.51.7.7,0,0,0-.59,0,.67.67,0,0,0-.4.43A.83.83,0,0,1,74.35,40a2.32,2.32,0,1,1,3.9,2.18A.83.83,0,0,1,77.67,42.4Z"/><path class="cls-2" d="M82.58,45.37A.83.83,0,0,1,82,43.95a.66.66,0,1,0-1.13-.64A.83.83,0,1,1,79.26,43a2.32,2.32,0,1,1,3.9,2.18A.82.82,0,0,1,82.58,45.37Z"/><path class="cls-2" d="M91.19,55.26a1.29,1.29,0,0,0,.28-.31.77.77,0,0,0,.08-.71c-.2-.43-.79-.47-1.22-.68a6.46,6.46,0,0,1-1.11-.94c-.56-.47-1.38-.49-1.59.32a2.82,2.82,0,0,0,.29,2.13,2.24,2.24,0,0,0,3,.38,2,2,0,0,0,.26-.19"/><path class="cls-2" d="M84.62,58.74a7.76,7.76,0,0,1-1.71-.19C80.65,58,79,56.25,78.4,53.5A.83.83,0,0,1,80,53.12c.35,1.48,1.2,3.35,3.27,3.82s4.55-.15,5.3-1.9a.83.83,0,0,1,1.52.65C89.19,57.8,86.86,58.74,84.62,58.74Z"/></svg>