<svg id="Layer_1" data-name="Layer 1" xmlns="http://www.w3.org/2000/svg" width="7.06cm" height="7.06cm" viewBox="0 0 200 200"><defs><style>.cls-1{fill:#ffce00;fill-rule:evenodd;}</style></defs><title>leaf1-1</title><path class="cls-1" d="M95.91,82.16c.06,1.35-.5,1.11-1.85,1.15,0,0-2-2.91-5.14-7.67-4.54-6.06-7.09-9.22-8.24-11.07-3.15-4.76-7.29-7.32-11.69-9.32-3.9-3.11-8.8-4-14-4.37l-3.85-1.76s-.55-.25-1.14-1.85c-.65-3,2-4.4,6.05-4.55A43.07,43.07,0,0,1,71,50.86c6.35,3.55,11.95,8.77,17,13.73a32.66,32.66,0,0,1,8.18,17"/><path class="cls-1" d="M144.34,89.64c-2.05,3.05-5.52,4.8-10.67,4.44a34,34,0,0,0-10.21,2c-2.4.9-4.26,2-4.76,3.14a3.31,3.31,0,0,0,.4,3.51,13.41,13.41,0,0,1,1.75,3.45,13.53,13.53,0,0,0,4.1,1.21c2.15-.34,2.7-.09,3-.64,3.2-1.2,4.51-2.6,4.76-3.15,3.41-3.1,7.41-4.59,11.26-2.84,1.66.76,2.21,1,3.4,4.21,1.79,4.81,3,9.36,2.69,14.52-.16,3.26-1.41,6-3.27,7.15-1.11-.5-3.25-.16-6.75.24l-4.41-2c-.55-.24-1.65-.75-2.15.35-3.55-.95-5.15-.36-6-.05-1.61.6-2.1,1.7-3.45,1.74-.75,1.65-.15,3.25,1,5.1.9,2.41,3.6,2.31,6.56,1.66,4.24-2,9.9-2.79,15.06-2.43a4.58,4.58,0,0,1,2.86,4c0,1.35-.72,3-.87,6.25-1.51,3.29-2.76,6-5.12,8.3A27.15,27.15,0,0,1,131,156.67c-7.81,1.09-14.31.78-19.82-1.73-2-1.56-2.54-3.15-2.29-3.71,2.1-1.7,2.35-2.25,3.4-3.1a10.8,10.8,0,0,0,4.41-5.29c.75-1.65-.14-4.05-.79-7l-2.75-1.26a7.53,7.53,0,0,0-5.3,2.89,10.23,10.23,0,0,0-.86,6.26c.34,2.15-.41,3.8-2.51,5.5-1.35,0-3.76.94-7,.79a39.36,39.36,0,0,1-10-5.87c-1.74-3.46-1.29-5.91.27-7.86,3.2-1.2,4.75-3.15,7.41-4.59,2.95-.64,4.75-3.14,7.36-5.94.76-1.65,1.5-3.29.36-5.16.5-1.1-.6-1.6-1.7-2.1a6.14,6.14,0,0,0-5.65.74,34.39,34.39,0,0,0-3.82,6.9c-1.25,2.76-2.51,5.5-4.36,6.65a17.53,17.53,0,0,1-8.82,3.29L77,135.33c-1.66-.76-3.35-2.86-4.76-4.16-2.25-2.36-4.19-3.91-5.94-7.36-1.65-.75-2-2.9-2.84-4-1.15-1.85-.4-3.49.36-5.15a7.44,7.44,0,0,1,5.25-4.24c.5-1.11,1.61-.6,1.86-1.15.55.25,2.7-.09,5.45,1.16,5.66-.75,8.07-1.64,10.42-3.9l1.51-3.3c.5-1.1-.34-2.15.15-3.25-.55-.25-.3-.81-1.4-1.31,0-1.35,0-1.35-1.15-1.85a54.37,54.37,0,0,1-6.75.24c-.8.3-1.3,1.4-2.9,2-.25.55-2.66,1.45-5.56,3.45-5.61,2.09-9.66,2.24-11.32,1.48l-1.64-.75c-1.71-2.1-2.26-2.36-2-2.9a18.39,18.39,0,0,1-2.23-9.67,20.81,20.81,0,0,1,1.76-11.15c1.25-2.75,3.36-4.45,5.47-6.14,3.15-2.55,6.06-4.55,9.56-4.94a15,15,0,0,1,9.35,4.27q5.85,4.66,8.25,3.77a31,31,0,0,1,3.51-.4c1.05-.85,1.3-1.39,2-4.4a23.58,23.58,0,0,1,.51-8.4c-.59-1.6-.35-2.15.41-3.8a8.1,8.1,0,0,1,3.11-3.9c2.3-3.6,6.3-5.09,10.91-5a37.13,37.13,0,0,0,7.85.26,6.65,6.65,0,0,1,4.4,2,14.46,14.46,0,0,1,7,7.86c.34,2.16.69,4.31-1.16,5.45-2.35,2.25-3.65,3.65-6.31,5.1-2.95.64-3.75.95-5.85,2.64-1.9-.21-2.4.89-3.75.94a26.53,26.53,0,0,1-1.81,2.5l-1.25,2.75c-.21,1.9.39,3.5,2,4.26s3.26.15,5.15.36a1.18,1.18,0,0,0,1.6-.6A54.23,54.23,0,0,1,121,81c3.31-5.8,7.81-8.4,13-8a10.49,10.49,0,0,1,7.55,6.77c2,4.25,3,8,2.78,9.9"/></svg>