<svg id="Layer_1" data-name="Layer 1" xmlns="http://www.w3.org/2000/svg" width="7.06cm" height="7.06cm" viewBox="0 0 200 200"><defs><style>.cls-1{fill:#edbf8e;}.cls-2{fill:#231f20;}</style></defs><title>monkey6-4</title><path class="cls-1" d="M117.62,171.55c3.49,0,12.74-.89,13.34-12a1.38,1.38,0,0,0-1.34-1.46c-3.66-.09-13.39.74-13.36,12.06a1.38,1.38,0,0,0,1.36,1.38"/><path class="cls-1" d="M68.31,164.26c1.22,2.65,5.25,9.3,13.83,5.78a1.15,1.15,0,0,0,.62-1.54c-1.25-2.8-5.37-9.85-13.9-5.76a1.15,1.15,0,0,0-.55,1.52"/><path class="cls-2" d="M64.48,142.94c-.47,1.6-.75,3.52.31,4.8s3.08,1.36,4.6.67a13.31,13.31,0,0,0,3.8-3.19c3.08-3.22,6.56-6.08,9.22-9.64,2.13-2.85,6.15-10.5,3.07-14s-7.38,3.08-9.7,5.14a59.84,59.84,0,0,0-5.09,4.94,29.92,29.92,0,0,0-6.22,11.27"/><path class="cls-2" d="M85.2,115.82a34.72,34.72,0,0,0-5.8,10.32,48.16,48.16,0,0,0-2,8.3c-1.53,9.3.92,17.82,9.91,22.26,8.19,4,18.7,3.33,26.59-1.07a18.64,18.64,0,0,0,8.21-8.86c1.42-3.41,1.6-7.2,1.53-10.9-.1-5.66-.9-9.77-3.53-14.76A30.69,30.69,0,0,0,103.54,107c-6.64-2.43-14.29,3.87-18.33,8.8"/><path class="cls-2" d="M126.15,131.26c3.25.75,6.32.12,9.62-.18a7.21,7.21,0,0,1,4.09.43c2.14,1.15,2.51,4.31,1.25,6.38s-3.65,3.2-6,3.74c-8.3,1.92-19.55-3.39-24.42-10.19a7.35,7.35,0,0,1-1.63-4.1c0-4,3.83-3.53,6.13-1.8,3.32,2.5,6.93,4.78,11,5.72"/><path class="cls-2" d="M86.4,150.89c-2,3.47.17,10.11.94,13.55a11.76,11.76,0,0,0,1.29,3.7,4.37,4.37,0,0,0,3.12,2.17,4.25,4.25,0,0,0,3.64-1.78A9.67,9.67,0,0,0,97,164.63c.73-3.38.7-7.19-1.36-10a15.85,15.85,0,0,0-3.91-3.39c-.82-.57-3.74-2.21-4.64-1.28a4.34,4.34,0,0,0-.66.88"/><path class="cls-2" d="M113.88,150.89c2,3.47-.17,10.11-.93,13.55a11.85,11.85,0,0,1-1.29,3.7,4.37,4.37,0,0,1-3.12,2.17,4.27,4.27,0,0,1-3.64-1.78,9.63,9.63,0,0,1-1.58-3.89c-.73-3.38-.71-7.19,1.36-10a15.81,15.81,0,0,1,3.91-3.39c.82-.57,3.74-2.21,4.64-1.28a4.2,4.2,0,0,1,.66.88"/><path class="cls-1" d="M98.33,152.61c3,.17,6,.24,8.75-.84a13,13,0,0,0,6.55-6.13,19.9,19.9,0,0,0,2.07-8.84,27.09,27.09,0,0,0-1.15-8.36,12.41,12.41,0,0,0-3.26-5.77,13.45,13.45,0,0,0-6.54-2.8c-4.91-1-10.49-.85-14.33,2.37a17.3,17.3,0,0,0-4.51,6.84c-2.09,5-4.08,13.43.15,18a18.13,18.13,0,0,0,12.28,5.56"/><path class="cls-2" d="M143,79.86c.31-1,.64-1.93,1-2.85a14.58,14.58,0,0,1,11.65-9.68,15.79,15.79,0,0,1,2.47-.19,23.88,23.88,0,0,1,9.92,1.73,19.46,19.46,0,0,1,10.69,12.25c3.16,11.14-1.62,23.25-16.23,22.59a27.39,27.39,0,0,1-14-4.82,16.11,16.11,0,0,1-4.64-4.61c-3-4.88-2.22-9.91-.81-14.42"/><path class="cls-1" d="M163.85,75.16l.41.05c6.74,1,10.52,7.39,11,12.46A11,11,0,0,1,166,99.48c-3.87.67-9.62-.36-9.85-4.72-.21-4,2.12-8,2-12.2a13.3,13.3,0,0,1,.33-4.68c.7-2,2.7-3,5.3-2.72"/><path class="cls-2" d="M136.45,43.3a44.7,44.7,0,0,0-10.11-4.2c-6.7-1.84-13.71-2.15-20.55-3.31-6.36-1.08-12.84-3-17.73-7.18a.65.65,0,0,0-1.08.52,15.1,15.1,0,0,0,1.74,6.15.65.65,0,0,1-.79.93A17.64,17.64,0,0,0,76.36,36a.65.65,0,0,0-.06,1.21,8.92,8.92,0,0,1,3.78,3.6c-1.3-2.33-15.7,5-17.51,6.13A45.48,45.48,0,0,0,46.88,63.38C41.44,72.92,39.73,84.58,43.8,95S57,113.1,67.27,117.53c14.28,6.17,33.6,8.48,48.67,4.05,17.69-5.2,36.49-19.07,40.93-37.85,4-16.76-6.21-32.4-20.42-40.44"/><path class="cls-2" d="M57,79.86c-.31-1-.64-1.93-1-2.85a14.57,14.57,0,0,0-11.65-9.68,15.8,15.8,0,0,0-2.47-.19,23.88,23.88,0,0,0-9.92,1.73A19.46,19.46,0,0,0,21.24,81.12c-3.16,11.14,1.62,23.25,16.23,22.59a27.39,27.39,0,0,0,14-4.82,16.06,16.06,0,0,0,4.64-4.61c3-4.88,2.22-9.91.81-14.42"/><path class="cls-1" d="M36.15,75.16l-.41.05c-6.74,1-10.52,7.39-11,12.46A11,11,0,0,0,34,99.48c3.87.67,9.62-.36,9.85-4.72.22-4-2.12-8-2-12.2a13.38,13.38,0,0,0-.33-4.68c-.7-2-2.7-3-5.31-2.72"/><path class="cls-1" d="M100,117.86a63,63,0,0,0,25.56-5.74,36.58,36.58,0,0,0,7.23-4.35c9.05-7,15.52-18.37,15.93-29.88.23-6.29-2.49-12.14-8-15.12-6.6-3.6-12.4-2.1-19.43-.59-9.12,2-18.29,4.27-27.68,4.05a103.3,103.3,0,0,1-13.3-1.46C74.7,63.91,68.68,62,63.09,63.7c-16,4.75-15.68,23.83-7,34.87,5.06,6.46,11.37,12,19.09,15s16.74,4.29,24.84,4.26"/><path class="cls-2" d="M100.51,110.29q-1.24,0-2.46-.11c-9.06-.82-13.85-6.21-15.32-11a1.23,1.23,0,1,1,2.34-.72c1.89,6.12,8.05,8.79,13.2,9.26,6.56.59,14.33-1.32,16.43-8.45a1.23,1.23,0,1,1,2.35.7c-2.26,7.64-9.63,10.31-16.55,10.31"/><path class="cls-2" d="M81.07,97.11a3.52,3.52,0,0,1,1.66-.63c1.63-.28,3.77-.34,2.87,2.06-1.27,3.37-6.44.15-4.52-1.43"/><path class="cls-2" d="M118.34,97.17a3.54,3.54,0,0,0-1.68-.58c-1.64-.22-3.78-.22-2.8,2.15,1.37,3.32,6.45-.06,4.48-1.58"/><path d="M81.36,74.55a8.5,8.5,0,0,0-7-2.64,7.5,7.5,0,0,0-5.39,3.32c-2.13,3.35-2,8.53,1.82,10.76a9.25,9.25,0,0,0,9.57-.18,7.83,7.83,0,0,0,1-11.26"/><path d="M116,74a8.51,8.51,0,0,1,7-2.64,7.48,7.48,0,0,1,5.4,3.32c2.13,3.35,2,8.53-1.82,10.76a9.25,9.25,0,0,1-9.57-.18A7.83,7.83,0,0,1,116,74"/><path class="cls-2" d="M101.69,88.68c-2.67.1-5.53,1.58-6.25,3.68-.56,1.63.65,3.42,2.16,4.24,3.41,1.87,11.15-1,8.61-5.76a4.67,4.67,0,0,0-4.53-2.16"/><path class="cls-1" d="M136.12,135.16c2.87-2,9.9-8.08,4-17.48a1.38,1.38,0,0,0-1.94-.42c-3,2-10.51,8.33-4,17.56a1.38,1.38,0,0,0,1.91.34"/><path class="cls-1" d="M74.82,76.56a4.16,4.16,0,1,1-4.15-3.83,4,4,0,0,1,4.15,3.83"/><path class="cls-1" d="M123.45,75.83A4.16,4.16,0,1,1,119.3,72a4,4,0,0,1,4.15,3.83"/></svg>