<svg id="Layer_1" data-name="Layer 1" xmlns="http://www.w3.org/2000/svg" width="7.06cm" height="7.06cm" viewBox="0 0 200 200"><defs><style>.cls-1{fill:#ed5529;}.cls-2{fill:#f5dbc0;}.cls-3,.cls-5{fill:#231f20;}.cls-4{fill:#fff;}.cls-4,.cls-5{fill-rule:evenodd;}.cls-6{fill:#791b00;}</style></defs><title>monkey1-3</title><path class="cls-1" d="M107.78,96.16a35.22,35.22,0,0,1,9.88,3.45,54.71,54.71,0,0,1,6.63,4.17c7,5.08,11.57,11.79,10.07,19.4-1.37,6.93-7.12,12.08-14,13.5a16.42,16.42,0,0,1-10.1-1.23,31.19,31.19,0,0,1-8.13-6.1,33.63,33.63,0,0,1-8.19-11.24,24.87,24.87,0,0,1-1.24-17.76c1.68-5.09,9.77-5.17,15.12-4.2"/><path class="cls-1" d="M126.59,131c3.92.87,7.55-2,11.49-1.56s6.84,3.75,10.66,3.91,7.61-3.24,8.28-7c1.18-6.54-4-4.41-8-4.24-6.43.27-11.08-3.36-17.57-.18a10.16,10.16,0,0,0-4.21,3.57c-.78,1.22-2.48,4.58-.67,5.47"/><path class="cls-1" d="M144.94,116.17a35,35,0,0,0,4.54.56c5.11.18,13.72-6.68,9.11-12.27-2.62-3.18-8.05.39-10.81,1.56-4.48,1.89-9.55,1.24-13.92,3.51-2.76,1.43-9.55,5.73-5.17,8.62,3.23,2.13,6.68-.06,9.75-1.33A10.85,10.85,0,0,1,144.94,116.17Z"/><path class="cls-2" d="M97.16,103c4-1.2,10.89-3.44,11.83-3.42,3.61.07,5.85,2.64,8.59,4.47,4.69,3.14,13,7.76,11.41,14.7-1.87,8.32-13.81,11.11-20.22,7-7.34-4.67-11.71-14.12-14.42-22.05A14.35,14.35,0,0,0,97.16,103Z"/><path class="cls-1" d="M107.4,144.34a24.76,24.76,0,0,0,4.34-4.16c1.47-1.77,4.48-4.83,3.61-7.39a3.36,3.36,0,0,0-3-2.1c-1.35.18-1.79,1.66-2.43,2.65-2.08,3.23-5.35,6.35-9.19,7.3s-8.58-1.63-12.56-2.05c-5.57-.6-12.64,2.79-13.85,8.75-.45,2.19.63,4.48,3.11,4.13,2.95-.42,4.24-3.77,6.15-5.63,3-2.88,6.5-.62,9.8.65C98.62,148.51,103.4,147.28,107.4,144.34Z"/><path class="cls-1" d="M120,116.11c3.39,1.07,1.14,4.43-1.23,1.43-.56-1.15.37-1.39,1.23-1.43"/><path class="cls-1" d="M53.91,70.15a28.2,28.2,0,0,1,3.93-6.24c3-3.56,6.75-6.3,10.08-9.5,3.1-3,5.91-6.52,7-10.83a.43.43,0,0,1,.8-.07,11.75,11.75,0,0,1,1.5,4.39.46.46,0,0,0,.81.28,10.68,10.68,0,0,1,6.34-4.34.5.5,0,0,1,.51.72,6.22,6.22,0,0,0-.65,3.58C84,46.23,94.93,45.5,96.38,45.51a32.1,32.1,0,0,1,15.29,4.34C118.5,53.7,124.12,60.2,126,68s-.1,15.89-4,22.31c-5.46,9-15.26,17.4-25.4,20.17-11.9,3.26-27.89,1.62-37.86-8.25-8.9-8.8-9.51-22-4.84-32.12"/><path class="cls-1" d="M96.34,115a12.81,12.81,0,0,0-3-1.88c-1.65,3.29-5.76,5.65-9.26,6.35-2.63.53-7.74,0-9.26-2.63a26.92,26.92,0,0,1-5.51,3.3c2.81,9.37,17,7.86,22.9,3.38,1.5-1.14,5.1-3.81,5.44-5.78A3.07,3.07,0,0,0,96.34,115Z"/><path class="cls-1" d="M120,103.82c-2.14-.56-3.78-2.18-5.16-5.11,4-1.23,9.16-2.08,12.48-4.86,3.48-2.92,2.53-8.2,5.57-10.73,1.15-1,4-1.32,5.47-1.61,4.26,6.39-2.1,15.6-7.24,19.25a18.4,18.4,0,0,1-5.37,2.62A10.73,10.73,0,0,1,120,103.82Z"/><path class="cls-1" d="M63.61,93.67q.25.91.46,1.81a9,9,0,0,1-2.76,9,10.3,10.3,0,0,1-1.22.93,14.78,14.78,0,0,1-5.73,2.47,12.07,12.07,0,0,1-9.69-2.72c-5.42-4.7-7-12.59.75-17.21a17,17,0,0,1,8.91-2.26,10,10,0,0,1,4,.82c3.19,1.52,4.51,4.38,5.31,7.2"/><path class="cls-2" d="M54.84,103.81l-.23.11c-3.82,1.78-8-.26-9.91-2.73a6.82,6.82,0,0,1,.76-9.24c1.78-1.66,5.11-3.07,6.71-.9,1.47,2,1.62,4.87,3.1,7a8.34,8.34,0,0,1,1.42,2.54c.31,1.28-.38,2.46-1.83,3.21"/><path class="cls-1" d="M113.2,63c.51.42,1,.81,1.53,1.18a9.33,9.33,0,0,0,9.65,1.1,10.65,10.65,0,0,0,1.39-.77,15.36,15.36,0,0,0,4.71-4.41,12.48,12.48,0,0,0,1.43-10.32c-2.21-7.09-9-11.9-16.64-6.42a17.57,17.57,0,0,0-5.83,7.51,10.3,10.3,0,0,0-.87,4.1c.13,3.65,2.29,6.09,4.63,8"/><path class="cls-2" d="M126.44,58.86l.2-.17c3.28-2.89,3-7.65,1.52-10.54a7.06,7.06,0,0,0-9.08-3.1c-2.31,1-5,3.57-3.63,6,1.29,2.23,3.94,3.55,5.37,5.84a8.61,8.61,0,0,0,1.82,2.4c1.08.83,2.49.65,3.8-.41"/><path class="cls-2" d="M103.8,101.92a37.85,37.85,0,0,1-13.94,5.55c-10.92,2.09-20.22-.44-27.58-9-4.06-4.71-7.54-11.83-4.66-18A17.51,17.51,0,0,1,67.74,71c5.87-2.09,11.93-4,17.07-7.53a61.58,61.58,0,0,0,6.8-5.76c2.78-2.59,6.72-4.83,10.29-4.46a21.33,21.33,0,0,1,16.17,10.89c8,14.34-2.09,29.89-14.27,37.78"/><path class="cls-3" d="M89.41,80.47c1.43-1.28,3.66-1.93,5.07-1.2a2.75,2.75,0,0,1,1,3.28c-.84,2.66-6.29,5-7.33,1.3a3.37,3.37,0,0,1,1.28-3.38"/><path class="cls-4" d="M104.6,76.1a7.07,7.07,0,0,1-5.42-1.36A7.32,7.32,0,0,1,108,63a7.8,7.8,0,0,1,2.93,4.92,7.23,7.23,0,0,1-1.41,5.41,7.74,7.74,0,0,1-4.9,2.74"/><path class="cls-4" d="M80.31,91.12a7.07,7.07,0,0,0,1.14-5.47,7.32,7.32,0,0,0-14.37,2.83,7.79,7.79,0,0,0,3.15,4.78,7.23,7.23,0,0,0,5.48,1.08,7.75,7.75,0,0,0,4.6-3.21"/><path class="cls-5" d="M80.61,88.45a5.44,5.44,0,0,0-1.88-3.91,5.74,5.74,0,0,0-4.21-1.29,5.41,5.41,0,0,0-3.87,1.93,5.67,5.67,0,0,0,.51,7.94,5.74,5.74,0,0,0,4,1.37,6.17,6.17,0,0,0,4-1.8,6.24,6.24,0,0,0,1.4-4.24"/><path class="cls-4" d="M73.53,86.87a1.32,1.32,0,0,0,1-.1,1.14,1.14,0,0,0,.62-.73,1.12,1.12,0,0,0-.07-1,1.39,1.39,0,0,0-.78-.64,1.15,1.15,0,0,0-.94.05,1.32,1.32,0,0,0-.68.77,1.48,1.48,0,0,0,.11,1,1.15,1.15,0,0,0,.74.57"/><path class="cls-5" d="M109.33,70.15a5.44,5.44,0,0,0-1.88-3.91,5.74,5.74,0,0,0-4.21-1.29,5.4,5.4,0,0,0-3.87,1.93,5.68,5.68,0,0,0,.5,7.94,5.73,5.73,0,0,0,4,1.37,5.49,5.49,0,0,0,5.43-6"/><path class="cls-4" d="M102.24,68.57a1.31,1.31,0,0,0,1-.1,1.27,1.27,0,0,0,.55-1.7,1.39,1.39,0,0,0-.78-.63,1.16,1.16,0,0,0-.95.05,1.32,1.32,0,0,0-.68.77,1.48,1.48,0,0,0,.11,1,1.15,1.15,0,0,0,.74.57"/><path class="cls-3" d="M101.49,84.58c-1.13,2.75-7.67,7.42-12.14,7.94,0,0,7.64,5.14,10.67,3.15C104.17,93,101.49,84.58,101.49,84.58Z"/><path class="cls-3" d="M101.24,84.43c-1.9,4-7.75,7.17-12,7.81-.27,0-.25.4-.07.53,2.65,1.76,8,5.21,11.17,3,3.31-2.33,2.42-8,1.39-11.27-.11-.35-.67-.2-.56.15,1,3,2,9.25-1.64,10.91-3,1.36-7.6-1.64-10.07-3.29l-.07.53c4.37-.66,10.34-3.92,12.31-8.08C101.9,84.39,101.4,84.1,101.24,84.43Z"/><line class="cls-3" x1="89.58" y1="92.56" x2="87.53" y2="92.62"/><path class="cls-3" d="M89.58,92.2l-2,.06a.36.36,0,0,0,0,.72l2-.06a.36.36,0,0,0,0-.72Z"/><circle class="cls-3" cx="86.96" cy="92.71" r="0.94" transform="translate(-36.6 62.9) rotate(-33.27)"/><line class="cls-3" x1="101.35" y1="85.09" x2="102.22" y2="83.24"/><path class="cls-3" d="M101.66,85.27l.87-1.85c.2-.42-.43-.78-.62-.36L101,84.91c-.2.42.43.78.62.36Z"/><circle class="cls-3" cx="102.53" cy="82.75" r="0.94" transform="translate(-28.58 69.73) rotate(-33.24)"/><path class="cls-6" d="M146.56,41.59c-4.18-11.1-13.75-18.8-23-26.24-2.57-2.07-4.71-4.64-7.11-6.89C113.84,6,110,2.38,106.26,4.71a1,1,0,0,0-.54.64c-.11.65.89,1.12,1.26,1.52q.89.94,1.81,1.86,1.88,1.88,3.84,3.66c2.56,2.33,5.22,4.54,7.92,6.71,9.15,7.36,17.8,14.32,21.52,24.19,5.57,14.81,3.26,30.14-6.35,42.07-13.46,16.71-32.25,22.58-48.86,26.13-9.31,2-28.15,8.82-32.83,20.47-2,5-1.24,10.23,2.32,15.46,6,8.79,15.28,13.89,24.28,18.82C92.5,172.74,107.8,181.18,110,196c0-.23.08-.45.11-.68,1.64-12.36-8.34-21.43-14.44-25.74A132,132,0,0,0,82.94,162c-8.5-4.66-17.3-9.48-22.62-17.31-2.64-3.89-3.24-7.48-1.83-11,3.64-9.07,19.56-15.47,29.37-17.56,17.43-3.72,37.19-9.93,51.59-27.81C150.16,75.08,152.75,58,146.56,41.59Z"/><path class="cls-1" d="M134.83,87.54c-1.5,0-3-.2-3.38-.84-2.26-3.76,5.07-11.15,8.94-9.25,4.37,2.14,1.31,9-2.59,9.83A16.47,16.47,0,0,1,134.83,87.54Z"/><path class="cls-1" d="M76.13,116a2.71,2.71,0,0,0-1.81-3.72c-3-1.23-11.48,1.52-9.95,5.84,1,2.71,6,2.77,8.07,1.76A7.66,7.66,0,0,0,76.13,116Z"/><path class="cls-6" d="M66.53,177.62c3.61-1.66,12.68-7.14,7.88-18.84a1.57,1.57,0,0,0-2.1-.85c-3.81,1.7-13.41,7.3-7.86,18.93A1.57,1.57,0,0,0,66.53,177.62Z"/><path class="cls-6" d="M143.41,12.55c-3.45-2-13.17-6.18-19.92,4.51a1.57,1.57,0,0,0,.52,2.2c3.59,2.12,13.73,6.69,20-4.58A1.57,1.57,0,0,0,143.41,12.55Z"/></svg>