<svg id="Layer_1" data-name="Layer 1" xmlns="http://www.w3.org/2000/svg" width="7.06cm" height="7.06cm" viewBox="0 0 200 200"><defs><style>.cls-1,.cls-4{fill:#231f20;}.cls-2{fill:#edbf8e;}.cls-3{fill:#fff;}.cls-3,.cls-4{fill-rule:evenodd;}</style></defs><title>monkey2-2</title><path class="cls-1" d="M79,152.36c-4.07,2.54-9.32.72-13.57,2.8-6.27,3.08-8.94,9.9-17.13,9.23-3.5-.29-7.28-3.18-7.22-6.89.07-5.14,5.42-5.08,9.1-6.21,7.36-2.25,11.15-8.19,19.73-7.19A12.22,12.22,0,0,1,76,146.45c1.36,1.07,4.62,4.18,2.93,5.9"/><path class="cls-1" d="M71.2,145.86c-4.77.51-8.7-3.42-13.43-3.39-7,0-12.36,5-19.44.84-3-1.79-5.16-6-3.5-9.36,2.31-4.59,7.09-2.21,10.89-1.62,7.6,1.18,13.61-2.51,20.89,2.13a12.19,12.19,0,0,1,4.52,4.81c.76,1.55,2.34,5.77.06,6.58"/><path class="cls-1" d="M86.94,107.35a41.94,41.94,0,0,0-10.45,6.87A65.68,65.68,0,0,0,70,121c-6.69,7.94-10,17-6,25.42C67.58,154,75.73,158.34,84.17,158a19.61,19.61,0,0,0,11.35-4.36,37.23,37.23,0,0,0,7.65-9.43c3.31-5.32,5.19-9.52,6.24-15.41a29.73,29.73,0,0,0-3.71-20.95c-3.43-5.41-12.83-3.15-18.75-.47"/><path class="cls-2" d="M101.22,112.16c-5-.23-13.62-.82-14.71-.53-4.16,1.13-6,4.76-8.66,7.68-4.53,5-12.78,12.77-9,20.36,4.59,9.11,19.24,8.88,25.49,2.28,7.15-7.55,9.48-19.77,10.31-29.76A16.62,16.62,0,0,1,101.22,112.16Z"/><path class="cls-1" d="M78.62,134c-3.62,2.22,0,5.47,1.84,1.3.32-1.5-.83-1.51-1.84-1.3"/><path class="cls-1" d="M141.7,60.14a33.77,33.77,0,0,0-6.41-6.06c-4.51-3.23-9.69-5.29-14.5-8-4.47-2.52-8.79-5.79-11.29-10.47a.51.51,0,0,0-1,.16,14.05,14.05,0,0,0-.43,5.52c.06.52-.49.89-.86.56a12.76,12.76,0,0,0-8.63-3.13.59.59,0,0,0-.38,1,7.43,7.43,0,0,1,1.82,3.94c-.32-2.25-13.2.15-14.87.59a38.37,38.37,0,0,0-16.41,9.57C62,60.32,57.46,69.52,57.59,79.14s4.85,18.37,11.28,24.64c9,8.75,22.84,15.6,35.4,15.79,14.75.23,32.77-6.42,41.38-20.81,7.69-12.84,4.46-28.35-4-38.62"/><path class="cls-1" d="M105.68,125.88a15.43,15.43,0,0,1,3-3.06c2.86,3.34,8.33,4.88,12.58,4.67,3.21-.15,9-2.22,10-5.74a32.12,32.12,0,0,0,7.35,2.22C138,135.64,121.13,138,113,134.53c-2.07-.88-7-2.94-8-5.12A3.67,3.67,0,0,1,105.68,125.88Z"/><path class="cls-1" d="M75,119.8c2.32-1.27,3.75-3.63,4.5-7.43-5-.25-11.23.25-15.88-2C58.7,108,58.27,101.59,54,99.54c-1.61-.77-5-.37-6.81-.28-3.09,8.65,7,17.47,14,20.21a22,22,0,0,0,7,1.49A12.82,12.82,0,0,0,75,119.8Z"/><path class="cls-1" d="M105.54,163.09a29.34,29.34,0,0,1-6.24-3.57c-2.21-1.63-6.59-4.31-6.33-7.53a4,4,0,0,1,2.91-3.31c1.62-.18,2.55,1.41,3.58,2.37,3.35,3.15,8,5.82,12.77,5.8,4.89,0,9.48-4.36,14-6,6.29-2.3,15.46-.41,18.6,6.15,1.15,2.41.57,5.37-2.42,5.68-3.54.37-6-3.15-8.76-4.75-4.26-2.48-7.72,1.16-11.18,3.59C116.93,165.39,111,165.34,105.54,163.09Z"/><path class="cls-1" d="M137.43,91.64c0,.75,0,1.5,0,2.23a10.8,10.8,0,0,0,5.8,9.6,12.28,12.28,0,0,0,1.68.73,17.64,17.64,0,0,0,7.36,1.2,14.43,14.43,0,0,0,10.45-6c4.91-7,4.51-16.65-5.87-19.74a20.22,20.22,0,0,0-11,0,12,12,0,0,0-4.36,2.1c-3.25,2.69-4,6.39-4.07,9.89"/><path class="cls-2" d="M150.54,100.85l.3.06c4.95,1,9.15-2.61,10.7-6A8.16,8.16,0,0,0,158,84.37c-2.54-1.41-6.81-2.08-8,.91-1.12,2.75-.46,6.11-1.55,9a10,10,0,0,0-.9,3.35c0,1.57,1.16,2.74,3.05,3.19"/><path class="cls-1" d="M71,70.46c-.47.63-.95,1.23-1.42,1.81a11.16,11.16,0,0,1-10.87,4.08,12.15,12.15,0,0,1-1.83-.49,18.31,18.31,0,0,1-6.75-3.74,14.91,14.91,0,0,1-4.66-11.55c.51-8.86,7-16.42,17.43-12.27a21,21,0,0,1,8.95,7,12.3,12.3,0,0,1,2.2,4.5c.92,4.28-.88,7.73-3,10.65"/><path class="cls-2" d="M54.46,69.53l-.28-.14c-4.64-2.39-5.76-8-4.82-11.78A8.44,8.44,0,0,1,59,51.38c3,.49,6.87,2.68,5.95,5.89-.85,3-3.54,5.26-4.53,8.33A10.34,10.34,0,0,1,59,68.9c-1,1.27-2.7,1.48-4.52.63"/><path class="cls-2" d="M92.21,111.87A45.33,45.33,0,0,0,110,114.25c13.26-.75,23.32-6.39,29.38-18.41,3.34-6.63,5.31-15.91.17-22.21A20.93,20.93,0,0,0,125,65.54c-7.41-.72-15-1.14-22-3.77a73.35,73.35,0,0,1-9.55-4.7c-4-2.2-9.2-3.65-13.22-2.18A25.49,25.49,0,0,0,64.69,72.21c-5.14,19,11.11,34,27.52,39.67"/><path class="cls-1" d="M102.67,82.81c-2-1.07-4.8-1.18-6.23.08-1.11,1-1,2.82-.19,4.09,1.75,2.84,8.75,4,8.88-.63a4,4,0,0,0-2.46-3.54"/><path class="cls-3" d="M83.78,82.16A8.45,8.45,0,0,0,89.67,79a8.75,8.75,0,0,0-13.6-11,9.31,9.31,0,0,0-2,6.55,8.63,8.63,0,0,0,3.21,5.86,9.25,9.25,0,0,0,6.47,1.76"/><path class="cls-4" d="M88.19,68a6.49,6.49,0,0,1,.87,5.11,6.87,6.87,0,0,1-3.21,4.18,6.49,6.49,0,0,1-5.11.8,6.79,6.79,0,0,1-5-8.09,6.9,6.9,0,0,1,3-4.13,7.4,7.4,0,0,1,5.17-1A7.49,7.49,0,0,1,88.19,68"/><path class="cls-3" d="M82.53,74.5a1.59,1.59,0,0,0-1.1-.48,1.37,1.37,0,0,0-1.07.4,1.35,1.35,0,0,0-.48,1.06,1.65,1.65,0,0,0,.45,1.11,1.39,1.39,0,0,0,1,.49,1.56,1.56,0,0,0,1.16-.41A1.77,1.77,0,0,0,83,75.53a1.37,1.37,0,0,0-.45-1"/><path class="cls-3" d="M116.32,92.52a8.45,8.45,0,0,1-2.91-6,8.72,8.72,0,0,1,8.22-9.06,8.54,8.54,0,0,1,9.26,8.15,9.32,9.32,0,0,1-2.27,6.46,8.65,8.65,0,0,1-6,2.85,9.27,9.27,0,0,1-6.27-2.39"/><path class="cls-1" d="M89.85,91.08c2.1,2.87,11,6.38,16.38,5.68,0,0-7.36,8.17-11.46,6.75C89.18,101.58,89.85,91.08,89.85,91.08Z"/><path class="cls-1" d="M89.61,91.33c2.44,2.95,6.93,4.45,10.53,5.27.66.15,6.14,1.22,5.82,0,.1.38-2.37,2.35-2.63,2.58-3.48,3.11-8.73,6.68-11.68.89a18,18,0,0,1-1.45-8.95c0-.44-.66-.44-.69,0-.23,4.05.33,10.54,4.55,12.51,4.38,2,9.79-3.7,12.41-6.58.18-.2.07-.62-.24-.59-5.1.48-12.73-1.47-16.14-5.58C89.81,90.5,89.33,91,89.61,91.33Z"/><line class="cls-1" x1="105.98" y1="96.88" x2="108.37" y2="96.35"/><path class="cls-1" d="M106.1,97.29l2.39-.53c.54-.12.31-1-.23-.83l-2.39.53c-.54.12-.31,1,.23.83Z"/><circle class="cls-1" cx="109.06" cy="96.29" r="1.13" transform="translate(-17.79 167.52) rotate(-70.76)"/><line class="cls-1" x1="90.17" y1="91.64" x2="88.62" y2="89.74"/><path class="cls-1" d="M90.47,91.33l-1.55-1.9c-.35-.43-1,.18-.61.61l1.55,1.9c.35.43,1-.18.61-.61Z"/><circle class="cls-1" cx="88.12" cy="89.27" r="1.13" transform="translate(-25.13 143.2) rotate(-70.84)"/><path class="cls-1" d="M52.79,105.71c1.79,0,3.58-.23,4-1,2.7-4.5-6.06-13.32-10.68-11.06-5.22,2.56-1.56,10.79,3.1,11.75A20,20,0,0,0,52.79,105.71Z"/><path class="cls-1" d="M129.21,120.48c-.76-1.68-.5-3.45,1.78-4.61,3.49-1.76,13.83.67,12.43,6-.88,3.32-6.87,3.9-9.44,2.91A9.14,9.14,0,0,1,129.21,120.48Z"/><path class="cls-4" d="M127.26,80.81a6.5,6.5,0,0,1,.88,5.11,6.86,6.86,0,0,1-3.21,4.18,6.48,6.48,0,0,1-5.11.8,6.8,6.8,0,0,1-5-8.09,6.89,6.89,0,0,1,3-4.12,7.38,7.38,0,0,1,5.18-1,7.47,7.47,0,0,1,4.29,3.17"/><path class="cls-3" d="M121.6,87.27a1.59,1.59,0,0,0-1.1-.48,1.37,1.37,0,0,0-1.07.4,1.35,1.35,0,0,0-.48,1.06,1.64,1.64,0,0,0,.45,1.11,1.41,1.41,0,0,0,1,.49,1.58,1.58,0,0,0,1.16-.41A1.78,1.78,0,0,0,122,88.3a1.37,1.37,0,0,0-.45-1"/></svg>