<svg id="Layer_1" data-name="Layer 1" xmlns="http://www.w3.org/2000/svg" width="7.06cm" height="7.06cm" viewBox="0 0 200 200"><defs><style>.cls-1{fill:#7c6755;}.cls-2{fill:#f0d6bc;}.cls-3,.cls-5{fill:#2e2a25;}.cls-4{fill:#fff;}.cls-4,.cls-5{fill-rule:evenodd;}</style></defs><title>monkey-4</title><path class="cls-1" d="M125.26,123c3.15-.6,5.61-2.35,8.4-3.89a6.92,6.92,0,0,1,3.77-1.21c2.33.18,3.89,2.82,3.58,5.14s-2,4.23-3.85,5.63c-6.56,4.92-18.54,4.61-25.46.51a7,7,0,0,1-3-3c-1.58-3.55,2-4.59,4.7-4,3.89.92,8,1.53,11.89.78"/><path class="cls-1" d="M74.78,124.57c-3.16-.58-5.63-2.31-8.42-3.84a6.93,6.93,0,0,0-3.78-1.18c-2.33.19-3.87,2.85-3.55,5.16s2,4.22,3.89,5.61c6.59,4.87,18.56,4.49,25.47.34a7,7,0,0,0,3-3c1.55-3.57-2-4.59-4.72-3.95-3.89.94-8,1.58-11.89.85"/><path class="cls-1" d="M85.75,115.57a33.26,33.26,0,0,0-5.59,9.94,46.12,46.12,0,0,0-2,8c-1.47,9,.89,17.16,9.55,21.43,7.88,3.9,18,3.21,25.6-1a18,18,0,0,0,7.91-8.53c1.37-3.28,1.54-6.94,1.47-10.49a28.64,28.64,0,0,0-3.4-14.21,29.54,29.54,0,0,0-15.92-13.58c-6.4-2.34-13.76,3.73-17.65,8.48"/><path class="cls-1" d="M107,156.31c-.53,3.8-6,7.64-8.62,9.83a11.13,11.13,0,0,1-3.15,2.08,4.22,4.22,0,0,1-3.65-.15,4.12,4.12,0,0,1-1.75-3.49,9.18,9.18,0,0,1,1.06-3.9c1.41-3,3.66-5.92,6.85-6.84a15.22,15.22,0,0,1,5-.31c1,.05,4.14.5,4.3,1.73a4.11,4.11,0,0,1,0,1.06"/><path class="cls-2" d="M98.39,151c2.84.16,5.78.24,8.43-.8a12.5,12.5,0,0,0,6.31-5.9,19.24,19.24,0,0,0,2-8.51,26.17,26.17,0,0,0-1.11-8.05,11.87,11.87,0,0,0-3.14-5.55,12.89,12.89,0,0,0-6.3-2.69c-4.73-.94-10.09-.82-13.8,2.28a16.67,16.67,0,0,0-4.34,6.58c-2,4.86-3.93,12.93.14,17.31A17.45,17.45,0,0,0,98.39,151"/><path class="cls-1" d="M141.45,80.95c.3-.94.62-1.85.94-2.74a14.05,14.05,0,0,1,11.22-9.32,15.34,15.34,0,0,1,2.38-.18,23,23,0,0,1,9.55,1.67,18.75,18.75,0,0,1,10.29,11.79c3,10.72-1.56,22.38-15.63,21.75a26.26,26.26,0,0,1-13.51-4.64,15.5,15.5,0,0,1-4.47-4.44c-2.85-4.7-2.13-9.54-.78-13.88"/><path class="cls-2" d="M161.47,75.23l.4.05c6.49.93,10.13,7.11,10.57,12a10.6,10.6,0,0,1-8.86,11.37c-3.73.65-9.26-.34-9.48-4.54-.21-3.86,2-7.7,1.94-11.75a13,13,0,0,1,.32-4.5c.68-1.93,2.59-2.87,5.11-2.62"/><path class="cls-1" d="M135.1,45.74a43.2,43.2,0,0,0-9.74-4c-6.45-1.78-13.2-2.07-19.79-3.19-6.12-1-12.36-2.93-17.07-6.92a.62.62,0,0,0-1,.5A14.42,14.42,0,0,0,89.14,38a.63.63,0,0,1-.77.89,17,17,0,0,0-11.14-.21.63.63,0,0,0-.05,1.16,8.62,8.62,0,0,1,3.64,3.47C79.57,41.1,65.7,48.18,64,49.25a43.78,43.78,0,0,0-15.1,15.83c-5.24,9.19-6.89,20.42-3,30.42S58.64,113,68.49,117.21c13.75,5.94,32.35,8.17,46.86,3.91,17-5,35.13-18.36,39.4-36.45,3.81-16.14-6-31.19-19.65-38.93"/><path class="cls-1" d="M58.55,80.95c-.3-.94-.62-1.85-.94-2.74a14,14,0,0,0-11.22-9.32A15.44,15.44,0,0,0,44,68.71a22.93,22.93,0,0,0-9.55,1.67,18.75,18.75,0,0,0-10.3,11.79c-3,10.72,1.56,22.38,15.64,21.75a26.32,26.32,0,0,0,13.51-4.64,15.45,15.45,0,0,0,4.46-4.44c2.85-4.7,2.13-9.54.78-13.88"/><path class="cls-2" d="M38.53,75.23l-.39.05c-6.5.93-10.13,7.11-10.58,12a10.61,10.61,0,0,0,8.86,11.37c3.73.65,9.26-.34,9.48-4.54.21-3.86-2-7.7-1.95-11.75a12.82,12.82,0,0,0-.32-4.5C43,75.92,41,75,38.53,75.23"/><path class="cls-2" d="M100,117.53A60.55,60.55,0,0,0,124.59,112a35.61,35.61,0,0,0,7-4.19c8.71-6.71,14.93-17.68,15.34-28.77.22-6-2.4-11.68-7.67-14.56-6.36-3.46-11.94-2-18.71-.57-8.77,1.88-17.61,4.12-26.66,3.9a100.29,100.29,0,0,1-12.81-1.4c-5.42-.83-11.21-2.63-16.59-1C49,70,49.36,88.33,57.68,99c4.87,6.22,11,11.53,18.38,14.47a66.91,66.91,0,0,0,23.91,4.1"/><path class="cls-3" d="M100.49,110.24q-1.2,0-2.37-.1c-8.72-.79-13.33-6-14.74-10.58a1.18,1.18,0,1,1,2.25-.69c1.81,5.89,7.75,8.47,12.71,8.91,6.32.57,13.79-1.27,15.82-8.14a1.18,1.18,0,1,1,2.26.67c-2.18,7.35-9.28,9.92-15.93,9.92"/><path class="cls-3" d="M81.77,97.55a3.5,3.5,0,0,1,1.6-.6c1.56-.26,3.63-.32,2.76,2-1.22,3.24-6.2.14-4.36-1.39"/><path class="cls-3" d="M117.66,97.61a3.39,3.39,0,0,0-1.61-.56c-1.57-.22-3.64-.21-2.69,2.07,1.32,3.2,6.21-.05,4.31-1.52"/><path class="cls-3" d="M101.63,89.44c-2.58.1-5.33,1.52-6,3.54-.53,1.57.63,3.28,2.09,4.08,3.28,1.8,10.73-1,8.29-5.55a4.51,4.51,0,0,0-4.36-2.08"/><path class="cls-1" d="M71,152.32a11.35,11.35,0,0,0-2.82,2.51,4.19,4.19,0,0,0-.78,3.58A4.09,4.09,0,0,0,70.36,161a9.28,9.28,0,0,0,4,0c4.19-.77,9.17-4.16,12.32-7,1.08-1,2-1.5,1.54-2.79-.92-2.79-4.74-5.42-7.63-4.72C77.13,147.26,73.92,150.31,71,152.32Z"/><path class="cls-4" d="M78.81,91.72A9.47,9.47,0,0,0,84,86.32a9.81,9.81,0,0,0-18.32-7A10.43,10.43,0,0,0,65.85,87,9.68,9.68,0,0,0,71.3,92.1a10.37,10.37,0,0,0,7.51-.38"/><path class="cls-5" d="M68.67,86.4A7.29,7.29,0,0,1,68,80.63a7.71,7.71,0,0,1,3.86-4.47,7.27,7.27,0,0,1,5.77-.56A7.62,7.62,0,0,1,82.73,85a7.71,7.71,0,0,1-3.6,4.43,8.29,8.29,0,0,1-5.86.82,8.38,8.38,0,0,1-4.6-3.82"/><path class="cls-4" d="M70,82.4a1.78,1.78,0,0,0,1.2.61A1.69,1.69,0,0,0,73,81.46a1.88,1.88,0,0,0-.44-1.27,1.55,1.55,0,0,0-1.1-.61,1.74,1.74,0,0,0-1.33.39,2,2,0,0,0-.6,1.25A1.53,1.53,0,0,0,70,82.4"/><path class="cls-4" d="M121.74,91.72a9.47,9.47,0,0,1-5.18-5.4,9.81,9.81,0,0,1,18.32-7A10.44,10.44,0,0,1,134.7,87a9.67,9.67,0,0,1-5.45,5.13,10.38,10.38,0,0,1-7.51-.38"/><path class="cls-5" d="M131.88,86.4a7.29,7.29,0,0,0,.65-5.77,7.72,7.72,0,0,0-3.86-4.47,7.27,7.27,0,0,0-5.77-.56,7.49,7.49,0,0,0-4.42,3.6,7.41,7.41,0,0,0-.65,5.77,7.71,7.71,0,0,0,3.6,4.43,8.29,8.29,0,0,0,5.86.82,8.38,8.38,0,0,0,4.6-3.82"/><path class="cls-4" d="M130.55,82.4a1.78,1.78,0,0,1-1.21.61,1.7,1.7,0,0,1-1.84-1.54,1.89,1.89,0,0,1,.44-1.27,1.55,1.55,0,0,1,1.11-.61,1.75,1.75,0,0,1,1.33.39,2,2,0,0,1,.6,1.25,1.53,1.53,0,0,1-.43,1.17"/></svg>