<svg id="Layer_1" data-name="Layer 1" xmlns="http://www.w3.org/2000/svg" width="7.06cm" height="7.06cm" viewBox="0 0 200 200"><defs><style>.cls-1{fill:#a3d783;}.cls-2{fill:#231f20;}.cls-3{fill:#edbf8e;}.cls-4{fill:#fff;}</style></defs><title>monkey5-4</title><path class="cls-1" d="M139.71,153.66c3.69.65,13.65,1.28,16.22-10.35a1.48,1.48,0,0,0-1.17-1.78c-3.86-.73-14.31-1.55-16.25,10.44a1.48,1.48,0,0,0,1.2,1.7"/><path class="cls-1" d="M173.18,164.41c-.94-4.1-4.68-14.7-17.85-12.24a1.67,1.67,0,0,0-1.33,2c.94,4.32,4.68,15.5,18,12.24a1.66,1.66,0,0,0,1.23-2"/><path class="cls-1" d="M154.13,163.35c-3.71-3.43-14.58-11.41-26-.05a2,2,0,0,0,0,2.88c3.86,3.65,15.13,12.2,26.09,0a2,2,0,0,0-.13-2.81"/><path class="cls-1" d="M38.93,153.66c3.69.65,13.65,1.28,16.22-10.35A1.49,1.49,0,0,0,54,141.52C50.12,140.79,39.68,140,37.73,152a1.48,1.48,0,0,0,1.2,1.7"/><path class="cls-1" d="M72.41,164.41c-.94-4.1-4.68-14.7-17.85-12.24a1.67,1.67,0,0,0-1.33,2c.94,4.32,4.68,15.5,18,12.24a1.66,1.66,0,0,0,1.23-2"/><path class="cls-1" d="M53.35,163.35c-3.71-3.43-14.59-11.41-26-.05a2,2,0,0,0,0,2.88c3.86,3.65,15.13,12.2,26.09,0a2,2,0,0,0-.13-2.81"/><path class="cls-1" d="M95,146.05c3.69.65,13.65,1.27,16.22-10.35a1.48,1.48,0,0,0-1.17-1.78c-3.86-.73-14.31-1.55-16.25,10.44a1.48,1.48,0,0,0,1.2,1.7"/><path class="cls-1" d="M128.52,156.81c-.94-4.11-4.68-14.7-17.85-12.24a1.67,1.67,0,0,0-1.33,2c.94,4.32,4.68,15.5,18,12.24a1.66,1.66,0,0,0,1.23-2"/><path class="cls-1" d="M109.46,155.74c-3.71-3.43-14.58-11.41-26-.05a2,2,0,0,0,0,2.88c3.86,3.65,15.13,12.2,26.09,0a2,2,0,0,0-.13-2.81"/><path class="cls-2" d="M58.38,138.81c-.43,1.46-.68,3.2.29,4.37a3.57,3.57,0,0,0,4.18.6,12.06,12.06,0,0,0,3.46-2.9c2.8-2.92,6-5.52,8.38-8.76,1.94-2.59,5.6-9.55,2.79-12.72s-6.71,2.8-8.81,4.67A54.33,54.33,0,0,0,64,128.57a27.22,27.22,0,0,0-5.65,10.25"/><path class="cls-2" d="M77.21,114.16a31.49,31.49,0,0,0-5.27,9.38,43.77,43.77,0,0,0-1.86,7.54c-1.39,8.45.84,16.2,9,20.23,7.44,3.68,17,3,24.16-1a16.94,16.94,0,0,0,7.46-8,24.5,24.5,0,0,0,1.39-9.91A27.08,27.08,0,0,0,108.89,119a27.87,27.87,0,0,0-15-12.81c-6-2.21-13,3.51-16.66,8"/><path class="cls-2" d="M114.42,128.2c3,.68,5.74.11,8.74-.16a6.53,6.53,0,0,1,3.71.39c1.94,1,2.29,3.92,1.14,5.8a8.41,8.41,0,0,1-5.47,3.4c-7.54,1.75-17.76-3.08-22.19-9.26a6.64,6.64,0,0,1-1.48-3.73c0-3.66,3.49-3.21,5.57-1.64a27.19,27.19,0,0,0,10,5.2"/><path class="cls-2" d="M78.3,146c-1.78,3.16.16,9.19.85,12.31a10.79,10.79,0,0,0,1.17,3.36,4,4,0,0,0,2.83,2,3.86,3.86,0,0,0,3.31-1.62,8.73,8.73,0,0,0,1.44-3.53c.66-3.07.64-6.53-1.23-9.06a14.41,14.41,0,0,0-3.55-3.07c-.75-.52-3.4-2-4.21-1.17a3.78,3.78,0,0,0-.6.8"/><path class="cls-2" d="M103.27,146c1.78,3.16-.16,9.19-.84,12.31a10.75,10.75,0,0,1-1.18,3.36,4,4,0,0,1-2.83,2,3.86,3.86,0,0,1-3.31-1.62,8.7,8.7,0,0,1-1.44-3.53C93,155.45,93,152,94.9,149.47a14.34,14.34,0,0,1,3.55-3.07c.75-.52,3.39-2,4.21-1.17a3.82,3.82,0,0,1,.6.8"/><path class="cls-3" d="M89.13,147.6c2.68.15,5.46.22,8-.76a11.77,11.77,0,0,0,5.95-5.57,18,18,0,0,0,1.88-8,24.66,24.66,0,0,0-1-7.6,11.31,11.31,0,0,0-3-5.24A12.22,12.22,0,0,0,95,117.85c-4.47-.88-9.53-.77-13,2.15a15.7,15.7,0,0,0-4.1,6.21c-1.9,4.59-3.7,12.21.14,16.33a16.5,16.5,0,0,0,11.16,5"/><path class="cls-3" d="M123.44,146.39a1.1,1.1,0,0,1-1-.59,19.18,19.18,0,0,1-1.37-12.74,46.29,46.29,0,0,1,4.59-11.7,1.09,1.09,0,0,1,1.94,1,44.7,44.7,0,0,0-4.39,11.15,17,17,0,0,0,1.17,11.28,1.1,1.1,0,0,1-1,1.6"/><path class="cls-1" d="M125,124.23a5.87,5.87,0,0,0,5.24.37,5.5,5.5,0,0,0,2-2,19.12,19.12,0,0,0,2.27-4.66.59.59,0,0,0-.6-.77l-3,.14a1.71,1.71,0,0,1-1-.15c-.47-.29-.54-.92-.77-1.42-.3-.67-1-1.25-1.27-1.89a.6.6,0,0,0-1-.16,22.7,22.7,0,0,0-2.17,2.43c-1.32,1.71-2.72,4-1.67,6.22a4.5,4.5,0,0,0,1.85,1.9"/><path class="cls-2" d="M125,47.52a30.82,30.82,0,0,0-13.25-9.08,40.64,40.64,0,0,0-10.24-2c-4.86-.38-10.12-2.86-8.58-8.31a.52.52,0,0,0-.75-.59,6.78,6.78,0,0,0-3,4.22.52.52,0,0,1-.94.15c-.4-.63-.83-1.34-1.17-1.91a.52.52,0,0,0-.94.14l-.78,3.11c-.63,2.51-2.55,3-4.75,3.75A77.46,77.46,0,0,0,68.12,43.2C60.94,47.31,55.31,54.5,52.27,62.27a69.58,69.58,0,0,0-4.7,17.65c-.72,6.54-.55,13,1.88,19.18,3.21,8.18,10.44,14.3,18.51,17.79,11.26,4.86,26.5,6.69,38.38,3.2,16.61-4.88,34.86-18.51,32.49-37.86-1.42-11.58-6.1-25.78-13.85-34.71"/><path class="cls-2" d="M124.21,74.62c-.1-1-.17-2.07-.23-3.07-.31-5.12,1.13-10.52,5.17-14a12,12,0,0,1,1.71-1.23,15.54,15.54,0,0,1,7.68-2.63c4.72-.14,9.1,2.91,11.69,6.85,5.93,9,6.47,22.39-4.21,28a17,17,0,0,1-11.64,1.5,11,11,0,0,1-4.84-2.32c-3.72-3.29-4.85-8.3-5.32-13.11"/><path class="cls-2" d="M61.22,74.62c.1-1,.17-2.07.23-3.07.31-5.12-1.13-10.52-5.17-14a12,12,0,0,0-1.71-1.23,15.54,15.54,0,0,0-7.68-2.63c-4.72-.14-9.1,2.91-11.69,6.85-5.93,9-6.47,22.39,4.21,28a17,17,0,0,0,11.64,1.5,11,11,0,0,0,4.84-2.32c3.72-3.29,4.85-8.3,5.32-13.11"/><path class="cls-3" d="M48.5,59.49l-.31-.13c-5.15-2-10,2.39-12,6.93-2.11,4.77-1.3,11.37,2.72,15,2.55,2.28,7,3.78,8.61-.19,1.47-3.65,1.11-8.38,2.56-12.25a16.36,16.36,0,0,0,1.3-4.51,4.71,4.71,0,0,0-2.91-4.81"/><path class="cls-3" d="M136.93,59.49l.31-.13c5.15-2,10,2.39,12,6.93,2.11,4.77,1.3,11.37-2.71,15-2.55,2.28-7,3.78-8.61-.19-1.47-3.65-1.11-8.38-2.56-12.25A16.33,16.33,0,0,1,134,64.3a4.71,4.71,0,0,1,2.91-4.81"/><path class="cls-3" d="M91.68,115.59a49.63,49.63,0,0,0,20.16-4.53,28.91,28.91,0,0,0,5.7-3.43c10.06-7.75,16.66-23.56,9.71-35.37-3.81-6.49-10.77-10.87-18.46-9.94-5.27.64-10.11,3.05-15.13,4.58-5.33,1.62-10.32.16-15.5-1.4A32.28,32.28,0,0,0,71.39,64c-8.07-.62-16.16,4.83-18.83,12.47a22.38,22.38,0,0,0-1.19,7A26.92,26.92,0,0,0,57,100.38a36.57,36.57,0,0,0,15,11.86,54.79,54.79,0,0,0,19.59,3.36"/><path class="cls-2" d="M92.1,111q-1,0-1.92-.09c-4.62-.42-10.18-2.88-11.92-8.52a.78.78,0,1,1,1.48-.46c1.51,4.91,6.45,7.06,10.57,7.43,5.25.48,11.47-1.06,13.16-6.8A.77.77,0,0,1,105,103c-1.75,5.92-7.49,8-12.86,8"/><path class="cls-2" d="M76.77,100.79a2.78,2.78,0,0,1,1.31-.49c1.28-.22,3-.26,2.26,1.63-1,2.65-5.08.12-3.57-1.13"/><path class="cls-2" d="M106.16,100.84a2.8,2.8,0,0,0-1.32-.45c-1.29-.18-3-.17-2.21,1.7,1.08,2.62,5.08,0,3.53-1.24"/><path class="cls-2" d="M93,94.15c-2.11.07-4.37,1.24-4.93,2.9-.44,1.29.51,2.69,1.7,3.35,2.69,1.47,8.79-.8,6.79-4.54A3.68,3.68,0,0,0,93,94.15"/><path class="cls-4" d="M69.56,93.51a8.89,8.89,0,0,0,4.53-.28c7-2.41,6.43-14.09-.08-16.84a5,5,0,0,0-1-.32,7.48,7.48,0,0,0-7.61,2.51C63,81.38,61,86,63.14,89.46a8.29,8.29,0,0,0,3,2.76,10.88,10.88,0,0,0,3.47,1.3"/><path d="M76.2,80.45a6.77,6.77,0,0,0-5.83-2.37,6.16,6.16,0,0,0-4.48,3c-1.77,3-1.68,7.68,1.51,9.69a7.18,7.18,0,0,0,8-.17c2.89-2.22,3.28-7.39.85-10.14"/><path class="cls-4" d="M76.7,81.06A2.72,2.72,0,1,1,74,78.34a2.72,2.72,0,0,1,2.72,2.72"/><path class="cls-4" d="M110.93,92.79a8.93,8.93,0,0,1-4.53-.28c-7-2.41-6.43-14.09.08-16.84a5,5,0,0,1,1-.32,7.49,7.49,0,0,1,7.62,2.52c2.34,2.79,4.32,7.41,2.22,10.87a8.31,8.31,0,0,1-3,2.76,11,11,0,0,1-3.46,1.3"/><path d="M104.1,79.73a7.16,7.16,0,0,1,6.06-2.37,6.42,6.42,0,0,1,4.65,3c1.84,3,1.74,7.68-1.57,9.69a7.7,7.7,0,0,1-8.26-.17c-3-2.22-3.41-7.39-.88-10.13"/><path class="cls-4" d="M115,80.57a2.72,2.72,0,1,1-2.72-2.72A2.72,2.72,0,0,1,115,80.57"/></svg>