<svg id="Layer_1" data-name="Layer 1" xmlns="http://www.w3.org/2000/svg" width="7.06cm" height="7.06cm" viewBox="0 0 200 200"><defs><style>.cls-1{fill:none;stroke:#ef6d48;stroke-linecap:round;stroke-miterlimit:10;stroke-width:5.59px;}.cls-2{fill:#f5ddc3;}.cls-3{fill:#9d5945;}.cls-4{fill:#ef6d48;}.cls-5{fill:#fff;}.cls-6{fill:#231f20;}</style></defs><title>monkey4-3</title><path class="cls-1" d="M93.27,106.07C80.33,83.94,110.84,70.56,108.78,53.3a25.47,25.47,0,0,0-5-12.79c-2.87-3.63-7.61-6.08-12.14-5.14-3.19.66-5.81,1.34-7.58,4.07a13.42,13.42,0,0,0-1.72,9.39c.5,3.1,3.5,9.37,6.62,9,2.48-.28,3.31-5.86,3.15-8.35s-1.65-4.69-3.26-6.6a17.69,17.69,0,0,0-6.35-5.12,8.49,8.49,0,0,0-7.89.38C72.08,39.85,71,43,70.35,45.93a26.92,26.92,0,0,0-.5,11.73,8.38,8.38,0,0,0,1.93,4A4.18,4.18,0,0,0,75.9,63c1.83-.57,2.81-2.72,2.59-4.62a9.34,9.34,0,0,0-2.65-5A24.66,24.66,0,0,0,47.36,48"/><path class="cls-2" d="M160,47.77a128.16,128.16,0,0,0-18.79-4.62,53.27,53.27,0,0,0,3.52-15.52,4.66,4.66,0,1,0-9.3-.67,44,44,0,0,1-3.81,14.94,133.15,133.15,0,0,0-34.3,1.27C74.35,47,55.15,58.09,39,68.15a4.66,4.66,0,1,0,4.92,7.92c19.7-12.24,35.78-20.48,55-23.71a122.47,122.47,0,0,1,58.22,4.26A4.66,4.66,0,1,0,160,47.77"/><path class="cls-3" d="M135.29,51c-1,4.63-2.11,17.2,12.5,20.87a1.87,1.87,0,0,0,2.29-1.41c1.07-4.86,2.48-18-12.61-20.92A1.87,1.87,0,0,0,135.29,51"/><path class="cls-3" d="M54.07,65c-1,4.64-2.11,17.21,12.5,20.87a1.88,1.88,0,0,0,2.29-1.41c1.07-4.85,2.48-18-12.61-20.92A1.87,1.87,0,0,0,54.07,65"/><path class="cls-3" d="M121.24,13.45c-1,4.64-2.11,17.2,12.5,20.87A1.87,1.87,0,0,0,136,32.91c1.06-4.86,2.48-18-12.61-20.92a1.87,1.87,0,0,0-2.19,1.46"/><path class="cls-3" d="M140.14,46.07c4.73,0,17.27-1.48,17.85-16.54a1.87,1.87,0,0,0-1.86-2c-5,0-18.15,1.29-17.87,16.65a1.87,1.87,0,0,0,1.88,1.84"/><path class="cls-1" d="M71.78,61.71A4.18,4.18,0,0,0,75.9,63"/><path class="cls-1" d="M74.6,38.17C72.08,39.85,71,43,70.35,45.93a26.92,26.92,0,0,0-.5,11.73,8.38,8.38,0,0,0,1.93,4"/><path class="cls-1" d="M91.63,35.37c-3.19.66-5.81,1.34-7.58,4.08s-2,4.73-2.06,8c0,1.27,1.75,7.44,5.08,9.56"/><path class="cls-4" d="M84.34,129.93c-2.24.52-4,1.84-5.91,3a5,5,0,0,1-2.67,1c-1.68-.07-2.87-1.92-2.71-3.58a6.39,6.39,0,0,1,2.6-4.15c4.57-3.71,13.16-3.82,18.24-1.07a5,5,0,0,1,2.25,2.05c1.23,2.5-1.31,3.35-3.26,3a20.66,20.66,0,0,0-8.55-.22"/><path class="cls-4" d="M116,114.48c1.79-1.45,3.89-2,6-2.8a5,5,0,0,0,2.41-1.5c1-1.36.25-3.44-1.16-4.34a6.4,6.4,0,0,0-4.87-.5c-5.73,1.32-11.1,8-12.06,13.73a5,5,0,0,0,.23,3c1.22,2.51,3.45,1,4.35-.74a20.67,20.67,0,0,1,5.08-6.88"/><path class="cls-4" d="M113.36,126.54a24,24,0,0,0,.47-8.17,33.34,33.34,0,0,0-1.24-5.77c-1.87-6.24-6-10.78-12.9-10.82a20.37,20.37,0,0,0-16.18,8.72,12.87,12.87,0,0,0-2.41,8,18.58,18.58,0,0,0,2.35,7.23,20.58,20.58,0,0,0,6.66,8.09,21.19,21.19,0,0,0,14.54,3.74c4.86-.5,7.7-6.73,8.71-11"/><path class="cls-4" d="M85.24,118.22c-2.63.82-6.81-1.58-9-2.59a8.17,8.17,0,0,1-2.31-1.41,3,3,0,0,1-1-2.42,2.94,2.94,0,0,1,1.73-2.2,6.58,6.58,0,0,1,2.86-.51c2.39,0,5,.56,6.53,2.35a10.91,10.91,0,0,1,1.72,3.13c.26.64,1,2.84.2,3.32a3.09,3.09,0,0,1-.69.32"/><path class="cls-2" d="M94.06,107.68a14.22,14.22,0,0,0-5.18,3.17,9,9,0,0,0-2.21,5.79,13.76,13.76,0,0,0,1.4,6.11,18.8,18.8,0,0,0,3.25,4.84,8.61,8.61,0,0,0,3.77,2.59,9.28,9.28,0,0,0,4.91-.24c3.34-.89,6.77-2.65,8.17-5.81a12,12,0,0,0,.73-5.61c-.23-3.77-1.54-9.57-5.54-11.11a12.53,12.53,0,0,0-9.3.27"/><path class="cls-4" d="M84.86,167c.09.7.16,1.39.22,2.07a10.07,10.07,0,0,1-4.46,9.46,10.78,10.78,0,0,1-1.49.84,16.45,16.45,0,0,1-6.71,1.82,13.44,13.44,0,0,1-10.27-4.54c-5.24-6-5.78-15,3.55-18.89a18.91,18.91,0,0,1,10.19-1.09,11.11,11.11,0,0,1,4.25,1.53c3.28,2.19,4.29,5.55,4.72,8.79"/><path class="cls-2" d="M73.58,176.79l-.27.09c-4.5,1.37-8.74-1.55-10.52-4.59a7.61,7.61,0,0,1,2.31-10.08c2.22-1.55,6.12-2.59,7.54.07,1.31,2.45,1,5.63,2.3,8.23a9.22,9.22,0,0,1,1.16,3c.14,1.46-.81,2.66-2.53,3.25"/><path class="cls-4" d="M99.68,187.94a30.81,30.81,0,0,0,7.56-.33c4.73-.8,9.21-2.66,13.83-3.93,4.3-1.19,8.92-1.86,13.19-.69a.45.45,0,0,0,.52-.64,10.37,10.37,0,0,0-2.88-3.34.45.45,0,0,1,.23-.81,12.17,12.17,0,0,0,7.3-3.25.45.45,0,0,0-.32-.77,6.17,6.17,0,0,1-3.42-1.15c1.49,1.07,8.35-7.74,9.16-9a31.4,31.4,0,0,0,5-14.88c.61-7.56-1.73-15.36-7.31-20.67S129,121,121.26,121.26c-10.74.32-23.51,4.52-31.64,11.7-9.55,8.43-17.26,22.6-14.54,35.66,2.43,11.65,13.36,18.46,24.6,19.33"/><path class="cls-4" d="M138.73,141.81c.48.52,1,1,1.45,1.5A10.07,10.07,0,0,0,150.3,146a11.13,11.13,0,0,0,1.6-.61,16.46,16.46,0,0,0,5.7-4,13.44,13.44,0,0,0,3.11-10.79c-1.28-7.9-7.82-14.07-16.77-9.39a18.93,18.93,0,0,0-7.38,7.12,11.14,11.14,0,0,0-1.55,4.24c-.42,3.92,1.51,6.85,3.71,9.26"/><path class="cls-2" d="M153.49,139.45l.24-.15c3.94-2.58,4.42-7.7,3.23-11a7.61,7.61,0,0,0-9.21-4.7c-2.61.71-5.91,3-4.78,5.83,1,2.57,3.67,4.39,4.83,7a9.2,9.2,0,0,0,1.58,2.83c1,1,2.56,1.08,4.12.15"/><path class="cls-2" d="M100.7,130.62a43.49,43.49,0,0,0-14.32,11.07,25.38,25.38,0,0,0-3.25,4.84c-3.63,7-4.34,16-1.23,23.36,1.7,4,5.11,6.86,9.41,7.13,5.18.32,8.37-2.31,12.33-5.31,5.13-3.89,10.2-8,16.13-10.63a72,72,0,0,1,8.75-3c3.77-1.11,8.08-1.7,11.1-4.37,8.63-7.65,2.85-19.49-5.79-23.87A32,32,0,0,0,117.49,126a48,48,0,0,0-16.79,4.6"/><path class="cls-4" d="M102.58,135.51c.52-.24,1-.46,1.57-.65,5.91-2.14,10.48-.17,12.8,2.39a.85.85,0,0,1-1.26,1.14c-3-3.28-7.61-3.15-11-1.94-4.28,1.55-8.58,5-7.81,10.1a.85.85,0,0,1-1.68.25c-.82-5.44,3-9.27,7.34-11.29"/><path class="cls-4" d="M118.6,138.07a2.43,2.43,0,0,1-.85.88c-.94.65-2.26,1.31-2.4-.45-.19-2.48,4-2,3.25-.43"/><path class="cls-4" d="M95.26,148.93a2.46,2.46,0,0,0,1.22-.13c1.09-.34,2.43-1,1.12-2.17-1.83-1.68-4,1.92-2.34,2.3"/><path class="cls-5" d="M126.59,140.68a6.8,6.8,0,0,0-3,1.66c-4.09,3.95.1,11.83,5.5,11.62a3.86,3.86,0,0,0,.81-.11,5.71,5.71,0,0,0,4.45-4.2c.72-2.69.59-6.52-2-8.24a6.29,6.29,0,0,0-2.94-1,8.31,8.31,0,0,0-2.82.22"/><path class="cls-6" d="M126.22,151.86a5.17,5.17,0,0,0,4.8-.24,4.71,4.71,0,0,0,2.13-3.52c.25-2.65-1.32-5.86-4.18-6.21a5.49,5.49,0,0,0-5.45,2.69,5.69,5.69,0,0,0,2.69,7.29"/><path class="cls-5" d="M125.68,151.61a2.08,2.08,0,1,1,2.76,1,2.08,2.08,0,0,1-2.76-1"/><path class="cls-5" d="M90.58,157.51a6.83,6.83,0,0,1,3.22-1.27c5.65-.61,9,7.67,5.39,11.68a3.79,3.79,0,0,1-.6.55,5.72,5.72,0,0,1-6.08.72c-2.52-1.17-5.38-3.73-5.05-6.8a6.31,6.31,0,0,1,1.15-2.86,8.25,8.25,0,0,1,2-2"/><path class="cls-6" d="M99.52,164.34a5.47,5.47,0,0,1-3.42,3.6,4.91,4.91,0,0,1-4.18-.56c-2.25-1.49-3.69-4.75-2-7.21a5.88,5.88,0,0,1,5.77-2.56,5.54,5.54,0,0,1,3.89,6.72"/><path class="cls-5" d="M91.72,167.27a2.08,2.08,0,1,1,2.76,1,2.07,2.07,0,0,1-2.76-1"/><path class="cls-4" d="M108.16,149.37c1.64-.84,3-2.6,2.83-4.13a2.65,2.65,0,0,0-2.6-2c-2.68-.17-6.68,3.9-3.71,6.12a3.23,3.23,0,0,0,3.47,0"/><path class="cls-4" d="M106.36,107.91c2.27-1.57,2.94-6.33,3.51-8.7a8.15,8.15,0,0,0,.31-2.69,3,3,0,0,0-1.28-2.29,2.94,2.94,0,0,0-2.8,0,6.59,6.59,0,0,0-2.16,1.94c-1.47,1.88-2.61,4.25-2.16,6.6a10.93,10.93,0,0,0,1.41,3.28c.34.6,1.66,2.5,2.5,2.2a2.94,2.94,0,0,0,.68-.35"/></svg>