<svg id="Layer_1" data-name="Layer 1" xmlns="http://www.w3.org/2000/svg" width="7.06cm" height="7.06cm" viewBox="0 0 200 200"><defs><style>.cls-1{fill:#60e8ef;}.cls-2{fill:none;stroke:#fff;stroke-linecap:round;stroke-miterlimit:10;stroke-width:6.1px;}</style></defs><title>moon-2</title><path class="cls-1" d="M117.2,130.32c-2.92-1.95-5.83-4.13-8.8-6.5-2.2-1.74-4.17-4.66-3-7.2.57-1.24,1.76-2,2.72-3a9.85,9.85,0,0,0,2.5-9,3,3,0,0,0-.88-1.67c-.93-.74-2.28-.36-3.43-.08-24.59,6-18.82-31.62-13.69-43.44a57.47,57.47,0,0,1,16.54-21.82,4.9,4.9,0,0,0-3.31-8.67,71.11,71.11,0,1,0,55.88,117.85,4.9,4.9,0,0,0-4.62-8c-16.4,3.39-28.26-.62-39.92-8.4"/><path class="cls-2" d="M89.81,130.79A12.65,12.65,0,0,1,76.61,135a12.13,12.13,0,0,1-6.17-4.3"/><path class="cls-2" d="M71.27,126.19a10.87,10.87,0,0,1-5.83,6.63"/><path class="cls-2" d="M65.37,92.18a12.66,12.66,0,0,0-13.83,1,12.15,12.15,0,0,0-4.12,6.3"/></svg>