<svg id="Layer_1" data-name="Layer 1" xmlns="http://www.w3.org/2000/svg" width="7.06cm" height="7.06cm" viewBox="0 0 200 200"><defs><style>.cls-1{fill:#3fa9f5;}.cls-2{fill:#f2b800;}.cls-3{fill:#fff;}.cls-4{fill:#231f20;}</style></defs><title>owl-4</title><path class="cls-1" d="M141.91,119c6.3,15.19,13,22.14,16.43,24.93,1.38,1.13,3,.95,3.73-.41,2.59-4.53,7.37-16.26.43-33-9-21.76-26.1-23.6-26.1-23.6s-3.52,10.32,5.51,32.08"/><path class="cls-1" d="M81.81,179c1.19-1.37,1.83-4.31,2-5.64.78-4.89,1.16-9.85,1.44-14.78.12-2.08-.09-4.58-1.47-6.26-3-3.62-4.21,2.61-4.54,4.72-.65,4.23-.7,8.47-1.15,12.71-.28,2.62-1.47,6.86.57,9,1.31,1.36,2.33,1.15,3.11.24"/><path class="cls-1" d="M73.74,176.08c.48-.2.87-.38,1.09-.48,1.58-.67,6.82-1.76,6.86-4,.05-3.23-5.38-.93-6.66-.39s-6,2.79-6.19,4.4c-.28,2.31,3,1.22,4.89.46"/><path class="cls-1" d="M87.76,177.41c-.45-.27-.81-.51-1-.63-1.46-.91-6.47-2.78-6.17-5,.44-3.19,5.46-.1,6.63.63s5.51,3.67,5.45,5.29c-.08,2.33-3.15.76-4.9-.29"/><path class="cls-1" d="M110.18,177.07c.88-1.59.89-4.59.82-5.94a147.45,147.45,0,0,0-1.68-14.76c-.31-2-1-4.47-2.73-5.81-3.69-2.92-3.59,3.44-3.46,5.57.25,4.27,1.08,8.43,1.52,12.67.27,2.62,0,7,2.43,8.68,1.56,1.06,2.52.63,3.09-.41"/><path class="cls-1" d="M101.66,175.86c.43-.29.77-.55,1-.69,1.41-1,6.3-3.15,5.87-5.34-.61-3.17-5.45.2-6.58,1s-5.28,4-5.14,5.58c.21,2.32,3.2.58,4.89-.57"/><path class="cls-1" d="M115.65,174.24c-.5-.17-.9-.32-1.12-.4-1.62-.59-6.91-1.38-7.07-3.6-.25-3.22,5.31-1.24,6.61-.76s6.15,2.44,6.43,4c.4,2.29-2.94,1.39-4.86.73"/><path class="cls-2" d="M137.24,64.22c.46,1.58.82,3.12,1.13,4.22A107.29,107.29,0,0,1,140.7,81.1c3.69,24.54,10,56.91-15.76,72.42-9.58,5.78-20.84,6.92-31.73,7.16s-22.33-2-31.06-9.11c-12.3-10-21.25-31.15-15.86-46.68,1.32-3.81,3.18-7.42,4.37-11.3,2.15-7,3.65-15.69,2.28-22.84a7.09,7.09,0,0,1-.38-2.44c.17-1.46,20.55-3.88,22.79-4.32,3.15-.62,5.91-2.13,9.16-2.29s6.71.61,10,1.13c4.5.72,8.85,2.56,13.42,2.62,3.45,0,7.29-.09,10.39-1.79,3.79-2.08,11.17-10.39,16-5.68,1.28,1.25,2.21,3.8,2.91,6.23"/><path class="cls-1" d="M71.68,107.41c3.28,18.7,8.81,38.41,29,35.9,17.53-2.18,20.46-32.27,19-43.74s-51.32-11-48,7.84"/><path class="cls-2" d="M136.73,62.58c-2.41-7.14-4.66-14.34-7-21.5-1.94-5.94-4.6-23.79-14.56-20.42-3.59,1.21-5.17,6.21-3.82,11.5a6.25,6.25,0,0,1-2.55,2.58,9.55,9.55,0,0,1-2,.69c-2.81.67-5.82.25-8.7.53A60.47,60.47,0,0,0,84,39.19a54.4,54.4,0,0,0-14,7c-3,2.2-5.82,4.93-9.68,3.22-2.08-5.26-6.51-8.47-10.19-7.22-9.45,3.21-1.83,17.93.11,23.88q3.65,11.22,7.3,22.44c13.85,40.85,94.33,18.75,79.19-25.89"/><path class="cls-1" d="M106,45.59a17.54,17.54,0,0,0-11.25,9.12,6.1,6.1,0,0,1-8.21,2.73A17.39,17.39,0,0,0,71.84,57C63.6,60.52,59.2,70.27,61.61,79.66c2.87,11.23,13.9,17.72,23.91,14.4,7-2.34,12.17-7.13,12.81-14.52,4.85,5.57,11.81,6.36,18.84,4C126.95,80.32,132,69,128.23,58.4c-3.41-9.54-13.1-15.14-22.19-12.8"/><path class="cls-3" d="M67.75,75.71c-.37,4.23.61,8.87,3.81,11.5,6.47,5.31,18.68,1.43,20.69-7.94,1.67-7.75-2.5-15.38-10.69-15.39a13.88,13.88,0,0,0-12.62,7.59,12.17,12.17,0,0,0-1.19,4.24"/><path class="cls-3" d="M99.78,68c.87,4.15,3.14,8.3,7,9.89,7.74,3.22,18.29-4,17.5-13.58-.63-7.91-6.85-14-14.67-11.64a13.89,13.89,0,0,0-9.9,10.91,12.13,12.13,0,0,0,.1,4.42"/><path class="cls-4" d="M93.3,90.51a4.44,4.44,0,0,0,2.5,1.57c5.07,1.37,12.36-1.15,12.69-5,0,0,1.7,8-3.58,9.71s-12.84-2.4-11.61-6.27"/><path class="cls-4" d="M94.3,91.8l7.37.82s8.93-2.82,6.63-6.55-8.17-9-8.17-9-1.85-1.63-2.68.5l-3.83,12.1s-1.29,2.57.67,2.14"/><path class="cls-2" d="M101.59,94.28c-2.54,0-5.74-1.13-9.86-3.44l.7-1.24c5,2.83,8.63,3.8,11,3s3.67-3.52,5.16-7.21l1.32.54c-1.63,4-3,7-6,8A7,7,0,0,1,101.59,94.28Z"/><path class="cls-4" d="M110.89,83.53a3.11,3.11,0,0,0-1.55,0c-1.41.29-3.17,1-1.65,2.61,2.13,2.31,5.27-2,3.2-2.64"/><path class="cls-4" d="M90.36,89.38a3.11,3.11,0,0,1,1.18-1c1.25-.72,3-1.4,3,.83,0,3.15-5.25,2.06-4.15.18"/><path class="cls-4" d="M107.27,64.94a7.6,7.6,0,0,0,4.81,3.81c3.82.94,8.67-1.49,9.53-5a6.05,6.05,0,0,0,.16-1.67,9.08,9.08,0,0,0-2-5.5c-3.32-4-9.25-3-12,.22-1.86,2.16-1.88,5.52-.43,8.16"/><path class="cls-3" d="M114.23,64.45a2.33,2.33,0,0,1-2.68,2.22,2.85,2.85,0,0,1-2.61-2.73,2.34,2.34,0,0,1,2.68-2.23,2.85,2.85,0,0,1,2.61,2.73"/><path class="cls-4" d="M75.7,76.11a7.6,7.6,0,0,0,4.81,3.81c3.82.94,8.67-1.49,9.53-5a6.09,6.09,0,0,0,.16-1.67,9.05,9.05,0,0,0-2-5.5c-3.32-4-9.25-3-12,.22-1.86,2.16-1.88,5.53-.43,8.16"/><path class="cls-3" d="M82.67,75.63A2.33,2.33,0,0,1,80,77.84a2.85,2.85,0,0,1-2.61-2.73,2.34,2.34,0,0,1,2.68-2.23,2.85,2.85,0,0,1,2.61,2.73"/><path class="cls-1" d="M56.25,123.67c-1.18,16.41-5.33,25.11-7.72,28.85-1,1.5-2.52,1.83-3.67.79C41,149.83,32.73,140.2,34,122.12c1.69-23.5,17.31-30.63,17.31-30.63s6.59,8.68,4.9,32.18"/></svg>