<svg id="Layer_1" data-name="Layer 1" xmlns="http://www.w3.org/2000/svg" width="7.06cm" height="7.06cm" viewBox="0 0 200 200"><defs><style>.cls-1{fill:#ffa4b4;}.cls-2{fill:#8dbf68;}.cls-3{fill:#eaeff1;}.cls-4{fill:#4c261e;}.cls-5,.cls-6{fill:none;stroke-miterlimit:10;}.cls-5{stroke:#edc3c4;stroke-width:1.34px;}.cls-6{stroke:#fff;stroke-linecap:round;stroke-width:1.94px;}</style></defs><title>owls-2</title><path class="cls-1" d="M158.58,112.39c.59,15.43,4.21,23.71,6.33,27.31.84,1.43,2.31,1.79,3.42.85,3.74-3.14,11.77-11.91,11.13-28.9-.84-22.08-15.26-29.27-15.26-29.27s-6.46,7.93-5.62,30"/><path class="cls-1" d="M112,170.44c1-1.38,1.34-4.17,1.43-5.45.3-4.63.24-9.29.09-13.93-.06-2-.48-4.27-1.91-5.72-3.11-3.13-3.71,2.8-3.84,4.8-.25,4,.07,8,0,12,0,2.47-.79,6.53,1.31,8.36,1.33,1.16,2.27.87,2.93,0"/><path class="cls-1" d="M104.19,168.37c.44-.22.79-.43,1-.53,1.42-.78,6.23-2.23,6.07-4.32-.22-3-5.1-.42-6.25.2s-5.36,3.12-5.41,4.63c-.05,2.19,2.91.9,4.61,0"/><path class="cls-1" d="M117.4,168.43l-1-.5c-1.44-.74-6.28-2.05-6.19-4.15.14-3,5.08-.56,6.25,0s5.45,3,5.53,4.48c.13,2.17-2.88,1-4.6.14"/><path class="cls-1" d="M136,170.41c1-1.4,1.27-4.2,1.32-5.46.22-4.63.07-9.3-.17-13.93-.1-2-.55-4.27-2-5.69-3.16-3.07-3.67,2.88-3.75,4.87-.17,4,.21,8,.22,12,0,2.47-.68,6.54,1.45,8.33,1.35,1.14,2.29.83,2.93-.1"/><path class="cls-1" d="M128.14,168.48l1-.55c1.41-.8,6.18-2.34,6-4.43-.27-3-5.11-.33-6.24.32s-5.31,3.22-5.33,4.73c0,2.18,2.93.84,4.61-.07"/><path class="cls-1" d="M141.35,168.29c-.44-.2-.81-.39-1-.48-1.45-.71-6.32-1.94-6.26-4,.08-3,5.07-.66,6.24-.09s5.51,2.87,5.62,4.38c.16,2.17-2.87,1-4.61.22"/><path class="cls-1" d="M60.3,94.28c-15.38-1.25-23.5-5.22-27-7.5-1.4-.91-1.7-2.37-.71-3.45,3.3-3.6,12.4-11.26,29.35-9.87C84,75.24,90.53,90,90.53,90s-8.2,6.1-30.23,4.31"/><path class="cls-2" d="M146.06,62.12l1.71.13c2.64.23,5.35.7,8,1.14,1.54.27,4.73.41,5.62,1.75,1.45,2.18.64,5.21,1,7.63.39,2.6,1,5.36,1.69,8,2,8.2,4,16.06,5.2,24.41a51.6,51.6,0,0,1-3.66,27.28c-8.07,19.07-26.55,20.86-44.83,20.65-10.38-.11-21-2.63-28.94-9.6-9.14-8-14.14-20.78-14.3-32.69,0-2.88.32-5.71.47-8.58a62.21,62.21,0,0,1,2-12c1.22-4.73,3-9.39,3.86-14.18.34-1.94-.35-4.4,1.11-5.83,3.16-3.09,11.12-3.22,15.13-3.88,15-2.49,30.69-5.19,45.94-4.17"/><path class="cls-1" d="M99.7,100.38c.88,17.79,6.94,37,26,37,16.59,0,19.6-27.87,19.6-38.7s-46.5-16.18-45.61,1.73"/><path class="cls-2" d="M162.08,72.26c-.24-7.07-.3-14.14-.46-21.21-.13-5.85,2.33-22.61-7.54-22.29-3.55.11-6.34,4.18-6.55,9.29a5.84,5.84,0,0,1-3,1.62,9.4,9.4,0,0,1-2,.08c-2.71-.16-5.3-1.37-8-1.89A56.78,56.78,0,0,0,121.08,37,51.3,51.3,0,0,0,106.6,39.4c-3.33,1.15-6.56,2.86-9.57.27-.43-5.29-3.55-9.37-7.19-9.25-9.35.31-6.51,15.61-6.39,21.48q.24,11,.48,22.13c1.36,40.45,79.62,42.41,78.15-1.78"/><path class="cls-1" d="M139.13,48.68a16.47,16.47,0,0,0-12.58,5.14,5.73,5.73,0,0,1-8.11.22,16.28,16.28,0,0,0-13.12-4.42c-8.36,1-15,8.53-15.34,17.6-.46,10.87,7.68,19.69,17.58,19.43,6.94-.19,12.85-3.1,15.43-9.57,2.85,6.31,8.89,8.91,15.83,8.72,9.67-.27,17.29-9.09,16.77-19.6-.47-9.49-7.66-17.16-16.46-17.52"/><path class="cls-3" d="M96.56,65.34c-1.48,3.7-1.85,8.12.3,11.35,4.37,6.52,16.38,6.35,20.73-1.51,3.61-6.52,1.92-14.5-5.42-16.72a13,13,0,0,0-13.4,3.39,11.6,11.6,0,0,0-2.22,3.5"/><path class="cls-4" d="M110.22,70.21a7.1,7.1,0,0,0-3.74-4.38c-3.33-1.57-8.23-.22-9.69,2.86a5.36,5.36,0,0,0-.45,1.51,8.47,8.47,0,0,0,.86,5.43c2.32,4.24,7.94,4.5,11.12,2a6.85,6.85,0,0,0,1.89-7.43"/><path class="cls-3" d="M103.72,69.39a2.19,2.19,0,0,1,2.87-1.55,2.66,2.66,0,0,1,1.89,3,2.18,2.18,0,0,1-2.87,1.56,2.68,2.68,0,0,1-1.9-3"/><path class="cls-3" d="M127.43,67.08c-.35,4,.57,8.31,3.57,10.78,6.07,5,17.52,1.33,19.4-7.45C152,63.14,148.05,56,140.38,56a13,13,0,0,0-11.84,7.11,11.46,11.46,0,0,0-1.11,4"/><path class="cls-3" d="M131,86.13a4.16,4.16,0,0,1-1.83,2.07c-4.2,2.56-11.44,2.21-12.75-1.18,0,0,.56,7.62,5.77,7.8s10.94-5.53,8.81-8.7"/><path class="cls-3" d="M130.49,87.55l-6.43,2.68s-8.79-.19-7.69-4.16,5-10.27,5-10.27,1.25-2,2.55-.25l6.62,9.89s1.85,2,0,2.1"/><path class="cls-5" d="M115.4,85.91c4.24,5.38,7.52,9,16.67-.38"/><path class="cls-3" d="M113.17,85.1a3,3,0,0,1,1.23-.78c1.26-.49,3-.89,2.65,1.18-.46,2.91-5.16,1.19-3.87-.4"/><path class="cls-3" d="M133.4,84.34a3,3,0,0,0-1.33-.61c-1.31-.31-3.07-.47-2.45,1.54.84,2.82,5.27.47,3.78-.93"/><path class="cls-4" d="M142.68,69.7a7.13,7.13,0,0,0-3.74-4.38c-3.33-1.57-8.24-.22-9.69,2.86a5.55,5.55,0,0,0-.44,1.51,8.48,8.48,0,0,0,.86,5.43c2.32,4.24,7.95,4.49,11.12,2a6.86,6.86,0,0,0,1.9-7.43"/><path class="cls-3" d="M136.17,68.87A2.19,2.19,0,0,1,139,67.32a2.67,2.67,0,0,1,1.9,3,2.2,2.2,0,0,1-2.87,1.56,2.69,2.69,0,0,1-1.9-3"/><path class="cls-2" d="M54.27,169A8,8,0,0,1,53,165.6c-.47-2.94-.7-5.91-.87-8.87A5.54,5.54,0,0,1,53,153c1.8-2.17,2.53,1.57,2.73,2.84.4,2.54.43,5.09.71,7.63.17,1.57.89,4.11-.34,5.4-.78.82-1.4.69-1.87.15"/><path class="cls-2" d="M58.33,167l-.57-.43c-.83-.62-3.74-2-3.45-3.28.42-1.9,3.27.2,3.94.69s3.11,2.46,3,3.42c-.16,1.39-1.92.3-2.92-.41"/><path class="cls-2" d="M51.65,167.76l.44-.56c.63-.82,3.06-2.92,2.43-4.1-.91-1.71-3.09,1.08-3.6,1.74s-2.33,3.22-2,4.11c.53,1.29,1.94-.23,2.7-1.19"/><path class="cls-2" d="M40,168.81a8,8,0,0,1-.64-3.54,88.72,88.72,0,0,1,.62-8.89,5.54,5.54,0,0,1,1.49-3.56c2.13-1.84,2.23,2,2.22,3.26,0,2.57-.43,5.08-.59,7.64-.1,1.57.19,4.2-1.24,5.27-.91.67-1.5.44-1.87-.17"/><path class="cls-2" d="M44.32,167.58c-.22-.22-.39-.41-.49-.52-.71-.75-3.35-2.57-2.85-3.81.73-1.8,3.19.74,3.77,1.35s2.66,2.95,2.39,3.88c-.39,1.34-1.95,0-2.81-.9"/><path class="cls-2" d="M37.62,167.17l.52-.48c.76-.7,3.51-2.36,3.09-3.64-.62-1.84-3.23.55-3.84,1.11s-2.84,2.78-2.63,3.73c.3,1.36,1.95.1,2.86-.72"/><path class="cls-2" d="M62.74,138c-.94,8.35.32,13.1,1.18,15.21a1.2,1.2,0,0,0,1.77.74C68,152.55,73,148.48,74,139.28c1.35-12-5.82-17-5.82-17S64.08,126,62.74,138"/><path class="cls-2" d="M20.94,139.51c1.81,9.08,7.18,12.73,9.56,13.92a1.18,1.18,0,0,0,1.7-.87c.68-2.17,1.53-7-.1-15.24C29.76,125.52,26.44,122,26.44,122s-7.84,5.74-5.49,17.54"/><path class="cls-1" d="M36.22,104.35a34.35,34.35,0,0,0,4.3-1.17,30.85,30.85,0,0,1,7.35-.75,27.61,27.61,0,0,1,7.92,1.08c1.93.58,3.82,1.53,5.47-.28l.13-.15c2.62-2.86,7.15-.85,7.19,3.17l.19,20.93c0,26.67-9.3,32-20.93,32.08-11.82.13-21.63-2.95-21.63-31.62L26,106.4c0-3,2.82-5.3,5.51-4.31,1.39.51,2.12,2.06,3.62,2.25a5.85,5.85,0,0,0,1.07,0"/><path class="cls-2" d="M38.2,109.24a9,9,0,0,1,6.93,2.59,3.1,3.1,0,0,0,4.41,0,8.93,8.93,0,0,1,7.06-2.63c4.57.39,8.28,4.4,8.64,9.34.43,5.9-3.85,10.83-9.24,10.86-3.78,0-7-1.47-8.56-5-1.45,3.49-4.69,5-8.47,5-5.27,0-9.56-4.66-9.45-10.39.09-5.17,3.88-9.46,8.66-9.81"/><path class="cls-3" d="M48.18,131.83,51,126.6s.88-1.8-1.33-2.15a18.73,18.73,0,0,0-5.24.21s-1.24.18-.7,1.21l3.4,5.52s.56,1.37,1,.45"/><path class="cls-6" d="M52.88,119.93a4.05,4.05,0,0,0,4.19,1.4A3.86,3.86,0,0,0,59,120"/><path class="cls-6" d="M34.81,119.93a4.05,4.05,0,0,0,4.19,1.4A3.89,3.89,0,0,0,41,120"/></svg>