<svg id="Layer_1" data-name="Layer 1" xmlns="http://www.w3.org/2000/svg" width="7.06cm" height="7.06cm" viewBox="0 0 200 200"><defs><style>.cls-1,.cls-6{fill:none;stroke-linecap:round;stroke-linejoin:round;stroke-width:3.24px;}.cls-1{stroke:#dbeffd;}.cls-2{fill:#9ed64d;}.cls-3{fill:#a7090f;}.cls-4{fill:#fff;}.cls-5{fill:#231f20;}.cls-6{stroke:#fff;}</style></defs><title>parrot-1</title><path class="cls-1" d="M80.17,133.62s-9,11.62-11.92,14.81c0,0,3.49,5.89,3,9.49"/><path class="cls-1" d="M68.25,148.44a40.35,40.35,0,0,1-3.73,7.41"/><path class="cls-1" d="M87.54,135.24s-6,13.45-8,17.24c0,0,4.8,4.86,5.16,8.49"/><path class="cls-1" d="M79.53,152.48a40.58,40.58,0,0,1-1.83,8.09"/><path class="cls-2" d="M31.38,105.16c5.1,1.79,12.78,5.51,18.34,4.41a82.71,82.71,0,0,0-17.4-13.42c-2.89-1.68-13.93-6.75-13.05.6.54,4.5,8.53,7.15,12.11,8.41"/><path class="cls-2" d="M32.06,114.9c5.36-.67,13.89-.76,18.38-4.22a83,83,0,0,0-21.56-4.26c-3.34-.21-15.48.17-11.42,6.37,2.49,3.77,10.83,2.59,14.59,2.12"/><path class="cls-2" d="M37,122.28c4.41-3.12,11.9-7.21,14.23-12.38a82.92,82.92,0,0,0-21,6.38c-3,1.38-13.59,7.43-7.09,11,4,2.17,10.78-2.81,13.88-5"/><path class="cls-3" d="M103.55,67.23c1.09.27,2.17.58,3.22.94,4.52,1.56,9.3,5.1,12.8,8.35,4.21,3.91,8.51,7.46,11.17,12.7.75,1.46-8.93,8.92-10,10.81-2.28,4-2.07,8.92-3.09,13.27-1.77,7.55-4.63,15.6-10.05,21.53-6.08,6.67-14.13,7.86-22.88,7.22-9.33-.68-18.21-4.64-25.59-10.29a32.51,32.51,0,0,1-10.32-14c-4.49-12.53,13.16-13.93,19.52-19.34,2.29-2,4.79-3.67,6.94-5.77a38.55,38.55,0,0,0,8.27-12.07c1.92-4.53,2.31-10.08,6-13.67,3-2.89,5.49-1.39,9.26-.69,1.56.28,3.18.61,4.77,1"/><path class="cls-2" d="M91.14,98.29a26.48,26.48,0,0,1,5.26,7.34c4.2,9.28-6.37,9.42-13,10.07-12.21,1.21-27.33-4.44-31.86-17.22-2.19-6.17,1.14-11.13,7.21-6.82-.68-6.2,2.73-6,7.92-5.41a40,40,0,0,1,15,4.84,42.19,42.19,0,0,1,9.43,7.19"/><path class="cls-3" d="M141.65,68.42c.54,6-.74,11.35-3.1,16.86-2.76,6.41-8.53,11.22-15,13.62-21.63,8-47.66-7.42-39.28-32.85,5.42-16.43,25.66-21.44,41.2-19.49,11.17,1.41,15.22,11.22,16.18,21.86"/><path class="cls-4" d="M115.83,80a13.09,13.09,0,1,0-18.3-2.76A13.11,13.11,0,0,0,115.83,80"/><path class="cls-5" d="M113.07,81.3a8.74,8.74,0,1,0-11-5.66,8.74,8.74,0,0,0,11,5.66"/><path class="cls-4" d="M108.64,71.67a2.17,2.17,0,1,0-3,.71,2.16,2.16,0,0,0,3-.71"/><path class="cls-2" d="M153.73,78.32c-1.13.68-2.22,1.26-3.12,1.77-6.5,3.56-18.3,7-21.91-2.13-1.17-3-3.29-9-1.63-11.51-.27.4,12.41-.18,13.19,0,5.39,1.42,8.93,4.48,15,2.27a19.87,19.87,0,0,0,4.3-2.25,11.59,11.59,0,0,0,2.27-2c1.84-2,1.75,2,1.5,3.17-1.11,5.12-5.42,8.15-9.63,10.66"/><path class="cls-2" d="M154.23,39.38c6.2-.81,13-.46,18.92,3.47a24.13,24.13,0,0,1,8.22,9.93,21.26,21.26,0,0,1,1.78,6,10.14,10.14,0,0,1-.36,5.48c-7-5-13-.93-19.62,2.95a63.37,63.37,0,0,1-17.55,6.67c-5,1.13-10.07,1.79-15-.18-8.49-3.35-3.31-20.11-4.11-26.66,9.32-2.54,18.1-6.35,27.73-7.62"/><path class="cls-5" d="M168.07,64.37c4.82-2.56,9.51-3.93,14.72-.15a10.16,10.16,0,0,0,.36-5.48,21.26,21.26,0,0,0-1.78-6,24.18,24.18,0,0,0-8.22-9.93S164,48,166.89,65Z"/><path class="cls-4" d="M125.38,67.33a3.29,3.29,0,0,0-.92,1.48c-.58,1.52-1,3.59,1.44,3.17,3.5-.59,1.37-6.21-.52-4.65"/><path class="cls-6" d="M164.12,67.5s-28.41,14.57-37.25,2.94"/></svg>