<svg id="Layer_1" data-name="Layer 1" xmlns="http://www.w3.org/2000/svg" width="7.06cm" height="7.06cm" viewBox="0 0 200 200"><defs><style>.cls-1,.cls-8{fill:none;stroke-linecap:round;stroke-linejoin:round;}.cls-1{stroke:#468a16;stroke-width:3.1px;}.cls-2{fill:#5cb6f7;}.cls-3{fill:#ffe33e;}.cls-4{fill:#e03826;}.cls-5{fill:#fff;}.cls-6{fill:#231f20;}.cls-7{fill:#f89d4b;}.cls-8{stroke:#fff;stroke-width:2.87px;}</style></defs><title>parrot3-1</title><path class="cls-1" d="M97.15,130.7s2.75,19.88,3.94,25.8l-10.81,1"/><path class="cls-1" d="M111.52,136.4s3.17,16.09,4.45,20.72c0,0-6.42,4.11-7.71,8"/><path class="cls-1" d="M116,157.12a45.39,45.39,0,0,0,0,9.25"/><path class="cls-1" d="M92.49,162.25s4.66-4.28,8.6-5.44"/><path class="cls-2" d="M156.16,111.51c-3.31,5-7.59,13.53-13.26,16.33a92.48,92.48,0,0,1,6.33-23.67c1.43-3.44,7.78-15.42,12-8.3,2.57,4.35-2.72,12.11-5,15.64"/><path class="cls-2" d="M162.15,120.59c-5.2,3-12.82,8.73-19.15,8.7a92.52,92.52,0,0,1,16.22-18.37c2.82-2.45,13.84-10.33,14.42-2.09.35,5-7.84,9.62-11.49,11.75"/><path class="cls-2" d="M162.77,130.48c-6,.22-15.43,1.66-21-1.33a92.4,92.4,0,0,1,22.95-8.58c3.63-.83,17.07-2.6,13.71,4.94-2.06,4.61-11.45,4.81-15.67,5"/><path class="cls-3" d="M109.06,60.24c-1.24-.2-2.48-.36-3.71-.46-5.31-.41-11.77,1.11-16.78,2.89-6,2.14-12,3.89-17.06,8.06-1.41,1.16,5.21,13.08,5.49,15.5.57,5.08-1.83,10.05-2.7,14.95-1.53,8.5-2.14,18,.77,26.47,3.28,9.51,11,14.28,20.23,17.5,9.85,3.43,20.69,3.3,30.74.79a36.34,36.34,0,0,0,16.74-9.76c10.14-10.84-7.31-20.07-11.43-28.42-1.48-3-3.28-5.87-4.55-9a43,43,0,0,1-3.13-16c0-5.48,2.1-11.34-.11-16.64-1.77-4.28-5-3.85-9.17-4.8-1.73-.4-3.53-.78-5.33-1.07"/><path class="cls-4" d="M120.1,103.2A29.48,29.48,0,0,0,111.47,98c-10.69-3.84-9.9,7.92-10,15.34-.26,13.67,7.38,30,22,33.87,7.06,1.89,12.27-2.26,6.94-8.62,6.95.2,6.37-3.57,5.3-9.29A44.46,44.46,0,0,0,128.92,113a47.07,47.07,0,0,0-8.82-9.83"/><path class="cls-3" d="M64.23,73.79c2.91,5.46,7,9.32,12.16,12.71,6.32,4.17,15.41,4.91,22.83,4.06,8.48-1,18.74-4.56,23.4-12.25,5-8.18,3.89-19.4.28-27.88-1.78-4.18-5.67-8.37-8.93-11.5-6.11-5.86-15.5-5.84-23.35-4.73C81.5,35.51,72.76,40,65.8,45.9c-8.8,7.5-6.74,18.2-1.57,27.89"/><path class="cls-5" d="M82.41,63.12A13.44,13.44,0,1,1,101,67a13.45,13.45,0,0,1-18.59-3.91"/><path class="cls-6" d="M98.32,43.5a9,9,0,1,1-11.75,4.79A9,9,0,0,1,98.32,43.5"/><path class="cls-5" d="M95.74,55a2.23,2.23,0,1,1-3-1,2.23,2.23,0,0,1,3,1"/><path class="cls-7" d="M59.45,89.09c1.35-.06,2.61-.16,3.68-.25,7.59-.61,19.67-4.28,17.61-14.17-.67-3.23-2.23-9.54-5.09-10.8.46.2-10.75,6.84-11.31,7.46C60.5,75.6,59.19,80.21,52.7,81.75a20.5,20.5,0,0,1-5,.49,11.89,11.89,0,0,1-3.08-.44c-2.71-.68-.37,2.71.5,3.57,3.83,3.77,9.24,3.94,14.27,3.72"/><path class="cls-7" d="M37.07,56C31.3,58.74,25.63,62.9,22.79,69.59a24.74,24.74,0,0,0-1.46,13.16,21.59,21.59,0,0,0,1.83,6.12,10.38,10.38,0,0,0,3.39,4.5c3.13-8.25,10.62-8.11,18.5-8.52a64.93,64.93,0,0,0,18.82-4.17c5-1.86,9.64-4.14,12.8-8.62,5.39-7.66-8.5-19.12-11.5-25.19-9.42,3.07-19.11,4.75-28.1,9.09"/><path class="cls-4" d="M39.27,85.2c-5.58.52-10.38,2-12.73,8.18a10.39,10.39,0,0,1-3.39-4.5,21.76,21.76,0,0,1-1.83-6.12,24.78,24.78,0,0,1,1.46-13.16s10.72-.72,17.86,15.5Z"/><path class="cls-5" d="M77.58,63.68a3.43,3.43,0,0,1,1.63.75c1.35,1,2.91,2.49.54,3.53-3.34,1.46-4.67-4.55-2.17-4.28"/><path class="cls-8" d="M44.43,85.66S77,82.15,78.06,67.19"/></svg>