<svg id="Layer_1" data-name="Layer 1" xmlns="http://www.w3.org/2000/svg" width="7.06cm" height="7.06cm" viewBox="0 0 200 200"><defs><style>.cls-1,.cls-6{fill:none;stroke-linecap:round;stroke-linejoin:round;}.cls-1{stroke:#edf3f7;stroke-width:2.75px;}.cls-2{fill:#c19463;}.cls-3{fill:#ffb84f;}.cls-4{fill:#fff;}.cls-5{fill:#231f20;}.cls-6{stroke:#fff;stroke-width:1.5px;}</style></defs><title>parrot4-4</title><path class="cls-1" d="M149.63,113.36s14.53-.84,18.76-1.42c0,0,2.84,6.14,6.07,7.74"/><path class="cls-1" d="M168.4,111.94a40.26,40.26,0,0,0,8.13,1.11"/><path class="cls-1" d="M146.81,120.26s14.31,2.68,18.55,3.14c0,0,1.28,6.65,4,9"/><path class="cls-1" d="M165.37,123.4a40,40,0,0,0,7.62,3"/><path class="cls-2" d="M153.78,57.6c-1.4,5.16-2.67,13.52-6.68,17.44a82,82,0,0,1-1.2-21.72c.25-3.3,2.31-15.15,7.81-10.31,3.37,3,1.05,11,.07,14.59"/><path class="cls-2" d="M161.34,63.62c-3.55,4-8.41,10.9-13.75,12.63a82.13,82.13,0,0,1,8.61-20c1.7-2.84,8.82-12.53,11.59-5.74,1.69,4.15-4,10.28-6.45,13.09"/><path class="cls-2" d="M164.59,71.79c-5,1.85-12.55,5.66-18.08,4.67a82.2,82.2,0,0,1,17-13.58c2.83-1.7,13.69-6.91,12.94.38-.46,4.46-8.33,7.21-11.85,8.52"/><path class="cls-3" d="M82.38,95.19c-.39,1-.74,2.1-1,3.15-1.26,4.56-1.05,10.44-.37,15.11.82,5.63,1.32,11.12,4.09,16.23.77,1.43,12.29-2.29,14.44-2.12,4.52.37,8.44,3.31,12.55,4.92,7.14,2.79,15.31,5,23.19,3.87,8.85-1.22,14.33-7.12,18.72-14.62,4.68-8,6.43-17.45,6-26.63a32.26,32.26,0,0,0-5.63-16.26c-7.7-10.69-18.74,2.92-26.72,5.08-2.88.77-5.68,1.85-8.6,2.42a38.22,38.22,0,0,1-14.48,0c-4.77-1-9.51-3.77-14.51-2.77-4,.81-4.21,3.7-5.76,7.16-.64,1.44-1.28,2.94-1.85,4.46"/><path class="cls-2" d="M114.66,102.48a26.15,26.15,0,0,0,3,8.41c5.21,8.63,11.25.09,15.5-5C141,96.67,144.9,81.16,137,70.3c-3.81-5.25-9.72-5.31-9.61,2.05-4.67-4-6.39-1.11-8.85,3.43a39.52,39.52,0,0,0-4.49,15,41.7,41.7,0,0,0,.58,11.71"/><path class="cls-3" d="M62,126.93c4.59,3.81,9.66,5.76,15.48,6.92,6.78,1.35,13.94-.66,19.52-4.59,18.67-13.14,20.67-43-4.76-50.45-16.44-4.79-31.88,8.91-39,22.67-5.12,9.9.61,18.7,8.75,25.46"/><path class="cls-4" d="M85.93,112.38a13,13,0,1,1,8-16.47,13,13,0,0,1-8,16.47"/><path class="cls-5" d="M90.33,110a8.65,8.65,0,1,1,1.54-12.13A8.65,8.65,0,0,1,90.33,110"/><path class="cls-4" d="M81.92,102.36a2.15,2.15,0,1,1,.19-4.3,2.15,2.15,0,1,1-.19,4.3"/><path class="cls-5" d="M63.29,142.33c1.19-.54,2.27-1.1,3.19-1.56,6.55-3.3,16-11,10.55-19.06-1.78-2.63-5.46-7.7-8.48-7.78.48,0-7.1,10-7.37,10.78-1.86,5.2-1.35,9.79-6.58,13.52a19.64,19.64,0,0,1-4.24,2.24,11.63,11.63,0,0,1-2.91.73c-2.67.37.66,2.55,1.75,3,4.8,2,9.69.15,14.09-1.87"/><path class="cls-5" d="M31.25,120.91c-4.14,4.59-7.68,10.36-7.78,17.37A23.88,23.88,0,0,0,27,150.55a20.9,20.9,0,0,0,3.86,4.8,10,10,0,0,0,4.67,2.78C35.28,149.64,42,147,48.9,143.78a62.56,62.56,0,0,0,15.27-10.57c3.74-3.46,7.1-7.21,8.28-12.36,2-8.8-14.54-14-19.44-18.29-7.29,6.17-15.32,11.2-21.76,18.35"/><path class="cls-2" d="M43.87,146.2c-4.79,2.5-8.54,5.55-8.38,11.93a10,10,0,0,1-4.67-2.78,20.9,20.9,0,0,1-3.86-4.8,23.9,23.9,0,0,1-3.49-12.28s9.31-4.54,21.58,7.33Z"/><path class="cls-4" d="M70.22,113a3.3,3.3,0,0,1,1.73.08c1.56.38,3.51,1.16,1.77,3-2.44,2.52-5.83-2.36-3.5-3"/><path class="cls-6" d="M48.64,144.73s27.81-15,23.28-28.73"/></svg>