<svg id="Layer_1" data-name="Layer 1" xmlns="http://www.w3.org/2000/svg" width="7.06cm" height="7.06cm" viewBox="0 0 200 200"><defs><style>.cls-1{fill:#f678c4;}.cls-2{fill:#9e005d;}.cls-3{fill:#fff;}.cls-4{fill:#231f20;}.cls-5{fill:#ffdb00;}.cls-6{fill:none;stroke:#fff;stroke-linecap:round;stroke-linejoin:round;stroke-width:2.87px;}</style></defs><title>parrot2-1</title><path class="cls-1" d="M90.28,158.29a1.55,1.55,0,0,1-.14-3.09l9.11-.85c-1.29-7.21-3.54-23.45-3.64-24.2a1.55,1.55,0,0,1,3.07-.43c0,.2,2.76,19.9,3.93,25.7a1.55,1.55,0,0,1-1.38,1.85l-10.81,1Z"/><path class="cls-1" d="M108.26,165.86a1.55,1.55,0,0,1-1.47-2c1.15-3.44,5.43-6.76,7.4-8.14-1.41-5.59-4.07-19.14-4.2-19.75a1.55,1.55,0,0,1,3-.6c0,.16,3.17,16.08,4.42,20.6a1.55,1.55,0,0,1-.66,1.72c-1.66,1.06-6.16,4.42-7.07,7.15A1.55,1.55,0,0,1,108.26,165.86Z"/><path class="cls-1" d="M116,167.15a1.55,1.55,0,0,1-1.54-1.4,46.75,46.75,0,0,1,0-9.6,1.55,1.55,0,0,1,3.07.4,44.5,44.5,0,0,0,0,8.9,1.55,1.55,0,0,1-1.4,1.69Z"/><path class="cls-1" d="M92.49,163a1.55,1.55,0,0,1-1-2.69c.2-.19,5-4.54,9.21-5.79a1.55,1.55,0,0,1,.88,3c-3.54,1-7.95,5.06-8,5.1A1.55,1.55,0,0,1,92.49,163Z"/><path class="cls-1" d="M156.16,110.73c-3.31,5-7.59,13.53-13.26,16.33a92.47,92.47,0,0,1,6.33-23.67c1.43-3.44,7.78-15.42,12-8.3,2.57,4.35-2.72,12.11-5,15.64"/><path class="cls-1" d="M162.15,119.82c-5.2,3-12.82,8.73-19.15,8.7a92.57,92.57,0,0,1,16.22-18.37c2.82-2.44,13.84-10.33,14.42-2.09.35,5-7.84,9.62-11.49,11.75"/><path class="cls-1" d="M162.77,129.7c-6,.22-15.43,1.66-21-1.33a92.41,92.41,0,0,1,22.95-8.59c3.63-.83,17.07-2.6,13.71,4.94-2.06,4.61-11.45,4.81-15.67,5"/><path class="cls-2" d="M109.06,59.46c-1.24-.2-2.48-.36-3.71-.46-5.31-.4-11.77,1.11-16.78,2.89-6,2.14-12,3.88-17.06,8.06C70.11,71.11,76.72,83,77,85.45c.57,5.08-1.83,10.05-2.71,15-1.52,8.5-2.14,18,.77,26.47,3.28,9.51,11,14.29,20.23,17.5,9.85,3.43,20.7,3.3,30.74.79a36.36,36.36,0,0,0,16.74-9.76c10.13-10.84-7.32-20.07-11.43-28.42-1.48-3-3.28-5.87-4.55-9a43,43,0,0,1-3.13-16c0-5.48,2.1-11.33-.11-16.64-1.77-4.28-5-3.85-9.17-4.8-1.73-.4-3.53-.78-5.33-1.07"/><path class="cls-1" d="M120.1,102.43a29.5,29.5,0,0,0-8.63-5.19c-10.69-3.83-9.9,7.92-10,15.34-.26,13.67,7.38,30,22,33.87,7.06,1.89,12.27-2.26,6.94-8.62,6.95.2,6.37-3.57,5.3-9.29a44.4,44.4,0,0,0-6.73-16.29,47.06,47.06,0,0,0-8.82-9.83"/><path class="cls-2" d="M64.23,73c2.91,5.46,7,9.32,12.16,12.71,6.32,4.17,15.41,4.91,22.83,4.05,8.48-1,18.74-4.56,23.4-12.25,5-8.18,3.89-19.4.28-27.88-1.78-4.18-5.67-8.37-8.94-11.5-6.11-5.86-15.5-5.84-23.35-4.73-9.11,1.3-17.85,5.76-24.81,11.69C57,52.63,59.06,63.33,64.23,73"/><path class="cls-3" d="M82.41,62.35A13.44,13.44,0,1,1,101,66.25a13.45,13.45,0,0,1-18.59-3.91"/><path class="cls-4" d="M98.32,42.72a9,9,0,1,1-11.75,4.79,9,9,0,0,1,11.75-4.79"/><path class="cls-3" d="M95.74,54.2a2.23,2.23,0,1,1-3-1,2.22,2.22,0,0,1,3,1"/><path class="cls-5" d="M59.45,88.32c1.35-.06,2.61-.16,3.68-.25,7.59-.61,19.67-4.28,17.61-14.17-.67-3.23-2.23-9.54-5.09-10.8.46.2-10.75,6.84-11.31,7.46C60.5,74.82,59.19,79.44,52.7,81a20.58,20.58,0,0,1-5,.49A11.88,11.88,0,0,1,44.67,81c-2.71-.68-.37,2.71.5,3.57,3.83,3.77,9.24,3.94,14.27,3.72"/><path class="cls-5" d="M37.07,55.18C31.3,58,25.63,62.12,22.79,68.82A24.74,24.74,0,0,0,21.33,82a21.62,21.62,0,0,0,1.83,6.12,10.39,10.39,0,0,0,3.39,4.5c3.13-8.25,10.62-8.11,18.5-8.52a64.93,64.93,0,0,0,18.82-4.17c5-1.86,9.64-4.14,12.8-8.62,5.4-7.66-8.5-19.12-11.5-25.19-9.42,3.07-19.11,4.75-28.1,9.09"/><path class="cls-1" d="M39.27,84.42c-5.58.52-10.38,2-12.73,8.18a10.41,10.41,0,0,1-3.39-4.5A21.81,21.81,0,0,1,21.33,82a24.77,24.77,0,0,1,1.46-13.16s10.72-.72,17.86,15.5Z"/><path class="cls-3" d="M77.58,62.91a3.44,3.44,0,0,1,1.63.76c1.35,1,2.91,2.49.54,3.53-3.34,1.46-4.67-4.55-2.17-4.29"/><path class="cls-6" d="M44.43,84.88S77,81.37,78.06,66.41"/></svg>