<svg id="Layer_1" data-name="Layer 1" xmlns="http://www.w3.org/2000/svg" width="7.06cm" height="7.06cm" viewBox="0 0 200 200"><defs><style>.cls-1{fill:#e03826;}.cls-2,.cls-8{fill:none;stroke-linecap:round;stroke-linejoin:round;}.cls-2{stroke:#e7c155;stroke-width:3.7px;}.cls-3{fill:#ffdb00;}.cls-4{fill:#69a01a;}.cls-5{fill:#fff;}.cls-6{fill:#231f20;}.cls-7{fill:#f89d4b;}.cls-8{stroke:#fff;stroke-width:2.02px;}</style></defs><title>parrot1-1</title><path class="cls-1" d="M127.33,121.63a35.16,35.16,0,0,1,11.94-1.47c13.53,1,7,13.45,3.48,21.62-6.37,15-22.63,29.13-40.44,26.27-8.63-1.38-12.29-8.43-3.38-12.78-7.68-3.16-5.22-7-1.27-12.72a53.2,53.2,0,0,1,15.27-14.5,56.12,56.12,0,0,1,14.41-6.43"/><path class="cls-2" d="M70.74,140.15s-17.2,9.37-22.45,11.72c0,0,1.13,9-1.43,13.16"/><path class="cls-2" d="M48.29,151.86a54.25,54.25,0,0,1-8.5,7.06"/><path class="cls-2" d="M78.87,146s-14.44,13.23-19,16.77c0,0,3.26,8.5,1.77,13.12"/><path class="cls-2" d="M59.91,162.81a54.17,54.17,0,0,1-6.55,8.89"/><path class="cls-3" d="M34.7,106.63C40.39,111,48.54,119,56,119.91A110.53,110.53,0,0,0,39.67,95.64c-3-3.33-14.79-14.37-16.75-4.71-1.21,5.91,7.78,12.61,11.78,15.7"/><path class="cls-3" d="M31.47,119.22c7.06,1.4,17.88,4.86,25,2.37A110.51,110.51,0,0,0,31,107.17c-4.13-1.66-19.65-6.28-17.1,3.26,1.56,5.82,12.6,7.81,17.55,8.8"/><path class="cls-3" d="M34.62,130.62c6.87-2.09,18.07-4.12,23.19-9.67a110.46,110.46,0,0,0-29.26-.76c-4.42.47-20.29,3.71-13.56,10.92,4.12,4.41,14.8,1,19.63-.49"/><path class="cls-4" d="M133.6,70.19c1.38.59,2.73,1.22,4,1.91,5.62,3,11.16,8.65,15.08,13.65,4.72,6,9.63,11.6,12,19,.77,2.35-12.68,10.22-14.51,12.17-8.34,8.85-11.59,21.11-19.81,30-6.66,7.19-16.93,9.8-26.32,11.2-22.26,3.3-48.69-9.45-53.12-32.93-3.29-17.42,20.22-15.56,29.72-21.35,3.42-2.1,7.06-3.82,10.34-6.14a51.54,51.54,0,0,0,13.4-14.14c3.46-5.56,5.14-12.79,10.76-16.72,4.53-3.18,7.51-.68,12.32,1,2,.71,4.06,1.47,6.06,2.33"/><path class="cls-1" d="M89.44,101.19a35.22,35.22,0,0,1,11.19,4.41c11.41,7.34-.31,15.14-7.25,20.67-12.78,10.18-33.78,14.8-48.08,3.79-6.93-5.33-6.78-13.28,3.12-12.85-5.24-6.44-1.25-8.64,4.95-11.78A53.17,53.17,0,0,1,73.7,100a56.2,56.2,0,0,1,15.74,1.22"/><path class="cls-4" d="M109.43,65.9C107.81,73.76,108.7,81,111,88.66c2.7,8.9,9.6,16.13,17.8,20.27,27.43,13.85,64.19-2.68,56.9-37.59-4.71-22.56-30.75-32.22-51.6-32-15,.19-21.81,12.56-24.69,26.51"/><path class="cls-5" d="M136.4,70.33a17.44,17.44,0,1,1,15.31,19.31A17.46,17.46,0,0,1,136.4,70.33"/><path class="cls-6" d="M145.08,57.54A11.64,11.64,0,1,1,140,73.19a11.64,11.64,0,0,1,5.11-15.64"/><path class="cls-5" d="M154.29,69.72a2.9,2.9,0,1,1-3.5,2.12,2.88,2.88,0,0,1,3.5-2.12"/><path class="cls-7" d="M92,77.19c1.39,1.07,2.74,2,3.87,2.8,8.07,5.69,23.17,12,29.31.46,2-3.78,5.69-11.36,3.88-15,.28.58-16.4-2.1-17.47-1.94-7.35,1.08-12.49,4.6-20.23.75A26.69,26.69,0,0,1,86,60.66a15.64,15.64,0,0,1-2.7-3c-2.14-2.93-2.61,2.4-2.46,4,.7,6.94,6,11.59,11.15,15.55"/><path class="cls-7" d="M97.12,25.59C89.05,23.58,80,23,71.57,27.34A32.14,32.14,0,0,0,59.2,39.26a28.09,28.09,0,0,0-3.26,7.62c-.6,2.37-1.1,5-.35,7.3,10-5.62,17.32.72,25.53,6.84a84,84,0,0,0,22.22,11.45c6.48,2.25,13.06,3.87,19.92,2,11.73-3.16,7.38-26.12,9.42-34.67-12-4.75-23-11.11-35.57-14.23"/><path class="cls-1" d="M75.07,56.58c-6-4.11-12-6.62-19.47-2.4-.75-2.27-.25-4.93.35-7.3a28.17,28.17,0,0,1,3.26-7.62A32.21,32.21,0,0,1,71.57,27.34s11.28,8.18,5,30.27Z"/><path class="cls-5" d="M131.12,66.89a4.45,4.45,0,0,1,1,2.1c.53,2.1.84,4.9-2.39,4-4.53-1.31-.88-8.42,1.39-6.07"/><path class="cls-8" d="M79.83,61.31s35.41,23.53,48.85,9.47"/></svg>