<svg id="Layer_1" data-name="Layer 1" xmlns="http://www.w3.org/2000/svg" width="7.06cm" height="7.06cm" viewBox="0 0 200 200"><defs><style>.cls-1{fill:#edc3c4;}</style></defs><title>star3-1</title><path class="cls-1" d="M113.05,69.63,96.6,51.47A7.35,7.35,0,0,0,84.19,54L75.6,79.48a3.69,3.69,0,0,1-2.26,2.29L55.76,87.92a7.35,7.35,0,0,0-1.93,12.85l14.51,10.72a3.66,3.66,0,0,1,1.42,3.67l-5.33,27a7.34,7.34,0,0,0,11.3,7.52l25.86-17.33A3.63,3.63,0,0,1,105,132l25.26,10.4a7.35,7.35,0,0,0,9.42-10L129.13,110.5a3.68,3.68,0,0,1,.64-4.13L147.13,88.1a7.35,7.35,0,0,0-4-12.29l-28-5a3.73,3.73,0,0,1-2.08-1.16"/></svg>