<svg id="Layer_1" data-name="Layer 1" xmlns="http://www.w3.org/2000/svg" width="7.06cm" height="7.06cm" viewBox="0 0 200 200"><defs><style>.cls-1{fill:gray;}</style></defs><title>star-3</title><path class="cls-1" d="M129.19,79.54l-3-23.53a7.11,7.11,0,0,0-11.29-4.81L94,66.67a3.56,3.56,0,0,1-3.07.56L73.53,62.41a7.12,7.12,0,0,0-8.65,9.15L70.5,88.1a3.52,3.52,0,0,1-.9,3.7L50.43,110.33a7.12,7.12,0,0,0,4.82,12.24l30.15.51a3.53,3.53,0,0,1,2.93,1.63l14.32,22.23a7.12,7.12,0,0,0,13-2.74l3.7-23.28a3.56,3.56,0,0,1,2.79-2.92l23.9-4.93a7.11,7.11,0,0,0,3.59-12L130.2,81.61a3.54,3.54,0,0,1-1-2.06"/></svg>