<svg id="Layer_1" data-name="Layer 1" xmlns="http://www.w3.org/2000/svg" xmlns:xlink="http://www.w3.org/1999/xlink" width="7.06cm" height="7.06cm" viewBox="0 0 200 200"><defs><style>.cls-1,.cls-10,.cls-9{fill:none;}.cls-2{fill:#f2b800;}.cls-3{clip-path:url(#clip-path);}.cls-4{fill:#261500;}.cls-5{clip-path:url(#clip-path-2);}.cls-6{clip-path:url(#clip-path-3);}.cls-7{fill:#f4c6a6;}.cls-8{fill:#231f20;}.cls-9{stroke:#000;stroke-width:1.57px;}.cls-10,.cls-9{stroke-miterlimit:10;}.cls-10{stroke:#873a1f;stroke-linecap:round;stroke-width:2.35px;}.cls-11{clip-path:url(#clip-path-4);}.cls-12{fill:#fff;}</style><clipPath id="clip-path"><path class="cls-1" d="M41.44,108.87c-3.6,16.06,13,33.45,37,38.84s46.42-3.26,50-19.32-12.95-33.45-37-38.84S45,92.8,41.44,108.87"/></clipPath><clipPath id="clip-path-2"><path class="cls-1" d="M111.66,135.52l2.28,13.61,1.77,10.58c.36,2.16,1.45,4.54,1.05,6.76s-3,3-4.91,3.72a27.24,27.24,0,0,1-9.92,2c-2.05,0-5.43.19-6.77-1.72-1.72-2.44-1.41-7-1.88-9.82q-1.09-6.46-2.17-12.93Z"/></clipPath><clipPath id="clip-path-3"><path class="cls-1" d="M24,123.27c3.8-2.11,7.64-4.13,11.51-6.11a53.42,53.42,0,0,1,5.08-2.63c1.25-.47,2.24.25,3.14,1.15,1.16,1.15,1.33,2.89,1.61,4.41a25.25,25.25,0,0,1,.66,7.53,14.76,14.76,0,0,1-1,4.92c-1.05,2.09-3.27,3.89-4.82,5.63l-6.48,7.23c-1,1.17-3.07,3.43-4.66,3.7-3.38.58-6.17-1.41-8.53-3.54a24,24,0,0,1-4.61-5.08c-1.71-2.75-3.45-6.05-2.42-9.36C14.7,127.25,20.76,125.09,24,123.27Z"/></clipPath><clipPath id="clip-path-4"><path class="cls-1" d="M76,92.92c5.8,23.1,35.47,32.79,64.1,25.6s45.59-27.75,39.78-50.85S143.7,21.94,115.07,29.13,70.17,69.81,76,92.92"/></clipPath></defs><title>tiger3-4</title><path class="cls-2" d="M121.4,120.8l20.3,24.69c1.75,2.13,3.91,3.61,2.52,6.53a14.54,14.54,0,0,1-3.17,4.29,16.41,16.41,0,0,1-6.6,3.72,22.36,22.36,0,0,1-4.8.86c-3.71.27-6-.73-7.45-4.23-1.24-2.89-2.11-6-3.16-9l-4.59-13.07Z"/><path class="cls-2" d="M49.06,128.28l-8.87,9.89-6.48,7.23c-1,1.17-3.07,3.43-4.66,3.7-3.38.58-6.17-1.41-8.53-3.54a24,24,0,0,1-4.61-5.08c-1.71-2.75-3.45-6.05-2.42-9.36,1.21-3.88,7.27-6,10.56-7.87,5.56-3.08,11.22-6,16.9-8.83l2.31-1.14Z"/><path class="cls-2" d="M111.66,135.52l2.28,13.61,1.77,10.58c.36,2.16,1.45,4.54,1.05,6.76s-3,3-4.91,3.72a27.24,27.24,0,0,1-9.92,2c-2.05,0-5.43.19-6.77-1.72-1.72-2.44-1.41-7-1.88-9.82q-1.09-6.46-2.17-12.93Z"/><path class="cls-2" d="M66.49,135.64l-4.24,12.51q-1.58,4.66-3.17,9.34c-.68,2-.95,4.58-3,5.68-1.74.92-4,.34-5.77-.07-2.48-.57-4.4-1.81-6.62-3-2.73-1.43-6.39-3.83-5.74-7.43.56-3.11,3.64-5.16,5.35-7.62l6.46-9.27,5.55-8Z"/><path class="cls-2" d="M41.44,108.87c-3.6,16.06,13,33.45,37,38.84s46.42-3.26,50-19.32-12.95-33.45-37-38.84S45,92.8,41.44,108.87"/><path class="cls-2" d="M49.81,98.13s-16.34-9.52-10-21.58C42,72.4,36,69.72,34.4,70.44c-6.81,2.94-6.71,14-4,19.68,4.06,8.59,13.12,14.43,15.61,13.45,3.46-1.36,3.8-5.44,3.8-5.44"/><g class="cls-3"><path class="cls-4" d="M63.32,87.21a1.68,1.68,0,0,0-.68-.41c-2-.63-4.93.78-6.76,1.45s-4.21,1.18-5.23,2.89c-2.41,4.09,2,8.44,4.19,11.45,1.24,1.7,6.1,8.45,8.65,7.24,2.24-1.07,1-5.36.79-7.23-.26-2.61-.41-5.17-.46-7.78,0-1.26-.08-2.57,0-3.82S64.15,88.06,63.32,87.21Z"/></g><g class="cls-5"><path class="cls-4" d="M89.33,151.32a76.48,76.48,0,0,0,.95,7.71c4.86-2.08,10.71-2.48,15.36-5.55,3.79-2.51-1.63-3-3.53-3.11-4.11-.28-8.83,1-12.83,0C89.27,150.51,89.3,150.84,89.33,151.32Z"/><path class="cls-4" d="M95.82,169.56a50.22,50.22,0,0,0,5.6-2.23c1.47-.63,4.77-2.06,5.68-3.42,1.38-2-1.87-2.28-3.26-2.45-3.53-.43-7.24-.09-10.79,0-2.18,0-2.3.58-1.94,2.73a16.17,16.17,0,0,0,1,4.42C93.08,170.54,94,170.09,95.82,169.56Z"/></g><g class="cls-6"><path class="cls-4" d="M24.61,122.22c.23.79,2.21,2.23,2.82,2.89A26.44,26.44,0,0,0,30.32,128c1.82,1.46,3.75,3.78,6,4.49,5.44,1.67,1.48-7.44.83-9.38-.84-2.5-1.45-5.11-2.29-7.58-1.93,1.26-4.13,1.73-6,3.11C27.9,119.36,24.16,120.68,24.61,122.22Z"/><path class="cls-4" d="M25.52,130.5c-1.39-3-3-5.89-4.35-8.89-.38-.86-7.54,4.59-8,4.88.73,1.67,2.5,3.21,3.77,4.58a38.24,38.24,0,0,0,7.83,6.06c2.9,1.78,3.22-.12,2.37-2.58C26.7,133.18,26.13,131.83,25.52,130.5Z"/></g><path class="cls-2" d="M160,40.85s8.1-17.29,22.46-5.34c12.79,10.64-6.62,24.89-8.69,21.6S160,40.85,160,40.85"/><path class="cls-7" d="M163,41.57a11.65,11.65,0,0,1,3.77-2.76c4-1.66,9.2-.78,11.52,3.15,2.76,4.69-1.54,12.83-6.49,14.36-2.19-2.76-4.71-5.27-7.05-8-1.56-1.78-4.21-3.4-2.58-5.77A9.93,9.93,0,0,1,163,41.57Z"/><path class="cls-2" d="M77.43,68.86s-19-1.7-12.71-19.28C70.35,33.92,90,47,88,50.35c-2.58,4.26-10.89,20.57-10.57,18.51"/><path class="cls-7" d="M76.61,64.18c-1.62-.83-3.67-1.88-4-2.08a7.16,7.16,0,0,1-3.28-5.6c-.34-4.57,3.17-9.17,8-8.81a18.88,18.88,0,0,1,8.53,2.88c-2.54,4.86-4.68,9.92-7.26,14.69C78.66,65.23,77.74,64.76,76.61,64.18Z"/><path class="cls-2" d="M76,92.92c5.8,23.1,35.47,32.79,64.1,25.6s45.59-27.75,39.78-50.85S143.7,21.94,115.07,29.13,70.17,69.81,76,92.92"/><path class="cls-7" d="M167.84,98.16c-1-10.65-16.67-12.54-38.18-10.56s-40.53,9.1-39.74,17.7,19.14,16.93,40.66,15,38.31-11,37.27-22.1"/><path class="cls-7" d="M117.85,74c1.08,11.84,4.31,21.41,7.94,21.07,1.22-.11,4.91-.23,6.84-1.15,4.31-2.07,2.45-12.77,1.74-20.63-.81-8.88-2.57-18.74-5.87-21.06-2.22-1.56-5.75-.24-6.63,0-3.64,1-5.1,10-4,21.79"/><path class="cls-4" d="M136.46,89.64a2.86,2.86,0,0,0-1-3.69c-3.13-2.08-10.76-5-15.53,2.6-2.28,3.65,5.3,6.91,7.94,6.83a10,10,0,0,0,8.55-5.75"/><path class="cls-8" d="M152,80.72a1.35,1.35,0,1,0,1.13-1.37A1.26,1.26,0,0,0,152,80.72"/><ellipse class="cls-9" cx="153.34" cy="80.5" rx="1.34" ry="1.17" transform="translate(-11.16 26.34) rotate(-9.47)"/><path class="cls-8" d="M103.54,88.7a1.34,1.34,0,1,0-1.22,1.41,1.32,1.32,0,0,0,1.22-1.41"/><ellipse class="cls-9" cx="102.2" cy="88.82" rx="1.34" ry="1.29" transform="translate(-7.56 9.54) rotate(-5.15)"/><path class="cls-10" d="M138.74,106.13s-6.82,10.42-16.07,2.15"/><g class="cls-11"><path class="cls-4" d="M155.1,38.12a12.78,12.78,0,0,0,1.71-2.94c1.07-2.83-1.89-3.94-3.9-5.07-2.23-1.25-7.59-5.15-9.73-2.06-1.38,2-.67,5.67-.7,8,0,2.52-.12,5,0,7.55a37.07,37.07,0,0,0,.6,5.21c.15.75.54,2.82,1.38,3.12,1.32.47,3.38-2.59,4-3.47a79.3,79.3,0,0,0,4.41-7.14A35.16,35.16,0,0,1,155.1,38.12Z"/><path class="cls-4" d="M127.67,28.09c.4-1.53.84-3.66,0-4.51-1.46-1.57-5.59-1-7.38-.47-2.83.86-5.67,1.93-8.58,2.56-1.49.32-4.33.36-3.49,2.92a31.94,31.94,0,0,0,2.75,5c1.48,2.63,2.75,5.25,4.44,7.75,1.32,1.95,2.59,4.95,4.85,6,2.65,1.23,3.64-4.44,4.13-6.19,1.1-3.9,1.88-7.89,2.89-11.8C127.41,29,127.54,28.58,127.67,28.09Z"/><path class="cls-4" d="M91.38,43.78c-.87-1.51-2-2.83-3.23-2.66-2.18.29-4.54,4.23-5.74,5.88s-4.18,5.37-3.59,7.64c.39,1.54,2.17,1.89,3.42,2.42,3.22,1.39,6.26,3.11,9.53,4.37,1.66.64,5.63,3.16,7.39,1.91,1.39-1-1-5.35-1.52-6.54-1.48-3.25-3.17-6.4-4.64-9.64A37.21,37.21,0,0,0,91.38,43.78Z"/><path class="cls-4" d="M76.36,94.31c-1.41.44-3.44,1-4.6.08s-.85-2.9-.85-4.21c0-2.83-.84-7.87,3.57-7A76.69,76.69,0,0,1,84.88,86c.92.34,4.79,1.12,5.06,2.24.53,2.14-3.84,3.29-5.19,3.68-2.63.74-5.23,1.47-7.86,2.27Z"/><path class="cls-4" d="M176.45,59.49a6.22,6.22,0,0,1,.62-.36c3.31-1.69,4.61,3.92,5,6.06.58,2.86,2.38,5.75-1.84,6.5a38.3,38.3,0,0,1-7.61.42c-1.4,0-7,.22-7.18-1.58s3.53-4.07,4.61-5.2A36.08,36.08,0,0,1,176.45,59.49Z"/></g><path class="cls-12" d="M152.84,89c-3-.09-6.21-1.19-8-3.7-3.66-5.09-.8-13.53,5.77-14.19,5.46-.54,10.76,3.1,10.68,9a8.82,8.82,0,0,1-5.45,8.43,7.89,7.89,0,0,1-3,.49"/><path class="cls-4" d="M148.61,88.1a6.19,6.19,0,0,1-3.25-4.44c-.58-3.5,2.25-7.9,5.76-8.66a6.16,6.16,0,0,1,1.64-.11,8.36,8.36,0,0,1,5.16,1.9c3.55,3.08,2.12,8.49-1.32,11a7.59,7.59,0,0,1-8,.3"/><circle class="cls-12" cx="152.42" cy="77.84" r="1.68" transform="translate(-18.1 63.2) rotate(-22.15)"/><path class="cls-12" d="M105.35,93.2c-3-.09-6.2-1.19-8-3.7-3.65-5.1-.8-13.53,5.78-14.19,5.46-.54,10.76,3.1,10.68,9a8.83,8.83,0,0,1-5.45,8.42,7.81,7.81,0,0,1-3,.49"/><path class="cls-4" d="M101.13,92.26a6.2,6.2,0,0,1-3.25-4.44c-.58-3.5,2.25-7.9,5.76-8.66a6.3,6.3,0,0,1,1.64-.12A8.43,8.43,0,0,1,110.44,81c3.54,3.07,2.11,8.48-1.33,11a7.6,7.6,0,0,1-8,.3"/><path class="cls-12" d="M102.86,83.08a1.68,1.68,0,1,0,.92-2.18A1.67,1.67,0,0,0,102.86,83.08Z"/></svg>