<svg id="Layer_1" data-name="Layer 1" xmlns="http://www.w3.org/2000/svg" xmlns:xlink="http://www.w3.org/1999/xlink" width="7.06cm" height="7.06cm" viewBox="0 0 200 200"><defs><style>.cls-1{fill:none;}.cls-2{clip-path:url(#clip-path);}.cls-3{fill:#afaeae;}.cls-4{fill:#d97f82;}.cls-5{clip-path:url(#clip-path-2);}.cls-6{clip-path:url(#clip-path-3);}.cls-7{clip-path:url(#clip-path-4);}.cls-8{fill:#fff;}.cls-9{fill:#e2e0e0;}.cls-10{clip-path:url(#clip-path-5);}.cls-11{fill:#231f20;}</style><clipPath id="clip-path"><path class="cls-1" d="M49.46,85.21c-4.57-1-6.67-6.5-6.87-10.76C42.39,70,45.45,65.58,49,63c4.11-3,9.44-3.34,11-9,1.25-4.5,3.1-11.4,9.12-6.86,5.3,4,2.85,11.14-1.23,15.1-3.63,3.52-10.9,4.92-12.58,10-1.16,3.53.35,9.44,4.16,10.79"/></clipPath><clipPath id="clip-path-2"><path class="cls-1" d="M111.13,133.92c.25-.32.49-.64.73-1,3.42-4.76,8.17-11.47,6.8-17.63-2.31-10.38-13.44-13.7-21.71-17.55-10.78-5-20.56-12.17-32-15.64-14.16-4.27-27.27,4.69-27.29,20.5,0,9.74,8.46,19.78,16.14,24.91C69.11,137.77,96.6,152.39,111.13,133.92Z"/></clipPath><clipPath id="clip-path-3"><path class="cls-1" d="M10.34,91.56c-1.08,3.26-1.17,8,1.16,10.12,3.51,3.19,11,2.68,15.31,2.5a61.67,61.67,0,0,0,16.84-2.52c1.2-.39-.2-11.34-.66-12.43-6.16-.06-12.19-2.06-18.24-2.88-4.2-.56-11-.94-13.57,3.34A9.49,9.49,0,0,0,10.34,91.56Z"/></clipPath><clipPath id="clip-path-4"><path class="cls-1" d="M94.46,171.94c3.38.62,8.07.05,9.85-2.56,2.68-3.92,1.11-11.26.34-15.5-1-5.67-2.31-11.12-4.85-16.33-.55-1.13-11.2,1.78-12.22,2.39.8,6.11-.33,12.37-.29,18.46,0,4.24.6,11,5.2,13A9.33,9.33,0,0,0,94.46,171.94Z"/></clipPath><clipPath id="clip-path-5"><path class="cls-1" d="M86.47,105.88A70.84,70.84,0,0,0,105.13,122a60.3,60.3,0,0,0,23.19,8.41c14.52,1.92,32.73.15,40.11-14.44C174,105,176,91.92,173.29,79.84a34,34,0,0,0-3.56-8.73c-4.12-7.89-10.14-12.25-16.79-17.36a72.16,72.16,0,0,0-21.7-11.58c-15-4.87-34,5.5-44.21,15.92C73.19,72.16,74.46,90.9,86.47,105.88Z"/></clipPath></defs><title>tiger4-3</title><g class="cls-2"><path class="cls-3" d="M49.46,85.21c-4.57-1-6.67-6.5-6.87-10.76C42.39,70,45.45,65.58,49,63c4.11-3,9.44-3.34,11-9,1.25-4.5,3.1-11.4,9.12-6.86,5.3,4,2.85,11.14-1.23,15.1-3.63,3.52-10.9,4.92-12.58,10-1.16,3.53.35,9.44,4.16,10.79"/><path class="cls-4" d="M43.11,64.61c2.34,5.1,12.77,11.93,16.83,11.53,1.26-.13,1.64-6,.88-7.05C58.61,66,51.95,64.8,48.93,61.59c-1.79-1.91-.38-2.57-3-1.93C42.62,60.46,42.08,62.37,43.11,64.61Z"/><path class="cls-4" d="M55.05,52.83a7.83,7.83,0,0,1-1.41,1.89c5.19,3.27,9.56,8.94,15.1,11.35.59-1,1.81-2.57,1.88-3.73.17-2.86.06-2.33-2-4.49-3.17-3.28-8-7.32-12.88-6.66A7.16,7.16,0,0,1,55.05,52.83Z"/></g><path class="cls-3" d="M14.58,120.53c.26,3.43,2,7.82,5,8.88,4.07,1.44,10-1.41,13.65-3,5.66-2.47,10-6.24,15.13-9.48-.66-2.9-2.86-9-5.48-9.47-3.13-.61-6.51.95-9.5,1.66-5.75,1.37-17.66,1.46-18.75,9.36A9.4,9.4,0,0,0,14.58,120.53Z"/><path class="cls-3" d="M10.34,91.56c-1.08,3.26-1.17,8,1.16,10.12,3.51,3.19,11,2.68,15.31,2.5a61.67,61.67,0,0,0,16.84-2.52c1.2-.39-.2-11.34-.66-12.43-6.16-.06-12.19-2.06-18.24-2.88-4.2-.56-11-.94-13.57,3.34A9.49,9.49,0,0,0,10.34,91.56Z"/><path class="cls-3" d="M120.33,161.1c3.28-1,7.17-3.72,7.53-6.85.5-4.29-3.61-9.45-6-12.64-3.68-5-8.32-8.37-12.63-12.63-2.68,1.29-8.1,4.79-8,7.47.11,3.18,2.38,6.12,3.74,8.88,2.62,5.3,5.37,16.89,13.32,16.19A10.19,10.19,0,0,0,120.33,161.1Z"/><path class="cls-3" d="M94.46,171.94c3.38.62,8.07.05,9.85-2.56,2.68-3.92,1.11-11.26.34-15.5-1-5.67-2.31-11.12-4.85-16.33-.55-1.13-11.2,1.78-12.22,2.39.8,6.11-.33,12.37-.29,18.46,0,4.24.6,11,5.2,13A9.33,9.33,0,0,0,94.46,171.94Z"/><path class="cls-3" d="M111.13,133.92c.25-.32.49-.64.73-1,3.42-4.76,8.17-11.47,6.8-17.63-2.31-10.38-13.44-13.7-21.71-17.55-10.78-5-20.56-12.17-32-15.64-14.16-4.27-27.27,4.69-27.29,20.5,0,9.74,8.46,19.78,16.14,24.91C69.11,137.77,96.6,152.39,111.13,133.92Z"/><g class="cls-5"><path class="cls-4" d="M76.24,68.31c-1.25,11.6-4.31,23-7.2,34.24-.7,2.73-2.25,10.68-6.12,6.5-1.53-1.65-2.12-4.75-2.56-6.92a95.74,95.74,0,0,1-2.23-20.05c0-3.62.72-7.7.35-11.24"/></g><g class="cls-6"><path class="cls-4" d="M16.5,79.36c-.1,2.95-1.53,13.4,2.15,15.08C21.64,95.8,26.6,81,28.47,79"/><path class="cls-4" d="M27.2,83.62c-.1,2.95-1.52,13.39,2.15,15.08,3,1.36,7.94-13.4,9.81-15.42"/></g><g class="cls-7"><path class="cls-4" d="M82.39,150.88c4.64.21,9.21-.3,13.82-.27,2.52,0,6.48.06,3.48,3.34-4.57,5-13.75,3.58-19,5.43"/><path class="cls-4" d="M81.12,162.05c4.63-.32,9.11-1.33,13.7-1.83,2.51-.27,6.45-.66,3.83,2.93-4,5.43-13.27,5.09-18.3,7.53"/></g><path class="cls-8" d="M104.38,114.67C102,119.34,80.73,130.13,95.1,134c9.45,2.53,14.92-6.05,19.5-12.88"/><path class="cls-3" d="M171.9,95.66s17.18,5.84,18.45-11.87c1.14-15.76-21-11.94-20.51-8.27.6,4.69,1.55,22.06,2.06,20.14"/><path class="cls-9" d="M174.41,91.92c1.73-.1,3.91-.23,4.24-.29a6.79,6.79,0,0,0,5-3.61c2.05-3.84.77-9.19-3.56-10.73a17.8,17.8,0,0,0-8.52-.77c.34,5.19.25,10.42.66,15.55C172.23,92,173.21,92,174.41,91.92Z"/><path class="cls-3" d="M118.84,41.2S117.35,23.12,100.6,29c-14.91,5.24-2.34,24.36.59,22.11s17.65-9.92,17.65-9.92"/><path class="cls-9" d="M116,40.86a11.06,11.06,0,0,0-2.44-3.71c-3-2.8-7.94-3.74-11.3-1-4,3.26-2.88,11.93,1,14.94,2.87-1.74,5.94-3.14,8.91-4.75,2-1.08,4.88-1.64,4.21-4.29A8.65,8.65,0,0,0,116,40.86Z"/><path class="cls-3" d="M86.47,105.88A70.84,70.84,0,0,0,105.13,122a60.3,60.3,0,0,0,23.19,8.41c14.52,1.92,32.73.15,40.11-14.44C174,105,176,91.92,173.29,79.84a34,34,0,0,0-3.56-8.73c-4.12-7.89-10.14-12.25-16.79-17.36a72.16,72.16,0,0,0-21.7-11.58c-15-4.87-34,5.5-44.21,15.92C73.19,72.16,74.46,90.9,86.47,105.88Z"/><g class="cls-10"><path class="cls-4" d="M115.86,42.11a12,12,0,0,1-.45-3.2c.08-2.87,3.07-2.79,5.26-3.06,2.42-.3,8.53-1.81,9.3,1.68.5,2.26-1.44,5.23-2.24,7.25C126.84,47,126,49.27,125,51.42a35.33,35.33,0,0,1-2.4,4.36c-.4.61-1.49,2.29-2.33,2.25-1.33-.06-2-3.49-2.29-4.49a73.75,73.75,0,0,1-1.31-7.87A35,35,0,0,0,115.86,42.11Z"/><path class="cls-4" d="M141.94,46.9c.2-1.49.58-3.52,1.58-4,1.85-.86,5.28,1.12,6.66,2.24,2.18,1.78,4.29,3.74,6.62,5.34,1.19.81,3.68,1.87,2,3.82a30.33,30.33,0,0,1-4.2,3.38c-2.24,1.78-4.3,3.63-6.69,5.22-1.86,1.24-4.06,3.43-6.43,3.54-2.77.13-1.61-5.21-1.42-6.93.43-3.82,1.18-7.61,1.7-11.42C141.83,47.82,141.88,47.39,141.94,46.9Z"/><path class="cls-4" d="M166.81,65c1.3-1,2.74-1.78,3.8-1.18,1.82,1,2.47,5.35,2.94,7.23s1.74,6.23.42,8c-.9,1.21-2.59.88-3.88.9-3.33.07-6.62.49-10,.42-1.69,0-6.09.76-7.19-1-.86-1.37,2.77-4.35,3.68-5.21,2.47-2.32,5.08-4.49,7.56-6.82C164.78,66.83,165.75,65.83,166.81,65Z"/></g><path class="cls-9" d="M133.34,120.79a16.38,16.38,0,0,1-2.2,2.68c-8.66,8.62-20.08,3.17-28.61-2.58-7.48-5-21.14-14.3-17.46-25,5.57-16.15,21.57-16.66,33.86-8C128.36,94.5,140.72,109.44,133.34,120.79Z"/><path class="cls-9" d="M121.86,101.29c-6.68,9.1-14,15.31-16.79,13.27-.94-.69-3.89-2.6-5-4.29-2.49-3.8,4.26-11.61,8.7-17.65,5-6.83,11.27-14,15.09-14.27,2.57-.19,4.8,2.62,5.41,3.24,2.5,2.56-.72,10.6-7.41,19.7"/><path class="cls-11" d="M128.58,95.76c-2.7,3.74-11.81,1.79-13.63.47s-6.55-9.34-3.85-13.09,6.73-1.8,11.9,1.93,8.29,6.93,5.59,10.68"/><path class="cls-11" d="M111.4,113.18a7.58,7.58,0,0,1-4.09-1.23c-4-2.56-3.83-7.67-1.87-11.6a1.15,1.15,0,1,1,2.05,1c-1.12,2.24-2.16,6.59,1,8.64a5.14,5.14,0,0,0,4.39.63,6.11,6.11,0,0,0,3.73-3.6,1.15,1.15,0,1,1,2.12.87,8.39,8.39,0,0,1-5.16,4.91A7.34,7.34,0,0,1,111.4,113.18Z"/><path class="cls-8" d="M154.28,106.6c1.28-2.88,1.72-6.47.15-9.36-3.19-5.83-12.56-7-16.2-1-3,5-2,11.7,3.67,14.32,3.53,1.64,7.7,1.4,10.55-1.34a8.23,8.23,0,0,0,1.84-2.63"/><path class="cls-11" d="M153.19,98.3a6.57,6.57,0,0,0-2.74-5.14c-3.08-2.16-8.58-1.49-10.92,1.52a6.77,6.77,0,0,0-.86,1.51,8.9,8.9,0,0,0-.55,5.81c1.31,4.79,7.13,5.92,11.12,3.79a8,8,0,0,0,3.95-7.49"/><circle class="cls-8" cx="144.95" cy="103.31" r="1.78" transform="translate(-31.83 124.08) rotate(-42.18)"/><path class="cls-8" d="M110.44,74.51c1.28-2.88,1.72-6.47.15-9.35-3.19-5.84-12.55-7-16.2-1-3,5-2,11.7,3.67,14.32,3.53,1.64,7.7,1.4,10.55-1.34a8.19,8.19,0,0,0,1.84-2.63"/><path class="cls-11" d="M109.34,66.22a6.58,6.58,0,0,0-2.74-5.14c-3.07-2.16-8.58-1.48-10.92,1.52a6.61,6.61,0,0,0-.86,1.51,8.9,8.9,0,0,0-.55,5.81c1.31,4.79,7.13,5.92,11.13,3.79a8,8,0,0,0,3.95-7.49"/><circle class="cls-8" cx="101.1" cy="71.23" r="1.78" transform="translate(-21.66 86.24) rotate(-42.14)"/></svg>