<svg id="Layer_1" data-name="Layer 1" xmlns="http://www.w3.org/2000/svg" xmlns:xlink="http://www.w3.org/1999/xlink" width="7.06cm" height="7.06cm" viewBox="0 0 200 200"><defs><style>.cls-1{fill:none;}.cls-2{fill:#d6b6b6;}.cls-3{clip-path:url(#clip-path);}.cls-4{fill:#041a23;}.cls-5{clip-path:url(#clip-path-2);}.cls-6{clip-path:url(#clip-path-3);}.cls-7{fill:#fff;}.cls-8{clip-path:url(#clip-path-4);}.cls-9{clip-path:url(#clip-path-6);}</style><clipPath id="clip-path"><path class="cls-1" d="M119.1,129c.17-.34.34-.68.5-1,2.28-5,5.44-12.06,3.05-17.49-4-9.15-14.89-10.18-23.22-12.22C88.58,95.6,78.26,90.77,67,89.67,53.21,88.32,42.76,99,45.62,113.55c1.77,9,11.41,16.7,19.42,20C81.06,140.21,109.08,148.68,119.1,129Z"/></clipPath><clipPath id="clip-path-2"><path class="cls-1" d="M18.45,108.33c-.41,3.21.37,7.58,2.91,9.12,3.82,2.3,10.63.46,14.57-.49A57.88,57.88,0,0,0,51,111.56c1-.58-2.26-10.42-2.88-11.34-5.69,1.06-11.62.32-17.34.67-4,.25-10.33,1.14-11.9,5.56A8.88,8.88,0,0,0,18.45,108.33Z"/></clipPath><clipPath id="clip-path-3"><path class="cls-1" d="M110.67,167.1c3.23,0,7.45-1.42,8.62-4.15,1.75-4.1-1-10.58-2.51-14.36a58.05,58.05,0,0,0-7.46-14.17c-.72-.94-10,3.69-10.83,4.44,1.85,5.49,1.95,11.46,3.1,17.08.8,3.9,2.56,10.07,7.16,11A8.79,8.79,0,0,0,110.67,167.1Z"/></clipPath><clipPath id="clip-path-4"><path class="cls-1" d="M90.84,108.18a65.11,65.11,0,0,0,19.19,12,55.29,55.29,0,0,0,22.22,4.37c11.14-.25,23.61-3.25,32.94-11.83,3.55-3.26,2.61-8.4,2.7-12.91.2-9.7,1.57-18.57-1.95-27.46A31.57,31.57,0,0,0,161.48,65c-4.84-6.58-10.92-9.69-17.67-13.39A66.27,66.27,0,0,0,122.5,44.1c-10.72-1.72-21,2.73-29.25,10.15a159.59,159.59,0,0,0-14,13.92c-5.95,6.91-2.91,14.4-.61,21.87C80.86,97.34,85.25,103.08,90.84,108.18Z"/></clipPath><clipPath id="clip-path-6"><path class="cls-1" d="M59.92,91.55c-9-5.25-5.24-10.34-.5-16.85,3.28-4.51,4.5-9.55,3-15C60.43,52.94,54.29,46.79,47,46.16c-4.26-.37-19.58,5.91-14.87,12.35,2.08,2.84,6.74-.36,9.4-1.21,3.36-1.07,6.18-1.41,8.87,1.63,8.1,9.16-5.45,16.58-6.88,24.86-1.28,7.43,4.42,12.7,11,14.3"/></clipPath></defs><title>tiger-2</title><path class="cls-2" d="M59.92,91.55c-9-5.25-5.24-10.34-.5-16.85,3.28-4.51,4.5-9.55,3-15C60.43,52.94,54.29,46.79,47,46.16c-4.26-.37-19.58,5.91-14.87,12.35,2.08,2.84,6.74-.36,9.4-1.21,3.36-1.07,6.18-1.41,8.87,1.63,8.1,9.16-5.45,16.58-6.88,24.86-1.28,7.43,4.42,12.7,11,14.3"/><path class="cls-2" d="M27.64,134.26c.87,3.11,3.29,6.84,6.23,7.28,4,.58,9-3.13,12-5.25,4.76-3.32,8.1-7.58,12.22-11.5C57,122.23,53.86,117,51.35,117c-3,0-5.83,2.06-8.45,3.26-5.05,2.31-16,4.57-15.58,12.06A8.77,8.77,0,0,0,27.64,134.26Z"/><path class="cls-2" d="M18.45,108.33c-.41,3.21.37,7.58,2.91,9.12,3.82,2.3,10.63.46,14.57-.49A57.88,57.88,0,0,0,51,111.56c1-.58-2.26-10.42-2.88-11.34-5.69,1.06-11.62.32-17.34.67-4,.25-10.33,1.14-11.9,5.56A8.88,8.88,0,0,0,18.45,108.33Z"/><path class="cls-2" d="M132.55,152.38c2.84-1.55,5.93-4.74,5.69-7.69-.32-4-5.05-8.06-7.8-10.57-4.3-3.9-9.21-6.2-14-9.34-2.24,1.68-6.6,5.89-6,8.35.68,2.92,3.31,5.21,5.07,7.5,3.38,4.41,8,14.6,15.24,12.5A9.7,9.7,0,0,0,132.55,152.38Z"/><path class="cls-2" d="M110.67,167.1c3.23,0,7.45-1.42,8.62-4.15,1.75-4.1-1-10.58-2.51-14.36a58.05,58.05,0,0,0-7.46-14.17c-.72-.94-10,3.69-10.83,4.44,1.85,5.49,1.95,11.46,3.1,17.08.8,3.9,2.56,10.07,7.16,11A8.79,8.79,0,0,0,110.67,167.1Z"/><path class="cls-2" d="M119.1,129c.17-.34.34-.68.5-1,2.28-5,5.44-12.06,3.05-17.49-4-9.15-14.89-10.18-23.22-12.22C88.58,95.6,78.26,90.77,67,89.67,53.21,88.32,42.76,99,45.62,113.55c1.77,9,11.41,16.7,19.42,20C81.06,140.21,109.08,148.68,119.1,129Z"/><g class="cls-3"><path class="cls-4" d="M75,74.87c1,10.93.22,22-.4,32.89-.15,2.65-.12,10.26-4.45,7.11-1.71-1.25-2.82-4-3.62-5.92a90.06,90.06,0,0,1-5.72-18.08c-.65-3.34-.73-7.23-1.73-10.43"/></g><g class="cls-5"><path class="cls-4" d="M21.91,96c.45,2.74,1,12.63,4.74,13.51,3,.71,4.88-13.8,6.24-16"/><path class="cls-4" d="M32.55,97.93c.44,2.73,1,12.63,4.73,13.51,3,.71,4.88-13.8,6.24-16"/></g><g class="cls-6"><path class="cls-4" d="M95.7,149.88c4.31-.65,8.43-2,12.69-2.77,2.32-.45,6-1.12,3.82,2.44-3.31,5.4-12,5.8-16.56,8.48"/><path class="cls-4" d="M96.57,160.41c4.21-1.14,8.16-2.89,12.3-4.19,2.26-.71,5.83-1.79,4.07,2-2.68,5.74-11.3,7.12-15.5,10.28"/></g><path class="cls-7" d="M109.38,112.48c-1.32,4.74-19,18.57-5,19.49,9.17.61,12.65-8.3,15.63-15.43"/><path class="cls-2" d="M165.87,84.95c4.61,4.7,13.73-5.59,15.07-9.41,4.42-12.49-12.85-9.92-20-8.45C161.51,70.5,163.69,82.72,165.87,84.95Z"/><path class="cls-2" d="M94.81,54.63C88.25,54,90.46,40.47,92.57,37c6.88-11.31,15.81,3.68,19.2,10.17C108.77,48.87,97.91,54.91,94.81,54.63Z"/><path class="cls-2" d="M90.84,108.18a65.11,65.11,0,0,0,19.19,12,55.29,55.29,0,0,0,22.22,4.37c11.14-.25,23.61-3.25,32.94-11.83,3.55-3.26,2.61-8.4,2.7-12.91.2-9.7,1.57-18.57-1.95-27.46A31.57,31.57,0,0,0,161.48,65c-4.84-6.58-10.92-9.69-17.67-13.39A66.27,66.27,0,0,0,122.5,44.1c-10.72-1.72-21,2.73-29.25,10.15a159.59,159.59,0,0,0-14,13.92c-5.95,6.91-2.91,14.4-.61,21.87C80.86,97.34,85.25,103.08,90.84,108.18Z"/><g class="cls-8"><path class="cls-7" d="M145,129.47a44.58,44.58,0,0,0,17.36-5.87c4.53-2.84,9.88-9.8,2.6-12-4-1.19-7.94-1.13-11.68-3.42-6.31-3.87-8.95-9.52-12.89-15.64-4.68-7.26-11.83-13.42-20.18-16.19-4.17-1.38-9.26-2.23-13.62-1.23S97.66,77.88,93,77.43s-9-2.19-13-4c-1.92-.84-6.39-3.85-8.54-3.37C65.77,71.34,67.87,81.48,68.94,85a47.1,47.1,0,0,0,17,24.12c9.32,7,20.59,11.33,31.09,16C126,129.11,135,130.81,145,129.47Z"/></g><path class="cls-4" d="M129.67,89.33c-1.91,4.85-12.42,5.26-14.78,4.33s-9.77-8.39-7.87-13.24,6.87-3.84,13.55-1.21,11,5.27,9.1,10.12"/><path class="cls-4" d="M112.85,100.63l-.26,0a1.44,1.44,0,0,1-1.16-1.67c.75-4.12,1.89-6.9,3.71-9a1.44,1.44,0,1,1,2.17,1.88c-1.46,1.7-2.41,4.06-3.06,7.65A1.44,1.44,0,0,1,112.85,100.63Z"/><path class="cls-7" d="M140.83,85.92c-.51-3.13,0-6.73,2.26-9.13,4.6-4.85,14-3.55,16,3.2,1.67,5.6-1.08,11.88-7.24,13-3.85.69-7.84-.62-9.91-4a8.25,8.25,0,0,1-1.11-3"/><path class="cls-4" d="M142.65,78.59a6.59,6.59,0,0,1,4-4.29c3.54-1.31,8.72.76,10.23,4.29a6.89,6.89,0,0,1,.44,1.69,8.94,8.94,0,0,1-1,5.78c-2.51,4.33-8.46,3.92-11.79.82a8.09,8.09,0,0,1-1.91-8.3"/><circle class="cls-7" cx="152.88" cy="84.34" r="2.01" transform="translate(-14.01 33.01) rotate(-11.79)"/><path class="cls-7" d="M96.25,65.74c-.51-3.13,0-6.73,2.26-9.13,4.6-4.85,14-3.55,16,3.2,1.66,5.6-1.08,11.88-7.24,13-3.85.69-7.84-.63-9.9-4a8.22,8.22,0,0,1-1.11-3"/><path class="cls-4" d="M98.07,58.41a6.59,6.59,0,0,1,4-4.29c3.54-1.31,8.72.76,10.23,4.29a6.8,6.8,0,0,1,.44,1.69,9,9,0,0,1-1,5.78c-2.51,4.33-8.46,3.92-11.79.83a8.1,8.1,0,0,1-1.91-8.3"/><path class="cls-7" d="M110.26,63.75a2,2,0,1,0-1.55,2.37A2,2,0,0,0,110.26,63.75Z"/><path class="cls-4" d="M116.55,117.7a11.8,11.8,0,0,1-6-1.84c-2-1.21-5.33-4.93-4.66-8a1.44,1.44,0,0,1,2.81.61c-.28,1.3,1.69,4,3.32,4.94,2.41,1.44,4.72,1.8,6.68,1s3.6-2.77,4.44-5.58a1.44,1.44,0,0,1,2.75.82c-1.09,3.68-3.28,6.32-6.15,7.44A8.68,8.68,0,0,1,116.55,117.7Z"/><path class="cls-4" d="M127.76,107.85a3.94,3.94,0,0,0-1.43-1.35c-1.55-1-3.73-1.95-3.82.9-.13,4,6.54,2.9,5.25.45"/><path class="cls-4" d="M104.93,105.77a3.89,3.89,0,0,1,2,0c1.8.32,4.06,1.06,2.23,3.23-2.58,3-6.78-2.25-4.19-3.19"/><g class="cls-8"><path class="cls-4" d="M137.54,61.58a9.88,9.88,0,0,1,.35-3.74c.89-3.87,4.12-16.27,9.49-14.91,9.35,2.36,3.39,10.25-1.21,14.44C143.18,60.11,138.18,64.86,137.54,61.58Z"/><path class="cls-4" d="M127.23,57a9.9,9.9,0,0,1-.77-3.67c-.29-4-.85-16.76,4.69-17,9.64-.48,6.25,8.81,3.09,14.17C132.19,53.91,128.81,59.93,127.23,57Z"/></g><g class="cls-9"><path class="cls-4" d="M40.27,85.86c4.55,2.53,16.12,1.9,18.94-.63.88-.79-2.07-5.4-3.22-5.77-3.34-1.07-9,1.68-13,.93-2.39-.45-1.69-1.72-3.3.19C37.62,83,38.26,84.75,40.27,85.86Z"/><path class="cls-4" d="M49.15,67.71a7.38,7.38,0,0,1,.38,2.16c5.51-1.44,12.13-.8,17.29-3-.29-1-.59-2.86-1.33-3.65-1.83-1.94-1.54-1.52-4.34-1.48-4.23.06-10.06.77-12.69,4.49A6.78,6.78,0,0,1,49.15,67.71Z"/><path class="cls-4" d="M45.43,61.7a7.34,7.34,0,0,1,2.19,0C47.2,56,49,49.63,47.76,44.16c-1,.1-2.92.07-3.83.66-2.23,1.46-1.77,1.25-2.23,4-.7,4.17-1,10,2.14,13.29A6.78,6.78,0,0,1,45.43,61.7Z"/></g></svg>