<svg id="Layer_1" data-name="Layer 1" xmlns="http://www.w3.org/2000/svg" xmlns:xlink="http://www.w3.org/1999/xlink" width="7.06cm" height="7.06cm" viewBox="0 0 200 200"><defs><style>.cls-1,.cls-6{fill:none;}.cls-2{fill:#afaeae;}.cls-3{clip-path:url(#clip-path);}.cls-4{fill:#fff;}.cls-5{fill:#231f20;}.cls-6{stroke:#000;stroke-linecap:round;stroke-miterlimit:10;stroke-width:2.87px;}.cls-7{clip-path:url(#clip-path-3);}.cls-8{clip-path:url(#clip-path-4);}</style><clipPath id="clip-path"><path class="cls-1" d="M89.91,120.29a67.7,67.7,0,0,0,22.37,7.37,57.54,57.54,0,0,0,23.53-1.11c11.19-3,23-9.16,30.32-20.15,2.77-4.17.54-9.14-.49-13.71-2.21-9.85-3-19.15-8.8-27.25A32.87,32.87,0,0,0,150.51,59C144,53.61,137.07,52,129.34,49.92a68.92,68.92,0,0,0-23.39-2.24c-11.26.93-20.57,8-27,17.53a166.07,166.07,0,0,0-10.7,17.55C63.94,91.23,68.87,98,73,105,77.14,111.81,83,116.52,89.91,120.29Z"/></clipPath><clipPath id="clip-path-3"><path class="cls-1" d="M123.73,112.17c.08-.42.15-.85.22-1.29.91-6.17,2.13-14.84-2.17-20-7.25-8.69-19.41-6.41-29.11-6-12.64.53-25.4-1.49-37.94.82C39.25,88.55,31.2,103.42,38.9,118.4c4.74,9.23,17.66,14.6,27.42,15.7C85.84,136.31,119,136.74,123.73,112.17Z"/></clipPath><clipPath id="clip-path-4"><path class="cls-1" d="M41.71,105.78C32.13,112.47,24.5,121.22,28,132.9c4,13.38,15.11,20.12,28.6,22.6,10,1.84,24,4.07,33.57-.26,5.67-2.57,8.62-8.28,2-12.33-6.8-4.15-16.5.77-24.07-.35-9-1.34-24.74-2.3-24.91-14.51-.09-6.19,3.2-6.89,6.75-10.69"/></clipPath></defs><title>tiger2-2</title><path class="cls-2" d="M121.79,146.88c2.64-2.08,5.26-5.89,4.5-8.88-1-4.09-6.58-7.39-9.84-9.48-5.09-3.25-10.52-4.76-15.93-7.15-2,2.11-5.74,7.19-4.72,9.61,1.2,2.87,4.3,4.77,6.51,6.81,4.24,3.93,10.78,13.57,17.8,10.17A10,10,0,0,0,121.79,146.88Z"/><path class="cls-2" d="M144.4,134.68c2.17-2.57,4-6.83,2.63-9.6-1.83-3.8-7.93-5.92-11.54-7.31-5.64-2.16-11.26-2.55-17-3.81-1.53,2.47-4.18,8.19-2.7,10.36,1.76,2.58,5.17,3.81,7.74,5.37,4.94,3,13.28,11.13,19.48,6.39A10,10,0,0,0,144.4,134.68Z"/><path class="cls-2" d="M123.73,112.17c.08-.42.15-.85.22-1.29.91-6.17,2.13-14.84-2.17-20-7.25-8.69-19.41-6.41-29.11-6-12.64.53-25.4-1.49-37.94.82C39.25,88.55,31.2,103.42,38.9,118.4c4.74,9.23,17.66,14.6,27.42,15.7C85.84,136.31,119,136.74,123.73,112.17Z"/><path class="cls-2" d="M159.91,78.15c5.83,3.6,12.47-9.06,12.88-13.26,1.35-13.71-15.44-6.82-22.31-3.55C151.91,64.64,157.16,76.45,159.91,78.15Z"/><path class="cls-2" d="M80.6,65.2C73.83,66.23,72.69,52,74,48c4.14-13.13,16.89-.21,21.92,5.5C93.26,55.92,83.8,64.72,80.6,65.2Z"/><path class="cls-2" d="M89.91,120.29a67.7,67.7,0,0,0,22.37,7.37,57.54,57.54,0,0,0,23.53-1.11c11.19-3,23-9.16,30.32-20.15,2.77-4.17.54-9.14-.49-13.71-2.21-9.85-3-19.15-8.8-27.25A32.87,32.87,0,0,0,150.51,59C144,53.61,137.07,52,129.34,49.92a68.92,68.92,0,0,0-23.39-2.24c-11.26.93-20.57,8-27,17.53a166.07,166.07,0,0,0-10.7,17.55C63.94,91.23,68.87,98,73,105,77.14,111.81,83,116.52,89.91,120.29Z"/><g class="cls-3"><path class="cls-4" d="M149.87,128.32a46.41,46.41,0,0,0,16.07-10.24c3.87-4,7.54-12.36-.35-12.72-4.35-.2-8.3.84-12.65-.55-7.33-2.33-11.4-7.39-16.91-12.59-6.53-6.17-15.29-10.61-24.41-11.33-4.55-.36-9.91.05-14.06,2.14s-8.3,5-13.1,5.65-9.61,0-14.17-.76c-2.15-.37-7.41-2.3-9.47-1.28-5.4,2.66-.76,12.38,1.2,15.68a49,49,0,0,0,23.14,20.14c11.16,4.79,23.61,6.32,35.38,8.41C130.67,132.67,140.13,132.15,149.87,128.32Z"/></g><path class="cls-5" d="M124.44,91.59c-.72,5.38-11.24,8.4-13.85,8s-12-6-11.24-11.42,6-5.58,13.39-4.59,12.43,2.58,11.71,8"/><path class="cls-6" d="M113,96.47c-1.06,2.09-1.62,4.77-1.34,9.26"/><path class="cls-6" d="M124.17,113c-.33,6.88-5,10.85-12,8.71-2-.61-5.58-3.15-5.64-5.55"/><path class="cls-5" d="M127.12,110.77a4.07,4.07,0,0,0-1.78-1c-1.81-.6-4.25-1-3.64,1.85.86,4.06,7.32,1.3,5.41-.85"/><path class="cls-5" d="M103.54,114.34a4,4,0,0,1,2-.53c1.9-.12,4.37.06,3.05,2.7-1.85,3.72-7.41-.58-5-2.17"/><g class="cls-3"><path class="cls-5" d="M125.49,61.6a10.21,10.21,0,0,1-.58-3.86c-.06-4.14.12-17.46,5.88-17.42,10,.06,6,9.51,2.37,14.89C130.82,58.71,127,64.75,125.49,61.6Z"/><path class="cls-5" d="M113.94,59.52A10.25,10.25,0,0,1,112.25,56c-1.27-3.93-5-16.72.49-18.38,9.61-2.89,8.51,7.34,6.65,13.54C118.18,55.18,116.26,62.1,113.94,59.52Z"/></g><path class="cls-6" d="M84.66,71.65c-1.08,10.31,10.22,11,10.85,1.14"/><path class="cls-6" d="M138.91,80.21c-1.08,10.31,10.22,11,10.85,1.14"/><path class="cls-2" d="M41.71,105.78C32.13,112.47,24.5,121.22,28,132.9c4,13.38,15.11,20.12,28.6,22.6,10,1.84,24,4.07,33.57-.26,5.67-2.57,8.62-8.28,2-12.33-6.8-4.15-16.5.77-24.07-.35-9-1.34-24.74-2.3-24.91-14.51-.09-6.19,3.2-6.89,6.75-10.69"/><g class="cls-7"><path class="cls-5" d="M56.15,69.64c2.45,11,3.2,22.31,4,33.47.21,2.71,1.26,10.44-3.57,7.83-1.91-1-3.4-3.68-4.48-5.53a92.4,92.4,0,0,1-8.26-17.6c-1.11-3.3-1.72-7.25-3.17-10.37"/></g><g class="cls-8"><path class="cls-5" d="M32.89,132.59c3-.13,19.13,3.64,14.21-4.39-3.36-5.48-22.75-7.51-26-1.42C17.58,133.22,29,132.76,32.89,132.59Z"/><path class="cls-5" d="M54,150a24.63,24.63,0,0,1,6.47-12.11c-7-12.06-28.23,14.38-13.32,20C54.49,160.64,52.71,155.47,54,150Z"/><path class="cls-5" d="M80.29,150.56c-.42-4.61.4-9.26,1-13.81.11-.82-6.13.89-6.72,1.27-2.08,1.34-3,3.37-3.92,5.57-2.07,5-2.68,12.91,1,17.22,2.11,2.46,3.72,3.56,6.9,2C83.67,160.33,80.67,154.72,80.29,150.56Z"/></g></svg>