<svg id="Layer_1" data-name="Layer 1" xmlns="http://www.w3.org/2000/svg" width="7.06cm" height="7.06cm" viewBox="0 0 200 200"><defs><style>.cls-1{fill:#e9b4b6;}</style></defs><title>water-2</title><path class="cls-1" d="M80.27,99.76c-.2-11.45-9.56-28-22.89-26.54-13.81,1.46-18.84,17.82-15.49,29,1.82,6.06,11.61,27.17,4.94,41.75C63.3,136.46,80.61,119.13,80.27,99.76Z"/><path class="cls-1" d="M126.58,98.61c11-3.25,29.53.72,32.19,13.87,2.75,13.61-11.34,23.32-23,23.48-6.33.09-29.4-2.91-41.31,7.83C96.67,125.82,108,104.1,126.58,98.61Z"/><path class="cls-1" d="M106.8,86.64c-1.36-7.48-3.35-29.49,7.88-30.55,8.17-.77,11.71,6.12,9.68,12.05C120.54,79.29,106.8,86.64,106.8,86.64Z"/></svg>