<svg id="Layer_1" data-name="Layer 1" xmlns="http://www.w3.org/2000/svg" width="7.06cm" height="7.06cm" viewBox="0 0 200 200"><defs><style>.cls-1{fill:#6ec4e9;}</style></defs><title>water2-1</title><path class="cls-1" d="M33.17,123.4c-6.17,7.4,9.47,12.95,13.72,19.45.2.31-.07-7-.13-7.36-.59-3.73-.6-8.87-3.24-11.84S36.32,119.62,33.17,123.4Z"/><path class="cls-1" d="M56,122.91c2.37-2,7.39-3,9.46,0s-.29,7-3.16,8.29c-1.56.7-7.59,2.45-9.37,6.39C51.55,132.87,52,126.28,56,122.91Z"/><path class="cls-1" d="M85.16,93.15c4.5-1.33,12.08.3,13.17,5.67,1.13,5.57-4.64,9.54-9.41,9.61-2.59,0-12-1.19-16.9,3.21C72.92,104.28,77.56,95.39,85.16,93.15Z"/><path class="cls-1" d="M119.8,60.92c6.16.69,14.58,6.57,13.14,13.68-1.48,7.37-10.56,9.25-16.41,6.88-3.18-1.29-14.06-7.63-22.26-4.78C99.17,68.21,109.39,59.76,119.8,60.92Z"/><path class="cls-1" d="M74.35,68C74.26,63.35,70.43,56.6,65,57.18c-5.65.6-7.71,7.29-6.34,11.86.75,2.48,4.75,11.12,2,17.08C67.41,83.05,74.49,76,74.35,68Z"/><path class="cls-1" d="M110.56,105.92c2.87-1.2,11.5-3.92,12.9.48a3.61,3.61,0,0,1-4,4.92C114.7,110.77,110.56,105.92,110.56,105.92Z"/><path class="cls-1" d="M49.93,116.77c-2.21-3-7.82-12.26-3.1-15.14,3.43-2.1,6.47.17,6.85,3.22C54.4,110.59,49.93,116.77,49.93,116.77Z"/><path class="cls-1" d="M147.42,93.63c5.36-.38,21-.07,20.84,7.9-.09,5.8-5.2,7.75-9.21,5.86C151.51,103.85,147.42,93.63,147.42,93.63Z"/></svg>