<svg id="Layer_1" data-name="Layer 1" xmlns="http://www.w3.org/2000/svg" width="7.06cm" height="7.06cm" viewBox="0 0 200 200"><defs><style>.cls-1{fill:#3aae6c;}.cls-1,.cls-2,.cls-3{fill-rule:evenodd;}.cls-2{fill:#ffce00;}.cls-3{fill:#fff;}</style></defs><title>ananas-1</title><path class="cls-1" d="M60.58,21.76q-.9,5.34,1.25,12.84a130.71,130.71,0,0,0,4.92,17.5c.68,1.85,1.33,3.63,1.94,5.33a59.65,59.65,0,0,0-15.06-4.18q-7.91-1.31-11.56.47c-2.52,1.25-2.54,3.53,0,6.84A38.38,38.38,0,0,1,51.49,63q11.07,4.32,21.3,16.12c-.5.14-4.62,0-12.36-.39q-12,.13-15.28,2.65c-1.87,1.51-2.68,3.19-2.47,5a5.32,5.32,0,0,0,1.15,3q.12.22,12.86,2.16Q70,93.71,72.7,95q2.09,1.17,9.61,8.3,7.29,6.07,11.14,3a4.52,4.52,0,0,0,1.6-5.5,17.89,17.89,0,0,0-1.75-3.32l1.28-.71a4.87,4.87,0,0,0,.7-2.44,3.74,3.74,0,0,0,3.49-.62.85.85,0,0,0,.34-.35,6.6,6.6,0,0,0,2.28-1.12q2.24-1.82,2.23-9.91c-.31-5.3-.4-8.11-.22-8.44q1.5-3.1,8.88-10.8,4.49-4.65,1.48-8.54a4.69,4.69,0,0,0-6.19-1.52q-4.4,1.7-12.4,10.7l-3.07,2.41a74.08,74.08,0,0,1,1-24.33Q95.21,30.73,96,31.71c-2.16-2.7-4.78-2.79-7.79-.28-3.28,2.64-5.68,7.31-7.16,14A27.81,27.81,0,0,0,79.69,51q-2-4.82-4.91-12-6-14.51-6.86-15.74-6.31-7.82-7.35-1.4"/><path class="cls-2" d="M71.69,116.42q-4.81,19,3.95,34.7a73,73,0,0,0,24,25.62q15.2,9.84,37.57-2.37t22.64-36a33.33,33.33,0,0,0-3.74-15.27q-4-6.6-4.46-7.45Q141.19,96,123.06,89.75q-16.57-5.55-31.67,2a36.24,36.24,0,0,0-19.7,24.64"/><path class="cls-3" d="M133.76,116.69a6.17,6.17,0,0,1-5.09.22,4.86,4.86,0,0,1-2.69-2c-.6-1.46-.44-2.42.47-2.87a3,3,0,0,1,2.5,0,11,11,0,0,0,1.69.72l2.28-.93c.16-3.73.72-5.87,1.64-6.44s1.85.22,3,2.44a5.84,5.84,0,0,1,.28,3.66,6.88,6.88,0,0,1-4.11,5.2m-26.23-11.81a1.92,1.92,0,0,1,1-2.4,2.77,2.77,0,0,1,3,.61c1,.84,2.36.85,4,0,1.21-.59,1.64-1.68,1.31-3.27-.53-1.56-.82-2.44-.88-2.66-.37-2,.16-2.57,1.54-1.67a6.82,6.82,0,0,1,2.4,2.38,8,8,0,0,1,1,4.33c-.18,2.63-1.84,4.73-5,6.28a5.6,5.6,0,0,1-5.07-.07,5.52,5.52,0,0,1-2.62-2,5.11,5.11,0,0,1-.67-1.59M100.7,108c.07.15.41,1.77,1,4.87A8.36,8.36,0,0,1,90,120.36a7.22,7.22,0,0,1-3.47-3.12,4,4,0,0,1-.63-1.68A2,2,0,0,1,87,113.09c1.14-.56,2.29,0,3.44,1.6s3,1.78,5.72.47a54.85,54.85,0,0,1,1.5-5.38c1-3.07,2-3.66,3-1.73m19.06,15.5a6.41,6.41,0,0,1-4,6,8.86,8.86,0,0,1-5.69.88,4.55,4.55,0,0,1-3.41-2.15,6.4,6.4,0,0,1-.64-1.87c-.22-1.28.1-2.14,1-2.57a2.23,2.23,0,0,1,2.72.39,5.46,5.46,0,0,0,1.8,1.76l3.07-1.42a3.29,3.29,0,0,0,.43-3.3,6.67,6.67,0,0,1-1.06-2.67c-.16-2,.53-2.59,2.08-1.65a7,7,0,0,1,2.78,2.64c.05.1.38,1.4.95,3.91m-30.3,5.27a1.84,1.84,0,0,1,2.78.82,6.17,6.17,0,0,1,.52,3.76q-.59,3.82-5.27,6.12-4.07,2-9.71-3.89c-1.36-2.55-.48-3.5,2.59-2.8,3.48,1.2,5.27,1.81,5.39,1.81l2.15-.87a10.91,10.91,0,0,0,.57-2.55q.29-2,1-2.39m5.39,17.91c-.42-2-.05-3.16,1.08-3.52.82-.22,1.82.26,3,1.43a3.94,3.94,0,0,0,4.3.89c1.34-.41,1.84-1.54,1.5-3.37a11.76,11.76,0,0,1-.76-3.26q1.3-1.82,3.16.54a12.14,12.14,0,0,1,1.95,3.5,5.55,5.55,0,0,1,.17,3.29c-.69,2.09-2.65,3.63-5.91,4.61a6.16,6.16,0,0,1-5.89-1.12,7.06,7.06,0,0,1-2.62-3m12.93,13a3.79,3.79,0,0,1,1.79,2.22,8,8,0,0,1,0,4.2,5.76,5.76,0,0,1-4.68,4.29,6,6,0,0,1-4.9-1.06,5.7,5.7,0,0,1-2.06-2.55q-.78-3,1-3.39c.43-.1,1.21.3,2.34,1.13a4,4,0,0,0,3.1.74c.84-.15,1.26-.91,1.24-2.23s-.2-2.23-.21-2.35c.44-1.49,1.24-1.82,2.42-1m11.67-1.26c.51-.26,1.6.23,3.27,1.4,1.52,1,3.18.81,5-.61.41-3,.79-5.2,1.1-6.45q1-3.38,3.18.91c0,.1.3,1.55.74,4.37,0,3-1.19,5.09-3.64,6.22a7.85,7.85,0,0,1-7,.17,5.88,5.88,0,0,1-2.9-2.49q-1-2.88.32-3.52m10.39-27a3.94,3.94,0,0,1,2.4,2.56l1.53-2.2a37.38,37.38,0,0,1,1.52-4.84q1.6-4,3.4.34s.18,1.34.48,3.86c-.28,2.68-1.8,4.53-4.63,5.54a6.89,6.89,0,0,1-5.9-.48,5.7,5.7,0,0,1-2.65-2.88,1.51,1.51,0,0,1,1-2.32,4.76,4.76,0,0,1,2.84.43m12.32,13.43a8.74,8.74,0,0,0,2.11-.13l3.07-5.5c1.53-2.7,2.84-2.36,3.92,1,.27.84,0,2.23-.75,4.18a6.81,6.81,0,0,1-5,5,4.46,4.46,0,0,1-3.75-.35,3.9,3.9,0,0,1-1.5-2.16c-.53-1.32-.42-2.08.29-2.24a4.26,4.26,0,0,1,1.6.23"/></svg>