<svg id="Layer_1" data-name="Layer 1" xmlns="http://www.w3.org/2000/svg" width="7.06cm" height="7.06cm" viewBox="0 0 200 200"><defs><style>.cls-1{fill:#9a3cbb;}.cls-1,.cls-2{fill-rule:evenodd;}.cls-2{fill:#ff757a;}</style></defs><title>ball-2</title><path class="cls-1" d="M90,178.53A79.16,79.16,0,1,1,178.53,110,79.16,79.16,0,0,1,90,178.53Z"/><path class="cls-2" d="M30.1,62.79c.71-1.21,1.36-2.46,2.08-3.66,8.4-3,55.94-15.81,99.1,13.13,0,0,31.12,16.41,40.18,61.72a57,57,0,0,1-3.88,7.27s-36.42,18.37-88.65-9.75c0,0-41.43-25.19-54.33-55.64A63.56,63.56,0,0,1,30.1,62.79Z"/></svg>