<svg id="Layer_1" data-name="Layer 1" xmlns="http://www.w3.org/2000/svg" width="7.06cm" height="7.06cm" viewBox="0 0 200 200"><defs><style>.cls-1{fill:#f7323f;}.cls-1,.cls-2,.cls-3,.cls-4{fill-rule:evenodd;}.cls-2{fill:#ffdb00;}.cls-3{fill:#fff;}.cls-4{fill:#232225;}.cls-5{fill:none;stroke:#232225;stroke-linecap:round;stroke-linejoin:round;stroke-width:4.83px;}</style></defs><title>crab-3</title><path class="cls-1" d="M120.87,158.3q.7,6.11-3.09,6.54l-.74,0q-1.58,0-1.66-2.16c.12-1.68.16-2.8.14-3.35a9.86,9.86,0,0,0-1.48-4.49,19.79,19.79,0,0,0-2.93-3.7q2.11-.73,3.3-1.05a3.5,3.5,0,0,1,3.18.34q2.59,2,3.28,7.86"/><path class="cls-1" d="M140.59,154.76q.71,6.11-3.09,6.54l-.74,0c-1.05,0-1.61-.74-1.67-2.16.12-1.67.16-2.8.14-3.35a9.86,9.86,0,0,0-1.47-4.49,20.25,20.25,0,0,0-2.94-3.7c1.4-.48,2.51-.84,3.3-1.06a3.5,3.5,0,0,1,3.18.34q2.59,2,3.28,7.86"/><path class="cls-1" d="M124,148a7.17,7.17,0,0,1,3.91,2.45,14.62,14.62,0,0,1,2.75,8.53,5.56,5.56,0,0,1-1.34,3.77q-1.69,1.83-3.71.15A6.57,6.57,0,0,1,124,159.2c-.41-2.52-.65-3.91-.72-4.15a22.71,22.71,0,0,0-2.93-3.51c-1.36-1.5-1.68-2.57-1-3.22Q120.89,147,124,148"/><path class="cls-1" d="M80.43,162.59q.35,2-1.11,2.46l-.74.12c-2.53.36-4-1.54-4.41-5.67q-.59-5.74,1.35-8.33a3.38,3.38,0,0,1,3-1.05,26.13,26.13,0,0,0,3.45.24,21.41,21.41,0,0,0-2.06,4.26,11.27,11.27,0,0,0-.47,4.76,22.64,22.64,0,0,0,1,3.21"/><path class="cls-1" d="M69.94,148.78c2-.82,3.53-.81,4.56,0,.89.58.71,1.65-.53,3.18a34.8,34.8,0,0,0-2.73,3.83q-.08.28-.49,4.11-.26,2.9-1.24,3.87-1.88,1.84-3.62.14a5.89,5.89,0,0,1-1.82-3.74,14.66,14.66,0,0,1,2.17-8.63,7.15,7.15,0,0,1,3.7-2.75"/><path class="cls-1" d="M61.2,155.54q-.71,3.1-.8,3.38c-.5,1.45-1.27,2.16-2.33,2.13q-2.32.09-3.09-2.85a10.94,10.94,0,0,1,.33-5.87,8.56,8.56,0,0,1,3.15-4.86q2.54-1.59,5.5.43-.32,1.13-1.43,3.78a14.78,14.78,0,0,0-1.33,3.86"/><path class="cls-1" d="M167.07,102.72a7.49,7.49,0,0,1,.41,6.49,9.93,9.93,0,0,1-4.42,5.63,6.36,6.36,0,0,1-6.65-.1,14.84,14.84,0,0,1-4.31,4.12,11.39,11.39,0,0,1-5.56,1.62c-2.46,0-4-1-4.71-3.1s-.1-3.78,1.89-5.16q1.84-1.22,6.79-2.15a5.86,5.86,0,0,0,2.33-.78c.25-.19.47-1,.65-2.4a8.38,8.38,0,0,1,3.48-6.11,6.76,6.76,0,0,1,5.53-1.15,6.16,6.16,0,0,1,4.58,3.1"/><path class="cls-1" d="M25.86,96.94a6.31,6.31,0,0,1,6.37-1.83,7.1,7.1,0,0,1,5.05,4.34,12.51,12.51,0,0,1,.66,4A4.53,4.53,0,0,0,39.07,107q1.26,1.2,6.57,2.69,4.76,1.28,5.71,3.09a4.68,4.68,0,0,1,.54,3.46,3.72,3.72,0,0,1-2.07,2.52q-3.62,1.71-9.44-1.54A36.26,36.26,0,0,1,36.62,114l-3-2.87a7.27,7.27,0,0,1-6.6-1.48,9.76,9.76,0,0,1-3.24-6.18,7.73,7.73,0,0,1,2.07-6.52"/><path class="cls-1" d="M110.52,70.24l.24-.94A13.27,13.27,0,0,0,115.85,71a44.85,44.85,0,0,1-2.33,9.3q-1.09,3-3.17,9a12.48,12.48,0,0,0-.58,1.69,2,2,0,0,1-1.07,1.16,5.46,5.46,0,0,1-2.25-.47c-1.45-.56-2.23-.87-2.36-.93q.56.08,6.44-20.51"/><path class="cls-1" d="M65.26,86.71Q84.71,75.45,105,79.85q19.69,4.33,34.34,22.34a46.31,46.31,0,0,1,9.11,19.06q3,12.71-2,20.52-5.94,9.53-24.73,11.38-10.46,1.17-28.88.59-17.27.3-26.27-1.85-15.29-3.76-19.28-15.22-4.2-12.1,1.5-27.84t16.5-22.12"/><path class="cls-2" d="M128.23,142.12q5.1,4.54,5.18,8.81-8,2.54-21.17,2.78-7.24.2-19.42,0-9.38.18-15.06-.25a60.31,60.31,0,0,1-15.64-2.91L58.71,149q2.43-11.52,18.64-15.23a60.43,60.43,0,0,1,11-1.55h4.74q24.94.88,35.15,9.86"/><path class="cls-1" d="M105.11,46Q110.76,41,118.83,43a18.88,18.88,0,0,1,11.57,8.2q4.06,6.33,1.19,13.88a15.06,15.06,0,0,1-10.4,9.7,16.91,16.91,0,0,1-12.86-1,16.31,16.31,0,0,1-8.2-9.9,17.3,17.3,0,0,1-.1-9.57A17.85,17.85,0,0,1,105.11,46"/><path class="cls-3" d="M122.67,68a11.88,11.88,0,0,0,5.44-10.89,14.38,14.38,0,0,0-5.74-10.89,10.42,10.42,0,0,0-4.76-1.94,12.76,12.76,0,0,0-10,2.14,11.24,11.24,0,0,0-5.15,8.64A13.76,13.76,0,0,0,105,64.24a13.44,13.44,0,0,0,7.72,5.69,11.46,11.46,0,0,0,10-2"/><path class="cls-1" d="M93.19,42.84a14.13,14.13,0,0,1,1.17,13.24,14.25,14.25,0,0,1-9.95,9.32,16.15,16.15,0,0,1-12.31-1A15.42,15.42,0,0,1,64.21,55a16.7,16.7,0,0,1,0-9.2,16.46,16.46,0,0,1,4.89-7.9q5.29-4.85,13-2.93a18,18,0,0,1,11.08,7.84"/><path class="cls-3" d="M85.83,58.94A11.29,11.29,0,0,0,91,48.56a13.85,13.85,0,0,0-5.47-10.47A10.37,10.37,0,0,0,81,36.22a12.43,12.43,0,0,0-9.65,2.06,10.9,10.9,0,0,0-4.92,8.32,13.5,13.5,0,0,0,2.47,8.83,13.22,13.22,0,0,0,7.4,5.45,11.05,11.05,0,0,0,9.54-1.93"/><path class="cls-4" d="M80.15,51.45A5.91,5.91,0,0,0,84.25,48a7.13,7.13,0,0,0,.21-5.08,7.51,7.51,0,0,0-3-4.15A6,6,0,0,0,76.21,38,6.52,6.52,0,0,0,72,41.5a5.33,5.33,0,0,0-.8,2.61,7.62,7.62,0,0,0,2.61,6,6.19,6.19,0,0,0,6.32,1.39"/><path class="cls-3" d="M79,50.31a1.89,1.89,0,0,0,1.18-.93,1.93,1.93,0,0,0,.18-1.5,1.75,1.75,0,0,0-1-1.13,2,2,0,0,0-2.67.74A1.91,1.91,0,0,0,76.55,49a2.09,2.09,0,0,0,1,1.14,1.71,1.71,0,0,0,1.49.18"/><path class="cls-4" d="M118,59.09a5.91,5.91,0,0,0,4.11-3.46,7.11,7.11,0,0,0,.21-5.08,7.52,7.52,0,0,0-3-4.15,6,6,0,0,0-5.24-.72,6.51,6.51,0,0,0-4.19,3.45,5.3,5.3,0,0,0-.8,2.61,7.62,7.62,0,0,0,2.61,6A6.19,6.19,0,0,0,118,59.09"/><path class="cls-3" d="M116.84,58A1.89,1.89,0,0,0,118,57a1.93,1.93,0,0,0,.18-1.5,1.74,1.74,0,0,0-1-1.13,2,2,0,0,0-2.67.74,1.93,1.93,0,0,0-.18,1.49,2.09,2.09,0,0,0,1,1.14,1.71,1.71,0,0,0,1.49.18"/><path class="cls-1" d="M83.49,61.08c.31,0,.72,1.74,1.22,5.06q.38,2.59.88,5.82.37,2.49.89,8.33a3.34,3.34,0,0,1-4.7,3.34c-.63-.23-1-1.14-1.23-2.74a29.78,29.78,0,0,0-.14-3.53q-.5-3.33-1.46-8.76-.63-2-.86-3a5,5,0,0,1,.25-3.17q.67-1.7,5.15-1.32"/><path class="cls-4" d="M118.82,95.48a1.86,1.86,0,0,0-2.2,1.22,4.89,4.89,0,0,0-.06,3.24c.92,3.3,2.79,4.41,5.63,3.34q4.85-1.82-.56-6.28a5.46,5.46,0,0,0-2.8-1.52"/><path class="cls-4" d="M72.29,101.63A1.89,1.89,0,0,0,73,104a5.14,5.14,0,0,0,3.15.74q5.11-.32,4.49-4.79-.76-5.16-6.27-.76a6.27,6.27,0,0,0-2.09,2.39"/><path class="cls-5" d="M119.74,99.63q-4.21,10.53-19.14,11.81a28.6,28.6,0,0,1-12.82-1.81q-7.91-2.87-8.88-8.39"/><path class="cls-2" d="M173.23,79.3l0,.53a17.67,17.67,0,0,1,.4,3.72,29.35,29.35,0,0,0,.27,3.74q1.08-.65,11.33-5.68,1.47,5.18-.4,12A26.94,26.94,0,0,1,178,105.55q-5.61,5.69-12.14,5.33a9.68,9.68,0,0,1-7.79-4.24,14.06,14.06,0,0,1-2.07-9,22.56,22.56,0,0,1,4.12-11.4,18.56,18.56,0,0,1,9.53-7.3,8.32,8.32,0,0,1,2.2-.64h1a5.9,5.9,0,0,1,.38,1"/><path class="cls-2" d="M28.94,73.19q1.17-2.2,1.88-3.37l.3-.4c.47-.42.72-.65.78-.68l.83.48a13.33,13.33,0,0,1,1.85,1.49,19,19,0,0,1,5.47,10.69,22.27,22.27,0,0,1-1.22,12,13.6,13.6,0,0,1-5.69,7.15,9.2,9.2,0,0,1-8.83.59q-6-2.35-8.71-9.95a27.27,27.27,0,0,1-1.11-13.7,22.48,22.48,0,0,1,4.74-11.12q7.11,9.07,7.85,10.14c.45-.7,1.07-1.78,1.85-3.26"/></svg>