<svg id="Layer_1" data-name="Layer 1" xmlns="http://www.w3.org/2000/svg" xmlns:xlink="http://www.w3.org/1999/xlink" width="7.06cm" height="7.06cm" viewBox="0 0 200 200"><defs><style>.cls-1{fill:none;}.cls-2{fill:#dce4e8;}.cls-3{fill:#fff;}.cls-4{clip-path:url(#clip-path);}</style><clipPath id="clip-path"><path class="cls-1" d="M72.33,157.26c7,1.09,14.44-1.94,17.81,3.19,2.16,3.3,5.43,7.57,13,4.82,9-3.25,16.19-19.75,12.81-36.13-4.25-20.55-5.65-51.2,4.15-56.64,15.53-8.64,35.32,4.37,33.12,5.35S136.94,84,135.39,97.92c-1.17,10.48,1.7,7.77,6.24,6.11,8.42-3.09,14.62-3.63,15.65-4.73a23,23,0,0,0,2.31-3.3,11.75,11.75,0,0,0,1.87,4.2c1.41,1.83,9.78-.23,16.28,5.91,3.93,3.7,7.95-.33,4.65-10.31C180,88.66,176.83,85.45,174,83.29c-3.82-2.88-7-3.91-6.76-10,.64-15.13-27.5-60.08-88.54-32.61C47.23,54.8,32,95.3,39.87,123.59c.37,1.37.78,2.68,1.19,3.95,7.75,23.25,22.1,28.3,31.27,29.73"/></clipPath></defs><title>dolfin1-3</title><path class="cls-2" d="M107.69,85.77c8.62,3.68,23.79,25.21,21.35,32.14-1.73,5-20.56-8-32.45-8.06-23-.19.21-31.19,11.1-24.08"/><path class="cls-2" d="M78.69,40.65C47.53,55.45,32,95.3,39.86,123.58c7.37,26.64,22.8,32.18,32.47,33.68,7,1.08,14.44-1.94,17.8,3.18,2.17,3.3,5.44,7.57,13,4.83,9-3.25,16.18-19.75,12.81-36.13-4.25-20.55-5.65-51.2,4.15-56.64,15.53-8.64,34,3.11,33.12,5.35-2.13,5.45-16.26,6.14-17.81,20.08-1.17,10.47,1.7,7.77,6.24,6.11,8.42-3.09,14.62-3.63,15.65-4.73a23,23,0,0,0,2.31-3.3,11.75,11.75,0,0,0,1.87,4.2c1.41,1.83,9.78-.23,16.28,5.91,3.93,3.7,7.94-.32,4.65-10.31C176.88,79.1,166.77,84,167.22,73.26c.64-15.13-32.41-58.74-88.54-32.61"/><path class="cls-3" d="M81.63,120.24a10.79,10.79,0,1,1-6.85,13.64,10.79,10.79,0,0,1,6.85-13.64"/><path d="M82.11,124.63a7.73,7.73,0,1,1,1.47,10.82,7.73,7.73,0,0,1-1.47-10.82"/><path class="cls-3" d="M84.36,130.69a1.91,1.91,0,1,1,.36,2.68,1.92,1.92,0,0,1-.36-2.68"/><path class="cls-2" d="M43.49,111.07c-7.77-1.53-24-23.65-23.22-33.52.57-7.07,18.34,2.6,28.17-1.72,19-8.36,5.25,40.35-4.95,35.24"/><g class="cls-4"><path d="M99.61,143.29a3.3,3.3,0,0,0-.87,1.83c-.45,2-.68,4.76,2.23,4.91,4.08.22.67-8.37-1.36-6.74"/><path d="M110.55,154.26c2.07,6.35-1.36,13-1.52,13.32a3.89,3.89,0,0,1-3.09.93,1.2,1.2,0,0,1-.44-1.64c0-.06,3.59-6.39,1.85-11.71-.81-2.55-2.73-4.43-5.68-5.74a1.21,1.21,0,0,1-.61-1.59c.27-.6,1-2.08,1.57-1.81,3.57,1.58,6.67,4.78,7.72,7.93"/><path class="cls-3" d="M103,76.46c-2,8.27.45,17,4.56,24.22,2.73,4.79,9.7,5.66,14,2.77,4.64-3.1,5.43-8.76,3.08-13.44a36.27,36.27,0,0,0,9.5-4.76,21.36,21.36,0,0,0,5.91-6.4c1.61-2.64,1.94-5.68,2-8.69.24-6.46-4.66-11.35-10.41-13.14-3.69-1.15-8.18-.37-11.74.84a25.88,25.88,0,0,0-17,18.6"/></g><path class="cls-2" d="M100.66,70c8.46-2.9,32.9,2.64,35.62,9.09,1.94,4.62-19.63,7.49-28.1,15C91.8,108.63,88.43,71.88,100.66,70"/></svg>