<svg id="Layer_1" data-name="Layer 1" xmlns="http://www.w3.org/2000/svg" width="7.06cm" height="7.06cm" viewBox="0 0 200 200"><defs><style>.cls-1,.cls-3{fill:#fff;}.cls-2{fill:#6dabe4;}.cls-3,.cls-4,.cls-5{fill-rule:evenodd;}.cls-4{fill:#2e2a25;}.cls-5{fill:#bb2253;}</style></defs><title>dolfin2-1</title><path class="cls-1" d="M144.08,166.06a12.45,12.45,0,0,0-1.31-3c-5.17-8.73-20.52-7-21.11,3.86-1.07,19.31,26,12.37,22.42-.86"/><path class="cls-1" d="M172.12,148.1a5.78,5.78,0,0,0-3.74-2.28c-7.68-1.4-11.72,11.08-4,14.12S175.65,152.9,172.12,148.1Z"/><path class="cls-1" d="M68.21,21.47a5.81,5.81,0,0,0-3.75-2.28c-7.69-1.4-11.74,11.08-4,14.12S71.75,26.28,68.21,21.47Z"/><path class="cls-2" d="M126.21,106.2c-9.82,12.85,5.8,23.42-.35,21.73a157.54,157.54,0,0,0-33.47-14.49q-19.67-5.74-25.79-.06a18.91,18.91,0,0,0-6,10.55,21.87,21.87,0,0,0,.74,10.49,27,27,0,0,0,3.86,8c1.51,2.14,2.63,3.18,3.38,3.13,1.32-.08,2.91-.88,4.78-2.39,2.23-2.06,4-3.61,5.37-4.69a22.82,22.82,0,0,1,7-4,17.93,17.93,0,0,1,9.54-.46c4.94,1,7.45,2.22,7.49,3.58a3.75,3.75,0,0,1-1,2.16c-.41.54-1.19,1.44-2.29,2.73a26.18,26.18,0,0,0-4.89,10.5c-.2,1-.43,2.18-.69,3.62-.2,1-.47,1.58-.79,1.7a22.13,22.13,0,0,1-4.14,1.27c.35.22.78.51,1.29.9a11.16,11.16,0,0,1,2.41,2.43,4.14,4.14,0,0,1,.1,2.57c-.37,1.74-.67,3.18-.82,4.28a20.16,20.16,0,0,0,1.28,11.87,4.4,4.4,0,0,1,.45,3.39,2.69,2.69,0,0,1-2.14,1.78c-2.64.61-6.15-.66-10.45-3.84a30,30,0,0,1-7.74-8,29.15,29.15,0,0,1-2.87-6.71,20.36,20.36,0,0,0-2.1-5.18,9.39,9.39,0,0,0-5.37-3.37c-14.12-4-25.07-18.27-29.68-31.65A59.32,59.32,0,0,1,31.11,98.2C35.74,73.34,50.62,55,73.4,44.31a79.28,79.28,0,0,1,50.41-5.6,65.83,65.83,0,0,1,22.3,9.35C157.2,55.39,164.45,63.61,168,72.69a37.94,37.94,0,0,1,1.87,20.1,29,29,0,0,1-1.51,5.49c-.45,1.17-1,2.88-1.86,5.1-1.2,3.79-1,6.72.66,8.79a15.16,15.16,0,0,1,3.29,6.19c.6,2.83-.32,5.77-2.71,8.78a15.91,15.91,0,0,1-7,4.84C144.79,138.23,122.84,124.71,126.21,106.2Z"/><path class="cls-3" d="M144.7,99.54a11.66,11.66,0,1,0-7.65,4.61A11.28,11.28,0,0,0,144.7,99.54Z"/><path class="cls-4" d="M140.21,82.48A8,8,0,0,0,134,80.94a8,8,0,0,0-5.48,3.29,8.35,8.35,0,1,0,11.69-1.75Z"/><path class="cls-3" d="M134.41,92.25a2,2,0,0,0-.4,1.54,2,2,0,0,0,.81,1.35,2.06,2.06,0,0,0,2.91-.43,2,2,0,0,0,.38-1.53,2.11,2.11,0,0,0-2.37-1.76A2,2,0,0,0,134.41,92.25Z"/><path class="cls-2" d="M103.58,90.2a26.7,26.7,0,0,0-11.74,6q-5.25,4.77-4,9.59c.21,2.43,1.32,5.57,3.29,9.41a73,73,0,0,0,7,10.82,56.37,56.37,0,0,0,8.33,8.91c2.94,2.46,5.36,3.68,7.27,3.63,1.3,0,2-1.36,2.26-4a73.93,73.93,0,0,0-.29-9.51c-.4-5.49-.61-9.42-.61-11.8a36.11,36.11,0,0,1,1.25-10.8q2.61-8.24-1.78-11.42Q110.81,88.41,103.58,90.2Z"/><path class="cls-3" d="M75.51,92.08a27.59,27.59,0,0,0-11,8.81,28.21,28.21,0,0,0-3.29,5.54,16,16,0,0,0-1.52,6.25c0,3.46.1,5.36,1.79,8.09,1.73-3.09,8.79-14.79,36-5.66,3.88,1.34,12.08,5.07,15.45,6.67-2.08-2.83-2.05-5.76-2.28-13.4C110.63,105,110.42,101,108,98c-3.24-3.57-2-1.9-5.79-4.09a30.2,30.2,0,0,0-12.86-4.2A27.77,27.77,0,0,0,75.51,92.08Z"/><path class="cls-2" d="M131.54,48.29c.44,2.89-2,5-7.28,6.45a46.57,46.57,0,0,1-16.61,1c-6.57-.64-11.28-2.1-14.18-4.4-3.37-2.67-3.31-6,.14-9.84a20.28,20.28,0,0,0,4-8.34c.5-1.9,1.08-5.17,1.76-9.77a36.78,36.78,0,0,1,1.7-7.83c.84-2,2.12-2.86,3.79-2.46,2.49.61,5.42,2.39,8.74,5.37a67.54,67.54,0,0,1,8.88,10,64.2,64.2,0,0,1,6.78,11.09Q131.93,45.21,131.54,48.29Z"/><path class="cls-2" d="M99.55,86.56c3.2,1.71,12.44,6.45,8.37,11-4.27,4.86-10.52,7.7-15,12.66-1.48,1.68-3.88,4.59-7.1,8.74A65.24,65.24,0,0,1,80,125.92c-1.83,1.71-3.2,2.14-4.13,1.35-1.38-1.18-2.32-3.58-2.81-7.21a53.66,53.66,0,0,1-.22-11.59,67.62,67.62,0,0,1,2-12.14,25.86,25.86,0,0,1,3.67-8.75c1.45-2.82,4.42-4.23,8.9-4.22A25.06,25.06,0,0,1,99.55,86.56Z"/><path class="cls-5" d="M140.85,63.39q4.18-1.2,2.88-4.38-1.49-3.64-6.05-2.67a20,20,0,0,0-6.84,3.19,15.59,15.59,0,0,0,1.88-4.43,11.91,11.91,0,0,0,.35-4.67q-.76-5.15-6.55-4.13-3.87.68-3.8,4.85a16.88,16.88,0,0,0,.51,3.56c.39,1.5.65,2.54.78,3.14a6.89,6.89,0,0,0-3.2-2.85,10.44,10.44,0,0,0-4.55-1.11,6.06,6.06,0,0,0-4,1.19,4.46,4.46,0,0,0-1.53,4q.2,3.49,4.47,4.92a9.91,9.91,0,0,0,7,.06,6.86,6.86,0,0,0-4,4.58,5.18,5.18,0,0,0,5,6.82,7.13,7.13,0,0,0,5.87-3.42,4.75,4.75,0,0,0,.66-2.19,7.1,7.1,0,0,0,2.43,3.66Q135,76.1,138,75q4-1.43,2-5.61a12.11,12.11,0,0,0-2.42-3.2,10.4,10.4,0,0,0-3-2.16A26.6,26.6,0,0,0,140.85,63.39Z"/><path class="cls-3" d="M124.48,63.38a3.17,3.17,0,0,0,1.13,2.21,3.11,3.11,0,0,0,2.39.72,3.07,3.07,0,0,0,2.19-1.14,3.25,3.25,0,1,0-5-4.16A3.19,3.19,0,0,0,124.48,63.38Z"/></svg>