<svg id="Layer_1" data-name="Layer 1" xmlns="http://www.w3.org/2000/svg" xmlns:xlink="http://www.w3.org/1999/xlink" width="7.06cm" height="7.06cm" viewBox="0 0 200 200"><defs><style>.cls-1{fill:none;}.cls-2{fill:#ffd6aa;}.cls-3{fill:#fff;}.cls-4{clip-path:url(#clip-path);}</style><clipPath id="clip-path"><path class="cls-1" d="M122.9,39.6c-7-.43-14,3.22-17.77-1.5-2.43-3-6-6.93-13.18-3.54-8.5,4-14.07,20.86-9.25,36.64,6.05,19.77,10.24,49.71,1.13,56-14.45,9.9-35-1-33-2.21s15.39-7.52,15.63-21.33c.18-10.38-2.37-7.47-6.68-5.42-8,3.8-14,4.9-14.92,6.07a22.93,22.93,0,0,0-2,3.46,11.62,11.62,0,0,0-2.23-4c-1.55-1.67-9.57,1.13-16.52-4.3-4.18-3.27-7.75,1-3.61,10.55,3,6.79,6.41,9.64,9.4,11.5,4,2.48,7.25,3.19,7.55,9.22.76,14.9,32.5,56.42,89.87,23.86,29.56-16.78,40.75-57.91,30.47-84.94q-.74-2-1.54-3.77C146.57,43.79,132,40.15,122.9,39.6"/></clipPath></defs><title>dolfin5-3</title><path class="cls-2" d="M94.77,113C86,110.17,69.12,90.45,70.86,83.43c1.25-5,20.91,5.93,32.59,4.93C126,86.42,106.09,119,94.77,113"/><path class="cls-2" d="M127.37,154.6c29.21-17.39,40.75-57.91,30.47-84.94-9.68-25.47-25.32-29.48-34.95-30.08-7-.42-14,3.23-17.77-1.49-2.44-3-6-6.93-13.18-3.54-8.5,4-14.08,20.87-9.25,36.64,6,19.77,10.23,49.71,1.12,56-14.45,9.9-33.64.07-33-2.21,1.59-5.54,15.39-7.52,15.63-21.33.18-10.38-2.38-7.46-6.69-5.42-8,3.8-14,4.9-14.92,6.07a22.93,22.93,0,0,0-2,3.46,11.62,11.62,0,0,0-2.23-4c-1.55-1.67-9.56,1.13-16.52-4.3-4.18-3.27-7.75,1-3.61,10.55,6.94,15.87,16.42,10.18,17,20.72.76,14.9,37.19,54.66,89.87,23.86"/><path class="cls-3" d="M117.17,76.78a10.64,10.64,0,1,1,5.46-14,10.61,10.61,0,0,1-5.46,14"/><path d="M116,71.8a7.61,7.61,0,1,1-2.43-10.49A7.61,7.61,0,0,1,116,71.8"/><path class="cls-3" d="M114.31,68.62a1.89,1.89,0,1,1-.61-2.6,1.89,1.89,0,0,1,.61,2.6"/><path class="cls-2" d="M155.43,82.27c7.76.8,25.74,21,25.86,30.76.09,7-18.24-.88-27.49,4.28-17.88,9.95-8.86-39.12,1.62-35"/><g class="cls-4"><path d="M97.4,55.82a3.28,3.28,0,0,0,.69-1.88c.26-2,.23-4.73-2.64-4.62-4,.16.11,8.27,1.95,6.49"/><path d="M86,45.93c-2.62-6,.55-13.27.69-13.57a2,2,0,0,1,2.15-.7,1.19,1.19,0,0,1,.59,1.57c0,.07-2.94,6.6-.74,11.66,1,2.43,3.09,4.1,6.09,5.11a1.19,1.19,0,0,1,.75,1.5c-.22.62-.62,1.64-1.25,1.45a12.72,12.72,0,0,1-8.28-7"/><path class="cls-3" d="M100.24,121.69c1.18-8.29-2-16.65-6.7-23.34-3.11-4.45-10-4.66-14-1.43-4.26,3.46-4.52,9.1-1.79,13.47a36.13,36.13,0,0,0-8.89,5.54,21.21,21.21,0,0,0-5.2,6.83c-1.35,2.73-1.39,5.74-1.22,8.71.36,6.36,5.62,10.71,11.43,11.94,3.74.79,8.07-.39,11.46-1.91a25.52,25.52,0,0,0,14.92-19.81"/></g><path class="cls-2" d="M103.11,127.86c-8,3.61-32.53.43-35.79-5.65C65,117.85,85.9,113.05,93.5,104.89c14.75-15.79,21.43,20,9.61,23"/></svg>