<svg id="Layer_1" data-name="Layer 1" xmlns="http://www.w3.org/2000/svg" xmlns:xlink="http://www.w3.org/1999/xlink" width="7.06cm" height="7.06cm" viewBox="0 0 200 200"><defs><style>.cls-1{fill:none;}.cls-2{fill:#cbe8fc;}.cls-3{fill:#005cb9;}.cls-4{fill:#fff;}.cls-5{clip-path:url(#clip-path);}</style><clipPath id="clip-path"><path class="cls-1" d="M29.78,116.77c4.08,6.56,11.86,10.55,10,17-1.18,4.13-2.39,9.86,5.25,14.15,9.05,5.09,27.82-.67,38.94-15.12,14-18.11,38.26-41.06,49.72-36.84,18.17,6.69,21.5,32.27,19.13,31.14s-16.63-9.06-29.24-.43c-9.48,6.49-5.2,6.93-.6,9.5,8.54,4.76,13.39,9.49,15,9.56a25,25,0,0,0,4.37-.44,12.85,12.85,0,0,0-2.14,4.54c-.51,2.47,7.15,7.91,6.7,17.64-.26,5.88,5.92,6.33,11.82-3.49,4.23-7,4.59-11.95,4.35-15.84-.33-5.2-1.76-8.57,3.48-12.71,12.95-10.23,30-65.43-36-96.3C96.53,23.18,52.28,39.43,34.5,66q-1.29,1.93-2.41,3.8c-13.69,22.93-7.66,38.37-2.31,47"/></clipPath></defs><title>dolfin3-3</title><path class="cls-2" d="M133,172.76c1.69-2.54,3.25-5.37,2.36-6.19s-3.89,1.13-4.8,1.53a31.22,31.22,0,0,1-7.21,2.07c-4.73.89-11.12.86-15.16,3.67-3.32,2.32-5.78,7.18-2.79,10.81s7.92,2.86,11.89,1.6c5-1.59,9.24-5.12,12.52-9.15C130.21,176.61,131.66,174.78,133,172.76Z"/><path class="cls-2" d="M116.09,154a15.39,15.39,0,0,1,4.4.86,34.14,34.14,0,0,1,3.37,1.48,24.64,24.64,0,0,1,2.27,1.23c.41.26,1.46,1,1.2,1.56-.15.34-.66.52-1,.67a47.63,47.63,0,0,1-6.83,2.54,25.27,25.27,0,0,1-2.52.53,7.85,7.85,0,0,1-2.28,0,11.26,11.26,0,0,1-1.83-.24c-2.17-.57-4.14-3.3-3.19-5.52C110.78,154.65,113.44,153.93,116.09,154Z"/><path class="cls-3" d="M114,95.11c3.09,9.74-3.9,37.57-11.35,40.49-5.34,2.1-8-22.64-16.42-32.53-16.21-19.13,25.91-22,27.77-8"/><path class="cls-3" d="M130.59,39.09C96.21,23.89,52.28,39.43,34.5,66c-16.76,25-10.36,41.7-4.72,50.76,4.09,6.55,11.87,10.55,10,17-1.18,4.14-2.39,9.87,5.25,14.15,9.06,5.08,27.82-.68,38.94-15.13,14-18.11,38.26-41.06,49.72-36.84,18.17,6.69,21.6,30.28,19.13,31.15-6,2.12-16.63-9.06-29.24-.43-9.48,6.48-5.2,6.93-.6,9.5,8.54,4.76,13.39,9.49,15,9.56a25.21,25.21,0,0,0,4.37-.44,12.85,12.85,0,0,0-2.14,4.54c-.51,2.47,7.15,7.91,6.7,17.64-.26,5.88,5.92,6.33,11.83-3.49,9.87-16.42-1.33-21.32,7.83-28.55,12.95-10.23,25.46-68.53-36-96.3"/><path class="cls-4" d="M67,98.12a11.76,11.76,0,1,1-16.13,4.05A11.75,11.75,0,0,1,67,98.12"/><path d="M60.31,96.36a8.42,8.42,0,1,1-7.89,8.91,8.42,8.42,0,0,1,7.89-8.91"/><path class="cls-4" d="M60.17,106.86a2.08,2.08,0,1,1-2,2.21,2.08,2.08,0,0,1,2-2.21"/><path class="cls-3" d="M47.41,60.1c-4.25-7.51,2.46-36.65,11.17-43,6.24-4.55,10.9,17,21.45,22,20.42,9.76-29.58,33-32.62,21"/><g class="cls-5"><path d="M60.72,129.36a3.63,3.63,0,0,0-2.13.58c-1.95,1-4.41,2.82-2.47,5.33,2.73,3.53,7.39-5.4,4.6-5.91"/><path d="M59.26,146.21c-3.76,6.22-12.11,7.77-12.47,7.84a2.84,2.84,0,0,1-2.4-1.54,1.31,1.31,0,0,1,1-1.53c.08,0,7.83-1.58,11-6.79,1.53-2.49,1.72-5.41.71-8.77a1.31,1.31,0,0,1,.87-1.63c.69-.21,2.16-.73,2.39,0a16,16,0,0,1-1.12,12.47"/><path class="cls-4" d="M118.29,84.62c-8.23,4.25-13.73,12.48-16.76,21-2,5.65,2.23,12,7.69,13.55,5.85,1.62,11.1-1.74,13.29-7a39.76,39.76,0,0,0,10.68,4.46,23.34,23.34,0,0,0,9.48.31c3.33-.53,6.07-2.43,8.63-4.48,5.51-4.39,6.06-11.92,3.45-17.94-1.68-3.87-5.52-7-9-9.1a28.18,28.18,0,0,0-27.42-.77"/></g><path class="cls-3" d="M122,78.09c8.41,4.92,21.22,29,17.82,35.87-2.44,4.89-20.14-10.88-32.37-12.52C83.78,98.26,111.73,69.35,122,78.09"/></svg>