<svg id="Layer_1" data-name="Layer 1" xmlns="http://www.w3.org/2000/svg" width="7.06cm" height="7.06cm" viewBox="0 0 200 200"><defs><style>.cls-1,.cls-3{fill:#fff;}.cls-2{fill:#005cb9;}.cls-3,.cls-4{fill-rule:evenodd;}</style></defs><title>dolfin4-3</title><path class="cls-1" d="M144.59,166.56a12.45,12.45,0,0,0-1.31-3c-5.17-8.73-20.52-7-21.11,3.86-1.07,19.31,26,12.37,22.42-.86"/><path class="cls-1" d="M172.63,148.6a5.78,5.78,0,0,0-3.74-2.28c-7.68-1.4-11.72,11.08-4,14.12S176.16,153.4,172.63,148.6Z"/><path class="cls-1" d="M68.72,22A5.81,5.81,0,0,0,65,19.69c-7.69-1.4-11.74,11.08-4,14.12S72.26,26.77,68.72,22Z"/><path class="cls-2" d="M126.73,106.7c-9.81,12.81,5.71,23.37-.33,21.73a158.51,158.51,0,0,0-33.5-14.49q-19.64-5.74-25.77-.06a18.8,18.8,0,0,0-6,10.55,21.87,21.87,0,0,0,.74,10.49,27,27,0,0,0,3.86,8c1.51,2.14,2.63,3.18,3.38,3.13,1.32-.08,2.89-.88,4.76-2.39,2.25-2.06,4-3.61,5.37-4.69a23.14,23.14,0,0,1,7-4,17.9,17.9,0,0,1,9.54-.46c4.94,1,7.44,2.22,7.49,3.58a3.88,3.88,0,0,1-1,2.16c-.43.54-1.19,1.44-2.29,2.73A25.92,25.92,0,0,0,95,153.44c-.22,1-.44,2.18-.71,3.62-.2,1-.47,1.58-.77,1.71A21.83,21.83,0,0,1,89.41,160a14.55,14.55,0,0,1,1.31.91,11,11,0,0,1,2.39,2.43,4,4,0,0,1,.1,2.57c-.37,1.74-.65,3.18-.82,4.28a20,20,0,0,0,1.29,11.87,4.48,4.48,0,0,1,.45,3.39A2.76,2.76,0,0,1,92,187.27q-4,.92-10.45-3.84a30,30,0,0,1-7.74-8,29.15,29.15,0,0,1-2.87-6.71,20.36,20.36,0,0,0-2.1-5.18,9.45,9.45,0,0,0-5.37-3.37c-14.14-4-25.07-18.27-29.68-31.65A58.9,58.9,0,0,1,31.64,98.7c4.62-24.86,19.5-43.24,42.29-53.89a77.11,77.11,0,0,1,25.12-7,77.89,77.89,0,0,1,25.26,1.38,66.06,66.06,0,0,1,22.32,9.35q16.6,11,21.85,24.63a37.76,37.76,0,0,1,1.89,20.1,30.75,30.75,0,0,1-1.53,5.49c-.43,1.18-1,2.88-1.86,5.1q-1.81,5.68.66,8.79a15.24,15.24,0,0,1,3.3,6.19c.58,2.83-.32,5.77-2.71,8.78a16,16,0,0,1-7,4.84C145.3,138.73,123.37,125.22,126.73,106.7Z"/><path class="cls-3" d="M145.21,100a11.66,11.66,0,1,0-7.65,4.61A11.28,11.28,0,0,0,145.21,100Z"/><path class="cls-4" d="M140.72,83a8,8,0,0,0-6.22-1.54A8,8,0,0,0,129,84.73,8.35,8.35,0,1,0,140.72,83Z"/><path class="cls-3" d="M134.92,92.75a2,2,0,0,0-.4,1.54,2,2,0,0,0,.81,1.35,2.06,2.06,0,0,0,2.91-.43,2,2,0,0,0,.38-1.53,2.11,2.11,0,0,0-2.37-1.76A2,2,0,0,0,134.92,92.75Z"/><path class="cls-2" d="M104.09,90.69a26.7,26.7,0,0,0-11.74,6q-5.25,4.77-4,9.59c.21,2.43,1.32,5.57,3.29,9.41a73,73,0,0,0,7,10.82,56.36,56.36,0,0,0,8.33,8.91c2.94,2.46,5.36,3.68,7.27,3.63,1.3,0,2-1.36,2.26-4a73.93,73.93,0,0,0-.29-9.51c-.4-5.49-.61-9.42-.61-11.8a36.12,36.12,0,0,1,1.25-10.8q2.61-8.24-1.78-11.42Q111.32,88.91,104.09,90.69Z"/><path class="cls-3" d="M76,92.58a27.6,27.6,0,0,0-11,8.81,28.21,28.21,0,0,0-3.29,5.54,16,16,0,0,0-1.52,6.25c0,3.46.11,5.36,1.79,8.09,1.73-3.09,8.79-14.79,36-5.66,3.88,1.34,12.08,5.07,15.45,6.67-2.08-2.83-2.05-5.76-2.28-13.4-.05-3.43-.26-7.43-2.66-10.38-3.24-3.57-2-1.9-5.79-4.09a30.2,30.2,0,0,0-12.85-4.2A27.77,27.77,0,0,0,76,92.58Z"/><path class="cls-2" d="M132,48.79q.65,4.34-7.28,6.45a46.5,46.5,0,0,1-16.61,1c-6.55-.64-11.26-2.1-14.16-4.4-3.39-2.67-3.31-6,.14-9.84a20,20,0,0,0,4-8.34c.5-1.9,1.08-5.17,1.76-9.77a35.24,35.24,0,0,1,1.72-7.83c.84-2,2.1-2.86,3.79-2.46,2.49.61,5.42,2.39,8.72,5.36A66.63,66.63,0,0,1,123,29a65.35,65.35,0,0,1,6.78,11.09C131.55,43.83,132.31,46.73,132,48.79Z"/><path class="cls-2" d="M100.08,87.06c3.18,1.71,12.42,6.45,8.37,11-4.29,4.86-10.52,7.7-15,12.66-1.5,1.68-3.88,4.59-7.1,8.74a67.86,67.86,0,0,1-5.88,6.92c-1.83,1.71-3.2,2.14-4.13,1.35-1.38-1.18-2.32-3.58-2.83-7.21a53.76,53.76,0,0,1-.2-11.58,69.44,69.44,0,0,1,2-12.14A26.27,26.27,0,0,1,79,88.08q2.17-4.23,8.92-4.22A25.1,25.1,0,0,1,100.08,87.06Z"/></svg>