<svg id="Layer_1" data-name="Layer 1" xmlns="http://www.w3.org/2000/svg" width="7.06cm" height="7.06cm" viewBox="0 0 200 200"><defs><style>.cls-1{fill:#3aae6c;}</style></defs><title>drop-4</title><path class="cls-1" d="M136.4,127.51c4.56-1.33,8-3.17,7.46-5.63-.27-1.23-3.34-1.56-4.52-1.77A31.05,31.05,0,0,1,125.42,114c-6.1-4.78-10.2-11.56-14.1-18.14A72.44,72.44,0,0,0,96.44,77.7c-7.83-6.82-20-10.41-30-6.48C55.32,75.61,54.35,86.66,58,96.64a44.38,44.38,0,0,0,24.88,26.47,86.68,86.68,0,0,0,35.07,7.29A93.3,93.3,0,0,0,136.4,127.51Z"/></svg>