<svg id="Layer_1" data-name="Layer 1" xmlns="http://www.w3.org/2000/svg" width="7.06cm" height="7.06cm" viewBox="0 0 200 200"><defs><style>.cls-1{fill:#bdccd4;}.cls-1,.cls-2,.cls-3,.cls-4{fill-rule:evenodd;}.cls-2{fill:#fff;}.cls-4{fill:#ff8300;}</style></defs><title>fing3-1</title><path class="cls-1" d="M144.79,92.49q6.33.11,15.46,5.21a62.08,62.08,0,0,1,14.95,11.67q6.64,7.28,6.23,12.53a7.7,7.7,0,0,1-.67,3.19q-2,2.61-8.82,2.06-19-1.5-28.1-10.2A20.72,20.72,0,0,1,137,99.52q.55-7,7.79-7"/><path class="cls-1" d="M41.3,101.18Q50.75,97,57.07,97.25c4.81.29,7.24,2.63,7.29,7.05q.13,9.59-8,15.93-9.71,7.59-28.72,7.84c-4.56.05-7.45-.76-8.65-2.48a6.72,6.72,0,0,1-.45-3q-.06-4.94,7.05-11.35a62.53,62.53,0,0,1,15.7-10"/><path class="cls-1" d="M137.52,50.5C148.58,61,153.83,75.65,154.59,90.37c1.16,22.47-6.83,54.22-28.71,66.23a107.36,107.36,0,0,1-12.43,5.87A48.08,48.08,0,0,1,99,165.39a167.16,167.16,0,0,1-18.15-.09q-16.53-1.88-21.61-4.22A47.83,47.83,0,0,1,50,155.61q-4.18-3.18-4.68-3.69l-1-1A7.52,7.52,0,0,1,43.15,149a3.94,3.94,0,0,1-.54-2.66,9.43,9.43,0,0,1,1.31-3.23c.72-1.36,2.31-2,4.76-2s4.11-1.8,5-5.46l-.1-2.19a166.47,166.47,0,0,0-2.36-16.82,183.06,183.06,0,0,1-2.63-22.45c-.31-6.38-.47-10-.48-11C48,64.91,53.68,53.94,70.47,44.4c11.39-6.47,32.39-10.5,45.11-6.46A56.19,56.19,0,0,1,137.52,50.5"/><path class="cls-2" d="M68.52,61.47q11.29-11.16,33.9-10.53c12.71.36,25.79,2.66,32.79,14.52,9.11,15.43,9,38.65,4.75,55.47-6.69,26.55-27.76,36.21-53.62,30.66-7-1.5-13.62-5.11-17.26-11.52-6.17-10.85-8.39-23.53-9.36-35.8q-2.48-31.69,8.8-42.8"/><path class="cls-3" d="M116.17,78.32a9.86,9.86,0,0,1,6.31-4.79,10.25,10.25,0,0,1,7.62,1,9.89,9.89,0,0,1,4.82,6.2,10.16,10.16,0,0,1-.94,7.64,11.51,11.51,0,0,1-6.15,5.17,11.16,11.16,0,0,1-8-1.16,9.72,9.72,0,0,1-4.89-6.22,10.66,10.66,0,0,1,1.22-7.84"/><path class="cls-2" d="M130.36,78.75a2.4,2.4,0,0,1-1,1.58,2.34,2.34,0,0,1-3.25-.47,2.52,2.52,0,0,1-.41-1.8,2.14,2.14,0,0,1,.85-1.51,2.37,2.37,0,0,1,1.81-.5,2.69,2.69,0,0,1,1.62,1,2.13,2.13,0,0,1,.34,1.68"/><path class="cls-3" d="M70.59,80.5A9.69,9.69,0,0,1,78,78.25a10,10,0,0,1,6.66,3.55,11.32,11.32,0,0,1,2.58,7.45,11,11,0,0,1-3.88,6.92,9.59,9.59,0,0,1-7.42,2.29,10.41,10.41,0,0,1-6.74-3.89A9.59,9.59,0,0,1,67,87.12a10.06,10.06,0,0,1,3.59-6.62"/><path class="cls-2" d="M74.29,82.17a2.36,2.36,0,0,1,1.11,1.44,2,2,0,0,1-.2,1.72,2,2,0,0,1-1.38,1.09A2.55,2.55,0,0,1,72,86.17,2.11,2.11,0,0,1,71,84.87,2.35,2.35,0,0,1,71.14,83a2.65,2.65,0,0,1,1.5-1.11,2,2,0,0,1,1.65.27"/><path class="cls-4" d="M104.33,90.08a8,8,0,0,1,2.47,2.12l2.77-.13q2.66-.13,3.5,1.37a2.29,2.29,0,0,1,.37,1.52c.09,1.81-.8,3.63-2.69,5.45a12.28,12.28,0,0,1-8.34,3.6c-4.06.19-7.2-.62-9.46-2.44a5.38,5.38,0,0,1-2.43-3.84q-.11-2.36.68-3.17a2.73,2.73,0,0,1,1.91-.74,14,14,0,0,0,2.65-.37,4.75,4.75,0,0,0,2.68-2,4.72,4.72,0,0,1,2.37-1.3,4.92,4.92,0,0,1,3.54-.05"/><path d="M101.34,102.64a8.71,8.71,0,0,1-3.61-.64A11.69,11.69,0,0,1,94,99l1.82-1.59a9.32,9.32,0,0,0,2.93,2.38c.65.3,2,.59,4.63.29,2-.19,3.61-1.47,5.09-3.92l2.07,1.25c-1.88,3.09-4.2,4.79-6.9,5.06A20,20,0,0,1,101.34,102.64Z"/><path class="cls-3" d="M94.36,99a1.3,1.3,0,0,1-1.09-.48,1.65,1.65,0,0,1-.46-1.1,1.94,1.94,0,0,1,.35-1.2,1.37,1.37,0,0,1,1-.52,1.28,1.28,0,0,1,1,.42,1.9,1.9,0,0,1,.47,1.16,1.67,1.67,0,0,1-.36,1.15,1.25,1.25,0,0,1-1,.58"/><path class="cls-3" d="M108.86,97.08a1.65,1.65,0,0,1-.46-1.1,1.68,1.68,0,0,1,.35-1.2,1.66,1.66,0,0,1,1.1-.52,1.19,1.19,0,0,1,1,.42,1.55,1.55,0,0,1,.59,1.16,1.48,1.48,0,0,1-.48,1.15,1.25,1.25,0,0,1-.92.51,1.66,1.66,0,0,1-1.15-.41"/><path class="cls-1" d="M100.54,30.64a6.64,6.64,0,0,0,.49,7.54q2.61,3.78,2.18,4.62a1.92,1.92,0,0,1-1,.88,3.56,3.56,0,0,1-2.8-.46,9.84,9.84,0,0,1-2.32-1.59,8.52,8.52,0,0,0-1.84-1.39q-3.34-1.79-2.86-6.49A13.14,13.14,0,0,1,93.66,29q2.11-4.11,5.21-3.68c2.05.25,2.62,2,1.67,5.3"/><path class="cls-4" d="M99.09,141.55c-6.57-6.45-23.86,4.06-27.35,10.17-3.27,5.73,2.58,11.49,6.69,15.27,4.49,4.13,13,11,19.05,5.87,4.86-4.19,4.71-12.45,4.39-18.18C101.69,151.32,101.79,144.2,99.09,141.55Z"/><path class="cls-4" d="M115.66,137.26c6.48-6.53,23.91,3.75,27.48,9.8,3.35,5.69-2.43,11.52-6.49,15.36-4.43,4.19-12.89,11.22-19,6.12-4.92-4.13-4.87-12.39-4.62-18.12C113.2,147.06,113,139.95,115.66,137.26Z"/><path class="cls-2" d="M87.14,96.78c-3.4,2.63-9.33,6-13.86,4.55.66-5.5,12.43-12.8,17.27-8.49A9.83,9.83,0,0,1,87.14,96.78Z"/><path class="cls-2" d="M125.17,96.17c-4.29-.16-11-1.4-13.54-5.4,4-3.8,17.74-1.84,18.7,4.57A9.8,9.8,0,0,1,125.17,96.17Z"/></svg>