<svg id="Layer_1" data-name="Layer 1" xmlns="http://www.w3.org/2000/svg" width="7.06cm" height="7.06cm" viewBox="0 0 200 200"><defs><style>.cls-1{fill:#010101;}.cls-1,.cls-2,.cls-4{fill-rule:evenodd;}.cls-2{fill:#fff;}.cls-3{fill:none;stroke:#fff;stroke-linecap:round;stroke-linejoin:round;stroke-width:5.72px;}</style></defs><title>fish1-4</title><path class="cls-1" d="M116.48,64a59.17,59.17,0,0,0-21.14,4.75,148.64,148.64,0,0,0-19.41,9.81l-.3.23a66.13,66.13,0,0,0-9.17-28.12,15.82,15.82,0,0,0-6.94-6.5q-5.08-2.58-9,.45Q44.5,49.25,46,60q.78,5,5,13.7c.81,1.74,2.21,4.52,4.23,8.3q1.68,4.83-2.65,7.63-4,2.58-13,7.55Q31.91,102,29,107.47a17.44,17.44,0,0,0-2.13,9.41,9.52,9.52,0,0,0,4.7,7.81q6.93,4.46,21.34-6.71a65.69,65.69,0,0,0,9.37-9.23c3.63-4.73,6.38-8.24,8.19-10.59a83.31,83.31,0,0,0,13.9,32.18q11.31,15.94,27,21.35a43.08,43.08,0,0,0,30.63-1,43,43,0,0,0,22.94-20.16q7.12-13.62,4.49-30Q166.67,83.85,155,74.24,142.12,63.58,116.48,64"/><path class="cls-2" d="M128,86.44a12.52,12.52,0,0,0-7.32,8.17,14.61,14.61,0,0,0,1.11,10.33,14.77,14.77,0,0,0,7.09,7.39,12.28,12.28,0,0,0,10.84,0,14,14,0,0,0,7.53-8.21,11,11,0,0,0,.87-5.41,15.64,15.64,0,0,0-7-11.26,12.85,12.85,0,0,0-13.08-1"/><path class="cls-3" d="M138.33,152a40,40,0,0,1-11.06-12.74,21.45,21.45,0,0,1-2.15-15.15"/><path class="cls-2" d="M122.1,120.8a3,3,0,0,0,0,2.68,3.58,3.58,0,0,0,2,1.91,3.06,3.06,0,0,0,2.69,0,3.32,3.32,0,0,0,1.91-2,3.47,3.47,0,0,0,0-2.68,4.28,4.28,0,0,0-2-1.91,3.5,3.5,0,0,0-4.59,2"/><path class="cls-4" d="M125.69,98.93a9.29,9.29,0,1,0,12.9-2.49A9.29,9.29,0,0,0,125.69,98.93Z"/><path class="cls-2" d="M131.14,98.94a2.68,2.68,0,1,0,3.72-.72A2.68,2.68,0,0,0,131.14,98.94Z"/></svg>