<svg id="Layer_1" data-name="Layer 1" xmlns="http://www.w3.org/2000/svg" xmlns:xlink="http://www.w3.org/1999/xlink" width="7.06cm" height="7.06cm" viewBox="0 0 200 200"><defs><style>.cls-1,.cls-4{fill:none;}.cls-2{fill:#ff9094;}.cls-2,.cls-3,.cls-7{fill-rule:evenodd;}.cls-3{fill:#fff;}.cls-4{stroke:#fff;stroke-linecap:round;stroke-linejoin:round;stroke-width:6.17px;}.cls-5{clip-path:url(#clip-path);}.cls-6{fill:#3aae6c;}</style><clipPath id="clip-path"><path class="cls-1" d="M124.67,44.39q14.06-.38,26.22,9.71,11.87,9.91,15.2,23.84a40,40,0,0,1-3.77,28.21,40.23,40.23,0,0,1-20.95,19.45q-14.32,5.78-32,1.52A77.52,77.52,0,0,1,79.86,113c.16,2.77.39,6.92.72,12.44a61.73,61.73,0,0,1-.92,12.24q-3.27,16.68-10.89,17.8a8.94,8.94,0,0,1-8.09-2.61,16.3,16.3,0,0,1-4.26-7.93c-.87-3.77-.5-8.34,1.13-13.67q3.28-9,4.53-13.27a5.54,5.54,0,0,0-2.82-7,45.5,45.5,0,0,0-8-3.26q-8.29-3.57-11.89-6.57a20.55,20.55,0,0,1-5.44-6.83l-.18-.41A10.74,10.74,0,0,1,33,87.61c.62-3,2.65-5,6.09-5.86a14.81,14.81,0,0,1,8.85.32A61.8,61.8,0,0,1,71.66,96.22l.06-.34a138.15,138.15,0,0,1,7.65-18.78A55,55,0,0,1,91.3,60.82q10.09-9.08,19.46-13.15a37.51,37.51,0,0,1,13.9-3.28"/></clipPath></defs><title>fish2-3</title><path class="cls-2" d="M91.44,60.89A54.92,54.92,0,0,0,79.51,77.14a137.68,137.68,0,0,0-7.62,18.75l-.07.34A61.74,61.74,0,0,0,48.2,82.11a14.74,14.74,0,0,0-8.84-.32c-3.43.86-5.45,2.82-6.07,5.84q-1.36,6.92,6.28,13.56,3.58,3,11.86,6.58c1.63.73,4.31,1.83,8,3.24a5.52,5.52,0,0,1,2.8,7q-1.26,4.27-4.5,13.24c-1.63,5.34-2,9.88-1.15,13.65a16.26,16.26,0,0,0,4.26,7.9,8.89,8.89,0,0,0,8.07,2.61q7.6-1.12,10.87-17.76a60.93,60.93,0,0,0,.93-12.2c-.33-5.53-.56-9.67-.72-12.44a77.51,77.51,0,0,0,29.43,14.09q17.67,4.27,32-1.52a40.08,40.08,0,0,0,20.9-19.4A40,40,0,0,0,166.1,78q-3.33-13.9-15.19-23.79-12.11-10.08-26.16-9.71-15.58.42-33.31,16.4"/><path class="cls-3" d="M113.23,69.59a11.69,11.69,0,0,0-.14,10.21,13.58,13.58,0,0,0,7.09,6.57,13.79,13.79,0,0,0,9.5.85,11.42,11.42,0,0,0,7.61-6.61,13,13,0,0,0,.27-10.36,10.11,10.11,0,0,0-2.7-4.32A14.55,14.55,0,0,0,123,62.32a12,12,0,0,0-9.81,7.27"/><path class="cls-4" d="M160.58,109.28A37.18,37.18,0,0,1,145,107.1a20,20,0,0,1-10.78-9.31"/><path class="cls-3" d="M130.11,97.31a2.84,2.84,0,0,0,1.65,1.88,3.32,3.32,0,0,0,2.54.14,2.81,2.81,0,0,0,1.88-1.64,3.1,3.1,0,0,0,.15-2.55,3.27,3.27,0,0,0-1.65-1.88,4,4,0,0,0-2.55-.14,3.27,3.27,0,0,0-2,4.19"/><g class="cls-5"><path class="cls-6" d="M126.4,146.89a3.59,3.59,0,0,1-2.91-1.48c-7-9.66-12.25-17.1-15.53-22.12a121.88,121.88,0,0,1-13-25.17,168,168,0,0,1-7.17-25.86c-2.07-11.59-2-20.56.34-27.43a3.6,3.6,0,0,1,6.83,2.28C93.06,52.74,93,60.77,94.85,71a160.53,160.53,0,0,0,6.86,24.71A114.76,114.76,0,0,0,114,119.34c3.22,4.93,8.38,12.27,15.33,21.83a3.6,3.6,0,0,1-2.91,5.72Z"/><path class="cls-6" d="M105.87,144.79a3.6,3.6,0,0,1-3.37-2.34,38.56,38.56,0,0,0-4.78-8.12,86.33,86.33,0,0,1-6.22-9.39,182.8,182.8,0,0,1-9.16-19.44C72.8,82.3,69.83,67.81,73,59.93a3.6,3.6,0,1,1,6.68,2.69c-1.33,3.3-1.88,12.91,9.33,40.17a176.32,176.32,0,0,0,8.85,18.78,77.84,77.84,0,0,0,5.7,8.55,44.63,44.63,0,0,1,5.69,9.82,3.6,3.6,0,0,1-3.37,4.86Z"/></g><path class="cls-7" d="M117.9,80.5a8.64,8.64,0,1,0,7.54-9.63A8.64,8.64,0,0,0,117.9,80.5Z"/><path class="cls-3" d="M121.44,77.87a2.49,2.49,0,1,0,2.17-2.78A2.5,2.5,0,0,0,121.44,77.87Z"/></svg>