<svg id="Layer_1" data-name="Layer 1" xmlns="http://www.w3.org/2000/svg" width="7.06cm" height="7.06cm" viewBox="0 0 200 200"><defs><style>.cls-1{fill:#bb2253;}.cls-2{fill:#fd92a3;}.cls-3,.cls-5{fill:#005cb9;}.cls-4{fill:#fff;}.cls-4,.cls-5{fill-rule:evenodd;}</style></defs><title>flamingo2-4</title><path class="cls-1" d="M128.68,102.23q.18,1.32-1.49,2.91c-1.25,1.2-4.12,1-8.61-.47a49,49,0,0,1-13-6.7q-7.12-5-9.71-9.92-3.08-5.8,1.2-10,3.12-3,9.32-2.23Q114.69,77,123,85.51q3.87,4,3,7.16a4.9,4.9,0,0,1-1.81,2.59Q128.37,100,128.68,102.23ZM117,90.54a1.91,1.91,0,0,0,.53-1.42,5.17,5.17,0,0,0-1.7-3,6.59,6.59,0,0,0-1.67-1.42,3.27,3.27,0,0,1-1.06.14l-.11.25c.14.26.82,1.28,2,3.05.45.71.53,1.2.25,1.48a2.23,2.23,0,0,1-2,.42c-.89-.11-1.45-.07-1.66.14q-.74.71,1,2.76c1.13,1.33,1.56,2.13,1.28,2.41-.59.6-2,.28-4.36-.92a32.81,32.81,0,0,0-3.58-1.66q-1.38,1.32,3.15,3.61c3,1.56,5.24,1.67,6.63.32a2.14,2.14,0,0,0,.53-1.81,5.8,5.8,0,0,0-1.66-3l.11,0A3.87,3.87,0,0,0,117,90.54Z"/><path class="cls-2" d="M117.49,89.12a1.91,1.91,0,0,1-.53,1.42,3.87,3.87,0,0,1-2.34,1.32l-.11,0a5.8,5.8,0,0,1,1.66,3,2.14,2.14,0,0,1-.53,1.81c-1.39,1.35-3.6,1.24-6.63-.32s-4.07-2.74-3.15-3.61a32.81,32.81,0,0,1,3.58,1.66c2.32,1.21,3.77,1.52,4.36.92.28-.28-.14-1.08-1.28-2.41s-1.45-2.29-1-2.76c.21-.21.77-.26,1.66-.14a2.23,2.23,0,0,0,2-.42c.28-.28.21-.77-.25-1.48-1.2-1.77-1.88-2.79-2-3.05l.11-.25a3.27,3.27,0,0,0,1.06-.14,6.59,6.59,0,0,1,1.67,1.42A5.17,5.17,0,0,1,117.49,89.12Z"/><path class="cls-3" d="M111.61,113.71q-.51-2-1.08-3.78l-3.25,0c.28.87.57,1.81.9,2.81l4.11,12.65q-.64,0-4.32-.6l-5-.89H101a78,78,0,0,0-3.44-14.77L97,109q-1.07-.31-2.1-.68,1.17,6.25,2.67,15.6H93.86q-7,2.34-9.64,7.55a18.84,18.84,0,0,0-1.66,8.47v2.81q.39,2.66,2.09,2.66A1.43,1.43,0,0,0,86.2,144a6.4,6.4,0,0,1,.11-1.63,14.46,14.46,0,0,1,1,2.1,2.53,2.53,0,0,0,2.23,1.6,1.59,1.59,0,0,0,1.52-.89,3,3,0,0,0,.28-1.21,8.45,8.45,0,0,0-.32-2.59l-1.24-2.76.81,1.13a2.11,2.11,0,0,0,1.74.74,1.79,1.79,0,0,0,1.42-.71,1.93,1.93,0,0,0,.46-1.27,16.83,16.83,0,0,0-1.13-5,33.77,33.77,0,0,0-2.37-5.39,12.66,12.66,0,0,1,1.67-.74l.78-.32a23.3,23.3,0,0,1,3-.35l1.92,0q2.51,16.42,2.51,22.7a123.06,123.06,0,0,1-.67,14.56,82.32,82.32,0,0,0-.67,9.57A26.65,26.65,0,0,0,92,172.7q-8.72,0-8.72,1.71a.55.55,0,0,0,.18.35c-2.55.77-3.83,1.95-3.83,3.5l.25.88c.45.6,1.39.89,2.83.89a8.49,8.49,0,0,0,2.23-.28l1.95-.6-.18.22a9.94,9.94,0,0,0-2,1.45,2.09,2.09,0,0,0-.42,1.35l.21,1.06a2.22,2.22,0,0,0,2.2,1.06q2,0,10.27-4.85a13.38,13.38,0,0,1,5.56-1.35c1.54-.11,2.3-.87,2.3-2.26,0-.54-.69-1.13-2.09-1.74l-.39-.16a36.79,36.79,0,0,0,.85-5.26l.46-7.48A272.41,272.41,0,0,0,101.44,127l0-.34h1.67l11.23,2.73a1.67,1.67,0,0,0,1.13-.39,1.41,1.41,0,0,0,.39-1.06Q115.82,127.75,111.61,113.71Z"/><path class="cls-1" d="M95.13,41.55c1.52,1.65,2.27,4,2.27,7.09a10.06,10.06,0,0,1-1.56,5.94q-2.87,4-10.88,4a4.49,4.49,0,0,1-3.37-1.13,1.93,1.93,0,0,1-.67-1.35q0-2.05,3-4.85c2-1.86,3-3.12,3-3.79q0-1.52-2-2.54a6,6,0,0,1-1.67-1.09,27.86,27.86,0,0,0,5.17.45q4.44,0,6.68-2.73Z"/><path class="cls-2" d="M133.32,102q-2.37-9.5-3.93-12.12a61.22,61.22,0,0,0-10.84-13.11,15.17,15.17,0,0,0-8.79-4.39l-5-.67a30.59,30.59,0,0,0-14,3.9,31.17,31.17,0,0,0-6.31,4.63q-.55-.87-1-1.55Q73.81,62.21,73.8,45.3A34.2,34.2,0,0,1,74.43,39a14.19,14.19,0,0,0,8.84,4.87,27.86,27.86,0,0,0,5.17.45q4.44,0,6.68-2.73c1.35-1.64,2.11-4,2.28-7.12q.5-9.84-3.29-14.17a12.49,12.49,0,0,0-9.28-4.53,12.89,12.89,0,0,0-7.65,2.13A19.73,19.73,0,0,0,67,30.67,65,65,0,0,0,64.34,52q.53,10.07,2.37,15.7a139.59,139.59,0,0,0,5,13.36q1.41,3.22,2.83,5.89a25.76,25.76,0,0,0,5.14,10.47A32.46,32.46,0,0,0,94.9,108.29q1,.37,2.1.68l.57.14,1.31.32a7.82,7.82,0,0,1,2.06.25,7,7,0,0,0,2.3.21l4,0,3.25,0,5.19,0q1.38.82,4,5.85,2.31,4.43,4.32,4.43a2.41,2.41,0,0,0,2.13-1,3.48,3.48,0,0,0,1.38-2.44,14,14,0,0,0,1.24,1.87l0,0c.5,1.64,1.35,2.44,2.55,2.44h.14a2.5,2.5,0,0,0,1.1.26,2.84,2.84,0,0,0,3.08-2.35c0-.33.07-1.26.07-2.79Q135.73,111.87,133.32,102Zm-6.13,3.19c-1.25,1.2-4.12,1-8.61-.47a49,49,0,0,1-13-6.7q-7.12-5-9.71-9.92-3.08-5.8,1.2-10,3.12-3,9.32-2.23Q114.69,77,123,85.51q3.87,4,3,7.16a4.9,4.9,0,0,1-1.81,2.59q4.19,4.72,4.5,7Q128.86,103.55,127.19,105.15Z"/><path class="cls-4" d="M78.82,28.81a7.15,7.15,0,0,1,9.43-3.65,7.17,7.17,0,0,1,3.65,9.42,7.15,7.15,0,0,1-13.08-5.77Z"/><path class="cls-5" d="M81.71,36.67a5.49,5.49,0,1,1,8.88-6.46,5.21,5.21,0,0,1,1,4.08,5.48,5.48,0,0,1-9.86,2.38Z"/><path class="cls-4" d="M85.46,30.32a1.19,1.19,0,0,1,.41-.82,1.14,1.14,0,0,1,.86-.28,1.17,1.17,0,0,1,.82.42,1.17,1.17,0,0,1-.14,1.67,1.18,1.18,0,0,1-2-1Z"/></svg>