<svg id="Layer_1" data-name="Layer 1" xmlns="http://www.w3.org/2000/svg" width="7.06cm" height="7.06cm" viewBox="0 0 200 200"><defs><style>.cls-1{fill:#e0e7eb;}.cls-2{fill:#ff7bac;}.cls-3{fill:#9dd774;}.cls-4{fill:#bdccd4;}.cls-5{fill:#fff;}.cls-5,.cls-6{fill-rule:evenodd;}.cls-6{fill:#99d1fa;}</style></defs><title>flamingi-1</title><path class="cls-1" d="M149.37,134.89A2.39,2.39,0,0,1,149,137a76.55,76.55,0,0,0-6.05,8.71c-.61,1-.84,3.17-.67,6.46s-.49,5.6-1.86,7.25c-1.87,2.13-3.5,2.67-4.92,1.66a25.08,25.08,0,0,0-3-3.13l-.13-.13-.53,2.4a7.39,7.39,0,0,1-1.66,3.26c-1.56,1.81-3,2.53-4.46,2.13l-1.86-1.26q-2.06-1.68-2.06-7.32a18.34,18.34,0,0,1,4.46-12.11,38.85,38.85,0,0,1,7.45-7l5.32-3.52c-2.35-1.15-5.06-2.58-8.13-4.34a39.85,39.85,0,0,0,4.9-4.5L143,129A24.73,24.73,0,0,1,147,131.1l1.4,1.2A3.88,3.88,0,0,1,149.37,134.89Z"/><path class="cls-1" d="M115.77,170.63l-1.33-20.84c0-1.25,0-3.86-.27-7.85l-.39-4.84a40.89,40.89,0,0,1-6.39.77l1.18,16c.09.53.24,2.79.47,6.79q.16,3.45.44,6.47a56.53,56.53,0,0,0-10.88-3.54q-18.7-4.34-18.69,4.12l.13,1.93c-5.27.74-7.92,2.73-7.92,5.92a3.7,3.7,0,0,0,.33,1.66,4.77,4.77,0,0,0,1.86,1.66A14,14,0,0,0,77.92,180a11.71,11.71,0,0,1,3.33.93c.44.21.73,1.31.86,3.26,1,1.77,3.53,2.66,7.65,2.66,2.57,0,5.9-.85,10-2.53l8.85-3.66q4.73-1.53,6.72-3.92a5.68,5.68,0,0,0,1.86-4.06C117.17,172.07,116.7,171.39,115.77,170.63Z"/><path class="cls-2" d="M149,100.23q-3.39-8.26-14.5-11.18-9.84-2.68-22-.27-1.67.32-3.23.72a108,108,0,0,1,2-12c.68-3,1.72-5.9,2.23-8.9.7-4.17,3.22-11.39.09-15.09-4.83-5.7-14.78,3-17.55,6.92-1.71,2.44-2.61,5.34-3.71,8.12C89.14,76.72,87,85.27,84.82,93.79c-2.1,8.33-4.35,17.53-2.71,26.14l.73,3.86a6.3,6.3,0,0,0,1.07,1.73q.42,1.24,1,2.6A11.08,11.08,0,0,0,88,131.83a23.81,23.81,0,0,0,7.45,4.33,31.22,31.22,0,0,0,12,1.72,40.89,40.89,0,0,0,6.39-.77,58.56,58.56,0,0,0,10.83-3.34,27.57,27.57,0,0,0,6.24-3.74,39.85,39.85,0,0,0,4.9-4.5,67.62,67.62,0,0,0,6.89-9,50,50,0,0,0,5.19-9.91C149.08,103.6,149.46,101.47,149,100.23Z"/><path class="cls-1" d="M133.54,108.75c.13-1-.4-2.45-1.6-4.26q-2-3.27-9.38-3.92a37.47,37.47,0,0,0-14.16,1.13h0q-6.5,1.92-9.58,5.32a9.68,9.68,0,0,0-1.14,1.46q-3.39,5.31,1.27,12.57a16.61,16.61,0,0,0,3.73,4.06,19.07,19.07,0,0,0,4.27,2.56c.61.28,1.24.53,1.9.76l.21.08a18.64,18.64,0,0,0,4.12.89,20.62,20.62,0,0,0,12.75-3c.43-.24.86-.49,1.29-.77a8.08,8.08,0,0,0,2.7-2.78,6,6,0,0,0,.56-4.21,9.32,9.32,0,0,0-1.93-3.92Q133.13,111.14,133.54,108.75Z"/><path class="cls-2" d="M107.69,68.71a23.76,23.76,0,0,0,10.59-21.49,31.08,31.08,0,0,0-9.65-20.52A30.55,30.55,0,0,0,88,17.42,25.35,25.35,0,0,0,73.85,20.5a13.29,13.29,0,0,1,.47,1.5,14.92,14.92,0,0,1-.53,8.56l-1.37,3.12-.07.19-.29.6-.28.4,0,.13-.11.1-.09.25-.47.54-.19.36a3.72,3.72,0,0,1-4.25,1.05,4,4,0,0,1-2.54-3.22,4.13,4.13,0,0,0-.85-1.79,26.06,26.06,0,0,0-2,12.23A31.16,31.16,0,0,0,70.93,65c6.41,6.29,14.31,9.69,23.44,8.64A29.23,29.23,0,0,0,107.69,68.71Z"/><path class="cls-1" d="M74.32,22a13.29,13.29,0,0,0-.47-1.5A10.36,10.36,0,0,0,69.11,15a14.1,14.1,0,0,0-8.5-1.71q-6.9.69-9.16,7,11.92,2.55,14.09,7.3c.06.12.1.23.15.36a2.5,2.5,0,0,1,.11.36,3.59,3.59,0,0,1,.13.51q1.18,5.69,5.13,7.08l.47-.54.09-.25.11-.1,0-.13.28-.4.29-.6.07-.19,1.37-3.12A14.92,14.92,0,0,0,74.32,22Z"/><path class="cls-3" d="M65.95,28.79a2.92,2.92,0,0,0-.13-.51A3.59,3.59,0,0,1,65.95,28.79Z"/><path class="cls-4" d="M65.95,28.79a2.92,2.92,0,0,0-.13-.51,2.5,2.5,0,0,0-.11-.36c-.05-.13-.09-.24-.15-.36q-1.17-2.46-5.12-4.34a41.81,41.81,0,0,0-9.56-2.89q-1.93,5.14,9,9.86a7.53,7.53,0,0,1,3.36,2.08,4.13,4.13,0,0,1,.85,1.79,4,4,0,0,0,2.54,3.22,3.72,3.72,0,0,0,4.25-1.05l.19-.36Q67.12,34.49,65.95,28.79Z"/><path class="cls-5" d="M101.92,49.15a14,14,0,0,1-19.36,4.43,13.41,13.41,0,0,1-6.2-8.74,13.52,13.52,0,0,1,1.75-10.6,14,14,0,0,1,23.81,14.9Z"/><path class="cls-6" d="M97.81,34.37A10.75,10.75,0,0,1,93.3,48.95a10.75,10.75,0,0,1-14.58-4.52,10.23,10.23,0,0,1-.75-8.2,10.37,10.37,0,0,1,5.27-6.38,10.75,10.75,0,0,1,14.58,4.52Z"/><path class="cls-5" d="M93.84,44a2.35,2.35,0,0,1-1,1.49,2.25,2.25,0,0,1-1.76.31,2.32,2.32,0,0,1-1.48-1.06,2.3,2.3,0,0,1,.74-3.2A2.32,2.32,0,0,1,93.84,44Z"/></svg>