<svg id="Layer_1" data-name="Layer 1" xmlns="http://www.w3.org/2000/svg" width="7.06cm" height="7.06cm" viewBox="0 0 200 200"><defs><style>.cls-1{fill:#79c9f1;}.cls-1,.cls-2{fill-rule:evenodd;}.cls-2{fill:#ff931e;}</style></defs><title>flower-3</title><path class="cls-1" d="M108.58,109.37a9.48,9.48,0,0,1,.93-5.68c5.12-10,24.67-11.54,34.27-9.88,15.18,2.63,14.54,18.2-1.86,19.83,11.34,5,5.58,24.55-7,21-8.43-2.36-25-14.58-26.33-25.29"/><path class="cls-1" d="M86.73,97.27c8.67,7.57-2.44,18-8.73,23-5.41,4.3-11.9,13.34-19.88,10.84-9.7-3-6-13.72-.59-18.8-4.55,4.3-14-7.72-12-12.59s10.18-6.45,14.9-7.25c8.49-1.44,19.46-1.2,26.27,4.76"/><path class="cls-1" d="M95.16,86.84a8.12,8.12,0,0,1-3.54,3.69c-8.47,4.21-21.65-7.44-26.88-15C56.48,63.63,65,52.29,76.23,61.8c-4.6-11.2,9.21-22.2,15.38-11.29,4.11,7.29,8.26,27.34,3.56,36.33"/><path class="cls-1" d="M104.51,94.41c-8-5.86-3.36-28.33-1.22-35,5.33-16.67,26.14-13.73,20.09,4.49,11.84-9.77,15.3.07,17.34,3.76,6,10.8-8.19,16.24-15.47,20.16C121.13,90,115.37,95,111,95.66a8.38,8.38,0,0,1-6.48-1.25"/><path class="cls-1" d="M97.12,107.62c-9.9.67-18,22.15-19.74,28.92-4.41,16.94,14.76,25.59,19.37,7,4.79,14.58,13,8.12,16.66,6.1,10.82-5.95,1.78-18.11-2.29-25.31-2.3-4.08-4.52-11.35-7.86-14.26a8.34,8.34,0,0,0-6.14-2.4"/><path class="cls-2" d="M103.68,94.55a9.35,9.35,0,1,0,12.8.56,9.07,9.07,0,0,0-12.8-.56"/><path class="cls-2" d="M88.6,85.52a6.27,6.27,0,1,0,8.58.38,6.09,6.09,0,0,0-8.58-.38"/><path class="cls-2" d="M85.82,101.79a7.21,7.21,0,1,0,9.88.43,7,7,0,0,0-9.88-.43"/></svg>