<svg id="Layer_1" data-name="Layer 1" xmlns="http://www.w3.org/2000/svg" width="7.06cm" height="7.06cm" viewBox="0 0 200 200"><defs><style>.cls-1{fill:#ff6369;}.cls-1,.cls-2,.cls-3{fill-rule:evenodd;}.cls-2{fill:#ffd2a1;}.cls-3{fill:#e7ecef;}</style></defs><title>flower2-4</title><path class="cls-1" d="M144.7,101.19q27.33,5,27.33,15.37,0,8.16-12.28,10.38a2.42,2.42,0,0,0-1.82,1.75,25.55,25.55,0,0,0-.79,3.17q-1.42,4.36-8,4.36-10.07,0-20.37-12.6a70.85,70.85,0,0,1-6.18-9q-2.29-4-2.3-4.67a5.86,5.86,0,0,1,2.7-5.15q3.4-2.31,12.59-3.57v-.08Z"/><path class="cls-1" d="M133.12,134.55q2,2.76,2,7.76,0,4.12-.95,5.87-2.54,4.67-10.94,4.67a28.62,28.62,0,0,1-7.21-.62c-1.11-.54-2-.93-2.54-1.19a40.13,40.13,0,0,1-1.35,5.7q-2.21,4.43-8,4.44-8.79,0-11.41-7.85a21.83,21.83,0,0,1-.95-5.55c.05-1.8.08-2.77.08-2.93q0-11.09,3.32-17.67,4.6-9.2,18-17.28,3.65-2.22,4.83.87a43,43,0,0,1,1.58,5.07,59.24,59.24,0,0,0,5.55,9q4,5.15,8,9.75"/><path class="cls-1" d="M64,50.71q17.5,2.06,25.2,17.82,11.73,25.67,11.73,31.53a3.27,3.27,0,0,1-.79,2.62q-1.11.87-4.92.87c-2.53-1-5.71-2.08-9.5-3.25a140,140,0,0,0-21.08-5H55.55a96.1,96.1,0,0,1-14.1,1.11q-9.83,0-12.52-4.76A7.51,7.51,0,0,1,28,88.19c.1-1.11.16-1.74.16-1.9a19,19,0,0,1,4-11.8q5.15-6.81,16.17-10.93A6.41,6.41,0,0,1,47,60.14q0-5.15,5.07-7.76A15.85,15.85,0,0,1,55.78,51,23.65,23.65,0,0,1,64,50.71"/><path class="cls-1" d="M39.23,110.7q6.28-6,16.56-7.93a57.12,57.12,0,0,1,8.32-.79h9.82a32.9,32.9,0,0,1,11.57,1.94,43,43,0,0,0,10.22,2.34,28.61,28.61,0,0,0,7.37-.72c1.32-.26,2.59-.55,3.81-.87a2.4,2.4,0,0,1,2.3,1.43,3,3,0,0,1,.39,1.43c0,1.32-1,2.69-3.09,4.11-3,1.8-5.44,3.33-7.29,4.6A40.24,40.24,0,0,0,83,136.69a38.93,38.93,0,0,0-1.83,9.66c-.15,2.12-.4,5.13-.71,9q-1.18,9.43-8.8,9.43-10,0-15.92-4.67a20,20,0,0,1-5.47-6.81,28.6,28.6,0,0,1-2.85-13.07q0-3.25.08-3.57t1-4.75c-.32.1-1.25.5-2.78,1.19a9.51,9.51,0,0,1-3.49.48q-6.1,0-8.4-4.2a9.73,9.73,0,0,1-1.19-4.83q0-7.53,6.5-13.87"/><path class="cls-2" d="M138.19,57.13a7.65,7.65,0,0,0-2.61-1.35q-2.85,0-8.8,8.64a82.4,82.4,0,0,0-8,14.58,54.36,54.36,0,0,0-2.54,11.73,62.67,62.67,0,0,1-2.14,11.49q-1.11-1.27-1.5-5.94-.24-2.46-.24-5.07A42.16,42.16,0,0,1,116,74.8a55,55,0,0,1,10.3-15.54,30.38,30.38,0,0,0,5.54-8.55q2.62-5.55,4.44-7.29,5.47-5.31,9.83.64,3.41,4.75,3.41,9a9.12,9.12,0,0,1-.39,3.17q-1.11,2.14-4.68,2.14a15,15,0,0,1-6.26-1.18"/><path class="cls-2" d="M140,89.46a11,11,0,0,1-1,4.67,5.35,5.35,0,0,1-5.3,3.65,5.09,5.09,0,0,1-4.92-2.7,5.72,5.72,0,0,1-.79-2.93c-.06,0-.27-.23-.63-.71q-6.26,6.26-8.48,11.25a1.34,1.34,0,0,0-.32.48c-.52,1-1.83,1.66-3.89,2a33,33,0,0,1,3.58-8.87,41.89,41.89,0,0,1,8.88-10.86q5.31-4.6,8.87-4,4,.71,4,8.08"/><path class="cls-2" d="M113.31,46q0,7.13-9.11,5.39-1.11,26.69,6.41,48.49l-.23,1.18-.32.32a3.36,3.36,0,0,1-1.19.16q-5.78,0-8.16-21-1.18-21-1.18-21.16V50.31a7.6,7.6,0,0,0-1.9-5.23,6.14,6.14,0,0,1-1.9-3.8q0-3.88,2.77-5.31a8,8,0,0,1,6-.39,12.23,12.23,0,0,1,6,3.65A9.76,9.76,0,0,1,113.31,46"/><polygon class="cls-3" points="114.5 110.22 114.66 110.22 114.5 110.3 114.5 110.22"/></svg>