<svg id="Layer_1" data-name="Layer 1" xmlns="http://www.w3.org/2000/svg" width="7.06cm" height="7.06cm" viewBox="0 0 200 200"><defs><style>.cls-1{fill:#abd9fb;}.cls-1,.cls-2,.cls-3{fill-rule:evenodd;}.cls-2{fill:#ffa0a3;}.cls-3{fill:#7ac943;}</style></defs><title>flower3-3</title><path class="cls-1" d="M91,125.49a9.06,9.06,0,0,1,5.45.9c9.62,4.91,11.07,23.65,9.48,32.85-2.53,14.56-17.45,13.94-19-1.78-4.8,10.88-23.53,5.36-20.16-6.71,2.26-8.08,14-23.93,24.25-25.25"/><path class="cls-1" d="M102.62,104.55c-7.25,8.3-17.29-2.34-22.09-8.37C76.41,91,67.75,84.77,70.13,77.11c2.9-9.3,13.16-5.71,18-.57-4.12-4.36,7.41-13.4,12.07-11.47s6.19,9.76,7,14.28c1.38,8.14,1.14,18.66-4.57,25.19"/><path class="cls-1" d="M112.62,112.63a7.82,7.82,0,0,1-3.54-3.4c-4-8.12,7.13-20.76,14.36-25.77,11.43-7.92,22.3.22,13.18,11,10.74-4.41,21.28,8.83,10.82,14.74-7,3.94-26.22,7.92-34.83,3.42"/><path class="cls-1" d="M105.37,121.59c5.61-7.66,27.17-3.22,33.56-1.17,16,5.12,13.17,25.07-4.3,19.27,9.37,11.34-.06,14.67-3.6,16.63-10.36,5.72-15.58-7.85-19.33-14.84-2.13-3.95-6.88-9.48-7.53-13.67a8,8,0,0,1,1.2-6.21"/><path class="cls-1" d="M92.7,114.5C92.06,105,71.46,97.26,65,95.57c-16.25-4.22-24.54,14.15-6.67,18.57-14,4.59-7.79,12.44-5.85,16,5.71,10.38,17.36,1.7,24.26-2.19,3.91-2.2,10.88-4.34,13.67-7.54a8,8,0,0,0,2.3-5.89"/><path class="cls-2" d="M105.23,120.8a9,9,0,1,0-.54,12.27,8.7,8.7,0,0,0,.54-12.27"/><path class="cls-2" d="M113.89,106.33a6,6,0,1,0-.37,8.23,5.83,5.83,0,0,0,.37-8.23"/><path class="cls-2" d="M98.29,103.68a6.92,6.92,0,1,0-.42,9.47,6.71,6.71,0,0,0,.42-9.47"/><path class="cls-3" d="M139.11,33.22c2.95,5.11,3.45,15.37,3.19,18.29a31.76,31.76,0,0,1-8,17.93c-2.63,2.81-9.67,9.3-13.76,8.41s-5.23-8.35-6.51-11.51c-2.22-5.45-2.81-11.38-.1-16.81,2.87-5.77,13.7-19.29,21.13-19.24,1.67,0,3,1.17,4,2.94"/></svg>