<svg id="Layer_1" data-name="Layer 1" xmlns="http://www.w3.org/2000/svg" width="7.06cm" height="7.06cm" viewBox="0 0 200 200"><defs><style>.cls-1{fill:#e2231a;}.cls-1,.cls-2{fill-rule:evenodd;}.cls-2{fill:#ffdb00;}</style></defs><title>flower4-1</title><path class="cls-1" d="M114.66,100.57a10.79,10.79,0,0,0-4.17,5.06c-4.73,11.91,8.65,29.77,17.28,36.73,13.65,11,26.49-1.23,15.57-16.48,12.79,5.95,25.19-13.66,12.72-21.78-8.36-5.44-31.21-10.4-41.4-3.54"/><path class="cls-1" d="M87.91,91c13,1.73,13.6-15.63,13.16-24.76C100.69,58.34,103.54,46,95.41,41c-9.86-6-16.21,5.2-16.53,13.61.27-7.12-17.1-6.16-19.75-.79s2.12,13.56,5,18.19C69.27,80.42,77.71,89.61,87.91,91"/><path class="cls-1" d="M85.33,106a9.34,9.34,0,0,0,.49-5.81c-2.74-10.41-22.62-12.94-33-11.75-16.41,1.88-19.72,17.67-3.14,20.15-13,4.47-12.07,24.54,1.89,21.62,9.34-2,29.6-13.46,33.76-24.22"/><path class="cls-1" d="M98.82,108.33c-11-2.45-26.76,18.39-30.87,25.23-10.26,17.08,7.88,32.68,18.91,13.82.54,17.46,11.56,13,16.24,12,13.72-3,7.75-19.21,5.64-28.38-1.2-5.19-1.29-13.84-4-18.1a9.52,9.52,0,0,0-5.93-4.6"/><path class="cls-1" d="M104.56,92.08c-6.85-9,5.45-32,9.93-38.6,11.18-16.49,33-6.59,20.48,11.35,16.08-6.86,16.7,5,17.73,9.69,3,13.72-14.17,15.11-23.38,17-5.22,1.1-13.1,4.65-18.09,4a9.49,9.49,0,0,1-6.68-3.45"/><path class="cls-2" d="M98.31,107.51c.29-5.52,5.26-9.75,11.12-9.45s10.37,5,10.09,10.55-5.27,9.74-11.12,9.44S98,113,98.31,107.51"/><path class="cls-2" d="M79.26,101.38A7.13,7.13,0,1,1,86,108.45a6.93,6.93,0,0,1-6.76-7.06"/><path class="cls-2" d="M91.1,86.8a8.21,8.21,0,1,1,7.78,8.13A8,8,0,0,1,91.1,86.8"/></svg>