<svg id="Layer_1" data-name="Layer 1" xmlns="http://www.w3.org/2000/svg" width="7.06cm" height="7.06cm" viewBox="0 0 200 200"><defs><style>.cls-1{fill:#d8efc8;}.cls-1,.cls-2{fill-rule:evenodd;}.cls-2{fill:#3fa9f5;}</style></defs><title>flower6-3</title><path class="cls-1" d="M84.8,98.79a11.07,11.07,0,0,0,4.42-5.07c5.2-12.07-8-30.75-16.64-38.14C58.93,43.9,45.41,56.06,56.16,72,43.23,65.54,29.94,85.26,42.48,93.95c8.4,5.82,31.69,11.57,42.33,4.84"/><path class="cls-1" d="M111.94,109.41c-13.24-2.15-14.39,15.62-14.2,25,.17,8.07-3.11,20.62,5.06,25.94,9.93,6.47,16.77-4.86,17.34-13.47-.48,7.29,17.33,6.8,20.21,1.38s-1.78-14-4.57-18.79c-5-8.7-13.41-18.37-23.83-20.06"/><path class="cls-1" d="M115,94.06a9.48,9.48,0,0,0-.66,5.93c2.51,10.75,22.8,13.93,33.45,13,16.87-1.45,20.73-17.53,3.82-20.56,13.47-4.2,13.07-24.79-1.31-22.2C140.7,72,119.6,83.16,115,94.06"/><path class="cls-1" d="M101.27,91.3c11.21,2.82,28-18.07,32.37-25,11-17.21-7.12-33.72-19-14.72,0-17.91-11.46-13.7-16.28-12.78-14.15,2.68-8.51,19.45-6.6,28.91,1.07,5.35.91,14.22,3.56,18.65a9.76,9.76,0,0,0,5.94,4.9"/><path class="cls-1" d="M94.91,107.78c6.76,9.39-6.52,32.64-11.3,39.27-11.94,16.57-34,5.79-20.65-12.23-16.67,6.56-17-5.61-17.9-10.43-2.7-14.15,15-15.07,24.46-16.79,5.38-1,13.56-4.38,18.65-3.55a9.69,9.69,0,0,1,6.74,3.73"/><path class="cls-2" d="M101.77,92.14c-.46,5.65-5.68,9.84-11.68,9.35s-10.49-5.44-10-11.09,5.68-9.82,11.66-9.34,10.5,5.44,10,11.08"/><path class="cls-2" d="M121.11,99a7.31,7.31,0,1,1-6.73-7.43A7.09,7.09,0,0,1,121.11,99"/><path class="cls-2" d="M108.55,113.58a8.42,8.42,0,1,1-7.74-8.55,8.17,8.17,0,0,1,7.74,8.55"/></svg>