<svg id="Layer_1" data-name="Layer 1" xmlns="http://www.w3.org/2000/svg" width="7.06cm" height="7.06cm" viewBox="0 0 200 200"><defs><style>.cls-1{fill:#ff6369;}.cls-1,.cls-2{fill-rule:evenodd;}.cls-2{fill:#cdd8de;}</style></defs><title>flower5-3</title><path class="cls-1" d="M106,105.53c2.71-2.88,9.84-2,13.26-1.77,5.77.35,11.44,1.53,17.17,2.23a22.55,22.55,0,0,1,13.7,6.53c2.75,2.82,6.28,7,3.7,11a10.83,10.83,0,0,1-8.82,4.53c.62,3.61,3.29,6.41,3,10.53-.32,4.4-3.89,9.5-7.88,11.45-7.19,3.51-12.18-1.95-15.22-8a153.13,153.13,0,0,0-13.83-21.72c-2.42-3.3-9-10.6-5.06-14.81m1.46,16.35c5.92,7.51,20.9,34.24,3.64,38.42-7.07,1.72-13.93-5.48-15-12.08-5.88,5.59-21.39,7.87-26.66.34-3.1-4.45-1.87-10.6,1.91-14.35a49.28,49.28,0,0,1,6-4.44c5.62-4,10.37-8.34,12.42-15,.86-2.76,3.9-19.8,10.06-10.92,2,2.84,2.53,6.46,3.33,9.74s2.21,5.44,4.27,8.23m-43,8.14-3,1.17a23.93,23.93,0,0,1-5.87.92q-8.71.24-11.84-8.59c-1.36-3.83-.85-7,1.51-9.58a56.33,56.33,0,0,1,5.3-3.3,29.16,29.16,0,0,0-2.05-2.1,28.9,28.9,0,0,1-3.25-7q-3-8.37.83-12.57,1.4-1.53,5.53-3c3.29-1.17,6.08-1.44,8.38-.79,4,1.53,8.18,3,12.57,4.46,5.23,1.86,18.34,2.51,17.59,10.78-1.33,14.56-12.84,25-25.75,29.6m28.9-45.27a6.29,6.29,0,0,1-4.23,4.47q-.68.25-5.47-.52a86.53,86.53,0,0,1-11-3.05Q56.39,79.8,52.86,69.83q-2.37-6.69,1.5-9.6a18.7,18.7,0,0,0,2.82-1.9,2.93,2.93,0,0,0,1.18-2.49q-2.18-13,6-15.95Q74.65,36.23,89.4,61.75l3.23,9.08-.12,0c1.33,6.41,1.65,11.05.93,13.88"/><path class="cls-2" d="M113.07,94.35c4.24-.82,8.49-1.63,12.73-2.48,2.32-.47,5.92-.79,7.57-2.73s.55-5.3,1.74-7.59a11.45,11.45,0,0,1,5-4.8c4.24-2.12,9.5-1.53,12.38,2.5,2.43,3.4,4.66,6.51,4.32,10.94-.3,4-2.36,8.13-6.08,9.87a13.18,13.18,0,0,1-9.46.6c-2.75-.95-3-4.07-5.3-5.45-2.1-1.28-5.11-.13-7.26.43-3.18.81-6.28,1.94-9.42,2.88a65.62,65.62,0,0,1-7.53,1.32c-1.59.28-9.27,1.8-7.29-2.06a1.62,1.62,0,0,1,.09-.15c1.42-2.37,6.12-2.82,8.48-3.28"/><path class="cls-2" d="M131.6,57.34c11.1,5.59,4.7,24.1-8,17.64-2.06,4.41-10.35,16.7-13.36,14.24-2.88-1.81,6.38-13.1,9.47-16.41-.42.46-2.77-5-2.83-5.64a9.22,9.22,0,0,1,2.1-6.42c3.32-4.57,7.53-6,12.59-3.41"/><path class="cls-2" d="M102.59,44c-7,2.19-9.47,10.2-5.85,16.33a12.17,12.17,0,0,0,2.56,3.13,20.88,20.88,0,0,1,2.33,1.64c1.16,1.34.4,4.37.23,6.15-.36,3.63-.91,7.15-1.45,10.74-.26,1.72-1.4,7.33,1.17,8,2.94.78,3.21-7.07,3.39-8.59.56-4.5-.11-10.37,2.14-14.45,1.62-3,5.51-3.15,7.74-5.47a10.42,10.42,0,0,0,2.35-7.92A11.24,11.24,0,0,0,111,44.51a11.82,11.82,0,0,0-8.39-.54"/></svg>