<svg id="Layer_1" data-name="Layer 1" xmlns="http://www.w3.org/2000/svg" width="7.06cm" height="7.06cm" viewBox="0 0 200 200"><defs><style>.cls-1{fill:#3aae6c;}.cls-1,.cls-2{fill-rule:evenodd;}.cls-2{fill:#63257c;}</style></defs><title>fruit-3</title><path class="cls-1" d="M112.85,29.23c-6.74,2.72-15,12.28-17,15.31A39.08,39.08,0,0,0,90,68c.42,4.74,2.32,16.37,7,18.6s11.42-4.13,15.06-6.22c6.28-3.6,11.37-8.92,12.86-16.24,1.58-7.76,1.33-29.11-5.91-34.7-1.64-1.25-3.78-1.13-6.13-.18"/><path class="cls-1" d="M159.85,68.67c-6.45-2.37-18.33-.92-21.62,0a37,37,0,0,0-19,12.69c-2.71,3.58-8.77,12.95-6.93,17.47s10.62,4.35,14.51,5.19c6.69,1.48,13.63,1,19.32-3.2,6.05-4.44,19.43-19.55,17.91-28.09-.35-1.92-1.93-3.19-4.16-4"/><path class="cls-2" d="M111.93,161.16A46.74,46.74,0,1,1,119,95.43,46.72,46.72,0,0,1,111.93,161.16Z"/></svg>