<svg id="Layer_1" data-name="Layer 1" xmlns="http://www.w3.org/2000/svg" width="7.06cm" height="7.06cm" viewBox="0 0 200 200"><defs><style>.cls-1{fill:#bee5a3;}.cls-1,.cls-2{fill-rule:evenodd;}.cls-2{fill:#3aae6c;}</style></defs><title>fruit2-3</title><path class="cls-1" d="M161.51,85.35a17,17,0,0,1,.28,1.9q-.08,4.71-5.13,8.55L56.73,145a21.57,21.57,0,0,1-7.9,3.26c-2.06.23-3.58-.94-4.58-3.5Q33.48,121.27,41.89,96.5A63.43,63.43,0,0,1,75.11,58.66a63.38,63.38,0,0,1,50.25-3.28q24,8.16,36.15,30"/><path class="cls-2" d="M151.38,82q2.09,4.24,2.07,5.06,0,3.46-6.24,6.59a38.3,38.3,0,0,1-4.77,2.45q-1.47.61-8.17,3.51l-15.35,7.57-.07,0a2.29,2.29,0,0,1-.65.47q-2.9,1.43-3.68-.15t2.67-8.07q1.87-4.6,5.23-12.12,3.11-7,5.42-11.49l.7-2.25c1.27-3.59,2.4-5.62,3.39-6.11a2.92,2.92,0,0,1,2.43-.11c1.61-.2,3.44.75,5.46,2.82a41.08,41.08,0,0,1,5.28,3.9,38.34,38.34,0,0,1,3.08,3.53A29.12,29.12,0,0,1,151.38,82"/><path class="cls-2" d="M97.43,115.58q-2.46.19-7-2.38c-1.47-.64-3.57-1.43-6.28-2.34-3.91-1.28-6-2-6.44-2.26-1.5-.56-5.33-2-11.48-4.39l-1.31-.58a1.64,1.64,0,0,1-.61-.21c-7.69-2.56-11.89-4.6-12.63-6.08-1-2-.2-5.26,2.31-9.85a29.22,29.22,0,0,1,4.72-6.43q4.94-6.64,8.32-8.3,4.12-2,5.6-1.54c.77.31,1.77,1.72,3,4.25q7.46,10.57,12.6,18.29,5.87,9.27,8.41,13.63c1.67,2.9,2.43,4.67,2.25,5.3q1,2.67-1.46,2.86"/><path class="cls-2" d="M107.43,111.19c-.36.53-1.21.34-2.54-.56l-3.31-6.72c-2.22-3.79-3.85-6.43-4.93-7.89L86.78,76.8c-1.94-3.25-3.16-5.39-3.66-6.39a4.74,4.74,0,0,1,.48-5.6,5.85,5.85,0,0,1,3-2.73,33.93,33.93,0,0,1,16.57-3.63c.64,0,1.27.06,1.86.11a33.19,33.19,0,0,1,4.34.13q8.9.88,11.27,5.7a4.62,4.62,0,0,1,.48,2.44l.11.25c.47.94-.42,5-2.66,12.15-1.73,5.72-2.94,9.45-3.67,11.19q-4.09,13.25-5.55,17.18a8.42,8.42,0,0,1-2,3.59"/><path class="cls-2" d="M85.26,115.43c2.82,1,4.58,2,5.27,3s-1.33,2.7-6.07,5.25q-5.28,2.8-26.85,14.15L53,140.09q-2.15,1.26-4-1.09a20.88,20.88,0,0,1-1.67-3q-4.23-15.65-2.75-23.45.21-6.88,3.42-8.45c1.54-.76,4-.48,7.4.86a.25.25,0,0,1,.16.13A26.82,26.82,0,0,1,61.9,107c.7.33,1.33.64,1.88.92,2.43.91,5.3,1.93,8.58,3,2.41.74,4.47,1.39,6.15,2s3.93,1.43,6.75,2.47"/></svg>