<svg id="Layer_1" data-name="Layer 1" xmlns="http://www.w3.org/2000/svg" width="7.06cm" height="7.06cm" viewBox="0 0 200 200"><defs><style>.cls-1{fill:#7ac943;}.cls-1,.cls-2,.cls-3{fill-rule:evenodd;}.cls-2{fill:#fff;}</style></defs><title>kiwi-1</title><path class="cls-1" d="M61.87,55.79A56.62,56.62,0,0,0,42.07,96a56.53,56.53,0,0,0,14.2,42.46,55.59,55.59,0,0,0,39.76,20,55.71,55.71,0,0,0,42.17-14.29q18.09-15.89,19.73-40.1A56.89,56.89,0,0,0,143.8,61.51,56,56,0,0,0,104,41.59,55.52,55.52,0,0,0,61.87,55.79"/><path class="cls-2" d="M129.12,98.9a32.12,32.12,0,0,0-7.33-23.06A28,28,0,0,0,101.46,64.9,27.31,27.31,0,0,0,80,72.64,31.26,31.26,0,0,0,69.88,94.38a32.3,32.3,0,0,0,7.32,23.16,28.25,28.25,0,0,0,20.35,10.84A27.27,27.27,0,0,0,119,120.74,31.39,31.39,0,0,0,129.12,98.9"/><path class="cls-3" d="M122.77,68a2.25,2.25,0,0,1-2.27,1.14,2.35,2.35,0,0,1-2-1.29,2.64,2.64,0,0,1-.47-1.62,2.51,2.51,0,0,1,2.78-2.59c1.74,0,2.56,1,2.44,2.9a2.92,2.92,0,0,1-.5,1.45m11.65,8.51a3.15,3.15,0,0,1-.49,1.45,2.21,2.21,0,0,1-2.27,1.14,2.3,2.3,0,0,1-2-1.29,3,3,0,0,1-.49-1.61A2.5,2.5,0,0,1,132,73.64c1.75,0,2.56,1,2.44,2.9M122,77.85a2.64,2.64,0,0,1-.62-1.88c.13-2,1.16-2.86,3.11-2.65s2.86,1.21,2.75,3a2.81,2.81,0,0,1-.48,1.45,2.64,2.64,0,0,1-2.61,1.12A3,3,0,0,1,122,77.85m2.12,6.75c.13-2,1.16-2.87,3.12-2.66s2.86,1.21,2.76,3a2.93,2.93,0,0,1-.5,1.45,2.61,2.61,0,0,1-2.6,1.12,2.89,2.89,0,0,1-2.15-1,2.67,2.67,0,0,1-.63-1.89m11.25-2c1.75,0,2.56,1,2.44,2.9a2.85,2.85,0,0,1-.5,1.45A2.24,2.24,0,0,1,135,88.14a2.36,2.36,0,0,1-2-1.28,2.71,2.71,0,0,1-.47-1.62,2.5,2.5,0,0,1,2.77-2.59m.69,14.07a2.34,2.34,0,0,1-2.28,1.14,2.71,2.71,0,0,1-2.12-1.39,3.44,3.44,0,0,1-.62-1.89c.12-2,1.1-2.92,2.93-2.66s2.7,1.38,2.58,3.35a3.08,3.08,0,0,1-.49,1.45m-8.23-3.17a3.14,3.14,0,0,1-.5,1.45,2.45,2.45,0,0,1-4.24-.14,2.79,2.79,0,0,1-.47-1.62c.13-2,1-2.88,2.79-2.68s2.53,1.19,2.42,3m-.21,3.58q2.61,0,2.43,2.91a3.31,3.31,0,0,1-.49,1.45,2.24,2.24,0,0,1-2.29,1.14,2.34,2.34,0,0,1-2-1.29,2.75,2.75,0,0,1-.47-1.63,2.51,2.51,0,0,1,2.78-2.58m3.26,9.53a2.64,2.64,0,0,1-.47-1.61,2.51,2.51,0,0,1,2.77-2.6c1.74,0,2.55,1,2.43,2.9a2.86,2.86,0,0,1-.49,1.46,2.24,2.24,0,0,1-2.29,1.13,2.31,2.31,0,0,1-2-1.29m-3.2,14.83a2.75,2.75,0,0,1-.47-1.62,2.52,2.52,0,0,1,2.78-2.6c1.75,0,2.55,1,2.43,2.91a3.19,3.19,0,0,1-.49,1.45,2.46,2.46,0,0,1-4.24-.15m2.11-7.72a2.24,2.24,0,0,1-2.28,1.14,2.36,2.36,0,0,1-2-1.3,2.65,2.65,0,0,1-.47-1.62,2.5,2.5,0,0,1,2.78-2.59c1.75,0,2.56,1,2.44,2.9a2.78,2.78,0,0,1-.5,1.45m-5.68,3.33a2.85,2.85,0,0,1-.5,1.45,2.24,2.24,0,0,1-2.28,1.14,2.36,2.36,0,0,1-2-1.29,2.83,2.83,0,0,1-.47-1.62,2.51,2.51,0,0,1,2.78-2.59q2.61,0,2.43,2.91m-2.62,10.65a2.38,2.38,0,0,1-1.9-1.11,3,3,0,0,1-.53-1.87,2.68,2.68,0,0,1,2.95-2.84c1.86,0,2.73.94,2.61,2.92l-.5,1.54a2.52,2.52,0,0,1-2.62,1.37M84.72,60.56c1.75,0,2.56,1,2.44,2.91a3.15,3.15,0,0,1-.5,1.45,2.23,2.23,0,0,1-2.27,1.15,2.36,2.36,0,0,1-2-1.3A3,3,0,0,1,82,63.16a2.5,2.5,0,0,1,2.77-2.6M84.37,74.1a2.69,2.69,0,0,1-2-1,2.62,2.62,0,0,1-.62-1.89c.12-2,1.1-2.86,2.94-2.67a2.56,2.56,0,0,1,2.6,3,3.23,3.23,0,0,1-.5,1.46,2.46,2.46,0,0,1-2.45,1.11m-4.32-1.38a3.13,3.13,0,0,1-.51,1.45A2.45,2.45,0,0,1,75.31,74a2.81,2.81,0,0,1-.47-1.62,2.5,2.5,0,0,1,2.78-2.59c1.74,0,2.55,1,2.44,2.9M73.51,82A2.92,2.92,0,0,1,73,80.35a2.5,2.5,0,0,1,2.78-2.59c1.74,0,2.55,1,2.44,2.9a3.44,3.44,0,0,1-.5,1.46,2.23,2.23,0,0,1-2.27,1.13,2.32,2.32,0,0,1-2-1.29m-1.74,8.37a2.36,2.36,0,0,1-2-1.3,2.92,2.92,0,0,1-.47-1.61,2.51,2.51,0,0,1,2.77-2.59c1.75,0,2.55,1,2.44,2.89a3.2,3.2,0,0,1-.49,1.46,2.36,2.36,0,0,1-2.28,1.14m-.71-11.19a2.24,2.24,0,0,1-2.28,1.14,2.31,2.31,0,0,1-2-1.28,2.7,2.7,0,0,1-.47-1.61c.12-2,1.05-2.87,2.78-2.68a2.48,2.48,0,0,1,2.44,3,3.17,3.17,0,0,1-.5,1.45m-4.44,8.42a2.24,2.24,0,0,1-2.28,1.14,2.37,2.37,0,0,1-2-1.29,3,3,0,0,1-.47-1.61,2.51,2.51,0,0,1,2.78-2.59q2.62,0,2.44,2.9a3.23,3.23,0,0,1-.5,1.45m.81,8.12a2.46,2.46,0,0,1-4.25-.15,2.75,2.75,0,0,1-.47-1.6,2.52,2.52,0,0,1,2.78-2.61c1.74,0,2.55,1,2.43,2.9a3.22,3.22,0,0,1-.49,1.46M93.12,61a2.72,2.72,0,0,1-.48-1.62,2.5,2.5,0,0,1,2.77-2.59c1.74,0,2.56,1,2.44,2.9a3.23,3.23,0,0,1-.49,1.44A2.45,2.45,0,0,1,93.12,61m8.71,1.71a2.73,2.73,0,0,1-.47-1.61,2.5,2.5,0,0,1,2.78-2.59c1.75,0,2.56,1,2.43,2.89a3.23,3.23,0,0,1-.5,1.46A2.33,2.33,0,0,1,103.81,64a2.38,2.38,0,0,1-2-1.3m-4.22,7.65A2.77,2.77,0,0,1,97,68.51c.12-2,1.1-2.86,2.94-2.68a2.57,2.57,0,0,1,2.6,3,3.25,3.25,0,0,1-.5,1.45,2.49,2.49,0,0,1-2.44,1.13,2.73,2.73,0,0,1-2-1M93.44,69A2.23,2.23,0,0,1,91,70.41c-1.74-.13-2.53-1.25-2.41-3.33.11-1.86,1-2.84,2.8-2.94s2.55,1.07,2.41,3.33Zm18.78-8.8a2.5,2.5,0,0,1,2.78-2.6c1.74,0,2.55,1,2.43,2.9a3.24,3.24,0,0,1-.49,1.46,2.47,2.47,0,0,1-4.25-.15,3,3,0,0,1-.47-1.61m7.46,11.69a3.14,3.14,0,0,1-.5,1.45,2.33,2.33,0,0,1-2.28,1.15,2.37,2.37,0,0,1-2-1.29,2.75,2.75,0,0,1-.47-1.61,2.52,2.52,0,0,1,2.79-2.6c1.74,0,2.55,1,2.43,2.9m-12.61-2.28A2.5,2.5,0,0,1,109.83,67c1.74,0,2.56,1,2.44,2.9a2.89,2.89,0,0,1-.5,1.45,2.21,2.21,0,0,1-2.28,1.13,2.31,2.31,0,0,1-2-1.28,2.68,2.68,0,0,1-.47-1.62m-1.42,54.81a2.49,2.49,0,0,1,2.43,3,3.25,3.25,0,0,1-.49,1.45,2.46,2.46,0,0,1-4.25-.14,2.75,2.75,0,0,1-.48-1.62c.12-2,1.06-2.87,2.79-2.68m8.71,2.07a2.34,2.34,0,0,1-2-1.29,2.69,2.69,0,0,1-.47-1.61c.12-2,1-2.87,2.79-2.68a2.48,2.48,0,0,1,2.43,3,3.28,3.28,0,0,1-.49,1.45,2.36,2.36,0,0,1-2.29,1.14m-.9,8.08a2.46,2.46,0,0,1-4.25-.15,2.71,2.71,0,0,1-.47-1.61,2.49,2.49,0,0,1,2.77-2.59q2.61,0,2.44,2.9a3.21,3.21,0,0,1-.5,1.45m-10.9,2.93a2.32,2.32,0,0,1-2-1.29,2.7,2.7,0,0,1-.47-1.61,2.5,2.5,0,0,1,2.78-2.59c1.74,0,2.56,1,2.44,2.9a3.14,3.14,0,0,1-.5,1.45,2.23,2.23,0,0,1-2.28,1.14M90.06,122.63c1.75,0,2.56,1,2.44,2.91A3.46,3.46,0,0,1,92,127a2.46,2.46,0,0,1-4.24-.15,2.73,2.73,0,0,1-.47-1.62,2.51,2.51,0,0,1,2.78-2.59m5.12,12.57a2.35,2.35,0,0,1-2-1.28,3.11,3.11,0,0,1-.47-1.62,2.5,2.5,0,0,1,2.78-2.58c1.74,0,2.56,1,2.44,2.9a3.2,3.2,0,0,1-.5,1.45,2.31,2.31,0,0,1-2.27,1.14m-5.28-.58A2.74,2.74,0,0,1,87.11,136a2.7,2.7,0,0,1-2.06-1.11,2.93,2.93,0,0,1-.55-1.89c.12-1.85,1.16-2.8,3.12-2.83s2.9.9,2.77,2.94Zm-22-35.05c.12-2,1.15-2.86,3.1-2.65s2.87,1.22,2.76,3a2.81,2.81,0,0,1-.49,1.45,2.6,2.6,0,0,1-2.61,1.12,2.9,2.9,0,0,1-2.14-1,2.62,2.62,0,0,1-.62-1.89m-3.38,7.1c.12-2,1.05-2.87,2.78-2.67s2.54,1.19,2.43,3a3.44,3.44,0,0,1-.5,1.45A2.23,2.23,0,0,1,67,109.58a2.39,2.39,0,0,1-2-1.29,2.73,2.73,0,0,1-.47-1.62m12.1,5.39a3.15,3.15,0,0,1-.51,1.45,2.33,2.33,0,0,1-2.27,1.14,2.37,2.37,0,0,1-2-1.28,3.11,3.11,0,0,1-.47-1.62,2.5,2.5,0,0,1,2.78-2.58c1.75,0,2.56,1,2.44,2.89m-1.07,6.66c.13-2,1.12-2.92,2.95-2.66s2.69,1.38,2.56,3.35a3.08,3.08,0,0,1-.49,1.45A2.32,2.32,0,0,1,78.33,122a2.73,2.73,0,0,1-2.13-1.39,3.53,3.53,0,0,1-.62-1.9m-2.46,1.56a2.45,2.45,0,0,1-4.25-.15,2.7,2.7,0,0,1-.47-1.6c.13-2,1-2.87,2.78-2.68a2.49,2.49,0,0,1,2.43,3,3.17,3.17,0,0,1-.5,1.45M81.2,123c1.75,0,2.56,1,2.44,2.9a3.13,3.13,0,0,1-.5,1.45,2.45,2.45,0,0,1-4.24-.15,2.67,2.67,0,0,1-.47-1.61A2.51,2.51,0,0,1,81.2,123"/></svg>