<svg id="Layer_1" data-name="Layer 1" xmlns="http://www.w3.org/2000/svg" width="7.06cm" height="7.06cm" viewBox="0 0 200 200"><defs><style>.cls-1{fill:#ff8300;fill-rule:evenodd;}</style></defs><title>leaf-1</title><path class="cls-1" d="M170.09,67.54a18.59,18.59,0,0,0-6.52-2.37q-10-1.88-16.2.92-6.47,3-9.4,4.48a63.36,63.36,0,0,0-7.57,4.7q-.06-.08-9.6,6.93c-.6.47-1.18,1-1.73,1.45a6.79,6.79,0,0,0-1-.13,4.55,4.55,0,0,1-2.74-1.31,8.25,8.25,0,0,1-1.79-3.75,5.71,5.71,0,0,0-.48-2.12.68.68,0,0,0-.55-.27,1.09,1.09,0,0,1-.38,0,6.45,6.45,0,0,0-1.47,2.79q-.31,2.65,2.67,6.1l-.09.06a4.54,4.54,0,0,0-1.22.87c-.53.64-.45,1.37.24,2.15a2.55,2.55,0,0,0,1.13.76q-1.22,1.56-.73,2.11c.32.37.89.41,1.7.12l.29.06a.88.88,0,0,0,.15.4s.08.06.12.18a3.09,3.09,0,0,0,.88,1.61,17.3,17.3,0,0,0,2.8,2.82,1.89,1.89,0,0,0,2.21-.15,3.68,3.68,0,0,0-.11-1.31,2.73,2.73,0,0,0,2.08-.25,1.38,1.38,0,0,0,.48-2,21.43,21.43,0,0,1-1.82-4A6.06,6.06,0,0,1,121.7,87a14.41,14.41,0,0,0,.82-1.79,122,122,0,0,1,10.08-7.43l7-4.67a48.41,48.41,0,0,1,8.62-4A24,24,0,0,1,152.85,68a38.47,38.47,0,0,1,5.26-.74c1.27,0,3.6.51,7,1.66,3.49,1.31,5.63,2,6.44,2q1-1.76-1.49-3.39"/><path class="cls-1" d="M32.62,90.33A12.67,12.67,0,0,0,31.36,92a28.18,28.18,0,0,0-2,4q-2.54,6.25.32,9.54a2,2,0,0,0,1.79.82.47.47,0,0,0,.32-.1,12.85,12.85,0,0,0,5.46,1.26c3.56,0,5.52,0,5.85.07q5,.7,10.4,5.79a3.89,3.89,0,0,1,.69,1,5.91,5.91,0,0,1-1.29,2.67,7.45,7.45,0,0,1-3.49,1.69c-.16,0-1.45.06-3.89.26a17.85,17.85,0,0,0-10.37,4.43L32,128q-2.69,5.09-.38,7.81,2.68,3.1,11.56-1c1.5-.7,2.83-1.36,4-2,.4-.21.79-.41,1.18-.59a29.56,29.56,0,0,0,3.59-2.5,21.18,21.18,0,0,0,3-2.85,6.22,6.22,0,0,1,1.43-.76.49.49,0,0,0,.26-.18,3,3,0,0,1,2.11.73q1.83,2.1.06,5.65a62.24,62.24,0,0,1-4.71,6.56,34.49,34.49,0,0,0-4.54,6.82q-1.58,3.73.54,6.19,3.22,3.75,16.06-1.7a7.22,7.22,0,0,0,2.06-2.36,4.29,4.29,0,0,0,.58-2.14,5.31,5.31,0,0,0,.33-2,26.48,26.48,0,0,0-.85-6.18,23.18,23.18,0,0,1-.59-6.36A9.76,9.76,0,0,1,70.61,125a6,6,0,0,1,3.92-1.53,5.34,5.34,0,0,1,4.45,1.8,5.91,5.91,0,0,1,1,5.4,54.17,54.17,0,0,1-2.31,6.59,23.4,23.4,0,0,0-1.94,7,9.76,9.76,0,0,0,2.47,7.12q.84,1,5.87,2.55,5.79,1.85,7.37.37,2.76-2.89,2.13-8.29a44,44,0,0,0-3-10.31Q87.6,128,87.1,126q-1.18-4.89.73-6.92a5.28,5.28,0,0,1,4-1.73A3.88,3.88,0,0,1,95,118.49a10.39,10.39,0,0,1,2.67,6.09c0,.31-.12,2.31-.33,6a19.35,19.35,0,0,0,.57,6.43,29.41,29.41,0,0,0,.37,3q1.15,7.29,4.18,10.84,2.62,3,10.21,2.3,6.33-.44,7.43-1.42,1.37-1.22,1.51-5.94a17.08,17.08,0,0,0-4.46-11.73,15.22,15.22,0,0,0-3.64-3.15q-2.07-1.25-7.61-7.71a87.87,87.87,0,0,1-4.55-7.55c-.08-.31-.15-.6-.2-.86a5,5,0,0,1,.82-4q1.8-1.82,2.74-2.75c1.27-1.35,3-1.49,5.27-.43a17.06,17.06,0,0,1,5,3.57q1.22,3.63,3.29,9.69,5.41,15.61,7.71,18.33a14.13,14.13,0,0,0,10.85,5.06c3.44.1,5.83-.42,7.16-1.55a2.34,2.34,0,0,0,1-.54,11.73,11.73,0,0,0,3.66-6.55q1.55-6.14-4.41-9.77-9.08-5.6-13.18-8a.26.26,0,0,0,0-.16l-4.57-5.28c-.62-1.13-1.18-2.12-1.66-3-.78-2.51-.42-4.57,1.11-6.16q1.74-1.6,4.86.46,3.91,4.48,6.54,8.17c1.74,2.51,3,4.21,3.77,5.12q4.38,5.1,10.38,4.44c.58-.13,1.13-.27,1.67-.42.25,0,.54-.11.86-.2a9.62,9.62,0,0,0,3.37-1.8q2.36-2,2.9-6.47a18.43,18.43,0,0,0-1-8.93,16.61,16.61,0,0,0-15.27-12.19,29.61,29.61,0,0,0-6.38.73c-1.33.13-2.51.27-3.54.41a80.57,80.57,0,0,1-8.88-1.06c-3.9-.79-6-1.34-6.21-1.63Q115,85.41,115.31,81a30.07,30.07,0,0,1,2.22-8,21,21,0,0,0,1.61-10.12q-.46-4.82-4.51-11.14t-9.4-6.64A9.54,9.54,0,0,0,96.56,49a10.77,10.77,0,0,0-2.07,9.43,102.41,102.41,0,0,0,3.71,11,38.86,38.86,0,0,1,2.75,8.3,8.61,8.61,0,0,1-2.44,7.55,9.46,9.46,0,0,1-3.25,2.35,12.3,12.3,0,0,1-1.7-1.62q-6.88-8-6.23-13.37c0-.14.4-1.62,1.12-4.43a12,12,0,0,0,.3-5.13,8.35,8.35,0,0,0-1.36-4.79A17.93,17.93,0,0,0,83,53.43Q77.11,48.92,72.2,52a7.93,7.93,0,0,0-3.44,2.15Q66.2,56.71,67,63A22.91,22.91,0,0,0,72.3,75.16q.38.37,5.16,5,2.41,2.22,4.75,4.35a11.57,11.57,0,0,1,2.63,5.19,5.68,5.68,0,0,1-.71,4.59,41,41,0,0,0-4,1.43l-.09.06a29.65,29.65,0,0,1-7.66-6q-.84-1-3.9-7.78c-1.95-4.51-3.62-7.58-5-9.22q-4.86-5.65-9.27-5a8.77,8.77,0,0,0-4.31,2.36q-.1.13-1.61,1.25a15.55,15.55,0,0,0-2.58,3.08q-3.13,5.08,1.07,9.92,2.05,2.45,9.6,6t9.55,5.92a43.86,43.86,0,0,1,5.34,8.15.24.24,0,0,1-.13.27,6.14,6.14,0,0,1-1.24,2.39q-5.44,4.61-10.8-1.59a81.43,81.43,0,0,1-5.8-7.34l-6.09-7-.51-.48a7.57,7.57,0,0,0-2.32-1.9q-5.93-3.38-11.68,1.61m37.2,25.59q1.13,1.43-2.21,4.21a7,7,0,0,1-1.26,1c-.48.16-1-.1-1.64-.79a1.83,1.83,0,0,1-.26-2.45l1.26-1c1.84-1.63,3.2-2,4.11-1m39.24-30.74a4.9,4.9,0,0,1-1.4,4.67,1.38,1.38,0,0,1-.89.35c-.37.07-.75-.13-1.16-.61a3.32,3.32,0,0,1-.67-3.75c.76-1,1.16-1.52,1.22-1.55q2.46-2.13,2.9.89m-32,18a9.74,9.74,0,0,0,1-.92q3.08-2.6,7.7-1.3a3.64,3.64,0,0,1,2.45,1.63c.44.79.18,1.59-.78,2.4q-1,.84-4.48,1.35c-2.76.44-4.61.09-5.57-1.06-.65-.78-.75-1.48-.33-2.1M115,104.42a3.09,3.09,0,0,1-2.4-1.16,2.86,2.86,0,0,1-.72-3.07l.81-1q2.37-2.07,4.19.48c1.2,1.74,1.13,3.19-.2,4.32a2.27,2.27,0,0,1-1.67.48"/></svg>