<svg id="Layer_1" data-name="Layer 1" xmlns="http://www.w3.org/2000/svg" width="7.06cm" height="7.06cm" viewBox="0 0 200 200"><defs><style>.cls-1{fill:#3fa9f5;fill-rule:evenodd;}</style></defs><title>leaves-4</title><path class="cls-1" d="M89.61,67.31c2.72,5.92,2.22,17.26,1.64,20.45a35,35,0,0,1-10.59,18.9c-3.17,2.83-11.59,9.26-16,7.86s-4.9-9.71-6-13.33c-1.88-6.22-1.93-12.8,1.6-18.51,3.75-6,17.05-19.82,25.22-19,1.85.19,3.17,1.59,4.12,3.64"/><path class="cls-1" d="M140.39,124.36c-5.06,5.61-17.35,10.28-21,11.11a40.58,40.58,0,0,1-25-2.61c-4.48-2.09-15.15-8.09-15.69-13.43s8.09-9.67,11.45-12.48c5.76-4.86,12.74-7.92,20.43-6.77,8.16,1.22,28.91,9.06,31.79,18.14.64,2-.25,4.1-2,6"/></svg>