<svg id="Layer_1" data-name="Layer 1" xmlns="http://www.w3.org/2000/svg" width="7.06cm" height="7.06cm" viewBox="0 0 200 200"><defs><style>.cls-1{fill:#ff8300;}.cls-1,.cls-2{fill-rule:evenodd;}.cls-2{fill:#fff;}</style></defs><title>lemon-4</title><path class="cls-1" d="M147.58,142.67q3.56,8-2.52,12.64c-3.16,2.41-6.88,2.84-11.18,1.34a61.22,61.22,0,0,0-16.7-2.36q-10.39-.19-17.53-.87t-17.34-4.76a45.28,45.28,0,0,1-17.6-12.6Q47.16,116,45.06,101.15a36.9,36.9,0,0,1,.36-11.2c.3-1.43.58-2.72.85-3.82l0-.11c.5-3.95.75-6.69.79-8.23q.18-7.4-2.28-24.88a8,8,0,0,1,.52-4.83,30.4,30.4,0,0,1,5.82-5.27q1.75-1.29,10.33,2.49c6.6,2.76,11,4.05,13.21,3.85,1.78-.05,4.75-.25,8.87-.6a64.57,64.57,0,0,1,10.27.19,73.79,73.79,0,0,0,9.42.37,46.43,46.43,0,0,1,11.92,2.09q15.73,5.08,34.49,27.13,8.33,18.1,4.65,31.07a36.3,36.3,0,0,1-.77,7.27q-3.87,17.34-5.9,26"/><path class="cls-2" d="M138,106.7a3.49,3.49,0,0,1-1.79.84,3.18,3.18,0,0,1-2.62-1.07c-2.24-2.4-2.57-4.23-1-5.44q2.78-2.15,5.31.77c1.71,2,1.74,3.65.11,4.89m-1-27.59c1.87,1.92,2,3.49.34,4.72a6.11,6.11,0,0,1-2.66,1,4.27,4.27,0,0,1-3.67-1c-1.88-2.06-2.1-3.67-.59-4.79,2.45-1.88,4.65-1.91,6.58,0m-14.72-9.91a6.47,6.47,0,0,1-3.78,1.26,5.43,5.43,0,0,1-4.36-1.69c-2.13-2.37-2.31-4.24-.55-5.68q3.32-2.64,8.5-.23t.2,6.34m-12.58,9.2c1.44,1.58,1.34,3-.3,4.35a4.2,4.2,0,0,1-2.22.59,3.47,3.47,0,0,1-2.87-1c-.95-1.06-1.14-2-.57-3L104.91,78c1.79-1.35,3.39-1.24,4.82.37m-5.25-13.33a8.58,8.58,0,0,1-4.25,1.61c-2.21.29-3.79-.12-4.77-1.23a7,7,0,0,0-.7-.73,3.62,3.62,0,0,1-2.25-1.14,3,3,0,0,1-.83-2.9c.38-.66.6-1,.69-1a1.59,1.59,0,0,0,.32-.32,4.36,4.36,0,0,1,1.36-2c4.38-3.45,7.85-3.47,10.38-.14,2.7,3.21,2.71,5.84,0,7.85M78.18,67c-1.67.41-2.91.13-3.75-.84q-5-5.62-1.92-8.09,3.36-2.53,7.2,1.48c2.58,2.76,3,4.85,1.1,6.31A8.38,8.38,0,0,1,78.18,67"/></svg>