<svg id="Layer_1" data-name="Layer 1" xmlns="http://www.w3.org/2000/svg" width="7.06cm" height="7.06cm" viewBox="0 0 200 200"><defs><style>.cls-1{fill:#ffa7aa;}</style></defs><title>music-2</title><path class="cls-1" d="M74.32,106.56c-15.12-13.33-42.61-11-48.56,6.7-4.19,12.44,3.13,27.37,12,33.73,12.4,8.87,24.41,9.88,37,5,9.39-3.61,13.09-13.47,13.77-23.73.81-12.2-3.06-45.47-4-57.07,11.73-1.47,62-.2,66.25-.19.62,4.88,0,36.57,0,43.21-13.31-9.8-30.14-6.16-37-1.39-9,6.21-11.75,15.48-8.52,25.51,7.24,22.42,41.1,23.34,54.43,8.17,5.2-5.92,6.14-11.43,6.6-19.9.64-11.66-.51-57.55-1.41-82.84-.09-2.53-1-3.59-4-3.64-16.58-.27-27.43.24-44.71.2-11.95,0-37,.33-44,.42-2.27,0-3.46.9-3.19,4.15C70,56.81,74.32,106.56,74.32,106.56Z"/></svg>