<svg id="Layer_1" data-name="Layer 1" xmlns="http://www.w3.org/2000/svg" width="7.06cm" height="7.06cm" viewBox="0 0 200 200"><defs><style>.cls-1{fill:#ff8300;}.cls-1,.cls-2,.cls-3,.cls-4,.cls-7{fill-rule:evenodd;}.cls-2{fill:#010101;}.cls-3{fill:#fff;}.cls-4{fill:#2e2a25;}.cls-5{fill:none;stroke:#2e2a25;stroke-linecap:round;stroke-linejoin:round;stroke-width:2.9px;}.cls-6{fill:#3aae6c;}.cls-7{fill:#ffce00;}</style></defs><title>pingi-1</title><path class="cls-1" d="M113.2,166.94c-5.75-2.48-9.81-.05-14.4,3.88-1.84,1.57-5.63,4.58-6.32,7-2.91,10.08,21.62,8,26,7.32,2.64-.39,8.26-1.69,8.36-5.13.06-2-2.73-4.93-4-6.3A28.85,28.85,0,0,0,113.2,166.94Z"/><path class="cls-1" d="M73.64,157.13c-3.56-.75-7.14-1.2-10.71-1.87-3.85-.72-10.39-1.63-13.28,1.87-2.17,2.62.29,6.49,2.1,8.47,4.31,4.74,10.69,7.64,16.44,10.22,3.53,1.59,8.23,3.08,10.58-1,2.15-3.75,2.35-11.94-.55-15.35A8,8,0,0,0,73.64,157.13Z"/><path class="cls-2" d="M69.67,36C55.59,46,47.13,61.84,43.59,78.47c-5.4,25.38-2.43,62.92,19.42,80.38a117.88,117.88,0,0,0,12.59,8.84A51.74,51.74,0,0,0,91,173.51a179.44,179.44,0,0,0,20,3q18.52.72,24.53-1.06a53.21,53.21,0,0,0,11.11-4.63c3.45-1.93,5.39-3.06,5.82-3.39l1.29-1a8.82,8.82,0,0,0,1.68-1.93,4.72,4.72,0,0,0,1.07-2.94,11.16,11.16,0,0,0-.84-3.91q-.82-2.51-4.88-3t-4.5-7.08l.52-2.48q1.08-5.16,5.68-18.74a218,218,0,0,0,7-25.1q2.26-10.81,2.54-12.42c3.48-20.88-.74-34.35-17.46-48.12-11.34-9.34-33.69-17.57-48.42-15.17A62.33,62.33,0,0,0,69.67,36"/><path class="cls-3" d="M143.73,59.56q-10.45-14.24-35.42-17.51c-14-1.83-28.82-1.6-38.59,10.22C57,67.63,53.08,93.18,54.79,112.42c2.71,30.35,24.17,44.66,53.57,43.09,8-.42,15.87-3.24,21-9.64,8.68-10.85,13.35-24.4,16.56-37.72q8.28-34.39-2.18-48.58"/><path class="cls-4" d="M89.63,63.28a11,11,0,0,0-6.09-6.37A11.42,11.42,0,0,0,75,56.67a11,11,0,0,0-6.39,6,11.33,11.33,0,0,0-.3,8.56A12.78,12.78,0,0,0,74.14,78a12.41,12.41,0,0,0,9,.13,10.82,10.82,0,0,0,6.47-6,11.85,11.85,0,0,0,0-8.83"/><path class="cls-3" d="M74,61.27a2.68,2.68,0,0,0,.79,1.9,2.58,2.58,0,0,0,3.65,0,2.8,2.8,0,0,0,.76-1.9,2.36,2.36,0,0,0-.67-1.8,2.63,2.63,0,0,0-1.91-.87,3,3,0,0,0-2,.84A2.38,2.38,0,0,0,74,61.27"/><path class="cls-4" d="M139.34,73.66a10.8,10.8,0,0,0-7.72-3.76,11.16,11.16,0,0,0-7.94,2.73,12.63,12.63,0,0,0-4.14,7.75,12.24,12.24,0,0,0,3,8.28,10.67,10.67,0,0,0,7.76,3.82,11.6,11.6,0,0,0,8.09-3.09,10.68,10.68,0,0,0,3.69-7.81,11.17,11.17,0,0,0-2.78-7.91"/><path class="cls-3" d="M135,74.86a2.63,2.63,0,0,0-1.47,1.39,2.53,2.53,0,0,0,1.24,3.37,2.82,2.82,0,0,0,2,0,2.34,2.34,0,0,0,1.42-1.24,2.63,2.63,0,0,0,.13-2.07,3,3,0,0,0-1.46-1.49,2.25,2.25,0,0,0-1.86,0"/><path class="cls-1" d="M99.9,81.87a8.91,8.91,0,0,0-3.09,1.9l-3-.63q-2.9-.6-4.08.89A2.55,2.55,0,0,0,89,85.64c-.41,2,.25,4.13,2,6.47a13.67,13.67,0,0,0,8.54,5.42q6.63,1.38,10.83-1,2.89-1.61,3.35-3.8c.36-1.71.3-2.92-.19-3.6a3,3,0,0,0-2-1.15,15.66,15.66,0,0,1-2.85-.87,5.27,5.27,0,0,1-2.58-2.69,5.3,5.3,0,0,0-2.37-1.84,5.44,5.44,0,0,0-3.89-.68"/><path class="cls-5" d="M108.83,92.47a11.65,11.65,0,0,1-4.12,2.36,11.59,11.59,0,0,1-5.87-.49q-3.75-1-5.8-6"/><path class="cls-4" d="M109.29,93.44a1.46,1.46,0,0,0,1.29-.34,1.86,1.86,0,0,0,.7-1.13,2.15,2.15,0,0,0-.17-1.38,1.52,1.52,0,0,0-1.06-.75,1.44,1.44,0,0,0-1.2.28,2.14,2.14,0,0,0-.72,1.19,1.83,1.83,0,0,0,.19,1.32,1.37,1.37,0,0,0,1,.81"/><path class="cls-4" d="M93.69,88.76a1.83,1.83,0,0,0,.7-1.13,1.93,1.93,0,0,0-.18-1.39,1.87,1.87,0,0,0-1.11-.77,1.36,1.36,0,0,0-1.14.29,1.73,1.73,0,0,0-.85,1.17,1.63,1.63,0,0,0,.32,1.34,1.37,1.37,0,0,0,.92.73,1.87,1.87,0,0,0,1.33-.25"/><path class="cls-2" d="M113.93,20.05a7.4,7.4,0,0,1-1.85,8.21Q108.55,32,108.87,33a2.09,2.09,0,0,0,.91,1.13,3.93,3.93,0,0,0,3.16,0,10.61,10.61,0,0,0,2.83-1.35A9.67,9.67,0,0,1,118,31.52c2.66-.92,4.08-3.13,4.28-6.63a14.55,14.55,0,0,0-.55-5.42q-1.6-4.89-5.07-5c-2.3-.08-3.23,1.77-2.77,5.53"/><circle class="cls-6" cx="66.6" cy="120.4" r="33.19" transform="translate(-70.98 122.03) rotate(-61.73)"/><path class="cls-7" d="M41.52,142.17c-.37-.46-.76-.9-1.12-1.37.09-3.74,2.22-24.28,20-36.82,0,0,11.1-9.72,30.2-6.46a24,24,0,0,1,2.26,2.61s1.72,17-17.14,33.24c0,0-16.08,12.44-29.94,12.91A26.79,26.79,0,0,1,41.52,142.17Z"/><path class="cls-2" d="M54,122.2c1.72-.91,2.72-1.6,3-2.07,1.14-2.21.33-5.63-2.44-10.21A75,75,0,0,0,47,99.26c-1.87-2.13-4.32-7.33-7.79-6.69-2.95.54-5.11,4.51-6.13,7-2,5-3,9.74-1.78,14.9C33.12,121.94,47.21,125.8,54,122.2Z"/><path class="cls-2" d="M90.08,135.85q2.71,4.61,13,7a77.71,77.71,0,0,0,20.47,1.34c4.69-.31,12.29-.54,16.16-3.5s3.56-8.43,4.85-12.73a92.1,92.1,0,0,0,3.93-18.32c-9.66,2.44-19,6-28.63,8.58-8.39,2.25-16.45,4.15-24.25,8.08-4.35,2.21-6.63,4.4-6.81,6.56a6.76,6.76,0,0,0,1.26,3"/></svg>