<svg id="Layer_1" data-name="Layer 1" xmlns="http://www.w3.org/2000/svg" width="7.06cm" height="7.06cm" viewBox="0 0 200 200"><defs><style>.cls-1{fill:#010101;}.cls-1,.cls-2,.cls-3{fill-rule:evenodd;}.cls-2{fill:#ffa0a3;}.cls-3{fill:#fff;}.cls-4{fill:none;stroke:#010101;stroke-linecap:round;stroke-linejoin:round;stroke-width:1.81px;}</style></defs><title>ping3-3</title><path class="cls-1" d="M103.77,19.59q3.25,2.64,2.61,8.87a3.21,3.21,0,0,0,.3,1.8,2.24,2.24,0,0,0,2,1.41,2.34,2.34,0,0,0,2.61-1.18c.18-1,.27-1.53.28-1.61a10.72,10.72,0,0,0-1.77-6.36A7.2,7.2,0,0,0,107,19.69a3.75,3.75,0,0,0-2.64-.27l-.62.18"/><path class="cls-1" d="M35.84,46.36q-8.33-5-12.94-3.46a6.49,6.49,0,0,0-2.68,1.26q-1.84,2.55.58,9.11Q27.57,71.55,38,78.66q8.71,6,17.6,3.09,6.2-2,4.2-9-2-6.23-9.14-14.12A69,69,0,0,0,35.84,46.36"/><path class="cls-1" d="M180.39,134.35q1.12-4.74-4.58-12.78a73.4,73.4,0,0,0-13.45-13.79q-8.44-6.68-14.75-8.11-7.28-1.55-8.72,4.78-2.12,9.12,4.58,17.36,8,9.85,26.76,15.32,6.74,1.94,9.06,0a5.9,5.9,0,0,0,1.1-2.78"/><path class="cls-2" d="M90.26,161.59l-19.1,2.88q-4.88,2.39-6.16,4a3.94,3.94,0,0,0-.46,3,4.85,4.85,0,0,0,1.22,2.81,13.76,13.76,0,0,0,5.1,2.28,4.84,4.84,0,0,0-.82,3.85A3.86,3.86,0,0,0,71.47,183a5.71,5.71,0,0,0,4.39.75q7.44-1.61,8.74-2.72a7.17,7.17,0,0,0,1.63,2.68q2,2.14,6,1.54c3.1-.47,5.17-1.8,6.23-4,.36-2.21.54-3.34.53-3.38a40.61,40.61,0,0,0-2.46-8.59q-2.81-7.26-6.23-7.72"/><path class="cls-2" d="M143.92,165.56q-1.22-1.64-6-4.22L119,158q-3.55.35-6.48,7.56a36.57,36.57,0,0,0-2.61,8.51c0,.09.1,1.22.39,3.42,1,2.21,3,3.61,6.12,4.2,2.64.45,4.65,0,6.07-1.47a6.78,6.78,0,0,0,1.68-2.63q1.22,1.15,8.69,3a5.68,5.68,0,0,0,4.34-.72,3.5,3.5,0,0,0,1.5-2.55,4.66,4.66,0,0,0-.71-3.86,12.3,12.3,0,0,0,5.11-2.17,4.76,4.76,0,0,0,1.29-2.76,3.59,3.59,0,0,0-.45-3"/><path class="cls-1" d="M92.9,28q-15.22-.12-29,12.48T45.75,67.64a97.9,97.9,0,0,0-3.54,32q.61,12.43,6.92,30.42l.2.38q3.06,6.32,4.54,10.17a57.13,57.13,0,0,0,4.93,9.19,34,34,0,0,0,9.63,9.6,104.34,104.34,0,0,0,12.29,7.21,44.78,44.78,0,0,0,14.56,4,152.61,152.61,0,0,0,18.54.82q17-1.28,22.32-3.63a49.36,49.36,0,0,0,9.74-5.68q4.47-3.35,5-3.9l1.09-1.11a8.21,8.21,0,0,0,1.36-2,4.83,4.83,0,0,0,.73-3,11.58,11.58,0,0,0-1.13-3.69c-.65-1.56-2.22-2.37-4.73-2.43s-4.07-2.22-4.73-6.37l.26-2.46q.52-5.09,3.5-18.73a225.53,225.53,0,0,0,4.16-25q1.11-10.75,1.2-12.31.2-3.07.2-11.26c-.12-.86-.23-1.74-.34-2.64a39.51,39.51,0,0,0-14.64-26.24q-12.35-10.08-21.07-11.46A169,169,0,0,0,92.9,28"/><path class="cls-3" d="M133.56,52.38q-10.78-13-33.91-13.45T66.77,52.52Q57,66.61,54.2,79.24a87.32,87.32,0,0,0-1,27.91,63.49,63.49,0,0,0,10.09,28q8.4,12.62,15.51,18.39,6.6,5.35,11.94,5.9,14.57,1.5,29.47-11.21t19.54-47.78q4.59-35.12-6.2-48.05"/><path class="cls-1" d="M111.87,18.06a19.32,19.32,0,0,1,.54,3.63,7.31,7.31,0,0,1-3.13,5q-2.83,2.25-2.92,3a2.31,2.31,0,0,0,.59,1.94,2.76,2.76,0,0,0,1.85.86,5.87,5.87,0,0,0,6-2.72Q116,26.56,116,26.43a15.54,15.54,0,0,0-.72-6c-.83-3-2.2-4.9-4.13-5.82q0,.31.67,3.47"/><path class="cls-1" d="M110,33.77l-.9-.22A50.84,50.84,0,0,0,88.73,32.3c-3,.45-11,1.57-12.1,4.95-1.82,5.49,6.16,3,8.49,3.25,6.65.62,7.89,3.21,13,6.91,9.21,6.7,19.06-3.51,28.54,0,2.66,1,4.79,2.84,7.08,4.49,2.51,1.81,9.52,6.77,8.47-.18-.57-3.8-5.06-8.27-8.15-10.23C126.9,37,118.1,35.72,110,33.77Z"/><path class="cls-2" d="M93,79.21l-3.17-.42c-2-.27-3.42.07-4.16,1a2.32,2.32,0,0,0-.56,1.57q-.38,2.81,2.67,6a15.32,15.32,0,0,0,9.32,4.52q7,.93,11.09-1.51c1.9-1.12,2.94-2.37,3.12-3.72.21-1.63.06-2.77-.46-3.41a3.63,3.63,0,0,0-2.19-1,19.08,19.08,0,0,1-3-.64,5.67,5.67,0,0,1-2.91-2.34,5.4,5.4,0,0,0-2.64-1.63A6.41,6.41,0,0,0,96,77.24a8.54,8.54,0,0,0-3,2"/><path class="cls-4" d="M107.34,85.75a13.75,13.75,0,0,1-4.64,2.91c-1.57.52-3.89.48-7-.14s-5.57-2.63-7.46-6.17"/><path class="cls-1" d="M108.43,85.83a1.22,1.22,0,0,0,.41-.74,1.13,1.13,0,0,0-.93-1.28.94.94,0,0,0-.82.26.93.93,0,0,0-.46.72,1.07,1.07,0,0,0,.26.83,1,1,0,0,0,.73.4,1.2,1.2,0,0,0,.82-.2"/><path class="cls-1" d="M89.14,81.74a.9.9,0,0,0-.94-1.22,1,1,0,0,0-.74.14,1.14,1.14,0,0,0-.48.79.93.93,0,0,0,.26.77.82.82,0,0,0,.67.45,1.18,1.18,0,0,0,.89-.25,1.15,1.15,0,0,0,.34-.69"/><path class="cls-3" d="M87.34,74.59A11.92,11.92,0,0,0,90,65.52,12.37,12.37,0,0,0,65.4,68.4a13.1,13.1,0,0,0,4.69,8.45,12.18,12.18,0,0,0,9.08,2.55,13.08,13.08,0,0,0,8.17-4.81"/><path class="cls-1" d="M76.21,57.1a9.07,9.07,0,0,0-6.75,2.76,9.35,9.35,0,0,0-2.78,6.5,9.12,9.12,0,0,0,2.65,6.74,9.38,9.38,0,0,0,6.5,2.83,10.65,10.65,0,0,0,7-2.45,10.31,10.31,0,0,0,2.82-6.88A9,9,0,0,0,83,59.8a9.86,9.86,0,0,0-6.79-2.7"/><path class="cls-3" d="M71.66,64.62a2.24,2.24,0,0,0,1.7,0,2,2,0,0,0,1.14-1.15,1.92,1.92,0,0,0,0-1.64,2.34,2.34,0,0,0-1.23-1.17,2,2,0,0,0-1.59,0,2.26,2.26,0,0,0-1.26,1.21,2.54,2.54,0,0,0,.06,1.76,1.94,1.94,0,0,0,1.17,1.06"/><path class="cls-3" d="M111.77,79.77a12,12,0,0,1-.17-9.44,12.37,12.37,0,1,1,23,9.2,13.2,13.2,0,0,1-6.73,6.93,12.26,12.26,0,0,1-9.44.08,13.11,13.11,0,0,1-6.64-6.78"/><path class="cls-1" d="M132.66,77.12a9.12,9.12,0,0,1-4.33,5.81,9.4,9.4,0,0,1-7,1,10.6,10.6,0,0,1-6.1-4.19,10.29,10.29,0,0,1-.93-7.39,8.93,8.93,0,0,1,4.33-5.86,9.8,9.8,0,0,1,7.27-.83,9.06,9.06,0,0,1,5.8,4.42,9.45,9.45,0,0,1,1,7"/><path class="cls-3" d="M128.74,74.74a2.21,2.21,0,0,1-1.63-.47,2.14,2.14,0,0,1-.38-3,2.37,2.37,0,0,1,1.5-.8,1.93,1.93,0,0,1,1.54.38,2.18,2.18,0,0,1,.9,1.49,2.5,2.5,0,0,1-.51,1.68,1.94,1.94,0,0,1-1.41.72"/><path class="cls-2" d="M125.42,90.58a5.92,5.92,0,1,0,6.49-5.28A5.92,5.92,0,0,0,125.42,90.58Z"/><path class="cls-2" d="M56.73,78.65a5.92,5.92,0,1,0,6.49-5.28A5.92,5.92,0,0,0,56.73,78.65Z"/></svg>