<svg id="Layer_1" data-name="Layer 1" xmlns="http://www.w3.org/2000/svg" width="7.06cm" height="7.06cm" viewBox="0 0 200 200"><defs><style>.cls-1{fill:#ffc78a;}.cls-1,.cls-2,.cls-3,.cls-4,.cls-5,.cls-8{fill-rule:evenodd;}.cls-2{fill:#ff9727;}.cls-3{fill:#005cb9;}.cls-4{fill:#fff;}.cls-6{fill:none;stroke:#fff;stroke-linecap:round;stroke-linejoin:round;stroke-width:1.91px;}.cls-7{fill:#3fa9f5;}.cls-8{fill:#a5d7fa;}</style></defs><title>ping5-3</title><path class="cls-1" d="M38.56,167.11c-1.24,4.81,12.08,5.5,13.46.88,1.61-5.37-9.75-5.56-12.18-3A5,5,0,0,0,38.56,167.11Z"/><path class="cls-1" d="M53.68,175.46c-1.09,4.25,10.7,4.87,11.92.78,1.42-4.76-8.64-4.92-10.79-2.62A4.45,4.45,0,0,0,53.68,175.46Z"/><path class="cls-1" d="M93,194.4a4.56,4.56,0,0,1-3.14,1.23q-3.28,0-4.72-1.78a3.55,3.55,0,0,1-.89-2.25q0-3.62,5.06-3.62t5.06,3.76A3.57,3.57,0,0,1,93,194.4Z"/><path class="cls-1" d="M155,160.93q0-5.6,5.47-5.81t5.47,4.1a6,6,0,0,1-.82,2.87,3.69,3.69,0,0,1-3.42,2.19q-4.71,0-6.15-1.5A2.55,2.55,0,0,1,155,160.93Z"/><path class="cls-1" d="M133.66,186.68q0-4.51,4.44-4.17t4.44,3.62a4.46,4.46,0,0,1-1.09,3.08,4.07,4.07,0,0,1-3.28,1.37,4.31,4.31,0,0,1-4-1.84Q133.66,186.82,133.66,186.68Z"/><path class="cls-2" d="M114.69,152c-5.6-2.32-9.49.1-13.88,4-1.76,1.55-5.39,4.51-6,6.83-2.67,9.8,21,7.39,25.28,6.7,2.55-.42,8-1.75,8-5.08,0-2-2.71-4.73-4-6A28,28,0,0,0,114.69,152Z"/><path class="cls-2" d="M76.26,143.05c-3.46-.67-6.93-1.06-10.4-1.65-3.73-.64-10.08-1.42-12.83,2-2.06,2.57.37,6.28,2.15,8.17,4.25,4.52,10.46,7.24,16.07,9.65,3.44,1.48,8,2.86,10.22-1.12,2-3.67,2.1-11.6-.76-14.85A7.69,7.69,0,0,0,76.26,143.05Z"/><path class="cls-3" d="M70.64,25.89C57.16,35.76,49.2,51.19,46,67.34,41.16,92,44.58,128.28,66,144.87a113.59,113.59,0,0,0,12.31,8.37,50.14,50.14,0,0,0,15,5.41,173.68,173.68,0,0,0,19.38,2.65q17.94.43,23.73-1.38a51.5,51.5,0,0,0,10.69-4.65q5-2.88,5.59-3.37l1.23-1a8.52,8.52,0,0,0,1.6-1.89,4.56,4.56,0,0,0,1-2.86,10.84,10.84,0,0,0-.88-3.77q-.83-2.42-4.76-2.88t-4.46-6.79l.47-2.41q1-5,5.23-18.22a211.54,211.54,0,0,0,6.41-24.4q2-10.5,2.28-12.06c3.06-20.26-1.22-33.24-17.61-46.33-11.12-8.88-32.87-16.51-47.1-14A60.38,60.38,0,0,0,70.64,25.89"/><path class="cls-4" d="M142.68,47.58q-10.32-13.64-34.54-16.43C94.53,29.58,80.22,30,70.93,41.6,58.85,56.66,55.41,81.45,57.35,100c3.06,29.34,24,42.88,52.49,40.93,7.7-.53,15.31-3.37,20.18-9.64,8.25-10.63,12.57-23.82,15.48-36.76q7.51-33.4-2.82-47"/><path class="cls-5" d="M90.36,52a10.61,10.61,0,0,0-6-6.08,11.06,11.06,0,0,0-8.29-.1A10.69,10.69,0,0,0,70,51.66,11,11,0,0,0,69.81,60a12.38,12.38,0,0,0,5.76,6.46,12,12,0,0,0,8.7,0,10.48,10.48,0,0,0,6.17-5.88,11.48,11.48,0,0,0-.1-8.55"/><path class="cls-4" d="M75.16,50.25a2.6,2.6,0,0,0,.79,1.83,2.5,2.5,0,0,0,3.53,0,2.72,2.72,0,0,0,.71-1.85,2.29,2.29,0,0,0-.68-1.74,2.56,2.56,0,0,0-1.86-.82,2.9,2.9,0,0,0-1.88.85,2.3,2.3,0,0,0-.62,1.74"/><path class="cls-5" d="M138.64,61.29a10.47,10.47,0,0,0-7.53-3.53,10.81,10.81,0,0,0-7.65,2.76,12.21,12.21,0,0,0-3.89,7.56,11.84,11.84,0,0,0,3.07,8,10.31,10.31,0,0,0,7.56,3.58A11.23,11.23,0,0,0,138,76.53a10.33,10.33,0,0,0,3.46-7.62,10.82,10.82,0,0,0-2.81-7.62"/><path class="cls-4" d="M134.43,62.51A2.55,2.55,0,0,0,133,63.88a2.46,2.46,0,0,0,1.25,3.24,2.74,2.74,0,0,0,1.94,0,2.26,2.26,0,0,0,1.35-1.22,2.54,2.54,0,0,0,.09-2,2.86,2.86,0,0,0-1.43-1.42,2.19,2.19,0,0,0-1.8,0"/><path class="cls-2" d="M100.58,69.81a8.63,8.63,0,0,0-3,1.89l-2.93-.57q-2.82-.54-3.94.92a2.46,2.46,0,0,0-.63,1.57c-.37,1.92.3,4,2,6.23A13.24,13.24,0,0,0,100.49,85q6.44,1.24,10.47-1.15,2.77-1.6,3.18-3.72.49-2.5-.23-3.48A2.93,2.93,0,0,0,112,75.52a15.09,15.09,0,0,1-2.77-.8,5.11,5.11,0,0,1-2.54-2.56,5.12,5.12,0,0,0-2.32-1.75,5.28,5.28,0,0,0-3.77-.6"/><path class="cls-6" d="M109.37,79.94a11.31,11.31,0,0,1-4,2.34,11.23,11.23,0,0,1-5.7-.39Q96.08,81,94,76.2"/><path class="cls-4" d="M109.84,80.88a1.41,1.41,0,0,0,1.24-.35,1.8,1.8,0,0,0,.66-1.1,2.08,2.08,0,0,0-.19-1.33,1.47,1.47,0,0,0-1-.72,1.39,1.39,0,0,0-1.16.29,2.07,2.07,0,0,0-.68,1.16,1.79,1.79,0,0,0,.21,1.27,1.34,1.34,0,0,0,1,.77"/><path class="cls-4" d="M94.66,76.58a1.77,1.77,0,0,0,.67-1.1,1.87,1.87,0,0,0-.19-1.34A1.81,1.81,0,0,0,94,73.41a1.33,1.33,0,0,0-1.1.3,1.67,1.67,0,0,0-.8,1.15,1.58,1.58,0,0,0,.33,1.29,1.33,1.33,0,0,0,.91.69,1.8,1.8,0,0,0,1.29-.27"/><path class="cls-3" d="M113.25,9.77a7.16,7.16,0,0,1-1.67,8q-3.36,3.63-3,4.6a2,2,0,0,0,.9,1.08,3.81,3.81,0,0,0,3.06-.06A10.38,10.38,0,0,0,115.22,22a9.16,9.16,0,0,1,2.18-1.2c2.56-.93,3.9-3.09,4-6.48a14.08,14.08,0,0,0-.61-5.24q-1.62-4.71-5-4.72t-2.6,5.4"/><circle class="cls-7" cx="68.9" cy="107.6" r="32.14" transform="translate(-58.34 119.24) rotate(-62.6)"/><path class="cls-8" d="M44.95,129c-.36-.44-.75-.86-1.1-1.31,0-3.62,1.79-23.53,18.85-35.94,0,0,10.6-9.57,29.14-6.69a23.26,23.26,0,0,1,2.23,2.5S96,104,78,120c0,0-15.39,12.27-28.8,12.93A25.82,25.82,0,0,1,44.95,129Z"/><path class="cls-3" d="M56.77,109.52a8,8,0,0,0,2.84-2q1.61-3.24-2.51-9.85a72.75,72.75,0,0,0-7.46-10.21c-1.84-2-4.29-7-7.64-6.37-2.85.57-4.88,4.44-5.83,6.87-1.88,4.83-2.78,9.47-1.51,14.45C36.51,109.58,50.21,113.11,56.77,109.52Z"/><path class="cls-3" d="M91.85,122.21q2.69,4.42,12.71,6.54a75.19,75.19,0,0,0,19.83,1c4.53-.36,11.88-.71,15.59-3.62s3.32-8.22,4.51-12.39A89.19,89.19,0,0,0,148,96c-9.31,2.5-18.32,6.09-27.59,8.73-8.09,2.3-15.86,4.26-23.36,8.17-4.17,2.21-6.35,4.36-6.49,6.45a6.55,6.55,0,0,0,1.27,2.91"/><path class="cls-4" d="M91.24,68.72c-5.51,1.92-14.6,3.67-19.82-.13,3.23-6.8,21.55-11.11,25.93-3.48C95.91,66.93,93.4,68,91.24,68.72Z"/><path class="cls-4" d="M128.1,83.17c-5.61-1.6-14.05-5.4-16.13-11.51,6.56-3.7,24,3.31,23.21,12.07C133,84.39,130.31,83.79,128.1,83.17Z"/></svg>