<svg id="Layer_1" data-name="Layer 1" xmlns="http://www.w3.org/2000/svg" width="7.06cm" height="7.06cm" viewBox="0 0 200 200"><defs><style>.cls-1{fill:#ff8300;}.cls-1,.cls-2,.cls-3,.cls-5{fill-rule:evenodd;}.cls-2{fill:#010101;}.cls-3{fill:#fff;}.cls-4{fill:none;stroke:#010101;stroke-linecap:round;stroke-linejoin:round;stroke-width:2.9px;}.cls-5{fill:#ffdb00;}</style></defs><title>ping2-1</title><path class="cls-1" d="M120.48,162c-5.58-1.8-9.15.83-13.09,4.91-1.57,1.63-4.85,4.77-5.28,7.06-1.82,9.66,20.88,5.51,24.91,4.51,2.43-.6,7.55-2.31,7.34-5.53-.13-1.91-3-4.35-4.3-5.52A27.09,27.09,0,0,0,120.48,162Z"/><path class="cls-1" d="M83.47,158.69c-3.39.33-6.72.94-10.1,1.36-3.64.44-9.74,1.48-11.34,5.42-1.2,3,2.09,5.72,4.26,7,5.2,3,11.72,3.8,17.58,4.49,3.6.42,8.23.42,9.17-3.89.87-4-1.27-11.34-4.83-13.56A7.43,7.43,0,0,0,83.47,158.69Z"/><path class="cls-2" d="M56.25,48.47c-11,11.84-15.77,28-15.84,43.91-.11,24.32,9.77,58.19,33.15,70.06a109.61,109.61,0,0,0,13.23,5.71A48.5,48.5,0,0,0,102,170.56a168.58,168.58,0,0,0,18.91-1q17.14-2.87,22.31-5.65a50.16,50.16,0,0,0,9.31-6.37c2.8-2.43,4.36-3.84,4.69-4.23s.7-.81,1-1.15A8.28,8.28,0,0,0,159.4,150a4.39,4.39,0,0,0,.43-2.9,10.44,10.44,0,0,0-1.52-3.43q-1.23-2.15-5.05-1.86t-5.47-5.64v-2.38q0-4.94,1.64-18.28a204.55,204.55,0,0,0,1.64-24.37q0-10.36,0-11.89c-.8-19.83-7.23-31.38-25.2-40.83-12.19-6.41-34.26-9.69-47.33-4.69A58.5,58.5,0,0,0,56.25,48.47"/><path class="cls-3" d="M128.69,55.94q-12.3-11.08-35.84-9.32c-13.22,1-26.75,4-33.46,16.73-8.74,16.52-7.48,40.72-2.24,58,8.27,27.34,30.69,36.37,57.37,29.33,7.22-1.91,13.94-6,17.43-12.85,5.9-11.61,7.59-24.93,8-37.77Q141,67,128.69,55.94"/><path class="cls-3" d="M70,97.51a13.52,13.52,0,0,0,10.22-3.14,14,14,0,0,0-18-21.5,14.89,14.89,0,0,0-5.1,9.69,13.84,13.84,0,0,0,3.23,10.19A14.82,14.82,0,0,0,70,97.51"/><path class="cls-2" d="M79.87,75.82a10.31,10.31,0,0,0-6.81-4.69,10.72,10.72,0,0,0-7.9,1.42,10.37,10.37,0,0,0-4.73,6.7,10.61,10.61,0,0,0,1.36,7.91,12,12,0,0,0,6.66,5.09,11.63,11.63,0,0,0,8.27-1.6,10.13,10.13,0,0,0,4.8-6.72,11.12,11.12,0,0,0-1.65-8.11"/><path class="cls-3" d="M65.1,77a2.52,2.52,0,0,0,1.08,1.59,2.43,2.43,0,0,0,3.36-.65A2.65,2.65,0,0,0,69.88,76a2.22,2.22,0,0,0-1-1.53A2.48,2.48,0,0,0,67,74a2.83,2.83,0,0,0-1.63,1.15A2.24,2.24,0,0,0,65.1,77"/><path class="cls-3" d="M107.43,87.81a13.27,13.27,0,0,0,6.47,8.25,13.75,13.75,0,0,0,13.36-24,14.6,14.6,0,0,0-10.67-1.26,13.56,13.56,0,0,0-8.19,6.55,14.54,14.54,0,0,0-1,10.49"/><path class="cls-2" d="M127.46,75.86a10.12,10.12,0,0,0-7.8-2,10.46,10.46,0,0,0-6.77,4,11.81,11.81,0,0,0-2.32,7.9,11.47,11.47,0,0,0,4.38,7,10,10,0,0,0,7.85,2,10.87,10.87,0,0,0,6.83-4.38,10,10,0,0,0,1.89-7.88,10.48,10.48,0,0,0-4.06-6.73"/><path class="cls-3" d="M123.69,77.79a2.45,2.45,0,0,0-1.08,1.56,2.37,2.37,0,0,0,1.78,2.85,2.66,2.66,0,0,0,1.85-.35,2.21,2.21,0,0,0,1.06-1.41,2.48,2.48,0,0,0-.28-1.92,2.77,2.77,0,0,0-1.62-1.08,2.12,2.12,0,0,0-1.71.36"/><path class="cls-1" d="M92.77,87.49a8.4,8.4,0,0,0-2.47,2.33H87.41q-2.77,0-3.57,1.59a2.37,2.37,0,0,0-.31,1.6c0,1.89,1,3.75,3.07,5.55a12.81,12.81,0,0,0,8.86,3.34c4.23,0,7.47-1,9.74-3q2.35-2,2.35-4.12c0-1.64-.28-2.73-.86-3.27a2.82,2.82,0,0,0-2-.68,14.53,14.53,0,0,1-2.78-.25,5,5,0,0,1-2.89-2,4.92,4.92,0,0,0-2.53-1.24,5.1,5.1,0,0,0-3.7.11"/><path class="cls-4" d="M103.42,95.24a10.89,10.89,0,0,1-3.33,3,10.91,10.91,0,0,1-5.48.67q-3.63-.19-6.46-4.38"/><path class="cls-2" d="M104,96a1.38,1.38,0,0,0,1.12-.56,1.75,1.75,0,0,0,.42-1.17,2,2,0,0,0-.42-1.23,1.43,1.43,0,0,0-1.11-.49,1.34,1.34,0,0,0-1,.49,2,2,0,0,0-.43,1.23,1.73,1.73,0,0,0,.43,1.17,1.29,1.29,0,0,0,1,.56"/><path class="cls-2" d="M88.82,94.72a1.74,1.74,0,0,0,.43-1.17,1.81,1.81,0,0,0-.43-1.23,1.74,1.74,0,0,0-1.17-.49,1.28,1.28,0,0,0-1,.49,1.62,1.62,0,0,0-.55,1.24,1.53,1.53,0,0,0,.55,1.17,1.27,1.27,0,0,0,1,.49,1.75,1.75,0,0,0,1.17-.48"/><path class="cls-2" d="M93.82,25.36a6.93,6.93,0,0,1-.14,7.89q-2.53,4.06-2,4.92a2,2,0,0,0,1.05.87,3.69,3.69,0,0,0,2.89-.62,10.06,10.06,0,0,0,2.34-1.78,9,9,0,0,1,1.85-1.54q3.39-2,2.67-6.9a13.68,13.68,0,0,0-1.54-4.87q-2.39-4.19-5.6-3.58t-1.49,5.6"/><path class="cls-1" d="M34.75,94.9a11.66,11.66,0,0,1,.71-1.05C36.88,92.34,39,91.7,41.77,92l70.8,20.53a14.25,14.25,0,0,1,5.31,1.93q1.66,1.22.68,3.75a41.83,41.83,0,0,1-20.4,24.65,41.91,41.91,0,0,1-33.11,3.67,41.91,41.91,0,0,1-26-20.81A41.73,41.73,0,0,1,34.75,94.9"/><path class="cls-5" d="M39.44,102.18A12.19,12.19,0,0,1,40.59,99c1-1,2.81-1.17,5.53-.4a23.73,23.73,0,0,1,3.17.86l5.14,1.78,10,2.91,0,0a1.62,1.62,0,0,1,.49.06c1.26.37,1.8.89,1.6,1.58s-1.69,1.48-4.53,2.55q-2.74,1.31-7.35,3.32c-2.85,1.25-5.25,2.22-7.18,2.95l-1.24.73c-2.05,1.1-3.4,1.55-4,1.36a1.8,1.8,0,0,1-1.13-1c-.81-.57-1.25-1.76-1.31-3.53a24.84,24.84,0,0,1-.77-3.94,22,22,0,0,1,.06-2.86,17.17,17.17,0,0,1,.37-3.31"/><path class="cls-5" d="M78.67,109.28a8.58,8.58,0,0,1,2.18,4c.4.9,1,2.11,1.87,3.64,1.23,2.19,1.89,3.42,2,3.67q.67,1.31,3.38,6.72l.35.8a1,1,0,0,1,.19.35q3.62,6.48,3.2,7.94c-.38,1.3-2.08,2.45-5.1,3.49a17.74,17.74,0,0,1-4.78,1c-3.31.64-5.71.75-7.18.32q-2.69-.78-3.15-1.62c-.22-.46-.09-1.51.39-3.16q1-7.84,1.85-13.44,1.17-6.61,1.83-9.62T76.82,110q.64-1.62,1.84-.7"/><path class="cls-5" d="M73.1,107.16c.38-.09.68.34.92,1.3l-1.28,4.4c-.57,2.62-.92,4.49-1,5.59l-3.46,12.75c-.46,2.26-.79,3.73-1,4.39a2.9,2.9,0,0,1-2.53,2.33,3.61,3.61,0,0,1-2.5,0,20.72,20.72,0,0,1-9-5.19c-.28-.28-.55-.55-.79-.82a19.42,19.42,0,0,1-1.9-1.84q-3.66-4.07-2.74-7.22a2.82,2.82,0,0,1,.79-1.3l0-.16c.18-.62,2.24-2.07,6.21-4.39,3.14-1.87,5.22-3.06,6.27-3.54q7.31-4.3,9.59-5.46a5.11,5.11,0,0,1,2.36-.82"/><path class="cls-5" d="M86,114.41a7.42,7.42,0,0,1-1.15-3.52c.08-.71,1.71-.67,4.91.13l17.94,4.68,3,.88c1,.2,1.45.93,1.37,2.14a12.91,12.91,0,0,1-.48,2q-4.53,8.81-8.42,11.72c-1.95,2-3.62,2.8-5,2.4-1-.29-2-1.44-3-3.44,0-.05,0-.09,0-.12a16.37,16.37,0,0,1-2.1-3.48c-.18-.44-.34-.84-.47-1.19-.72-1.41-1.59-3.05-2.61-4.91q-1.18-2-2-3.43c-.51-1-1.19-2.26-2-3.9"/><path class="cls-2" d="M97.44,136.8q3.36,3.72,13.28,3.89a72.54,72.54,0,0,0,19-2.67c4.24-1.17,11.17-2.84,14.16-6.29s1.65-8.42,2-12.6a86.36,86.36,0,0,0,.11-17.56c-8.4,4.08-16.3,9.13-24.63,13.34-7.27,3.67-14.3,6.95-20.71,12-3.57,2.86-5.25,5.3-5,7.32a6.42,6.42,0,0,0,1.73,2.54"/><path class="cls-2" d="M54.9,122.83a7.9,7.9,0,0,0,1.71-2.93q.15-3.51-6.09-7.73a70.47,70.47,0,0,0-10.61-6.11c-2.43-1.08-6.56-4.53-9.26-2.63-2.3,1.62-2.58,5.85-2.46,8.37.23,5,1.27,9.47,4.35,13.38C37,130.84,50.51,128.59,54.9,122.83Z"/></svg>