<svg id="Layer_1" data-name="Layer 1" xmlns="http://www.w3.org/2000/svg" width="7.06cm" height="7.06cm" viewBox="0 0 200 200"><defs><style>.cls-1{fill:#ff7bac;}</style></defs><title>star-2</title><path class="cls-1" d="M67.19,83.73c-5.15,5.11-11.44,9-17.34,13.14-4.1,2.88-18.77,13-18.17,19,.84,8.32,17.95,7.31,30.75,5.52,5.75-.82,10.65-1.76,12.81-2.13,10.93-1.73,12.21,17.92,13.95,25.53,1.11,4.88,5,22.27,10.76,24,8,2.34,13.5-13.88,16.64-26.43,1.44-5.75,1.35-15.95,7.39-18.81,4.83-2.3,11.94.22,16.88,1.09s22.45,4,26.25-.6c5.28-6.5-7.53-17.85-17.86-25.62C143.43,94,138,91,139.15,82.82c1.67-12,23.45-33.14,15.28-45.19-6.27-9.27-25.44,6.8-30.7,10.63C119,51.7,114,57.58,108,58.5c-7.83,1.16-14.37-8.06-19.36-12.93C85,42.06,72.41,29.5,66.63,31.22c-8,2.35-3.88,18.95.25,31.22C69.92,71.46,74.59,76.36,67.19,83.73Z"/></svg>