<svg id="Layer_1" data-name="Layer 1" xmlns="http://www.w3.org/2000/svg" width="7.06cm" height="7.06cm" viewBox="0 0 200 200"><defs><style>.cls-1{fill:#e2231a;}.cls-1,.cls-2,.cls-3{fill-rule:evenodd;}.cls-2{fill:#3aae6c;}.cls-3{fill:#fff;}</style></defs><title>wmelon2-1</title><path class="cls-1" d="M100.88,42.31,51,147.3a69,69,0,0,0,42.54,1.8c1.45-.47,2.91-.93,4.4-1.38q25-8.17,35.34-30t0-44.39a60,60,0,0,0-6-10.3q-9.72-13.37-26.46-20.76"/><path class="cls-2" d="M49.36,150.58a18.09,18.09,0,0,0-2.45,6.75c-.1,2.13,1.3,3.63,4.21,4.5q26.93,9.8,54.3-.43,2.79-1,5.52-2.28a70.1,70.1,0,0,0,35.41-35q12.5-26.39,1.75-53-.68-1.57-1.42-3.15Q136.1,45.88,113,35.26a20.24,20.24,0,0,0-5.25-1.82q-2.84-.63-5.29,6c.68.24,1.37.49,2.07.77q18.33,7.35,28.3,22.23A64.43,64.43,0,0,1,138.38,73q9.56,23.36-1.42,46.43t-36,32.32c-1.45.55-2.92,1.06-4.42,1.54a65.28,65.28,0,0,1-44.95-1.86l-2.19-.89"/><path class="cls-3" d="M102.42,39.45a1.14,1.14,0,0,1-.31.26l-1.23,2.6q16.74,7.38,26.46,20.75a60.33,60.33,0,0,1,6,10.3q10.33,22.58,0,44.39t-35.34,30q-2.22.67-4.4,1.38A69,69,0,0,1,51,147.3l-.69,1.46c-.33.61-.64,1.22-.92,1.81l2.19.89a65.24,65.24,0,0,0,44.94,1.86c1.5-.48,3-1,4.41-1.54q25.06-9.24,36-32.32T138.38,73a64.51,64.51,0,0,0-5.59-10.59q-10-14.89-28.3-22.24c-.69-.28-1.39-.54-2.06-.77"/><path class="cls-3" d="M93.92,83.06q-2.2-.88.17-4.44c1.57-2.37,3.15-3.23,4.72-2.61a7.43,7.43,0,0,1,.77.55,1.7,1.7,0,0,1,0,1.93,9.66,9.66,0,0,1-3,3.79c-1.11.79-2,1-2.67.78m5.39-26.52q2-3.92,4.69-2.86a1.9,1.9,0,0,1,.68.35c.28.49,0,1.52-.7,3.09q-2.42,5.07-4.64,4.17c-1.33-.53-1.33-2.12,0-4.75M111.62,71.6c-1.81-.73-1.69-2.15.34-4.29s3.8-3,5.22-2.4,1.6,1.46.93,2.86a7.25,7.25,0,0,1-3.14,3q-2.21,1.27-3.37.81m-9.69,22.71q-3-1.2.14-3.16T107.32,90s.35.16.89.44a1.49,1.49,0,0,1,.2,1.91c-.41.85-1.47,1.48-3.18,1.87a6.14,6.14,0,0,1-3.29.12m24.91-10.5a2,2,0,0,1,0,2.22c-.52,1.09-1.7,1.79-3.56,2.12a6.73,6.73,0,0,1-3.23,0q-3.78-1.51-.34-3.75t6.26-1.18a2.36,2.36,0,0,1,.91.6m-5.27,21.27q-3.5-1.41-1.47-3.17t6.27-.13l1.11.53a1.59,1.59,0,0,1,.34,2.14c-.45.94-1.53,1.37-3.24,1.28a9.64,9.64,0,0,1-3-.64m-57,33.69c-1.72-.68-2-2.31-.92-4.86s2.52-3.56,4.19-2.9L69,132.28a2.76,2.76,0,0,1,.4,2.89,7.21,7.21,0,0,1-2.66,3.28,2.37,2.37,0,0,1-2.2.32m20.69-37.41q-4-1.61-1.62-3.22t6-.15a2.56,2.56,0,0,1,.87.5c.46.46.49,1.1.09,2a2.72,2.72,0,0,1-3,1.62,9.12,9.12,0,0,1-2.38-.71M76.47,117.6c.28-2.73,1.42-3.69,3.42-2.9a11.47,11.47,0,0,0,1.42,1.14c.87,1.26.79,3-.26,5.2-.71,1.48-1.68,2-2.92,1.49s-1.93-2.2-1.66-4.92m21.06,11.33c.05,0,.65.72,1.81,2.09q1.58,2.41.71,4.22a1.82,1.82,0,0,1-2.61,1c-1.67-.67-2.68-2.3-3-4.91s.74-3.41,3.12-2.45M99,115.3c-3-1.18-4.13-2.59-3.52-4.22s2.29-1.89,5.19-.73l2.19,1.12c1.33,1,1.71,2.13,1.13,3.34q-1.08,2.29-5,.49m19.19,8.1a2.39,2.39,0,0,1-2.18,1.21,5.72,5.72,0,0,1-2.55-.37q-3.35-1.34-3-4.09c.23-1.89,2.12-2.12,5.69-.7a4.23,4.23,0,0,1,1.46,1.23,2.44,2.44,0,0,1,.57,2.72M79.29,140.83q-2-.8-1.47-4.77c.33-2.7,1.48-3.66,3.49-2.86l1.48,1c.92,1.16.82,2.92-.29,5.26a2.26,2.26,0,0,1-3.21,1.37"/></svg>