<svg id="Layer_1" data-name="Layer 1" xmlns="http://www.w3.org/2000/svg" width="7.06cm" height="7.06cm" viewBox="0 0 200 200"><defs><style>.cls-1{fill:#ff2f36;}.cls-1,.cls-2,.cls-3,.cls-4{fill-rule:evenodd;}.cls-2{fill:#ff7bac;}.cls-3{fill:#ff9e35;}.cls-4{fill:#fff;}</style></defs><title>wmelon-4</title><path class="cls-1" d="M53.25,149.18q81.9,4.09,92.69-81.64l-4.42-1.38q-11.88,80-88.7,77.94Z"/><path class="cls-2" d="M145.94,67.54q-10.78,85.75-92.7,81.63c.84,0,1,6.26,1.16,7,1,4.56,3.42,4.74,7.65,4.71a104.79,104.79,0,0,0,37.53-7,85.73,85.73,0,0,0,41.81-35.63A105.75,105.75,0,0,0,153,90c.69-2.67,1.29-5.37,1.79-8.07.43-2.25,1.52-5.13,1.42-7.37s-2.07-4-4-5C151.63,69.33,146,67.54,145.94,67.54Z"/><path class="cls-3" d="M52.83,144.1q76.81,2.05,88.7-77.94L100.79,53.7,68.5,43.85C57,40.32,43.92,32.54,43.8,50.7,43.7,62.95,46.22,75.78,47.4,88Q50.11,116,52.83,144.1Z"/><path class="cls-4" d="M112.65,80.6q-2.85-3.46-2.71-5.14.41-5.07,7.45-.72c4.74,2.9,7,5.54,6.82,8a3,3,0,0,1-.5,1.51q-1,1.36-3.6,1.07c-2.67-.31-5.16-1.86-7.46-4.69M87.89,77.49a9.42,9.42,0,0,1-7.21-4.37c-1.13-1.77-1.68-3.21-1.6-4.32.3-3.43,2.6-4,6.89-1.68.3.18.59.33.84.5A6.8,6.8,0,0,1,90,69.88c1.62,1.54,2.38,3.12,2.23,4.74A2.14,2.14,0,0,1,92,76.26c-.58,1.06-1.93,1.46-4.08,1.23M95.8,98.37q5.6,4.87,5.08,11.22a3.9,3.9,0,0,1-.32,1.64,2.62,2.62,0,0,1-3,1.33c-2.49-.27-4.54-2.32-6.14-6.11q-1.86-4.35-1.67-6.69.5-6.14,6-1.38M63.72,113.45c.4-4.89,2.09-6.24,5-4.07s4.31,6.11,3.86,11.57a6.58,6.58,0,0,1-.36,2c-.46,1.13-1.45,1.61-3,1.43q-3.09-.34-4.65-5.15a16,16,0,0,1-.92-5.81M68,94.53q-3-.35-4.19-6.2a24.85,24.85,0,0,1-.56-6.85q.52-6,4.51-.87a16,16,0,0,1,3.51,11.34,4.34,4.34,0,0,1-.39,1.52A2.68,2.68,0,0,1,68,94.53M55.27,54c.29-3.37,2.09-3.8,5.38-1.25s4.8,5.69,4.49,9.48q-.27,3.22-3.18,2.88-4-.47-5.77-5.27A14.66,14.66,0,0,1,55.27,54"/></svg>