<svg id="Layer_1" data-name="Layer 1" xmlns="http://www.w3.org/2000/svg" width="7.06cm" height="7.06cm" viewBox="0 0 200 200"><defs><style>.cls-1{fill:#7ecb49;}</style></defs><title>anchor_02</title><polygon class="cls-1" points="110.82 143.42 86.4 143.72 91.75 59.6 103.42 59.46 110.82 143.42"/><path class="cls-1" d="M97.33,39.4a7.81,7.81,0,1,1-7.7,7.91,7.82,7.82,0,0,1,7.7-7.91m-.09-7.52A15.33,15.33,0,1,0,112.76,47,15.33,15.33,0,0,0,97.24,31.88"/><path class="cls-1" d="M132.54,83.43a6.87,6.87,0,0,1-1.34,4.08c-1.57,2.2-4.31,2.17-6.73,2.19l-10.07.12-26.66.31-11.58.13c-1.6,0-3.26,0-4.88-.09-2.37-.12-4.35,0-6.2-1.69a5.32,5.32,0,0,1-1.72-4.93,9.6,9.6,0,0,1,1.29-3.73,6.06,6.06,0,0,1,5-2c2.32,0,4.66.13,7,.11L88,77.77l25.74-.3c4.17,0,8.39-.28,12.55-.15a6.2,6.2,0,0,1,6.28,6.11"/><path class="cls-1" d="M156.82,118.14c-.11-1.76-.34-4.58-1.51-6-2.88-3.53-7.29-.5-10.24,1.19a93.51,93.51,0,0,0-9.07,6c-2,1.48-5.39,3.55-4.67,6.53.4,1.52,1.91,2.49,3.16,3.26.64.4,3.68,1.57,3.55,2.36s-1.47,1.57-2,2a25.83,25.83,0,0,1-2.45,1.69c-6.17,3.76-13.55,5.55-20.68,6.38-3.7.43-7.46.61-11.17.81-1,.06-2,.08-3,.1s-2,0-3.05-.1c-3.71-.2-7.47-.38-11.17-.81-7.13-.84-14.5-2.62-20.68-6.38a26.74,26.74,0,0,1-2.45-1.69c-.53-.41-1.88-1.26-2-2s2.9-2,3.55-2.36c1.25-.77,2.77-1.74,3.15-3.26.75-3-2.66-5.05-4.65-6.53a93,93,0,0,0-9.08-6c-3-1.69-7.36-4.72-10.24-1.19-1.18,1.44-1.41,4.25-1.51,6a107.63,107.63,0,0,0,.17,11.08c.12,2.83.07,6.88,1.26,9.45.87,1.88,3.47.95,4.87.34a24.5,24.5,0,0,0,2.91-1.52,13.3,13.3,0,0,1,1.18-.78c.88-.42,1.51,1.73,1.87,2.37.64,1.13,1.34,2.24,2,3.33q2.24,3.49,4.62,6.88c.57.81,1.11,1.65,1.73,2.42A48.36,48.36,0,0,0,77.81,164.8a56.15,56.15,0,0,0,20.8,4.84h.15a56.15,56.15,0,0,0,20.8-4.84,48.25,48.25,0,0,0,16.6-13.08c.63-.76,1.18-1.6,1.74-2.42,1.58-2.26,3.13-4.55,4.62-6.88.7-1.09,1.39-2.21,2-3.33.37-.64,1-2.78,1.87-2.37.4.18.79.54,1.19.78a24.19,24.19,0,0,0,2.91,1.52c1.39.61,4,1.54,4.86-.34,1.2-2.58,1.14-6.63,1.27-9.45a109.59,109.59,0,0,0,.16-11.08"/></svg>