<svg id="Layer_1" data-name="Layer 1" xmlns="http://www.w3.org/2000/svg" width="7.06cm" height="7.06cm" viewBox="0 0 200 200"><defs><style>.cls-1{fill:#e70095;}</style></defs><title>crown_01</title><path class="cls-1" d="M53.64,116.38c5.15,15.9,12.29,29.74,15.72,46.09,24.9-4,51.49-5.88,76-1.6,6.65-23.18,11.33-48.18,19.06-70.74,16.65-2.67,24.22-28.27,4-34.49-17.6-5.4-25.82,14.54-19.27,22-10,7.87-15.34,22.56-26.09,25.23-4.58-7.56-16.28-21.08-19.59-29.57,8.9-7.84,6.59-29.21-12.93-23.34-19.36,5.82-10.91,23.47-2.74,26.12-3.14,9.47-2.31,17.55-6.22,24.09-9.52-5.18-23.65-17.87-33-23.3C63,51.78,21.75,52.31,18.34,76.21,16.25,90.86,28.94,80,37.4,89.46,43.61,96.37,53.64,116.38,53.64,116.38Z"/></svg>