<svg id="Layer_1" data-name="Layer 1" xmlns="http://www.w3.org/2000/svg" xmlns:xlink="http://www.w3.org/1999/xlink" width="7.06cm" height="7.06cm" viewBox="0 0 200 200"><defs><style>.cls-1{fill:none;}.cls-2,.cls-5{fill:#cfeafd;}.cls-3{clip-path:url(#clip-path);}.cls-4{fill:#fff;}.cls-4,.cls-5,.cls-6{fill-rule:evenodd;}.cls-6,.cls-7{fill:#1a96e2;}.cls-8{fill:#ffbc74;}</style><clipPath id="clip-path"><path class="cls-1" d="M85.67,131.71s-4.06,27-5.84,41.57c0,0,33.42,9.56,64-10.35,0,0-8-29.06-14.88-39.38Z"/></clipPath></defs><title>cut_02</title><path class="cls-2" d="M85.67,131.71s-7.61,20.84-8.33,41.07c0,0,33.62,11.15,66.48-9.85,0,0-8-29.06-14.88-39.38Z"/><g class="cls-3"><path class="cls-4" d="M123.39,135.71c-4.21-5.91-10.37-9.37-18.18-7.54-20.59,4.82-16.59,48.6,3,52.9C131.84,186.24,134.88,151.84,123.39,135.71Z"/></g><path class="cls-5" d="M41.94,71.21q4.66-1,12.22-6.94,7.44-5.77,7.17-7.8-.12-.82-10.13-7.71-10.62-7.42-15.05-8.57a151.57,151.57,0,0,0,1.39,16.7q.29,2.35,4.39,14.19ZM62.13,67.6Q51,77.85,41.16,79.12q-4.56.59-7-5.95a78.39,78.39,0,0,0-2.55-8.83,64,64,0,0,1-1.86-7.28q-1.18-5.72-1.48-8.26a18.7,18.7,0,0,1-1-7.53q.59-6.81,8-7.79,8.17-1,23,9.92a121,121,0,0,1,9.51,7.89c2.59,2.36,3.9,3.7,3.92,4q.42,3.22-9.6,12.31"/><path class="cls-6" d="M41.94,71.21v-.13q-4.1-11.85-4.39-14.19a151.51,151.51,0,0,1-1.39-16.7q4.43,1.16,15.05,8.57,10,6.89,10.13,7.7.27,2-7.17,7.8-7.56,6-12.22,6.94"/><path class="cls-5" d="M130.74,49q0,2,7.42,7.2,7.66,5.33,12.11,6v-.06q3-12.41,3.1-14.78a156.34,156.34,0,0,0,.07-16.8q-4,1.43-13.66,9.85-9,7.74-9,8.63m.1,11.24q-10.24-8.34-10.09-11.61,0-.51,3.39-4.39,4-4.5,8.52-8.66Q146,23.33,153.79,23.74q7.11.33,8.17,7a20.26,20.26,0,0,1-.34,7.69q-.13,2.57-.73,8.55a73.09,73.09,0,0,1-1.26,7.38,89.33,89.33,0,0,0-1.77,9.2q-1.76,6.7-6.18,6.51-9.43-.48-20.82-9.82"/><path class="cls-6" d="M130.74,49q.06-.9,9-8.63,9.62-8.41,13.67-9.86a156.79,156.79,0,0,1-.08,16.81q-.08,2.37-3.09,14.79v.06q-4.45-.64-12.12-6Q130.7,51,130.74,49"/><path class="cls-5" d="M110.29,32.85A5.31,5.31,0,0,1,110,35a6.55,6.55,0,0,0-.34,2.94c.1,1.33,1.19,2.48,3.3,3.44a15,15,0,0,1,2.08,1.1,69.15,69.15,0,0,1,27,10.3q20,13,21.39,33.25T146.92,122q-17.9,15.71-44.71,17.63t-46.75-11.1Q35.52,115.53,34.07,95.29t16.46-36A69.15,69.15,0,0,1,77.37,44.85a4.94,4.94,0,0,0,1-1.81c.28-1.31.54-2.42.81-3.32q.85-2.57,1.89-2.63A14.55,14.55,0,0,1,84,39.52q2.76,2.65,3.68,2.93.74-1.3.84-5.82,0-3.67,1.32-3.77c.46,0,1.45,1.45,3,4.44s3,4.37,4.47,4.26A88.16,88.16,0,0,1,103.64,35q6.38-5.87,6.65-2.14"/><path class="cls-5" d="M150.81,69.39c1.78-.36,3,.71,3.77,3.2q1.51,2.73,6.7,3.34,4.62.51,4.72,2a2.28,2.28,0,0,1-.57,1.71q-.39.45-2.21,2.17c1,1.59,3.1,2.56,6.17,2.89q3.92.42,4.06,2.35a3,3,0,0,1-1.28,2.45c-.62.51-1.75,1.4-3.42,2.67l-.26.23a25.9,25.9,0,0,0,3.43-.59q2.83-.2,3,1.88.11,1.58-4,4.73a34.12,34.12,0,0,1-7.13,4.26l-.47.24a3.9,3.9,0,0,1,3.16.47,1.85,1.85,0,0,1,.72,1.27q.23,3.18-9,7.65-9.24,3.78-9.31,3.79a2,2,0,0,1-1.94-.84,2.21,2.21,0,0,1-.35-1.08,79.25,79.25,0,0,0,3.39-7.95q3.33-8.78,3-14.1-.42-5.94-1.06-10.06a19.56,19.56,0,0,0-1.91-5.35,15.19,15.19,0,0,1-1.58-4.61c-.11-1.47.71-2.39,2.44-2.74"/><path class="cls-5" d="M43.53,77q2.65.16,2.81,2.37a15.39,15.39,0,0,1-.91,4.79,19.38,19.38,0,0,0-1.13,5.56c0,2.78.09,6.14.37,10.11q.38,5.32,4.92,13.53a79.62,79.62,0,0,0,4.49,7.39,2.15,2.15,0,0,1-.2,1.12A2,2,0,0,1,52.09,123s-3.3-.81-9.75-2.43q-9.74-3.12-10-6.3a1.84,1.84,0,0,1,.53-1.35A3.92,3.92,0,0,1,36,112l-.5-.17a33.64,33.64,0,0,1-7.66-3.21q-4.55-2.52-4.67-4.11-.15-2.07,2.68-2.28a26.36,26.36,0,0,0,3.48.1l-.29-.18q-2.75-1.54-3.77-2.17a3.06,3.06,0,0,1-1.62-2.24c-.09-1.29,1.14-2.26,3.68-2.9,3-.77,4.9-2,5.71-3.74-1.36-1-2.2-1.58-2.49-1.83a2.28,2.28,0,0,1-.81-1.62Q29.61,86.17,34.1,85q5-1.33,6.15-4.26.56-3.86,3.28-3.71"/><path class="cls-6" d="M89.88,96.39q3-2.45,11.13-2.54,7.84-1.52,10.95-.08a3.48,3.48,0,0,1,2.1,3q.22,1.86-3.16,5a13.48,13.48,0,0,1-7.48,3.91,16.76,16.76,0,0,1-10.5-2.56q-4.05-1.74-4.4-3.51a3.14,3.14,0,0,1,1.36-3.17"/><path class="cls-7" d="M49.32,138.13a1.38,1.38,0,0,1-.95-2.4l18-16.91a1.38,1.38,0,0,1,1.89,2l-18,16.91A1.38,1.38,0,0,1,49.32,138.13Zm-15.62-6.66a1.39,1.39,0,0,1-.69-2.59l27-15.54a1.39,1.39,0,0,1,1.38,2.4l-27,15.54A1.38,1.38,0,0,1,33.71,131.46Zm123.23-3.1a1.38,1.38,0,0,1-.87-.31l-18.21-14.81a1.38,1.38,0,0,1,1.75-2.15l18.21,14.81a1.39,1.39,0,0,1-.87,2.46Zm15.8-12a1.38,1.38,0,0,1-.39-.06l-30.28-8.81a1.38,1.38,0,1,1,.77-2.66l30.28,8.81a1.39,1.39,0,0,1-.39,2.72ZM23.71,115a1.39,1.39,0,0,1-.33-2.73l35.27-8.77a1.39,1.39,0,0,1,.67,2.69L24,114.92A1.39,1.39,0,0,1,23.71,115Zm152.65-14h-.07L146,99.42a1.39,1.39,0,0,1,.14-2.77l30.32,1.52a1.38,1.38,0,0,1-.07,2.77Z"/><path class="cls-7" d="M101.18,119.69c-7.07,0-11.38-3.44-13.78-5.34-.37-.29-.7-.56-1-.77A1.38,1.38,0,0,1,88,111.34c.32.23.69.52,1.09.85,2.44,1.94,6.52,5.19,13.48,4.69s11.39-5.49,13.31-7.62l.24-.27a1.38,1.38,0,1,1,2.05,1.86l-.24.26c-2,2.18-7.15,8-15.17,8.53Q102,119.69,101.18,119.69Z"/><path class="cls-6" d="M119.17,111.65a2.43,2.43,0,0,1-1.8,1,2.64,2.64,0,0,1-2-.69,2.54,2.54,0,0,1-.9-1.81,2.82,2.82,0,0,1,.63-2,2.76,2.76,0,0,1,1.88-.9,2.53,2.53,0,0,1,1.92.63,2.65,2.65,0,0,1,1,1.88,2.44,2.44,0,0,1-.7,1.93"/><path class="cls-6" d="M87.71,115.13a2.64,2.64,0,0,1-2-.69,2.56,2.56,0,0,1-.9-1.81,2.62,2.62,0,0,1,2.51-2.89,2.73,2.73,0,0,1,3,2.49,2.45,2.45,0,0,1-.7,1.93,2.51,2.51,0,0,1-1.87,1"/><path class="cls-4" d="M80.81,72.26a13,13,0,0,0-9.06-4.95A13.53,13.53,0,0,0,69,94.23a14.38,14.38,0,0,0,10.14-3A13.37,13.37,0,0,0,84,82.12a14.32,14.32,0,0,0-3.21-9.86"/><path class="cls-6" d="M76.57,85.6a10.06,10.06,0,0,1-7.45,2.95A10.61,10.61,0,0,1,61.78,85a10,10,0,0,1-2.83-7.48A10.49,10.49,0,0,1,69.59,67.4a10.65,10.65,0,0,1,7.19,3.2A11.42,11.42,0,0,1,80,78.1a11.56,11.56,0,0,1-3.42,7.49"/><path class="cls-4" d="M72.8,84.06a2.45,2.45,0,0,0,.38-1.82,2.12,2.12,0,0,0-1-1.49,2.07,2.07,0,0,0-1.76-.4,2.6,2.6,0,0,0-1.54,1,2.16,2.16,0,0,0-.41,1.7,2.43,2.43,0,0,0,1,1.62,2.76,2.76,0,0,0,1.89.35,2.12,2.12,0,0,0,1.41-1"/><path class="cls-4" d="M137.35,64.18A13,13,0,0,0,128,59.87a13.53,13.53,0,0,0-.87,27,14.37,14.37,0,0,0,9.9-3.69,13.33,13.33,0,0,0,4.23-9.42,14.33,14.33,0,0,0-3.88-9.61"/><path class="cls-6" d="M133.92,77.81a10.05,10.05,0,0,1-7.22,3.46,10.61,10.61,0,0,1-7.56-3A10,10,0,0,1,115.79,71a10.49,10.49,0,0,1,9.91-10.85,10.64,10.64,0,0,1,7.39,2.69,11.4,11.4,0,0,1,3.72,7.26,11.56,11.56,0,0,1-2.9,7.72"/><path class="cls-4" d="M130.06,76.54a2.51,2.51,0,0,0,.25-1.84,2.12,2.12,0,0,0-1.05-1.43,2.09,2.09,0,0,0-1.79-.27A2.58,2.58,0,0,0,126,74.14a2.16,2.16,0,0,0-.29,1.72,2.45,2.45,0,0,0,1.1,1.56,2.77,2.77,0,0,0,1.91.22,2.16,2.16,0,0,0,1.34-1.1"/><path class="cls-8" d="M65.73,108.06a19.14,19.14,0,0,1-11.67-1.79c-11-6-13.58-19-11.2-29.14,3-12.78,11.82-20.91,25.54-23.51,3.1-.59,6.17-1.19,9.22-1.8,9.25-1.83,18-3.55,27.18-4.7,4.38-.54,8.47-.9,12.49-1.1l1.2-.06c3.37-.17,6.56-.33,9.68-.23a33.93,33.93,0,0,1,17.31,4.87c12.25,7.37,14.18,23.18,9.76,35-2.8,7.47-9.56,12.23-19,13.4h0A43.69,43.69,0,0,1,120.6,98c-1.5-.38-3-.82-4.53-1.25-4.14-1.19-8.41-2.42-12.13-2.3-.58,0-1.19.07-1.81.15-5.84.72-12.1,3.83-17.5,6.68C79.87,103.75,72.72,107.19,65.73,108.06Zm40-53.48c-8.94,1.11-17.54,2.81-26.65,4.61C76,59.79,72.92,60.4,69.8,61c-10.73,2-17.34,8-19.63,17.85-1.73,7.4-.09,16.71,7.49,20.84a11.87,11.87,0,0,0,7.15.93c6.43-.8,13.88-4.72,16.32-6,6-3.17,13-6.61,20.08-7.49.84-.1,1.68-.17,2.49-.2,4.91-.16,9.76,1.24,14.46,2.59,1.49.43,2.9.83,4.27,1.18a36.07,36.07,0,0,0,12.86.88h0c6.76-.84,11.11-3.73,12.93-8.59,3.34-8.9,2.14-20.68-6.6-25.93a26.51,26.51,0,0,0-13.69-3.8c-2.81-.09-5.84.06-9.05.22l-1.22.06C113.83,53.71,109.93,54.05,105.73,54.57Z"/></svg>