<svg id="Layer_1" data-name="Layer 1" xmlns="http://www.w3.org/2000/svg" width="7.06cm" height="7.06cm" viewBox="0 0 200 200"><defs><style>.cls-1{fill:#ffce00;}.cls-2{fill:#47acf5;}.cls-3{fill:#92cef9;}.cls-4{fill:#fff;}.cls-5{fill:none;stroke:#fff;stroke-linecap:round;stroke-linejoin:round;stroke-width:2.72px;}</style></defs><title>fish_c_03</title><path class="cls-1" d="M117.6,97.33c-.2-5.1-1.93-35.27,3.12-36.52,2-.5,10.65,6.79,12.42,8.23,3.84,3.11,6.85,6.71,7.39,11.81.69,6.49-.58,23.37-5,28.51-3.28,3.8-9.52,2.76-13.56.19C117.2,106.51,117.8,102.43,117.6,97.33Z"/><path class="cls-1" d="M99.66,147.17c.52-6.91-.77-18.78,4.88-23.9,8.3-7.51,22,7.58,28.95,11.79,4.54,2.74,16,9.31,12.85,16.23-2.88,6.26-7.67-1.45-11.47.89-4.12,2.54.31,9.56-7,11.38-2.77.69-3.3-1.78-6.27.26-1.72,1.19-1.1,5-4.13,6.1-1.46.52-3.81-1.7-5.48-1.54-2.77.27-3.66,2.62-6.66,2.4C95.58,170.07,99.16,153.8,99.66,147.17Z"/><path class="cls-2" d="M62.25,106.6a85.76,85.76,0,0,0,13.41,12.76c6.7,5.18,38.12,27.29,43.64,13.32,4.11-10.4,6.1-21.12,8.18-32,1.88-9.84,4.14-20.82,1.78-30.77C126.2,57,117,46.49,105.55,40,94.64,33.86,79,27,66.17,29.52c-6.59,1.28-9.9,8.1-12.18,13.71-4.14,10.21-4.6,22.27-4.35,33C49.91,87.69,55,98,62.25,106.6Z"/><path class="cls-3" d="M52,88.92a42,42,0,0,1-2.31-12.71c-.25-10.71.21-22.77,4.35-33,2.28-5.61,5.58-12.43,12.18-13.71C79,27,94.64,33.86,105.55,40a54.31,54.31,0,0,1,11,8.18s-5.6,18.07-25.89,30.63c0,0-17.57,11.5-37.4,12.89Z"/><path class="cls-4" d="M92.8,64.83C103.36,54,85.88,37.55,75.61,48.15a12,12,0,0,0-3.38,8.71,10.23,10.23,0,0,0,1.05,4.57c4,7,13.38,9.74,19.52,3.41"/><path d="M87.86,46.23c-8.47-6.62-18.73,7-10.46,13.41a8.54,8.54,0,0,0,6.39,1.72,7.46,7.46,0,0,0,3.16-1.09c4.6-3.37,5.85-10.18.91-14"/><path class="cls-4" d="M85.91,54.63a2.38,2.38,0,1,0,.4,3.34,2.37,2.37,0,0,0-.4-3.34"/><path class="cls-4" d="M71.58,77.93a3.08,3.08,0,1,1,1.19-4.19,3.08,3.08,0,0,1-1.19,4.19"/><path class="cls-5" d="M70,75c-3.25,1.49-7.1,2.92-10.19.31-2.59-2.2-3.66-6.25-1.39-9.09"/><circle cx="121.15" cy="74.39" r="4.69" transform="translate(-19.98 57.27) rotate(-24.63)"/><circle cx="117.09" cy="108.79" r="4.69" transform="translate(-34.7 58.73) rotate(-24.64)"/><circle cx="118.04" cy="62.02" r="3.76" transform="matrix(0.91, -0.42, 0.42, 0.91, -15.11, 54.83)"/><circle cx="113.89" cy="90.56" r="7.37" transform="translate(-27.38 55.72) rotate(-24.64)"/><path d="M110.67,120.36a5.8,5.8,0,1,0,7.68,2.86A5.79,5.79,0,0,0,110.67,120.36Z"/><path class="cls-1" d="M84.6,111.54c.56-8.42-.88-15.63-9.13-9.55-3.1,2.28-6.51,4.44-9.31,7.34-3.37,3.47-4.33,6.3-1.11,10.89,3.51,5,9.67,13.76,15.2,7.78C83.7,124.27,84.26,116.64,84.6,111.54Z"/></svg>