<svg id="Layer_1" data-name="Layer 1" xmlns="http://www.w3.org/2000/svg" width="7.06cm" height="7.06cm" viewBox="0 0 200 200"><defs><style>.cls-1{fill:#47acf5;}.cls-2{fill:#c3e4fc;}.cls-3{fill:#a5d7fa;}.cls-4{fill:#fff;}.cls-5{fill:none;stroke:#fff;stroke-linecap:round;stroke-linejoin:round;stroke-width:4.11px;}.cls-6{fill:#fcea9d;}</style></defs><title>fishg-1</title><path class="cls-1" d="M89.71,84.1C94.77,82,124.94,70.22,123.9,64.75c-.42-2.2-11.38-7.34-13.57-8.43-4.75-2.36-9.59-3.68-14.8-1.93C88.89,56.62,73,65.4,70,72c-2.24,4.89,1.57,10.51,5.87,13.3C80.94,88.6,84.65,86.2,89.71,84.1Z"/><path class="cls-1" d="M49.16,123.87c6.51-3.6,18.65-7.64,21.11-15.44,3.61-11.45-17.21-18-24.42-22.94C41.16,82.29,29.62,74,24.29,80.22c-4.81,5.61,4.84,6.83,4.26,11.58-.64,5.15-9.45,4-8,11.92.57,3,3.21,2.42,2.55,6.22-.39,2.21-4.4,3.31-4.09,6.75.15,1.66,3.35,3,3.94,4.65,1,2.81-.92,4.74.64,7.57C28.68,138.06,42.93,127.31,49.16,123.87Z"/><path class="cls-2" d="M105.41,142.19A92.38,92.38,0,0,1,87,134.82c-8-4.22-43.62-24.95-32.48-36.57C62.81,89.6,72.37,82.87,82,76c8.74-6.23,18.44-13.34,29.18-15.48,14-2.8,28.34,1.51,39.72,9.74,10.89,7.87,24.51,20,27.84,33.67,1.7,7-3.47,13.26-7.92,18-8.1,8.6-19.63,14.43-30.19,19C129.35,145.75,117.06,145.35,105.41,142.19Z"/><path class="cls-3" d="M127.24,144.31a45.09,45.09,0,0,0,13.41-3.42c10.56-4.54,22.09-10.38,30.19-19,4.45-4.73,9.63-11,7.92-18-3.33-13.63-17-25.81-27.84-33.67A58.26,58.26,0,0,0,138,63.19s-15.11,13.53-18.28,38.91c0,0-3.35,22.25,4.15,42.2Z"/><path class="cls-4" d="M132.46,93.75c5.88-15.15,29.67-5.46,23.94,9.3a12.86,12.86,0,0,1-7,7.19,11,11,0,0,1-4.92,1c-8.59-.8-15.47-8.68-12-17.49"/><path d="M145.43,87.45c10.23,5.3,1.6,21.36-8.39,16.18a9.14,9.14,0,0,1-4.53-5.46,8,8,0,0,1-.35-3.56c1.23-6,7.31-10.24,13.27-7.16"/><path class="cls-4" d="M144.87,95.84a2.55,2.55,0,1,1-3.44,1.1,2.54,2.54,0,0,1,3.44-1.1"/><path class="cls-4" d="M129.18,120.27a3.3,3.3,0,1,0,3.55-3,3.3,3.3,0,0,0-3.55,3"/><path class="cls-5" d="M132.73,120.5c0,3.83.33,8.23,4.26,10.06,3.3,1.54,7.72.78,9.48-2.71"/><circle class="cls-6" cx="110.48" cy="70.4" r="5.03"/><circle class="cls-6" cx="78.77" cy="89.73" r="5.03"/><circle class="cls-6" cx="123.92" cy="67.9" r="4.03"/><circle class="cls-6" cx="97.97" cy="84.7" r="7.9"/><circle class="cls-6" cx="64.15" cy="101.15" r="6.21"/><path class="cls-1" d="M90.62,122.62c7.95-4.31,15.62-6.13,13.38,4.62-.84,4-1.42,8.32-3,12.35-1.87,4.83-4.2,7-10.12,5.94-6.45-1.18-17.73-3.27-14.37-11.33C78.62,129.18,85.8,125.22,90.62,122.62Z"/></svg>