<svg id="Layer_1" data-name="Layer 1" xmlns="http://www.w3.org/2000/svg" xmlns:xlink="http://www.w3.org/1999/xlink" width="7.06cm" height="7.06cm" viewBox="0 0 200 200"><defs><style>.cls-1,.cls-5{fill:none;}.cls-2{fill:#005cb9;}.cls-3{fill:#57c9e8;}.cls-4{fill:#fff;}.cls-5{stroke:#fff;stroke-linecap:round;stroke-linejoin:round;stroke-width:3.06px;}.cls-6{clip-path:url(#clip-path);}.cls-7{fill:#ffb08d;}</style><clipPath id="clip-path"><path class="cls-1" d="M62.29,126.9c9.7,9.2,23.27,17.18,29,19.65,23.59,10.19,49.11,6.67,69.23-9.3,6.29-5,21.65-17.34,21-27-.63-8.72-13.82-7.24-17.41-14.49-4.69-9.49-5.26-19.36-14-26.72-16.42-13.77-36.38-10.79-54-1.15-15.48,8.46-29.25,21.09-41.43,33.89C47.73,108.93,53.36,118.43,62.29,126.9Z"/></clipPath></defs><title>fish_d_01</title><path class="cls-2" d="M104.77,78.95A46.28,46.28,0,0,1,111.08,75c9.2-4.33,25.1-6.49,22.18-20.61-3.23-15.56-8.64-18.91-23.19-12.26-9.86,4.51-55.61,32-38.38,47.17C80.85,97.36,94.83,85.95,104.77,78.95Z"/><path class="cls-2" d="M22.68,131.67c8.55,7.53,40.3-13.75,38-22.17-1.8-6.56-26.34-28.67-35.22-22.32-9.8,7,7,13.84,8.4,19.57C35.73,114.53,13.45,123.54,22.68,131.67Z"/><path class="cls-3" d="M62.29,126.9c9.7,9.2,23.27,17.18,29,19.65,23.59,10.19,49.11,6.67,69.23-9.3,6.29-5,21.65-17.34,21-27-.63-8.72-13.82-7.24-17.41-14.49-4.69-9.49-5.26-19.36-14-26.72-16.42-13.77-36.38-10.79-54-1.15-15.48,8.46-29.25,21.09-41.43,33.89C47.73,108.93,53.36,118.43,62.29,126.9Z"/><path class="cls-4" d="M144.45,89c-9.07-14.42-31.62.28-22.78,14.33a13.49,13.49,0,0,0,8.61,6,11.45,11.45,0,0,0,5.26.06c8.68-2.53,14.19-12,8.91-20.39"/><path class="cls-2" d="M134.19,83.21c-12,1.43-9.42,20.37,2.28,19a9.6,9.6,0,0,0,6.45-3.69,8.37,8.37,0,0,0,1.65-3.36c1-6.33-3.4-12.74-10.38-11.9"/><path class="cls-4" d="M132.33,92.72a2.67,2.67,0,1,0,3,2.34,2.66,2.66,0,0,0-3-2.34"/><path class="cls-4" d="M131.22,122.09a3.46,3.46,0,1,1-3.72-3.17,3.45,3.45,0,0,1,3.72,3.17"/><path class="cls-5" d="M129.39,122.27c-3.25,10.14,9.14,18.18,15.52,8.41"/><g class="cls-6"><polygon class="cls-7" points="105.88 198.22 102.93 195.09 111.5 187 100.15 177.4 110.48 167.65 99.14 158.04 109.45 148.3 98.11 138.69 108.44 128.94 97.1 119.34 107.42 109.6 96.08 100 106.4 90.25 95.06 80.65 105.38 70.9 94.04 61.29 104.36 51.55 94.86 43.5 97.64 40.21 110.82 51.37 100.5 61.12 111.84 70.72 101.52 80.47 112.86 90.07 102.54 99.82 113.88 109.43 103.56 119.17 114.9 128.77 104.57 138.52 115.91 148.13 105.6 157.87 116.94 167.48 106.61 177.23 117.96 186.82 105.88 198.22"/><polygon class="cls-7" points="87.29 198.69 84.34 195.56 92.91 187.47 81.57 177.86 91.89 168.12 80.55 158.51 90.86 148.77 79.53 139.17 89.85 129.42 78.52 119.82 88.83 110.07 77.49 100.47 87.81 90.71 76.48 81.12 86.8 71.37 75.46 61.77 85.77 52.01 76.27 43.97 79.06 40.68 92.23 51.84 81.91 61.59 93.25 71.19 82.93 80.94 94.27 90.53 83.95 100.29 95.29 109.89 84.97 119.64 96.31 129.24 85.99 138.99 97.32 148.59 87.01 158.34 98.35 167.94 88.03 177.69 99.37 187.3 87.29 198.69"/><polygon class="cls-7" points="68.97 199.2 66.01 196.07 74.58 187.98 63.24 178.37 73.56 168.63 62.23 159.02 72.54 149.28 61.21 139.67 71.52 129.93 60.18 120.32 70.5 110.58 59.16 100.97 69.48 91.22 58.15 81.62 68.47 71.88 57.13 62.27 67.44 52.53 57.95 44.48 60.73 41.19 73.9 52.35 63.59 62.1 74.92 71.7 64.6 81.45 75.94 91.05 65.62 100.8 76.96 110.4 66.64 120.15 77.98 129.76 67.66 139.5 79 149.11 68.68 158.85 80.02 168.45 69.7 178.2 81.04 187.81 68.97 199.2"/></g></svg>