<svg id="Layer_1" data-name="Layer 1" xmlns="http://www.w3.org/2000/svg" xmlns:xlink="http://www.w3.org/1999/xlink" width="7.06cm" height="7.06cm" viewBox="0 0 200 200"><defs><style>.cls-1{fill:none;}.cls-2{fill:#e70095;}.cls-3{fill:#fff;}.cls-4{clip-path:url(#clip-path);}.cls-5{fill:#cccbca;}</style><clipPath id="clip-path"><path class="cls-1" d="M70.57,39.86c14.21-.5,27.69,7.48,38.36,16,11.84,9.46,18.64,24.23,24.29,37.88a2.24,2.24,0,0,1,.06.33,69.73,69.73,0,0,1,25.46-17.45c5.55-2.25,15.13-2.15,17.1,5.21,1.63,6.08-1.92,11.41-6.09,15.5-3.62,3.53-8.42,6-12.86,8.23-5.4,2.75-14.16,4.2-11.33,12.16,3.33,9.39,9.86,19.32,8.11,29.76-1.12,6.65-5.63,13.3-13.07,12.61-8.12-.74-11.64-12.75-13.34-19.1-2.38-8.9-1.82-18.4-1.94-27.6-18,15.4-44.61,26-67.8,18.24C36.44,124.52,22.9,102,26.65,80.23,30.23,59.5,49.24,40.65,70.57,39.86Z"/></clipPath></defs><title>fishf-1</title><path class="cls-2" d="M70.57,39.86c14.21-.5,27.69,7.48,38.36,16,11.84,9.46,18.64,24.23,24.29,37.88a2.24,2.24,0,0,1,.06.33,69.73,69.73,0,0,1,25.46-17.45c5.55-2.25,15.13-2.15,17.1,5.21,1.63,6.08-1.92,11.41-6.09,15.5-3.62,3.53-8.42,6-12.86,8.23-5.4,2.75-14.16,4.2-11.33,12.16,3.33,9.39,9.86,19.32,8.11,29.76-1.12,6.65-5.63,13.3-13.07,12.61-8.12-.74-11.64-12.75-13.34-19.1-2.38-8.9-1.82-18.4-1.94-27.6-18,15.4-44.61,26-67.8,18.24C36.44,124.52,22.9,102,26.65,80.23,30.23,59.5,49.24,40.65,70.57,39.86Z"/><path class="cls-1" d="M70.57,39.86c14.21-.5,27.69,7.48,38.36,16,11.84,9.46,18.64,24.23,24.29,37.88a2.24,2.24,0,0,1,.06.33,69.73,69.73,0,0,1,25.46-17.45c5.55-2.25,15.13-2.15,17.1,5.21,1.63,6.08-1.92,11.41-6.09,15.5-3.62,3.53-8.42,6-12.86,8.23-5.4,2.75-14.16,4.2-11.33,12.16,3.33,9.39,9.86,19.32,8.11,29.76-1.12,6.65-5.63,13.3-13.07,12.61-8.12-.74-11.64-12.75-13.34-19.1-2.38-8.9-1.82-18.4-1.94-27.6-18,15.4-44.61,26-67.8,18.24C36.44,124.52,22.9,102,26.65,80.23,30.23,59.5,49.24,40.65,70.57,39.86Z"/><path class="cls-3" d="M85.14,67.14C94,83.67,67.59,97.18,59,81.07a14.9,14.9,0,0,1-1-11.49,12.68,12.68,0,0,1,2.83-5.07c7.15-6.89,19.2-7,24.33,2.63"/><path d="M74.88,77.55c-11.13,4.2-17.48-13.5-6.64-17.6a9.47,9.47,0,0,1,7.33.29,8,8,0,0,1,3,2.19c3.76,5.07,2.83,12.66-3.65,15.12"/><path class="cls-3" d="M73.31,75a2.63,2.63,0,1,1,1.54-3.4A2.62,2.62,0,0,1,73.31,75"/><path d="M35,118a3.25,3.25,0,0,1,0-6.51c7.42,0,20.63-1.72,25.69-12.79a3.25,3.25,0,1,1,5.92,2.7C61.71,112.09,50.49,118,35,118Z"/><path d="M68.24,99.29a3.71,3.71,0,1,1-2.6-4.55,3.69,3.69,0,0,1,2.6,4.55"/><g class="cls-4"><path class="cls-5" d="M75.48,153.78a3.33,3.33,0,0,1-2.84-5.06c1.89-3.1,3.84-6.22,5.73-9.23C86.84,126,95.6,112,100.37,95.77c3.37-11.46,10.52-39.79,4.24-55.2a3.33,3.33,0,0,1,6.17-2.52c6.82,16.74.41,44.52-4,59.6-5,17.12-14,31.48-22.75,45.37-1.88,3-3.82,6.09-5.68,9.15A3.33,3.33,0,0,1,75.48,153.78Z"/><path class="cls-5" d="M98.26,149.92a3.33,3.33,0,0,1-3.18-4.32c1.43-4.58,4.09-8.82,6.67-12.92a78.6,78.6,0,0,0,4.74-8.25,206.39,206.39,0,0,0,8.59-21.57c11.1-32.65,9-43.06,7.61-46a3.33,3.33,0,0,1,6-2.87c3.89,8.16,1.43,25.33-7.31,51a212.89,212.89,0,0,1-8.87,22.26,84.72,84.72,0,0,1-5.13,9c-2.46,3.91-4.78,7.6-5.95,11.35A3.33,3.33,0,0,1,98.26,149.92Z"/></g></svg>