<svg id="Layer_1" data-name="Layer 1" xmlns="http://www.w3.org/2000/svg" xmlns:xlink="http://www.w3.org/1999/xlink" width="7.06cm" height="7.06cm" viewBox="0 0 200 200"><defs><style>.cls-1,.cls-5,.cls-7{fill:none;}.cls-2{fill:#57c9e8;}.cls-3{fill:#fff;}.cls-4{fill:#005cb9;}.cls-5{stroke:#fff;stroke-width:4.55px;}.cls-5,.cls-7{stroke-linecap:round;stroke-linejoin:round;}.cls-6{clip-path:url(#clip-path);}.cls-7{stroke:#f38b00;stroke-width:7.22px;}</style><clipPath id="clip-path"><path class="cls-1" d="M146.35,51.86c-14.28-5.75-30.95-2.58-45,2.16C85.85,59.3,73.49,71.84,62.71,83.65a2,2,0,0,0-.18.31A75.65,75.65,0,0,0,43,56.81c-4.83-4.33-14.62-7.76-19.33-1-3.9,5.59-2.25,12.33.5,18C26.58,78.78,30.56,83,34.26,87c4.48,4.79,12.87,9.5,7.06,16.56-6.86,8.34-17.15,16-19.22,27.31-1.32,7.19.84,15.62,8.67,17.65,8.53,2.23,16.55-8.69,20.61-14.54,5.7-8.18,8.63-18.07,12.14-27.39,12.61,22.3,35.84,42.94,62.33,43.55,24.08.54,46.16-17.44,50.35-41C180.2,86.72,167.78,60.52,146.35,51.86Z"/></clipPath></defs><title>fish_e_01</title><path class="cls-2" d="M146.35,51.86c-14.28-5.75-30.95-2.58-45,2.16C85.85,59.3,73.49,71.84,62.71,83.65a2,2,0,0,0-.18.31A75.65,75.65,0,0,0,43,56.81c-4.83-4.33-14.62-7.76-19.33-1-3.9,5.59-2.25,12.33.5,18C26.58,78.78,30.56,83,34.26,87c4.48,4.79,12.87,9.5,7.06,16.56-6.86,8.34-17.15,16-19.22,27.31-1.32,7.19.84,15.62,8.67,17.65,8.53,2.23,16.55-8.69,20.61-14.54,5.7-8.18,8.63-18.07,12.14-27.39,12.61,22.3,35.84,42.94,62.33,43.55,24.08.54,46.16-17.44,50.35-41C180.2,86.72,167.78,60.52,146.35,51.86Z"/><path class="cls-1" d="M146.35,51.86c-14.28-5.75-30.95-2.58-45,2.16C85.85,59.3,73.49,71.84,62.71,83.65a2,2,0,0,0-.18.31A75.65,75.65,0,0,0,43,56.81c-4.83-4.33-14.62-7.76-19.33-1-3.9,5.59-2.25,12.33.5,18C26.58,78.78,30.56,83,34.26,87c4.48,4.79,12.87,9.5,7.06,16.56-6.86,8.34-17.15,16-19.22,27.31-1.32,7.19.84,15.62,8.67,17.65,8.53,2.23,16.55-8.69,20.61-14.54,5.7-8.18,8.63-18.07,12.14-27.39,12.61,22.3,35.84,42.94,62.33,43.55,24.08.54,46.16-17.44,50.35-41C180.2,86.72,167.78,60.52,146.35,51.86Z"/><path class="cls-3" d="M121.46,74.27c-15.06,13.59,6.81,37.06,21.47,23.81a16.08,16.08,0,0,0,5.29-11.33,13.71,13.71,0,0,0-1-6.21c-4.74-9.65-17-14.19-25.75-6.28"/><path class="cls-4" d="M125.4,99.43c9.79,8.38,22.78-7.31,13.25-15.47a10.27,10.27,0,0,0-7.57-2.41,8.66,8.66,0,0,0-3.83,1.14c-5.69,3.77-7.54,11.85-1.85,16.74"/><path class="cls-3" d="M132.8,91.36a2.85,2.85,0,1,0-.32-4,2.84,2.84,0,0,0,.32,4"/><path class="cls-5" d="M155,141.26c-12.81-4.69-22.74-13.21-23.74-25.51"/><path class="cls-3" d="M126.84,113.24a4,4,0,1,0,4.32-3.68,4,4,0,0,0-4.32,3.68"/><g class="cls-6"><path class="cls-7" d="M108.75,37.63c-12,13.31-15.87,42.49-16.94,60-1.41,22.91,4.51,43.79,8.8,65.06"/><path class="cls-7" d="M84.49,47.39c-8.85,8.73-10,39.53-10.29,52.16A227.33,227.33,0,0,0,75,125.08c.77,8.42,4.18,17.2,3.82,25.26"/></g></svg>