<svg id="Layer_1" data-name="Layer 1" xmlns="http://www.w3.org/2000/svg" xmlns:xlink="http://www.w3.org/1999/xlink" width="7.06cm" height="7.06cm" viewBox="0 0 200 200"><defs><style>.cls-1,.cls-4,.cls-7{fill:none;}.cls-2{fill:#a5d7fa;}.cls-3{fill:#fff;}.cls-4{stroke:#ff1d25;stroke-width:6.51px;}.cls-4,.cls-7{stroke-linecap:round;stroke-linejoin:round;}.cls-5{fill:#ff1d25;}.cls-6{clip-path:url(#clip-path);}.cls-7{stroke:#ce001e;stroke-width:6.66px;}</style><clipPath id="clip-path"><path class="cls-1" d="M70.57,39.86c14.21-.5,27.69,7.48,38.36,16,11.84,9.46,18.64,24.23,24.29,37.88a2.24,2.24,0,0,1,.06.33,69.73,69.73,0,0,1,25.46-17.45c5.55-2.25,15.13-2.15,17.1,5.21,1.63,6.08-1.92,11.41-6.09,15.5-3.62,3.53-8.42,6-12.86,8.23-5.4,2.75-14.16,4.2-11.33,12.16,3.33,9.39,9.86,19.32,8.11,29.76-1.12,6.65-5.63,13.3-13.07,12.61-8.12-.74-11.64-12.75-13.34-19.1-2.38-8.9-1.82-18.4-1.94-27.6-18,15.4-44.61,26-67.8,18.24C36.44,124.52,22.9,102,26.65,80.23,30.23,59.5,49.24,40.65,70.57,39.86Z"/></clipPath></defs><title>fishf-2</title><path class="cls-2" d="M70.57,39.86c14.21-.5,27.69,7.48,38.36,16,11.84,9.46,18.64,24.23,24.29,37.88a2.24,2.24,0,0,1,.06.33,69.73,69.73,0,0,1,25.46-17.45c5.55-2.25,15.13-2.15,17.1,5.21,1.63,6.08-1.92,11.41-6.09,15.5-3.62,3.53-8.42,6-12.86,8.23-5.4,2.75-14.16,4.2-11.33,12.16,3.33,9.39,9.86,19.32,8.11,29.76-1.12,6.65-5.63,13.3-13.07,12.61-8.12-.74-11.64-12.75-13.34-19.1-2.38-8.9-1.82-18.4-1.94-27.6-18,15.4-44.61,26-67.8,18.24C36.44,124.52,22.9,102,26.65,80.23,30.23,59.5,49.24,40.65,70.57,39.86Z"/><path class="cls-1" d="M70.57,39.86c14.21-.5,27.69,7.48,38.36,16,11.84,9.46,18.64,24.23,24.29,37.88a2.24,2.24,0,0,1,.06.33,69.73,69.73,0,0,1,25.46-17.45c5.55-2.25,15.13-2.15,17.1,5.21,1.63,6.08-1.92,11.41-6.09,15.5-3.62,3.53-8.42,6-12.86,8.23-5.4,2.75-14.16,4.2-11.33,12.16,3.33,9.39,9.86,19.32,8.11,29.76-1.12,6.65-5.63,13.3-13.07,12.61-8.12-.74-11.64-12.75-13.34-19.1-2.38-8.9-1.82-18.4-1.94-27.6-18,15.4-44.61,26-67.8,18.24C36.44,124.52,22.9,102,26.65,80.23,30.23,59.5,49.24,40.65,70.57,39.86Z"/><path class="cls-3" d="M85.14,67.14C94,83.67,67.59,97.18,59,81.07a14.9,14.9,0,0,1-1-11.49,12.68,12.68,0,0,1,2.83-5.07c7.15-6.89,19.2-7,24.33,2.63"/><path d="M74.88,77.55c-11.13,4.2-17.48-13.5-6.64-17.6a9.47,9.47,0,0,1,7.33.29,8,8,0,0,1,3,2.19c3.76,5.07,2.83,12.66-3.65,15.12"/><path class="cls-3" d="M73.31,75a2.63,2.63,0,1,1,1.54-3.4A2.62,2.62,0,0,1,73.31,75"/><path class="cls-4" d="M35,114.78c12.6,0,23.9-4.33,28.64-14.69"/><path class="cls-5" d="M68.24,99.29a3.71,3.71,0,1,1-2.6-4.55,3.69,3.69,0,0,1,2.6,4.55"/><g class="cls-6"><path class="cls-7" d="M107.69,39.31c6.25,15.32.43,41.88-4.13,57.4-6,20.34-17.67,36.61-28.08,53.73"/><path class="cls-7" d="M125.69,55.41c4.94,10.36-3.7,37.48-7.46,48.53a209.15,209.15,0,0,1-8.73,21.91c-3.31,7.07-9,13.62-11.25,20.74"/></g></svg>