<svg id="Layer_1" data-name="Layer 1" xmlns="http://www.w3.org/2000/svg" xmlns:xlink="http://www.w3.org/1999/xlink" width="7.06cm" height="7.06cm" viewBox="0 0 200 200"><defs><style>.cls-1,.cls-4{fill:none;}.cls-2{fill:#a5d7fa;}.cls-3{fill:#fff;}.cls-4{stroke:#fff;stroke-linecap:round;stroke-linejoin:round;stroke-width:7.95px;}.cls-5{clip-path:url(#clip-path);}.cls-6{fill:#002e6d;}</style><clipPath id="clip-path"><path class="cls-1" d="M55,51.3c14.79-6,32-2.67,46.57,2.24,16.08,5.46,28.88,18.45,40,30.69a1.91,1.91,0,0,1,.2.32A78.33,78.33,0,0,1,162,56.44c5-4.49,15.15-8,20-1,4,5.78,2.33,12.77-.52,18.67-2.47,5.1-6.6,9.49-10.43,13.58-4.64,5-13.33,9.83-7.3,17.16,7.1,8.63,17.76,16.61,19.91,28.28,1.36,7.45-.88,16.17-9,18.28-8.83,2.31-17.13-9-21.34-15.05-5.91-8.47-8.93-18.71-12.58-28.37-13.06,23.09-37.11,44.47-64.55,45.1-24.93.56-47.8-18.06-52.14-42.43C20,87.41,32.82,60.27,55,51.3Z"/></clipPath></defs><title>fishh-2</title><path class="cls-2" d="M55,51.3c14.79-6,32-2.67,46.57,2.24,16.08,5.46,28.88,18.45,40,30.69a1.91,1.91,0,0,1,.2.32A78.33,78.33,0,0,1,162,56.44c5-4.49,15.15-8,20-1,4,5.78,2.33,12.77-.52,18.67-2.47,5.1-6.6,9.49-10.43,13.58-4.64,5-13.33,9.83-7.3,17.16,7.1,8.63,17.76,16.61,19.91,28.28,1.36,7.45-.88,16.17-9,18.28-8.83,2.31-17.13-9-21.34-15.05-5.91-8.47-8.93-18.71-12.58-28.37-13.06,23.09-37.11,44.47-64.55,45.1-24.93.56-47.8-18.06-52.14-42.43C20,87.41,32.82,60.27,55,51.3Z"/><path class="cls-1" d="M55,51.3c14.79-6,32-2.67,46.57,2.24,16.08,5.46,28.88,18.45,40,30.69a1.91,1.91,0,0,1,.2.32A78.33,78.33,0,0,1,162,56.44c5-4.49,15.15-8,20-1,4,5.78,2.33,12.77-.52,18.67-2.47,5.1-6.6,9.49-10.43,13.58-4.64,5-13.33,9.83-7.3,17.16,7.1,8.63,17.76,16.61,19.91,28.28,1.36,7.45-.88,16.17-9,18.28-8.83,2.31-17.13-9-21.34-15.05-5.91-8.47-8.93-18.71-12.58-28.37-13.06,23.09-37.11,44.47-64.55,45.1-24.93.56-47.8-18.06-52.14-42.43C20,87.41,32.82,60.27,55,51.3Z"/><path class="cls-3" d="M80.79,74.51c15.6,14.08-7,38.37-22.24,24.66a16.69,16.69,0,0,1-5.47-11.73,14.21,14.21,0,0,1,1-6.43c4.91-10,17.59-14.7,26.67-6.5"/><path d="M70.45,93.12c-10.15,8.67-23.6-7.57-13.73-16a10.66,10.66,0,0,1,7.85-2.49,9,9,0,0,1,4,1.19c5.9,3.91,7.82,12.27,1.92,17.33"/><path class="cls-3" d="M68.22,90.95a3,3,0,1,1,.32-4.17,2.94,2.94,0,0,1-.32,4.17"/><path class="cls-4" d="M46.07,143.89c13.26-4.86,23.55-13.68,24.59-26.42"/><path class="cls-3" d="M75.22,114.87a4.15,4.15,0,1,1-4.47-3.81,4.14,4.14,0,0,1,4.47,3.81"/><g class="cls-5"><path class="cls-6" d="M102.39,170a4,4,0,0,1-.79-.08,4,4,0,0,1-3.11-4.69c.8-4,1.67-8,2.51-11.89,3.78-17.47,7.69-35.54,6.53-54.46C106.71,85.57,103.45,53,91,39.23a4,4,0,0,1,5.91-5.33c13.62,15.1,17.47,46.91,18.55,64.52,1.23,20-2.8,38.63-6.69,56.63-.83,3.86-1.7,7.86-2.49,11.78A4,4,0,0,1,102.39,170Z"/><path class="cls-6" d="M124.93,157.28a4,4,0,0,1-4-3.8c-.24-5.41,1-10.92,2.11-16.25a87.94,87.94,0,0,0,1.85-10.46,232,232,0,0,0,.84-26c-.75-38.58-6.87-48.71-9.47-51.27a4,4,0,1,1,5.59-5.66c7.26,7.16,11.24,26.26,11.83,56.78a239.74,239.74,0,0,1-.87,26.89,95.46,95.46,0,0,1-2,11.42c-1.1,5.05-2.14,9.82-1.94,14.2a4,4,0,0,1-3.79,4.15Z"/></g></svg>