<svg id="Layer_1" data-name="Layer 1" xmlns="http://www.w3.org/2000/svg" xmlns:xlink="http://www.w3.org/1999/xlink" width="7.06cm" height="7.06cm" viewBox="0 0 200 200"><defs><style>.cls-1,.cls-5,.cls-7{fill:none;}.cls-2{fill:#ffa442;}.cls-3{fill:#e87503;}.cls-4{fill:#fff;}.cls-5{stroke:#fff;stroke-linecap:round;stroke-linejoin:round;stroke-width:3.06px;}.cls-6{clip-path:url(#clip-path);}.cls-7{stroke:#20d3d3;stroke-miterlimit:10;stroke-width:4.31px;}</style><clipPath id="clip-path"><path class="cls-1" d="M62.29,126.9c9.7,9.2,23.27,17.18,29,19.65,23.59,10.19,49.11,6.67,69.23-9.3,6.29-5,21.65-17.34,21-27-.63-8.72-13.82-7.24-17.41-14.49-4.69-9.49-5.26-19.36-14-26.72-16.42-13.77-36.38-10.79-54-1.15-15.48,8.46-29.25,21.09-41.43,33.89C47.73,108.93,53.36,118.43,62.29,126.9Z"/></clipPath></defs><title>fish_d_03</title><path class="cls-2" d="M104.77,78.95A46.28,46.28,0,0,1,111.08,75c9.2-4.33,25.1-6.49,22.18-20.61-3.23-15.56-8.64-18.91-23.19-12.26-9.86,4.51-55.61,32-38.38,47.17C80.85,97.36,94.83,85.95,104.77,78.95Z"/><path class="cls-2" d="M22.68,131.67c8.55,7.53,40.3-13.75,38-22.17-1.8-6.56-26.34-28.67-35.22-22.32-9.8,7,7,13.84,8.4,19.57C35.73,114.53,13.45,123.54,22.68,131.67Z"/><path class="cls-3" d="M62.29,126.9c9.7,9.2,23.27,17.18,29,19.65,23.59,10.19,49.11,6.67,69.23-9.3,6.29-5,21.65-17.34,21-27-.63-8.72-13.82-7.24-17.41-14.49-4.69-9.49-5.26-19.36-14-26.72-16.42-13.77-36.38-10.79-54-1.15-15.48,8.46-29.25,21.09-41.43,33.89C47.73,108.93,53.36,118.43,62.29,126.9Z"/><path class="cls-4" d="M144.45,89c-9.07-14.42-31.62.28-22.78,14.33a13.49,13.49,0,0,0,8.61,6,11.45,11.45,0,0,0,5.26.06c8.68-2.53,14.19-12,8.91-20.39"/><path d="M134.19,83.21c-12,1.43-9.42,20.37,2.28,19a9.6,9.6,0,0,0,6.45-3.69,8.37,8.37,0,0,0,1.65-3.36c1-6.33-3.4-12.74-10.38-11.9"/><path class="cls-4" d="M132.33,92.72a2.67,2.67,0,1,0,3,2.34,2.66,2.66,0,0,0-3-2.34"/><path class="cls-4" d="M131.22,122.09a3.46,3.46,0,1,1-3.72-3.17,3.45,3.45,0,0,1,3.72,3.17"/><path class="cls-5" d="M129.39,122.27c-3.25,10.14,9.14,18.18,15.52,8.41"/><g class="cls-6"><polyline class="cls-7" points="96.25 41.86 107.59 51.46 97.27 61.21 108.61 70.81 98.29 80.56 109.63 90.16 99.31 99.91 110.65 109.51 100.33 119.26 111.67 128.86 101.34 138.61 112.68 148.21 102.37 157.96 113.71 167.56 103.38 177.31 114.72 186.91 104.4 196.66"/><polyline class="cls-7" points="77.66 42.33 89 51.92 78.68 61.68 90.02 71.28 79.7 81.03 91.04 90.62 80.72 100.38 92.06 109.98 81.75 119.73 93.08 129.33 82.76 139.08 94.09 148.68 83.78 158.43 95.12 168.03 84.8 177.78 96.14 187.38 85.82 197.13"/><polyline class="cls-7" points="59.34 42.84 70.67 52.44 60.36 62.18 71.69 71.79 61.38 81.54 72.71 91.14 62.39 100.89 73.73 110.49 63.41 120.23 74.75 129.84 64.43 139.58 75.77 149.19 65.45 158.93 76.79 168.54 66.47 178.28 77.81 187.89 67.49 197.63"/></g></svg>