<svg id="Layer_1" data-name="Layer 1" xmlns="http://www.w3.org/2000/svg" width="7.06cm" height="7.06cm" viewBox="0 0 200 200"><defs><style>.cls-1{fill:#ff4148;}.cls-2{fill:#ffa7aa;}.cls-3{fill:#a5d7fa;}.cls-4{fill:#fff;}.cls-5{fill:none;stroke:#fff;stroke-linecap:round;stroke-linejoin:round;stroke-width:4.53px;}.cls-6{fill:#92cef9;}</style></defs><title>fish_b_02</title><path class="cls-1" d="M89.82,82.95c5.58-2.29,38.86-15.32,37.71-21.35-.47-2.43-12.55-8.1-15-9.3-5.24-2.6-10.58-4.06-16.33-2.12-7.32,2.45-24.83,12.14-28.17,19.45C65.6,75,69.8,81.22,74.55,84.29,80.15,87.91,84.24,85.26,89.82,82.95Z"/><path class="cls-1" d="M45.1,126.81c7.18-4,20.57-8.43,23.29-17,4-12.63-19-19.86-26.94-25.3-5.18-3.53-17.9-12.65-23.77-5.81-5.31,6.18,5.34,7.53,4.7,12.77-.7,5.68-10.42,4.38-8.78,13.15.62,3.32,3.54,2.67,2.81,6.87-.43,2.44-4.85,3.65-4.51,7.45.16,1.83,3.7,3.26,4.35,5.13,1.07,3.1-1,5.23.7,8.35C22.5,142.47,38.22,130.6,45.1,126.81Z"/><path class="cls-2" d="M107.14,147a101.9,101.9,0,0,1-20.32-8.12C78,134.24,38.71,111.37,51,98.55,60.15,89,70.69,81.59,81.34,74c9.65-6.88,20.34-14.71,32.19-17.08,15.41-3.09,31.26,1.66,43.82,10.74,12,8.68,27,22.11,30.71,37.14,1.88,7.71-3.83,14.63-8.74,19.84-8.93,9.49-21.65,15.92-33.3,20.93C133.55,150.95,120,150.51,107.14,147Z"/><path class="cls-3" d="M131.23,149.36A49.74,49.74,0,0,0,146,145.58c11.64-5,24.37-11.45,33.3-20.93,4.91-5.22,10.62-12.13,8.74-19.84-3.67-15-18.7-28.47-30.71-37.14a64.27,64.27,0,0,0-14.2-7.78S126.48,74.81,123,102.81c0,0-3.7,24.54,4.58,46.55Z"/><path class="cls-4" d="M137,93.59c6.49-16.72,32.73-6,26.4,10.25a14.18,14.18,0,0,1-7.69,7.93,12.14,12.14,0,0,1-5.43,1.12c-9.48-.88-17.07-9.58-13.29-19.3"/><path d="M151.29,86.64c11.29,5.84,1.76,23.56-9.25,17.85a10.08,10.08,0,0,1-5-6,8.81,8.81,0,0,1-.38-3.93c1.36-6.6,8.06-11.3,14.63-7.9"/><path class="cls-4" d="M150.67,95.9a2.81,2.81,0,1,1-3.79,1.21,2.8,2.8,0,0,1,3.79-1.21"/><path class="cls-4" d="M133.36,122.84a3.64,3.64,0,1,0,3.92-3.34,3.64,3.64,0,0,0-3.92,3.34"/><path class="cls-5" d="M137.27,123.09c0,4.22.37,9.07,4.69,11.1,3.64,1.7,8.52.86,10.46-3"/><circle class="cls-6" cx="112.73" cy="67.83" r="5.55"/><circle class="cls-6" cx="77.75" cy="89.15" r="5.55"/><circle class="cls-6" cx="127.56" cy="65.08" r="4.44"/><path class="cls-6" d="M107.65,83.6a8.71,8.71,0,1,1-8.71-8.71A8.71,8.71,0,0,1,107.65,83.6Z"/><circle class="cls-6" cx="61.63" cy="101.76" r="6.85"/><path class="cls-1" d="M90.83,125.43c8.77-4.75,17.23-6.77,14.76,5.1-.93,4.45-1.57,9.18-3.29,13.62-2.06,5.33-4.64,7.76-11.16,6.56-7.11-1.3-19.55-3.61-15.85-12.5C77.59,132.67,85.51,128.3,90.83,125.43Z"/></svg>