<svg id="Layer_1" data-name="Layer 1" xmlns="http://www.w3.org/2000/svg" xmlns:xlink="http://www.w3.org/1999/xlink" width="7.06cm" height="7.06cm" viewBox="0 0 200 200"><defs><style>.cls-1,.cls-5{fill:none;}.cls-2{fill:#ff9e16;}.cls-3{fill:#fff;}.cls-4{fill:#005cb9;}.cls-5{stroke:#fff;stroke-linecap:round;stroke-linejoin:round;stroke-width:5.73px;}.cls-6{clip-path:url(#clip-path);}</style><clipPath id="clip-path"><path class="cls-1" d="M59,64.95c11.66-4.7,25.28-2.11,36.74,1.77C108.4,71,118.5,81.27,127.31,90.93a1.78,1.78,0,0,1,.15.25A61.82,61.82,0,0,1,143.39,69c3.95-3.54,12-6.34,15.8-.81,3.18,4.56,1.84,10.07-.41,14.73-2,4-5.2,7.49-8.23,10.71-3.66,3.92-10.52,7.76-5.76,13.54,5.6,6.81,14,13.1,15.71,22.32,1.07,5.87-.69,12.76-7.09,14.42-7,1.83-13.52-7.1-16.85-11.88-4.66-6.68-7-14.76-9.92-22.39-10.31,18.22-29.28,35.09-50.93,35.59C56,145.67,38,131,34.57,111.75,31.31,93.43,41.45,72,59,64.95Z"/></clipPath></defs><title>fish_01</title><path class="cls-2" d="M59,64.95c11.66-4.7,25.28-2.11,36.74,1.77C108.4,71,118.5,81.27,127.31,90.93a1.78,1.78,0,0,1,.15.25A61.82,61.82,0,0,1,143.39,69c3.95-3.54,12-6.34,15.8-.81,3.18,4.56,1.84,10.07-.41,14.73-2,4-5.2,7.49-8.23,10.71-3.66,3.92-10.52,7.76-5.76,13.54,5.6,6.81,14,13.1,15.71,22.32,1.07,5.87-.69,12.76-7.09,14.42-7,1.83-13.52-7.1-16.85-11.88-4.66-6.68-7-14.76-9.92-22.39-10.31,18.22-29.28,35.09-50.93,35.59C56,145.67,38,131,34.57,111.75,31.31,93.43,41.45,72,59,64.95Z"/><path class="cls-1" d="M59,64.95c11.66-4.7,25.28-2.11,36.74,1.77C108.4,71,118.5,81.27,127.31,90.93a1.78,1.78,0,0,1,.15.25A61.82,61.82,0,0,1,143.39,69c3.95-3.54,12-6.34,15.8-.81,3.18,4.56,1.84,10.07-.41,14.73-2,4-5.2,7.49-8.23,10.71-3.66,3.92-10.52,7.76-5.76,13.54,5.6,6.81,14,13.1,15.71,22.32,1.07,5.87-.69,12.76-7.09,14.42-7,1.83-13.52-7.1-16.85-11.88-4.66-6.68-7-14.76-9.92-22.39-10.31,18.22-29.28,35.09-50.93,35.59C56,145.67,38,131,34.57,111.75,31.31,93.43,41.45,72,59,64.95Z"/><path class="cls-3" d="M79.3,83.26c12.31,11.11-5.56,30.28-17.55,19.46a13.14,13.14,0,0,1-4.32-9.26,11.25,11.25,0,0,1,.82-5.07c3.88-7.88,13.88-11.59,21-5.13"/><path class="cls-4" d="M77.08,103.49c-8,6.84-18.62-6-10.83-12.64a8.39,8.39,0,0,1,6.19-2,7,7,0,0,1,3.13.94c4.66,3.08,6.17,9.68,1.51,13.67"/><path class="cls-3" d="M70.37,97.22a2.33,2.33,0,1,1,.25-3.29,2.33,2.33,0,0,1-.25,3.29"/><path class="cls-5" d="M51.91,138c10.47-3.83,18.58-10.79,19.4-20.84"/><path class="cls-3" d="M74.9,115.1a3.28,3.28,0,1,1-3.52-3,3.26,3.26,0,0,1,3.52,3"/><g class="cls-6"><path class="cls-5" d="M89.69,53.32c9.81,10.87,13,34.72,13.85,49,1.14,18.72-3.68,35.78-7.19,53.17"/><path class="cls-5" d="M109.51,61.29c7.23,7.13,8.21,32.3,8.41,42.62a187.16,187.16,0,0,1-.67,20.87c-.64,6.88-3.42,14.06-3.12,20.64"/></g></svg>