<svg id="Layer_1" data-name="Layer 1" xmlns="http://www.w3.org/2000/svg" width="7.06cm" height="7.06cm" viewBox="0 0 200 200"><defs><style>.cls-1{fill:#47acf5;}.cls-2{fill:#fff;}</style></defs><title>flower_02</title><path class="cls-1" d="M108.1,86.8c9-11.87,30.08-33.83,44.56-17,13,15.08-17.38,25.44-26.43,28.63,15.79,1.56,43.48,19.93,25.18,34.36-13.14,10.35-33.89-2.11-36.64-12.15C123.52,136,104.45,158,87.39,151.77c-17.37-6.31-15.61-29-3.92-39.19C72.11,122.48,44,126.13,37.09,109,26.78,83.31,67.74,75.35,82.18,89,75.3,77.44,57.49,56.35,77.33,45.56c28.05-15.23,36,19.4,30.78,41.24"/><path class="cls-2" d="M90.27,107.85A12,12,0,1,0,96.37,92a12,12,0,0,0-6.1,15.82"/></svg>