<svg id="Layer_1" data-name="Layer 1" xmlns="http://www.w3.org/2000/svg" width="7.06cm" height="7.06cm" viewBox="0 0 200 200"><defs><style>.cls-1{fill:#f3726b;}.cls-2{fill:#fff;}.cls-3{fill:none;stroke:#000;stroke-linecap:round;stroke-linejoin:round;stroke-width:2.72px;}.cls-4{fill:#2e409a;}</style></defs><title>octipus_04</title><path class="cls-1" d="M61.64,152.86c-1.83,1.3-7.51,5.66-3.28,7.16,5.68,2,12.8-.44,18.13-2.29a35.37,35.37,0,0,0,12.61-7.64,29.48,29.48,0,0,0,5.51-7.39c.67-1.22,1.39-2.41,2.08-3.63a20.3,20.3,0,0,0,2.39-6.73c1.34,6.15,2.92,12,6.24,17.34,3.14,5.07,7,9.57,12.56,12,2.47,1.08,4.55,2.12,7.27,1.82,2.3-.25,4.7-.18,3.56-3.13a59.47,59.47,0,0,0-3-5.87c-1.7-3.31-3.52-6.69-5-10.16-1-2.4-2.16-4.73-3-7.18-.65-1.85-2.05-5.51-1.47-7.47,1.37,1.16,2.19,2.8,3.49,4a36.08,36.08,0,0,0,4.09,3.08A51.4,51.4,0,0,0,134.38,142c2,.79,4.13.87,6.22,1.33s11.29,2,10.56-1.6c-.53-2.67-3.33-4.93-5.56-6.22a40.79,40.79,0,0,1-8.13-6.25c-2.73-2.68-6.13-5.71-8-9.07-1.08-1.93-2.36-3.83-2.82-6a16.23,16.23,0,0,1,1.13-11.12c2.93-6.65,6.37-9.74,8.11-14.83a28.42,28.42,0,0,0,1.52-6,33.11,33.11,0,0,0,0-10.69A40.16,40.16,0,0,0,97.6,36.84h-.14A40.16,40.16,0,0,0,57.69,71.65a33.46,33.46,0,0,0,0,10.71,28.46,28.46,0,0,0,1.53,6c2.4,7,7.12,11.38,10.45,17.71,5.16,9.82-6.86,19.44-13.5,24.51-3.17,2.43-6.71,4.81-10.09,7-.72.46-3.36,1.31-3.39,2.47,0,1.35,2.71,1.85,3.72,2,6.17.71,12.69.84,18.49-1.69a31.87,31.87,0,0,0,4.93-2.33,35.52,35.52,0,0,0,3.29-2.8,32.3,32.3,0,0,0,4.21-4.2c-.48.63-.51,2.47-.74,3.28a24.89,24.89,0,0,1-3.82,7.72A43.22,43.22,0,0,1,61.64,152.86Z"/><path class="cls-2" d="M63.94,66.19c-1.12-1.08-.8-3.26.74-4.84s3.69-2,4.81-.92.79,3.25-.74,4.83-3.69,2-4.81.92"/><path class="cls-2" d="M74.47,64.41a2.27,2.27,0,1,1,2.72-1.72,2.27,2.27,0,0,1-2.72,1.72"/><path class="cls-2" d="M71.07,57.46a2.27,2.27,0,1,1,2.72-1.71,2.27,2.27,0,0,1-2.72,1.71"/><path class="cls-2" d="M75.83,73.28A11.73,11.73,0,1,0,88.61,83.83,11.73,11.73,0,0,0,75.83,73.28"/><path d="M85.59,77.72A9,9,0,1,0,82.31,90a9,9,0,0,0,3.28-12.32"/><path class="cls-2" d="M75.72,84.36a2,2,0,1,0,1.19,2.49,2,2,0,0,0-1.19-2.49"/><path class="cls-2" d="M119.91,72a11.73,11.73,0,1,1-12.13,11.29A11.73,11.73,0,0,1,119.91,72"/><path d="M110.44,77a9,9,0,1,1,4,12.1,9,9,0,0,1-4-12.1"/><path class="cls-2" d="M120.68,83a2,2,0,1,1-1,2.56,2,2,0,0,1,1-2.56"/><path d="M104.13,95.82c.63-.3,3.33.55,3.86.93,1.44,1-.34,1.76-1.52,2.28-1.74.77-3.89-2.51-2.34-3.22"/><path d="M93.58,96.67c-.67-.19-3.2,1.09-3.66,1.55-1.25,1.23.62,1.68,1.88,2,1.84.48,3.42-3.11,1.78-3.56"/><path class="cls-3" d="M92.22,99.37c2,7.93,12.53,7,13.2-1"/><path class="cls-4" d="M144.19,145c4.11-1.42,0-4.17-2.38-4.44-1.39-.15-2.84,0-3.44,1.45C136.92,145.36,142.16,145.65,144.19,145Z"/><path class="cls-4" d="M134.41,141.07c-.07-2.62-8.66-7.38-8.68-3.06,0,2.68,5.07,5,7.4,4.34C134.05,142.1,134.43,141.63,134.41,141.07Z"/><path class="cls-4" d="M54.8,142.26c.53-2.72-8-3.55-8.55-.65-.41,2,2.77,2.43,4.05,2.38C51.43,144,54.5,143.81,54.8,142.26Z"/><path class="cls-4" d="M64.54,138.16c-1.25.13-6.75,2.15-4.06,3.82,1.54,1,5.34-.34,6.46-1.61,1.78-2-1.28-2.76-2.9-1.75"/><path class="cls-4" d="M66.32,159.45a1.46,1.46,0,0,0,0,1.34c1.8,3.55,11.15-1,8.65-3.73C73.41,155.41,67.39,157.19,66.32,159.45Z"/><path class="cls-4" d="M81.27,154c-2.35,4.12,7.51.81,6.74-2.72C87.3,148,82,152.75,81.27,154Z"/><path class="cls-4" d="M115.43,157.33c-1.61-.36-2.86.11-2.41,2.17.25,1.12,1.76,2.31,2.77,2.82s3,1.11,4.06.42C122.25,161.19,118.28,158,115.43,157.33Z"/><path class="cls-4" d="M110.55,154.44c.34-2.75-7.65-10.1-6.23-3.59.4,1.82,2.31,4.32,4.28,4.52C109.9,155.5,110.47,155.1,110.55,154.44Z"/></svg>