<svg id="Layer_1" data-name="Layer 1" xmlns="http://www.w3.org/2000/svg" width="7.06cm" height="7.06cm" viewBox="0 0 200 200"><defs><style>.cls-1{fill:#94c0e9;}.cls-2{fill:#009bde;}.cls-3{fill:#fff;}.cls-4{fill:#2e2a25;}.cls-5{fill:none;stroke:#2e2a25;stroke-linecap:round;stroke-miterlimit:10;stroke-width:2.72px;}</style></defs><title>octipus_b_01</title><path class="cls-1" d="M107.21,115.83c6.26,12.44,7.28,31.41-8.22,37.39-3.79,1.46-8.45,2.17-12.34,2.9-5.62,1-12.07,2.23-15.75,7-1.53,2-3.73,5.59-1.9,8s4.89,1,6.6-.67c3.27-3.24,5.88-5.68,10.61-6.56,4.46-.84,8.94-.45,13.39-1.66,9.17-2.49,17.44-10.18,19.47-19.56s.28-18.59-2.33-27.72"/><path class="cls-1" d="M132.25,113.32a13.68,13.68,0,0,1,4.22,10.22c0,5.51-3.09,14.32,4.55,16.23,4.76,1.19,10.5-.51,13.29-4.65,4.15-6.16,1.61-13.93,2.67-20.78.31-2,1.38-5.3,4-5.3,3.29,0,3.5,4.24,3.84,6.53,1.63,10.67-2,23.15-10.86,29.79-5.28,3.94-12.55,4.35-18.48,1.8-5.28-2.28-8.38-8.28-9-13.85-.36-3.25,1.05-6.1.21-9.38a27.89,27.89,0,0,0-4.15-8.37"/><path class="cls-1" d="M76.35,104.8C66,110,68.4,127.16,55,127.92c-6.55.37-11.24-6.14-13.28-11.62-1.14-3.07-2.23-13.47-7.8-11.76-4.79,1.48-3,12.13-1.54,15.11,5.06,10.1,13.71,17.18,25.39,17.23,7.16,0,14.24-4.67,17.46-10.94,3-5.76,4.12-11.47,9.47-15.8"/><path class="cls-1" d="M85.29,109.11C88,126,79.71,141.61,62,144.6a36.1,36.1,0,0,1-10.8.12c-3.23-.44-7.65-3.5-10.75-3-4.95.8-3.57,5.2-1,7.95,3.63,3.91,9.39,4.07,14.26,5,5.5,1.06,11.35.19,16.66-1.44,18.69-5.76,24-25.76,24.93-43.16"/><path class="cls-2" d="M147,109.2c6.15-4,10.43-10.66,12.1-21,4.49-27.88-14.32-55.23-42.2-59.71S62.58,44.06,58.1,71.94c-1.67,10.38.32,18,4.9,23.77-3.6,2.09-10.24,6-4.64,9.18,1.76,1,6.44,1.46,8.4,0-2.44,3.46-4.77,7,.65,9.14,3.59,1.4,8.34.43,8.83-3.87-.32,4.74-.62,8.91,5.67,10,4.71.81,6-1.07,7.66-5.25-.73,3.07-.44,6.35,5,8.05,2.3.71,5.13-.45,7.73-3.91a6.67,6.67,0,0,0,6.1,6.12c5.74.1,7-2.92,7.32-6.07.27,4.5.9,6.68,5.63,7.39,6.31.94,7.33-3.12,8.52-7.72-.88,4.24,3.32,6.64,7.17,6.44,5.81-.3,4.7-4.42,3.48-8.48,1.4,2,6,3.06,8,2.67,6.31-1.24,1.22-7.06-1.53-10.18"/><path class="cls-1" d="M101.56,37.44c-.4-1.31.79-2.83,2.64-3.39s3.68,0,4.08,1.36-.78,2.83-2.64,3.39-3.68-.05-4.08-1.37"/><path class="cls-1" d="M111.12,43.57a2,2,0,1,1,.11-2.82,2,2,0,0,1-.11,2.82"/><path class="cls-1" d="M123.45,39.57a2,2,0,1,1,.11-2.83,2,2,0,0,1-.11,2.83"/><path class="cls-1" d="M117.66,35.65a3,3,0,1,1-3.56-2.39,3,3,0,0,1,3.56,2.39"/><path class="cls-3" d="M70.28,57.16A11.21,11.21,0,1,0,84.37,49.9a11.22,11.22,0,0,0-14.09,7.27"/><path class="cls-4" d="M77.5,52.43A8.62,8.62,0,1,0,87.09,60a8.63,8.63,0,0,0-9.59-7.53"/><path class="cls-3" d="M82.65,60.75a1.87,1.87,0,1,0,2.64-.11,1.86,1.86,0,0,0-2.64.11"/><path class="cls-3" d="M129.35,66.63a11.21,11.21,0,1,0,14.09-7.27,11.22,11.22,0,0,0-14.09,7.27"/><path class="cls-4" d="M136.57,61.89a8.62,8.62,0,1,0,9.59,7.53,8.63,8.63,0,0,0-9.59-7.53"/><path class="cls-3" d="M141.72,70.21a1.87,1.87,0,1,0,2.64-.11,1.87,1.87,0,0,0-2.64.11"/><path class="cls-5" d="M118.45,77c-1,3.49-4.57,5.21-7.14,5.54-3.18.42-5.48-.28-8.41-1.69-2-1-4.19-3.2-4.41-5.78"/><path class="cls-4" d="M120.1,76a2.23,2.23,0,0,0-1-.51c-1-.29-2.4-.46-2,1.14.6,2.24,4.13.5,3-.63"/><path class="cls-4" d="M96.85,73.25A2.38,2.38,0,0,1,98,73c1.06,0,2.44.1,1.66,1.56-1.09,2-4.13-.45-2.77-1.3"/></svg>