<svg id="Layer_1" data-name="Layer 1" xmlns="http://www.w3.org/2000/svg" width="7.06cm" height="7.06cm" viewBox="0 0 200 200"><defs><style>.cls-1{fill:#cccbca;}.cls-2{fill:#77c9bd;}.cls-3{fill:#fff;}</style></defs><title>octopusd-1</title><path class="cls-1" d="M66.23,163.33c-1.56,1.91-6.3,8.18-1.39,8.53,6.6.47,13.42-4.2,18.52-7.71a38.8,38.8,0,0,0,11.13-11.76A32.46,32.46,0,0,0,98.17,143c.36-1.48.77-3,1.14-4.44a22.28,22.28,0,0,0,.57-7.83c3.21,6.12,6.58,11.83,11.66,16.54,4.8,4.45,10.21,8.08,16.8,9,2.93.43,5.43.92,8.22-.19,2.36-.94,4.92-1.55,2.85-4.36a66,66,0,0,0-4.87-5.34c-2.77-3-5.68-6.05-8.24-9.31-1.76-2.24-3.66-4.37-5.29-6.71-1.23-1.77-3.78-5.24-3.74-7.49,1.79.83,3.14,2.32,4.87,3.25a39.57,39.57,0,0,0,5.22,2.07,56.25,56.25,0,0,0,12.71,2.43c2.32.26,4.62-.28,7-.41s12.55-1.13,10.72-4.78c-1.35-2.67-5-4.24-7.7-5a44.81,44.81,0,0,1-10.43-4.24c-3.68-2-8.16-4.25-11.13-7.26-1.71-1.73-3.62-3.36-4.74-5.51a17.81,17.81,0,0,1-2-12.1c1.17-7.89,3.91-12.17,4.26-18.06a31.42,31.42,0,0,0-.13-6.76,36.39,36.39,0,0,0-3.1-11.32A44.1,44.1,0,0,0,70.47,30l-.07,0-.07,0a44.11,44.11,0,0,0-32,48.45,36.89,36.89,0,0,0,3.17,11.32,31.38,31.38,0,0,0,3.37,5.87c4.58,6.73,10.86,10,16.22,15.71C69.44,120.31,59.52,134,54,141.3c-2.65,3.5-5.7,7.05-8.65,10.31-.63.69-3.17,2.37-2.87,3.6.35,1.44,3.41,1.17,4.51,1,6.73-1,13.68-2.81,19.08-7.18a35.39,35.39,0,0,0,4.55-3.91,40.29,40.29,0,0,0,2.67-3.93,36,36,0,0,0,3.23-5.67c-.33.8.18,2.76.17,3.69a27.3,27.3,0,0,1-1.8,9.29A47.49,47.49,0,0,1,66.23,163.33Z"/><path class="cls-2" d="M98.3,39.81c.67-1.58,3-2.08,5.26-1.12s3.49,3,2.81,4.58-3,2.08-5.25,1.12-3.49-3-2.81-4.58"/><path class="cls-2" d="M102.52,53.36a2.5,2.5,0,1,1,2.38-2.61,2.5,2.5,0,0,1-2.38,2.61"/><path class="cls-2" d="M117.55,59.46a2.5,2.5,0,1,1,2.38-2.61,2.49,2.49,0,0,1-2.38,2.61"/><path class="cls-2" d="M115.16,51.06a3.8,3.8,0,1,1-1.49-5.16,3.79,3.79,0,0,1,1.49,5.16"/><path class="cls-3" d="M61.11,95a8.87,8.87,0,1,0-10.37-7,8.86,8.86,0,0,0,10.37,7"/><path class="cls-3" d="M109.77,81.59a8.87,8.87,0,1,0-10.37-7,8.87,8.87,0,0,0,10.37,7"/><path d="M55.11,92.21a6.82,6.82,0,1,0,1.6-9.51,6.81,6.81,0,0,0-1.6,9.51"/><path class="cls-3" d="M57.5,87.92a1.48,1.48,0,1,0-1.07-1.79,1.48,1.48,0,0,0,1.07,1.79"/><path d="M103.64,78.78a6.82,6.82,0,1,0,1.6-9.51,6.82,6.82,0,0,0-1.6,9.51"/><path class="cls-3" d="M106,74.49A1.48,1.48,0,1,0,105,72.7,1.48,1.48,0,0,0,106,74.49"/><path d="M100.9,85.59c.72-.13,3.26,1.48,3.7,2,1.19,1.43-.83,1.71-2.18,1.92-2,.31-3.3-3.64-1.52-3.94"/><path d="M95.9,96.51a8.17,8.17,0,0,1-2.42-.38.74.74,0,1,1,.44-1.42,5.42,5.42,0,0,0,5.62-1.14,5.9,5.9,0,0,0,1.66-4.92.72.72,0,0,1-.38-.93,2,2,0,0,1,.14-.26.84.84,0,0,0,.07-.12.76.76,0,0,1,1.43,0,7.36,7.36,0,0,1-1.88,7.28A6.59,6.59,0,0,1,95.9,96.51Z"/></svg>