<svg id="Layer_1" data-name="Layer 1" xmlns="http://www.w3.org/2000/svg" width="7.06cm" height="7.06cm" viewBox="0 0 200 200"><defs><style>.cls-1{fill:#fff;}.cls-2{fill:#009294;}.cls-3{fill:none;stroke:#000;stroke-linecap:round;stroke-linejoin:round;stroke-width:2.05px;}.cls-4{fill:#fed547;}</style></defs><title>octopus_c_04</title><path class="cls-1" d="M141.37,169.94c4.42-1.51-.29-8.33-3-4.64C136.38,168,138.16,171,141.37,169.94Z"/><path class="cls-2" d="M113.35,140.23c6.52,13.67,17.54,16.89,23.79,18.74,26.66,7.92,28.18-36.59,17.23-22.74-10.75,13.59-34.1-6.08-21.1-24.65,4.92-7,9.57-9.7,12.76-15.22a34.19,34.19,0,0,0,3.15-6.63,41.68,41.68,0,0,0,2.59-12.65v0c2.39-26.63-13.86-44.24-37-50l-.08,0-.08,0C91.54,21.24,69,31.94,61.31,54.43v0a42,42,0,0,0-2.52,12.68,37,37,0,0,0,.31,7.49c.76,6.52,1.22,10.55,5.69,19.84,4.78,9.95-1.4,13.72-6.52,12.45-3.26-.82-6-2.69-4.65-7.6C57,86.48,50.71,81,46.22,79.6c-6.09-1.92-10.47,1-10.89,2S41.71,84,42,93.15c.29,9.86-6.52,17.63-1.7,25.33,9.3,14.85,23.67,13.09,33.21,6.84"/><path class="cls-1" d="M118.66,35.53c.68-1.68,3.21-2.15,5.65-1s3.86,3.37,3.17,5.06-3.22,2.15-5.65,1-3.85-3.37-3.17-5.06"/><path class="cls-1" d="M123.6,50.34a2.88,2.88,0,0,1-2.88-2.66,2.52,2.52,0,0,1,2.49-2.75,2.89,2.89,0,0,1,2.89,2.66,2.52,2.52,0,0,1-2.5,2.74"/><path class="cls-1" d="M137.19,48.24a4,4,0,0,1-5.53,1.46,4.28,4.28,0,0,1-1.77-5.64,4,4,0,0,1,5.54-1.45,4.27,4.27,0,0,1,1.76,5.63"/><path d="M116.91,96.24c.74.27,2.34,3.2,2.5,3.95.43,2-1.61,1.21-3,.7-2-.77-1.33-5.3.49-4.64"/><path class="cls-3" d="M116.26,99.11a2.51,2.51,0,0,0,.44-.3c-1,5.2-7,7.94-11.36,3.31"/><path class="cls-1" d="M71.52,64.89a9.68,9.68,0,1,0,13.56,1.78,9.68,9.68,0,0,0-13.56-1.78"/><path d="M80.29,63.72a7.44,7.44,0,1,0,3.09,10.06,7.44,7.44,0,0,0-3.09-10.06"/><path class="cls-1" d="M76.29,72.68a1.61,1.61,0,1,0,1.92,1.22,1.62,1.62,0,0,0-1.92-1.22"/><path class="cls-1" d="M123.37,73.79a9.68,9.68,0,1,0,13.56,1.79,9.68,9.68,0,0,0-13.56-1.79"/><path d="M132.14,72.62a7.44,7.44,0,1,0,3.09,10.05,7.44,7.44,0,0,0-3.09-10.05"/><path class="cls-1" d="M128.14,81.58a1.61,1.61,0,1,0,1.92,1.22,1.61,1.61,0,0,0-1.92-1.22"/><path class="cls-2" d="M96.88,127.24c8.81,3.77,19.53,7.32,16.71,11.2s-8.59,2.79-12.3,3.29c-11.36,1.58-15.21,9-15.76,13.32-3.1,24.69,25.73,21.48,19.94,14.83-3.67-4.22-7.1-12.13,3.78-10.3s15.68-.07,21.53-3.29c6.81-3.76,5.94-9.9,2.29-15.73a68.2,68.2,0,0,0-5.84-8.45,43,43,0,0,0-7.76-6.88c-2.35-1.67-6.23-5.18-9-4.85-3.19.38-7.17,3-10.17,4.26C98.55,125.35,98,125.4,96.88,127.24Z"/><path class="cls-2" d="M71,104.75c-12.4,1.49-26.88,14.85-24,28.84,1.29,6.23,5.45,10.59,14.17,15.77s5,10.21.23,11c-7.5,1.32,13.31,13.77,19.45-1.47,1.46-3.63,2.91-12.13-4.43-20-2.4-2.58-6.36-5.1-6.43-9.55s8-10.11,20.63-6.89"/><path class="cls-4" d="M160.39,148.2c.48-4.94-4.33-2-5.74.36-.83,1.37-1.32,3-.13,4.27C157.35,155.94,160.15,150.63,160.39,148.2Z"/><path class="cls-4" d="M150.64,158c-1.77-2.42-12.93-1.31-10.15,2.76,1.73,2.52,8,1.39,9.77-.72C151,159.15,151,158.48,150.64,158Z"/><path class="cls-4" d="M42.38,96.14c3.17.06,2.41-9.65-1-9.75-2.3-.07-2.18,3.6-1.87,5C39.81,92.69,40.57,96.11,42.38,96.14Z"/><path class="cls-4" d="M41.72,108.16c.62-1.29,2-7.85-1.28-6.24-1.85.92-2.87,5.4-2.31,7.24.9,2.95,3.45.41,3.44-1.78"/><path class="cls-4" d="M109.59,158.84a1.36,1.36,0,0,0-.37,1.19c.62,3.66,10.22,2.16,8.73-.92C117,157.21,111.17,157.13,109.59,158.84Z"/><path class="cls-4" d="M63.46,148.7c-4.94-2.23-.11,8.63,3.83,7.37C70.92,154.91,65,149.38,63.46,148.7Z"/><path class="cls-4" d="M52.49,140.17c-1.74-.72-3.24-.45-3.14,2,.05,1.3,1.51,3,2.55,3.73s3.15,1.85,4.49,1.29C59.38,145.86,55.56,141.45,52.49,140.17Z"/><path class="cls-4" d="M105.4,167.42c1.5-1.95-3.15-11.29-4.54-5.65a5.55,5.55,0,0,0,2.24,5.45C104.31,167.93,105,167.89,105.4,167.42Z"/></svg>