<svg id="Layer_1" data-name="Layer 1" xmlns="http://www.w3.org/2000/svg" width="7.06cm" height="7.06cm" viewBox="0 0 200 200"><defs><style>.cls-1{fill:#41ffff;}.cls-2{fill:#9e9e9e;}</style></defs><title>oyster_03</title><path class="cls-1" d="M168.9,131.49c-5.64,1.88-17.05,3.45-22.41.58-6.22-3.34-3.29-7.47-1.57-12.61s1.29-12.34,6.58-16.45c8.15-6.34,17.3,4.68,20.77,9.75C177,119.71,179.6,127.92,168.9,131.49Z"/><path class="cls-2" d="M130.76,133.22c6.3,8.83,15,3.23,20.62-3a32.93,32.93,0,0,0,8-27.4c-1.29-7.7-5.94-15.74-16.12-11.67-6.41,2.57-12.76,12.71-14.22,18.63C127.5,116,126.71,127.53,130.76,133.22Z"/><path class="cls-1" d="M126.42,136.26c-32.86,8.91-7.65-77.22,14.53-52.83,4.67,5.13,5.16,13,4.59,19.57C144.59,113.85,138.57,133,126.42,136.26Z"/><path class="cls-2" d="M44.37,120.6c19.52,13.74,56.85,29,75.49,6.47,13.44-16.25,14.07-45.81-5.64-57.18C93.05,57.68,56,61.26,34.4,71.27,9.25,82.93,27.84,109,44.37,120.6Z"/><path class="cls-1" d="M45.53,105.55c-8-9.64-6.63-12.38,5.47-9.88C62.33,98,74,97.88,85.43,99.18c9.33,1,35.66,4.72,28.5,19.76-5.17,10.86-24.73,9.3-33.61,7.25C66.59,123,54.58,116.42,45.53,105.55Z"/></svg>