<svg id="Layer_1" data-name="Layer 1" xmlns="http://www.w3.org/2000/svg" xmlns:xlink="http://www.w3.org/1999/xlink" width="7.06cm" height="7.06cm" viewBox="0 0 200 200"><defs><style>.cls-1{fill:none;}.cls-2{fill:#47acf5;}.cls-3{clip-path:url(#clip-path);}.cls-4{fill:#ffce00;}</style><clipPath id="clip-path"><path class="cls-1" d="M117,64.07c0,.47,0,.47.09,0C114.39,49,86.7,46.65,84.49,63.53c-7.53-7.3-14.56-5.69-21.81.13-6.19,5-12.62,15.06-6,22.12C43.39,81.54,39,95,38,98.66c-2,6.84,4.24,15.72,9.67,19.46-19.28,8.3-15,30,6.63,30.22,13.42.14,37.28-5.06,43.88-4.51,0,0,4.61,7.32,13.22,4.35,10.2-3.52,17.34-10.13,15.4-20.46,10.43-9.62,37.58-24.11,34.51-41-2.06-11.33-13.86-15.52-21-5.67C147.13,66.26,127.66,51.22,117,64.07Z"/></clipPath></defs><title>shell_c_03</title><path class="cls-2" d="M117,64.07c0,.47,0,.47.09,0C114.39,49,86.7,46.65,84.49,63.53c-7.53-7.3-14.56-5.69-21.81.13-6.19,5-12.62,15.06-6,22.12C43.39,81.54,39,95,38,98.66c-2,6.84,4.24,15.72,9.67,19.46-19.28,8.3-15,30,6.63,30.22,13.42.14,37.28-5.06,43.88-4.51,0,0,4.61,7.32,13.22,4.35,10.2-3.52,17.34-10.13,15.4-20.46,10.43-9.62,37.58-24.11,34.51-41-2.06-11.33-13.86-15.52-21-5.67C147.13,66.26,127.66,51.22,117,64.07Z"/><g class="cls-3"><path class="cls-4" d="M92.79,146.55c-.66-7.68,4.85-15.16,14.37-19.52,8.61-3.94,20.25-4.91,26.81,1.82l-4,3.88c-4.45-4.56-13.69-3.77-20.52-.65-5.74,2.63-11.68,7.68-11.14,14Z"/><path class="cls-4" d="M97.38,138c-20.1-5.77-43.61-13.22-65.61-24.65l2.56-4.93C55.89,119.62,79.07,127,98.91,132.65Z"/><path class="cls-4" d="M123.73,128.21l-5.35-1.5c2.09-7.43,5.61-14.48,9-21.29,1.88-3.76,3.83-7.65,5.46-11.48.92-2.16,2-4.39,3-6.75,3.18-6.89,6.48-14,7.49-20.33l5.48.88c-1.13,7.07-4.75,14.88-7.93,21.78-1.07,2.32-2.08,4.51-3,6.6-1.7,4-3.69,8-5.61,11.79C129.08,114.49,125.67,121.29,123.73,128.21Z"/><path class="cls-4" d="M116.15,129.37l-5.49-.83c1.61-10.67,2-22.06,2.41-33.07.18-4.94.36-10,.65-15,.1-1.75.27-3.72.45-5.81.75-8.83,1.76-20.92-1.42-27.19l5-2.51c3.9,7.68,2.85,20.15,2,30.18-.17,2.05-.34,4-.43,5.67-.29,4.87-.47,9.94-.64,14.85C118.22,106.83,117.81,118.38,116.15,129.37Z"/><path class="cls-4" d="M101,132.26c-2.56-4.87-9.3-10.58-15.25-15.62-3.3-2.79-6.41-5.43-8.89-7.94-1.91-1.93-3.82-3.94-5.84-6.08C63.65,94.85,55.31,86,46.54,81.4l2.6-4.91C58.71,81.56,67.39,90.72,75,98.8c2,2.11,3.89,4.1,5.75,6,2.31,2.33,5.33,4.9,8.53,7.61,6.64,5.63,13.51,11.45,16.57,17.28Z"/><path class="cls-4" d="M106.78,130.4c-3.42-6.42-5.58-13.65-7.67-20.64-1.17-3.93-2.39-8-3.8-11.8-1.17-3.16-2.39-6.31-3.58-9.35C90.47,85.34,89.16,82,87.9,78.53,86,73.35,79.5,59.16,77.06,56.19l4.29-3.53c3.24,3.94,10.1,19.46,11.76,24,1.24,3.38,2.55,6.74,3.81,10,1.19,3.06,2.42,6.23,3.61,9.43,1.47,4,2.71,8.12,3.91,12.14,2.1,7,4.09,13.69,7.25,19.61Z"/></g></svg>