<svg id="Layer_1" data-name="Layer 1" xmlns="http://www.w3.org/2000/svg" xmlns:xlink="http://www.w3.org/1999/xlink" width="7.06cm" height="7.06cm" viewBox="0 0 200 200"><defs><style>.cls-1,.cls-4{fill:none;}.cls-2{fill:#c5e3cb;}.cls-3{clip-path:url(#clip-path);}.cls-4{stroke:#8acc9c;stroke-miterlimit:10;stroke-width:5.4px;}</style><clipPath id="clip-path"><path class="cls-1" d="M138,65.14c-.21.51-.17.53.11,0,2.58-18.09-27.87-31-36.64-12.75-5.8-11.05-14.34-11.84-24.71-8-8.85,3.31-19.86,12.33-15,22.77-13.44-9.73-23.39,3.92-25.92,7.62-4.79,7-1,19.35,3.7,25.61-24.88,2.21-28.08,28.34-3.73,36.62,15.12,5.15,44,8.14,51.28,11.22,0,0,2.49,10,13.33,9.83,12.84-.18,23.37-5,25-17.4,15.37-7,51.45-13.28,54.26-33.49,1.88-13.58-9.9-22.69-21.62-14.21C171.24,78.81,154.8,54.58,138,65.14Z"/></clipPath></defs><title>shelle-3</title><path class="cls-2" d="M138,65.14c-.21.51-.17.53.11,0,2.58-18.09-27.87-31-36.64-12.75-5.8-11.05-14.34-11.84-24.71-8-8.85,3.31-19.86,12.33-15,22.77-13.44-9.73-23.39,3.92-25.92,7.62-4.79,7-1,19.35,3.7,25.61-24.88,2.21-28.08,28.34-3.73,36.62,15.12,5.15,44,8.14,51.28,11.22,0,0,2.49,10,13.33,9.83,12.84-.18,23.37-5,25-17.4,15.37-7,51.45-13.28,54.26-33.49,1.88-13.58-9.9-22.69-21.62-14.21C171.24,78.81,154.8,54.58,138,65.14Z"/><g class="cls-3"><path class="cls-4" d="M83.15,150.15c4.17-17.57,39.44-19.35,47-4"/><path class="cls-4" d="M90.17,138.68c-22.76-15.48-45.25-32.13-64.51-51.85"/><path class="cls-4" d="M119,138.31c7.76-11.56,19.09-20.83,28.3-31.32,7.23-8.23,17.48-17.8,22.43-27.37"/><path class="cls-4" d="M109.79,137.15c8.51-16.84,14.5-35.88,21.45-53.46,4.14-10.5,13.08-28.14,11.36-39.38"/><path class="cls-4" d="M54.26,56.25C65,67.44,72,85.26,79,99.19c5.36,10.75,17,25.84,18.82,36.53"/><path class="cls-4" d="M98.84,40.18c1.95,5,4,24.43,4.17,30.37.29,8.35.85,16.38,1.16,24.74.5,13.46-1.39,27.54.85,40.48"/></g></svg>