<svg id="Layer_1" data-name="Layer 1" xmlns="http://www.w3.org/2000/svg" xmlns:xlink="http://www.w3.org/1999/xlink" width="7.06cm" height="7.06cm" viewBox="0 0 200 200"><defs><style>.cls-1,.cls-4{fill:none;}.cls-2{fill:#0dbfb6;}.cls-3{clip-path:url(#clip-path);}.cls-4{stroke:#fff;stroke-miterlimit:10;stroke-width:4.62px;}</style><clipPath id="clip-path"><path class="cls-1" d="M141.21,87.82c-.32.31-.3.33.05.07,7.88-12.28-9.93-31.72-22.35-21.41-.53-9.94-6.48-13.36-15.28-14C96.1,52,85.13,54.86,85.19,64,78.66,52.52,66.91,59.12,63.86,61c-5.81,3.49-7.19,13.68-5.82,19.8C39.26,74.11,28.26,92,43.18,106.11c9.25,8.74,29.23,20.51,33.47,25.16,0,0-1.5,8.07,6.42,11.56,9.38,4.12,18.62,4.13,23.92-4.33,13.47,0,41.73,7.46,50.47-6.28,5.87-9.22.35-19.74-11-17.48,14.31-5.94,10.44-29-5.28-26.91"/></clipPath></defs><title>shell_b_03</title><path class="cls-2" d="M141.21,87.82c-.32.31-.3.33.05.07,7.88-12.28-9.93-31.72-22.35-21.41-.53-9.94-6.48-13.36-15.28-14C96.1,52,85.13,54.86,85.19,64,78.66,52.52,66.91,59.12,63.86,61c-5.81,3.49-7.19,13.68-5.82,19.8C39.26,74.11,28.26,92,43.18,106.11c9.25,8.74,29.23,20.51,33.47,25.16,0,0-1.5,8.07,6.42,11.56,9.38,4.12,18.62,4.13,23.92-4.33,13.47,0,41.73,7.46,50.47-6.28,5.87-9.22.35-19.74-11-17.48,14.31-5.94,10.44-29-5.28-26.91"/><g class="cls-3"><path class="cls-4" d="M70.82,134.44c7.5-6.31,14.18-7.64,23.32-3.87,3.47,1.44,6.79,2.88,9.56,5.29a81.52,81.52,0,0,1,6.54,7.73"/><path class="cls-4" d="M162.38,108.74c-20.53,5.66-43.26,12.75-59.44,27.24"/><path class="cls-4" d="M151.23,81.64c-10.78,5.91-20.86,14.19-30.46,21.89a153.54,153.54,0,0,0-13.74,13c-3.47,3.53-8.14,10.09-10,15.32"/><path class="cls-4" d="M122.3,57.3c-6.86,17.36-13.44,32.87-21.66,49.07-3.57,7-6.61,15.95-10,22.48"/><path class="cls-4" d="M81.44,51.47c4.77,15,7.89,30.25,6.89,46.06-.39,6.23-.3,13.31-1.41,19.38-.76,4.18-1.56,8.05-2.66,12"/><path class="cls-4" d="M50.85,73c8.51,9.17,14.84,21.38,20.38,32.56,3.13,6.31,8.46,16.8,8.44,23.73"/></g></svg>