<svg id="Layer_1" data-name="Layer 1" xmlns="http://www.w3.org/2000/svg" xmlns:xlink="http://www.w3.org/1999/xlink" width="7.06cm" height="7.06cm" viewBox="0 0 200 200"><defs><style>.cls-1,.cls-4{fill:none;}.cls-2{fill:#a3d783;}.cls-3{clip-path:url(#clip-path);}.cls-4{stroke:#6cc04a;stroke-miterlimit:10;stroke-width:5.55px;}</style><clipPath id="clip-path"><path class="cls-1" d="M117,64.07c0,.47,0,.47.09,0C114.39,49,86.7,46.65,84.49,63.53c-7.53-7.3-14.56-5.69-21.81.13-6.19,5-12.62,15.06-6,22.12C43.39,81.54,39,95,38,98.66c-2,6.84,4.24,15.72,9.67,19.46-19.28,8.3-15,30,6.63,30.22,13.42.14,37.28-5.06,43.88-4.51,0,0,4.61,7.32,13.22,4.35,10.2-3.52,17.34-10.13,15.4-20.46,10.43-9.62,37.58-24.11,34.51-41-2.06-11.33-13.86-15.52-21-5.67C147.13,66.26,127.66,51.22,117,64.07Z"/></clipPath></defs><title>shell_c_04</title><path class="cls-2" d="M117,64.07c0,.47,0,.47.09,0C114.39,49,86.7,46.65,84.49,63.53c-7.53-7.3-14.56-5.69-21.81.13-6.19,5-12.62,15.06-6,22.12C43.39,81.54,39,95,38,98.66c-2,6.84,4.24,15.72,9.67,19.46-19.28,8.3-15,30,6.63,30.22,13.42.14,37.28-5.06,43.88-4.51,0,0,4.61,7.32,13.22,4.35,10.2-3.52,17.34-10.13,15.4-20.46,10.43-9.62,37.58-24.11,34.51-41-2.06-11.33-13.86-15.52-21-5.67C147.13,66.26,127.66,51.22,117,64.07Z"/><g class="cls-3"><path class="cls-4" d="M95.56,146.32C94.27,131.2,122,120.52,132,130.79"/><path class="cls-4" d="M98.14,135.32c-22.23-6.38-44.55-13.76-65.1-24.45"/><path class="cls-4" d="M121.06,127.46c3.16-11.26,9.76-21.64,14.37-32.43,3.61-8.47,9.28-18.8,10.72-27.73"/><path class="cls-4" d="M113.41,129c2.37-15.68,2.16-32.45,3.08-48.3.55-9.47,3.05-25.9-1.27-34.42"/><path class="cls-4" d="M47.83,78.95c11.55,6.11,21.8,18.5,31,27.8,7.1,7.17,20.38,16.16,24.62,24.22"/><path class="cls-4" d="M79.21,54.42c2.87,3.5,9.57,18.46,11.3,23.15,2.42,6.58,5,12.85,7.42,19.44,3.93,10.62,6.12,22.35,11.31,32.09"/></g></svg>