<svg id="Layer_1" data-name="Layer 1" xmlns="http://www.w3.org/2000/svg" width="7.06cm" height="7.06cm" viewBox="0 0 200 200"><defs><style>.cls-1{fill:#e70095;}.cls-2{fill:#fd92a3;}.cls-3{fill:#873a1f;}</style></defs><title>shelld-4</title><path class="cls-1" d="M44.59,155.69c6-.61,17.23-3.93,21-8.82,4.37-5.69-.07-8.28-3.81-12.33s-6.34-10.88-12.95-12.48c-10.19-2.47-14.06,11.55-15.16,17.69C32.15,148.17,33.19,156.84,44.59,155.69Z"/><path class="cls-2" d="M80.61,141.37c-2.14,10.8-12.56,9.27-20.33,5.85a33.44,33.44,0,0,1-18.83-22c-2-7.67-1.07-17.05,10-17.52,7-.3,17.11,6.44,20.94,11.3C76.46,124.11,82,134.41,80.61,141.37Z"/><path class="cls-1" d="M85.89,142.37C120,136.9,60.76,67.71,50.41,99.53c-2.18,6.7.63,14.16,3.92,20C59.72,129.21,73.27,144.38,85.89,142.37Z"/><path class="cls-2" d="M155.3,93.64C143,114.49,114.79,144.2,88.14,131.12,68.92,121.69,56,94.59,69.5,75.85c14.49-20.13,50.3-32.28,74.44-32C172.09,44.12,165.74,76,155.3,93.64Z"/><path class="cls-3" d="M147.94,80.2c3.4-12.27,1-14.22-9.18-6.86-9.51,6.89-20.34,11.63-30.4,17.61-8.2,4.87-31,19.25-18.13,30.18,9.32,7.9,26.77-1.71,34.13-7.31C135.74,105.14,144.11,94,147.94,80.2Z"/></svg>