<svg id="Layer_1" data-name="Layer 1" xmlns="http://www.w3.org/2000/svg" width="7.06cm" height="7.06cm" viewBox="0 0 200 200"><defs><style>.cls-1{fill:#ffe284;}.cls-2{fill:#ca5679;}.cls-3{fill:#fff;}.cls-4{fill:none;stroke:#0a0a0a;stroke-linecap:round;stroke-linejoin:round;stroke-width:4.25px;}</style></defs><title>star_b_03</title><path class="cls-1" d="M149.14,99.17c10.34-8.38,23.09-20.52,17.42-27-4.08-4.67-22-.73-27,.35-7,1.49-17.78,5.91-23.93.58-4.76-4.13-5.86-12-8.07-17.57-2.46-6.24-10.26-30.77-20.81-26.17C73,35.34,80.27,65.73,75.12,77,71.6,84.79,65.25,84.38,57.8,85,44.54,86,27.16,88.83,28.17,97.37c.73,6.15,17.71,13,22.47,15s12.33,3.71,15.26,8.37c3.67,5.82-2,14.62-3.95,20.41-4.18,12.63-8.35,29.74-.1,32.12,6,1.73,18.89-11.25,22.55-14.87,5.71-5.66,17.65-22,26.18-14.49,1.7,1.5,5.41,5,10,8.9,10.14,8.62,24.43,18.91,29.74,12.16,3.83-4.88-3.34-21.73-5.32-26.48-2.85-6.85-6.17-13.7-7.81-21C134.76,107,141.53,105.33,149.14,99.17Z"/><path class="cls-2" d="M93.91,72.19c3.83-.53,7.53-4.26,3.73-8.35-4.09-4.41-10.5-1.3-9.33,4.64C88.91,71.54,91.43,72.52,93.91,72.19Z"/><path class="cls-2" d="M91.4,56.52c3.18-.44,6.25-3.53,3.1-6.94-3.39-3.65-8.71-1.07-7.74,3.86C87.25,56,89.35,56.81,91.4,56.52Z"/><path class="cls-2" d="M89.62,43.2c2.46-.34,4.84-2.73,2.4-5.37-2.63-2.82-6.74-.83-6,3A3,3,0,0,0,89.62,43.2Z"/><path class="cls-2" d="M142.17,85.23c1.35,2.91,5.22,4.93,7.53.9,2.49-4.32-1.55-8.63-6-6.25C141.45,81.11,141.29,83.35,142.17,85.23Z"/><path class="cls-2" d="M154.37,79.59c1,2.24,4,3.81,5.83.7,1.93-3.34-1.2-6.68-4.62-4.84A3,3,0,0,0,154.37,79.59Z"/><path class="cls-2" d="M123.74,128.85c-3.2,2.18-4.85,7.17.39,9.14,5.62,2.11,10-3.52,6.27-8.31C128.5,127.2,125.8,127.44,123.74,128.85Z"/><path class="cls-2" d="M133,141.74c-2.65,1.82-4,6,.32,7.59,4.67,1.76,8.27-2.93,5.2-6.91C136.92,140.37,134.68,140.57,133,141.74Z"/><path class="cls-2" d="M140.51,152.88c-2,1.4-3.11,4.6.25,5.87,3.62,1.36,6.4-2.27,4-5.35A3,3,0,0,0,140.51,152.88Z"/><path class="cls-2" d="M83,134.31c-3.35-2-8.56-1.3-8.1,4.28.5,6,7.47,7.48,10.21,2.1C86.55,137.89,85.18,135.57,83,134.31Z"/><path class="cls-2" d="M75.35,148.19c-2.77-1.61-7.11-1.08-6.72,3.55.42,5,6.19,6.21,8.47,1.73C78.27,151.17,77.13,149.23,75.35,148.19Z"/><path class="cls-2" d="M68.52,159.77c-2.15-1.25-5.5-.83-5.2,2.75.33,3.85,4.79,4.81,6.55,1.35A3,3,0,0,0,68.52,159.77Z"/><path class="cls-2" d="M53.9,98.41c.38-3.19-1.85-6.94-5.93-4.74-4.39,2.37-3.23,8.16,1.78,8.46C52.34,102.28,53.66,100.46,53.9,98.41Z"/><path class="cls-2" d="M40.56,96.78c.29-2.47-1.42-5.38-4.59-3.67-3.4,1.83-2.5,6.31,1.38,6.55A3,3,0,0,0,40.56,96.78Z"/><path class="cls-3" d="M84.32,91.88c-12.65-8.11-25.15,12.1-12.81,20a11.86,11.86,0,0,0,9.13,1.56,10,10,0,0,0,4.23-1.92c6-5.28,6.83-14.92-.54-19.65"/><path d="M75.47,91.67c-9,5.65.12,19.82,8.94,14.3a8.44,8.44,0,0,0,3.77-5.37,7.29,7.29,0,0,0,.06-3.31c-1.58-5.43-7.5-8.9-12.76-5.62"/><path class="cls-3" d="M75.75,99.33a2.36,2.36,0,1,0,3.26.76,2.35,2.35,0,0,0-3.26-.76"/><path class="cls-3" d="M123.59,88.32c-12.66-8.11-25.16,12.1-12.82,20a11.89,11.89,0,0,0,9.13,1.57,10.18,10.18,0,0,0,4.23-1.93c6-5.28,6.83-14.93-.54-19.64"/><path d="M114.74,88.1c-9,5.65.12,19.81,8.94,14.3A8.45,8.45,0,0,0,127.45,97a7.37,7.37,0,0,0,.05-3.31c-1.58-5.43-7.49-8.9-12.76-5.62"/><path class="cls-3" d="M115,95.76a2.36,2.36,0,1,0,3.26.76,2.35,2.35,0,0,0-3.26-.76"/><path class="cls-4" d="M91,123.34c2.39,7,9.43,11.39,17.66,3.51"/><path d="M86,122.42c.48-1.39,5.75-4.23,7.11-4.49,3.64-.68,2.17,3.12,1.22,5.69C93,127.38,84.84,125.81,86,122.42Z"/></svg>