<svg id="Layer_1" data-name="Layer 1" xmlns="http://www.w3.org/2000/svg" width="7.06cm" height="7.06cm" viewBox="0 0 200 200"><defs><style>.cls-1{fill:#f4e767;}.cls-2{fill:#fff1c2;}.cls-3{fill:#fff;}.cls-4{fill:none;stroke:#000;stroke-linecap:round;stroke-linejoin:round;stroke-width:3.96px;}</style></defs><title>star_face_04</title><path class="cls-1" d="M62.73,103.83c-3,6.28-7.39,11.84-11.39,17.48-2.77,3.92-12.74,17.78-10.25,23,3.45,7.23,18.55.78,29.53-5,4.93-2.59,9-5,10.87-6.06,9.3-5.1,16.82,12.22,20.86,18.52,2.58,4,11.69,18.48,17.47,18.13,8-.48,7.69-16.89,6.47-29.23-.56-5.66-3.95-14.83.58-19.37,3.62-3.64,10.85-3.68,15.59-4.5s21.57-3.59,23.49-9c2.66-7.57-12.57-13.66-24.41-17.33-6.65-2.06-12.51-3-14.13-10.75C125,68.37,137.81,42.22,126.54,34c-8.66-6.33-20.76,14.38-24.27,19.55-3.14,4.62-5.75,11.55-10.92,14.33-6.68,3.59-15.57-2.62-21.64-5.41-4.36-2-19.82-9.24-24.48-5.83C38.76,61.34,47.87,75,55.57,84.72,61.22,91.88,67,94.78,62.73,103.83Z"/><path class="cls-2" d="M111.3,71.45c-3.38-1.26-6-5.4-1.69-8.35,4.62-3.17,9.81,1,7.53,6.12C116,71.89,113.48,72.27,111.3,71.45Z"/><path class="cls-2" d="M116.78,57.73c-2.8-1-5-4.48-1.4-6.94,3.83-2.63,8.14.8,6.25,5.08A3.56,3.56,0,0,1,116.78,57.73Z"/><path class="cls-2" d="M121.11,46c-2.17-.81-3.84-3.47-1.08-5.37,3-2,6.3.62,4.84,3.93A2.76,2.76,0,0,1,121.11,46Z"/><path class="cls-2" d="M64.75,73.46c-1.83,2.37-5.75,3.42-7-.72-1.38-4.44,3.17-7.53,6.7-4.47C66.24,69.86,65.93,71.93,64.75,73.46Z"/><path class="cls-2" d="M54.8,65.84c-1.41,1.83-4.45,2.65-5.45-.55-1.07-3.43,2.45-5.83,5.19-3.46A2.76,2.76,0,0,1,54.8,65.84Z"/><path class="cls-2" d="M72.6,116.9c2.46,2.64,2.95,7.51-2.22,8.23-5.54.78-8.35-5.24-4-8.84C68.61,114.42,71,115.2,72.6,116.9Z"/><path class="cls-2" d="M61.57,126.73c2,2.19,2.45,6.23-1.84,6.83-4.6.64-6.92-4.35-3.32-7.34A3.56,3.56,0,0,1,61.57,126.73Z"/><path class="cls-2" d="M52.44,135.32C54,137,54.33,140.14,51,140.61c-3.56.5-5.36-3.37-2.57-5.68A2.76,2.76,0,0,1,52.44,135.32Z"/><path class="cls-2" d="M108.52,130.17c3.44-1.09,8,.56,6.48,5.55-1.68,5.34-8.31,5.28-9.71-.18C104.57,132.71,106.3,130.88,108.52,130.17Z"/><path class="cls-2" d="M112.66,144.36c2.85-.9,6.68.47,5.38,4.6-1.39,4.43-6.9,4.38-8.06-.15A3.56,3.56,0,0,1,112.66,144.36Z"/><path class="cls-2" d="M116.5,156.29c2.21-.7,5.17.37,4.16,3.56-1.08,3.43-5.34,3.4-6.24-.11A2.77,2.77,0,0,1,116.5,156.29Z"/><path class="cls-2" d="M142.33,103.47c.3-3,3.09-5.94,6.36-3.1,3.51,3,1.27,8.08-3.35,7.33C143,107.31,142.13,105.38,142.33,103.47Z"/><path class="cls-2" d="M154.8,104.71c.24-2.3,2.39-4.6,4.92-2.4,2.72,2.36,1,6.25-2.59,5.67A2.75,2.75,0,0,1,154.8,104.71Z"/><path class="cls-3" d="M116,91.33c13.17-4.8,20.4,16.14,7.58,20.8a11.08,11.08,0,0,1-8.62-.44,9.41,9.41,0,0,1-3.46-2.61c-4.36-6-3.16-15,4.5-17.75"/><path class="cls-3" d="M81,80.07c13.17-4.8,20.4,16.14,7.58,20.8a11.1,11.1,0,0,1-8.62-.44,9.47,9.47,0,0,1-3.46-2.61c-4.36-6-3.16-15,4.5-17.75"/><path d="M87.77,88c7.07,7-4.15,18-11,11.18a7.87,7.87,0,0,1-2.33-5.65,6.88,6.88,0,0,1,.63-3C77.56,85.92,83.65,84,87.77,88"/><path class="cls-3" d="M85.95,89.1a2.2,2.2,0,1,1-3.11,0,2.18,2.18,0,0,1,3.11,0"/><path d="M123.16,99.18c7.07,7-4.15,18-11,11.18a7.87,7.87,0,0,1-2.33-5.65,6.88,6.88,0,0,1,.63-3c2.55-4.62,8.63-6.56,12.75-2.5"/><path class="cls-3" d="M121.34,100.24a2.2,2.2,0,1,1-3.11,0,2.18,2.18,0,0,1,3.11,0"/><path class="cls-4" d="M103.47,118.56c-3.6,5.87-10.91,8.43-16.78-.41"/><path d="M108.2,118.74c-.16-1.36-4.37-5-5.55-5.54-3.17-1.36-2.61,2.39-2.27,4.93C100.87,121.83,108.59,122.07,108.2,118.74Z"/><path class="cls-4" d="M103.47,118.56c-3.6,5.87-10.91,8.43-16.78-.41"/><path d="M108.2,118.74c-.16-1.36-4.37-5-5.55-5.54-3.17-1.36-2.61,2.39-2.27,4.93C100.87,121.83,108.59,122.07,108.2,118.74Z"/></svg>