<svg id="Layer_1" data-name="Layer 1" xmlns="http://www.w3.org/2000/svg" width="7.06cm" height="7.06cm" viewBox="0 0 200 200"><defs><style>.cls-1{fill:#ffdb00;}.cls-2{fill:#fff;}.cls-3{fill:#784d28;}.cls-4{fill:none;stroke:#784d28;stroke-linecap:round;stroke-linejoin:round;stroke-width:4.25px;}</style></defs><title>star_b_01</title><path class="cls-1" d="M149.08,99.58c10.34-8.38,23.09-20.52,17.42-27-4.08-4.67-22-.73-27,.35-7,1.49-17.78,5.91-23.93.58-4.76-4.13-5.86-12-8.07-17.57C105,49.7,97.25,25.18,86.69,29.78c-13.73,6-6.49,36.36-11.63,47.67-3.52,7.76-9.87,7.34-17.32,7.93C44.48,86.44,27.1,89.24,28.11,97.79c.73,6.15,17.71,13,22.47,15s12.33,3.71,15.26,8.37c3.67,5.82-2,14.62-3.95,20.41-4.18,12.63-8.35,29.74-.1,32.12,6,1.73,18.89-11.25,22.55-14.87,5.71-5.66,17.65-22,26.18-14.49,1.7,1.5,5.41,5,10,8.9,10.14,8.62,24.43,18.91,29.74,12.16,3.83-4.88-3.34-21.73-5.32-26.48-2.85-6.85-6.17-13.7-7.81-21C134.7,107.42,141.48,105.75,149.08,99.58Z"/><path class="cls-2" d="M93.85,72.6c3.83-.53,7.53-4.26,3.73-8.35-4.09-4.41-10.5-1.3-9.33,4.64C88.85,72,91.38,72.93,93.85,72.6Z"/><path class="cls-2" d="M91.34,56.93c3.18-.44,6.25-3.53,3.1-6.94-3.39-3.65-8.71-1.07-7.74,3.86C87.19,56.39,89.29,57.22,91.34,56.93Z"/><path class="cls-2" d="M89.57,43.61c2.46-.34,4.84-2.73,2.4-5.37-2.63-2.82-6.74-.83-6,3A3,3,0,0,0,89.57,43.61Z"/><path class="cls-2" d="M142.11,85.64c1.35,2.91,5.22,4.93,7.53.9,2.49-4.32-1.55-8.63-6-6.25C141.39,81.52,141.23,83.76,142.11,85.64Z"/><path class="cls-2" d="M154.32,80c1,2.24,4,3.81,5.83.7,1.93-3.34-1.2-6.68-4.62-4.84A3,3,0,0,0,154.32,80Z"/><path class="cls-2" d="M123.68,129.26c-3.2,2.18-4.85,7.17.39,9.14,5.62,2.11,10-3.52,6.27-8.31C128.44,127.61,125.74,127.85,123.68,129.26Z"/><path class="cls-2" d="M132.92,142.15c-2.65,1.82-4,6,.32,7.59,4.67,1.76,8.27-2.93,5.2-6.91C136.86,140.78,134.63,141,132.92,142.15Z"/><path class="cls-2" d="M140.45,153.29c-2,1.4-3.11,4.6.25,5.87,3.62,1.36,6.4-2.27,4-5.35A3,3,0,0,0,140.45,153.29Z"/><path class="cls-2" d="M83,134.72c-3.35-2-8.56-1.3-8.1,4.28.5,6,7.47,7.48,10.21,2.1C86.49,138.3,85.12,136,83,134.72Z"/><path class="cls-2" d="M75.29,148.6c-2.77-1.61-7.11-1.08-6.72,3.55.42,5,6.19,6.21,8.47,1.73C78.22,151.58,77.07,149.64,75.29,148.6Z"/><path class="cls-2" d="M68.47,160.18c-2.15-1.25-5.5-.83-5.2,2.75.33,3.85,4.79,4.81,6.55,1.35A3,3,0,0,0,68.47,160.18Z"/><path class="cls-2" d="M53.85,98.82c.38-3.19-1.85-6.94-5.93-4.74-4.39,2.37-3.23,8.16,1.78,8.46C52.29,102.69,53.6,100.87,53.85,98.82Z"/><path class="cls-2" d="M40.5,97.19c.29-2.47-1.42-5.38-4.59-3.67-3.4,1.83-2.5,6.31,1.38,6.55A3,3,0,0,0,40.5,97.19Z"/><path class="cls-2" d="M84.26,92.29c-12.65-8.11-25.15,12.1-12.81,20a11.86,11.86,0,0,0,9.13,1.56,10,10,0,0,0,4.23-1.92c6-5.28,6.83-14.92-.54-19.65"/><path class="cls-3" d="M75.41,92.08c-9,5.65.12,19.82,8.94,14.3A8.44,8.44,0,0,0,88.12,101a7.29,7.29,0,0,0,.06-3.31c-1.58-5.43-7.5-8.9-12.76-5.62"/><path class="cls-2" d="M75.69,99.74a2.36,2.36,0,1,0,3.26.76,2.35,2.35,0,0,0-3.26-.76"/><path class="cls-2" d="M123.54,88.73c-12.66-8.11-25.16,12.1-12.82,20a11.89,11.89,0,0,0,9.13,1.57,10.18,10.18,0,0,0,4.23-1.93c6-5.28,6.83-14.93-.54-19.64"/><path class="cls-3" d="M114.68,88.51c-9,5.65.12,19.81,8.94,14.3a8.45,8.45,0,0,0,3.77-5.37,7.37,7.37,0,0,0,.05-3.31c-1.58-5.43-7.49-8.9-12.76-5.62"/><path class="cls-2" d="M115,96.17a2.36,2.36,0,1,0,3.26.76,2.35,2.35,0,0,0-3.26-.76"/><path class="cls-4" d="M91,123.75c2.39,7,9.43,11.39,17.66,3.51"/><path class="cls-3" d="M86,122.83c.48-1.39,5.75-4.23,7.11-4.49,3.64-.68,2.17,3.12,1.22,5.69C92.93,127.79,84.78,126.22,86,122.83Z"/></svg>