<svg id="Layer_1" data-name="Layer 1" xmlns="http://www.w3.org/2000/svg" width="7.06cm" height="7.06cm" viewBox="0 0 200 200"><defs><style>.cls-1{fill:#ed008c;}.cls-2{fill:#f580c6;}</style></defs><title>star_c_03</title><path class="cls-1" d="M74,127.87c2.3,7.34,2.87,15.18,3.88,22.76.68,5.26,3,24,8.93,26.38,8.23,3.28,15.66-13.3,20.24-26.23,2.06-5.82,3.55-10.88,4.29-13.09,3.72-11.13,22.84-2.7,30.86-.61,5.13,1.35,23.38,6.23,27.8,1.6,6.14-6.4-6.44-19.49-16.7-28.6C148.63,105.9,139,101,139.26,93.91c.2-5.68,6-11.13,9.28-15.37s14.83-19.11,12.3-25c-3.52-8.15-20.47-1.64-32.86,4.26-6.94,3.33-12.39,7-19.56,1.88C98,52.28,88.74,21.42,73.4,23.19c-11.8,1.36-6.07,27.27-5,34.12.92,6.11,4,13.7,1.9,19.84C67.52,85.09,55.64,86.73,48.61,89c-5,1.65-23,7.37-24.27,13.65-1.71,8.7,15.95,12.94,29.51,15.07C63.81,119.29,70.73,117.28,74,127.87Z"/><path class="cls-2" d="M89.16,65.09c-3.69,1.51-8.92.1-7.65-5.51,1.37-6.06,8.69-6.59,10.72-.69C93.28,61.93,91.54,64.12,89.16,65.09Z"/><path class="cls-2" d="M83.3,49.82c-3.06,1.25-7.41.08-6.35-4.59,1.13-5,7.2-5.47,8.89-.57C86.72,47.19,85.28,49,83.3,49.82Z"/><path class="cls-2" d="M78,37c-2.37,1-5.73.07-4.91-3.56C74,29.59,78.65,29.24,80,33A3.06,3.06,0,0,1,78,37Z"/><path class="cls-2" d="M52.85,101.69c.3,3.29-2.11,7.09-6.26,4.7-4.45-2.57-3.08-8.5,2.1-8.67C51.36,97.64,52.66,99.56,52.85,101.69Z"/><path class="cls-2" d="M39,103c.23,2.55-1.62,5.49-4.83,3.64-3.46-2-2.39-6.58,1.61-6.71A3,3,0,0,1,39,103Z"/><path class="cls-2" d="M91.85,131.07c4,.3,8,3.88,4.38,8.36-3.92,4.79-10.71,2-9.89-4.17C86.75,132.05,89.29,130.88,91.85,131.07Z"/><path class="cls-2" d="M90.28,147.35c3.3.25,6.66,3.22,3.63,6.94-3.26,4-8.89,1.66-8.21-3.48C86.05,148.16,88.15,147.19,90.28,147.35Z"/><path class="cls-2" d="M89.32,161.17c2.56.2,5.16,2.5,2.82,5.38-2.52,3.08-6.89,1.28-6.38-2.7A3.08,3.08,0,0,1,89.32,161.17Z"/><path class="cls-2" d="M131,114.89c2-3.48,7-5.59,9.43-.37,2.65,5.6-2.79,10.54-8,7.14C129.71,119.89,129.73,117.12,131,114.89Z"/><path class="cls-2" d="M145,123.29c1.65-2.87,5.79-4.64,7.84-.3,2.2,4.64-2.31,8.74-6.66,5.92C144,127.47,144,125.15,145,123.29Z"/><path class="cls-2" d="M157.11,130.1c1.27-2.22,4.48-3.57,6.06-.23,1.71,3.61-1.79,6.76-5.15,4.59A3.07,3.07,0,0,1,157.11,130.1Z"/><path class="cls-2" d="M138.42,67.79c-2-2.64-1.95-7.15,2.83-7.3,5.14-.16,7.1,5.6,2.79,8.47C141.81,70.44,139.68,69.49,138.42,67.79Z"/><path class="cls-2" d="M149.48,59.42c-1.54-2-1.52-5.53,2.19-5.64,4-.12,5.5,4.34,2.15,6.56A3,3,0,0,1,149.48,59.42Z"/></svg>