<svg id="Layer_1" data-name="Layer 1" xmlns="http://www.w3.org/2000/svg" width="7.06cm" height="7.06cm" viewBox="0 0 200 200"><defs><style>.cls-1{fill:#ffa7aa;}</style></defs><title>star_02</title><path class="cls-1" d="M67.17,93.32c-4.49,4.46-10,7.86-15.13,11.46-3.57,2.51-16.38,11.32-15.85,16.54.74,7.26,15.66,6.38,26.83,4.81,5-.71,9.29-1.54,11.17-1.85,9.53-1.51,10.65,15.63,12.17,22.27,1,4.26,4.33,19.43,9.39,20.9,7,2,11.78-12.11,14.52-23.06,1.26-5,1.18-13.91,6.45-16.41,4.21-2,10.42.19,14.72.95s19.58,3.53,22.9-.52c4.6-5.67-6.57-15.57-15.58-22.35-5.07-3.81-9.8-6.39-8.81-13.54,1.46-10.44,20.46-28.91,13.33-39.42-5.47-8.09-22.2,5.93-26.78,9.27-4.12,3-8.48,8.13-13.76,8.93-6.83,1-12.54-7-16.89-11.28C82.75,57,71.72,46,66.68,47.51c-7,2-3.39,16.53.22,27.24C69.55,82.61,73.62,86.89,67.17,93.32Z"/></svg>