<svg id="Layer_1" data-name="Layer 1" xmlns="http://www.w3.org/2000/svg" width="7.06cm" height="7.06cm" viewBox="0 0 200 200"><defs><style>.cls-1{fill:#bb1f4f;}.cls-2{fill:#fff;}</style></defs><title>swheel-3</title><path class="cls-1" d="M114.61,40.56a61.72,61.72,0,1,0,42.9,76A61.71,61.71,0,0,0,114.61,40.56ZM89.69,130a31.17,31.17,0,1,1,38.39-21.66A31.18,31.18,0,0,1,89.69,130Z"/><path class="cls-2" d="M109.74,69.92a3,3,0,0,1-3.69,2h0a3,3,0,0,1-2.14-3.6L111.8,40a3,3,0,0,1,3.69-2h0a3,3,0,0,1,2.13,3.61Z"/><path class="cls-2" d="M84.8,159.46a3,3,0,0,1-3.69,2h0A3,3,0,0,1,79,157.83l7.88-28.32a3,3,0,0,1,3.69-2h0a3,3,0,0,1,2.14,3.61Z"/><path class="cls-2" d="M128.1,111.15a3,3,0,0,1-2-3.69h0a3,3,0,0,1,3.61-2.13L158,113.21a3,3,0,0,1,2,3.69h0a3,3,0,0,1-3.61,2.13Z"/><path class="cls-2" d="M38.56,86.22a3,3,0,0,1-2-3.69h0a3,3,0,0,1,3.61-2.14L68.5,88.28a3,3,0,0,1,2,3.69h0a3,3,0,0,1-3.61,2.13Z"/><path class="cls-1" d="M71,46.72c.47,1-4,3.25-4.88,3-1.45-.49-2.32-3.6-2.64-4.92-.51-2.06,0-2.43,1.86-3.44s2.06-1,3.25,1C69.4,43.8,70.27,45.25,71,46.72Z"/><path class="cls-1" d="M124.85,153.12c-.47-1,4-3.25,4.88-3,1.45.49,2.32,3.6,2.64,4.92.51,2.06,0,2.43-1.86,3.43s-2.06,1-3.25-1C126.44,156,125.57,154.59,124.85,153.12Z"/><path class="cls-1" d="M43.8,125.72c1-.46,3.25,4,3,4.88-.49,1.45-3.6,2.32-4.92,2.64-2.06.5-2.43,0-3.44-1.86s-1-2.06,1-3.24C40.87,127.31,42.33,126.44,43.8,125.72Z"/><path class="cls-1" d="M150.6,72.73c-1,.46-3.25-4-3-4.88.49-1.45,3.6-2.32,4.93-2.64,2.06-.5,2.42,0,3.43,1.86s1,2.06-1,3.24C153.53,71.14,152.08,72,150.6,72.73Z"/></svg>