<svg id="Layer_1" data-name="Layer 1" xmlns="http://www.w3.org/2000/svg" width="7.06cm" height="7.06cm" viewBox="0 0 200 200"><defs><style>.cls-1{fill:#f4e767;}.cls-2{fill:#45b972;}.cls-3{fill:#8bd05b;}.cls-4{fill:#fff;}.cls-5{fill:none;stroke:#000;stroke-linecap:round;stroke-linejoin:round;stroke-width:2.72px;}</style></defs><title>turtle_04</title><path class="cls-1" d="M111.59,114.41c17.84,2.87,35.7,3,52.7,9.85a23.22,23.22,0,0,1,5.34,3.44,25.37,25.37,0,0,0,3.89,2.14c1.21.62,6.55,2.72,5.67,4.75s-4.18,2.26-6,2.17c-2.59-.14-5.21.13-7.83.2a54.31,54.31,0,0,1-8.63-.33c-11.54-1.56-22.95-3.34-34.31-5.9-3.2-.72-6.39-1.46-9.59-2.2-7.53-1.75-15.08-4.14-21.32-8.87-2.87-2.18-6.26-5.08-1.65-7.15,5.24-2.35,16.35,1,21.73,1.89"/><path class="cls-1" d="M161.58,152.4c-8-3.72-20.24-12.2-18.27-20.06,2.13-8.5,15-6.9,20.28-2.87,2.52,1.92,2.54,4.33,3.31,7.18a20.47,20.47,0,0,0,4,7.83c1.57,1.95,4.75,3.9,5.06,6.62.54,4.78-7.7,3.73-10.74,2.75a32.83,32.83,0,0,1-3.61-1.45"/><path class="cls-1" d="M111.82,145.4c-7.42-4.76-18.4-14.82-15.38-22.34,3.26-8.13,15.78-4.81,20.48-.1,2.24,2.24,1.94,4.64,2.31,7.57a20.4,20.4,0,0,0,2.88,8.28c1.29,2.15,4.17,4.51,4.11,7.25-.12,4.81-8.13,2.65-11,1.27a32.6,32.6,0,0,1-3.39-1.93"/><path class="cls-1" d="M85.26,91c.55.64-13.19,12.53-14.24,13.45-2.27,2-4.94,3.53-6.86,5.86,7.94,8.89,22.68,14.43,34.74,11.41,8.26-2.07,18.32-10.56,11.31-19.37-4.79,1.74-9.14,2.66-14.14.81-6-2.24-7-7.75-10.81-12.17"/><path class="cls-1" d="M101.11,80.91c.12,6.89-1.78,12.88-4.95,19C92.48,107,85.49,112,77.92,114.18c-9.95,2.88-21.12,3-30.2-2.48a43.92,43.92,0,0,1-9.11-7.22c-11.21-12-10.69-29.53-3.07-43.29.18-.32.36-.63.56-.95C45.7,44.39,70.52,38.1,85.82,48.69c9.71,6.72,15.08,19.55,15.29,32.23"/><path class="cls-2" d="M98.81,109.25s4.86-37.62,41.25-30.55c0,0,36.44,4.37,26.78,44.77Z"/><path class="cls-3" d="M169.27,130.23a3.05,3.05,0,0,1-3.62,2.37L95.18,117.95a3.06,3.06,0,0,1-2.37-3.61l.87-4.19a3.06,3.06,0,0,1,3.61-2.37l70.48,14.65a3.05,3.05,0,0,1,2.37,3.61Z"/><path class="cls-3" d="M141.88,97.54a4.23,4.23,0,0,0-1-.6c-3.19-1.47-7.21,2-5.26,5.24,3.48,5.7,9.81-1.57,6.21-4.64"/><path class="cls-3" d="M158.85,95.84A9,9,0,0,0,157,94.72c-6.06-2.83-13.26,2.88-9.32,8.6,7,10.19,18.13-1.83,11.16-7.48"/><path class="cls-3" d="M146.37,85a5.48,5.48,0,0,0-1.08-.67c-3.6-1.68-7.86,1.7-5.53,5.1,4.15,6,10.75-1.09,6.62-4.43"/><path class="cls-3" d="M133.4,86.28a4.76,4.76,0,0,0-1-.59c-3.18-1.48-7,1.51-4.89,4.51,3.67,5.35,9.51-1,5.85-3.92"/><path class="cls-3" d="M164.24,110.92a4.44,4.44,0,0,0-1-.59c-3.18-1.49-7,1.51-4.89,4.51,3.67,5.35,9.51-1,5.85-3.92"/><path class="cls-1" d="M85.82,48.69S46.27,22.41,19.64,87c-8.23,20,32.6,33.59,46.44,23.05Z"/><path class="cls-4" d="M67,96.89a12.85,12.85,0,1,0-15.57-9.35A12.84,12.84,0,0,0,67,96.89"/><path d="M68.8,90.54a9.88,9.88,0,1,0-12.88-5.43A9.88,9.88,0,0,0,68.8,90.54"/><path class="cls-4" d="M63.26,86.07a2.7,2.7,0,1,0-3.64,1.16,2.7,2.7,0,0,0,3.64-1.16"/><path class="cls-5" d="M67.52,104.05a3.28,3.28,0,0,0,.28-.35c.57,4.1-3.64,7.85-8.56,5.73"/><path d="M66.76,101.8a3.16,3.16,0,0,1,1.59.07c1.45.35,3.24,1.06,1.65,2.73-2.24,2.34-5.39-2.16-3.24-2.79"/></svg>