<svg id="Layer_1" data-name="Layer 1" xmlns="http://www.w3.org/2000/svg" width="7.06cm" height="7.06cm" viewBox="0 0 200 200"><defs><style>.cls-1{fill:#a3d783;}.cls-2{fill:#e70095;}.cls-3{fill:#fd92a3;}.cls-4{fill:#fff;}.cls-5{fill:#7c6755;}.cls-6{fill:none;stroke:#7c6755;stroke-linecap:round;stroke-linejoin:round;stroke-width:2.36px;}</style></defs><title>turtle_c_01</title><path class="cls-1" d="M96.5,122.38c-18.3,5.31-37,7.78-53.88,17.12a24.36,24.36,0,0,0-5.14,4.28,26.67,26.67,0,0,1-3.79,2.74c-1.19.8-6.5,3.69-5.32,5.71s4.66,1.83,6.56,1.49c2.7-.48,5.47-.54,8.22-.8a57.08,57.08,0,0,0,9-1.45C64,148.35,75.72,145,87.28,140.86c3.25-1.16,6.5-2.35,9.75-3.53,7.66-2.8,15.25-6.29,21.17-12,2.72-2.65,5.9-6.13.8-7.7-5.78-1.78-17,3.19-22.49,4.79"/><path class="cls-1" d="M49.09,168.59c7.89-4.92,19.6-15.38,16.52-23.35C62.29,136.62,49,140,44,144.85c-2.39,2.33-2.1,4.86-2.54,7.94a21.59,21.59,0,0,1-3.14,8.7c-1.39,2.24-4.47,4.7-4.44,7.58.06,5.08,8.54,2.91,11.6,1.49a33.38,33.38,0,0,0,3.59-2"/><path class="cls-1" d="M100.26,154.83c7.15-5.94,17.34-17.89,13.21-25.37-4.46-8.09-17.13-3-21.45,2.54-2.05,2.63-1.43,5.1-1.44,8.22a21.56,21.56,0,0,1-1.94,9c-1.08,2.41-3.79,5.26-3.37,8.12.74,5,8.85,1.73,11.69-.09a34.48,34.48,0,0,0,3.29-2.45"/><path class="cls-1" d="M112.06,94.61c-.21.86,18.37,5.55,19.79,5.92,3.09.81,6.33,1,9.25,2.27-3.27,12.13-14.53,24.34-27.31,27.21-8.76,2-22.26-1.26-19.84-12.89,5.34-.63,9.87-1.82,13.7-5.93,4.63-5,2.95-10.64,4.42-16.59"/><path class="cls-2" d="M109.21,115.33S99.26,76.59,62.1,88.68c0,0-37.56,9.28-22.24,50.31Z"/><path class="cls-3" d="M38.18,146.38a3.22,3.22,0,0,0,4.09,2L114.13,124a3.23,3.23,0,0,0,2-4.08l-1.45-4.27a3.22,3.22,0,0,0-4.08-2L38.74,138a3.22,3.22,0,0,0-2,4.08Z"/><path class="cls-1" d="M166.4,92.74c-3.86,6.15-9,10.35-15.29,13.9-7.35,4.15-16.4,4.55-24.36,2.12-10.45-3.18-20.38-9.51-25.24-19.58a46.07,46.07,0,0,1-3.89-11.62c-3-17.06,7.56-32.25,22.22-40q.51-.28,1-.52c17.61-8.46,43.15.28,50.57,18.44,4.71,11.53,2.06,25.94-5.05,37.27"/><path class="cls-1" d="M171.46,55.47s-19.8-46-80.55-4.24c-18.78,12.9,9.44,48.44,27.74,47.1Z"/><path class="cls-4" d="M143.47,53.75a15.63,15.63,0,1,0,17.72,13.19,15.62,15.62,0,0,0-17.72-13.19"/><path class="cls-5" d="M154.75,58.68a12,12,0,1,0-3.55,16.61,12,12,0,0,0,3.55-16.61"/><path class="cls-4" d="M150.67,66.31a3.28,3.28,0,1,0,2.21,4.08,3.28,3.28,0,0,0-2.21-4.08"/><path class="cls-6" d="M136.8,94.45a3.78,3.78,0,0,0,.51-.17c-2.09,4.45-8.7,5.43-12.22.15"/><path class="cls-5" d="M137.49,91.72a3.75,3.75,0,0,1,1.54,1.1c1.23,1.29,2.54,3.15-.13,3.77-3.74.88-4-5.64-1.41-4.87"/></svg>