<svg id="Layer_1" data-name="Layer 1" xmlns="http://www.w3.org/2000/svg" width="7.06cm" height="7.06cm" viewBox="0 0 200 200"><defs><style>.cls-1{fill:#8bd05b;}.cls-2{fill:#aedbfb;}.cls-3{fill:#47acf5;}.cls-4{fill:#fff;}</style></defs><title>turtle_b_02</title><path class="cls-1" d="M111.61,108.1c17.87,2.74,35.74,2.77,52.8,9.47a23.1,23.1,0,0,1,5.36,3.4,25.11,25.11,0,0,0,3.9,2.11c1.22.61,6.57,2.68,5.71,4.71s-4.16,2.3-6,2.22c-2.59-.12-5.21.16-7.83.25a54,54,0,0,1-8.63-.26c-11.56-1.47-23-3.18-34.37-5.65-3.2-.69-6.41-1.42-9.6-2.12-7.55-1.7-15.12-4-21.4-8.73-2.89-2.16-6.3-5-1.7-7.14,5.22-2.39,16.37.91,21.75,1.73"/><path class="cls-1" d="M161.91,145.74c-8-3.66-20.33-12.05-18.42-19.93,2.07-8.52,14.94-7,20.27-3,2.54,1.89,2.57,4.32,3.37,7.16a20.5,20.5,0,0,0,4,7.8c1.59,1.94,4.78,3.87,5.11,6.58.57,4.78-7.67,3.79-10.73,2.83a31.53,31.53,0,0,1-3.63-1.42"/><path class="cls-1" d="M112.07,139.09c-7.46-4.71-18.52-14.69-15.56-22.24,3.2-8.16,15.75-4.92,20.49-.25,2.26,2.22,2,4.63,2.37,7.55a20.48,20.48,0,0,0,2.94,8.27c1.31,2.14,4.21,4.49,4.16,7.22-.08,4.82-8.11,2.72-11,1.35a33.29,33.29,0,0,1-3.4-1.9"/><path class="cls-1" d="M84.75,85.67c.55.63-13.11,12.63-14.15,13.56-2.26,2-4.92,3.57-6.82,5.92,8,8.83,22.8,14.27,34.84,11.17,8.25-2.14,18.25-10.7,11.18-19.47-4.78,1.77-9.13,2.73-14.14.92-6.06-2.2-7.09-7.71-10.9-12.09"/><path class="cls-2" d="M98.79,103s4.59-37.67,41-30.86c0,0,36.48,4.11,27.12,44.6Z"/><path class="cls-3" d="M169.44,123.5a3.06,3.06,0,0,1-3.6,2.39L95.22,111.75a3.06,3.06,0,0,1-2.4-3.59l.84-4.19a3.06,3.06,0,0,1,3.6-2.39l70.62,14.14a3,3,0,0,1,2.39,3.59Z"/><path class="cls-3" d="M141.79,91a4.22,4.22,0,0,0-1-.59c-3.19-1.45-7.2,2.08-5.22,5.27,3.52,5.68,9.8-1.63,6.18-4.68"/><path class="cls-3" d="M158.76,89.17a9,9,0,0,0-1.84-1.11c-6.09-2.79-13.24,3-9.26,8.68,7.07,10.15,18.12-2,11.1-7.56"/><path class="cls-3" d="M146.2,78.41a5.44,5.44,0,0,0-1.09-.66c-3.61-1.65-7.85,1.77-5.49,5.14,4.19,6,10.75-1.16,6.58-4.48"/><path class="cls-3" d="M133.23,79.79a4.81,4.81,0,0,0-1-.58c-3.19-1.46-6.94,1.56-4.86,4.55,3.72,5.32,9.51-1,5.83-4"/><path class="cls-3" d="M164.26,104.22a4.51,4.51,0,0,0-1-.58c-3.19-1.47-6.94,1.56-4.86,4.54,3.71,5.32,9.51-1,5.83-4"/><path class="cls-1" d="M87.42,70.78c3.62,5.87,5,12,5.41,18.85.45,8-3,15.87-8.42,21.62-7.09,7.56-16.64,13.35-27.25,13.27a43.91,43.91,0,0,1-11.53-1.57c-15.77-4.61-24.27-20-24.72-35.7,0-.37,0-.73,0-1.1.19-18.54,18.35-36.61,36.92-35.3,11.78.83,22.94,9.13,29.59,19.94"/><path class="cls-1" d="M57.83,50.84s-47.44-2.45-37.41,66.77c3.1,21.39,45.19,12.29,51.73-3.84Z"/><path class="cls-4" d="M66.19,101.94A12.85,12.85,0,1,0,48,101.82a12.85,12.85,0,0,0,18.17.11"/><path d="M54.65,99a9.89,9.89,0,1,0-5.74-12.74A9.87,9.87,0,0,0,54.65,99"/><path class="cls-4" d="M57.59,96.71a2.7,2.7,0,1,0-3.45-1.63,2.7,2.7,0,0,0,3.45,1.63"/><path d="M65.92,118a1.36,1.36,0,0,1-.17-2.71,4.91,4.91,0,0,0,4.13-2.93,4.23,4.23,0,0,0,0-3.27,1.39,1.39,0,0,1-.9-1.39,2.58,2.58,0,0,1,0-.33s0,0,0,0a1.36,1.36,0,0,1,2.42-.84,6.9,6.9,0,0,1,1,6.89,7.66,7.66,0,0,1-6.3,4.6ZM69,107.45h0Z"/><path d="M68.5,106.28a3.12,3.12,0,0,1,1.41-.76c1.43-.45,3.33-.74,2.81,1.51-.73,3.15-5.74.9-4.21-.75"/></svg>