<svg id="Layer_1" data-name="Layer 1" xmlns="http://www.w3.org/2000/svg" width="7.06cm" height="7.06cm" viewBox="0 0 200 200"><defs><style>.cls-1{fill:#45b972;}.cls-2{fill:#aaa9a9;}.cls-3{fill:#ffe284;}.cls-4{fill:#fff;}.cls-5{fill:none;stroke:#000;stroke-linecap:round;stroke-linejoin:round;stroke-width:2.32px;}</style></defs><title>turtle_d_03</title><path class="cls-1" d="M118.4,117.38c20.28,5.88,41,8.61,59.69,19a27,27,0,0,1,5.69,4.75,29.63,29.63,0,0,0,4.2,3c1.31.89,7.2,4.09,5.9,6.32s-5.17,2-7.27,1.66c-3-.53-6.06-.6-9.1-.89a63.3,63.3,0,0,1-10-1.61c-13.16-3.45-26.12-7.16-38.94-11.75-3.61-1.29-7.2-2.61-10.8-3.92-8.48-3.11-16.89-7-23.45-13.34-3-2.94-6.53-6.79-.89-8.53,6.4-2,18.81,3.54,24.92,5.3"/><path class="cls-1" d="M170.92,168.57c-8.74-5.45-21.71-17-18.31-25.87,3.69-9.55,18.36-5.86,23.93-.43,2.65,2.58,2.33,5.39,2.81,8.8a23.91,23.91,0,0,0,3.48,9.64c1.54,2.49,4.95,5.2,4.91,8.4-.06,5.62-9.46,3.22-12.85,1.65a37.1,37.1,0,0,1-4-2.2"/><path class="cls-1" d="M114.23,153.33c-7.92-6.58-19.21-19.82-14.64-28.1,4.94-9,19-3.31,23.76,2.81,2.28,2.92,1.59,5.65,1.6,9.11a23.88,23.88,0,0,0,2.15,10c1.19,2.67,4.19,5.83,3.73,9-.82,5.56-9.8,1.91-13-.1a38.07,38.07,0,0,1-3.65-2.72"/><path class="cls-1" d="M87.81,86.38c.54.81-17.09,12.64-18.43,13.56-2.92,2-6.24,3.38-8.79,5.82,7.93,11.44,24.23,20,38.64,18.2,9.87-1.22,22.75-9.62,15.89-20.84-5.8,1.33-11,1.78-16.5-1.08-6.68-3.46-7-10-10.79-15.65"/><path class="cls-2" d="M104.32,109.57s11-42.92,52.19-29.52c0,0,41.61,10.28,24.64,55.73Z"/><path class="cls-3" d="M183,144a3.57,3.57,0,0,1-4.53,2.23L98.87,119.12a3.57,3.57,0,0,1-2.23-4.52l1.61-4.73a3.57,3.57,0,0,1,4.53-2.22l79.62,27.07a3.56,3.56,0,0,1,2.23,4.52Z"/><path class="cls-3" d="M155.92,102.15a5,5,0,0,0-1-.83c-3.48-2.16-8.65,1.32-6.85,5.31,3.22,7.11,11.6-.41,7.87-4.48"/><path class="cls-3" d="M175.84,102.61a10.37,10.37,0,0,0-2-1.57c-6.62-4.15-15.78,1.44-12,8.64,6.66,12.82,21.28.47,14-7.07"/><path class="cls-3" d="M162.93,88.25a6.4,6.4,0,0,0-1.16-.93c-3.93-2.46-9.35.85-7.14,5.12,3.95,7.6,12.62.28,8.3-4.19"/><path class="cls-3" d="M147.7,87.89a5.56,5.56,0,0,0-1-.82c-3.47-2.18-8.27.75-6.32,4.53,3.5,6.72,11.17.24,7.35-3.71"/><path class="cls-3" d="M179.93,120.87a5.35,5.35,0,0,0-1-.82c-3.47-2.18-8.28.75-6.31,4.53,3.49,6.72,11.16.25,7.35-3.71"/><path class="cls-1" d="M93.16,69.56c3.3,7.34,4,14.66,3.41,22.64-.69,9.32-5.89,17.91-13,23.75-9.36,7.67-21.29,12.94-33.56,11.23a51.07,51.07,0,0,1-13.11-3.56c-17.56-7.72-25.07-26.79-23.21-45.07,0-.43.09-.85.16-1.28,3-21.43,26.78-39.6,48.08-35.27,13.51,2.75,25.17,14,31.24,27.56"/><path class="cls-1" d="M61.92,42S7.36,32,8.5,113.62C8.85,138.86,58.95,134.69,69,117Z"/><path class="cls-4" d="M63.86,102.41a15,15,0,1,0-21-2.88,15,15,0,0,0,21,2.88"/><path d="M52.09,103.5a11.55,11.55,0,1,0-4.71-15.62,11.53,11.53,0,0,0,4.71,15.62"/><path class="cls-4" d="M52,95.19a3.15,3.15,0,1,0-3.75-2.41A3.15,3.15,0,0,0,52,95.19"/><path class="cls-5" d="M67.74,109.85a3.78,3.78,0,0,0,.14-.51c2.5,4.14-.3,10.1-6.55,10.09"/><path d="M65.88,107.79a3.67,3.67,0,0,1,1.74-.67c1.72-.3,4-.35,3,2.17-1.32,3.54-6.78.17-4.76-1.5"/></svg>