<svg id="Layer_1" data-name="Layer 1" xmlns="http://www.w3.org/2000/svg" xmlns:xlink="http://www.w3.org/1999/xlink" width="7.06cm" height="7.06cm" viewBox="0 0 200 200"><defs><style>.cls-1{fill:#ff6e73;}.cls-2{fill:#d6d6d6;}.cls-3{fill:#fff;}.cls-4{fill:#a8a8a8;}.cls-5{clip-path:url(#clip-path);}.cls-6{fill:#ff4148;}</style><clipPath id="clip-path"><path class="cls-1" d="M135.8,43c9.19,5.81,7.21,16.3,4.39,24.18-1.32,3.71-1.61,6.34-5.68,5.5-6.14-1.27-12.19-6.7-17.68-9.39-7-3.42-18.36-6.27-22.79-13,9.48-11.8,20.24-20.93,41.76-7.31"/></clipPath></defs><title>whale_02</title><path class="cls-2" d="M157.92,145.89C170.87,136.8,178,123,175.5,107.12c-.13-.87-.68-4.95-1.45-5.41-.95-.58-9.41,2.44-9.41,2.44.63,3.37,1.83,7.32.25,10.58-1.85,3.8-6.62,5.78-10.64,5.73-7.89-.09-15.07-5.68-17.6-13.05-3-8.76-3.18-18.44-7.34-26.84C125.06,72,115.84,66.9,107.15,63.69,96.09,59.61,84.71,56.28,73,54.92c-11.54-1.35-24.17-1-32.22,8.24-7.22,8.3-10.36,19.71-13.71,30-7.57,23.19-.4,35.31,19.62,47.78,29.78,18.57,67.58,25.74,100.22,11.2a66.75,66.75,0,0,0,11-6.21"/><path class="cls-3" d="M88.13,94.29c-7.48-10.95-24.59,1.16-17.3,11.82a10.52,10.52,0,0,0,6.88,4.42,9,9,0,0,0,4.1-.11c6.67-2.22,10.68-9.76,6.32-16.13"/><path d="M87.74,97.34c-1.14,8.34-14.29,6.33-13.19-1.8a6.73,6.73,0,0,1,2.65-4.47A5.78,5.78,0,0,1,79.56,90c4.42-.63,8.84,2.51,8.18,7.38"/><path class="cls-3" d="M81.19,99.15a1.86,1.86,0,1,1-1.6-2.09,1.86,1.86,0,0,1,1.6,2.09"/><path class="cls-4" d="M75.29,62.5c-.27,1.06,1.6,2.44,4.16,3.08s4.85.32,5.12-.74-1.6-2.44-4.16-3.08-4.85-.32-5.12.74"/><path class="cls-1" d="M68.48,113.13c1.36,0,5.51,3.61,6.16,4.7,1.75,2.92-2,2.87-4.52,2.88-3.69,0-5-7.53-1.64-7.58"/><path class="cls-1" d="M57.46,127.2c-8.19,0-17.6-5.8-26.73-11.43-2.51-1.55-4.88-3-7.19-4.33a1.36,1.36,0,1,1,1.35-2.36c2.35,1.34,4.74,2.82,7.27,4.38,9.62,5.93,20.53,12.66,28.42,10.66,3.17-.81,5.71-2.94,7.76-6.53a1.36,1.36,0,0,1,2.36,1.35c-2.41,4.2-5.59,6.83-9.45,7.81A15.3,15.3,0,0,1,57.46,127.2Z"/><path class="cls-1" d="M143.05,87a.66.66,0,0,0-.21.71,29.25,29.25,0,0,0,1.34,4.11c.42,1.21.78,2.2.85,2.39a22.34,22.34,0,0,0,8.49,9.89c5.49,3.7,12.74,5.38,19,2.58a18.77,18.77,0,0,0,4.59-3,20,20,0,0,0,3.05-3.34,22.49,22.49,0,0,0,4.61-13,12.16,12.16,0,0,0-1.6-6.23,16,16,0,0,0-2.36-2.52c-.82-.88-1.49-1.14-2.5-.27-1.57,1.35-2.62,3.19-3.93,4.77a43.2,43.2,0,0,0-3.4,4.59,25.91,25.91,0,0,0-2.51,5.15,27.59,27.59,0,0,0-.88,3c-.14.59-.88,2.75-.58,3.26a20.63,20.63,0,0,0-5.21-5.37,35.6,35.6,0,0,0-13.67-6.26c-.69-.17-4.17-1.28-5.12-.54"/><path class="cls-1" d="M90.36,158.22a12,12,0,0,1-.07,8c-.29.73-.61,1.41-1,2.09s-.49.91-1.37.63c-4.34-1.35-8.75-5.49-9.93-10.1-.91-3.58-1.12-9.55,3.43-9.74,2.73-.11,5.27,2.62,6.79,4.83a16.2,16.2,0,0,1,2.09,4.23"/><path class="cls-1" d="M115.93,77.89C110,74.74,104.34,71.2,98.49,68c-4.62-2.51-9.28-3.76-10.42-9.37-.73-3.58-.69-8.89,1.2-12.17,1.71-3,6.56-.06,8.57,1,4.16,2.22,8.35,4.24,12.6,6.32,5.82,2.86,11.85,5.35,17.47,8.44,4.58,2.53,9.15,5.31,13.86,7.57,2.94,1.41,3.6,2.41,1.53,5.13-2.78,3.67-7.4,9.63-12.47,9.54s-10.55-4.29-14.9-6.62"/><path class="cls-3" d="M135.8,43c9.19,5.81,7.21,16.3,4.39,24.18-1.32,3.71-1.61,6.34-5.68,5.5-6.14-1.27-12.19-6.7-17.68-9.39-7-3.42-18.36-6.27-22.79-13,9.48-11.8,20.24-20.93,41.76-7.31"/><path class="cls-1" d="M135.8,43c9.19,5.81,7.21,16.3,4.39,24.18-1.32,3.71-1.61,6.34-5.68,5.5-6.14-1.27-12.19-6.7-17.68-9.39-7-3.42-18.36-6.27-22.79-13,9.48-11.8,20.24-20.93,41.76-7.31"/><g class="cls-5"><rect class="cls-6" x="118.2" y="21.61" width="4.11" height="64.08" transform="translate(19.67 138.63) rotate(-64.24)"/><rect class="cls-6" x="122.02" y="15.33" width="4.11" height="64.08" transform="translate(27.49 138.52) rotate(-64.24)"/></g></svg>