<svg id="Layer_1" data-name="Layer 1" xmlns="http://www.w3.org/2000/svg" xmlns:xlink="http://www.w3.org/1999/xlink" width="7.06cm" height="7.06cm" viewBox="0 0 200 200"><defs><style>.cls-1{fill:#bfffff;}.cls-2{fill:#9e9e9e;}.cls-3{fill:#fff;}.cls-4{fill:#f1eded;}.cls-5{fill:none;stroke:#000;stroke-linecap:round;stroke-linejoin:round;stroke-width:2.72px;}.cls-6{fill:#41ffff;}.cls-7{clip-path:url(#clip-path);}.cls-8{fill:#004473;}</style><clipPath id="clip-path"><path class="cls-1" d="M135.18,43c9.19,5.81,7.21,16.3,4.39,24.18-1.32,3.71-1.61,6.34-5.68,5.5-6.14-1.27-12.19-6.7-17.68-9.39-7-3.42-18.36-6.27-22.79-13,9.48-11.8,20.24-20.93,41.76-7.31"/></clipPath></defs><title>whale_03</title><path class="cls-2" d="M157.3,145.89c12.95-9.09,20.1-22.91,17.58-38.77-.13-.87-.68-4.95-1.45-5.41-.95-.58-9.41,2.44-9.41,2.44.63,3.37,1.83,7.32.25,10.58-1.85,3.8-6.62,5.78-10.64,5.73-7.89-.09-15.07-5.68-17.6-13.05-3-8.76-3.18-18.44-7.34-26.84C124.44,72,115.22,66.9,106.53,63.69c-11.06-4.08-22.44-7.41-34.18-8.77-11.54-1.35-24.17-1-32.22,8.24-7.22,8.3-10.36,19.71-13.71,30C18.85,116.31,26,128.43,46,140.9c29.78,18.57,67.58,25.74,100.22,11.2a66.75,66.75,0,0,0,11-6.21"/><path class="cls-3" d="M87.52,94.29C80,83.34,62.93,95.44,70.21,106.1a10.52,10.52,0,0,0,6.88,4.42,9,9,0,0,0,4.1-.11c6.67-2.22,10.68-9.76,6.32-16.13"/><path d="M87.12,97.34c-1.14,8.34-14.29,6.33-13.19-1.8a6.73,6.73,0,0,1,2.65-4.47A5.78,5.78,0,0,1,78.95,90c4.42-.63,8.84,2.51,8.18,7.38"/><path class="cls-3" d="M80.58,99.15A1.86,1.86,0,1,1,79,97.06a1.86,1.86,0,0,1,1.6,2.09"/><path class="cls-4" d="M74.68,62.5c-.27,1.06,1.6,2.44,4.16,3.08s4.85.32,5.12-.74-1.6-2.44-4.16-3.08-4.85-.32-5.12.74"/><path d="M67.86,113.13c1.36,0,5.51,3.61,6.16,4.7,1.75,2.92-2,2.87-4.52,2.88-3.69,0-5-7.53-1.64-7.58"/><path class="cls-5" d="M23.59,110.25c15.64,8.93,35.44,25.23,45.3,8"/><path class="cls-2" d="M142.44,87a.66.66,0,0,0-.21.71,29.25,29.25,0,0,0,1.34,4.11c.42,1.21.78,2.2.85,2.39a22.34,22.34,0,0,0,8.49,9.89c5.49,3.7,12.74,5.38,19,2.58a18.77,18.77,0,0,0,4.59-3,20,20,0,0,0,3.05-3.34,22.49,22.49,0,0,0,4.61-13,12.16,12.16,0,0,0-1.6-6.23,16,16,0,0,0-2.36-2.52c-.82-.88-1.49-1.14-2.5-.27-1.57,1.35-2.62,3.19-3.93,4.77a43.2,43.2,0,0,0-3.4,4.59,25.91,25.91,0,0,0-2.51,5.15,27.59,27.59,0,0,0-.88,3c-.14.59-.88,2.75-.58,3.26a20.63,20.63,0,0,0-5.21-5.37,35.6,35.6,0,0,0-13.67-6.26c-.69-.17-4.17-1.28-5.12-.54"/><path class="cls-4" d="M89.74,158.22a12,12,0,0,1-.07,8c-.29.73-.61,1.41-1,2.09s-.49.91-1.37.63c-4.34-1.35-8.75-5.49-9.93-10.1-.91-3.58-1.12-9.55,3.43-9.74,2.73-.11,5.27,2.62,6.79,4.83a16.2,16.2,0,0,1,2.09,4.23"/><path class="cls-6" d="M115.31,77.89c-5.89-3.15-11.59-6.68-17.44-9.85-4.62-2.51-9.28-3.76-10.42-9.37-.73-3.58-.69-8.89,1.2-12.17,1.71-3,6.56-.06,8.57,1,4.16,2.22,8.35,4.24,12.6,6.32,5.82,2.86,11.85,5.35,17.47,8.44,4.58,2.53,9.15,5.31,13.86,7.57,2.94,1.41,3.6,2.41,1.53,5.13-2.78,3.67-7.4,9.63-12.47,9.54s-10.55-4.29-14.9-6.62"/><path class="cls-1" d="M135.18,43c9.19,5.81,7.21,16.3,4.39,24.18-1.32,3.71-1.61,6.34-5.68,5.5-6.14-1.27-12.19-6.7-17.68-9.39-7-3.42-18.36-6.27-22.79-13,9.48-11.8,20.24-20.93,41.76-7.31"/><g class="cls-7"><rect class="cls-8" x="117.58" y="21.61" width="4.11" height="64.08" transform="translate(19.32 138.08) rotate(-64.24)"/><rect class="cls-8" x="121.4" y="15.33" width="4.11" height="64.08" transform="translate(27.14 137.97) rotate(-64.24)"/></g></svg>