<svg id="Layer_1" data-name="Layer 1" xmlns="http://www.w3.org/2000/svg" width="7.06cm" height="7.06cm" viewBox="0 0 200 200"><defs><style>.cls-1{fill:#fff;}.cls-2{fill:#b6b7b6;}.cls-3{fill:none;stroke:#000;stroke-linecap:round;stroke-linejoin:round;stroke-width:1.52px;}.cls-4{fill:#fed547;}</style></defs><title>whale_b_04</title><path class="cls-1" d="M152.49,27.55a3.94,3.94,0,0,1,1.09,0c3.36.42,4.87,5.35,1.64,7-5.76,2.9-7.24-6.28-2.73-7"/><path class="cls-1" d="M41.55,153.13a5.23,5.23,0,0,1,1.42,0c4.39.55,6.37,7,2.14,9.1-7.53,3.79-9.46-8.21-3.57-9.1"/><path class="cls-2" d="M108.2,115a9.34,9.34,0,0,1,4.31,4.59,17.6,17.6,0,0,1,.59,1.7c.21.69.21.78-.43,1.09a12.19,12.19,0,0,1-11.08-.34c-2.44-1.53-5.8-4.79-3.32-7.37,1.48-1.53,4.4-1.37,6.45-.93A12.86,12.86,0,0,1,108.2,115"/><path d="M40.88,104.08a59.43,59.43,0,0,1-.76-11.62c.52-15.56,8.81-27.06,20.94-36.21A66.36,66.36,0,0,1,85.45,44.14a116.19,116.19,0,0,1,27.26-4.42c8.47-.22,18.72.79,24.38,7.95,3.4,4.31,7.14,9.68,8.34,15,1.81,7.93,3.55,16.18,2.84,25-.22,2.78-6.71,3.75-10,3.75-4.3,0-25.86,0-31.33-1.83-2.39-.8,6.34,13.06,27.81,14.36,3.15.19,9.37,6-26.24,10.63-8.65,1.13-18,9.16-20.52,18.21-2,6.92,1.27,17,8.31,19.87-.91,1.36-1.24,5.11-3,5.75-1.25.46-5.87-1.36-7.21-1.77a65.4,65.4,0,0,1-30.78-21.23c-7.1-9.17-12.56-19.77-14.45-31.29"/><path class="cls-1" d="M94,86c10.1,2.37,13.58-13.66,3.74-16a8.19,8.19,0,0,0-6.3,1.08,6.94,6.94,0,0,0-2.31,2.23c-2.67,4.8-1,11.27,4.87,12.65"/><path d="M92.36,84.34c-3.75-5.41,4.91-11.2,8.56-5.93a5.28,5.28,0,0,1,.83,4,4.51,4.51,0,0,1-.78,1.89c-2.22,2.69-6.43,3.22-8.61.06"/><path class="cls-1" d="M95.18,79.84a1.46,1.46,0,1,1,2,.37,1.46,1.46,0,0,1-2-.37"/><path d="M94.64,49.79c.25.81,2.06,1,4,.37s3.37-1.77,3.12-2.58-2.06-1-4-.37S94.39,49,94.64,49.79"/><path d="M107.52,86.68c-1-.14-4.61,2.3-5.22,3.09-1.63,2.11,1.29,2.42,3.25,2.66,2.87.34,4.54-5.39,2-5.74"/><path class="cls-3" d="M148.14,88.17c-12.76,4.55-28.47,3.28-41.19,1.39"/><path class="cls-2" d="M117.33,145.87a.52.52,0,0,0-.36-.45,22.57,22.57,0,0,0-3.25-1c-1-.26-1.77-.47-1.92-.5a17.43,17.43,0,0,0-10.13,1.12C96.84,147,92.56,151,91.6,156.26a15,15,0,0,0-.11,4.28,15.75,15.75,0,0,0,.82,3.45,17.54,17.54,0,0,0,6.34,8.68,9.46,9.46,0,0,0,4.73,1.72,12.25,12.25,0,0,0,2.67-.42c.93-.14,1.39-.45,1.28-1.49a28.71,28.71,0,0,0-1.35-4.65,32.25,32.25,0,0,0-1.47-4.23,20.06,20.06,0,0,0-2.21-3.88,21.18,21.18,0,0,0-1.58-1.9c-.32-.35-1.39-1.78-1.85-1.81a16.41,16.41,0,0,0,5.77-1,27.91,27.91,0,0,0,10.07-6.08c.41-.38,2.67-2.13,2.61-3.07"/><path class="cls-1" d="M87.53,48.21a52.35,52.35,0,0,1-4.44,3.61,46.7,46.7,0,0,1-8,4.76c-2,.91-4,2.22-6.21,2.61-2.41.41-4.72-.89-6.8-2A55.79,55.79,0,0,1,53.18,52c-1.84-1.42-2.92-2.34-1-4.24a58.72,58.72,0,0,1,5.85-5.27c2.27-1.68,4.59-3.3,6.84-5a102.79,102.79,0,0,1,14-8.81c2.44-1.3,4.91-2.52,7.4-3.71,2.27-1.09,3.21-.62,3.87,1.81a119.88,119.88,0,0,1,2.32,13.36,6.4,6.4,0,0,1,.34,2.15c-.58,2.57-3.52,4.3-5.33,5.92"/><polygon class="cls-4" points="78.81 47.33 76.37 48.86 71.75 40.05 72.92 39.31 78.81 47.33"/><path class="cls-4" d="M71.07,37.67a.92.92,0,1,1-.29,1.26.93.93,0,0,1,.29-1.26m-.47-.75a1.81,1.81,0,1,0,2.5.58,1.81,1.81,0,0,0-2.5-.58"/><path class="cls-4" d="M77.32,39.95a.74.74,0,0,1,.11.5c0,.32-.3.48-.54.63l-1,.63-2.66,1.66-1.16.73-.5.29a1,1,0,0,1-.73.21.61.61,0,0,1-.48-.39,1.12,1.12,0,0,1-.1-.45.72.72,0,0,1,.38-.51c.23-.15.48-.28.72-.42l1.13-.71,2.58-1.61c.42-.26.83-.54,1.26-.78a.72.72,0,0,1,1,.23"/><path class="cls-4" d="M81.9,42a1.39,1.39,0,0,0-.52-.52c-.51-.18-.77.4-1,.75a11,11,0,0,0-.55,1.17c-.11.27-.32.69-.07.94a.69.69,0,0,0,.52.14c.09,0,.47-.07.5,0s-.06.25-.08.33a2.94,2.94,0,0,1-.14.32A6.11,6.11,0,0,1,78.91,47c-.35.27-.72.51-1.08.76l-.3.19-.31.18c-.39.21-.78.42-1.18.6a6,6,0,0,1-2.47.62l-.35,0c-.07,0-.26,0-.32-.08s.18-.37.22-.45a.78.78,0,0,0,.11-.52c-.11-.34-.58-.34-.87-.37a10.21,10.21,0,0,0-1.28-.05c-.4,0-1,0-1.11.51a1.46,1.46,0,0,0,.22.7c.21.38.46.75.7,1.11a3.2,3.2,0,0,0,.71.87c.21.14.4-.12.51-.26a2.34,2.34,0,0,0,.2-.33s0-.11.07-.15.26.09.34.13l.41.21.89.41.32.14a5.92,5.92,0,0,0,2.48.3,6.76,6.76,0,0,0,2.4-.79h0A6.8,6.8,0,0,0,81,49a5.64,5.64,0,0,0,.87-2.34c0-.12,0-.23,0-.35,0-.33,0-.66,0-1,0-.16,0-.31,0-.47s-.07-.34,0-.35h.17a2.43,2.43,0,0,0,.39,0c.18,0,.49-.08.47-.33a3.31,3.31,0,0,0-.45-1c-.21-.38-.42-.77-.66-1.13"/><path class="cls-2" d="M65.14,105.1a9.35,9.35,0,0,1-5.52-3,16.46,16.46,0,0,1-1.09-1.43c-.41-.59-.44-.67.07-1.17a12.19,12.19,0,0,1,10.64-3.11c2.8.7,7,2.76,5.44,6-.93,1.92-3.76,2.66-5.85,2.89a13,13,0,0,1-3.69-.12"/><circle class="cls-1" cx="119.08" cy="137.51" r="4.37"/><circle class="cls-1" cx="106.94" cy="135.56" r="3.16"/><circle class="cls-1" cx="97.4" cy="137.51" r="2.46"/></svg>