<svg id="Layer_1" data-name="Layer 1" xmlns="http://www.w3.org/2000/svg" width="7.06cm" height="7.06cm" viewBox="0 0 200 200"><defs><style>.cls-1{fill:#f4e767;}</style></defs><title>wheel_04</title><path class="cls-1" d="M34.24,149.1A8.27,8.27,0,1,1,45.73,147a8.27,8.27,0,0,1-11.5,2.11"/><path class="cls-1" d="M34.24,54.67a8.27,8.27,0,1,0,11.5,2.11,8.27,8.27,0,0,0-11.5-2.11"/><path class="cls-1" d="M107.63,173.06a8.27,8.27,0,1,1-8.27-8.27,8.27,8.27,0,0,1,8.27,8.27"/><path class="cls-1" d="M99.73,60.77a40.91,40.91,0,1,1-40.9,40.9,41,41,0,0,1,40.9-40.9m0-12.82a53.72,53.72,0,1,0,53.72,53.72A53.72,53.72,0,0,0,99.73,48"/><rect class="cls-1" x="96.02" y="32.32" width="6.68" height="57.24"/><path class="cls-1" d="M107.63,30.73a8.27,8.27,0,1,1-8.27-8.26,8.27,8.27,0,0,1,8.27,8.26"/><rect class="cls-1" x="96.03" y="114.21" width="6.68" height="57.24"/><path class="cls-1" d="M91.1,173a8.27,8.27,0,1,1,8.27,8.27A8.27,8.27,0,0,1,91.1,173"/><rect class="cls-1" x="129.72" y="96.52" width="6.68" height="57.24" transform="translate(-45.52 163.52) rotate(-55.37)"/><path class="cls-1" d="M153.23,149.1a8.27,8.27,0,1,1,11.5-2.11,8.27,8.27,0,0,1-11.5,2.11"/><rect class="cls-1" x="62.33" y="50.01" width="6.68" height="57.24" transform="matrix(0.57, -0.82, 0.82, 0.57, -36.35, 88.02)"/><path class="cls-1" d="M45.5,54.67A8.27,8.27,0,1,1,34,56.78,8.27,8.27,0,0,1,45.5,54.67"/><rect class="cls-1" x="37.05" y="121.8" width="57.24" height="6.68" transform="translate(-59.46 59.46) rotate(-34.62)"/><path class="cls-1" d="M45.5,149.1A8.27,8.27,0,1,0,34,147a8.27,8.27,0,0,0,11.5,2.11"/><rect class="cls-1" x="104.44" y="75.29" width="57.24" height="6.68" transform="translate(-21.11 89.52) rotate(-34.62)"/><path class="cls-1" d="M153.23,54.67a8.27,8.27,0,1,0,11.5,2.11,8.27,8.27,0,0,0-11.5-2.11"/><path class="cls-1" d="M114.36,101.67A14.63,14.63,0,1,1,99.73,87a14.63,14.63,0,0,1,14.63,14.62"/></svg>