<svg id="Layer_1" data-name="Layer 1" xmlns="http://www.w3.org/2000/svg" width="7.06cm" height="7.06cm" viewBox="0 0 200 200"><defs><style>.cls-1{fill:#5cb6f7;}</style></defs><title>wheel_02</title><path class="cls-1" d="M34.24,149.35a8.27,8.27,0,1,1,11.5-2.11,8.27,8.27,0,0,1-11.5,2.11"/><path class="cls-1" d="M34.24,54.92A8.27,8.27,0,1,0,45.73,57a8.27,8.27,0,0,0-11.5-2.11"/><path class="cls-1" d="M107.63,173.31A8.27,8.27,0,1,1,99.37,165a8.27,8.27,0,0,1,8.27,8.27"/><path class="cls-1" d="M99.73,61a40.91,40.91,0,1,1-40.9,40.9A41,41,0,0,1,99.73,61m0-12.82a53.72,53.72,0,1,0,53.72,53.72A53.72,53.72,0,0,0,99.73,48.2"/><rect class="cls-1" x="96.02" y="32.57" width="6.68" height="57.24"/><path class="cls-1" d="M107.63,31a8.27,8.27,0,1,1-8.27-8.26A8.27,8.27,0,0,1,107.63,31"/><rect class="cls-1" x="96.03" y="114.46" width="6.68" height="57.24"/><path class="cls-1" d="M91.1,173.29a8.27,8.27,0,1,1,8.27,8.27,8.27,8.27,0,0,1-8.27-8.27"/><rect class="cls-1" x="129.72" y="96.77" width="6.68" height="57.24" transform="translate(-45.73 163.63) rotate(-55.37)"/><path class="cls-1" d="M153.23,149.35a8.27,8.27,0,1,1,11.5-2.11,8.27,8.27,0,0,1-11.5,2.11"/><rect class="cls-1" x="62.33" y="50.26" width="6.68" height="57.24" transform="matrix(0.57, -0.82, 0.82, 0.57, -36.55, 88.13)"/><path class="cls-1" d="M45.5,54.92A8.27,8.27,0,1,1,34,57,8.27,8.27,0,0,1,45.5,54.92"/><rect class="cls-1" x="37.05" y="122.05" width="57.24" height="6.68" transform="translate(-59.61 59.5) rotate(-34.62)"/><path class="cls-1" d="M45.5,149.35A8.27,8.27,0,1,0,34,147.24a8.27,8.27,0,0,0,11.5,2.11"/><rect class="cls-1" x="104.44" y="75.54" width="57.24" height="6.68" transform="translate(-21.25 89.57) rotate(-34.62)"/><path class="cls-1" d="M153.23,54.92A8.27,8.27,0,1,0,164.73,57a8.27,8.27,0,0,0-11.5-2.11"/><path class="cls-1" d="M114.36,101.92A14.63,14.63,0,1,1,99.73,87.3a14.63,14.63,0,0,1,14.63,14.62"/></svg>