<svg id="Layer_1" data-name="Layer 1" xmlns="http://www.w3.org/2000/svg" width="7.06cm" height="7.06cm" viewBox="0 0 200 200"><defs><style>.cls-1{fill:#f2e88f;}</style></defs><title>w_04</title><path class="cls-1" d="M39.21,134.7a7.07,7.07,0,1,1,9.94-1,7.07,7.07,0,0,1-9.94,1"/><path class="cls-1" d="M45.79,54.25a7.07,7.07,0,1,0,9.65,2.6,7.07,7.07,0,0,0-9.65-2.6"/><path class="cls-1" d="M100.07,160.23a7.07,7.07,0,1,1-6.47-7.62,7.07,7.07,0,0,1,6.47,7.62"/><path class="cls-1" d="M101.16,64a35,35,0,1,1-37.7,32,35,35,0,0,1,37.7-32m.89-10.91a45.92,45.92,0,1,0,42,49.51,45.92,45.92,0,0,0-42-49.51"/><rect class="cls-1" x="76.38" y="61.28" width="48.93" height="5.71" transform="translate(28.73 159.43) rotate(-85.34)"/><path class="cls-1" d="M110,39a7.07,7.07,0,1,1-6.47-7.62A7.07,7.07,0,0,1,110,39"/><rect class="cls-1" x="70.67" y="131.04" width="48.93" height="5.71" transform="matrix(0.08, -1, 1, 0.08, -46.08, 217.79)"/><path class="cls-1" d="M86,159.06a7.07,7.07,0,1,1,6.47,7.62A7.07,7.07,0,0,1,86,159.06"/><rect class="cls-1" x="122.22" y="96.71" width="5.71" height="48.93" transform="translate(-47.92 141.2) rotate(-50.7)"/><path class="cls-1" d="M140.59,143a7.07,7.07,0,1,1,9.95-1,7.07,7.07,0,0,1-9.95,1"/><rect class="cls-1" x="68.04" y="52.39" width="5.71" height="48.93" transform="translate(-33.48 83.06) rotate(-50.71)"/><path class="cls-1" d="M55.39,55a7.07,7.07,0,1,1-9.95,1,7.07,7.07,0,0,1,9.95-1"/><rect class="cls-1" x="43.19" y="113.62" width="48.93" height="5.71" transform="translate(-49.1 49.3) rotate(-29.93)"/><path class="cls-1" d="M48.8,135.49a7.07,7.07,0,1,0-9.65-2.6,7.07,7.07,0,0,0,9.65,2.6"/><rect class="cls-1" x="103.86" y="78.7" width="48.93" height="5.71" transform="translate(-23.58 74.88) rotate(-29.92)"/><path class="cls-1" d="M147.17,62.54a7.07,7.07,0,1,0,9.65,2.6,7.06,7.06,0,0,0-9.65-2.6"/><path class="cls-1" d="M110.78,99.88A12.51,12.51,0,1,1,99.33,86.4a12.5,12.5,0,0,1,11.45,13.49"/></svg>