<svg id="Layer_1" data-name="Layer 1" xmlns="http://www.w3.org/2000/svg" width="7.06cm" height="7.06cm" viewBox="0 0 200 200"><defs><style>.cls-1{fill:#bae39d;}</style></defs><title>w_01</title><path class="cls-1" d="M39.21,134.29a7.07,7.07,0,1,1,9.94-1,7.07,7.07,0,0,1-9.94,1"/><path class="cls-1" d="M45.79,53.83a7.07,7.07,0,1,0,9.65,2.6,7.07,7.07,0,0,0-9.65-2.6"/><path class="cls-1" d="M100.07,159.81a7.07,7.07,0,1,1-6.47-7.62,7.07,7.07,0,0,1,6.47,7.62"/><path class="cls-1" d="M101.16,63.59a35,35,0,1,1-37.7,32,35,35,0,0,1,37.7-32m.89-10.91a45.92,45.92,0,1,0,42,49.51,45.92,45.92,0,0,0-42-49.51"/><rect class="cls-1" x="76.38" y="60.86" width="48.93" height="5.71" transform="translate(29.14 159.05) rotate(-85.34)"/><path class="cls-1" d="M110,38.56a7.07,7.07,0,1,1-6.47-7.62A7.07,7.07,0,0,1,110,38.56"/><rect class="cls-1" x="70.67" y="130.62" width="48.93" height="5.71" transform="translate(-45.66 217.41) rotate(-85.32)"/><path class="cls-1" d="M86,158.65a7.07,7.07,0,1,1,6.47,7.62A7.07,7.07,0,0,1,86,158.65"/><rect class="cls-1" x="122.22" y="96.29" width="5.71" height="48.93" transform="translate(-47.59 141.05) rotate(-50.7)"/><path class="cls-1" d="M140.59,142.58a7.07,7.07,0,1,1,9.95-1,7.07,7.07,0,0,1-9.95,1"/><rect class="cls-1" x="68.04" y="51.97" width="5.71" height="48.93" transform="translate(-33.16 82.91) rotate(-50.71)"/><path class="cls-1" d="M55.39,54.62a7.07,7.07,0,1,1-9.95,1,7.07,7.07,0,0,1,9.95-1"/><rect class="cls-1" x="43.19" y="113.21" width="48.93" height="5.71" transform="translate(-48.89 49.24) rotate(-29.93)"/><path class="cls-1" d="M48.8,135.07a7.07,7.07,0,1,0-9.65-2.6,7.07,7.07,0,0,0,9.65,2.6"/><rect class="cls-1" x="103.86" y="78.28" width="48.93" height="5.71" transform="translate(-23.37 74.83) rotate(-29.92)"/><path class="cls-1" d="M147.17,62.13a7.07,7.07,0,1,0,9.65,2.6,7.06,7.06,0,0,0-9.65-2.6"/><path class="cls-1" d="M110.78,99.46A12.51,12.51,0,1,1,99.33,86a12.5,12.5,0,0,1,11.45,13.49"/></svg>