<svg id="Layer_1" data-name="Layer 1" xmlns="http://www.w3.org/2000/svg" width="7.06cm" height="7.06cm" viewBox="0 0 200 200"><defs><style>.cls-1{fill:#131e3f;}</style></defs><title>w_03</title><path class="cls-1" d="M39.21,134.62a7.07,7.07,0,1,1,9.94-1,7.07,7.07,0,0,1-9.94,1"/><path class="cls-1" d="M45.79,54.17a7.07,7.07,0,1,0,9.65,2.6,7.07,7.07,0,0,0-9.65-2.6"/><path class="cls-1" d="M100.07,160.15a7.07,7.07,0,1,1-6.47-7.62,7.07,7.07,0,0,1,6.47,7.62"/><path class="cls-1" d="M101.16,63.93a35,35,0,1,1-37.7,32,35,35,0,0,1,37.7-32M102.05,53a45.92,45.92,0,1,0,42,49.51,45.92,45.92,0,0,0-42-49.51"/><rect class="cls-1" x="76.38" y="61.2" width="48.93" height="5.71" transform="translate(28.81 159.36) rotate(-85.34)"/><path class="cls-1" d="M110,38.89a7.07,7.07,0,1,1-6.47-7.62A7.07,7.07,0,0,1,110,38.89"/><rect class="cls-1" x="70.67" y="130.96" width="48.93" height="5.71" transform="translate(-45.99 217.72) rotate(-85.32)"/><path class="cls-1" d="M86,159a7.07,7.07,0,1,1,6.47,7.62A7.07,7.07,0,0,1,86,159"/><rect class="cls-1" x="122.22" y="96.63" width="5.71" height="48.93" transform="translate(-47.85 141.17) rotate(-50.7)"/><path class="cls-1" d="M140.59,142.92a7.07,7.07,0,1,1,9.95-1,7.07,7.07,0,0,1-9.95,1"/><rect class="cls-1" x="68.04" y="52.31" width="5.71" height="48.93" transform="translate(-33.42 83.03) rotate(-50.71)"/><path class="cls-1" d="M55.39,55a7.07,7.07,0,1,1-9.95,1,7.07,7.07,0,0,1,9.95-1"/><rect class="cls-1" x="43.19" y="113.54" width="48.93" height="5.71" transform="translate(-49.06 49.29) rotate(-29.93)"/><path class="cls-1" d="M48.8,135.41a7.07,7.07,0,1,0-9.65-2.6,7.07,7.07,0,0,0,9.65,2.6"/><rect class="cls-1" x="103.86" y="78.62" width="48.93" height="5.71" transform="translate(-23.53 74.87) rotate(-29.92)"/><path class="cls-1" d="M147.17,62.46a7.07,7.07,0,1,0,9.65,2.6,7.06,7.06,0,0,0-9.65-2.6"/><path class="cls-1" d="M110.78,99.8A12.51,12.51,0,1,1,99.33,86.31,12.5,12.5,0,0,1,110.78,99.8"/></svg>