<svg id="Layer_1" data-name="Layer 1" xmlns="http://www.w3.org/2000/svg" width="7.06cm" height="7.06cm" viewBox="0 0 200 200"><defs><style>.cls-1{fill:#ff3f46;}.cls-2{fill:#004473;}.cls-3{fill:#41ffff;}</style></defs><title>wheel_03</title><path class="cls-1" d="M107.44,173a8.26,8.26,0,1,1-8.26-8.26,8.26,8.26,0,0,1,8.26,8.26"/><path class="cls-2" d="M99.54,60.81a40.86,40.86,0,1,1-40.85,40.85A40.9,40.9,0,0,1,99.54,60.81m0-12.8a53.66,53.66,0,1,0,53.66,53.65A53.66,53.66,0,0,0,99.54,48"/><rect class="cls-3" x="95.85" y="32.39" width="6.68" height="57.17"/><path class="cls-3" d="M107.44,30.81a8.26,8.26,0,1,1-8.26-8.26,8.26,8.26,0,0,1,8.26,8.26"/><rect class="cls-3" x="95.85" y="114.18" width="6.67" height="57.17"/><path class="cls-3" d="M90.93,172.94a8.26,8.26,0,1,1,8.26,8.26,8.26,8.26,0,0,1-8.26-8.26"/><rect class="cls-3" x="129.51" y="96.52" width="6.67" height="57.17" transform="translate(-45.59 163.32) rotate(-55.37)"/><path class="cls-3" d="M153,149a8.26,8.26,0,1,1,11.49-2.11A8.26,8.26,0,0,1,153,149"/><rect class="cls-3" x="62.19" y="50.06" width="6.67" height="57.17" transform="translate(-36.42 87.91) rotate(-55.39)"/><path class="cls-3" d="M45.39,54.71a8.26,8.26,0,1,1-11.49,2.11,8.26,8.26,0,0,1,11.49-2.11"/><rect class="cls-3" x="36.94" y="121.77" width="57.17" height="6.67" transform="translate(-59.47 59.37) rotate(-34.62)"/><path class="cls-3" d="M45.38,149a8.26,8.26,0,1,0-11.49-2.11A8.26,8.26,0,0,0,45.38,149"/><rect class="cls-3" x="104.26" y="75.31" width="57.17" height="6.67" transform="translate(-21.16 89.4) rotate(-34.62)"/><path class="cls-3" d="M153,54.71a8.26,8.26,0,1,0,11.49,2.11A8.26,8.26,0,0,0,153,54.71"/><path class="cls-3" d="M114.16,101.66A14.61,14.61,0,1,1,99.54,87.06a14.61,14.61,0,0,1,14.61,14.61"/></svg>