<svg id="Layer_1" data-name="Layer 1" xmlns="http://www.w3.org/2000/svg" width="7.06cm" height="7.06cm" viewBox="0 0 200 200"><defs><style>.cls-1{fill:#9bd2fa;}.cls-2{fill:#45b972;}.cls-3{fill:#fed547;}</style></defs><title>w_02</title><path class="cls-1" d="M100,159.92a7.07,7.07,0,1,1-6.47-7.62,7.07,7.07,0,0,1,6.47,7.62"/><path class="cls-2" d="M101.12,63.7a35,35,0,1,1-37.7,32,35,35,0,0,1,37.7-32M102,52.78a45.92,45.92,0,1,0,42,49.51,45.92,45.92,0,0,0-42-49.51"/><rect class="cls-3" x="76.33" y="60.97" width="48.93" height="5.71" transform="translate(28.99 159.1) rotate(-85.34)"/><path class="cls-3" d="M109.95,38.66A7.07,7.07,0,1,1,103.48,31a7.07,7.07,0,0,1,6.47,7.62"/><rect class="cls-3" x="70.62" y="130.73" width="48.93" height="5.71" transform="translate(-45.81 217.46) rotate(-85.32)"/><path class="cls-3" d="M85.94,158.75a7.07,7.07,0,1,1,6.47,7.62,7.07,7.07,0,0,1-6.47-7.62"/><rect class="cls-3" x="122.18" y="96.4" width="5.71" height="48.93" transform="translate(-47.69 141.05) rotate(-50.7)"/><path class="cls-3" d="M140.55,142.69a7.07,7.07,0,1,1,9.95-1,7.07,7.07,0,0,1-9.95,1"/><rect class="cls-3" x="68" y="52.08" width="5.71" height="48.93" transform="translate(-33.26 82.91) rotate(-50.71)"/><path class="cls-3" d="M55.34,54.72a7.07,7.07,0,1,1-9.95,1,7.07,7.07,0,0,1,9.95-1"/><rect class="cls-3" x="43.14" y="113.31" width="48.93" height="5.71" transform="translate(-48.95 49.23) rotate(-29.93)"/><path class="cls-3" d="M48.76,135.18a7.07,7.07,0,1,0-9.65-2.6,7.07,7.07,0,0,0,9.65,2.6"/><rect class="cls-3" x="103.81" y="78.39" width="48.93" height="5.71" transform="translate(-23.43 74.82) rotate(-29.92)"/><path class="cls-3" d="M147.13,62.23a7.07,7.07,0,1,0,9.65,2.6,7.06,7.06,0,0,0-9.65-2.6"/><path class="cls-3" d="M110.73,99.57A12.51,12.51,0,1,1,99.28,86.08a12.5,12.5,0,0,1,11.45,13.49"/></svg>