<svg id="Layer_1" data-name="Layer 1" xmlns="http://www.w3.org/2000/svg" width="7.06cm" height="7.06cm" viewBox="0 0 200 200"><defs><style>.cls-1{fill:#006837;fill-rule:evenodd;}</style></defs><title>ale-2</title><path class="cls-1" d="M65.82,152.44q1.5-1.14,7.13-10.29,6-9.69,5-11-1.7-2.25-10.26,7.92T61.18,152a3.11,3.11,0,0,0,1.93,1.19,3.29,3.29,0,0,0,2.71-.72"/><path class="cls-1" d="M139.22,60.7q.08-9.23-3.16-12.54-2.8-3.5-11.86,1.9-11.19,4.36-42,31.73-28.59,28.19-9,53.42,18.48,6.82,30.76-1.74,28.22-19.34,32.73-52.18a133.8,133.8,0,0,0,2.58-20.58"/></svg>