<svg id="Layer_1" data-name="Layer 1" xmlns="http://www.w3.org/2000/svg" width="7.06cm" height="7.06cm" viewBox="0 0 200 200"><defs><style>.cls-1{fill:#ff931e;}.cls-1,.cls-2{fill-rule:evenodd;}.cls-2{fill:#bae39d;}</style></defs><title>alim2-2</title><path class="cls-1" d="M114.63,102.46a27.1,27.1,0,0,1,1.68-5.41q1.79-4.82,2.54-4.83,1.27,0,0,5.86t-2.79,5.9a1.41,1.41,0,0,1-1-.36,1.49,1.49,0,0,1-.5-1.16"/><path class="cls-1" d="M126.82,50.75q3.26-2.61,5.35-2.38,2,0,2.63,4.76,1.57,5.19.43,23.81Q133.16,95,118.72,95q-7.59-4.67-8-11.44-1-15.44,9.45-26.2a60.06,60.06,0,0,1,6.61-6.66"/><path class="cls-2" d="M127.2,151.45Q126,151,121,146.28q-5.4-5-4.94-6,.77-1.67,7.93,3.18t6.23,6.89a2.14,2.14,0,0,1-1.09,1.06,2.31,2.31,0,0,1-1.88,0"/><path class="cls-2" d="M65,107q-1.49-5.7.13-8.29,1.3-2.63,8.06-.81,8,.81,32.41,12.56,23.07,12.63,14.13,31.52-11.05,7.33-20.41,4.09-21.46-7.23-29.47-26.77A79.75,79.75,0,0,1,65,107"/></svg>