<svg id="Layer_1" data-name="Layer 1" xmlns="http://www.w3.org/2000/svg" width="7.06cm" height="7.06cm" viewBox="0 0 200 200"><defs><style>.cls-1{fill:#a3d783;fill-rule:evenodd;}</style></defs><title>alim-1</title><path class="cls-1" d="M93.07,107.49q1.83-14.65,6-7l.18,17a51.24,51.24,0,0,0,1.83,10.81q.92,3.3,1.83,6.23,0,4.4-4.4,4.4-4,0-5.68-6.23L92,126.36a143.81,143.81,0,0,1,1.1-18.87"/><path class="cls-1" d="M88.67,107.67H74Q59.74,106.4,47.29,94.49,36.11,84.05,36.12,76.91q0-3.11,1.46-4,2.75-2,12.82-2,24.36,0,37.73,12.08,9,8.06,9,14.29a13,13,0,0,1-1.1,6q-1.83,3.66-7.33,4.39"/><path class="cls-1" d="M141.42,69.77q10.07,0,12.82,2,1.46.92,1.46,4,0,7.15-11.17,17.58-12.45,11.91-26.74,13.19H103.14q-5.5-.74-7.32-4.4a13,13,0,0,1-1.1-6q0-6.23,9-14.28,13.37-12.09,37.73-12.09"/></svg>