<svg id="Layer_1" data-name="Layer 1" xmlns="http://www.w3.org/2000/svg" width="7.06cm" height="7.06cm" viewBox="0 0 200 200"><defs><style>.cls-1{fill:#ff931e;}.cls-2{fill:#7fcb4b;}</style></defs><title>baloot-3</title><path class="cls-1" d="M68.93,72.34s-46.18,41.52-15.42,68.92c0,0,26,30.93,68.83-21.95Z"/><path class="cls-2" d="M137.56,89.55c3.19,12-3.55,25-12.75,34.05-11.06,10.86-26.22-1.1-17.77-12.72-8.69,11.36-22.67-2.52-15.09-11.9-8,9.65-20.82-4.68-12.68-12.33-7,6.53-17.19,2.82-18.07-6.73C60,66.87,72.83,58.37,83.77,55c14.6-4.55,26.71-1.23,38.09,8.9A52.94,52.94,0,0,1,137.56,89.55Z"/><path class="cls-2" d="M121.12,68.78s20.31-17.84,29.18-19l6.75,13.82s-18.82,3.11-32.52,12.18Z"/></svg>