<svg id="Layer_1" data-name="Layer 1" xmlns="http://www.w3.org/2000/svg" xmlns:xlink="http://www.w3.org/1999/xlink" width="7.06cm" height="7.06cm" viewBox="0 0 200 200"><defs><style>.cls-1{fill:none;}.cls-2{fill:#79bada;}.cls-3{fill:#f6db52;}.cls-4{fill:#fff;}.cls-5{fill:#2e2a25;}.cls-6{clip-path:url(#clip-path);}</style><clipPath id="clip-path"><path class="cls-1" d="M143.94,129.07c-3.63,41.79-74.74,45.25-92.35,12.05C34.41,108.74,62.58,83,94.73,85.79,123.77,88.31,145.79,107.69,143.94,129.07Z"/></clipPath></defs><title>bee-1</title><path class="cls-2" d="M105.72,94.13c.33,1.66-3,1.16-4.61.42-3-1.39-4.88-7.06-6.21-9.77A82.73,82.73,0,0,1,88,66.2c-2.18-9.54-.52-21.74,8.72-27.19,8.8-5.18,23.68-2.36,27,7.9,0,0-13.66,4.81-16.73,24.62C107,71.53,104.3,87.14,105.72,94.13Z"/><path class="cls-2" d="M133.95,91c-1.82,1.08-3.65,2.1-5.47,3-4.12,2.11-14.82,10.11-18.76,4.48-1.92-2.73-.63-8.55-.41-11.58a83,83,0,0,1,3.43-19.5c2.94-9.34,10.54-19,21.27-19.07s22.61,10.84,18.93,21.88C149.88,79.47,142.16,86.1,133.95,91Z"/><path class="cls-3" d="M143.94,129.07c-3.63,41.79-74.74,45.25-92.35,12.05C34.41,108.74,62.58,83,94.73,85.79,123.77,88.31,145.79,107.69,143.94,129.07Z"/><path class="cls-4" d="M80.46,123.78a12.81,12.81,0,1,1-1.59-18A12.81,12.81,0,0,1,80.46,123.78Z"/><path class="cls-5" d="M63.8,119.67a9.88,9.88,0,1,0,7-12.06A9.85,9.85,0,0,0,63.8,119.67Z"/><path class="cls-4" d="M67.75,116.26a2.43,2.43,0,1,0,2.77-4,2.43,2.43,0,0,0-2.77,4Z"/><g class="cls-6"><path class="cls-5" d="M81.13,180.38l-6.84-5.1c22.4-30,26.72-66.44,11.31-95.12l7.52-4.05C110.12,107.76,105.53,147.73,81.13,180.38Z"/><path class="cls-5" d="M99.93,181.74l-6.62-5.39c20.3-25,25.41-65.51,11.88-94.26l7.72-3.64C128,110.48,122.53,153.92,99.93,181.74Z"/><path class="cls-5" d="M120,181.49l-7.91-3.22c.9-2.21,1.8-4.4,2.71-6.58,6.57-15.9,12.77-30.93,14.24-47.69.93-10.51-.48-23.85-3.86-36.58l8.26-2.18c3.62,13.65,5.12,28,4.11,39.52-1.6,18.07-8.33,34.4-14.87,50.19C121.84,177.11,120.94,179.3,120,181.49Z"/></g><path class="cls-5" d="M62.87,154.89a15.66,15.66,0,0,1-1.77-.1,2.08,2.08,0,1,1,.47-4.12c3.36.39,7.79-.47,9.8-6.69a2.08,2.08,0,0,1,3.95,1.28C73.34,151.39,68.75,154.89,62.87,154.89Z"/><path class="cls-5" d="M71.84,136.59a7.61,7.61,0,0,1,3.78,1c3.29,1.58,7.21,4.24,2.51,7.38-6.6,4.42-11.77-8-6.29-8.38"/></svg>