<svg id="Layer_1" data-name="Layer 1" xmlns="http://www.w3.org/2000/svg" xmlns:xlink="http://www.w3.org/1999/xlink" width="7.06cm" height="7.06cm" viewBox="0 0 200 200"><defs><style>.cls-1,.cls-8{fill:none;}.cls-2{fill:#7ac943;}.cls-10,.cls-11,.cls-2{fill-rule:evenodd;}.cls-3{fill:#e6e6e6;}.cls-4{fill:#c0e6a7;}.cls-5{fill:#fff;}.cls-6{clip-path:url(#clip-path);}.cls-7{fill:#3fa9f5;}.cls-8{stroke:#4caff6;stroke-linecap:round;stroke-linejoin:round;stroke-width:2.82px;}.cls-9{fill:#4caff6;}.cls-10{fill:#93cff9;}.cls-11{fill:#ff8300;}</style><clipPath id="clip-path"><path class="cls-1" d="M160.41,107.27c-7.1,27.64-55.22,22-63.34-2.22-7.91-23.65,13.87-37.79,35.14-32.32C151.43,77.66,164,93.13,160.41,107.27Z"/></clipPath></defs><title>bee2-1</title><path class="cls-2" d="M37.08,137.93a14.36,14.36,0,0,0,3-.62c1.78-.47,2.69-.85,2.72-1.11,0-.46-1-.57-3.14-.32s-3.25.64-3.31,1.19a.76.76,0,0,0,.14.53.81.81,0,0,0,.6.33"/><path class="cls-2" d="M65.46,134A4.37,4.37,0,0,0,67,131.3c.06-.72-.75-1.28-2.42-1.66q-2.71-1.11-12.76-1.45-9.79.17-10.57,7.92Q43.39,140.43,47,141a17.79,17.79,0,0,0,14.55-3.72A32.29,32.29,0,0,0,65.46,134"/><path class="cls-2" d="M90,121.76a11.76,11.76,0,0,0-2.14-1.18c-1.33-.64-2.08-.89-2.23-.74s.31.86,1.74,1.83,2.31,1.3,2.63,1a.61.61,0,0,0,.19-.4.64.64,0,0,0-.19-.51"/><path class="cls-2" d="M70.78,109.38a3.5,3.5,0,0,0-2.37.86c-.41.41-.21,1.17.61,2.26q1.07,2.08,7,7.51,6,5,10.53.68,1-3.72-1-5.92a14.21,14.21,0,0,0-10.76-5.3,26,26,0,0,0-4-.09"/><path class="cls-2" d="M171.48,122.08a11.36,11.36,0,0,0,.8-2.3c.4-1.42.52-2.19.35-2.32s-.8.45-1.51,2-.89,2.49-.54,2.76a.63.63,0,0,0,.89-.16"/><path class="cls-2" d="M180.43,101a3.52,3.52,0,0,0-1.25-2.19c-.47-.34-1.19,0-2.13,1q-1.87,1.4-6.22,8.16Q167,114.76,172,118.47c2.55.21,4.44-.45,5.67-1.95A14.2,14.2,0,0,0,181,105a25.76,25.76,0,0,0-.6-4"/><path class="cls-2" d="M121.2,147a15.74,15.74,0,0,0,3.38-.19q3.06-.35,3.18-.78.19-.74-3.4-.87c-2.4-.08-3.67.17-3.83.77a.85.85,0,0,0,.07.61.87.87,0,0,0,.6.46"/><path class="cls-2" d="M153,147.35c1.32-1,2-1.94,2.15-2.76s-.62-1.53-2.39-2.21Q150,140.71,139,138.7q-10.78-1.4-12.9,7,1.63,5.08,5.51,6.26a19.76,19.76,0,0,0,16.59-1.72,35.64,35.64,0,0,0,4.82-2.89"/><path class="cls-2" d="M74.24,73.88a15.74,15.74,0,0,0-2.06-2.69q-2-2.34-2.43-2.2-.72.26,1.19,3.3c1.28,2,2.2,2.95,2.79,2.74a.85.85,0,0,0,.47-.4.87.87,0,0,0,0-.76"/><path class="cls-2" d="M56.68,47.34c-1.58-.53-2.75-.6-3.49-.23s-.92,1.37-.49,3.22q.19,3.25,4.69,13.47,4.89,9.71,13,6.76,3.29-4.2,2.1-8.07A19.76,19.76,0,0,0,61.78,49.71a35.64,35.64,0,0,0-5.1-2.37"/><path class="cls-3" d="M139.94,83.49c.19,1.06-1.95.68-3,.19-1.94-.93-3-4.53-3.82-6.27A51.62,51.62,0,0,1,129,65.58c-1.22-6.06.07-13.73,6.11-17,5.76-3.12,15.28-1.09,17.24,5.44,0,0-8.87,2.8-11.21,15.25C141.18,69.26,139.16,79.06,139.94,83.49Z"/><path class="cls-3" d="M158.16,82c-1.19.65-2.38,1.26-3.57,1.83-2.69,1.26-9.72,6.12-12.15,2.51-1.19-1.75-.25-5.41-.06-7.32A51.43,51.43,0,0,1,145,66.79C147,61,152.08,55,159,55.13s14.35,7.21,11.78,14.12C168.63,75,163.54,79,158.16,82Z"/><path class="cls-4" d="M160.41,107.27c-7.1,27.64-55.22,22-63.34-2.22-7.91-23.65,13.87-37.79,35.14-32.32C151.43,77.66,164,93.13,160.41,107.27Z"/><path class="cls-5" d="M118.39,96.63a8.71,8.71,0,1,1,.95-12.28A8.72,8.72,0,0,1,118.39,96.63Z"/><path d="M117.32,90.17a6.72,6.72,0,1,0-5.58,7.69A6.7,6.7,0,0,0,117.32,90.17Z"/><path class="cls-5" d="M114.64,88.62a1.65,1.65,0,1,0,.18,2.33A1.66,1.66,0,0,0,114.64,88.62Z"/><g class="cls-6"><path class="cls-7" d="M118.62,133.65l-6.1-4.39c18.38-17.63,25.35-41.61,18.21-62.59L138.31,65C146.19,88.14,138.64,114.45,118.62,133.65Z"/><path class="cls-7" d="M134.52,135.7l-5.92-4.55C145,116.64,153,90,147.1,69.19l7.67-1.39C161.31,91,152.8,119.54,134.52,135.7Z"/></g><path class="cls-8" d="M111.3,109.83c-2.43,4.67-6.31,4.87-9,4.1"/><path class="cls-9" d="M111.18,104.27a5.17,5.17,0,0,1,2.43,1.1c2,1.43,4.37,3.65.86,5.23-4.93,2.23-7-6.68-3.29-6.33"/><path class="cls-10" d="M83.67,141.07q7.72,3.26,6.89,7-.49,2.17-5.21,2.66l-4.74,0a4.78,4.78,0,0,1-3.18-2.36,5.36,5.36,0,0,1-.82-3.72q.66-5,7.08-3.62"/><path class="cls-10" d="M103.94,147.45q-8.12,2.05-9.72-1.44-.92-2,2.55-5.26,3.72-2.86,3.77-2.89a4.78,4.78,0,0,1,4,0,5.38,5.38,0,0,1,2.9,2.47q2.52,4.43-3.46,7.16"/><path class="cls-10" d="M96.36,160q-4.28-7.21-1.37-9.73,1.68-1.45,5.78,1,3.8,2.75,3.83,2.79a4.76,4.76,0,0,1,1.15,3.79,5.33,5.33,0,0,1-1.55,3.48q-3.53,3.67-7.84-1.3"/><path class="cls-10" d="M83.37,154.91q5.37-6.43,8.72-4.53,1.94,1.1,1,5.77-1.33,4.49-1.36,4.54A4.76,4.76,0,0,1,88.56,163a5.35,5.35,0,0,1-3.8-.3q-4.62-2.11-1.38-7.83"/><path class="cls-10" d="M97.32,137.67q-.71,8.35-4.54,8.72-2.21.22-4.14-4.13-1.49-4.44-1.5-4.5A4.77,4.77,0,0,1,88.4,134a5.36,5.36,0,0,1,3.28-1.94q5-.93,5.63,5.61"/><path class="cls-11" d="M99,150.53a6.35,6.35,0,0,1-11.66,1.36,6.13,6.13,0,0,1-.57-4.84,6.31,6.31,0,0,1,7.89-4.36,6.14,6.14,0,0,1,3.8,3.06,6.08,6.08,0,0,1,.54,4.78"/><path class="cls-10" d="M100.21,40.49q1.69,7.12-1.39,8.47-1.78.78-4.57-2.3-2.45-3.28-2.47-3.33a4.19,4.19,0,0,1,0-3.47,4.7,4.7,0,0,1,2.2-2.5q3.89-2.14,6.2,3.12"/><path class="cls-10" d="M106.17,58.07q-5.64-4.66-4-7.59.95-1.7,5-.92l4,1.17a4.16,4.16,0,0,1,2.07,2.77,4.72,4.72,0,0,1-.24,3.32q-1.82,4.06-6.83,1.25"/><path class="cls-10" d="M93.43,59.19q2.87-6.73,6.15-6c1.26.29,2,1.81,2.3,4.57q0,4.09,0,4.14a4.15,4.15,0,0,1-2.08,2.77,4.66,4.66,0,0,1-3.25.71q-4.4-.59-3.13-6.2"/><path class="cls-10" d="M90.31,47.42q7.3.47,7.69,3.81.22,1.93-3.54,3.69l-3.91,1.39a4.16,4.16,0,0,1-3.3-1,4.69,4.69,0,0,1-1.75-2.83q-.9-4.35,4.8-5"/><path class="cls-10" d="M109.65,48.35q-6.25,3.81-8.48,1.3-1.29-1.45.78-5.05,2.36-3.34,2.4-3.38a4.18,4.18,0,0,1,3.3-1.05,4.71,4.71,0,0,1,3.06,1.32q3.23,3-1.05,6.86"/><path class="cls-11" d="M101.46,56.19a5.55,5.55,0,0,1-7-7.51,5.36,5.36,0,0,1,3.11-2.9,5.52,5.52,0,0,1,7.15,3.31,5.38,5.38,0,0,1-.2,4.25,5.32,5.32,0,0,1-3.09,2.85"/><path class="cls-10" d="M24.19,97.56Q35,94.21,37.45,98.82q1.39,2.68-3.08,7.31-4.82,4.13-4.89,4.17a6.48,6.48,0,0,1-5.36.33,7.3,7.3,0,0,1-4.1-3.14q-3.71-5.81,4.18-9.93"/><path class="cls-10" d="M53.38,86.77Q46.75,96,42,93.75q-2.72-1.29-1.95-7.68,1.36-6.21,1.39-6.28a6.48,6.48,0,0,1,4.08-3.49,7.29,7.29,0,0,1,5.16,0q6.47,2.39,2.65,10.44"/><path class="cls-10" d="M53.84,106.1q-10.72-3.74-9.91-8.89.47-3,6.83-4l6.41-.45a6.47,6.47,0,0,1,4.51,2.93,7.29,7.29,0,0,1,1.44,5q-.47,6.87-9.26,5.5"/><path class="cls-10" d="M35.95,112.16q0-11.35,5.09-12.3,3-.55,6.08,5.09,2.53,5.82,2.55,5.9a6.45,6.45,0,0,1-1.26,5.22,7.27,7.27,0,0,1-4.2,3q-6.64,1.85-8.26-6.91"/><path class="cls-10" d="M35.37,82.14q6.55,9.27,2.9,13-2.1,2.15-7.9-.67-5.42-3.3-5.48-3.36a6.48,6.48,0,0,1-2-5,7.29,7.29,0,0,1,1.71-4.87q4.37-5.32,10.73.91"/><path class="cls-11" d="M48.36,94A8.55,8.55,0,0,1,44,105.39a8.22,8.22,0,0,1-6.53.17A8.31,8.31,0,0,1,32.64,101,8.55,8.55,0,0,1,37,89.64a8.32,8.32,0,0,1,6.6-.14A8.21,8.21,0,0,1,48.36,94"/></svg>