<svg id="Layer_1" data-name="Layer 1" xmlns="http://www.w3.org/2000/svg" width="7.06cm" height="7.06cm" viewBox="0 0 200 200"><defs><style>.cls-1,.cls-2{fill:#bae39d;}.cls-2,.cls-3,.cls-4,.cls-5{fill-rule:evenodd;}.cls-3{fill:#ff82b0;}.cls-4{fill:#fff;}</style></defs><title>bird-2</title><path class="cls-1" d="M97.16,184.54l-.34,0a2.75,2.75,0,0,1-2.4-3.07c.61-5,.39-7.92,0-9.56a6.75,6.75,0,0,0-4.08,1.58,7.14,7.14,0,0,0-2.44,2.94,2.75,2.75,0,0,1-5.16-1.91,12.4,12.4,0,0,1,4.19-5.35,12.19,12.19,0,0,1,7-2.75,72,72,0,0,1-5.38-13.64c-1-2.34-2.93-8.54-5.84-18.95a2.75,2.75,0,1,1,5.3-1.48c3.57,12.77,5,17,5.63,18.33a2.81,2.81,0,0,1,.12.33c3.82,12.43,6.26,14.87,6.92,15.32a2.75,2.75,0,0,1,1.12,1.65c2.44,1.28,7.25,3.93,13.8,7.58a2.75,2.75,0,1,1-2.68,4.81c-6.92-3.86-10.66-5.91-12.69-7a42.86,42.86,0,0,1-.31,8.76A2.75,2.75,0,0,1,97.16,184.54Z"/><path class="cls-1" d="M120.84,171.88a2.75,2.75,0,0,1-.67-.08l-7.46-1.86-9.09-.54a2.75,2.75,0,0,1-2.58-3c1.26-12.34,2.74-23.69,4.41-33.75a2.75,2.75,0,1,1,5.43.9c-1.52,9.17-2.89,19.43-4.07,30.55l6.48.38a2.73,2.73,0,0,1,.5.08l7.71,1.93a2.75,2.75,0,0,1-.67,5.42Z"/><path class="cls-2" d="M118.07,125.91a13.58,13.58,0,0,1,4.42.29,5.08,5.08,0,0,0,3.29-1.11,4.42,4.42,0,0,1,1.09.27,25.52,25.52,0,0,1-1.91-2.74l.28-2.48a1.34,1.34,0,0,0,1.37-.27c2,.18,3.86,1.85,5.5,5,7.88-11.56,12.77-16.69,14.58-15.42s2,7.43.56,18.43q-1.65,10.46-1.93,12.39a8.65,8.65,0,0,1-1.1,3.31c-.73.91-1.92,1.27-3.57,1.1-1.47-.37-5.77-2.76-12.93-7.16q-11-6.88-10.74-9.64c0-1.08.37-1.74,1.09-1.93"/><path class="cls-3" d="M54.22,24.06A77.15,77.15,0,0,0,59.72,34a25,25,0,0,0,5,5.24,14.78,14.78,0,0,1,2.76-.81l26.42-7.72Q123,26.27,143.4,42.23C156.57,52.47,163,65.9,165.06,82.37c5.06,40.06-50.24,62.11-82.81,54.55-15.8-3.67-29.5-13.4-36.88-28.2C36.06,90,34.26,66.09,34.67,45.54q.84-30.83,14.88-27.8c.18.37.18.56,0,.56.54.18,1.17.36,1.92.55Z"/><path class="cls-2" d="M46.51,57.66c.36-3.31.92-5.5,1.67-6.61,1.81-2.2,5.4-3,10.72-2.47q47.88,4.95,44.87,34.12a23.15,23.15,0,0,1-3.86,10.74c-3.31,4.95-7.7,7.15-13.21,6.61Q65.24,97.82,53.94,78.31q-8.27-13.52-7.43-20.65"/><path class="cls-4" d="M125.51,76.36a16.35,16.35,0,0,1,14.59.28,15.68,15.68,0,0,1,10.18,10.47,16.3,16.3,0,0,1,0,14.31,18.49,18.49,0,0,1-9.9,10.46,19.79,19.79,0,0,1-14.87.27A18.24,18.24,0,0,1,115,101.41q-3.58-6.88,0-14.85a17.43,17.43,0,0,1,10.47-10.2"/><path class="cls-4" d="M150.54,86.93A17.87,17.87,0,0,0,140,76.57a17.8,17.8,0,0,0-14.77-.34,19.78,19.78,0,0,0-10.37,10.51,17.89,17.89,0,0,0,.14,15,17.9,17.9,0,0,0,10.52,10.39,18.52,18.52,0,0,0,14.64,0,19.86,19.86,0,0,0,10.38-10.54,18.43,18.43,0,0,0,0-14.64"/><path class="cls-5" d="M136.78,113.46a14.21,14.21,0,0,1-11.13-2,12.39,12.39,0,0,1-6.82-8.75,14.2,14.2,0,0,1,2.11-11.52,12.83,12.83,0,0,1,8.91-6.58,15.28,15.28,0,0,1,11.45,1.5,15.13,15.13,0,0,1,4.62,20.65,15.29,15.29,0,0,1-9.14,6.72"/><path class="cls-4" d="M129.59,96.28a2.58,2.58,0,0,1-1.13-3.51c.87-1.78,2.26-2.29,4.22-1.53A6.76,6.76,0,0,1,134,93a1.86,1.86,0,0,1-.33,2.12c-1.27,1.82-2.64,2.21-4.12,1.17"/></svg>