<svg id="Layer_1" data-name="Layer 1" xmlns="http://www.w3.org/2000/svg" width="7.06cm" height="7.06cm" viewBox="0 0 200 200"><defs><style>.cls-1{fill:none;stroke:#9cc183;stroke-linecap:round;stroke-linejoin:round;stroke-width:5.5px;}.cls-2{fill:#9cc183;}.cls-2,.cls-3,.cls-4,.cls-5{fill-rule:evenodd;}.cls-3{fill:#49adf6;}.cls-4{fill:#fff;}.cls-5{fill:#0a0a0a;}</style></defs><title>bird-3</title><path class="cls-1" d="M85.33,133.45c2.93,10.47,4.85,16.69,5.77,18.72q4.4,14.3,8,16.78l-2.76.56c1.27,2.38,1.56,6.61.82,12.65m-.82-12.65H94.69a9.44,9.44,0,0,0-6.06,2.19,9.69,9.69,0,0,0-3.3,4.14m14.31-5.51c1.83.93,6.7,3.58,14.61,8"/><path class="cls-1" d="M108.16,133.45q-2.47,14.85-4.39,33.58l9.35.55,7.71,1.93"/><path class="cls-2" d="M118.07,126.28a13.58,13.58,0,0,1,4.42.29,5.08,5.08,0,0,0,3.29-1.11,4.42,4.42,0,0,1,1.09.27A25.52,25.52,0,0,1,125,123l.28-2.48a1.34,1.34,0,0,0,1.37-.27c2,.18,3.86,1.85,5.5,5,7.88-11.56,12.77-16.69,14.58-15.42s2,7.43.56,18.43q-1.65,10.46-1.93,12.39a8.65,8.65,0,0,1-1.1,3.31c-.73.91-1.92,1.27-3.57,1.1-1.47-.37-5.77-2.76-12.93-7.16q-11-6.88-10.74-9.64c0-1.08.37-1.74,1.09-1.93"/><path class="cls-3" d="M54.22,24.44a77.15,77.15,0,0,0,5.5,9.91,25,25,0,0,0,5,5.24,14.78,14.78,0,0,1,2.76-.81L93.86,31Q123,26.65,143.4,42.61C156.57,52.84,163,66.27,165.06,82.75c5.06,40.06-50.24,62.11-82.81,54.55-15.8-3.67-29.5-13.4-36.88-28.2-9.31-18.7-11.11-42.63-10.7-63.18q.84-30.83,14.88-27.8c.18.37.18.56,0,.56.54.18,1.17.36,1.92.55Z"/><path class="cls-2" d="M46.51,58c.36-3.31.92-5.5,1.67-6.61,1.81-2.2,5.4-3,10.72-2.47q47.88,4.95,44.87,34.12a23.15,23.15,0,0,1-3.86,10.74c-3.31,4.95-7.7,7.15-13.21,6.61Q65.24,98.19,53.94,78.69,45.67,65.17,46.51,58"/><path class="cls-4" d="M125.51,76.74A16.35,16.35,0,0,1,140.1,77a15.68,15.68,0,0,1,10.18,10.47,16.3,16.3,0,0,1,0,14.31,18.49,18.49,0,0,1-9.9,10.46,19.79,19.79,0,0,1-14.87.27A18.24,18.24,0,0,1,115,101.79q-3.58-6.88,0-14.85a17.43,17.43,0,0,1,10.47-10.2"/><path class="cls-4" d="M150.54,87.3A17.87,17.87,0,0,0,140,77a17.8,17.8,0,0,0-14.77-.34,19.78,19.78,0,0,0-10.37,10.51,17.89,17.89,0,0,0,.14,15,17.9,17.9,0,0,0,10.52,10.39,18.52,18.52,0,0,0,14.64,0,19.86,19.86,0,0,0,10.38-10.54,18.43,18.43,0,0,0,0-14.64"/><path class="cls-5" d="M136.78,113.83a14.21,14.21,0,0,1-11.13-2,12.39,12.39,0,0,1-6.82-8.75,14.2,14.2,0,0,1,2.11-11.52A12.83,12.83,0,0,1,129.85,85a15.28,15.28,0,0,1,11.45,1.5,15.13,15.13,0,0,1,4.62,20.65,15.29,15.29,0,0,1-9.14,6.72"/><path class="cls-4" d="M129.59,96.66a2.58,2.58,0,0,1-1.13-3.51c.87-1.78,2.26-2.29,4.22-1.53A6.76,6.76,0,0,1,134,93.37a1.86,1.86,0,0,1-.33,2.12c-1.27,1.82-2.64,2.21-4.12,1.17"/></svg>