<svg id="Layer_1" data-name="Layer 1" xmlns="http://www.w3.org/2000/svg" xmlns:xlink="http://www.w3.org/1999/xlink" width="7.06cm" height="7.06cm" viewBox="0 0 200 200"><defs><style>.cls-1,.cls-11,.cls-5,.cls-6,.cls-9{fill:none;}.cls-2{fill:#ff7900;}.cls-3{fill:#fff;}.cls-4{fill:#c5a7a8;}.cls-5{stroke:#fff;}.cls-5,.cls-6,.cls-9{stroke-linecap:round;stroke-linejoin:round;}.cls-5,.cls-9{stroke-width:2.55px;}.cls-6{stroke:#ff7900;}.cls-11,.cls-6{stroke-width:3.83px;}.cls-7{fill:#e8e2e3;}.cls-8{fill:#894d4f;}.cls-9{stroke:#894d4f;}.cls-10{clip-path:url(#clip-path);}.cls-11{stroke:#e1d1d2;stroke-miterlimit:10;}</style><clipPath id="clip-path"><path class="cls-1" d="M83.4,112a59.75,59.75,0,0,0-8.88,16.54c-2.34,6.36-4.38,14.67-.14,20.93,4.86,7.18,13,8.7,19.93,3.71,7.81-5.59,11.4-18.34,12.71-27.2a103.15,103.15,0,0,0,1.32-10.51c.11-2.41,1.37-4.62-.88-6.35-1.17-.9-3-.94-4.75-1A15.72,15.72,0,0,1,100,108c-.9-.17-10.59-3.21-10.57-3.25-2.32,1.71-4.34,5-6.07,7.25"/></clipPath></defs><title>butterfly-4</title><path class="cls-2" d="M48.52,113.16a87.37,87.37,0,0,0,17.4,7.59c4.24,1.21,11.83,3.29,16.2,2.15,3.69-1,5-7.31,6.08-10.6,1.21-3.78-.78-6-2.66-9.63C77.31,87,60.7,62.57,40,64.81,27.69,66.14,22.32,80.23,27.1,90.73a49.39,49.39,0,0,0,21.42,22.43"/><path class="cls-2" d="M62.33,143.74a59.74,59.74,0,0,0,11.74-5.53c2.53-1.64,7-4.6,8.4-7.37,1.16-2.33-1.5-5.88-2.71-7.9-1.4-2.33-3.46-2.32-6.16-3-11.78-2.84-31.81-5.28-40,6.37-4.86,6.93,0,16,7.52,18.31a33.75,33.75,0,0,0,21.18-.92"/><path class="cls-3" d="M59.14,97.27l.28.09c-.9-1.42-1.94-2.72-1.46-4.42.85-3,5.46-3.37,6.72-.47a7.23,7.23,0,0,1,.25,3.64c1.81-2.26,4.85-4.09,6.92-1.22s-1.43,4.86-3.68,5.57c2.34.86,4.87,4.48,2.78,6.78s-4.9-.65-6.25-2.23c.41.48-1.07,2.87-1.38,3.25a3.15,3.15,0,0,1-3.17,1.34c-3.32-.85-1.82-5.23-.49-7.14a6.37,6.37,0,0,1-5.4-.28,3.5,3.5,0,0,1-.78-4.63c1.45-2,3.86-.84,5.67-.28"/><path class="cls-4" d="M61.06,101.44a2.17,2.17,0,1,0,1-2.89,2.17,2.17,0,0,0-1,2.89"/><path class="cls-5" d="M83.62,119c-5.64.17-10.44-1.05-15.75-2.25a57.72,57.72,0,0,1-23-11.23C39.11,101,32,94.5,31.59,86.53a9.71,9.71,0,0,1,1.25-5.73,5.56,5.56,0,0,1,5.57-2.9c5.12.48,11.12,5.33,11.76,10.64a5.57,5.57,0,0,1-6.05,5.93c-4.28-.6-5.4-6.13-1.39-7.87"/><path class="cls-3" d="M57.42,86.45c-4.06-1.88-2.37-9.68,3.55-7.54,4.09,1.48,2.92,7.73-1.29,7.93a4.83,4.83,0,0,1-2.25-.39"/><path class="cls-3" d="M51.52,76.34C48.66,75,49.85,69.54,54,71c2.87,1,2.05,5.43-.91,5.57a3.29,3.29,0,0,1-1.58-.27"/><path class="cls-5" d="M77.37,125.06c-9.85-3-21.17-4.61-31.13-.35-4.57,2-10.38,7.7-5.32,12.48,5.27,5,20.59,3.39,25-2.12,2.71-3.41.65-6.27-3.28-7.13-2.85-.62-7.69-1.39-10.38.21-5.64,3.35.93,8,3.24,4.22"/><path class="cls-3" d="M42.26,73.19c-2.26-1-1.32-5.38,2-4.19,2.27.82,1.62,4.29-.72,4.41a2.61,2.61,0,0,1-1.26-.22"/><path class="cls-2" d="M133.77,141.25a87.46,87.46,0,0,1-18.47-4.4c-4.12-1.59-11.43-4.48-14.24-8-2.36-3,.38-8.86,1.52-12.12,1.31-3.75,4.26-4.36,7.92-6.1,16-7.59,44-17.09,59.15-2.87,9,8.48,4.86,23-5.28,28.48a49.36,49.36,0,0,1-30.61,5"/><path class="cls-2" d="M104.34,157.38a59.6,59.6,0,0,1-6.05-11.48c-1-2.83-2.84-7.9-2.28-10.94.47-2.56,4.73-3.79,6.92-4.68,2.52-1,4.16.23,6.7,1.32,11.12,4.82,28.59,14.92,28.11,29.13-.29,8.47-9.62,12.84-17,10.11a33.78,33.78,0,0,1-16.38-13.47"/><path class="cls-3" d="M134.84,122.18l-.27-.1c1.57-.6,3.19-1,3.82-2.65,1.11-2.88-2.34-6-5.08-4.41a7.21,7.21,0,0,0-2.39,2.75c-.09-2.89-1.41-6.19-4.79-5.13s-1.79,4.75-.41,6.67c-2.38-.73-6.58.65-6.3,3.74s4.3,2.42,6.33,2c-.61.13-.87,2.94-.85,3.43a3.13,3.13,0,0,0,1.72,3c3.16,1.32,4.6-3.08,4.69-5.41a6.36,6.36,0,0,0,4.48,3,3.51,3.51,0,0,0,3.41-3.23c.06-2.48-2.57-3-4.36-3.63"/><path class="cls-4" d="M130.8,124.35a2.17,2.17,0,1,1,.94-2.91,2.16,2.16,0,0,1-.94,2.91"/><path class="cls-5" d="M102.19,124.84c4.41,3.53,9,5.45,13.94,7.68a57.64,57.64,0,0,0,25.1,4.84c7.4-.19,17-1.06,22.09-7.2a9.69,9.69,0,0,0,2.45-5.33,5.55,5.55,0,0,0-2.71-5.67c-4.37-2.7-12.09-2.43-15.79,1.43a5.57,5.57,0,0,0,1.27,8.38c3.78,2.09,8-1.65,5.85-5.45"/><path class="cls-3" d="M142.73,114.56c4.38.94,7.71-6.31,1.7-8.16-4.15-1.27-7,4.42-3.73,7.11a4.79,4.79,0,0,0,2,1"/><path class="cls-3" d="M153.52,110c3.08.66,5.42-4.44,1.19-5.73-2.91-.89-4.9,3.1-2.62,5a3.35,3.35,0,0,0,1.43.74"/><path class="cls-5" d="M103.57,133.41c9.65,3.56,19.68,9,25.08,18.45,2.48,4.31,3.66,12.39-3.26,13.17-7.21.81-18.49-9.68-18.68-16.71-.12-4.36,3.25-5.4,6.91-3.72,2.65,1.22,7,3.52,8.17,6.42,2.48,6.07-5.58,5.86-5.13,1.42"/><path class="cls-4" d="M74.38,149.48c4.86,7.18,13,8.7,19.93,3.71,7.81-5.59,11.39-18.34,12.71-27.2a102.68,102.68,0,0,0,1.32-10.51c.11-2.41,1.37-4.61-.88-6.35-1.82-1.41-5.26-.72-7.41-1.14-.9-.17-10.59-3.21-10.57-3.25-2.32,1.71-4.34,5-6.07,7.26a59.65,59.65,0,0,0-8.88,16.54c-2.34,6.37-4.39,14.67-.14,20.94"/><path class="cls-6" d="M94.89,41.22c-2.54,2-5.42,3.56-8.25,1.38a6.55,6.55,0,0,1-2.28-5.81c.71-10,12.48-10.72,18.21-4.28,4.65,5.23,3.93,13.54,4.28,20.2.22,4.16-.17,8-.16,12.14"/><path class="cls-4" d="M88.54,43.82A5.49,5.49,0,1,0,92.22,37a5.49,5.49,0,0,0-3.67,6.84"/><path class="cls-6" d="M137.1,46.52c1.65,2.77,3.78,5.27,7.2,4.25a6.56,6.56,0,0,0,4.21-4.6c2.94-9.63-7.8-14.49-15.46-10.53-6.21,3.21-8.53,11.22-11.24,17.31-1.69,3.8-2.71,7.54-4.21,11.39"/><path class="cls-4" d="M142.1,51.23a5.49,5.49,0,1,1-1-7.71,5.5,5.5,0,0,1,1,7.71"/><path class="cls-7" d="M119.63,113.52c-15.16,8.06-37.6.17-40.58-17.43C76.83,83,83.78,67,96.47,61.29c9.4-4.22,21.12-3.19,28.79,4,8.12,7.6,10,22.54,6.39,33.45a24.77,24.77,0,0,1-12,14.8"/><path class="cls-3" d="M102.28,86.18a8.5,8.5,0,1,1-7.5-9.38,8.5,8.5,0,0,1,7.5,9.38"/><path class="cls-8" d="M96.27,80.56a6.54,6.54,0,1,1-9,2.25,6.53,6.53,0,0,1,9-2.25"/><path class="cls-3" d="M95.26,82.17a1.42,1.42,0,1,1-1.79-.88,1.4,1.4,0,0,1,1.79.88"/><path class="cls-3" d="M128.59,90.76a8.5,8.5,0,1,1-7.51-9.39,8.51,8.51,0,0,1,7.51,9.39"/><path class="cls-8" d="M122.58,85.14a6.54,6.54,0,1,1-9,2.24,6.53,6.53,0,0,1,9-2.24"/><path class="cls-3" d="M121.57,86.75a1.41,1.41,0,1,1-1.79-.89,1.41,1.41,0,0,1,1.79.89"/><path class="cls-8" d="M116.29,102.73c-.07-.69-2.16-2.56-2.75-2.83-1.58-.71-1.33,1.18-1.18,2.46.22,1.88,4.11,2,3.93.37"/><path class="cls-8" d="M96.15,98c-.59-.23-3,.69-3.44,1.05-1.24,1,.4,1.57,1.5,2,1.61.6,3.38-2.48,1.94-3"/><path class="cls-9" d="M94.62,99.55c-.43,1.08.7,3.33,1.36,4.28a10.28,10.28,0,0,0,6.23,3.73c4.61,1,9.6-.53,11.53-5.18"/><g class="cls-10"><path class="cls-11" d="M61.54,133.29c5.49,4.35,13.4,7.62,19.88,10.22,8.88,3.57,18.09,4.85,27.1,7.69"/><path class="cls-11" d="M67.45,121.12c3.56,3.32,9,5.51,13.44,7.76a79.58,79.58,0,0,0,34,8.94"/><path class="cls-11" d="M74.05,110.84c5.51,3.94,12.94,6.79,19.29,9.09,7.77,2.81,19.06,7,27.46,5.89"/></g><path class="cls-3" d="M162.82,113.09c2.44.53,4.29-3.51.94-4.54-2.31-.71-3.88,2.46-2.07,4a2.61,2.61,0,0,0,1.13.58"/></svg>