<svg id="Layer_1" data-name="Layer 1" xmlns="http://www.w3.org/2000/svg" width="7.06cm" height="7.06cm" viewBox="0 0 200 200"><defs><style>.cls-1{fill:#adde8a;}.cls-1,.cls-2{fill-rule:evenodd;}.cls-2{fill:#ffdb00;}</style></defs><title>carrot-3</title><path class="cls-1" d="M110.14,45Q115,36,120.26,34q5.14-2,5.13,4.83,0,.78-4.51,11.68-5.14,11.68-6.23,15.73a125.2,125.2,0,0,0-2.34,13.08Q111.7,84,110.45,93v2.81q4.21-11.21,9.5-17.6,4.37-5.29,8.41-5.29,5.29,0,5,5,0,2.18-7.79,15-8.25,13.39-9,16.35-1.88,6.23-3.9,20.24c-.93,6.65-2,10-3.27,10-2.4,0-4.15-.47-5.3-1.4a19.92,19.92,0,0,1-.48,3.42c-.41,1.45-1.81,2-4.2,1.71,0,2.29-.83,3.42-2.49,3.42s-3.33-4.67-4.68-14q-1.56-16.82-2.33-21.65a52.48,52.48,0,0,0-7-19.31q-4.68-8.42-4.68-16.2a27.41,27.41,0,0,1,.16-4q.62-3,3.27-3,3.73,0,12.61,15.57,5.77,10,6.23,15.26l.16.16a112.64,112.64,0,0,1,3.42-36.29q3.27-12.77,6.07-18.06"/><path class="cls-2" d="M139.73,155.28q-1.4-10.12-13.55-18.22-11.06-7-26.79-6.85-16,.48-27.1,8.26Q60.15,147,60.15,160.73a6.87,6.87,0,0,0,1.09,3.42,4.61,4.61,0,0,0,5.3,2l22.89.31L96,166l36.12.47q8.73-1.4,7.64-11.21"/></svg>