<svg id="Layer_1" data-name="Layer 1" xmlns="http://www.w3.org/2000/svg" width="7.06cm" height="7.06cm" viewBox="0 0 200 200"><defs><style>.cls-1{fill:#f79da1;}</style></defs><title>cloud-1</title><path class="cls-1" d="M144.25,84.69c0-.1,0-.2,0-.29a20.42,20.42,0,0,0-20.61-20.23,20.72,20.72,0,0,0-14.32,5.69c-8.42-13.28-27.45-19.17-45.19-5.65-6.51,8.57-8.5,17.46-7.29,25.31-17.73.78-30.3,21.4-16,40.21,10.69,8.17,21.94,7.62,29.83,2.41a39.15,39.15,0,0,0,28.08,11.35,39.67,39.67,0,0,0,25.76-9.17,34.4,34.4,0,0,0,10.6,1.66c16.72,0,30.28-11.75,30.28-26.25,0-11.73-8.87-21.65-21.12-25"/></svg>