<svg id="Layer_1" data-name="Layer 1" xmlns="http://www.w3.org/2000/svg" xmlns:xlink="http://www.w3.org/1999/xlink" width="7.06cm" height="7.06cm" viewBox="0 0 200 200"><defs><style>.cls-1{fill:none;}.cls-2{fill:#95d469;}.cls-3{fill:#45acf5;}.cls-4{fill:gray;}.cls-5{clip-path:url(#clip-path);}.cls-6{fill:#ff585e;}.cls-7{fill:#fff;}.cls-8{fill:#231f20;}.cls-9{fill:#bae39d;}</style><clipPath id="clip-path"><circle class="cls-1" cx="98.22" cy="101.42" r="28.56"/></clipPath></defs><title>dovecote2-3</title><path class="cls-2" d="M163.8,86.29,99.42,46.46l-67.76,41,11.2,72.79c.72,3.62,4.07,3,9.35,3,10.43.09,7.09,0,17.52,0h62c8.79,0,5.19-.07,14,0,9.74.08,8.25-6.1,8.8-10L155.93,143q2.91-20.52,5.82-41C162.83,94.33,162.72,93.88,163.8,86.29Z"/><path class="cls-3" d="M181.47,89.92,101.73,37.51a5.27,5.27,0,0,0-2.65-.82l-.26,0-.26,0a5.26,5.26,0,0,0-2.65.82L18.53,89.92A5.28,5.28,0,0,0,17,97.22c1.58,2.45,4.85,5.52,7.3,3.94L98.81,52.95l74.55,48.21c2.45,1.58,8.09-1.49,9.67-3.94A5.27,5.27,0,0,0,181.47,89.92Z"/><circle class="cls-3" cx="98.91" cy="144.44" r="6.77"/><circle class="cls-4" cx="98.22" cy="101.42" r="28.56"/><g class="cls-5"><path class="cls-6" d="M114.67,128.87c-3.26.75-6.79,1-9.47,1.44-8.16,1.35-17.42,2.71-25.31-.49-13.25-5.37-10.08-16.62-6.83-27.12A31,31,0,0,1,87.93,84.87c16.51-8.92,32.62,4.62,35.17,19.73.81,4.81,2,14.11.08,18.68C121.8,126.5,118.41,128,114.67,128.87Z"/><path class="cls-7" d="M79.44,108.28A8.13,8.13,0,0,0,85.92,111c5-.59,8.4-6.82,5.24-11-2.61-3.5-7.61-4.67-11-1.46a7,7,0,0,0-2,7.74,6.14,6.14,0,0,0,1.33,2"/><circle class="cls-8" cx="85.03" cy="105.28" r="4.97" transform="matrix(0.41, -0.91, 0.91, 0.41, -46.03, 139)"/><path class="cls-7" d="M87,103.18a1.45,1.45,0,1,1-.63-1.95,1.46,1.46,0,0,1,.63,1.95"/><path class="cls-7" d="M103.73,110.54a8.13,8.13,0,0,0,6.52,2.63c5-.65,8.31-6.92,5.09-11.1-2.66-3.47-7.67-4.57-11-1.32a7,7,0,0,0-1.93,7.77,6.15,6.15,0,0,0,1.36,2"/><circle class="cls-8" cx="109.28" cy="107.47" r="4.97" transform="translate(-33.11 164.17) rotate(-66.23)"/><path class="cls-7" d="M111.21,105.35a1.45,1.45,0,1,1-2.6-1.28,1.45,1.45,0,0,1,2.6,1.28"/><path class="cls-9" d="M101.22,113.13s0,.06,0,.09c0,1.56-2.05,3.08-3.08,4A8.41,8.41,0,0,1,96,119c-1.65.55-2.71-2.71-3.21-3.81-.58-1.27-1.4-3.41.39-4.1a8.63,8.63,0,0,1,3.66-.73C98.31,110.51,101.09,111.32,101.22,113.13Z"/></g></svg>