<svg id="Layer_1" data-name="Layer 1" xmlns="http://www.w3.org/2000/svg" width="7.06cm" height="7.06cm" viewBox="0 0 200 200"><defs><style>.cls-1{fill:#abd9fb;}.cls-2,.cls-5{fill:#fda1c3;}.cls-3{fill:#fff;}.cls-4{fill:#231f20;}.cls-5{fill-rule:evenodd;}.cls-6{fill:none;stroke:#e5eede;stroke-linecap:round;stroke-linejoin:round;stroke-width:4.99px;}.cls-7{fill:#e5eede;}.cls-8{fill:#a0c388;}</style></defs><title>Dovecote4-1</title><path class="cls-1" d="M47.81,61.38,100.39,28.1l54.35,33.28-9,116.34c-.57,5.19-3.26,4.27-7.49,4.33-8.36.12-5.68,0-14,0H74.52c-7,0-4.16-.1-11.21,0-7.81.11-6.62-8.75-7.06-14.32q-.58-7.43-1.18-14.84Q52.74,123.45,50.4,94L47.81,61.38"/><path class="cls-2" d="M24.21,67.43,98.4,18.67a4.87,4.87,0,0,1,2.47-.76l.24,0,.24,0a4.87,4.87,0,0,1,2.47.76l72,48.76a4.91,4.91,0,0,1,1.46,6.79c-1.47,2.27-4.51,5.14-6.79,3.66L101.11,33,31.75,77.88c-2.28,1.48-7.53-1.39-9-3.66a4.9,4.9,0,0,1,1.46-6.79"/><path class="cls-3" d="M65.44,92.15A37.26,37.26,0,1,0,102.7,54.88,37.26,37.26,0,0,0,65.44,92.15"/><path class="cls-4" d="M96.26,141.73a7.53,7.53,0,1,0,7.52-7.52,7.52,7.52,0,0,0-7.52,7.52"/><path class="cls-5" d="M74.62,95.7a15.84,15.84,0,0,0-.72,3.25c-.33,2-.37,3.06-.11,3.21q.64.38,1.73-3c.73-2.24.82-3.52.3-3.83a.83.83,0,0,0-.6-.1.89.89,0,0,0-.6.45"/><path class="cls-5" d="M65.74,125.66q.9,2.28,2,2.77t2.73-1.66q2.32-2.19,7.17-12,4.21-9.81-3.13-14.06-5.24.17-7.41,3.51a19.41,19.41,0,0,0-2.83,16.13,35.94,35.94,0,0,0,1.43,5.33"/><path class="cls-6" d="M104.79,103.29q.64,15,1,29.92A14.07,14.07,0,0,0,98,134.71"/><path class="cls-6" d="M112.11,106.87q3.24,14.6,6.2,29.28a14.1,14.1,0,0,0-7.37,2.83"/><path class="cls-7" d="M78.82,87.7,72,94.34A1.56,1.56,0,0,0,72.69,97l13.07,3.29Z"/><path class="cls-2" d="M91.22,114.77c16.6,12.12,46.23,2,50.41-18.72.75-3.74,4.7-22.81-2.32-22.58-1.24,0-1.69,1.61-2.18,2.76-2.79,6.62-10.82,3.18-14.57-.06C115.81,70.34,106.4,61.68,96.82,63a27.91,27.91,0,0,0-11.22,4.62c-6.91,4.57-9.47,11.17-7.79,19.25,2.06,9.91,4.79,21.61,13.41,27.9"/><path class="cls-8" d="M131.66,103.81c2.72-2.11,5.52-5,5.13-8.48a9.11,9.11,0,0,0-2.9-5.07A23.18,23.18,0,0,0,118,83.17a19.1,19.1,0,0,0-15.51,7.37c-2.58,3.47,3.64,10.77,5.8,13.18a15.59,15.59,0,0,0,9.44,5.41c5.07.59,9.9-2.19,13.91-5.32"/><path class="cls-3" d="M91.47,93.15a8.75,8.75,0,0,1-7.57-.24c-4.61-2.8-5.18-10.42-.2-13.15,4.12-2.26,9.54-1.17,11.45,3.49a7.57,7.57,0,0,1-1.47,8.49,6.71,6.71,0,0,1-2.22,1.4"/><path class="cls-4" d="M82,87.71a5.35,5.35,0,1,0,5.35-5.34A5.35,5.35,0,0,0,82,87.71"/><path class="cls-3" d="M86.34,84.8A1.59,1.59,0,0,0,88,86.29a1.57,1.57,0,1,0-1.64-1.5"/></svg>