<svg id="Layer_1" data-name="Layer 1" xmlns="http://www.w3.org/2000/svg" width="7.06cm" height="7.06cm" viewBox="0 0 200 200"><defs><style>.cls-1{fill:#bdd8e7;}.cls-2{fill:#ff9536;}.cls-3{fill:#fff;}.cls-4{fill:none;stroke:#ff5933;stroke-linecap:round;stroke-linejoin:round;stroke-width:4.4px;}.cls-5{fill:#ff5933;}.cls-6{fill:#844648;}</style></defs><title>dovecote-4</title><path class="cls-1" d="M146,66l-46.3-29.3L51.8,66l7.91,102.44c.51,4.57,2.87,3.76,6.6,3.81,7.36.11,5,0,12.37,0h43.75c6.21,0,3.66-.09,9.87,0,6.88.1,5.82-7.7,6.22-12.61q.52-6.53,1-13.07l4.11-51.84Q144.81,80.36,146,66Z"/><path class="cls-2" d="M166.74,71.32,101.42,28.39a4.3,4.3,0,0,0-2.18-.67l-.21,0-.21,0a4.29,4.29,0,0,0-2.17.67L33.26,71.32a4.32,4.32,0,0,0-1.28,6c1.3,2,4,4.52,6,3.23L99,41,160.1,80.53c2,1.3,6.63-1.22,7.92-3.23A4.33,4.33,0,0,0,166.74,71.32Z"/><circle class="cls-3" cx="97.62" cy="93.09" r="32.81"/><circle class="cls-2" cx="96.67" cy="136.75" r="6.63"/><path class="cls-4" d="M95.78,102.9q-.56,13.16-.87,26.34a12.41,12.41,0,0,1,6.83,1.33"/><path class="cls-4" d="M89.34,106q-2.85,12.86-5.46,25.78a12.42,12.42,0,0,1,6.49,2.5"/><path class="cls-5" d="M118.65,89.17l6,5.85a1.37,1.37,0,0,1-.6,2.31l-11.51,2.9Z"/><path class="cls-6" d="M107.73,113C93.11,123.68,67,114.74,63.33,96.52c-.66-3.3-4.14-20.09,2-19.88,1.09,0,1.48,1.42,1.92,2.44,2.46,5.82,9.52,2.8,12.83-.05,5.94-5.14,14.23-12.76,22.66-11.61a24.56,24.56,0,0,1,9.88,4.07c6.09,4,8.34,9.83,6.87,17C117.73,97.16,115.32,107.46,107.73,113Z"/><path class="cls-2" d="M72.13,103.36c-2.4-1.86-4.87-4.43-4.52-7.47a8,8,0,0,1,2.55-4.46,20.43,20.43,0,0,1,14-6.25,16.82,16.82,0,0,1,13.65,6.49c2.27,3.06-3.21,9.49-5.1,11.61A13.71,13.71,0,0,1,84.38,108c-4.46.52-8.71-1.93-12.25-4.68"/><path class="cls-3" d="M107.51,94a7.71,7.71,0,0,0,6.66-.21c4.06-2.47,4.56-9.18.18-11.58-3.63-2-8.4-1-10.09,3.08a6.67,6.67,0,0,0,1.29,7.48,6,6,0,0,0,2,1.24"/><circle class="cls-6" cx="111.16" cy="89.18" r="4.71"/><path class="cls-3" d="M112,86.61a1.4,1.4,0,0,1-1.44,1.32A1.38,1.38,0,1,1,112,86.61"/></svg>