<svg id="Layer_1" data-name="Layer 1" xmlns="http://www.w3.org/2000/svg" xmlns:xlink="http://www.w3.org/1999/xlink" width="7.06cm" height="7.06cm" viewBox="0 0 200 200"><defs><style>.cls-1{fill:none;}.cls-2{fill:#ff97bd;}.cls-3{fill:#95d469;}.cls-4{fill:gray;}.cls-5{clip-path:url(#clip-path);}.cls-6{fill:#f38b00;}.cls-7{fill:#fff;}</style><clipPath id="clip-path"><circle class="cls-1" cx="99.48" cy="102.61" r="38.58"/></clipPath></defs><title>dovecote3-2</title><path class="cls-2" d="M157.16,173.59c-1.18,1.28-3.07,1.93-5.75,1.89-6.66-.1-13.34,0-20,0H68.76c-7.91,0-15.82.11-23.73,0-4-.06-6.54.81-7.09-4.1-.43-3.91.61-7.83,1-11.69q3.2-30.43,6.4-60.87,2-18.71,3.94-37.43l51.38-31.47L149.34,61.4q.39,4.46.78,8.93,2.49,28.51,5,57,1.28,14.68,2.56,29.34.47,5.38.94,10.75C158.84,170.18,158.39,172.24,157.16,173.59Z"/><path class="cls-3" d="M172,75.62A4.64,4.64,0,0,1,165.57,77L100,34.6,34.43,77a4.64,4.64,0,1,1-5-7.79l68-44a4.61,4.61,0,0,1,2.34-.72l.23,0,.23,0a4.6,4.6,0,0,1,2.34.72l68,44A4.64,4.64,0,0,1,172,75.62Z"/><circle class="cls-4" cx="99.48" cy="102.61" r="38.58"/><g class="cls-5"><path class="cls-3" d="M84.77,93.26l-11.39,1a1.87,1.87,0,0,0-1.37,3l9.62,13Z"/><path class="cls-6" d="M75.59,127.84C81.74,151.76,117,165,136.66,149c3.56-2.9,21.78-17.57,15.09-22.72-1.17-.9-2.79.21-4.14.9-7.64,4-12.46-5.31-13.47-11.18-1.81-10.56-3.92-25.78-13.81-31.89a33.54,33.54,0,0,0-13.94-4.27c-9.9-1-17.31,3.13-21.93,11.91C78.8,102.48,72.4,115.42,75.59,127.84Z"/><path class="cls-7" d="M92.33,108c-2.89-1-5.77-3-6.84-6-2.14-6.12,3.15-13.63,9.85-12.36,5.56,1.05,9.75,6.2,8,12-1.12,3.63-4,6.48-7.84,6.75a8.06,8.06,0,0,1-3.13-.39"/><circle cx="92.93" cy="96.34" r="6.54"/><path class="cls-7" d="M93.18,97.87a1.88,1.88,0,1,0,2.29,1.34,1.9,1.9,0,0,0-2.29-1.34"/></g><circle class="cls-3" cx="100.6" cy="154.26" r="6.18"/></svg>