<svg id="Layer_1" data-name="Layer 1" xmlns="http://www.w3.org/2000/svg" width="7.06cm" height="7.06cm" viewBox="0 0 200 200"><defs><style>.cls-1{fill:#9acaeb;fill-rule:evenodd;}</style></defs><title>drops-4</title><path class="cls-1" d="M122.33,80.9a28.26,28.26,0,0,1,1.9,4.8q.6,1.7,2.75,10.36a41,41,0,0,1,1.65,9.21,21.2,21.2,0,0,1-2.17,9.29,16,16,0,0,1-5.81,6.65,12.51,12.51,0,0,1-15.55-1.32,12.11,12.11,0,0,1-3.81-6.83,18.77,18.77,0,0,1,.8-9.29,25.93,25.93,0,0,1,4.51-8.36q10.54-13.06,10.74-13.18a14.23,14.23,0,0,0,1.51-1.86,1.94,1.94,0,0,1,2-.88,2.77,2.77,0,0,1,1.54,1.41"/><path class="cls-1" d="M116.93,48.58a16.8,16.8,0,0,1-1.5,4.05q-.36.64-4.15,8.47A33,33,0,0,1,106.81,68a17.73,17.73,0,0,1-6.55,4.65,16.18,16.18,0,0,1-7.65.94A10,10,0,0,1,86.19,70a10.73,10.73,0,0,1-2.8-6.2,9.3,9.3,0,0,1,1.53-6.69q4.45-6.85,13.4-8.27,5-.74,14.66-2.25a9.6,9.6,0,0,0,2-.34,1.87,1.87,0,0,1,1.81.6,2.29,2.29,0,0,1,.15,1.72"/><path class="cls-1" d="M81.27,123.54a15.13,15.13,0,0,1,2,2.84q.84,1.34,3.71,6.51a39.47,39.47,0,0,1,2.7,6,13,13,0,0,1,0,6.53,11.16,11.16,0,0,1-2.65,5.37,8.47,8.47,0,0,1-5.35,2.87,9.69,9.69,0,0,1-5.36-.82,8.81,8.81,0,0,1-3.86-4A15.42,15.42,0,0,1,73.12,136q1.66-3.53,5-10.74c.78-1.56,1.38-2.35,1.83-2.35a3.44,3.44,0,0,1,1.34.66"/></svg>