<svg id="Layer_1" data-name="Layer 1" xmlns="http://www.w3.org/2000/svg" width="7.06cm" height="7.06cm" viewBox="0 0 200 200"><defs><style>.cls-1{fill:#f6898c;}.cls-1,.cls-2{fill-rule:evenodd;}.cls-2{fill:#fdb5d0;}</style></defs><title>flower8-3</title><path class="cls-1" d="M51,99.84q31.64-9.79,38.67,3.68,4.06,7.82-9,21.33-14.09,12-14.27,12.15a18.93,18.93,0,0,1-15.65,1,21.22,21.22,0,0,1-12-9.15q-10.84-17,12.2-29"/><path class="cls-1" d="M136.2,68.34q-19.33,26.88-33.06,20.38-8-3.77-5.68-22.42,4-18.12,4.06-18.32a18.86,18.86,0,0,1,11.9-10.19,21.26,21.26,0,0,1,15.06.09q18.87,7,7.74,30.46"/><path class="cls-1" d="M137.54,124.76q-31.28-10.92-28.91-25.94Q110,90.13,128.54,87q18.48-1.33,18.7-1.31a18.82,18.82,0,0,1,13.14,8.54,21.23,21.23,0,0,1,4.19,14.48q-1.36,20.05-27,16"/><path class="cls-1" d="M85.34,142.45q-.1-33.13,14.86-35.89,8.65-1.6,17.74,14.85c4.94,11.31,7.42,17.06,7.45,17.21a18.84,18.84,0,0,1-3.68,15.23,21.23,21.23,0,0,1-12.26,8.75Q90.07,168,85.34,142.45"/><path class="cls-1" d="M83.65,54.84q19.11,27.05,8.46,37.91-6.17,6.28-23.06-2-15.81-9.64-16-9.81A18.92,18.92,0,0,1,47.34,66.4a21.21,21.21,0,0,1,5-14.21q12.75-15.53,31.32,2.65"/><path class="cls-2" d="M121.54,89.41a25,25,0,0,1-12.77,33.29,23.92,23.92,0,0,1-19,.49A24.22,24.22,0,0,1,75.69,110,25,25,0,0,1,88.45,76.72a24.23,24.23,0,0,1,19.26-.4,24,24,0,0,1,13.83,13.09"/></svg>