<svg id="Layer_1" data-name="Layer 1" xmlns="http://www.w3.org/2000/svg" width="7.06cm" height="7.06cm" viewBox="0 0 200 200"><defs><style>.cls-1,.cls-2{fill-rule:evenodd;}.cls-2{fill:#ffdb00;}</style></defs><title>flower1-4</title><path class="cls-1" d="M111.8,37.46a55.3,55.3,0,0,1,1.77,14.08q0,7.87-.58,9.76t-3,1.85q-4.49-.39-8.83-.55l-8.22-1.44c-1.75-.83-2.68-1.58-2.79-2.21.13-.77.27-1.41.4-1.91,0-1.77,0-3.68.08-5.74a62,62,0,0,1,1.07-10.67Q94,29.24,101.2,27.72t10.6,9.73"/><path class="cls-1" d="M140.19,50.55a55.52,55.52,0,0,1-5,13.26q-3.69,7-5.09,8.34c-.94.92-2.12,1-3.55.21q-3.79-2.45-7.55-4.63l-6.59-5.13q-1.73-2.34-1.43-3.26c.48-.62.9-1.12,1.25-1.5q1.24-2.34,2.77-5a61.83,61.83,0,0,1,5.95-8.92q7.39-9,14.47-6.92t4.81,13.58"/><path class="cls-1" d="M158.81,75a55.33,55.33,0,0,1-10.63,9.39q-6.51,4.44-8.39,5T136.54,88Q134.33,84,132,80.36l-3.44-7.6q-.44-2.88.26-3.55c.71-.32,1.32-.57,1.81-.75q2.18-1.49,4.79-3.16a61.5,61.5,0,0,1,9.41-5.12q10.71-4.49,16,.61T158.81,75"/><path class="cls-1" d="M164,105.51a55.43,55.43,0,0,1-13.78,3.37q-7.83.91-9.76.54c-1.29-.25-2-1.19-2.19-2.8q-.13-4.52-.46-8.85l.49-8.33c.63-1.84,1.26-2.85,1.88-3,.78,0,1.43.11,1.95.18q2.63-.3,5.72-.57a62.42,62.42,0,0,1,10.72-.16q11.56,1,13.9,8T164,105.51"/><path class="cls-1" d="M154.67,134.37a55.8,55.8,0,0,1-13.79-3.31q-7.37-2.77-8.92-4t-.66-3.49q2-4.07,3.64-8.07l4.25-7.18q2.1-2,3.05-1.83c.67.4,1.22.75,1.65,1.05,1.65.62,3.43,1.32,5.34,2.1a62.31,62.31,0,0,1,9.6,4.77q9.83,6.18,8.7,13.47t-12.85,6.49"/><path class="cls-1" d="M133,155.91a55.21,55.21,0,0,1-10.71-9.31q-5.26-5.86-6.08-7.65t1-3.41q3.61-2.71,7-5.48l7.08-4.42c1.86-.54,3-.61,3.55-.22.41.66.74,1.23,1,1.69q1.77,2,3.78,4.34a61.77,61.77,0,0,1,6.31,8.66q5.86,10,1.5,16T133,155.91"/><path class="cls-1" d="M105.35,165.1A55.29,55.29,0,0,1,99.81,152q-2.16-7.58-2.1-9.55c0-1.31.85-2.18,2.42-2.6q4.43-.86,8.65-1.88l8.3-.85c1.91.32,3,.78,3.29,1.36.08.77.12,1.43.13,1.95Q121.22,143,122,146a62.83,62.83,0,0,1,1.88,10.55q.86,11.58-5.67,15t-12.86-6.48"/><path class="cls-1" d="M75.09,160.38a55.4,55.4,0,0,1,1.08-14.15q1.57-7.72,2.53-9.45t3.35-1.2c2.89.86,5.73,1.63,8.55,2.32l7.77,3.05q2.32,1.75,2.29,2.72c-.29.73-.54,1.33-.78,1.8q-.53,2.6-1.23,5.61a62.15,62.15,0,0,1-3.19,10.24Q90.91,172,83.54,172t-8.44-11.66"/><path class="cls-1" d="M49.32,141.06a55.2,55.2,0,0,1,7.8-11.85q5.11-6,6.78-7c1.11-.69,2.29-.51,3.51.57q3.16,3.22,6.36,6.16l5.32,6.43c.79,1.77,1,2.94.69,3.49-.6.5-1.12.9-1.55,1.2-1.15,1.34-2.41,2.78-3.79,4.31a62,62,0,0,1-7.74,7.42q-9.15,7.13-15.63,3.6t-1.74-14.29"/><path class="cls-1" d="M36.21,112.71a55.46,55.46,0,0,1,12.45-6.81q7.33-2.9,9.29-3c1.31-.09,2.26.63,2.84,2.15.86,2.89,1.77,5.7,2.72,8.43l1.67,8.18q-.21,2.91-1,3.41c-.76.16-1.41.27-1.93.33q-2.47,1-5.38,2a62.12,62.12,0,0,1-10.31,2.92q-11.43,2-15.49-4.15t5.17-13.43"/><path class="cls-1" d="M38.13,81.07A55.37,55.37,0,0,1,52.31,81q7.82.94,9.61,1.76T63.4,86q-.93,4.42-1.62,8.7l-2.43,8c-1,1.64-1.88,2.47-2.53,2.5-.75-.23-1.37-.44-1.86-.63q-2.63-.32-5.69-.77a63,63,0,0,1-10.45-2.35q-11-3.68-11.64-11t10.95-9.35"/><path class="cls-1" d="M55,54.15a55.47,55.47,0,0,1,12.49,6.71q6.42,4.56,7.61,6.14c.8,1,.71,2.23-.25,3.55Q71.95,74,69.3,77.43l-5.94,5.86c-1.69.95-2.84,1.28-3.41,1-.55-.56-1-1-1.33-1.44Q56.46,81.31,54,79.45a62.7,62.7,0,0,1-8.07-7.06q-7.92-8.49-5-15.24t14.08-3"/><path class="cls-1" d="M82.31,38.44a55.54,55.54,0,0,1,7.83,11.83q3.5,7.06,3.8,9c.2,1.3-.44,2.3-1.9,3q-4.2,1.65-8.17,3.43l-8,2.35q-2.92,0-3.48-.74c-.22-.75-.38-1.38-.49-1.9q-1.17-2.36-2.47-5.18a62.08,62.08,0,0,1-3.77-10q-3-11.23,2.83-15.79t13.83,4"/><path class="cls-2" d="M100.62,53.55A45.21,45.21,0,0,1,133.8,67.31a45.22,45.22,0,0,1,13.76,33.18,45.24,45.24,0,0,1-13.76,33.18,45.22,45.22,0,0,1-33.18,13.75,45.22,45.22,0,0,1-33.19-13.75,45.24,45.24,0,0,1-13.75-33.18A45.22,45.22,0,0,1,67.43,67.31a45.21,45.21,0,0,1,33.19-13.76"/><path class="cls-1" d="M67.24,79.89a6,6,0,0,1,1.82-4.43,6.28,6.28,0,0,1,8.86,0,6,6,0,0,1,1.83,4.43,5.92,5.92,0,0,1-1.83,4.36,6.14,6.14,0,0,1-8.86,0,5.93,5.93,0,0,1-1.82-4.36"/><path class="cls-1" d="M70.24,92.8a5.66,5.66,0,1,1-4-1.69,5.51,5.51,0,0,1,4,1.69"/><path class="cls-1" d="M67.89,108.06a4.91,4.91,0,0,1,4.82,4.82,4.66,4.66,0,0,1-1.44,3.39,4.49,4.49,0,0,1-3.39,1.43,4.88,4.88,0,0,1-4.83-4.82,4.5,4.5,0,0,1,1.43-3.38,4.63,4.63,0,0,1,3.39-1.44"/><path class="cls-1" d="M75.32,127.88a3.65,3.65,0,0,1-2.6-1,3.69,3.69,0,0,1-1-2.61,3.45,3.45,0,0,1,1-2.54,3.55,3.55,0,0,1,2.6-1.11A3.81,3.81,0,0,1,79,124.22a3.57,3.57,0,0,1-1.11,2.61,3.44,3.44,0,0,1-2.54,1"/><path class="cls-1" d="M84.78,67.31a5.11,5.11,0,1,1,1.5,3.58,4.91,4.91,0,0,1-1.5-3.58"/><path class="cls-1" d="M85,81.84a4.24,4.24,0,0,1,4.3-4.3,4.08,4.08,0,0,1,3,1.24,4.24,4.24,0,0,1,0,6.12,4.08,4.08,0,0,1-3,1.24,4.23,4.23,0,0,1-4.3-4.3"/><path class="cls-1" d="M83.08,98.41a3.62,3.62,0,0,1-5.09,0,3.42,3.42,0,0,1-1.11-2.61,3.65,3.65,0,0,1,7.3,0,3.43,3.43,0,0,1-1.11,2.61"/><path class="cls-1" d="M102.25,62.75a3.65,3.65,0,0,1,6.19,2.54,3.67,3.67,0,0,1-3.65,3.65,3.67,3.67,0,0,1-3.65-3.65,3.36,3.36,0,0,1,1.11-2.54"/></svg>