<svg id="Layer_1" data-name="Layer 1" xmlns="http://www.w3.org/2000/svg" width="7.06cm" height="7.06cm" viewBox="0 0 200 200"><defs><style>.cls-1{fill:#8eb871;}.cls-1,.cls-2,.cls-3{fill-rule:evenodd;}.cls-2{fill:#fdaac9;}.cls-3{fill:#5cb6f7;}</style></defs><title>flower10-3</title><path class="cls-1" d="M160.36,89.24a53.38,53.38,0,0,0-13.59-1.71c-5.07,0-8.21.18-9.42.57s-1.81,1.36-1.78,2.93q.37,4.34.53,8.53l1.39,7.93q1.21,2.53,2.13,2.69c.74-.13,1.36-.26,1.85-.39q2.55,0,5.54-.07a60,60,0,0,0,10.29-1q11-2.24,12.44-9.21t-9.39-10.23"/><path class="cls-1" d="M147.73,61.83a53.32,53.32,0,0,0-12.8,4.86q-6.72,3.56-8.05,4.92c-.89.9-1,2.05-.2,3.43q2.37,3.66,4.47,7.28l4.95,6.36c1.5,1.12,2.55,1.57,3.15,1.38.59-.46,1.08-.87,1.45-1.21q2.25-1.2,4.86-2.67a60.52,60.52,0,0,0,8.61-5.74q8.64-7.12,6.67-14t-13.1-4.63"/><path class="cls-1" d="M124.11,43.87A53.43,53.43,0,0,0,115,54.13q-4.29,6.28-4.84,8.1t1.41,3.13q3.8,2.14,7.35,4.37L126.3,73c1.85.29,3,.2,3.43-.25.31-.69.55-1.27.72-1.74q1.44-2.11,3.06-4.62a59.78,59.78,0,0,0,4.94-9.09q4.33-10.33-.6-15.46t-13.75,2"/><path class="cls-1" d="M94.65,37.71a53.66,53.66,0,0,0-3.28,13.42q-.89,7.62-.52,9.5t2.73,2.13q4.4.12,8.61.45l8.11-.48c1.79-.61,2.77-1.22,2.94-1.83,0-.76-.1-1.39-.17-1.89q.29-2.57.56-5.56A60.62,60.62,0,0,0,113.78,43q-1-11.26-7.79-13.53T94.65,37.71"/><path class="cls-1" d="M66.55,46.76a53.92,53.92,0,0,0,3.22,13.43q2.7,7.17,3.88,8.69t3.4.64q4-1.9,7.86-3.54l7-4.13q2-2,1.78-3c-.38-.65-.73-1.19-1-1.61q-.91-2.41-2-5.2A60.36,60.36,0,0,0,86,42.72q-6-9.56-13.11-8.47T66.55,46.76"/><path class="cls-1" d="M45.59,67.9a53.82,53.82,0,0,0,9.05,10.43q5.71,5.13,7.45,5.91c1.17.53,2.27.2,3.31-1q2.64-3.51,5.34-6.77l4.3-6.9q.79-2.72.21-3.45c-.65-.4-1.2-.72-1.65-1q-1.92-1.72-4.22-3.67A60.58,60.58,0,0,0,61,55.35q-9.75-5.71-15.54-1.47t.17,14"/><path class="cls-1" d="M37.18,95.46a53.42,53.42,0,0,0,12.6,5.34q7.31,2.08,9.21,2c1.27,0,2.11-.82,2.52-2.34q.82-4.28,1.81-8.35l.82-8c-.32-1.84-.76-2.9-1.32-3.17-.75-.07-1.38-.12-1.89-.13-1.64-.47-3.42-.94-5.35-1.44A59.92,59.92,0,0,0,45.4,77.59q-11.17-.83-14.48,5.47t6.25,12.41"/><path class="cls-1" d="M41.73,124.66a53.49,53.49,0,0,0,13.66-1q7.45-1.51,9.11-2.44c1.11-.61,1.5-1.69,1.16-3.23q-1.24-4.18-2.23-8.25l-2.95-7.5c-1.13-1.49-2-2.23-2.63-2.21-.7.27-1.28.52-1.73.75q-2.5.51-5.42,1.19A59.78,59.78,0,0,0,40.83,105q-10.31,4.4-10.35,11.51t11.25,8.15"/><path class="cls-1" d="M60,149.32a53.73,53.73,0,0,0,11.54-7.59q5.84-5,6.86-6.6t-.55-3.42q-3.13-3.08-6-6.19l-6.26-5.17c-1.72-.77-2.86-1-3.4-.67-.48.58-.87,1.09-1.17,1.51q-2,1.67-4.2,3.69a60.32,60.32,0,0,0-7.22,7.54q-6.95,8.91-3.51,15.21T60,149.32"/><path class="cls-1" d="M87.74,162.18a53.28,53.28,0,0,0,6.57-12q2.8-7.07,2.93-9t-2.07-2.74Q91,137.22,87,135.83l-7.9-1.61q-2.8.2-3.28,1c-.15.74-.25,1.36-.32,1.86-.62,1.59-1.28,3.31-2,5.19a60.39,60.39,0,0,0-2.81,10q-1.94,11,4,14.95t13-5"/><path class="cls-1" d="M118.28,160.33a53.57,53.57,0,0,0,.05-13.7q-.91-7.54-1.7-9.28c-.52-1.16-1.57-1.63-3.13-1.42q-4.26.9-8.4,1.56l-7.71,2.34c-1.58,1-2.38,1.82-2.41,2.44.22.72.42,1.32.61,1.79q.31,2.53.74,5.49a60.88,60.88,0,0,0,2.28,10.1q3.56,10.62,10.65,11.23t9-10.56"/><path class="cls-1" d="M144.25,144A53.54,53.54,0,0,0,137.77,132q-4.4-6.19-5.92-7.35t-3.43.25q-3.32,2.83-6.64,5.38L116.13,136q-1.36,2.45-1,3.3.81.8,1.39,1.28,1.49,2.08,3.28,4.47a60.11,60.11,0,0,0,6.81,7.79q8.19,7.63,14.71,4.79T144.25,144"/><path class="cls-1" d="M159.41,117.7A53.37,53.37,0,0,0,148,110.14q-6.81-3.38-8.69-3.67c-1.26-.2-2.22.42-2.9,1.84q-1.59,4.06-3.3,7.88l-2.27,7.72q0,2.81.72,3.36c.72.21,1.34.37,1.83.47q2.29,1.13,5,2.39a60.47,60.47,0,0,0,9.68,3.64q10.84,2.85,15.23-2.73t-3.88-13.34"/><path class="cls-2" d="M100,56.82a44,44,0,0,0-32.3,13.39,44,44,0,0,0-13.39,32.3,44,44,0,0,0,13.39,32.3A44,44,0,0,0,100,148.2a45.72,45.72,0,0,0,45.69-45.69A45.71,45.71,0,0,0,100,56.82"/><path class="cls-3" d="M119.59,122.23a5.79,5.79,0,0,0-4.25,1.78,6,6,0,0,0,0,8.63,5.8,5.8,0,0,0,4.25,1.77,5.88,5.88,0,0,0,4.32-1.77,6.13,6.13,0,0,0,0-8.63,5.87,5.87,0,0,0-4.32-1.78"/><path class="cls-3" d="M97.5,135.43a5.64,5.64,0,1,0,1.65-3.93,5.39,5.39,0,0,0-1.65,3.93"/><path class="cls-3" d="M82.78,133.78a4.78,4.78,0,0,0,4.69,4.7,4.37,4.37,0,0,0,3.3-1.4,4.5,4.5,0,0,0,1.4-3.3,4.78,4.78,0,0,0-4.7-4.7,4.52,4.52,0,0,0-3.3,1.4,4.37,4.37,0,0,0-1.4,3.3"/><path class="cls-3" d="M78.91,124.07A3.27,3.27,0,0,0,76.43,123a3.46,3.46,0,0,0-2.53,1.08,3.35,3.35,0,0,0-1,2.47,3.48,3.48,0,0,0,3.55,3.55,3.37,3.37,0,0,0,2.48-1A3.46,3.46,0,0,0,80,126.54a3.27,3.27,0,0,0-1.08-2.47"/><path class="cls-3" d="M136.79,112.39a5,5,0,1,0-1.46,3.49,4.77,4.77,0,0,0,1.46-3.49"/><path class="cls-3" d="M117.68,117.15a4.12,4.12,0,0,0,4.19-4.19,4,4,0,0,0-1.2-2.92,4.14,4.14,0,0,0-6,0,4,4,0,0,0-1.21,2.92,4.12,4.12,0,0,0,4.19,4.19"/><path class="cls-3" d="M107.66,121.47a3.7,3.7,0,0,0-3.56-3.55,3.55,3.55,0,0,0,0,7.1,3.7,3.7,0,0,0,3.56-3.55"/><path class="cls-3" d="M136.28,95.39a3.27,3.27,0,0,0-2.47-1.08,3.55,3.55,0,0,0,0,7.11,3.5,3.5,0,0,0,2.47-6"/></svg>