<svg id="Layer_1" data-name="Layer 1" xmlns="http://www.w3.org/2000/svg" width="7.06cm" height="7.06cm" viewBox="0 0 200 200"><defs><style>.cls-1{fill:#ff8589;}</style></defs><title>flower7-2</title><path class="cls-1" d="M123.62,85.45c16.1-14.7,38-33.83,17.31-54.36-23.3-23.16-47.85,4-51.8,29.61C77.66,45.17,61,20.17,40.64,37.55c-21.25,18.12-6.25,48,16.87,53.79-20.61,3.45-42,21-30.16,44.48,13.22,26.12,37.83,10.34,52.15-2.32-.74,19.31,8,55,35.1,41,23.67-12.19,6.49-34.39,2.57-52.36,22.16,22.93,55.9,17.65,58.63-4.6C179.44,87.74,142.94,81.83,123.62,85.45Zm-2.82,15.82a27.11,27.11,0,1,1-23-30.64A27.11,27.11,0,0,1,120.81,101.28Z"/></svg>