<svg id="Layer_1" data-name="Layer 1" xmlns="http://www.w3.org/2000/svg" width="7.06cm" height="7.06cm" viewBox="0 0 200 200"><defs><style>.cls-1{fill:#ff5933;}.cls-2{fill:#ff9536;}</style></defs><title>flower9-4</title><path class="cls-1" d="M117.7,138.25c5.94,23.42-13.66,51.18-40,40.79-25.22-9.92-10.82-36.71-2.4-54.36-24.75,8.64-60.71-.37-51.1-32.21,8.53-28.21,36-17.79,56.83-10.39-12.44-15.55-24.54-51,3.83-61.91,21.2-8.15,42,19.49,32,50.21,14.18-12,25.84-38,48-22.63,25.42,17.59-2.33,42.37-19.94,50.88,18.14,6.78,44,21.27,26.9,45.51-15.37,21.84-41.31,11-54.19-5.87C117.45,137.62,117.48,137.6,117.7,138.25Z"/><path class="cls-2" d="M80.07,112.24A27.45,27.45,0,1,0,96.47,77,27.45,27.45,0,0,0,80.07,112.24Z"/></svg>