<svg id="Layer_1" data-name="Layer 1" xmlns="http://www.w3.org/2000/svg" width="7.06cm" height="7.06cm" viewBox="0 0 200 200"><defs><style>.cls-1{fill:#ff8589;}.cls-1,.cls-2,.cls-3{fill-rule:evenodd;}.cls-2{fill:#c8e9b2;}.cls-3{fill:#ff585e;}</style></defs><title>flower5-3</title><path class="cls-1" d="M44.21,117.29q21.79-6.74,26.62,2.54,2.79,5.38-6.19,14.69-9.7,8.3-9.83,8.37a13,13,0,0,1-10.77.65,14.6,14.6,0,0,1-8.23-6.3q-7.47-11.67,8.4-19.95"/><path class="cls-1" d="M102.84,95.6q-13.31,18.51-22.76,14Q74.6,107,76.16,94.19,78.9,81.71,79,81.58a13,13,0,0,1,8.19-7,14.63,14.63,0,0,1,10.37.06q13,4.81,5.33,21"/><path class="cls-1" d="M103.77,134.44q-21.54-7.52-19.91-17.86.95-6,13.71-8.12,12.73-.91,12.88-.91a13,13,0,0,1,9,5.88,14.62,14.62,0,0,1,2.88,10q-.94,13.8-18.61,11"/><path class="cls-1" d="M67.82,146.62q-.07-22.81,10.23-24.71,6-1.1,12.21,10.23,5.1,11.69,5.13,11.85a13,13,0,0,1-2.53,10.49,14.59,14.59,0,0,1-8.44,6q-13.34,3.71-16.6-13.88"/><path class="cls-1" d="M66.66,86.3q13.16,18.63,5.83,26.1-4.25,4.33-15.88-1.35-10.89-6.63-11-6.75a13,13,0,0,1-4-10,14.61,14.61,0,0,1,3.44-9.78q8.78-10.7,21.57,1.82"/><path class="cls-2" d="M92.76,110.1A17.18,17.18,0,0,1,84,133a16.46,16.46,0,0,1-13.11.34,16.68,16.68,0,0,1-9.68-9.08A17.19,17.19,0,0,1,70,101.37a16.69,16.69,0,0,1,13.26-.28,16.52,16.52,0,0,1,9.52,9"/><path class="cls-2" d="M130.15,67.13q8.6-6.76,12.36-3.44,2.18,1.93-.25,7.64c-1.95,3.58-2.93,5.4-3,5.44a6.22,6.22,0,0,1-4.71,2.14,7,7,0,0,1-4.77-1.41q-5.34-3.94.34-10.38"/><path class="cls-2" d="M152.69,47.34q-2.78,10.57-7.79,10.19-2.9-.22-4.41-6.24c-.61-4-.92-6.08-.91-6.12A6.25,6.25,0,0,1,142,40.61a7,7,0,0,1,4.66-1.75q6.64-.08,6,8.48"/><path class="cls-2" d="M159.77,64.58q-10.93.33-12-4.58-.61-2.84,4.74-6l5.62-2.61a6.24,6.24,0,0,1,5.06,1.08,7,7,0,0,1,3,4q2,6.35-6.44,8.14"/><path class="cls-2" d="M145.76,76.21q-4-10.2.34-12.82,2.48-1.52,7.23,2.48,4.29,4.36,4.33,4.43a6.23,6.23,0,0,1,.67,5.13,7,7,0,0,1-2.75,4.15q-5.34,4-9.82-3.37"/><path class="cls-2" d="M134.88,49.39Q144,55.47,142,60.08q-1.16,2.67-7.34,2.12-6-1.1-6.09-1.13a6.23,6.23,0,0,1-3.5-3.82,7,7,0,0,1-.14-5q2.09-6.3,10-2.89"/><path class="cls-3" d="M150.66,55.57a8.29,8.29,0,0,1-5.81,14.18,8,8,0,0,1-5.89-2.4,8.25,8.25,0,0,1,0-11.78,8,8,0,0,1,5.89-2.4,7.91,7.91,0,0,1,5.81,2.4"/></svg>