<svg id="Layer_1" data-name="Layer 1" xmlns="http://www.w3.org/2000/svg" width="7.06cm" height="7.06cm" viewBox="0 0 200 200"><defs><style>.cls-1{fill:#e7417a;}.cls-2{fill:#fff;}</style></defs><title>flower7-1</title><path class="cls-1" d="M57.62,91.37c-23.18-5.68-38.27-35.67-17-53.82,20.35-17.38,37,7.62,48.5,23.15,3.95-25.59,28.5-52.77,51.8-29.61,20.65,20.53-1.21,39.66-17.31,54.36,19.31-3.63,55.82,2.29,52.17,32.1-2.72,22.25-36.47,27.53-58.63,4.6,3.92,18,21.1,40.17-2.57,52.36-27.12,14-35.84-21.7-35.1-41-14.32,12.66-38.93,28.44-52.15,2.32C15.46,112.3,37,94.72,57.62,91.32,58.29,91.44,58.29,91.46,57.62,91.37Z"/><path class="cls-2" d="M97.76,70.63a27.12,27.12,0,1,0,23,30.64A27.1,27.1,0,0,0,97.76,70.63Z"/></svg>