<svg id="Layer_1" data-name="Layer 1" xmlns="http://www.w3.org/2000/svg" width="7.06cm" height="7.06cm" viewBox="0 0 200 200"><defs><style>.cls-1{fill:#ffdb00;}.cls-2{fill:#f38b00;}</style></defs><title>flower6-4</title><path class="cls-1" d="M81.6,121C67.66,133.61,41.43,130.25,39,108.35c-2.39-21,21.3-20.84,36.51-21.49C60.48,73,53.54,45,78.95,40c22.51-4.43,25.38,18.28,27.88,35.29C113,61,132.93,39.79,150.8,55.31c13.34,11.6,1.91,36-22.85,40.33C141.41,101,163.5,99.56,161,120.4c-2.81,23.88-30,13.84-42.26,4.85,2,14.94,1.42,38-21.47,35.09-20.62-2.6-22.62-24.4-15.72-39.39C81.93,120.57,82,120.59,81.6,121Z"/><path class="cls-2" d="M85.75,85.62a21.37,21.37,0,1,0,30.19-1.56A21.37,21.37,0,0,0,85.75,85.62Z"/></svg>