<svg id="Layer_1" data-name="Layer 1" xmlns="http://www.w3.org/2000/svg" width="7.06cm" height="7.06cm" viewBox="0 0 200 200"><defs><style>.cls-1{fill:#b7e299;}.cls-1,.cls-2,.cls-3,.cls-4{fill-rule:evenodd;}.cls-2{fill:#93cff9;}.cls-3{fill:#c0e6a7;}.cls-4{fill:#ff8fb8;}</style></defs><title>flowers3-1</title><path class="cls-1" d="M130.46,100.8A22.75,22.75,0,0,1,133,96.68q2.5-3.61,3.12-3.46,1.06.25-1.21,4.85t-3.55,4.29a1.2,1.2,0,0,1-.72-.5,1.26,1.26,0,0,1-.17-1.07"/><path class="cls-1" d="M151.48,60.61q3.25-1.47,4.92-.83,1.67.44,1.17,4.49.2,4.63-4.68,19.78-5.52,14.48-17.48,11.48-5.29-5.47-4.16-11.14a28.18,28.18,0,0,1,13.35-19.67,51.8,51.8,0,0,1,6.87-4.11"/><path class="cls-1" d="M124.26,72.12a15.22,15.22,0,0,1-.92-3.16q-.67-2.9-.31-3.15.62-.42,1.89,2.83t.53,3.75a.83.83,0,0,1-.58.13.86.86,0,0,1-.61-.41"/><path class="cls-1" d="M113.66,43.17q.75-2.3,1.83-2.86t2.79,1.46q2.42,2,7.81,11.41,4.76,9.4-2.22,14-5.17.15-7.51-3a19.16,19.16,0,0,1-3.79-15.71,35.31,35.31,0,0,1,1.08-5.34"/><path class="cls-1" d="M138.45,143.68a18.82,18.82,0,0,1-3.59,1.8q-3.35,1.45-3.72,1.07-.63-.64,3-2.9t4.39-1.47a1,1,0,0,1,.29.67,1.05,1.05,0,0,1-.35.83"/><path class="cls-1" d="M106,162.82q-2.94-.4-3.84-1.57t1.14-3.68q1.89-3.35,12-11.9,10.25-7.8,17.37-.44,1.33,6.18-2,9.69a23.42,23.42,0,0,1-18.06,8,43,43,0,0,1-6.65-.12"/><path class="cls-2" d="M111.7,99.32a37.58,37.58,0,0,0-9.57-1.2,30.57,30.57,0,0,0-6.63.4,1.86,1.86,0,0,0-1.25,2.06q.26,3.05.38,6l1,5.58q.85,1.78,1.5,1.9c.52-.09,1-.18,1.3-.28q1.8,0,3.9-.05a42.23,42.23,0,0,0,7.25-.73q7.73-1.58,8.76-6.48t-6.61-7.2"/><path class="cls-2" d="M102.81,80a37.53,37.53,0,0,0-9,3.42,30.64,30.64,0,0,0-5.67,3.46A1.87,1.87,0,0,0,88,89.33q1.67,2.58,3.15,5.13l3.48,4.47c1.06.79,1.8,1.11,2.21,1,.42-.33.76-.61,1-.85q1.59-.84,3.42-1.88a42.6,42.6,0,0,0,6.06-4q6.08-5,4.7-9.83T102.81,80"/><path class="cls-2" d="M86.18,67.39a37.61,37.61,0,0,0-6.38,7.22,30.8,30.8,0,0,0-3.41,5.7,1.87,1.87,0,0,0,1,2.2q2.68,1.5,5.17,3.07l5.16,2.34c1.3.2,2.11.14,2.41-.17.22-.48.39-.89.51-1.23q1-1.49,2.15-3.25a42.08,42.08,0,0,0,3.48-6.4q3-7.27-.42-10.88t-9.68,1.4"/><path class="cls-2" d="M65.44,63.05a37.77,37.77,0,0,0-2.31,9.45,30.87,30.87,0,0,0-.37,6.69,1.88,1.88,0,0,0,1.92,1.5q3.09.09,6.06.31l5.71-.34c1.26-.43,1.95-.86,2.07-1.29,0-.53-.07-1-.12-1.33q.21-1.81.4-3.92a42.67,42.67,0,0,0,.1-7.34q-.69-7.93-5.48-9.52t-8,5.79"/><path class="cls-2" d="M45.67,69.42a38,38,0,0,0,2.27,9.45A30.94,30.94,0,0,0,50.67,85a1.88,1.88,0,0,0,2.39.45q2.79-1.34,5.53-2.49L63.51,80q1.38-1.44,1.25-2.09c-.27-.46-.51-.84-.72-1.13q-.64-1.7-1.44-3.66a42.49,42.49,0,0,0-3.27-6.58q-4.24-6.73-9.23-6t-4.44,8.8"/><path class="cls-2" d="M30.91,84.3a37.89,37.89,0,0,0,6.37,7.34,30.77,30.77,0,0,0,5.25,4.16,1.88,1.88,0,0,0,2.33-.7q1.86-2.47,3.76-4.76l3-4.85q.56-1.91.15-2.43c-.46-.28-.84-.51-1.16-.67q-1.35-1.21-3-2.59a42.65,42.65,0,0,0-5.93-4.33q-6.86-4-10.94-1t.12,9.86"/><path class="cls-2" d="M25,103.71a37.61,37.61,0,0,0,8.87,3.76,30.87,30.87,0,0,0,6.49,1.43c.89,0,1.48-.58,1.77-1.65q.58-3,1.27-5.88L44,95.73c-.23-1.3-.53-2-.93-2.23s-1-.08-1.33-.09c-1.15-.33-2.41-.66-3.77-1a42.18,42.18,0,0,0-7.17-1.27Q22.91,90.54,20.58,95t4.4,8.73"/><path class="cls-2" d="M28.19,124.26a37.65,37.65,0,0,0,9.61-.74,30.45,30.45,0,0,0,6.42-1.72,1.86,1.86,0,0,0,.82-2.27q-.87-2.94-1.57-5.81l-2.07-5.28c-.8-1-1.41-1.57-1.85-1.56-.5.19-.9.37-1.22.53q-1.76.36-3.81.83a42.08,42.08,0,0,0-7,2.17q-7.26,3.09-7.28,8.1t7.92,5.74"/><path class="cls-2" d="M41.08,141.62a37.82,37.82,0,0,0,8.12-5.34A31.13,31.13,0,0,0,54,131.63a1.89,1.89,0,0,0-.39-2.41q-2.21-2.17-4.22-4.36L45,121.22c-1.21-.54-2-.7-2.39-.47-.34.41-.61.76-.82,1.06q-1.38,1.18-3,2.6a42.46,42.46,0,0,0-5.08,5.31q-4.89,6.27-2.47,10.71t9.79,1.2"/><path class="cls-2" d="M60.58,150.67a37.51,37.51,0,0,0,4.62-8.46,30.57,30.57,0,0,0,2.06-6.31A1.87,1.87,0,0,0,65.81,134q-2.94-.87-5.72-1.85L54.52,131q-2,.14-2.31.7c-.11.52-.18,1-.22,1.31-.44,1.12-.9,2.33-1.38,3.65a42.51,42.51,0,0,0-2,7q-1.36,7.77,2.82,10.52t9.13-3.51"/><path class="cls-2" d="M82.08,149.37a37.71,37.71,0,0,0,0-9.64,30.58,30.58,0,0,0-1.2-6.53,1.87,1.87,0,0,0-2.2-1q-3,.63-5.91,1.1l-5.43,1.65c-1.11.71-1.68,1.28-1.7,1.72.15.51.3.93.43,1.26q.22,1.78.52,3.87a42.86,42.86,0,0,0,1.6,7.11q2.5,7.48,7.49,7.9t6.35-7.44"/><path class="cls-2" d="M100.36,137.89a37.69,37.69,0,0,0-4.56-8.49,31,31,0,0,0-4.17-5.17,1.87,1.87,0,0,0-2.41.17q-2.34,2-4.67,3.79l-4,4q-1,1.73-.67,2.32.57.56,1,.9,1,1.46,2.31,3.15a42.31,42.31,0,0,0,4.8,5.48q5.77,5.37,10.36,3.38t2-9.56"/><path class="cls-2" d="M111,119.36a37.57,37.57,0,0,0-8-5.32,30.74,30.74,0,0,0-6.12-2.58,1.87,1.87,0,0,0-2,1.29q-1.12,2.86-2.33,5.55l-1.6,5.44q0,2,.5,2.36c.51.15.94.26,1.29.33q1.61.8,3.52,1.68a42.56,42.56,0,0,0,6.81,2.56q7.63,2,10.72-1.92T111,119.36"/><path class="cls-3" d="M69.22,76.5a31,31,0,0,0-22.74,9.42,32.13,32.13,0,0,0,0,45.47,31,31,0,0,0,22.74,9.43A31,31,0,0,0,92,131.4a32.14,32.14,0,0,0,0-45.47A31,31,0,0,0,69.22,76.5"/><path class="cls-4" d="M83,122.55a4.07,4.07,0,0,0-3,1.25,4.2,4.2,0,0,0,0,6.08,4.08,4.08,0,0,0,3,1.25,4.14,4.14,0,0,0,3-1.25,4.31,4.31,0,0,0,0-6.08,4.13,4.13,0,0,0-3-1.25"/><path class="cls-4" d="M67.45,131.84a4,4,0,1,0,1.16-2.77,3.79,3.79,0,0,0-1.16,2.77"/><path class="cls-4" d="M57.09,130.68a3.37,3.37,0,0,0,3.3,3.31,3.08,3.08,0,0,0,2.32-1,3.16,3.16,0,0,0,1-2.32,3.36,3.36,0,0,0-3.31-3.31,3.18,3.18,0,0,0-2.32,1,3.08,3.08,0,0,0-1,2.32"/><path class="cls-4" d="M54.36,123.84a2.3,2.3,0,0,0-1.74-.76,2.44,2.44,0,0,0-1.78.76,2.36,2.36,0,0,0-.72,1.74,2.45,2.45,0,0,0,2.5,2.5,2.37,2.37,0,0,0,1.74-.71,2.44,2.44,0,0,0,.76-1.79,2.3,2.3,0,0,0-.76-1.74"/><path class="cls-4" d="M95.1,115.62a3.51,3.51,0,1,0-1,2.46,3.36,3.36,0,0,0,1-2.46"/><path class="cls-4" d="M81.66,119a2.9,2.9,0,0,0,2.95-3,2.8,2.8,0,0,0-.85-2.05,2.92,2.92,0,0,0-4.2,0,2.8,2.8,0,0,0-.85,2.05,2.9,2.9,0,0,0,3,3"/><path class="cls-4" d="M74.6,122a2.6,2.6,0,0,0-2.5-2.5,2.5,2.5,0,0,0,0,5,2.6,2.6,0,0,0,2.5-2.5"/><path class="cls-4" d="M94.75,103.65a2.3,2.3,0,0,0-1.74-.76,2.5,2.5,0,0,0,0,5,2.46,2.46,0,0,0,1.74-4.24"/><path class="cls-2" d="M177.09,96.42q-4.47-3.52-6.42-1.79-1.13,1,.13,4,1.52,2.79,1.54,2.83a3.25,3.25,0,0,0,2.45,1.11,3.65,3.65,0,0,0,2.48-.73q2.78-2-.18-5.39"/><path class="cls-2" d="M165.38,86.14q1.45,5.49,4,5.3,1.51-.12,2.29-3.25c.32-2.1.48-3.16.47-3.18a3.24,3.24,0,0,0-1.28-2.36,3.65,3.65,0,0,0-2.42-.91q-3.45,0-3.11,4.41"/><path class="cls-2" d="M161.7,95.1q5.68.17,6.23-2.38.32-1.48-2.46-3.11l-2.92-1.36a3.24,3.24,0,0,0-2.63.56,3.64,3.64,0,0,0-1.56,2.06q-1,3.3,3.35,4.23"/><path class="cls-2" d="M169,101.14q2.05-5.3-.18-6.67-1.29-.79-3.76,1.29l-2.25,2.3a3.24,3.24,0,0,0-.35,2.67,3.65,3.65,0,0,0,1.43,2.16q2.77,2.05,5.1-1.75"/><path class="cls-2" d="M174.63,87.21q-4.72,3.16-3.69,5.55.6,1.38,3.81,1.1l3.16-.59a3.24,3.24,0,0,0,1.82-2,3.66,3.66,0,0,0,.07-2.58q-1.09-3.27-5.18-1.5"/><path class="cls-3" d="M166.43,90.42a4.31,4.31,0,0,0,3,7.37,4.16,4.16,0,0,0,3.06-1.25,4.28,4.28,0,0,0,0-6.12,4.16,4.16,0,0,0-3.06-1.25,4.11,4.11,0,0,0-3,1.25"/><path class="cls-4" d="M95.44,41.08q-4.25,3.77-2.89,6,.79,1.29,3.93.58l3.05-1a3.24,3.24,0,0,0,1.53-2.21,3.64,3.64,0,0,0-.28-2.57q-1.53-3.1-5.34-.78"/><path class="cls-4" d="M83.25,50.78q5.66-.45,5.93-3,.15-1.51-2.79-2.83l-3-1a3.23,3.23,0,0,0-2.55.84,3.65,3.65,0,0,0-1.32,2.22q-.65,3.39,3.79,3.84"/><path class="cls-4" d="M91.42,56q1.17-5.56-1.24-6.55-1.4-.57-3.5,1.88l-1.85,2.63a3.23,3.23,0,0,0,.08,2.69,3.65,3.65,0,0,0,1.75,1.9q3.07,1.58,4.76-2.54"/><path class="cls-4" d="M98.65,49.9q-4.86-3-6.59-1-1,1.13.6,3.92c1.22,1.73,1.84,2.61,1.86,2.63a3.25,3.25,0,0,0,2.56.81,3.63,3.63,0,0,0,2.37-1q2.51-2.36-.81-5.33"/><path class="cls-4" d="M85.94,41.86q2.27,5.21,4.81,4.61,1.47-.35,1.76-3.56,0-3.18,0-3.22a3.23,3.23,0,0,0-1.63-2.14A3.63,3.63,0,0,0,88.33,37q-3.42.49-2.4,4.83"/><path class="cls-3" d="M87.65,50.5a4.31,4.31,0,0,0,7.79-1.67,4.16,4.16,0,0,0-.69-3.23,4.29,4.29,0,0,0-6-1.09A4.16,4.16,0,0,0,87,47.31a4.11,4.11,0,0,0,.69,3.2"/></svg>