<svg id="Layer_1" data-name="Layer 1" xmlns="http://www.w3.org/2000/svg" width="7.06cm" height="7.06cm" viewBox="0 0 200 200"><defs><style>.cls-1{fill:#fb5190;}.cls-1,.cls-2,.cls-3,.cls-4{fill-rule:evenodd;}.cls-2{fill:#52b2f6;}.cls-3{fill:#86c9f9;}.cls-4{fill:#fdaac9;}</style></defs><title>flowers-2</title><path class="cls-1" d="M69.54,100.8A22.66,22.66,0,0,0,67,96.68q-2.5-3.61-3.12-3.46-1.06.25,1.21,4.85t3.55,4.29a1.19,1.19,0,0,0,.72-.5,1.26,1.26,0,0,0,.17-1.07"/><path class="cls-1" d="M48.52,60.62q-3.25-1.47-4.92-.83-1.67.45-1.17,4.49-.2,4.63,4.68,19.78,5.52,14.48,17.48,11.48,5.28-5.47,4.16-11.14A28.17,28.17,0,0,0,55.39,64.72a51.46,51.46,0,0,0-6.87-4.11"/><path class="cls-1" d="M75.74,72.12A15.22,15.22,0,0,0,76.65,69q.67-2.91.31-3.16-.62-.41-1.89,2.83t-.53,3.75a.81.81,0,0,0,.58.13.86.86,0,0,0,.61-.4"/><path class="cls-1" d="M86.34,43.17q-.75-2.31-1.83-2.86t-2.79,1.46q-2.42,2-7.81,11.41-4.76,9.4,2.22,14,5.17.15,7.51-3A19.16,19.16,0,0,0,87.41,48.5a35.27,35.27,0,0,0-1.08-5.33"/><path class="cls-1" d="M61.55,143.69a19,19,0,0,0,3.59,1.8q3.35,1.45,3.72,1.08.63-.65-3-2.9t-4.39-1.47a1,1,0,0,0-.29.67,1.06,1.06,0,0,0,.35.83"/><path class="cls-1" d="M94,162.82q2.94-.39,3.84-1.57t-1.14-3.68q-1.89-3.36-12-11.91-10.25-7.8-17.37-.43-1.33,6.18,2,9.69a23.41,23.41,0,0,0,18.06,8,42.63,42.63,0,0,0,6.65-.12"/><path class="cls-2" d="M88.3,99.32a37.71,37.71,0,0,1,9.56-1.2,30.79,30.79,0,0,1,6.63.4,1.86,1.86,0,0,1,1.25,2.06c-.18,2-.3,4-.38,6l-1,5.58q-.85,1.78-1.5,1.9c-.52-.09-1-.18-1.3-.27q-1.8,0-3.9-.06a42.59,42.59,0,0,1-7.25-.73q-7.73-1.58-8.76-6.48t6.61-7.2"/><path class="cls-2" d="M97.19,80a37.53,37.53,0,0,1,9,3.42,30.64,30.64,0,0,1,5.67,3.46,1.87,1.87,0,0,1,.14,2.41q-1.67,2.58-3.15,5.13l-3.48,4.47q-1.59,1.18-2.21,1c-.42-.33-.76-.61-1-.85q-1.59-.84-3.42-1.88a42.5,42.5,0,0,1-6.06-4q-6.08-5-4.7-9.83T97.19,80"/><path class="cls-2" d="M113.82,67.39a37.43,37.43,0,0,1,6.38,7.22,30.81,30.81,0,0,1,3.41,5.7,1.87,1.87,0,0,1-1,2.2q-2.68,1.5-5.17,3.07l-5.16,2.34c-1.3.2-2.11.14-2.41-.17-.22-.49-.39-.9-.51-1.23q-1-1.49-2.15-3.25a42.22,42.22,0,0,1-3.48-6.4q-3-7.27.42-10.88t9.68,1.4"/><path class="cls-2" d="M134.56,63.05a37.84,37.84,0,0,1,2.31,9.44,31,31,0,0,1,.37,6.69,1.88,1.88,0,0,1-1.92,1.5q-3.09.09-6.06.32l-5.71-.34q-1.89-.65-2.07-1.28,0-.8.12-1.34-.21-1.8-.4-3.92a42.67,42.67,0,0,1-.1-7.34q.69-7.92,5.48-9.52t8,5.79"/><path class="cls-2" d="M154.33,69.42a37.94,37.94,0,0,1-2.27,9.45A31,31,0,0,1,149.33,85a1.89,1.89,0,0,1-2.4.45q-2.79-1.34-5.53-2.49L136.48,80q-1.38-1.44-1.25-2.09c.27-.46.51-.84.72-1.13q.64-1.69,1.44-3.66a42.31,42.31,0,0,1,3.27-6.57q4.24-6.73,9.23-6t4.44,8.8"/><path class="cls-2" d="M169.09,84.3a37.9,37.9,0,0,1-6.37,7.34,31,31,0,0,1-5.25,4.17,1.88,1.88,0,0,1-2.33-.7q-1.86-2.47-3.76-4.76l-3-4.85c-.37-1.27-.42-2.09-.15-2.43.46-.28.84-.51,1.16-.67q1.35-1.21,3-2.58a42.17,42.17,0,0,1,5.93-4.33q6.86-4,10.94-1t-.11,9.86"/><path class="cls-2" d="M175,103.7a37.65,37.65,0,0,1-8.87,3.76,30.67,30.67,0,0,1-6.49,1.43c-.89,0-1.48-.57-1.77-1.64q-.58-3-1.27-5.88L156,95.73c.23-1.3.53-2,.93-2.23s1-.09,1.33-.09q1.73-.49,3.77-1a42.44,42.44,0,0,1,7.17-1.27q7.86-.58,10.19,3.85T175,103.7"/><path class="cls-2" d="M171.8,124.26a37.62,37.62,0,0,1-9.61-.74,30.65,30.65,0,0,1-6.42-1.72,1.87,1.87,0,0,1-.82-2.27q.87-2.94,1.57-5.81l2.07-5.28q1.2-1.57,1.85-1.56c.5.2.9.37,1.22.53q1.76.36,3.81.84a42.47,42.47,0,0,1,7,2.16q7.25,3.09,7.28,8.1t-7.92,5.73"/><path class="cls-2" d="M158.92,141.62a37.78,37.78,0,0,1-8.12-5.34,30.92,30.92,0,0,1-4.83-4.65,1.89,1.89,0,0,1,.39-2.41q2.21-2.17,4.22-4.36l4.41-3.64c1.21-.54,2-.7,2.39-.47.34.41.61.77.82,1.06.92.79,1.9,1.66,3,2.6a42.88,42.88,0,0,1,5.08,5.31q4.89,6.28,2.47,10.71t-9.79,1.2"/><path class="cls-2" d="M139.42,150.67a37.53,37.53,0,0,1-4.62-8.46,30.51,30.51,0,0,1-2.06-6.31A1.87,1.87,0,0,1,134.2,134q2.94-.87,5.72-1.85l5.56-1.14q2,.14,2.31.7.16.78.22,1.31.66,1.67,1.38,3.65a42.5,42.5,0,0,1,2,7q1.36,7.77-2.82,10.52t-9.13-3.51"/><path class="cls-2" d="M117.92,149.37a37.62,37.62,0,0,1,0-9.64,30.61,30.61,0,0,1,1.2-6.53,1.87,1.87,0,0,1,2.2-1q3,.63,5.91,1.1l5.43,1.65c1.11.71,1.68,1.28,1.7,1.72-.15.51-.3.93-.43,1.26-.15,1.19-.32,2.48-.52,3.87a42.75,42.75,0,0,1-1.6,7.1q-2.5,7.48-7.49,7.91t-6.35-7.44"/><path class="cls-2" d="M99.64,137.9a37.57,37.57,0,0,1,4.56-8.49,30.76,30.76,0,0,1,4.17-5.17,1.87,1.87,0,0,1,2.41.17q2.34,2,4.67,3.79l4,4c.64,1.15.86,1.92.67,2.32-.38.37-.7.67-1,.9q-1,1.47-2.31,3.15a42.22,42.22,0,0,1-4.8,5.48q-5.76,5.38-10.36,3.38t-2-9.56"/><path class="cls-2" d="M89,119.36A37.62,37.62,0,0,1,97,114a30.64,30.64,0,0,1,6.12-2.59,1.87,1.87,0,0,1,2,1.29q1.12,2.85,2.33,5.55l1.6,5.44q0,2-.51,2.36c-.51.15-.94.26-1.29.33q-1.61.8-3.52,1.68A42.27,42.27,0,0,1,97,130.67q-7.63,2-10.72-1.92T89,119.36"/><path class="cls-3" d="M130.78,76.5a32.19,32.19,0,0,1,32.17,32.16,32.19,32.19,0,0,1-32.17,32.17,32.19,32.19,0,0,1-32.17-32.17A32.19,32.19,0,0,1,130.78,76.5"/><path class="cls-2" d="M117,122.55a4.09,4.09,0,0,1,3,1.25,4.21,4.21,0,0,1,0,6.08,4.09,4.09,0,0,1-3,1.25,4.14,4.14,0,0,1-3-1.25,4.32,4.32,0,0,1,0-6.08,4.14,4.14,0,0,1,3-1.25"/><path class="cls-2" d="M132.55,131.84a4,4,0,1,1-1.16-2.77,3.78,3.78,0,0,1,1.16,2.77"/><path class="cls-2" d="M142.91,130.68a3.36,3.36,0,0,1-3.31,3.31,3.07,3.07,0,0,1-2.32-1,3.17,3.17,0,0,1-1-2.32,3.36,3.36,0,0,1,3.31-3.3,3.18,3.18,0,0,1,2.32,1,3.08,3.08,0,0,1,1,2.32"/><path class="cls-2" d="M145.64,123.84a2.3,2.3,0,0,1,1.74-.76,2.44,2.44,0,0,1,1.78.76,2.37,2.37,0,0,1,.72,1.74,2.45,2.45,0,0,1-2.5,2.5,2.38,2.38,0,0,1-1.74-.71,2.44,2.44,0,0,1-.76-1.79,2.31,2.31,0,0,1,.76-1.74"/><path class="cls-2" d="M104.9,115.63a3.51,3.51,0,1,1,1,2.46,3.35,3.35,0,0,1-1-2.46"/><path class="cls-2" d="M118.34,119a2.89,2.89,0,0,1-2.95-2.95,2.81,2.81,0,0,1,.85-2.06,2.92,2.92,0,0,1,4.2,0,2.81,2.81,0,0,1,.85,2.06,2.89,2.89,0,0,1-2.95,2.95"/><path class="cls-2" d="M125.4,122a2.6,2.6,0,0,1,2.5-2.5,2.5,2.5,0,0,1,0,5,2.6,2.6,0,0,1-2.5-2.5"/><path class="cls-2" d="M105.25,103.65a2.3,2.3,0,0,1,1.74-.76,2.5,2.5,0,0,1,0,5,2.47,2.47,0,0,1-1.74-4.25"/><path class="cls-4" d="M22.91,96.42q4.47-3.51,6.42-1.78,1.13,1-.13,4-1.52,2.79-1.54,2.82a3.24,3.24,0,0,1-2.45,1.11,3.64,3.64,0,0,1-2.48-.73q-2.78-2.05.18-5.39"/><path class="cls-4" d="M34.62,86.14q-1.45,5.5-4,5.3-1.51-.11-2.29-3.24-.48-3.15-.48-3.18a3.24,3.24,0,0,1,1.28-2.36,3.64,3.64,0,0,1,2.42-.91q3.45,0,3.11,4.41"/><path class="cls-4" d="M38.3,95.1q-5.68.17-6.23-2.38-.31-1.48,2.47-3.11l2.92-1.36a3.23,3.23,0,0,1,2.63.56,3.64,3.64,0,0,1,1.56,2.06q1,3.3-3.35,4.23"/><path class="cls-4" d="M31,101.14q-2.05-5.3.18-6.66,1.29-.79,3.76,1.29l2.25,2.3a3.23,3.23,0,0,1,.35,2.67,3.64,3.64,0,0,1-1.43,2.16q-2.77,2.06-5.1-1.75"/><path class="cls-4" d="M25.37,87.21q4.72,3.16,3.69,5.55-.6,1.39-3.81,1.1l-3.16-.59a3.24,3.24,0,0,1-1.82-2,3.64,3.64,0,0,1-.07-2.58q1.09-3.27,5.18-1.5"/><path class="cls-2" d="M33.57,90.42a4.31,4.31,0,0,1-3,7.37,4.16,4.16,0,0,1-3.06-1.25,4.29,4.29,0,0,1,0-6.12,4.16,4.16,0,0,1,3.06-1.25,4.11,4.11,0,0,1,3,1.25"/><path class="cls-4" d="M104.56,41.08q4.25,3.78,2.89,6-.79,1.29-3.93.57l-3.05-1a3.25,3.25,0,0,1-1.53-2.21,3.65,3.65,0,0,1,.28-2.57q1.52-3.09,5.34-.78"/><path class="cls-4" d="M116.75,50.78q-5.66-.45-5.93-3-.15-1.5,2.79-2.83l3-1a3.24,3.24,0,0,1,2.55.84,3.63,3.63,0,0,1,1.33,2.22q.65,3.39-3.79,3.84"/><path class="cls-4" d="M108.58,56q-1.17-5.56,1.24-6.55,1.4-.57,3.5,1.88l1.85,2.63a3.23,3.23,0,0,1-.08,2.69,3.65,3.65,0,0,1-1.75,1.9q-3.07,1.58-4.76-2.54"/><path class="cls-4" d="M101.35,49.9q4.86-3,6.59-1,1,1.13-.6,3.92c-1.22,1.73-1.84,2.6-1.86,2.62a3.24,3.24,0,0,1-2.56.81,3.63,3.63,0,0,1-2.37-1q-2.51-2.36.82-5.33"/><path class="cls-4" d="M114.06,41.87q-2.27,5.21-4.81,4.61-1.47-.35-1.76-3.56,0-3.18,0-3.22a3.25,3.25,0,0,1,1.63-2.14,3.64,3.64,0,0,1,2.53-.53q3.42.49,2.4,4.84"/><path class="cls-3" d="M112.35,50.5a4.31,4.31,0,0,1-7.79-1.67,4.16,4.16,0,0,1,.69-3.23,4.29,4.29,0,0,1,6-1.08A4.16,4.16,0,0,1,113,47.31a4.11,4.11,0,0,1-.69,3.2"/><path class="cls-3" d="M34.75,126.58q8-2.47,9.73.93,1,2-2.27,5.37l-3.59,3.06a4.76,4.76,0,0,1-3.94.24,5.34,5.34,0,0,1-3-2.3q-2.73-4.27,3.07-7.29"/><path class="cls-3" d="M56.19,118.65q-4.87,6.77-8.32,5.13-2-.95-1.43-5.65,1-4.56,1-4.61a4.76,4.76,0,0,1,3-2.57,5.35,5.35,0,0,1,3.79,0q4.75,1.76,1.95,7.67"/><path class="cls-3" d="M56.53,132.85q-7.88-2.75-7.28-6.53.35-2.18,5-3L59,123a4.74,4.74,0,0,1,3.31,2.15,5.34,5.34,0,0,1,1.05,3.65q-.35,5-6.8,4"/><path class="cls-3" d="M43.38,137.3q0-8.34,3.74-9,2.18-.4,4.47,3.74c1.24,2.85,1.87,4.29,1.87,4.33a4.76,4.76,0,0,1-.93,3.84,5.35,5.35,0,0,1-3.09,2.2q-4.88,1.36-6.07-5.07"/><path class="cls-3" d="M43,115.25q4.81,6.81,2.13,9.55-1.55,1.58-5.8-.5c-2.66-1.62-4-2.44-4-2.47a4.76,4.76,0,0,1-1.45-3.67,5.34,5.34,0,0,1,1.26-3.58q3.21-3.92,7.89.66"/><path class="cls-4" d="M52.5,124a6.32,6.32,0,0,1-8,8.5A6.1,6.1,0,0,1,41,129.14a6.28,6.28,0,0,1,3.22-8.38,6.1,6.1,0,0,1,4.85-.1A6,6,0,0,1,52.5,124"/></svg>