<svg id="Layer_1" data-name="Layer 1" xmlns="http://www.w3.org/2000/svg" width="7.06cm" height="7.06cm" viewBox="0 0 200 200"><defs><style>.cls-1{fill:#ff7900;}.cls-2{fill:#fff;}.cls-3{fill:#ffc48f;}.cls-4{fill:#b6d5e5;}</style></defs><title>flowers2-4</title><path class="cls-1" d="M41,112.4c.64,6.33,8,11.44,13.58,6.49,5.35-4.72-.63-10.06-4.31-13.67,6.91-.09,15-5.56,9.75-12.58-4.65-6.22-10.52-1.16-15,2.55,1.68-5,1.48-14.84-6.53-15-6-.11-8.63,8.61-3.4,15.32-4.6-1.7-9.83-7.07-13.93-1.27-4.7,6.64,4.39,10.28,9.52,10.8-3.87,3.31-9,9.23-2.55,13.69,5.77,4,11.21-1,12.88-6.34,0-.18,0-.18,0,0"/><path class="cls-2" d="M48,102.56a7.23,7.23,0,1,1-7.24-7.23A7.24,7.24,0,0,1,48,102.56"/><path class="cls-3" d="M160.36,100c7.51,5.23,20,2,19.79-8.76-.15-10.26-11.57-8.72-19-8.09,6.36-7.63,8-21.58-4.61-22.42-11.14-.73-11.12,10.4-11.26,18.77C141.49,73,130.53,64,122.87,72.59c-5.71,6.42,1.32,17.48,13.55,18-6.17,3.43-16.92,4.11-14.42,14,2.84,11.35,15.33,4.82,20.69-.3,0,7.34,1.69,18.42,12.56,15.6,9.79-2.54,9.39-13.18,5.13-20-.2-.16-.21-.16,0,0"/><path class="cls-2" d="M156.15,83.16a10.4,10.4,0,1,1-14.66,1.13,10.41,10.41,0,0,1,14.66-1.13"/><path class="cls-4" d="M86.29,124.5c-2.93,7,1.89,16.58,10.58,14.56,8.32-1.91,5.07-10.93,3.27-16.83,7.31,3.84,18.93,2.71,17.42-7.65-1.35-9.19-10.4-7.22-17.23-5.87,4.6-4.27,10-14.75,1.68-19.48-6.22-3.52-14,4.13-12.31,14.17-3.86-4.41-6.29-13-13.91-9.28-8.73,4.3-1.24,13.3,3.85,16.78-6,1.27-14.68,4.59-10.49,12.93,3.78,7.51,12.36,5.33,17.16.68.1-.19.09-.19,0,0"/><path class="cls-2" d="M99.23,118.14a8.65,8.65,0,1,1-3.48-11.73,8.66,8.66,0,0,1,3.48,11.73"/></svg>