<svg id="Layer_1" data-name="Layer 1" xmlns="http://www.w3.org/2000/svg" width="7.06cm" height="7.06cm" viewBox="0 0 200 200"><defs><style>.cls-1{fill:#67bbf7;}.cls-2{fill:#9cc183;}</style></defs><title>fly-2</title><path class="cls-1" d="M90.1,143.93c9.19-8.25,12-19.86,10.69-31.92C98.83,93.7,50.62,65.15,42,91.61c-7.09,21.86,22.23,27.11,37.64,25.8-5.39,5.77-15,15.75-12.21,24.41C71,153,83.11,150.19,90.1,143.93"/><path class="cls-1" d="M142.46,124c-12.35,0-22.18-6.84-29.25-16.68-10.73-15,6.2-68.36,30.23-54.37,19.88,11.56,1.48,35-10.87,44.29,7.85.73,21.66,1.77,25.34,10.06C162.73,118,151.8,124,142.46,124"/><path class="cls-2" d="M116.1,98.75c4.26,11.15,2.59,22.14-3.73,24.57s-15-4.66-19.19-15.83S90.6,85.37,96.93,82.92s14.93,4.69,19.16,15.83"/></svg>