<svg id="Layer_1" data-name="Layer 1" xmlns="http://www.w3.org/2000/svg" width="7.06cm" height="7.06cm" viewBox="0 0 200 200"><defs><style>.cls-1{fill:#ff861a;}.cls-2{fill:#894d4f;}</style></defs><title>fly2-1</title><path class="cls-1" d="M36.6,131.6c18,1.08,32.83-7.93,44-21.62,17-20.79-2.85-100-39.07-81.79C11.62,43.23,36.22,79,53.36,93.6c-11.5.34-31.64.64-37.8,12.37C7.64,121.1,23,130.78,36.6,131.6"/><path class="cls-1" d="M110.93,165.38c-12.63-12.8-15.65-30-12.68-47.38,4.5-26.44,77.16-63.6,87.29-24.39,8.38,32.44-34.74,37.39-57,34.11,7.3,8.88,20.34,24.26,15.54,36.55-6.17,16-23.55,10.78-33.12,1.12"/><path class="cls-2" d="M110,112.26c-7.19,15.83-20.29,25.35-29.27,21.3s-10.49-20.25-3.26-36.09S97.78,72.14,106.78,76.2s10.45,20.28,3.24,36.06"/></svg>