<svg id="Layer_1" data-name="Layer 1" xmlns="http://www.w3.org/2000/svg" width="7.06cm" height="7.06cm" viewBox="0 0 200 200"><defs><style>.cls-1{fill:#ffdb00;}.cls-2,.cls-5{fill:#77bc1f;}.cls-3{fill:#a3d783;}.cls-3,.cls-4,.cls-5{fill-rule:evenodd;}.cls-4,.cls-6{fill:#fff;}.cls-7{fill:#784d28;}.cls-8{fill:none;stroke:#784d28;stroke-miterlimit:10;stroke-width:2.94px;}</style></defs><title>frog-1</title><path class="cls-1" d="M157.3,146.67c-5.66-4.58-18-5.34-22.77-5.91a369.11,369.11,0,0,0-43.9-2.5,163,163,0,0,0-34.39,3.18c-6.54,1.39-17.5,4.07-16.94,12.75.39,6,10.68,8.19,15.05,9.26,2,.5,4.09.92,6.15,1.28a7,7,0,0,0,4.86-.6c1.85-.94,3.62-2.15,5.44-3.16,1.15-.64,6.8-4.41,7.68-3.65s-.09,4.61-.18,5.63-.62,2.42.24,3.27c1.2,1.16,3.93.92,5.46,1a246.54,246.54,0,0,0,31.91.27c4.85-.26,9.71-1,14.51-1.71,8.22-1.18,15.41-1.39,23-5,2.49-1.17,5.4-3.07,6.28-5.82A7.11,7.11,0,0,0,157.3,146.67Z"/><path class="cls-2" d="M93.5,148.67a7.3,7.3,0,0,0,2.35-1.86c.9-1.25.8-3.16.53-4.6-.14-.79-.57-1.48-.71-2.29-.29-1.61.19-2.76.34-4.32a23.17,23.17,0,0,0,.06-5.58c-.46-3.19-.86-6.24-4.26-7.39-2.38-.8-6-.79-7.78,1.29-2.14,2.51-1.85,7.56-1.16,10.41s2.75,5.51,4.66,7.7c-3.22.64-11.87-1.05-11.48,1.19,0,2.32,5.87,2,7.76,1.59-1.2.27-2.35.87-3.55,1.18s-3.22,1.13-3.25,1.84c-.1,1.94,2,1.54,2.94,1.4,2.1-.31,5.6-1.78,7.71-2.25-1.25,1.06-8.06,3.93-7,5.47.72,1,3.51.22,4.46,0a29.3,29.3,0,0,0,7.27-3.13Z"/><path class="cls-2" d="M125.85,150.59c-.75-1-1.49-2-2.26-2.92-.55-.7-2.15-2.08-2.35-2.87-.29-1.13,1.22-4,1.53-5.2.78-2.94,2.25-6,2.67-9,.28-2-.52-3.94.92-5.73,2.15-2.67,6.15-2.07,8.76-.46,4.17,2.59,4.34,8.23,2.45,12.28-.62,1.32-2.77,5.34-5.38,6.52,3.12.78,6.32.43,9.24,2.27,1.76,1.11,2.54,2.36-.07,2.64s-6.32-.77-8.81-1.35c1.67.77,10.15,5.39,8.77,8.11-1.29,2.54-8.25-3.3-9.66-4.32.16.8,6.92,8.23,2.21,7.7-2.17-.24-4.14-2.94-5.43-4.46C127.55,152.78,126.69,151.69,125.85,150.59Z"/><path class="cls-3" d="M94.53,109.16c-3.41,6.77-5.6,13.88-5.44,21.5.1,4.7-.16,10.76,3.35,14.45,1.41,1.48,4.15,2.48,6,3,3.73,1.07,7.71,1.08,11.55,1.38,5.72.45,13.1-.26,17.26-4.75,2.66-2.87,3.43-7,3.57-10.81.29-7.88-1.81-17.32-6.43-23.84"/><path class="cls-4" d="M99.93,116.25c-3,6.54-5.65,18.87,1.24,24,4.44,3.29,14.48,3,18.64-.81,6-5.56,1.78-16.42.08-22.84"/><path class="cls-5" d="M149.63,114a31.42,31.42,0,0,0,5.08-5.62c8.45-12,6.8-24.71,2.33-37.72-3.42-10-.79-24.09-13.47-28.08-10-3.13-18.9,6-28.24-.89-6-4.43-6.52-9.7-14.84-9.59-5.91.07-9.93,1.79-14.22,5.93-3.93,3.79-5.91,9-9.39,13.09-3.28,3.82-8.36,5.34-11.48,9.34a35.69,35.69,0,0,0-6.41,12,28,28,0,0,0-1.09,8.36c.56,20.94,19.63,34.07,38.17,38.84C113.09,124,135.72,126.07,149.63,114Z"/><path class="cls-6" d="M105.63,44.73A11.62,11.62,0,1,0,104,61.08a11.62,11.62,0,0,0,1.6-16.35"/><path class="cls-7" d="M101.67,46.41a9.48,9.48,0,1,0-1.31,13.33,9.48,9.48,0,0,0,1.31-13.33"/><path class="cls-6" d="M98.65,48a2,2,0,0,0-2.38,1.65,2.05,2.05,0,1,0,4,.72A2,2,0,0,0,98.65,48"/><path class="cls-6" d="M147,53.41a11.62,11.62,0,1,0-1.6,16.35A11.62,11.62,0,0,0,147,53.41"/><path class="cls-7" d="M143,55.1a9.48,9.48,0,1,0-1.31,13.33A9.47,9.47,0,0,0,143,55.1"/><path class="cls-6" d="M140,56.69a2,2,0,1,0,1.66,2.37A2,2,0,0,0,140,56.69"/><path class="cls-8" d="M97.42,93c-2.54,7.76,3.78,13.66,11.06,15.1,8.69,1.72,13.08-3.47,16-10.84"/><path class="cls-7" d="M93.7,91a4.82,4.82,0,0,1,2.37-.55c2.26-.07,5.19.24,3.52,3.34-2.35,4.34-8.79-1-5.89-2.79"/><path class="cls-7" d="M127.93,95.6a4.82,4.82,0,0,0-2.05-1.31c-2.1-.83-5-1.52-4.43,2,.75,4.88,8.61,2,6.48-.64"/><path class="cls-7" d="M103.3,76.92c3.93,1.36,6.94-6.17,1.92-5.11C103.69,72.14,100.89,76.08,103.3,76.92Z"/><path class="cls-7" d="M119.4,80.54c-4.15-.22-4.09-8.34.15-5.45C120.84,76,121.94,80.68,119.4,80.54Z"/><path class="cls-3" d="M93.75,127.75c1.89,3,4.13,5.89,7.24,7.68,2,1.13,6.77,3,7.21-.73.22-1.92-1.46-3.32-2.82-4.33-3.37-2.48-7.64-4.17-9.35-8.31"/><path class="cls-3" d="M123.53,123.49c-1,3-13.22,7.39-11.1,11.06,2.67,4.64,12.71-2.89,14.29-5.44"/></svg>