<svg id="Layer_1" data-name="Layer 1" xmlns="http://www.w3.org/2000/svg" width="7.06cm" height="7.06cm" viewBox="0 0 200 200"><defs><style>.cls-1{fill:#ff757a;}.cls-2,.cls-5{fill:#7ac943;}.cls-3{fill:#adde8a;}.cls-3,.cls-4,.cls-5{fill-rule:evenodd;}.cls-4,.cls-6{fill:#fff;}.cls-7{fill:#e6e6e6;}.cls-8{fill:#ffa0a3;}</style></defs><title>frog2-3</title><path class="cls-1" d="M170.48,150c-6.93-5.61-22-6.54-27.88-7.23a452.16,452.16,0,0,0-53.77-3.06c-14.37,0-28.12.92-42.12,3.9-8,1.7-21.44,5-20.74,15.62.48,7.3,13.08,10,18.44,11.34,2.49.61,5,1.12,7.53,1.56a8.54,8.54,0,0,0,6-.74c2.27-1.15,4.43-2.63,6.66-3.87,1.41-.78,8.32-5.4,9.41-4.47s-.11,5.65-.22,6.9-.76,3,.3,4c1.47,1.42,4.82,1.13,6.68,1.28a301.1,301.1,0,0,0,39.08.33c5.94-.32,11.89-1.25,17.77-2.09,10.07-1.44,18.87-1.7,28.23-6.09,3.05-1.43,6.61-3.76,7.69-7.13A8.7,8.7,0,0,0,170.48,150Z"/><path class="cls-2" d="M85.25,146.42A8.53,8.53,0,0,0,88,144.24c1.06-1.47.93-3.7.63-5.4-.17-.93-.66-1.74-.83-2.68-.34-1.89.22-3.24.4-5.07a27.14,27.14,0,0,0,.07-6.54c-.54-3.74-1-7.31-5-8.67-2.79-.94-7.06-.92-9.13,1.51-2.5,2.95-2.17,8.87-1.36,12.21s3.22,6.46,5.47,9c-3.78.75-13.92-1.23-13.46,1.39,0,2.72,6.88,2.36,9.1,1.86-1.41.32-2.76,1-4.16,1.4s-3.77,1.32-3.81,2.15c-.12,2.27,2.34,1.81,3.44,1.64,2.46-.37,6.56-2.09,9-2.63-1.47,1.24-9.45,4.61-8.17,6.41.84,1.18,4.11.25,5.23-.06A34.32,34.32,0,0,0,84,147.14Z"/><path class="cls-2" d="M123.19,148.66c-.88-1.15-1.75-2.3-2.65-3.43-.64-.81-2.52-2.45-2.76-3.36-.35-1.33,1.43-4.72,1.79-6.09.91-3.46,2.64-7,3.14-10.51.33-2.34-.61-4.62,1.08-6.72,2.53-3.14,7.21-2.43,10.27-.53,4.89,3,5.09,9.65,2.87,14.39-.73,1.56-3.25,6.26-6.31,7.65,3.66.91,7.41.5,10.84,2.66,2.06,1.3,3,2.76-.08,3.1s-7.41-.91-10.34-1.58c2,.91,11.9,6.31,10.28,9.5-1.51,3-9.68-3.86-11.33-5.06.19.93,8.12,9.64,2.59,9-2.54-.28-4.85-3.45-6.36-5.23C125.17,151.24,124.17,150,123.19,148.66Z"/><path class="cls-3" d="M86.46,100.09c-4,7.94-6.57,16.28-6.38,25.21.11,5.52-.18,12.62,3.93,16.94,1.66,1.74,4.87,2.9,7,3.53,4.38,1.26,9,1.27,13.54,1.62,6.71.52,15.36-.31,20.24-5.57,3.12-3.35,4-8.25,4.19-12.67.34-9.24-2.12-20.31-7.54-28"/><path class="cls-4" d="M92.78,108.39c-3.51,7.67-6.63,22.13,1.45,28.1,5.21,3.86,17,3.55,21.86-.95,7.08-6.52,2.09-19.25.09-26.79"/><path class="cls-5" d="M151.07,105.76a36.74,36.74,0,0,0,6-6.6c9.91-14,8-29,2.74-44.24-4-11.67-.92-28.25-15.8-32.93-11.67-3.67-22.16,7.05-33.12-1-7-5.2-7.64-11.37-17.41-11.25-6.93.08-11.64,2.1-16.67,7-4.61,4.45-6.93,10.61-11,15.35C61.9,36.49,56,38.27,52.29,43A41.9,41.9,0,0,0,44.78,57a32.79,32.79,0,0,0-1.28,9.8c.66,24.55,23,39.95,44.76,45.55C108.22,117.53,134.75,119.92,151.07,105.76Z"/><path class="cls-6" d="M99.47,24.52A13.63,13.63,0,1,0,97.6,43.7a13.62,13.62,0,0,0,1.87-19.17"/><path d="M95.94,23.17a11.12,11.12,0,1,0-1.53,15.64,11.11,11.11,0,0,0,1.53-15.64"/><path class="cls-6" d="M92.84,30.14a2.41,2.41,0,1,0,1.95,2.78,2.4,2.4,0,0,0-1.95-2.78"/><path class="cls-6" d="M148,34.71a13.63,13.63,0,1,0-1.87,19.17A13.62,13.62,0,0,0,148,34.71"/><path d="M144.43,33.36A11.12,11.12,0,1,0,142.89,49a11.11,11.11,0,0,0,1.53-15.63"/><path class="cls-6" d="M141.33,40.33a2.41,2.41,0,1,0,1.95,2.78,2.4,2.4,0,0,0-1.95-2.78"/><path d="M106.54,100.6a20.58,20.58,0,0,1-4-.41c-5.67-1.12-10.51-4.29-13-8.49a13.13,13.13,0,0,1-1.05-11l2.63.86A10.29,10.29,0,0,0,92,90.3c2.06,3.52,6.22,6.2,11.12,7.17,8.14,1.61,13.28-1.94,17.2-11.87l2.57,1C120.41,92.82,116.12,100.6,106.54,100.6Z"/><path d="M85.48,78.74a5.65,5.65,0,0,1,2.78-.64c2.65-.09,6.08.29,4.12,3.91-2.75,5.09-10.31-1.16-6.9-3.27"/><path d="M125.63,84.18a5.62,5.62,0,0,0-2.4-1.54c-2.47-1-5.82-1.78-5.2,2.3.88,5.72,10.1,2.37,7.6-.76"/><path d="M96.74,62.27c4.61,1.59,8.13-7.25,2.25-6C97.2,56.67,93.92,61.29,96.74,62.27Z"/><path d="M115.61,66.52c-4.86-.26-4.8-9.78.18-6.39C117.31,61.15,118.6,66.68,115.61,66.52Z"/><path class="cls-3" d="M85.54,121.88c2.21,3.49,4.84,6.91,8.48,9,2.31,1.33,7.94,3.55,8.45-.85.26-2.25-1.71-3.9-3.31-5.08-3.95-2.91-9-4.9-11-9.74"/><path class="cls-3" d="M120.47,116.89c-1.2,3.48-15.5,8.67-13,13,3.13,5.44,14.9-3.4,16.76-6.38"/><path class="cls-7" d="M52,127.22c.7,2.46,1.21,5.11.29,5.53s-2.8-1.89-3.42-2.45a26.38,26.38,0,0,0-5.21-3.49C40.1,124.88,35,123.27,32.52,120c-2-2.7-2.76-7.2.56-9.31s7-.24,9.87,1.78A22.73,22.73,0,0,1,50.55,123C50.74,123.44,51.42,125.27,52,127.22Z"/><path class="cls-7" d="M37.82,138.41a10.33,10.33,0,0,0,3,.55,22.86,22.86,0,0,0,2.5-.1,16.38,16.38,0,0,0,1.74-.21c.33-.06,1.16-.24,1.14-.68,0-.25-.29-.5-.45-.67a32.08,32.08,0,0,0-3.68-3.3,17.44,17.44,0,0,0-1.46-1,5.27,5.27,0,0,0-1.43-.59,7.39,7.39,0,0,0-1.21-.3c-1.51-.18-3.44,1.05-3.39,2.69C34.62,136.7,36.12,137.81,37.82,138.41Z"/><path class="cls-7" d="M170.44,133.24c-.57.11-1.14.29-1.7.45a14,14,0,0,0-1.54.61c-1.09.47-2.23.94-3.35,1.31-.53.17-2,.5-1.28,1.09s2.16.36,3,.68a16.94,16.94,0,0,0,2.93.73c1.58.31,3.57.55,4.77-.78a2.53,2.53,0,0,0,.23-3.12A2.76,2.76,0,0,0,170.44,133.24Z"/><path class="cls-7" d="M148.3,135.23c-.07,1,0,1.86.58,1.94.27,0,.57-.56.7-.78a6.72,6.72,0,0,1,2.28-2.37,13.43,13.43,0,0,1,4.74-1.5,15.67,15.67,0,0,0,4.81-1.65,6.62,6.62,0,0,0,3.57-5.59c-.05-2.6-2.22-3.62-4.52-3.64a9.6,9.6,0,0,0-7.24,3.06,18.77,18.77,0,0,0-4.12,6.57A20.2,20.2,0,0,0,148.3,135.23Z"/><path class="cls-8" d="M110.46,184.13c-2.56,0-5.12.07-7.68,0-3.67-.08-7.37-.3-11-.71-1.38-.16-4.29.06-5.34-1s.09-1.45,1.39-1.56,2.59-.19,3.86-.22c2.45-.07,5,.1,7.4.27,5.79.41,11.71.11,17.47,0,3.8-.1,7.54-.4,11.31-.64,4-.27,7.81-1.24,11.74-1.75,1-.14,11.39-2.78,11.76-1,.42,2-5.36,3.1-6.48,3.29-1.79.31-3.56.77-5.33,1.11-1.35.26-2.73.59-4.08.75-2.33.28-4.77.7-7.09.76-2.09.06-4.15.35-6.26.37-1.57,0-3.1.19-4.67.23C115.14,184,112.8,184.09,110.46,184.13Z"/><path class="cls-8" d="M138.22,186.85c.49-.37.75-.77.24-1.09-.92-.58-3,.23-4,.38-4,.63-7.86.9-11.85,1.16-3.28.21-6.54.26-9.82.52-.8.06-2.72-.17-3.41.27-1.47.94,2.63,1.51,3.08,1.59,2,.35,4,.31,6,.48a45.18,45.18,0,0,0,7.68-.06,35.58,35.58,0,0,0,10.07-2.24A9.91,9.91,0,0,0,138.22,186.85Z"/></svg>