<svg id="Layer_1" data-name="Layer 1" xmlns="http://www.w3.org/2000/svg" xmlns:xlink="http://www.w3.org/1999/xlink" width="7.06cm" height="7.06cm" viewBox="0 0 200 200"><defs><style>.cls-1{fill:none;}.cls-2{fill:#ffc48f;}.cls-3{clip-path:url(#clip-path);}.cls-4{fill:#ff7900;}</style><clipPath id="clip-path"><path class="cls-1" d="M170.8,123a1.44,1.44,0,0,1-.23.5c-1.25,1.63-4.29,2.16-6.08,2.92l-6.55,2.77-13.37,5.65-29.84,12.62-12.22,5.16c-2.13.91-7.81,4.2-9.8,1.68-2.22-2.83-3.09-7.6-4.07-11-3.08-10.6-5.44-19.6-8.41-29.35L71.34,84.86c-.65-2.13-1.3-4.25-2-6.38-.41-1.34-2-4.74-1.48-6s3.28-2.06,4.59-2.62l5.25-2.22,13.81-5.84,28.72-12.15c2.48-1.05,5.15-3,8-2.75,2,.19,2.52,1.71,3.38,3.26l5.19,9.42q7.46,13.56,14.93,27.11,7.16,13,14.33,26c1.25,2.28,2.64,4.54,3.79,6.88C170.31,120.47,171.06,121.95,170.8,123Z"/></clipPath></defs><title>funnel-4</title><path class="cls-2" d="M170.8,123a1.44,1.44,0,0,1-.23.5c-1.25,1.63-4.29,2.16-6.08,2.92l-6.55,2.77-13.37,5.65-29.84,12.62-12.22,5.16c-2.13.91-7.81,4.2-9.8,1.68-2.22-2.83-3.09-7.6-4.07-11-3.08-10.6-5.44-19.6-8.41-29.35L71.34,84.86c-.65-2.13-1.3-4.25-2-6.38-.41-1.34-2-4.74-1.48-6s3.28-2.06,4.59-2.62l5.25-2.22,13.81-5.84,28.72-12.15c2.48-1.05,5.15-3,8-2.75,2,.19,2.52,1.71,3.38,3.26l5.19,9.42q7.46,13.56,14.93,27.11,7.16,13,14.33,26c1.25,2.28,2.64,4.54,3.79,6.88C170.31,120.47,171.06,121.95,170.8,123Z"/><path class="cls-2" d="M150.66,44.85c8.68-.85,17.27,6,21.6,12.19,7.12,10.16,12.43,20.28,7.78,33.1a36.64,36.64,0,0,1-12.51,16.47c-1.86,1.45-5.57,5-7.92,4.26-1-.32-4.08-8.31-4.46-8.12,8.23-4.06,14.19-9.3,15.83-18.83,1.56-9.06-2.33-20.7-11.34-24.5-8.84-3.72-18.69,1.2-25.36,6.9-3.57-2.87-6.54-4.21-4.76-8.1C132,52.81,145.05,45.41,150.66,44.85Z"/><polygon class="cls-2" points="95.59 145.57 34.71 109.28 41.15 96.89 88.57 106.89 95.59 145.57"/><path class="cls-2" d="M40.3,91.49a20.18,20.18,0,0,1,2.18,7.44c.2,4.63-3.82,8.91-7.46,11.17-2.64,1.64-19.56,7.31-16.41-.89A134.74,134.74,0,0,1,25.36,95.3a89.7,89.7,0,0,1,6.16-10.81c1-1.41,1.79-3.52,3.72-2.64,1.31.6,2.2,3.43,2.77,4.75C38.68,88.18,39.53,89.82,40.3,91.49Z"/><g class="cls-3"><path class="cls-4" d="M105.1,57.91A9.25,9.25,0,1,1,93,53,9.24,9.24,0,0,1,105.1,57.91Z"/><path class="cls-4" d="M85.69,84.33a9.25,9.25,0,1,1-12.13-4.93A9.24,9.24,0,0,1,85.69,84.33Z"/><path class="cls-4" d="M127.58,81.09a9.25,9.25,0,1,1-12.12-4.92A9.25,9.25,0,0,1,127.58,81.09Z"/><path class="cls-4" d="M118.74,113.91A9.25,9.25,0,1,1,106.63,109,9.24,9.24,0,0,1,118.74,113.91Z"/><path class="cls-4" d="M98.16,137.56A9.25,9.25,0,1,1,86,132.65,9.25,9.25,0,0,1,98.16,137.56Z"/><path class="cls-4" d="M160.81,88.74a9.25,9.25,0,1,1-12.12-4.92A9.23,9.23,0,0,1,160.81,88.74Z"/><path class="cls-4" d="M158.24,126.2a9.25,9.25,0,1,1-12.13-4.92A9.26,9.26,0,0,1,158.24,126.2Z"/></g></svg>