<svg id="Layer_1" data-name="Layer 1" xmlns="http://www.w3.org/2000/svg" width="7.06cm" height="7.06cm" viewBox="0 0 200 200"><defs><style>.cls-1{fill:#ffdb00;}.cls-2{fill:#3fa9f5;}.cls-3{fill:#7ac943;}.cls-3,.cls-4{fill-rule:evenodd;}.cls-4,.cls-5{fill:#ff7bac;}</style></defs><title>hive-2</title><path class="cls-1" d="M125,72.34c-8-5.78-19.71-8.09-29.35-6.48S78.21,70.33,70.58,76.72c-2.64,2.22-6,5.6-7,9C62.36,90.25,69.07,89.54,72,90c4.3.63,8.62,1,13,1.3,12.23.71,25.1,0,37.17-.9a89.66,89.66,0,0,0,11.2-1.18c7.15-1.49,1.72-8.29-1.41-11.7C130,75.39,127.34,74,125,72.34Z"/><path class="cls-1" d="M74.24,121.35c-4.92-.17-11.43-.14-14.15-3.2-2.47-2.78-2.22-6.32-2.07-9.76a57.81,57.81,0,0,1,1.36-10.79c.68-2.94,1.27-4.75,4.38-4.27,3.86.59,7.73,1.59,11.63,2.08,4.34.54,8.71.65,13.07.88,7.62.4,15.52,0,23.15-.21a154.22,154.22,0,0,0,20-1.59c2.62-.42,5.36-2.43,7.85-.63,2.25,1.63,2.11,4.59,2.36,7.09.54,5.48.33,13.35-3.78,17.45-4.33,4.3-12.25,3.42-17.85,3.7-6.69.33-13.38.16-20.07.09-7.56-.08-15.16.23-22.68-.65C76.54,121.44,75.43,121.39,74.24,121.35Z"/><path class="cls-1" d="M79.14,126.24c-2.35,0-4.69-.14-7-.23a45.38,45.38,0,0,1-5.68-.85c-1.08-.18-3.45-1-4.34-.1-1.82,1.8,4.82,12.29,6.66,13.79,4.68,3.82,12.36,4.4,18.14,4.75a148.24,148.24,0,0,0,21.68-.68c5.4-.48,12-.64,17-2.83a16.2,16.2,0,0,0,7.68-6.54,21.28,21.28,0,0,0,2-4.43c.29-1,1.46-3,.6-3.9-1.11-1.17-5.82.1-7.25.28a51.83,51.83,0,0,1-7,.91C107.44,126.26,93.37,126.4,79.14,126.24Z"/><path class="cls-1" d="M78,149.51c-.92-1.08-3.58-3.33-1-3.82,1.41-.27,3,.47,4.41.63a102.24,102.24,0,0,0,10.66.84c4.3,0,8.42.08,12.68-.28,3.55-.31,7-1.13,10.58-1.43a17.22,17.22,0,0,0,4.43-.63c1.08-.37,2.87-1.15,3.95-.38,1.38,1-3,4.85-3.7,5.44a25.83,25.83,0,0,1-5.51,3.8,37.5,37.5,0,0,1-19,3,36.92,36.92,0,0,1-8.05-1.23,30,30,0,0,1-5.84-2.93A13.21,13.21,0,0,1,78,149.51Z"/><path class="cls-2" d="M97.68,132.62c19.89-5.09,9.26-41.8-11.81-33.12-6.47,2.67-10.54,10.77-11.15,17.5C73.48,130.39,86.24,135.55,97.68,132.62Z"/><path class="cls-3" d="M104.24,53.65a.89.89,0,0,0,.15.74"/><path class="cls-3" d="M104.39,54.39a15.62,15.62,0,0,0,2.64,2.1q2.51,1.78,2.88,1.53.63-.42-2-2.9t-3.36-2a.82.82,0,0,0-.36.5"/><path class="cls-4" d="M127.81,75.75c1.66.12,2.81-.09,3.44-.63s.56-1.54-.3-3.23q-1-3.08-7.81-11.87-7.1-8.19-14.23-3.36-2.16,4.86-.07,8.31a19.72,19.72,0,0,0,13.48,9.73,36.62,36.62,0,0,0,5.49,1.05"/><path class="cls-5" d="M92.05,77c3.47-.76,12.45-3.83,10.48-15a1.41,1.41,0,0,0-1.67-1.14c-3.66.76-13.13,3.83-10.48,15.06A1.4,1.4,0,0,0,92.05,77"/><path class="cls-5" d="M109.81,50.82c2.64,1.57,10.13,4.94,15.48-3.26a1.22,1.22,0,0,0-.39-1.71c-2.76-1.68-10.56-5.34-15.53,3.32a1.21,1.21,0,0,0,.43,1.65"/><path class="cls-5" d="M92.44,44.77c.27,3.52,2.06,12.75,13.27,12.35a1.4,1.4,0,0,0,1.35-1.49c-.24-3.69-2-13.42-13.36-12.37a1.4,1.4,0,0,0-1.26,1.5"/><path class="cls-4" d="M98.55,53.8a14.77,14.77,0,0,1-3,1.1c-1.88.57-2.9.74-3.08.51-.3-.38.59-1.06,2.66-2s3.29-1.23,3.65-.76a.81.81,0,0,1,.17.56.84.84,0,0,1-.37.63"/><path class="cls-4" d="M70.78,66.09a4.61,4.61,0,0,1-2.93-1.62q-.69-.93,1.26-2.84,1.83-2.5,10.71-8.41,8.94-5.3,14,1.27.48,5.07-2.47,7.57a18.87,18.87,0,0,1-15.21,4.74,34.44,34.44,0,0,1-5.31-.71"/></svg>