<svg id="Layer_1" data-name="Layer 1" xmlns="http://www.w3.org/2000/svg" width="7.06cm" height="7.06cm" viewBox="0 0 200 200"><defs><style>.cls-1{fill:#fd9dc1;}.cls-2{fill:#fff;}.cls-3{fill:#fb4a8c;}.cls-3,.cls-4{fill-rule:evenodd;}.cls-4,.cls-5{fill:#9cc183;}</style></defs><title>hive2-3</title><path class="cls-1" d="M130.31,72.85c-9.56-6.9-23.52-9.66-35-7.74s-20.88,5.33-30,13c-3.15,2.65-7.21,6.69-8.32,10.76-1.49,5.39,6.53,4.54,10,5.05,5.13.75,10.29,1.26,15.46,1.55,14.59.85,30,0,44.37-1.07A106.54,106.54,0,0,0,140.15,93c8.54-1.78,2-9.9-1.68-14C136.17,76.48,133,74.82,130.31,72.85Z"/><path class="cls-1" d="M69.66,131.33c-5.88-.2-13.64-.18-16.89-3.82-3-3.32-2.65-7.54-2.47-11.65A69.34,69.34,0,0,1,51.93,103c.81-3.51,1.52-5.67,5.23-5.1,4.61.71,9.23,1.91,13.87,2.49,5.17.64,10.4.78,15.6,1.06,9.1.49,18.52,0,27.64-.25a184.29,184.29,0,0,0,23.91-1.9c3.13-.5,6.4-2.9,9.37-.75,2.69,2,2.52,5.48,2.82,8.47.64,6.53.39,15.93-4.52,20.82-5.16,5.13-14.63,4.09-21.3,4.42-8,.39-16,.19-24,.1-9-.1-18.1.28-27.08-.77C72.4,131.44,71.09,131.38,69.66,131.33Z"/><path class="cls-1" d="M75.51,137.17c-2.8,0-5.6-.17-8.41-.27a55,55,0,0,1-6.77-1c-1.29-.22-4.13-1.17-5.18-.12-2.16,2.15,5.76,14.66,8,16.46,5.58,4.56,14.76,5.25,21.65,5.67a177.27,177.27,0,0,0,25.87-.81c6.45-.57,14.33-.77,20.26-3.37a19.34,19.34,0,0,0,9.17-7.81,25.44,25.44,0,0,0,2.39-5.29c.34-1.18,1.74-3.59.72-4.66-1.33-1.39-7,.12-8.65.33-2.72.35-5.56,1.12-8.31,1.09C109.29,137.19,92.5,137.37,75.51,137.17Z"/><path class="cls-1" d="M74.11,164.95c-1.09-1.3-4.27-4-1.23-4.56,1.69-.33,3.61.56,5.27.75a122.32,122.32,0,0,0,12.73,1c5.14,0,10.05.1,15.13-.34,4.23-.37,8.39-1.35,12.63-1.71a20.68,20.68,0,0,0,5.28-.74c1.29-.45,3.42-1.38,4.71-.46,1.65,1.18-3.58,5.79-4.41,6.5a31,31,0,0,1-6.58,4.54c-7,3.3-15,4.18-22.73,3.53A43.86,43.86,0,0,1,85.29,172a35.63,35.63,0,0,1-7-3.5A15.85,15.85,0,0,1,74.11,164.95Z"/><path class="cls-2" d="M97.64,144.78c23.74-6.07,11-49.89-14.09-39.53-7.73,3.18-12.58,12.86-13.32,20.89C68.75,142.13,84,148.28,97.64,144.78Z"/><path class="cls-3" d="M105.47,50.53a1.05,1.05,0,0,0,.18.89"/><path class="cls-4" d="M105.65,51.41a18.48,18.48,0,0,0,3.16,2.51q3,2.12,3.43,1.82.75-.49-2.33-3.46t-4-2.35a1,1,0,0,0-.42.59"/><path class="cls-4" d="M133.6,76.91q3,.22,4.1-.76t-.36-3.85q-1.17-3.69-9.32-14.17-8.47-9.77-17-4-2.58,5.8-.08,9.92A23.52,23.52,0,0,0,127,75.66a43.53,43.53,0,0,0,6.56,1.26"/><path class="cls-3" d="M105.9,39.1a1,1,0,0,1,.56-.68"/><path class="cls-4" d="M106.46,38.42a18.23,18.23,0,0,1,3.85-.71q3.53-.45,3.78,0,.42.77-3.58,1.91t-4.52.19a1,1,0,0,1-.09-.7"/><path class="cls-4" d="M142.09,29.27q2.65,1.17,3.17,2.52t-2.06,3.14q-2.68,2.63-14.47,7.91-11.73,4.53-16.41-4.3.43-6.15,4.46-8.56a22.87,22.87,0,0,1,19.11-2.63,42.47,42.47,0,0,1,6.2,1.91"/><path class="cls-5" d="M94.18,78.42c4.15-.91,14.86-4.57,12.51-17.87a1.68,1.68,0,0,0-2-1.36c-4.36.91-15.66,4.57-12.5,18a1.67,1.67,0,0,0,2,1.26"/><path class="cls-5" d="M129.88,51.22c2.42,3.45,9.86,11.85,21.14,4.61a1.66,1.66,0,0,0,.48-2.35c-2.5-3.65-10.17-12.59-21.23-4.57a1.66,1.66,0,0,0-.39,2.31"/><path class="cls-4" d="M98.69,50.71A18.09,18.09,0,0,1,95.06,52q-3.36,1-3.67.61-.54-.68,3.17-2.44t4.36-.91a1,1,0,0,1,.2.67,1,1,0,0,1-.43.75"/><path class="cls-4" d="M65.53,65.38q-2.76-.71-3.49-1.93c-.55-.74-.05-1.87,1.5-3.39q2.18-3,12.78-10Q87,43.71,93,51.54q.58,6.05-2.94,9a22.52,22.52,0,0,1-18.15,5.66,41.59,41.59,0,0,1-6.34-.85"/><circle cx="103.67" cy="49.98" r="6.43"/><circle cx="103.03" cy="37.24" r="4.76"/><circle cx="89.39" cy="37.76" r="3.99"/><circle cx="148.83" cy="68.38" r="3.99"/><circle cx="51.17" cy="74.3" r="3.99"/></svg>