<svg id="Layer_1" data-name="Layer 1" xmlns="http://www.w3.org/2000/svg" width="7.06cm" height="7.06cm" viewBox="0 0 200 200"><defs><style>.cls-1,.cls-10{fill:#75baeb;}.cls-1,.cls-2,.cls-3,.cls-4,.cls-7{fill-rule:evenodd;}.cls-2{fill:#1f5880;}.cls-3{fill:#fff;}.cls-4{fill:#406580;}.cls-5,.cls-6,.cls-8{fill:none;}.cls-5{stroke:#406580;stroke-width:2.39px;}.cls-5,.cls-8{stroke-linecap:round;stroke-linejoin:round;}.cls-6{stroke:#75baeb;stroke-miterlimit:10;stroke-width:4.47px;}.cls-7{fill:#231f20;}.cls-8{stroke:#bae39d;stroke-width:3.02px;}.cls-9{fill:#ff88b4;}</style></defs><title>kitten-2</title><path class="cls-1" d="M40.73,66.5q3.87-1.37,9.62-7.35,5.68-5.8,5.21-7.5-.2-.69-9.55-5.4-9.94-5.1-13.85-5.57a130.51,130.51,0,0,0,3.14,14.1q.52,2,5.41,11.6Zm16.82-5.44Q49.22,71.12,41,73.35q-3.82,1-6.68-4.27a66.7,66.7,0,0,0-3.21-7.24,55,55,0,0,1-2.44-6Q27,51.09,26.44,49a16.06,16.06,0,0,1-1.72-6.32q-.29-5.89,5.92-7.59,6.86-1.84,20.8,5.79a104.05,104.05,0,0,1,9,5.62q3.74,2.58,3.82,3,.73,2.7-6.76,11.64"/><path class="cls-2" d="M40.73,66.5l0-.11q-4.89-9.64-5.41-11.6a130.89,130.89,0,0,1-3.13-14.1q3.92.47,13.85,5.57,9.35,4.71,9.55,5.4.47,1.7-5.21,7.5-5.76,6-9.63,7.35"/><path class="cls-1" d="M114,37.18q.19,1.7,7.17,5.29,7.16,3.66,11,3.68V46.1q1.12-11,.92-13a135,135,0,0,0-1.9-14.36q-3.29,1.7-10.52,10-6.76,7.65-6.71,8.42m1.39,9.59q-9.72-5.92-10-8.74,0-.44,2.38-4.15,2.91-4.32,6.27-8.39,9.94-12,16.66-12.59,6.11-.56,7.79,5a17.53,17.53,0,0,1,.6,6.61c.12,1.47.24,3.94.38,7.38a63,63,0,0,1-.22,6.45,77,77,0,0,0-.44,8.06q-.72,5.93-4.52,6.28-8.11.69-18.93-6"/><path class="cls-2" d="M114,37.18q-.05-.77,6.7-8.42,7.24-8.31,10.53-10a136,136,0,0,1,1.89,14.36q.2,2-.92,13v.05q-3.88,0-11-3.68-7-3.59-7.17-5.29"/><path class="cls-1" d="M72.38,113.6c.28-1.27.74-2,1.37-2.33q2.69-1.14,12-.18,17.79.24,23.7,2.15a7.17,7.17,0,0,1,4.84,4.42l2.27,5.25a27.33,27.33,0,0,1,1.79,4.78q2.39,9.67,2.57,11.22.06.66.06,8.66,0,24.29-24.12,24.29-18.21,0-25.79-11a21.44,21.44,0,0,1-4.18-12.36A89.36,89.36,0,0,1,69,128.65q1.56-7.34,2-10,1-3.4,1.31-5"/><path class="cls-3" d="M80.38,115.93a7.62,7.62,0,0,0,.24-2.15,3.78,3.78,0,0,1,.84-2.39A8.16,8.16,0,0,1,85,109.25a17.93,17.93,0,0,1,3.88-1Q103,106.14,105.22,113q.78,1.43,2.63,4.59a19,19,0,0,1,2,4.66q1,4.42,2.57,9.67a35.6,35.6,0,0,1,1,8.54q0,8.06-1.38,11.82-3.7,10.15-15.88,10.15-10.86,0-15.76-5.55-4.12-4.66-4.12-13.43,0-11.7,1.61-18.27c.44-2,.76-3.58,1-4.65a24.18,24.18,0,0,1,1.49-4.6"/><path class="cls-1" d="M94.63,25.76a4.63,4.63,0,0,1,0,1.9,5.61,5.61,0,0,0,0,2.55c.24,1.13,1.31,2,3.22,2.56a13.06,13.06,0,0,1,1.91.69A59.65,59.65,0,0,1,124,39.1q18.56,8.79,22.16,25.9t-9.87,32.58q-13.45,15.51-36.12,20.27t-41.23-4Q40.42,105.1,36.82,88t9.86-32.63a59.63,59.63,0,0,1,21.23-15.5,4.26,4.26,0,0,0,.66-1.66c.08-1.16.18-2.13.3-2.93.29-1.53.72-2.35,1.31-2.47a12.59,12.59,0,0,1,2.74,1.74,12.44,12.44,0,0,0,3.49,2.07q.48-1.2,0-5.07-.42-3.14.69-3.38.58-.12,3,3.45t4.32,3.12a77.26,77.26,0,0,1,4.7-6.36q4.77-5.75,5.43-2.6"/><path class="cls-1" d="M133.5,52.24q2.22-.77,3.59,2.29,1.61,2.16,6.11,2.07,4-.11,4.27,1.17a2,2,0,0,1-.29,1.53c-.19.28-.73,1-1.63,2.11q1.61,1.86,5.61,1.75,3.39-.1,3.74,1.53a2.63,2.63,0,0,1-.81,2.24q-.7.76-2.61,2.68l-.2.22a22.65,22.65,0,0,0,2.86-.91c1.6-.34,2.51.08,2.76,1.25q.28,1.34-2.89,4.51a29.35,29.35,0,0,1-5.59,4.47l-.37.26a3.36,3.36,0,0,1,2.75,0,1.59,1.59,0,0,1,.76,1q.57,2.69-6.77,7.58-7.45,4.3-7.51,4.32a1.71,1.71,0,0,1-1.75-.49,1.9,1.9,0,0,1-.43-.89,68.56,68.56,0,0,0,2-7.18q1.82-7.88.88-12.38-1.05-5-2.08-8.47a16.7,16.7,0,0,0-2.26-4.34,13.29,13.29,0,0,1-1.89-3.75c-.26-1.25.33-2.12,1.77-2.63"/><path class="cls-1" d="M42.77,71.3q2.28-.18,2.67,1.69a13.15,13.15,0,0,1-.21,4.19,16.7,16.7,0,0,0-.32,4.88q.44,3.57,1.5,8.59.94,4.5,5.79,11a68.26,68.26,0,0,0,4.69,5.79,1.87,1.87,0,0,1,0,1,1.71,1.71,0,0,1-1.41,1.15s-2.91-.31-8.61-.94q-8.68-1.53-9.24-4.22a1.57,1.57,0,0,1,.29-1.22,3.38,3.38,0,0,1,2.5-1.14l-.44-.09A29.1,29.1,0,0,1,33,100.13q-4.18-1.62-4.46-3-.37-1.75,2-2.26a22.75,22.75,0,0,0,3-.32l-.27-.13q-2.53-1-3.47-1.41a2.63,2.63,0,0,1-1.64-1.73q-.34-1.64,2.8-2.91,3.71-1.51,4.44-3.86c-1.28-.67-2.06-1.09-2.34-1.27A2,2,0,0,1,32.21,82q-.27-1.28,3.44-2.79,4.15-1.73,4.76-4.36,0-3.36,2.37-3.55"/><path class="cls-4" d="M83.47,81.23q2.38-2.33,9.37-3,6.62-1.88,9.39-.88a3,3,0,0,1,2,2.38c.22,1.06-.56,2.56-2.34,4.52a11.63,11.63,0,0,1-6.13,3.91,14.44,14.44,0,0,1-9.2-1.42c-2.4-.79-3.75-1.69-4-2.69a2.7,2.7,0,0,1,.93-2.82"/><path class="cls-5" d="M68.1,105.06,54.69,121.61m73.49-31.42,17.28,10.52m-83.62.61L40.57,117.74M59.21,93.21l-29.1,11.6M130.66,84.6l26.89,4M132.77,77.26,158.84,75"/><path class="cls-5" d="M84.22,96.45c2.22,1.18,6.6,4.68,13.9,3.13,6.58-1.38,10.07-6.89,11.39-8.82"/><path class="cls-1" d="M82.12,164.58a9.77,9.77,0,0,1,.6,1.14q4.78-4.78,6.09-.06a35.29,35.29,0,0,1,.42,7.1q0,.54-.42,7.1-1.49,6.33-7.1,6.33a7.43,7.43,0,0,1-6.63-3.46q-1.43-3.52-1.43-3.7a67.45,67.45,0,0,1,.42-7.58q.84-7.34,3-7.34a.69.69,0,0,1,.54.3.53.53,0,0,0,.48.3c.2-.16.42-.32.66-.48a2.59,2.59,0,0,1,1.44-.48,2.25,2.25,0,0,1,2,.84"/><path class="cls-1" d="M101.64,168.82q2.15-3.7,5.19-4.42t5.19,2.27q2.39,3.4,2.39,10.44a16,16,0,0,1-.84,5.91q-1.79,4.12-7.17,4.12A6.35,6.35,0,0,1,100,183q-.78-4.18-.78-4.42a19.17,19.17,0,0,1,2.39-9.79"/><path class="cls-1" d="M76,126.08q-12.54,16.23-20.66,16.24-5.79,0-5.79-3.4,0-10.63,13.25-14.27a24.3,24.3,0,0,1,9.07-.84q4.12.42,4.12,2.27"/><path class="cls-1" d="M122.81,131a23.65,23.65,0,0,0,9.06-2q4.65-2,6.13-5.41a5.33,5.33,0,0,0,.32-3.57q-.75-2.93-4.69-4.63-3.29-1.43-12.08,4-7.84,4.86-8.44,6.23-1.16,2.69,2,4.17a15.87,15.87,0,0,0,7.74,1.21"/><path class="cls-1" d="M121.31,170.37q-.8-.64-1.58-1.37-5.43-5.07-5.43-7.7a2.47,2.47,0,0,1,.18-1.08,3.12,3.12,0,0,1,1.61-1.07A.53.53,0,0,0,116,159a1,1,0,0,1-.12-.54q0-.54,4.66,2.27a38.33,38.33,0,0,0,4.09,2.18c-.43,2-.65,3.06-.69,3.13q-.42.84-2.21,3.7l-.39.66m14.8-8.5a22.08,22.08,0,0,1,2.9,6.53,22.07,22.07,0,0,1-.24,5.25,8.74,8.74,0,0,0,.12,1.4l1-.18a21.74,21.74,0,0,1-12-.77,12.1,12.1,0,0,0,1.82-4.33,27.32,27.32,0,0,0,.89-5.85,12.73,12.73,0,0,0,5.58-2.06"/><path class="cls-4" d="M130.53,163.92a27.28,27.28,0,0,1-.9,5.85,12,12,0,0,1-1.82,4.33l-.45-.18-6.06-3.55c.12-.21.25-.43.39-.66q1.79-2.86,2.21-3.7.05-.11.69-3.13a10.71,10.71,0,0,0,4.15,1.16H129a13.48,13.48,0,0,0,1.55-.12m9.32,11-1,.18a9,9,0,0,1-.12-1.4,22,22,0,0,0,.24-5.25,21.93,21.93,0,0,0-2.9-6.54l.15-.09a14.71,14.71,0,0,1,8.36-2.27q2.33,0,3.28,3.22a11.4,11.4,0,0,1,.48,3.28,8.08,8.08,0,0,1-2.63,5.67l-.09.09-.09.09-.08.09-.09.09-.09.09Z"/><path class="cls-4" d="M111.41,92A2.11,2.11,0,0,1,110,93a2.29,2.29,0,0,1-1.78-.36,2.2,2.2,0,0,1-1-1.44,2.25,2.25,0,0,1,1.8-2.76,2.19,2.19,0,0,1,1.71.31,2.3,2.3,0,0,1,1,1.49,2.1,2.1,0,0,1-.37,1.72"/><path class="cls-4" d="M84.95,98.67a2.29,2.29,0,0,1-1.79-.36,2.19,2.19,0,0,1-1-1.44A2.25,2.25,0,0,1,84,94.12a2.35,2.35,0,0,1,2.82,1.78,2.1,2.1,0,0,1-.37,1.73,2.16,2.16,0,0,1-1.49,1"/><circle class="cls-6" cx="115.3" cy="61.97" r="13.95" transform="translate(-10.28 25.04) rotate(-11.87)"/><path class="cls-3" d="M77.61,70.56a11.26,11.26,0,0,0-5.26-7.17,11.66,11.66,0,0,0-12,20,12.42,12.42,0,0,0,9,1.36,11.53,11.53,0,0,0,7.13-5.33,12.34,12.34,0,0,0,1.1-8.87"/><path class="cls-7" d="M69.67,77.95a8.66,8.66,0,0,1-6.89-.42,9.13,9.13,0,0,1-4.44-5.43,8.63,8.63,0,0,1,.52-6.87,9,9,0,0,1,12-4,9.18,9.18,0,0,1,4.44,5.12,9.87,9.87,0,0,1-.23,7,10,10,0,0,1-5.41,4.6"/><path class="cls-3" d="M67.29,75.38a2.13,2.13,0,0,0,1-1.29,1.81,1.81,0,0,0-.2-1.52,1.8,1.8,0,0,0-1.23-1,2.24,2.24,0,0,0-1.58.25A1.85,1.85,0,0,0,64.3,73a2.09,2.09,0,0,0,.18,1.63,2.38,2.38,0,0,0,1.35,1,1.85,1.85,0,0,0,1.47-.27"/><circle class="cls-6" cx="66.27" cy="72.74" r="13.95" transform="translate(-13.54 15.18) rotate(-11.87)"/><path class="cls-3" d="M126.37,60.46a11.25,11.25,0,0,0-5.26-7.17,11.66,11.66,0,0,0-12,20,12.4,12.4,0,0,0,9,1.36,11.5,11.5,0,0,0,7.13-5.33,12.33,12.33,0,0,0,1.1-8.87"/><path class="cls-7" d="M118.43,67.85a8.67,8.67,0,0,1-6.89-.42A9.15,9.15,0,0,1,107.1,62a8.63,8.63,0,0,1,.52-6.87,9.05,9.05,0,0,1,12-4,9.17,9.17,0,0,1,4.44,5.12,9.87,9.87,0,0,1-.23,7,10,10,0,0,1-5.41,4.6"/><path class="cls-3" d="M116.06,65.28A2.13,2.13,0,0,0,117,64a1.83,1.83,0,0,0-.2-1.52,1.8,1.8,0,0,0-1.23-1,2.22,2.22,0,0,0-1.58.25,1.85,1.85,0,0,0-.94,1.17,2.1,2.1,0,0,0,.18,1.63,2.37,2.37,0,0,0,1.35,1,1.84,1.84,0,0,0,1.47-.26"/><circle class="cls-6" cx="115.03" cy="62.65" r="13.95" transform="translate(-10.42 25) rotate(-11.87)"/><path class="cls-8" d="M155.85,108.38c-6.63-.83-15.75,2.5-20.62,7.26a23.67,23.67,0,0,0-6.08,10.58c-1.91,7.61-.25,12.85,4.7,18.5"/><path class="cls-9" d="M151.18,108c-4.75-.17-8.9-5.41-5.48-9.81,3.27-4.21,7.53,0,10.39,2.55-.26-5.15,3.43-11.43,8.9-7.86,4.85,3.17,1.36,7.78-1.19,11.3,3.62-1.49,11-1.81,11.47,4.15.37,4.45-6,6.84-11.25,3.26,1.48,3.34,5.73,7,1.61,10.31-4.72,3.82-7.86-2.79-8.5-6.58-2.28,3-6.44,7.11-10.07,2.55-3.27-4.11.21-8.4,4.11-9.9.13,0,.14,0,0,0"/><path class="cls-10" d="M158.17,102.36a5.4,5.4,0,1,0,5.73,5,5.4,5.4,0,0,0-5.73-5"/></svg>