<svg id="Layer_1" data-name="Layer 1" xmlns="http://www.w3.org/2000/svg" width="7.06cm" height="7.06cm" viewBox="0 0 200 200"><defs><style>.cls-1{fill:#7ac943;fill-rule:evenodd;}</style></defs><title>leaf-1</title><path class="cls-1" d="M154.76,143.19c-.74-1.19-4.29-4.19-10.66-9-6.74-5.1-10.65-7.34-11.69-6.7q-2.69,1.66,7.68,12.25t13.64,8.61a3.53,3.53,0,0,0,1.54-2,3.73,3.73,0,0,0-.52-3.09"/><path class="cls-1" d="M60.76,51.66q-10.23-1.1-14.28,2.12c-2.78,1.83-2.52,6.31.84,13.4q3.62,12.9,30.7,50.17,28.19,34.84,58.4,15.83,9.58-19.81,1.38-34.39-18.38-33.44-54.41-42a147.11,147.11,0,0,0-22.62-5.09"/></svg>