<svg id="Layer_1" data-name="Layer 1" xmlns="http://www.w3.org/2000/svg" width="7.06cm" height="7.06cm" viewBox="0 0 200 200"><defs><style>.cls-1,.cls-9{fill:#decdce;}.cls-1,.cls-2,.cls-3,.cls-4,.cls-6,.cls-7,.cls-8{fill-rule:evenodd;}.cls-2{fill:#fff;}.cls-3{fill:#b99697;}.cls-5{fill:none;stroke:#986466;stroke-linecap:round;stroke-linejoin:round;stroke-width:1.65px;}.cls-6{fill:#986466;}.cls-7{fill:#77bc1f;}.cls-8{fill:#ff7f61;}</style></defs><title>rabbit2-1</title><path class="cls-1" d="M82.73,188.76a55.74,55.74,0,0,0,2.47-14.93c-.24-4.31-1.07-6.68-3.43-7.4a5.27,5.27,0,0,0-4.37.8c-2.12,1.89-3.89,6-5.89,12.61-1,3.17-1.52,8.74.19,11.78C74.57,196.72,81.38,193.19,82.73,188.76Z"/><path class="cls-1" d="M102.4,182.08c-.52,4.85-2.57,16-10.19,11.52q-3-1.78-3.06-6a55.71,55.71,0,0,1,1.73-15c1.42-4.08,2.87-6.13,5.33-6.17a5.27,5.27,0,0,1,4,2C101.72,170.73,102.29,175.19,102.4,182.08Z"/><path class="cls-1" d="M101.79,133.16c5.51,10.14,8.69,23.11,3.65,34.14-5.13,11.25-22,13-30.74,5.43-11.57-10-5.69-27.57-1-39.58Z"/><path class="cls-2" d="M101.24,140.75a31.92,31.92,0,0,1,.67,4.27,39.11,39.11,0,0,1,.33,9.65c-.39,4.23-1.75,8.82-4.47,11.77a11.39,11.39,0,0,1-8.11,3.46,12.15,12.15,0,0,1-11.59-9.35,39.54,39.54,0,0,1-.51-8.84,70.69,70.69,0,0,1,1-12.43"/><path class="cls-1" d="M74.31,80.53c-1.59-6.21-1.23-12.67-3.07-19.06C69,53.67,65.91,46,60.89,39.48c-4.05-5.3-16.38-20.26-25.29-16-8.37,4-2.06,20.52,0,26.06,3,7.86,8.91,15.54,14.85,21.73A58,58,0,0,0,69,84.34"/><path class="cls-2" d="M69.71,76.49c-3.23-8-6-17.46-11.37-24.37-3-3.8-8.53-13.65-13.55-14.59-9.86-1.84,6.89,22.62,9,25.87,4.43,6.83,9.82,12.74,14.59,19.27"/><path class="cls-1" d="M92.33,73.59c1.28-6.29,4.41-12,5.53-18.5,1.37-8,1.92-16.2.26-24.3C96.78,24.25,92.2,5.41,82.33,5.35,73.06,5.28,71.55,22.92,71,28.82c-.75,8.36,1.25,17.86,3.91,26A58,58,0,0,0,85.85,74.69"/><path class="cls-2" d="M90.82,78c-1.49-7.18.25-15.62.38-22.86.16-9.29,1-22.57-3.58-31-3.3-6.06-5.42-1.26-6.25,3.35-3,16.78,2.14,32.35,3.24,48.7"/><path class="cls-1" d="M109.65,140.88c6.93-3.16,13-7.69,16.72-13.7,9.64-15.49,1.38-35-9.55-47.37-11.74-13.33-34.1-16.38-49.37-6.89-14.66,9.11-22,28.62-18,45.51,3.7,15.48,13.58,27.23,30,28.13A67.12,67.12,0,0,0,109.65,140.88Z"/><path class="cls-3" d="M88,120.23q.07.78,2.89,3.17,3.38,2.72,6.34,2.08,3.35-.69,5-4.63a7.72,7.72,0,0,0,.56-4.24,4.94,4.94,0,0,0-.69-1.91q-1.68-1.17-7.61,0a11.45,11.45,0,0,0-5,2.52q-1.68,1.85-1.45,3"/><path class="cls-2" d="M82.16,105.77a9.93,9.93,0,0,0-5.28-6.5A10.44,10.44,0,0,0,68,98.45a10.82,10.82,0,0,0-6.6,5.68,10.23,10.23,0,0,0-.71,8.59,10.82,10.82,0,0,0,5.3,6.76,11.87,11.87,0,0,0,8.86.82,10.4,10.4,0,0,0,6.74-5.56,10.68,10.68,0,0,0,.55-9"/><path class="cls-4" d="M80.2,105.47a8.35,8.35,0,0,0-3.26-6,8.17,8.17,0,0,0-6.32-1.82,9.48,9.48,0,0,0-6,3.27,7.93,7.93,0,0,0-1.81,6.45,8.53,8.53,0,0,0,3.4,6A7.3,7.3,0,0,0,72.49,115a8.47,8.47,0,0,0,7.71-9.58"/><path class="cls-2" d="M69.31,112.42a1.93,1.93,0,0,0,.56.43c2.09,1.13,3.93-2,1.92-3.18A1.88,1.88,0,0,0,69.31,112.42Z"/><path class="cls-2" d="M120.31,96.61A9.94,9.94,0,0,0,115,90.1a10.45,10.45,0,0,0-8.86-.82A10.81,10.81,0,0,0,99.57,95a10.23,10.23,0,0,0-.71,8.59,10.83,10.83,0,0,0,5.3,6.76,11.87,11.87,0,0,0,8.86.82,10.41,10.41,0,0,0,6.74-5.56,10.69,10.69,0,0,0,.55-9"/><path class="cls-4" d="M118.34,96.3a8.35,8.35,0,0,0-3.27-6,8.17,8.17,0,0,0-6.32-1.82,9.48,9.48,0,0,0-6,3.27,7.92,7.92,0,0,0-1.81,6.45,8.54,8.54,0,0,0,3.4,6,7.31,7.31,0,0,0,6.31,1.69,8.47,8.47,0,0,0,7.71-9.58"/><path class="cls-2" d="M107.46,103.25a1.94,1.94,0,0,0,.56.44c2.09,1.13,3.93-2,1.92-3.18A1.88,1.88,0,0,0,107.46,103.25Z"/><path class="cls-5" d="M98.52,135c-.71,5.44-10.47,5.43-11.51.21"/><path class="cls-6" d="M85.69,135c-.58-.49-1.78-1.46-.63-2.08.72-.38,3.92-1.2,4.07.21.07.67-.74,1.61-1.21,2C87.18,135.82,86.44,135.61,85.69,135Z"/><path class="cls-6" d="M97.28,135.32c-.37-.66-1.13-2,.15-2.17.81-.11,4.09.28,3.73,1.65-.17.65-1.27,1.25-1.85,1.47C98.38,136.62,97.76,136.17,97.28,135.32Z"/><path class="cls-7" d="M127.27,147.38a9,9,0,0,1-2.51-.14q-3.88-.2-3.27-2.11a2.08,2.08,0,0,0,.4-.17l.23-.43q2.41-.4,5.55-1,1-.3,2.11-.73a34,34,0,0,0,15.8-10.4q2.29-2.72,6.62-11.84,3.9-8,4.32-7.76,1.8,1,.77,5.67-1.45,4.25-1.48,4.31-3.92,10.57-11.19,16.65,2.66-.9,4.87-1.82a86.92,86.92,0,0,0,11.13-7q7.05-5.08,7.12-5a1.78,1.78,0,0,1,.86,1.94c-.22.9-.34,1.39-.39,1.47q-3.39,9.41-26.05,15.9a54.14,54.14,0,0,1-14.88,2.55"/><path class="cls-8" d="M125.45,152q.83,4,1.93,1.31l-.09-2.72q-.29-3-1.23-3.38a.72.72,0,0,0-1.08.45c.12,1.69.28,3.13.48,4.35m-7.12-18.31a9.11,9.11,0,0,1,9.33,3.26,17.22,17.22,0,0,1,3.39,6.71,25.58,25.58,0,0,1,.31,10.48q-.89,6.44-14.71,6.56a3.84,3.84,0,0,0-.83,0,.48.48,0,0,0-.08-.34,39.1,39.1,0,0,0-1.58-4.76l-.41-.1-.17.23a35.48,35.48,0,0,0,.69,4.91q-5.19-.06-9.17-.51a27.23,27.23,0,0,0-.91-3.09q-1.22-4.53-2.61-5.14a.47.47,0,0,0-.72.3,10.25,10.25,0,0,0,.65,2.43,16.84,16.84,0,0,1,.7,3.61c.13.52.27,1,.41,1.56a32.06,32.06,0,0,1-6.22-1.36q-4.31-1.51-5.56-3.75a3,3,0,0,1-.48-2.67q1.27-3.5,8.38-8,3.74-2.26,10.17-6a.63.63,0,0,1,.14.21q1.31,3,2.22,3.36l.29-.72a14.86,14.86,0,0,0-.81-3.34,3.67,3.67,0,0,1-.16-.53,30.07,30.07,0,0,1,5.37-2.62l1.48,4.26q2.14,5.39,2.91,3.5s-.3-1.48-.83-4.58a24.35,24.35,0,0,0-1.21-3.83"/><path class="cls-2" d="M125.45,152c-.2-1.22-.36-2.66-.48-4.35a.72.72,0,0,1,1.08-.45q.95.42,1.23,3.38l.09,2.72q-1.1,2.73-1.93-1.31m-9.63,8.72a11.09,11.09,0,0,0-1.54-.06,35.48,35.48,0,0,1-.69-4.91l.17-.23.41.1a39.1,39.1,0,0,1,1.58,4.76.48.48,0,0,1,.08.34m-13.19-.9c-.14-.52-.28-1-.41-1.56a16.84,16.84,0,0,0-.7-3.61,10.25,10.25,0,0,1-.65-2.43.47.47,0,0,1,.72-.3q1.39.61,2.61,5.14a27.23,27.23,0,0,1,.91,3.09,20.77,20.77,0,0,1-2.47-.33m8-22.86a3.67,3.67,0,0,0,.16.53,14.86,14.86,0,0,1,.81,3.34l-.29.72q-.91-.32-2.22-3.36a.63.63,0,0,0-.14-.21l.86-.47a4.25,4.25,0,0,1,.82-.56m7.72-3.27a24.35,24.35,0,0,1,1.21,3.83q.8,4.65.83,4.58-.76,1.89-2.91-3.5L116,134.37l1.09-.29a3.52,3.52,0,0,0,.84-.24,2.38,2.38,0,0,0,.42-.12"/><path class="cls-9" d="M72.81,156.34a10.85,10.85,0,0,0,1.67,1.7,18.66,18.66,0,0,0,11.72,4.33c2.9,0,8.82-.3,9.94-3.82,1.52-4.77-4.76-5.6-7.67-5.87a36.85,36.85,0,0,1-7.92-1.76c-2.55-.82-6.3-4.19-8.63-1.14C70.32,151.86,71.31,154.43,72.81,156.34Z"/><path class="cls-1" d="M111.64,155.46c-3.08,1.55-4.27,5.95-.83,7.86,3.68,2.06,12.14-1.05,7.91-5.9C117.14,155.6,113.91,154.32,111.64,155.46Z"/></svg>