<svg id="Layer_1" data-name="Layer 1" xmlns="http://www.w3.org/2000/svg" xmlns:xlink="http://www.w3.org/1999/xlink" width="7.06cm" height="7.06cm" viewBox="0 0 200 200"><defs><style>.cls-1,.cls-7{fill:none;}.cls-2{clip-path:url(#clip-path);}.cls-3{fill:#61a3c6;}.cls-3,.cls-4,.cls-5,.cls-6{fill-rule:evenodd;}.cls-4{fill:#fff;}.cls-5{fill:#f9acae;}.cls-6{fill:#5e5e5e;}.cls-7{stroke:#5e5e5e;stroke-linecap:round;stroke-linejoin:round;stroke-width:2.55px;}</style><clipPath id="clip-path"><path class="cls-1" d="M190,100a90,90,0,1,1-90-90A90,90,0,0,1,190,100Z"/></clipPath></defs><title>rabbit-2</title><g class="cls-2"><path class="cls-3" d="M124,161.6s7.51,16.86,6.61,33.61c0,0-20.86,2.19-49.39-3.68a88.43,88.43,0,0,1,8.35-32.64Z"/><path class="cls-4" d="M123.51,169.19a33.5,33.5,0,0,1,.49,5,40.91,40.91,0,0,1-.45,11.26c-.9,4.88-3.1,10.09-6.92,13.24a15.86,15.86,0,0,1-10.91,3.2c-6.34-.42-13-5.16-14.28-12.07-.61-3.4-.12-6.93.15-10.35A73.86,73.86,0,0,1,94,165.14"/><path class="cls-3" d="M86.13,112c-5-4.66-8.46-10.66-13.83-15.33C65.76,91,58.57,86,50.25,83c-6.72-2.41-26.47-8.68-32,.29C13,91.7,28.31,102.88,33.41,106.64c7.22,5.34,17,8.78,25.95,10.89a62.07,62.07,0,0,0,24.19,1"/><path class="cls-4" d="M79.66,111.09c-7.57-5.34-15.51-12.2-24.36-15.28-4.86-1.69-15.58-7.3-20.63-5.23-9.92,4.08,19.31,16.31,23.09,18,7.94,3.55,16.21,5.74,24.28,8.83"/><path class="cls-3" d="M98.28,95.35c-2.51-6.38-3-13.29-5.78-19.82-3.41-8-7.68-15.66-13.87-22-5-5.09-20-19.34-28.94-13.68-8.36,5.32.53,22,3.47,27.64,4.18,7.95,11.49,15.31,18.62,21.1A62,62,0,0,0,93.1,100.1"/><path class="cls-4" d="M99.46,100.14C94,94.56,90.62,86,86.53,79.4,81.29,71,74.34,58.56,65.32,53.66c-6.48-3.53-5.59,2-3.67,6.64,7,16.83,20.7,27.8,31.18,41.83"/><path class="cls-3" d="M152.9,145.69c4.39-6.86,7.19-14.44,7.06-22-.34-19.5-19.06-32.18-36.08-37-18.27-5.15-40.12,5.09-48.31,22.47-7.87,16.7-3.13,38.47,10.29,51.29,12.3,11.75,28,16.56,43.29,7.81A71.78,71.78,0,0,0,152.9,145.69Z"/><path class="cls-5" d="M118.84,137.83q.44.71,4.3,1.61c3,.62,5.38.26,7.05-1.11,1.9-1.52,2.73-3.79,2.49-6.83a8.27,8.27,0,0,0-1.54-4.31c-.8-.93-1.33-1.42-1.58-1.48q-2.16-.3-7.24,3.71a12.22,12.22,0,0,0-3.55,4.85c-.47,1.72-.43,2.91.09,3.57"/><path class="cls-4" d="M87.86,124a10.63,10.63,0,0,0-2.43,8.62,11.18,11.18,0,0,0,4.75,8.24,11.57,11.57,0,0,0,9,2.26,10.94,10.94,0,0,0,7.93-4.67,11.58,11.58,0,0,0,2.64-8.8,12.7,12.7,0,0,0-4.75-8.24A11.13,11.13,0,0,0,96,119a11.42,11.42,0,0,0-8.17,5"/><path class="cls-6" d="M90.93,121.28a8.93,8.93,0,0,0-3.25,6.56A8.73,8.73,0,0,0,90,134.49a10.14,10.14,0,0,0,6.56,3.25,8.49,8.49,0,0,0,6.75-2.39,9.13,9.13,0,0,0,3.16-6.68,7.81,7.81,0,0,0-2.42-6.54,9,9,0,0,0-13.11-.84"/><path class="cls-4" d="M100.72,134a2.11,2.11,0,0,0,0-.76c-.3-2.51-4.17-2.2-4,.28A2,2,0,0,0,100.72,134Z"/><path class="cls-4" d="M117,99.79a10.63,10.63,0,0,0-2.43,8.62,11.17,11.17,0,0,0,4.75,8.24,11.57,11.57,0,0,0,9,2.26,11,11,0,0,0,7.93-4.67,11.57,11.57,0,0,0,2.64-8.8,12.71,12.71,0,0,0-4.75-8.24,11.14,11.14,0,0,0-9-2.46,11.42,11.42,0,0,0-8.17,5"/><path class="cls-6" d="M120.11,97.07a8.94,8.94,0,0,0-3.25,6.56,8.74,8.74,0,0,0,2.31,6.64,10.13,10.13,0,0,0,6.56,3.24,8.47,8.47,0,0,0,6.75-2.39,9.12,9.12,0,0,0,3.16-6.67,7.81,7.81,0,0,0-2.42-6.55,9,9,0,0,0-13.11-.83"/><path class="cls-4" d="M129.89,109.74a2.1,2.1,0,0,0,0-.76c-.3-2.52-4.17-2.21-4,.28A2,2,0,0,0,129.89,109.74Z"/><path class="cls-7" d="M129.11,152.54c-1.9,5.55-12.12,3.45-12.1-2.24"/><path class="cls-6" d="M115.67,149.81c-.51-.63-1.55-1.91-.22-2.31.84-.25,4.36-.42,4.22,1.09-.06.71-1.11,1.53-1.69,1.87C117.05,151,116.32,150.62,115.67,149.81Z"/><path class="cls-6" d="M127.74,152.63c-.24-.77-.76-2.34.62-2.24.87.06,4.22,1.17,3.55,2.52-.32.65-1.59,1-2.25,1.15C128.61,154.23,128.06,153.62,127.74,152.63Z"/></g></svg>