<svg id="Layer_1" data-name="Layer 1" xmlns="http://www.w3.org/2000/svg" width="7.06cm" height="7.06cm" viewBox="0 0 200 200"><defs><style>.cls-1{fill:#ff8d26;}.cls-1,.cls-2,.cls-3,.cls-4,.cls-5,.cls-6{fill-rule:evenodd;}.cls-2{fill:#b89495;}.cls-3{fill:#e8e2e3;}.cls-4,.cls-8{fill:#804042;}.cls-5{fill:#fff;}.cls-6{fill:#c1a1a2;}.cls-7{fill:none;stroke:#804042;stroke-linecap:round;stroke-linejoin:round;stroke-width:2.55px;}</style></defs><title>squirrel-3</title><path class="cls-1" d="M52.93,54.41a22,22,0,0,1,4.52-12Q72.63,21.78,100,30.55a49.62,49.62,0,0,1,20.55,12,41.07,41.07,0,0,1,11.88,19.9Q137,81.73,121.9,98.66q-14.74,16.15-34.59,16.83-.33,0-12.37-.36c-5-.18-20.29-.75-19.46,7.42a6.14,6.14,0,0,0,5.59,5.22A42.65,42.65,0,0,1,56.51,134a8.67,8.67,0,0,1-3.6-.46C44,131.16,36.45,120.75,39.31,111.1c3.19-10.78,16.47-11.74,24.37-17.6Q74,85.82,67.91,76.55a29.48,29.48,0,0,0-5.16-5.2,73.76,73.76,0,0,1-5.58-4.85q-4.85-4.61-4.24-12.08"/><path class="cls-2" d="M63.73,47.22a3.44,3.44,0,0,0-3.23,0q-4.26,1.33-4.29,5.59T60.86,58q5.15,1.16,6.52-3.94t-3.65-6.87"/><path class="cls-2" d="M74,35.41q1.42-4.05,5.14-3.45a5,5,0,0,1,4.67,4.46,4.48,4.48,0,0,1-.38,2.88q-2.22,4.27-6.58,2.38T74,35.41"/><path class="cls-2" d="M73.07,48.29l-.29.35q-1.9,2.39-.2,4.54a3.59,3.59,0,0,0,4.56,1q3.59-1.59,1.09-5.28t-5.16-.65"/><path class="cls-2" d="M88.12,32l-.28.35a3.24,3.24,0,0,0,0,4.58,3.32,3.32,0,0,0,4.36,1q3.59-1.59,1.22-5.36T88.12,32"/><path class="cls-2" d="M110.09,41.27l-.29.35a3.42,3.42,0,0,0-.12,4.66,3.54,3.54,0,0,0,4.48.92q3.59-1.59,1.09-5.28t-5.17-.65"/><path class="cls-2" d="M68.85,44.84c2.07-.85,2.39-2.31,1-4.36s-2.75-2.29-4.25-.55l-.36.23a3.17,3.17,0,0,0-.06,3.95,2.77,2.77,0,0,0,3.69.74"/><path class="cls-2" d="M103.82,35.37l-.4-.09a2.84,2.84,0,0,0-3.59,1.58,2.8,2.8,0,0,0,.82,3.73q2.53,2.14,4.49-1t-1.33-4.26"/><path class="cls-2" d="M96.7,42.4l-.27-.17a2.52,2.52,0,0,0-3.33.91,2.41,2.41,0,0,0,.32,3.2q1.9,2.2,3.91-.26c1.34-1.63,1.14-2.87-.62-3.68"/><path class="cls-2" d="M122.41,49l-.2,0a2.51,2.51,0,0,0-3.33.91,2.4,2.4,0,0,0,.19,3.27q1.9,2.21,4-.33t-.7-3.81"/><path class="cls-2" d="M126.28,62.66l-.08-.12a2.19,2.19,0,0,0-2.14-2,2.33,2.33,0,0,0-2.28,1.78q-.74,2.33,2,2.64t2.49-2.25"/><path class="cls-2" d="M127.59,72l0-.2c-.19-1-.73-1.52-1.63-1.52a1.67,1.67,0,0,0-1.75,1.27c-.4,1.17.1,1.87,1.5,2.12s2.09-.36,1.83-1.66"/><path class="cls-2" d="M84.81,59.92l-.08-.12a2.18,2.18,0,0,0-2.14-2,2.34,2.34,0,0,0-2.28,1.77c-.49,1.56.18,2.44,2,2.64s2.74-.59,2.49-2.25"/><path class="cls-2" d="M87.23,44.63l-.4-.09a2.64,2.64,0,0,0-3.58,1.06,2.85,2.85,0,0,0,.3,3.71q2,2.44,4.35-.37t-.69-4.32"/><path class="cls-2" d="M113.21,50l-.4-.09A2.63,2.63,0,0,0,109.24,51a2.85,2.85,0,0,0,.3,3.71q2.05,2.45,4.35-.37T113.21,50"/><path class="cls-2" d="M69.9,61.33l-.28-.16a2.67,2.67,0,0,0-3.45,1,2.63,2.63,0,0,0,.27,3.39q2,2.32,4.11-.21t-.66-4"/><path class="cls-3" d="M134.91,170.08q14.15.37,20.17-8.7,5.82-8.75,1.08-22-4.95-13.36-9.22-19.06a24.12,24.12,0,0,0-17.49-10.49q-12.76-1.53-23,7.44-10.68,9.26-8.2,22a36.29,36.29,0,0,0,12.62,21.94,37.76,37.76,0,0,0,24,8.85"/><path class="cls-3" d="M136.67,95.93a13.15,13.15,0,0,0-3.18,5.44q-.53,1.5-3.23,14.48,4.17,2.94,11.25-7.43t1-13.36a4.92,4.92,0,0,0-5.84.86"/><path class="cls-3" d="M101.88,106.37q.33,1.6,3.74,14.25,5.11.83,6.72-11.71T107,96.7a4.65,4.65,0,0,0-4.71,3.32,11.69,11.69,0,0,0-.37,6.35"/><path class="cls-4" d="M158.5,149.48a13.57,13.57,0,0,0-5.78.19q-4.14.8-4.6,2.94-.4,1.66,2.38,4c1.76,1.56,3.21,2.36,4.37,2.41q3.24,0,5.62-4.18t-2-5.41"/><path class="cls-5" d="M136.3,140.19a6.56,6.56,0,0,1-4.7,8.31,6.37,6.37,0,0,1-5.16-.74,6.25,6.25,0,0,1-3-4.07,6,6,0,0,1,.69-5.06,6.37,6.37,0,0,1,4-3.15,6.19,6.19,0,0,1,5.16.69,6,6,0,0,1,3,4"/><path class="cls-4" d="M136.76,140a5.05,5.05,0,0,0-1.78-3.61,4.65,4.65,0,0,0-3.71-1.21,5.08,5.08,0,0,0-3.61,1.78,4.66,4.66,0,0,0-1.2,3.71,5.05,5.05,0,0,0,1.78,3.61,4.89,4.89,0,0,0,3.71,1.2,5.06,5.06,0,0,0,3.6-1.78,4.91,4.91,0,0,0,1.2-3.71"/><path class="cls-5" d="M130.55,142.14c0-.6-.42-.88-1.15-.83s-1,.43-.83,1.15.43,1,1.14.83,1-.43.84-1.15"/><path class="cls-3" d="M61.69,124.26a14.51,14.51,0,0,1,8.38-2.54q4.55,0,6.72,1.78T84,132.07a16.42,16.42,0,0,0,9.11,6.29,6.27,6.27,0,0,0,4.79-.66q1.53-.85,4,1.46a8.3,8.3,0,0,1,.86,1.85,22.73,22.73,0,0,0,1.93,3.64,40.09,40.09,0,0,0,2,3.79,7.28,7.28,0,0,1,1.18,3.3q.13,3.19-5.51,6.3a26.49,26.49,0,0,1-11.66,3.24Q73.15,162,62,154.74c-4.7-3.09-7.42-6.16-8.78-11.54s.68-10.09,3.49-14.61q1.08-1.88,5-4.34"/><path class="cls-3" d="M94.83,159.19a3.54,3.54,0,0,1,1.49-3.41q1.12-.88,3.14,0,.86-.66,3.79,1.78,4.44,3.65,4.59,7.26a6.19,6.19,0,0,1-.38,2.33,3.4,3.4,0,0,1-3.11,2.21,6.56,6.56,0,0,1-5.55-2.5,9.11,9.11,0,0,1-2.31-2.79,11.33,11.33,0,0,1-1.66-4.91"/><path class="cls-3" d="M93.43,167.37a6.4,6.4,0,0,1-.37,2.48,3.2,3.2,0,0,1-3,2.22q-4,.16-6.77-5.39a16.67,16.67,0,0,1-2-6,4,4,0,0,1,2-3.74q2.66-1.73,6,2.59,4,4.71,4.14,7.85"/><path class="cls-3" d="M66,163.69a9.06,9.06,0,0,1-.4,3.16,4,4,0,0,1-3.87,2.93q-2.51.1-4-2.77l-1-2.94a25.44,25.44,0,0,1-.08-9.79q.91-4.7,4-4.62,1.89,0,3.72,6.51A34.92,34.92,0,0,1,66,163.69"/><path class="cls-6" d="M136.4,140.19a6,6,0,0,0-3-4,6.21,6.21,0,0,0-5.16-.68,6.36,6.36,0,0,0-4,3.15,6,6,0,0,0-.69,5.06,6.19,6.19,0,0,0,3,4.07,6.37,6.37,0,0,0,5.17.74,6.56,6.56,0,0,0,4.69-8.31m-1-4.49.11.12a12.35,12.35,0,0,1,.78,1.07l.17.25a12.28,12.28,0,0,1,1,1.92,11.78,11.78,0,0,1,.66,2.23,12.67,12.67,0,0,1,.2,1.8,9,9,0,0,1-.91,4.8l-.24.48a.73.73,0,0,1-.07.13,12.72,12.72,0,0,1-1.29,1.23l-.53.5a8,8,0,0,1-3,1.11l-2.41.09c-.44-.09-.91-.16-1.43-.23a10.07,10.07,0,0,1-5-2.66,7.76,7.76,0,0,1-2.41-5.3,11,11,0,0,1,1.28-6A7.91,7.91,0,0,1,128,133.4l2-.08a12.35,12.35,0,0,1,4,1.26,7.72,7.72,0,0,1,1.4,1.12"/><path class="cls-5" d="M152,134.29a6.56,6.56,0,0,1-4.7,8.31,6.36,6.36,0,0,1-5.16-.74,6.22,6.22,0,0,1-3-4.07,6,6,0,0,1,.69-5.06,6.36,6.36,0,0,1,4-3.15,6.2,6.2,0,0,1,5.16.69,6,6,0,0,1,3,4"/><path class="cls-4" d="M152.48,134.08a5,5,0,0,0-1.78-3.6,4.64,4.64,0,0,0-3.71-1.21,5.07,5.07,0,0,0-3.61,1.78,4.66,4.66,0,0,0-1.2,3.71,5.06,5.06,0,0,0,1.78,3.61,4.91,4.91,0,0,0,3.71,1.2,5,5,0,0,0,3.6-1.78,4.93,4.93,0,0,0,1.2-3.71"/><path class="cls-5" d="M146.27,136.23q-.06-.9-1.14-.83c-.73,0-1,.43-.84,1.14s.43,1,1.15.83,1-.43.83-1.15"/><path class="cls-6" d="M152.12,134.29a6,6,0,0,0-3-4,6.21,6.21,0,0,0-5.16-.68,6.34,6.34,0,0,0-4,3.15,6,6,0,0,0-.69,5.06,6.19,6.19,0,0,0,3,4.07,6.35,6.35,0,0,0,5.17.74,6.56,6.56,0,0,0,4.69-8.31m-1-4.49.11.12A13.2,13.2,0,0,1,152,131c.06.09.12.17.17.25a12,12,0,0,1,1,1.92,11.7,11.7,0,0,1,.66,2.23,12.53,12.53,0,0,1,.2,1.8,10,10,0,0,1-.2,2.84,10.29,10.29,0,0,1-.71,2l-.24.48-.08.13a12.39,12.39,0,0,1-1.28,1.23l-.53.5a7.88,7.88,0,0,1-3,1.11l-2.41.1c-.44-.09-.91-.17-1.42-.23a10.11,10.11,0,0,1-5-2.66,7.78,7.78,0,0,1-2.41-5.3,11.05,11.05,0,0,1,1.28-6,7.89,7.89,0,0,1,5.61-3.89l2-.08a12.25,12.25,0,0,1,4,1.25,7.49,7.49,0,0,1,1.4,1.12"/><path class="cls-7" d="M134.32,159.49c-.48,1.67,0,4.06,1.36,5.12s4.31,1,5-.76"/><path class="cls-8" d="M134.84,160.08a10,10,0,0,0,2.67-1.95c-.75-.89-5.2-1.85-4.86.31C132.94,160.26,133.87,160.45,134.84,160.08Z"/></svg>