<svg id="Layer_1" data-name="Layer 1" xmlns="http://www.w3.org/2000/svg" width="7.06cm" height="7.06cm" viewBox="0 0 200 200"><defs><style>.cls-1,.cls-2{fill:#ffce00;}.cls-2{fill-rule:evenodd;}</style></defs><title>stalk-3</title><path class="cls-1" d="M99.95,180.07A2.93,2.93,0,0,1,97,177.14V22.86a2.94,2.94,0,1,1,5.87,0V177.14A2.93,2.93,0,0,1,99.95,180.07Z"/><path class="cls-2" d="M52.74,93.06c0-1.34,1.63-2.19,4.77-2.54Q62.7,89,81.19,90.46,99.1,92.8,98.94,107.15q-4.77,7.47-11.5,7.73-15.36.74-25.91-9.8A59.69,59.69,0,0,1,55,98.41q-2.54-3.28-2.28-5.35"/><path class="cls-2" d="M147.26,93.27q.26,2.06-2.28,5.35a59.22,59.22,0,0,1-6.52,6.67q-10.54,10.55-25.9,9.8-6.73-.27-11.5-7.74Q100.9,93,118.81,90.68q18.49-1.43,23.68.05c3.14.35,4.73,1.2,4.77,2.54"/><path class="cls-2" d="M87.44,153.76q-15.36.74-25.91-9.8A59.77,59.77,0,0,1,55,137.28q-2.54-3.28-2.28-5.35c0-1.34,1.62-2.19,4.77-2.54q5.19-1.49,23.68-.06Q99.1,131.67,98.94,146q-4.77,7.48-11.5,7.74"/><path class="cls-2" d="M147.26,132.15q.26,2.06-2.28,5.35a58.5,58.5,0,0,1-6.52,6.68q-10.54,10.55-25.9,9.8-6.73-.26-11.5-7.73-.16-14.36,17.75-16.69,18.49-1.43,23.68,0,4.72.53,4.77,2.55"/></svg>