<svg id="Layer_1" data-name="Layer 1" xmlns="http://www.w3.org/2000/svg" width="7.06cm" height="7.06cm" viewBox="0 0 200 200"><defs><style>.cls-1{fill:#8abbd5;}.cls-1,.cls-2,.cls-3{fill-rule:evenodd;}.cls-2{fill:#ffaa96;}.cls-3{fill:#ff9433;}</style></defs><title>Sunflower-1</title><path class="cls-1" d="M42.44,89.73a51.09,51.09,0,0,1,13-1.62c4.84,0,7.83.17,9,.54s1.72,1.29,1.7,2.79q-.36,4.14-.51,8.13l-1.32,7.57q-1.16,2.41-2,2.57c-.71-.12-1.3-.25-1.76-.37q-2.43,0-5.29-.07a57.42,57.42,0,0,1-9.82-1q-10.47-2.13-11.87-8.78t9-9.76"/><path class="cls-1" d="M54.48,63.6a50.8,50.8,0,0,1,12.21,4.63q6.41,3.39,7.68,4.69c.85.86.91,2,.19,3.27q-2.25,3.49-4.27,6.95L65.58,89.2q-2.15,1.6-3,1.32-.85-.66-1.38-1.15c-1.43-.76-3-1.61-4.64-2.54a57.62,57.62,0,0,1-8.21-5.48Q40.11,74.54,42,68T54.48,63.6"/><path class="cls-1" d="M77,46.47a50.73,50.73,0,0,1,8.65,9.78q4.09,6,4.62,7.72c.35,1.16-.1,2.15-1.35,3q-3.63,2-7,4.17l-7,3.16c-1.77.27-2.86.19-3.27-.23-.3-.66-.53-1.21-.69-1.66q-1.37-2-2.92-4.41a57.75,57.75,0,0,1-4.72-8.67q-4.13-9.85.57-14.75T77,46.47"/><path class="cls-1" d="M105.11,40.6a51.34,51.34,0,0,1,3.12,12.79q.84,7.27.5,9.06c-.23,1.2-1.11,1.88-2.61,2-2.79.08-5.53.21-8.21.43l-7.73-.46q-2.55-.88-2.81-1.74c0-.72.1-1.33.17-1.81-.19-1.63-.37-3.4-.53-5.31a57.5,57.5,0,0,1-.14-10q.94-10.74,7.43-12.9t10.81,7.85"/><path class="cls-1" d="M131.9,49.23A51.43,51.43,0,0,1,128.82,62q-2.57,6.84-3.7,8.28t-3.24.61q-3.78-1.81-7.49-3.38l-6.67-3.94c-1.25-1.3-1.81-2.24-1.7-2.84q.55-.93,1-1.53c.58-1.53,1.23-3.18,2-5a57.36,57.36,0,0,1,4.43-8.91q5.74-9.12,12.51-8.07t6,11.93"/><path class="cls-1" d="M151.89,69.39a51.51,51.51,0,0,1-8.63,9.94q-5.44,4.89-7.11,5.64c-1.11.51-2.16.18-3.16-.95q-2.52-3.36-5.09-6.46L123.8,71c-.51-1.73-.57-2.83-.2-3.3.62-.39,1.14-.69,1.58-.91q1.83-1.63,4-3.5a57.21,57.21,0,0,1,8-5.86q9.3-5.45,14.82-1.4t-.16,13.37"/><path class="cls-1" d="M159.92,95.67a50.66,50.66,0,0,1-12,5.1q-7,2-8.79,1.93c-1.21,0-2-.78-2.4-2.23-.52-2.72-1.1-5.37-1.72-8l-.78-7.64c.3-1.76.72-2.77,1.26-3q1.07-.11,1.8-.12,2.34-.67,5.11-1.37a57.39,57.39,0,0,1,9.71-1.73q10.65-.78,13.8,5.22t-6,11.83"/><path class="cls-1" d="M155.57,123.51a51,51,0,0,1-13-1q-7.11-1.45-8.69-2.33t-1.11-3.08q1.18-4,2.13-7.87l2.81-7.15q1.62-2.13,2.51-2.11c.67.27,1.22.5,1.65.72q2.39.48,5.16,1.13a57,57,0,0,1,9.42,2.93q9.83,4.19,9.87,11t-10.73,7.77"/><path class="cls-1" d="M138.11,147a51.07,51.07,0,0,1-11-7.23q-5.57-4.74-6.54-6.3t.53-3.26q3-2.94,5.72-5.9l6-4.94q2.47-1.1,3.24-.64c.46.56.83,1,1.11,1.43q1.86,1.6,4,3.52a57.42,57.42,0,0,1,6.88,7.19q6.63,8.5,3.35,14.5T138.11,147"/><path class="cls-1" d="M111.69,159.3a50.8,50.8,0,0,1-6.26-11.46q-2.67-6.74-2.79-8.55t2-2.61q4-1.18,7.76-2.5l7.53-1.54q2.67.19,3.13,1c.14.71.24,1.3.3,1.78q.89,2.27,1.87,4.95a57.64,57.64,0,0,1,2.68,9.49q1.84,10.53-3.82,14.26t-12.37-4.75"/><path class="cls-1" d="M82.57,157.53a51.07,51.07,0,0,1,0-13.06q.87-7.2,1.62-8.85t3-1.35q4.07.86,8,1.5l7.35,2.23q2.25,1.43,2.3,2.33c-.21.68-.41,1.25-.58,1.7q-.3,2.42-.71,5.24a57.59,57.59,0,0,1-2.17,9.63Q97.94,167,91.17,167.61t-8.6-10.08"/><path class="cls-1" d="M57.8,142A50.9,50.9,0,0,1,64,130.49q4.2-5.91,5.65-7t3.27.24q3.17,2.69,6.33,5.13l5.4,5.46q1.3,2.34.91,3.14c-.51.51-1,.92-1.32,1.22q-1.41,2-3.12,4.27a57.19,57.19,0,0,1-6.5,7.42q-7.81,7.29-14,4.58T57.8,142"/><path class="cls-1" d="M43.35,116.88a50.76,50.76,0,0,1,10.89-7.21q6.49-3.23,8.29-3.5c1.2-.19,2.12.4,2.77,1.75q1.51,3.87,3.15,7.52l2.17,7.37c0,1.78-.2,2.85-.68,3.2-.69.2-1.27.35-1.75.45q-2.18,1.08-4.77,2.28a57.25,57.25,0,0,1-9.23,3.47q-10.33,2.73-14.53-2.61t3.7-12.72"/><path class="cls-2" d="M100,58.82a43.6,43.6,0,0,1,43.58,43.57A43.61,43.61,0,0,1,100,146,43.6,43.6,0,0,1,56.4,102.39,43.6,43.6,0,0,1,100,58.82"/><path class="cls-3" d="M81.32,121.2a5.52,5.52,0,0,1,4.05,1.7,5.69,5.69,0,0,1,0,8.23,5.53,5.53,0,0,1-4.05,1.69,5.62,5.62,0,0,1-4.12-1.69,5.85,5.85,0,0,1,0-8.23,5.61,5.61,0,0,1,4.12-1.7"/><path class="cls-3" d="M102.38,133.79a5.39,5.39,0,1,1-1.57-3.75,5.14,5.14,0,0,1,1.57,3.75"/><path class="cls-3" d="M116.42,132.21a4.55,4.55,0,0,1-4.48,4.48,4.17,4.17,0,0,1-3.15-1.33,4.3,4.3,0,0,1-1.33-3.15,4.55,4.55,0,0,1,4.48-4.48,4.3,4.3,0,0,1,3.15,1.33,4.17,4.17,0,0,1,1.33,3.14"/><path class="cls-3" d="M120.12,123a3.11,3.11,0,0,1,2.36-1,3.3,3.3,0,0,1,2.42,1,3.2,3.2,0,0,1,1,2.36,3.31,3.31,0,0,1-3.39,3.39,3.2,3.2,0,0,1-2.36-1,3.31,3.31,0,0,1-1-2.42,3.12,3.12,0,0,1,1-2.36"/><path class="cls-3" d="M64.92,111.82a4.76,4.76,0,1,1,1.39,3.33,4.54,4.54,0,0,1-1.39-3.33"/><path class="cls-3" d="M83.13,116.36a3.93,3.93,0,0,1-4-4,3.8,3.8,0,0,1,1.15-2.78,3.95,3.95,0,0,1,5.69,0,3.8,3.8,0,0,1,1.15,2.78,3.93,3.93,0,0,1-4,4"/><path class="cls-3" d="M92.7,120.48a3.52,3.52,0,0,1,3.39-3.39,3.39,3.39,0,0,1,0,6.77,3.52,3.52,0,0,1-3.39-3.38"/><path class="cls-3" d="M65.4,95.6a3.13,3.13,0,0,1,2.36-1,3.39,3.39,0,0,1,0,6.78A3.34,3.34,0,0,1,65.4,95.6"/></svg>